<svg width="41" height="50" viewBox="0 0 41 50" fill="none" xmlns="http://www.w3.org/2000/svg">
<path d="M20.1401 0.171746C20.3237 -0.0578229 20.6727 -0.0571393 20.8555 0.173148L40.3343 24.7147C40.4669 24.8817 40.4669 25.1183 40.3343 25.2853L20.8555 49.8269C20.6727 50.0571 20.3237 50.0578 20.1401 49.8283L0.504099 25.2867C0.370025 25.1192 0.370026 24.8808 0.5041 24.7133L20.1401 0.171746Z" fill="white"/>
<path d="M36.0562 17.5648L27.5292 6.82162L40.9972 5.08141L36.0562 17.5648Z" fill="white"/>
<path d="M27.6524 43.0232L36.057 32.4342L40.9912 44.9033C41.0262 44.992 40.9518 45.0848 40.8583 45.0704L27.6524 43.0232Z" fill="white"/>
<path d="M4.93851 32.5802L13.4297 43.1927L0.138997 44.9301C0.0459445 44.9422 -0.0261723 44.8493 0.0092402 44.7617L4.93851 32.5802Z" fill="white"/>
<path d="M13.441 6.79325L4.94373 17.4133L0.0089502 5.08261C-0.0261257 4.99454 0.0469476 4.90167 0.140195 4.91486L13.441 6.79325Z" fill="white"/>
</svg>
