<svg width="1920" height="1080" viewBox="0 0 1920 1080" fill="none" xmlns="http://www.w3.org/2000/svg">
<rect width="1920" height="1080" fill="#4E2705"/>
<path d="M949.514 570.077C950.293 569.643 951.073 569.21 951.848 568.773L951.855 568.77L951.857 568.768C957.186 565.769 962.332 562.621 966.04 558.307C966.588 557.669 967.214 556.903 967.612 556.143C968.021 555.363 968.115 554.738 967.861 554.28C967.785 554.144 967.636 554.031 967.359 553.954C967.08 553.877 966.731 553.855 966.351 553.861C964.158 553.891 961.904 554.706 959.7 555.582C956.649 556.795 953.786 558.279 950.955 559.919C950.466 560.203 949.968 560.487 949.466 560.772C946.56 562.427 943.534 564.15 941.383 566.329C940.469 567.255 939.748 568.456 939.399 569.644C939.048 570.838 939.092 571.95 939.594 572.766C939.75 573.018 940.051 573.18 940.578 573.21C941.107 573.24 941.772 573.129 942.498 572.93C943.589 572.633 944.713 572.171 945.59 571.811C945.884 571.69 946.151 571.58 946.379 571.492C947.468 571.072 948.427 570.641 949.407 570.136L949.514 570.077Z" fill="#FFF0E0"/>
<path fill-rule="evenodd" clip-rule="evenodd" d="M979.195 547.827L969.833 538.589C959.326 542.51 949.954 550.107 942.313 558.169C941.303 559.235 940.305 560.325 939.304 561.418C937.185 563.733 935.051 566.063 932.755 568.215C931.598 569.3 930.496 570.461 929.38 571.636C928.949 572.09 928.516 572.546 928.077 573.001C926.511 574.623 924.88 576.214 923.05 577.546C920.187 579.63 917.194 581.625 914.231 583.598C913.325 584.202 912.421 584.804 911.525 585.406C910.243 586.268 908.899 587.032 907.575 587.784C907.331 587.924 907.087 588.062 906.844 588.201C906.221 588.558 905.605 588.916 905 589.286V595.688C906.233 595.323 907.483 595.008 908.725 594.701L909.133 594.6C910.408 594.285 911.672 593.973 912.913 593.614C914.729 593.09 916.552 592.625 918.367 592.162C921.31 591.411 924.235 590.665 927.083 589.677C928.08 589.331 929.098 589.064 930.094 588.803L930.099 588.802L930.464 588.706C931.585 588.41 932.678 588.109 933.734 587.691C934.542 587.371 935.319 586.994 936.112 586.609L936.114 586.609L936.115 586.608L936.119 586.606C936.328 586.505 936.537 586.403 936.749 586.301C937.758 585.818 938.802 585.348 939.921 585.032C940.668 584.821 941.435 584.342 942.259 583.781C942.384 583.696 942.511 583.609 942.639 583.521C943.327 583.047 944.05 582.549 944.769 582.212C946.871 581.228 948.955 579.732 950.927 578.317C951.149 578.158 951.369 578 951.588 577.844C953.738 576.307 956.094 575.061 958.445 573.859C958.737 573.71 959.029 573.561 959.32 573.412L959.323 573.411C960.789 572.665 962.244 571.924 963.65 571.126L972.416 562.244C973.574 560.295 974.588 558.248 975.554 556.284C976.281 554.806 976.901 553.279 977.529 551.734L977.651 551.434C978.14 550.231 978.638 549.019 979.195 547.827ZM946.726 572.39C947.837 571.962 948.815 571.522 949.808 571.012C949.816 571.009 949.823 571.005 949.83 571.002C949.836 570.999 949.842 570.996 949.847 570.993L949.861 570.985C950.643 570.582 951.436 570.136 952.311 569.618C952.734 569.41 953.913 568.717 954.359 568.45C958.986 565.765 963.434 562.815 966.77 558.934C967.318 558.296 968.01 557.457 968.465 556.59C968.909 555.743 969.205 554.719 968.703 553.813C968.455 553.367 968.03 553.141 967.616 553.026C967.204 552.913 966.746 552.892 966.337 552.898C963.945 552.932 961.538 553.816 959.344 554.688C956.236 555.924 953.328 557.431 950.473 559.086C949.998 559.362 949.509 559.64 949.013 559.922C946.114 561.571 942.951 563.371 940.698 565.652C939.679 566.685 938.872 568.023 938.475 569.373C938.081 570.715 938.077 572.138 938.775 573.271C939.164 573.902 939.84 574.132 940.524 574.171C941.207 574.21 941.989 574.067 942.751 573.859C943.907 573.544 945.122 573.044 946.004 572.682L946.005 572.681C946.283 572.568 946.527 572.467 946.726 572.39Z" fill="#FFF0E0"/>
<path d="M961.353 573.454C960.822 573.728 960.289 573.999 959.759 574.27L959.757 574.27C959.465 574.419 959.174 574.567 958.883 574.716C956.533 575.917 954.234 577.136 952.147 578.627C951.929 578.783 951.708 578.941 951.485 579.101C949.525 580.509 947.365 582.059 945.178 583.084C944.537 583.384 943.892 583.828 943.202 584.302C943.07 584.393 942.936 584.485 942.801 584.577C941.984 585.133 941.098 585.7 940.183 585.958C939.148 586.251 938.166 586.69 937.165 587.169C936.961 587.267 936.756 587.367 936.549 587.467C935.752 587.854 934.934 588.252 934.088 588.586C932.973 589.027 931.831 589.341 930.709 589.637C930.585 589.669 930.462 589.702 930.339 589.734C929.338 589.996 928.358 590.253 927.398 590.586C924.524 591.584 921.517 592.352 918.536 593.113C916.729 593.574 914.931 594.033 913.18 594.539C911.92 594.903 910.638 595.22 909.365 595.534L908.956 595.635C907.62 595.966 906.296 596.3 905 596.692V600H921.684C923.042 598.384 924.702 597.096 926.403 595.955C928.222 594.735 930.411 594.106 932.622 593.754C934.633 593.434 936.696 593.34 938.549 593.255C938.733 593.247 938.915 593.238 939.094 593.23C939.822 593.196 940.544 593.171 941.262 593.146L941.266 593.146C941.492 593.138 941.718 593.13 941.944 593.122L961.353 573.454Z" fill="#FFF0E0"/>
<path d="M934.84 600H923.289C924.475 598.644 925.55 597.686 926.939 596.754C928.594 595.644 930.629 595.046 932.773 594.705C934.727 594.394 936.737 594.302 938.598 594.217L938.724 594.211C938.863 594.204 939.002 594.198 939.139 594.192C939.742 594.163 940.35 594.141 940.959 594.12L934.84 600Z" fill="#FFF0E0"/>
<path d="M974.911 559.715C975.439 558.697 975.937 557.686 976.418 556.709C977.16 555.199 977.792 553.643 978.417 552.105L978.542 551.797C978.989 550.699 979.436 549.611 979.923 548.546L982.968 551.551L974.911 559.715Z" fill="#FFF0E0"/>
<path d="M943.885 541.92L905 580.107V588.161C905.454 587.89 905.91 587.626 906.366 587.366C906.613 587.224 906.86 587.084 907.107 586.944C908.431 586.191 909.739 585.447 910.988 584.608C911.889 584.002 912.795 583.399 913.702 582.794L913.703 582.793L913.707 582.791L913.709 582.79C916.668 580.818 919.639 578.839 922.483 576.768C924.244 575.487 925.827 573.945 927.385 572.332C927.811 571.89 928.237 571.442 928.664 570.993C929.786 569.81 930.918 568.618 932.097 567.513C934.366 565.385 936.457 563.102 938.562 560.803C939.569 559.703 940.579 558.599 941.614 557.507C949.202 549.502 958.547 541.882 969.079 537.845L958.583 527.487L953.546 532.434C954.471 532.769 955.324 533.288 956.051 534.119C956.486 534.616 956.823 535.253 956.918 535.925C957.016 536.61 956.859 537.332 956.308 537.93C956.148 538.104 956.003 538.29 955.843 538.494C955.754 538.608 955.661 538.727 955.558 538.854C955.29 539.183 954.973 539.537 954.583 539.789C953.764 540.319 952.786 540.649 951.819 540.883C951.027 541.075 950.214 541.208 949.48 541.329C949.318 541.355 949.161 541.381 949.008 541.407C947.294 541.695 945.591 541.846 943.885 541.92Z" fill="#FFF0E0"/>
<path d="M944.924 540.9C946.235 540.816 947.54 540.677 948.848 540.457C949.009 540.43 949.171 540.404 949.336 540.377L949.337 540.376C950.07 540.256 950.839 540.13 951.593 539.948C952.515 539.724 953.372 539.426 954.06 538.981C954.317 538.815 954.556 538.561 954.812 538.246C954.888 538.153 954.968 538.051 955.051 537.945C955.227 537.72 955.415 537.479 955.6 537.279C955.93 536.919 956.028 536.498 955.965 536.06C955.901 535.608 955.665 535.139 955.327 534.753C954.62 533.945 953.764 533.479 952.771 533.194L944.924 540.9Z" fill="#FFF0E0"/>
<path d="M977.696 562.598L981.695 558.6C982.668 560.029 983.818 561.459 984.906 562.75C986.569 564.723 988.753 566.281 990.929 567.507C991.744 567.966 992.614 568.384 993.472 568.795L994.098 569.096L994.462 569.274C995.639 569.854 996.762 570.458 997.739 571.214C1001.48 574.108 1004.46 578.228 1006.81 582.392C1008.43 585.258 1009.53 588.441 1010.52 591.623C1011.05 593.327 1011.84 594.855 1012.63 596.363L1012.65 596.399L1012.89 596.874L1013.1 597.288C1013.26 597.594 1013.41 597.901 1013.56 598.209C1013.74 598.587 1013.85 598.985 1013.94 599.421L1014.07 600H1004.02C1003.8 599.795 1003.59 599.579 1003.37 599.354L1003.22 599.198C1003 598.97 1002.77 598.735 1002.53 598.497C1001.47 597.469 1000.19 596.711 998.975 595.985L998.946 595.968C997.701 595.226 996.514 594.516 995.536 593.567C993.669 591.757 991.638 590.296 989.461 588.919C988.421 588.26 987.304 587.752 986.227 587.261L986.041 587.176C984.895 586.654 983.796 586.141 982.802 585.463C981.063 584.279 979.361 583.089 977.911 581.621C977.326 581.028 976.836 580.338 976.325 579.61L976.28 579.545C975.791 578.848 975.278 578.116 974.664 577.476C973.433 576.195 972.465 574.426 971.897 572.727C971.558 571.713 971.114 570.686 970.612 569.683L973.948 566.346C974.127 566.433 974.288 566.514 974.423 566.586C974.547 566.652 974.641 566.706 974.708 566.747C974.764 566.781 974.801 566.806 974.821 566.822C977.308 568.861 979.364 571.58 980.943 574.419C981.565 575.537 982.299 576.608 983.013 577.651C983.308 578.082 983.6 578.508 983.879 578.931C984.521 579.902 985.334 580.882 986.091 581.796C986.301 582.049 986.505 582.297 986.702 582.538C988.932 585.276 992.476 587.005 995.948 587.005C997.245 587.005 998.421 586.95 999.731 586.548C999.924 586.488 1000.1 586.389 1000.24 586.23C1000.38 586.067 1000.44 585.876 1000.45 585.693C1000.47 585.36 1000.33 585.029 1000.19 584.781C1000.05 584.518 999.872 584.254 999.724 584.039L999.722 584.035C999.558 583.796 999.457 583.646 999.419 583.559C998.874 582.323 998.118 581.129 997.395 579.986C997.102 579.525 996.815 579.071 996.549 578.627L996.295 578.197L996.105 577.874C995.355 576.592 994.57 575.251 993.513 574.13L992.886 573.459C991.738 572.221 990.469 570.855 989.072 569.88C988.176 569.254 987.212 568.761 986.276 568.291L986.087 568.196C985.209 567.756 984.359 567.33 983.564 566.815C981.498 565.475 979.549 564.106 977.696 562.598Z" fill="#FFF0E0"/>
<path d="M1002.46 599.797L1002.66 600H988.518C988.327 599.784 988.123 599.578 987.92 599.385C987.568 599.05 987.194 598.731 986.849 598.437L986.814 598.407C986.454 598.1 986.134 597.825 985.881 597.573C985.432 597.124 984.938 596.711 984.462 596.313L984.087 595.999C983.492 595.495 982.942 594.997 982.492 594.422C981.609 593.293 980.593 592.283 979.599 591.292L979.595 591.289C979.204 590.9 978.817 590.514 978.441 590.126C977.71 589.368 977.043 588.55 976.361 587.712L976.256 587.583C975.542 586.706 974.807 585.812 973.979 584.986C971.975 582.984 970.027 580.945 968.069 578.896L966.636 577.397C966.134 576.873 965.551 576.423 964.996 576.001L964.896 575.925L964.597 575.697L969.893 570.401C970.319 571.276 970.693 572.162 970.984 573.032C971.587 574.836 972.62 576.738 973.97 578.143C974.532 578.728 975.007 579.407 975.51 580.123L975.537 580.162C976.042 580.882 976.575 581.639 977.226 582.297C978.75 583.84 980.526 585.078 982.26 586.259C983.331 586.989 984.501 587.532 985.642 588.052L985.811 588.129C986.903 588.627 987.963 589.11 988.947 589.732C991.093 591.09 993.064 592.511 994.865 594.258C995.934 595.294 997.213 596.056 998.436 596.784L998.453 596.795C999.698 597.536 1000.88 598.244 1001.86 599.188C1002.05 599.377 1002.25 599.584 1002.46 599.797Z" fill="#FFF0E0"/>
<path d="M963.911 576.384C964.042 576.485 964.173 576.585 964.303 576.683L964.413 576.767C964.708 576.991 964.992 577.21 965.26 577.434C965.502 577.637 965.731 577.844 965.941 578.063L967.37 579.558C969.328 581.607 971.286 583.657 973.299 585.667C974.087 586.454 974.794 587.312 975.51 588.191L975.633 588.343C976.306 589.168 976.992 590.01 977.749 590.794C978.148 591.207 978.547 591.605 978.943 591.998L978.958 592.014C979.938 592.989 980.889 593.935 981.735 595.016C982.248 595.672 982.862 596.222 983.465 596.733L983.862 597.067C984.333 597.461 984.785 597.839 985.201 598.254C985.357 598.409 985.532 598.569 985.716 598.731C985.869 598.866 986.029 599.002 986.189 599.139L986.217 599.163L986.242 599.184C986.553 599.45 986.87 599.72 987.169 600H979.759L960.187 580.107L963.911 576.384Z" fill="#FFF0E0"/>
<path d="M977.012 563.282L974.666 565.628L974.875 565.736C975.099 565.855 975.305 565.975 975.43 566.078C978.037 568.213 980.164 571.037 981.784 573.951C982.383 575.029 983.076 576.04 983.779 577.066C984.08 577.506 984.384 577.948 984.682 578.4C985.292 579.323 986.059 580.249 986.811 581.157L987.187 581.612L987.449 581.93C989.502 584.452 992.776 586.043 995.948 586.043C997.217 586.043 998.278 585.987 999.448 585.627L999.491 585.612C999.485 585.551 999.45 585.43 999.346 585.235C999.304 585.157 999.256 585.077 999.206 584.996C999.165 584.932 999.123 584.867 999.08 584.802L998.905 584.546C998.835 584.444 998.759 584.334 998.691 584.226C998.63 584.128 998.575 584.032 998.538 583.947C998.024 582.781 997.33 581.685 996.622 580.568L996.448 580.292L996.184 579.873L995.945 579.488L995.723 579.121C995.566 578.857 995.412 578.595 995.259 578.334C994.508 577.053 993.788 575.825 992.813 574.791C992.597 574.562 992.381 574.329 992.163 574.095C991.011 572.856 989.825 571.58 988.521 570.669C987.689 570.088 986.784 569.623 985.844 569.151L985.646 569.052L985.639 569.048C984.773 568.614 983.879 568.167 983.04 567.622C980.927 566.252 978.923 564.844 977.012 563.282Z" fill="#FFF0E0"/>
<path d="M1014.41 582.032V597.76C1014.09 597.095 1013.76 596.461 1013.44 595.84C1012.68 594.365 1011.94 592.956 1011.44 591.337C1010.45 588.144 1009.32 584.88 1007.65 581.919C1005.27 577.7 1002.21 573.457 998.328 570.452C997.271 569.635 996.077 568.996 994.887 568.411C994.542 568.241 994.199 568.076 993.859 567.913C993.013 567.507 992.187 567.111 991.402 566.668C989.28 565.474 987.204 563.983 985.641 562.13C984.521 560.8 983.353 559.344 982.388 557.907L986.497 553.797L1014.41 582.032Z" fill="#FFF0E0"/>
<path d="M957.62 582.032L961.068 585.675L960.995 585.757C960.953 585.802 960.912 585.843 960.872 585.881C959.962 586.748 958.97 587.292 957.811 587.927L957.395 588.157C956.961 588.396 956.477 588.597 955.96 588.798L955.568 588.948C955.349 589.032 955.126 589.117 954.902 589.206L954.557 589.347L954.377 589.424C953.326 589.883 952.275 590.496 951.609 591.604C951.339 592.055 951.174 592.531 951.031 592.969L950.983 593.116L950.981 593.122L950.887 593.409L950.813 593.621C950.79 593.687 950.766 593.752 950.741 593.817C950.699 593.925 950.654 594.031 950.605 594.136L950.572 594.207C950.457 594.439 950.328 594.672 950.189 594.924C950.083 595.115 949.972 595.317 949.856 595.538C949.606 596.014 949.358 596.543 949.253 597.048C949.098 597.795 948.974 598.454 948.974 599.267C948.974 599.354 948.981 599.448 948.986 599.518L948.989 599.563L948.99 599.571C948.811 599.635 948.681 599.802 948.671 600H943.518L943.548 599.928C943.605 599.797 943.667 599.667 943.735 599.528L943.755 599.484L943.765 599.465C943.841 599.307 943.923 599.137 943.995 598.963C944.551 597.629 944.983 596.238 945.291 594.818L957.62 582.032Z" fill="#FFF0E0"/>
<path d="M943.944 596.214L940.294 600H942.497C942.544 599.841 942.603 599.69 942.664 599.549C942.735 599.384 942.813 599.221 942.886 599.071L942.898 599.047C942.976 598.886 943.046 598.738 943.107 598.593C943.429 597.819 943.709 597.024 943.944 596.214Z" fill="#FFF0E0"/>
<path d="M968.88 600H957.128C957.99 597.665 959.195 595.678 960.985 593.753C961.842 592.832 963.326 592.046 964.554 591.452C965.016 591.228 965.484 591.027 965.959 590.843L971.617 596.821C971.412 597.079 971.191 597.333 970.96 597.589L970.587 597.998C970.258 598.357 969.918 598.728 969.61 599.106L969.422 599.331C969.261 599.523 969.066 599.754 968.88 600Z" fill="#FFF0E0"/>
<path d="M970.117 600H974.626L972.284 597.526C972.086 597.77 971.88 598.005 971.675 598.233L971.278 598.669C970.956 599.021 970.646 599.359 970.356 599.714L970.134 599.98C970.129 599.987 970.123 599.993 970.117 600Z" fill="#FFF0E0"/>
<path d="M960.28 593.098C958.313 595.214 957.015 597.41 956.105 600H949.908L949.929 599.928C949.935 599.898 949.94 599.87 949.944 599.844C949.963 599.715 949.956 599.586 949.95 599.499L949.944 599.425L949.942 599.401C949.939 599.349 949.936 599.309 949.936 599.267C949.936 598.9 949.965 598.569 950.014 598.232C950.042 598.034 950.078 597.835 950.118 597.625L950.196 597.244C950.271 596.879 950.463 596.452 950.708 595.985C950.8 595.81 950.905 595.62 951.01 595.43C951.163 595.152 951.318 594.872 951.436 594.631C951.633 594.229 951.77 593.811 951.893 593.431L951.899 593.414L951.946 593.268C952.089 592.833 952.225 592.448 952.435 592.1C952.943 591.251 953.768 590.74 954.762 590.307C954.955 590.222 955.151 590.143 955.349 590.065L955.686 589.934L955.894 589.854L956.309 589.695C956.833 589.492 957.367 589.272 957.86 588.999L958.278 588.77C959.424 588.142 960.529 587.537 961.536 586.578C961.578 586.538 961.62 586.496 961.663 586.452L961.733 586.377L965.248 590.091C964.873 590.244 964.501 590.408 964.135 590.585C962.926 591.17 961.278 592.025 960.28 593.098Z" fill="#FFF0E0"/>
<path d="M980.996 505.094L961.471 524.92L1014.41 577.219L1014.32 565.092C1013.14 564.112 1011.99 563 1010.86 561.832C1010.26 561.217 1009.11 560.393 1007.58 559.423C1006.05 558.46 1004.19 557.378 1002.19 556.243C1001.31 555.742 1000.4 555.229 999.485 554.713C996.27 552.902 992.969 551.042 990.405 549.407C986.751 547.077 983.651 544.874 980.822 541.302C977.379 536.954 974.789 530.171 976.091 524.301C976.612 521.951 978.25 520.218 980.204 519.081C982.157 517.947 984.47 517.38 986.443 517.38C989.086 517.38 990.822 518.367 992.821 519.504C993.27 519.759 993.731 520.021 994.219 520.282C996.788 521.654 999.109 523.496 1001.26 525.473C1003.08 527.147 1004.79 528.971 1006.49 530.78C1006.86 531.174 1007.23 531.568 1007.6 531.958C1009.67 534.151 1011.75 536.274 1014.07 538.078L1014.11 538.112L1014.07 532.427L1000.64 519.359C997.288 518.175 994.089 516.621 991.278 514.421C990.165 513.55 989.19 512.564 988.248 511.596L988.049 511.391C987.17 510.487 986.313 509.606 985.365 508.813C985.023 508.526 984.686 508.232 984.351 507.94C983.395 507.104 982.023 505.694 980.996 505.094Z" fill="#FFF0E0"/>
<path d="M998.896 517.664L983.501 502.515L981.684 504.385C982.733 505.033 984.136 506.471 985.047 507.268C985.366 507.547 985.678 507.82 985.983 508.075C986.971 508.901 987.861 509.817 988.733 510.714L988.938 510.924C989.882 511.895 990.815 512.837 991.871 513.663C994.01 515.337 996.386 516.627 998.896 517.664Z" fill="#FFF0E0"/>
<path d="M1014.24 554.61L1014.31 563.818C1013.39 563.008 1012.47 562.112 1011.55 561.162C1010.86 560.454 1009.62 559.577 1008.09 558.609C1006.55 557.634 1004.67 556.542 1002.67 555.407C1001.78 554.9 1000.86 554.384 999.943 553.866L999.942 553.866L999.941 553.866C996.73 552.056 993.462 550.214 990.923 548.596C987.293 546.281 984.303 544.148 981.577 540.704C978.245 536.496 975.812 530.003 977.03 524.509C977.476 522.498 978.889 520.959 980.688 519.914C982.489 518.867 984.634 518.342 986.443 518.342C988.812 518.342 990.301 519.186 992.276 520.305C992.74 520.567 993.23 520.845 993.765 521.131C996.235 522.45 998.488 524.233 1000.61 526.182C1002.4 527.829 1004.08 529.622 1005.78 531.429L1005.78 531.431L1005.78 531.433C1006.15 531.828 1006.52 532.224 1006.9 532.619C1008.97 534.816 1011.1 536.985 1013.48 538.838C1013.69 539.004 1013.9 539.167 1014.12 539.327L1014.16 544.426C1013.54 544.102 1012.92 543.79 1012.28 543.491C1010.22 542.522 1008.26 541.562 1006.6 540.215C1006.28 539.954 1005.96 539.696 1005.64 539.439L1005.64 539.438C1004.41 538.456 1003.19 537.485 1002.14 536.412C1001.7 535.961 1001.3 535.499 1000.9 535.025C1000.66 534.749 1000.42 534.47 1000.16 534.185C999.711 533.679 999.204 533.204 998.713 532.744C998.486 532.531 998.262 532.321 998.048 532.113C997.87 531.938 997.689 531.755 997.506 531.568C997.046 531.101 996.564 530.611 996.022 530.177C995.294 529.595 994.462 529.253 993.66 528.923L993.494 528.855C993.08 528.684 992.673 528.504 992.266 528.325C990.819 527.686 989.37 527.047 987.628 526.8C987.506 526.782 987.382 526.764 987.256 526.746L987.255 526.746C986.521 526.638 985.717 526.52 984.943 526.519C984.672 526.518 984.459 526.599 984.288 526.691C984.209 526.734 984.135 526.781 984.076 526.818L984.075 526.819C984.012 526.859 983.963 526.89 983.912 526.918C983.19 527.318 982.792 527.881 982.659 528.539C982.532 529.169 982.659 529.833 982.863 530.444C983.222 531.523 984.03 532.448 984.911 533.246C985.558 533.831 986.282 534.379 986.943 534.88L986.945 534.881C987.183 535.062 987.414 535.236 987.629 535.404C988.79 536.307 990.004 537.173 991.317 537.937C991.471 538.027 991.624 538.114 991.774 538.199C992.317 538.509 992.828 538.8 993.293 539.155C993.621 539.405 993.934 539.671 994.257 539.947L994.33 540.009C994.676 540.303 995.036 540.607 995.424 540.892C995.821 541.185 996.214 541.459 996.601 541.729C997.3 542.217 997.979 542.691 998.628 543.23C999.728 544.146 1000.75 545.118 1001.78 546.102L1001.78 546.105C1002.17 546.484 1002.57 546.864 1002.98 547.243C1004.43 548.602 1005.96 549.932 1007.75 551.046C1008.95 551.79 1010.21 552.462 1011.46 553.12L1011.83 553.317C1012.64 553.745 1013.45 554.169 1014.24 554.61Z" fill="#FFF0E0"/>
<path d="M1014.23 553.506L1014.17 545.522C1013.42 545.117 1012.65 544.729 1011.87 544.362C1009.82 543.397 1007.76 542.393 1006 540.962C1005.69 540.713 1005.38 540.462 1005.06 540.21C1003.83 539.223 1002.55 538.205 1001.46 537.085C1001 536.616 1000.56 536.108 1000.13 535.615L1000.13 535.614L1000.13 535.613C999.901 535.344 999.674 535.079 999.448 534.828C999.022 534.352 998.568 533.927 998.095 533.484C997.86 533.264 997.62 533.039 997.377 532.802C997.166 532.597 996.969 532.396 996.776 532.2C996.334 531.75 995.916 531.325 995.421 530.929C994.804 530.436 994.092 530.142 993.259 529.799L993.126 529.744C992.668 529.555 992.233 529.363 991.809 529.177C990.384 528.549 989.09 527.98 987.492 527.753C987.362 527.734 987.232 527.715 987.103 527.696C986.365 527.588 985.64 527.482 984.942 527.481C984.876 527.481 984.821 527.497 984.744 527.539C984.7 527.562 984.655 527.591 984.592 527.63L984.584 527.636C984.527 527.672 984.456 527.718 984.379 527.76C983.884 528.034 983.676 528.369 983.603 528.729C983.524 529.119 983.594 529.594 983.776 530.14C984.056 530.98 984.714 531.769 985.557 532.532C986.17 533.087 986.842 533.595 987.493 534.088C987.74 534.275 987.984 534.46 988.221 534.644C989.36 535.531 990.538 536.37 991.801 537.105C991.937 537.184 992.077 537.264 992.22 537.345C992.771 537.659 993.355 537.992 993.876 538.389C994.227 538.656 994.558 538.939 994.878 539.211L994.954 539.276C995.301 539.571 995.637 539.854 995.994 540.117C996.35 540.379 996.724 540.64 997.103 540.905C997.826 541.41 998.567 541.928 999.243 542.49C1000.37 543.428 1001.42 544.435 1002.46 545.428C1002.86 545.802 1003.25 546.175 1003.64 546.541C1005.07 547.886 1006.54 549.164 1008.26 550.228C1009.43 550.952 1010.66 551.61 1011.91 552.269L1012.28 552.466C1012.93 552.808 1013.58 553.152 1014.23 553.506Z" fill="#FFF0E0"/>
<path d="M965.321 484.813L968.85 488.342C965.677 490.427 962.685 492.663 959.825 495.061C957.637 496.895 955.734 499.073 953.897 501.183C953.68 501.432 953.445 501.692 953.202 501.961L953.201 501.962C952.604 502.623 951.957 503.341 951.396 504.092C950.599 505.159 949.92 506.363 949.736 507.718C949.692 508.041 949.74 508.336 949.875 508.595C950.008 508.848 950.207 509.032 950.414 509.169C950.786 509.415 951.264 509.557 951.625 509.664L951.691 509.683C952.32 509.87 953.153 509.896 953.929 509.87C954.704 509.843 955.477 509.762 956.035 509.704L956.066 509.701C958.378 509.459 959.968 508.525 961.767 507.468C962.062 507.295 962.362 507.119 962.672 506.941C965.102 505.553 966.94 504.247 968.618 503.018C968.844 502.852 969.067 502.688 969.288 502.526C970.709 501.48 972.044 500.498 973.593 499.555C974.635 498.921 975.305 498.368 976.78 497.762L976.853 497.732C977.18 497.598 977.508 497.463 977.834 497.326L980.722 500.214L969.588 511.569C968.118 512.325 966.924 512.96 965.434 513.754L965.433 513.754C963.692 514.681 961.545 515.825 958.077 517.628C956.326 518.187 954.47 519.039 952.651 519.903C952.385 520.029 952.121 520.156 951.857 520.281C950.289 521.03 948.761 521.76 947.328 522.312C939.678 525.262 932.267 529.085 925.384 533.516C922.19 535.572 919.22 537.926 916.31 540.329C915.567 540.942 914.829 541.557 914.092 542.172C911.934 543.972 909.785 545.763 907.563 547.458C906.749 548.079 905.933 548.698 905.116 549.317L905.034 538.826C911.971 535.556 918.709 531.647 924.805 527.056C928.894 523.976 932.745 520.572 936.122 516.697C937.805 514.767 939.378 512.737 940.94 510.723C941.424 510.099 941.908 509.476 942.392 508.857C946.819 503.214 951.624 497.88 956.537 492.636C959.368 489.615 962.118 487.025 965.321 484.813Z" fill="#FFF0E0"/>
<path d="M905.126 550.517L905.187 558.288C906.677 558.097 908.131 557.749 909.386 557.133C913.203 555.259 915.854 552.732 918.32 550.087C918.796 549.576 919.267 549.058 919.739 548.54L919.74 548.539C921.697 546.389 923.671 544.22 926.137 542.387C927.884 541.088 929.77 540.01 931.639 538.958L931.986 538.762C933.744 537.773 935.48 536.797 937.109 535.657C938.136 534.938 939.163 534.214 940.191 533.488L940.192 533.487C942.553 531.821 944.921 530.15 947.311 528.534C950.67 526.264 954.175 524.578 957.741 522.863C958.036 522.721 958.333 522.579 958.629 522.436L967.27 513.868C966.832 514.1 966.382 514.34 965.9 514.596L965.899 514.597C964.155 515.526 961.997 516.674 958.484 518.501L958.447 518.521L958.407 518.533C956.715 519.069 954.9 519.9 953.064 520.773C952.802 520.897 952.54 521.022 952.277 521.147C950.712 521.895 949.145 522.643 947.675 523.21C940.089 526.135 932.736 529.928 925.905 534.325C922.76 536.349 919.826 538.674 916.922 541.071C916.189 541.677 915.456 542.288 914.723 542.899L914.721 542.9C912.559 544.704 910.387 546.515 908.147 548.223C907.141 548.99 906.134 549.755 905.126 550.517Z" fill="#FFF0E0"/>
<path d="M905.195 559.258L905.243 565.398C906.242 566.09 906.988 566.72 907.508 567.297C908.307 568.186 908.664 569.065 908.367 569.892C908.086 570.672 907.288 571.194 906.361 571.57C906.035 571.701 905.678 571.822 905.294 571.932L905.321 575.294L956.532 524.516C953.541 525.967 950.646 527.442 947.85 529.332C945.469 530.941 943.114 532.603 940.757 534.267C939.726 534.994 938.695 535.722 937.661 536.446C935.992 537.614 934.217 538.612 932.468 539.596L932.111 539.797C930.239 540.85 928.403 541.902 926.711 543.16C924.327 544.931 922.43 547.015 920.479 549.158C920 549.684 919.517 550.214 919.024 550.744C916.531 553.418 913.785 556.046 909.81 557.997C908.402 558.689 906.793 559.06 905.195 559.258Z" fill="#FFF0E0"/>
<path d="M905.286 570.93L905.252 566.589C905.924 567.089 906.429 567.538 906.792 567.941C907.512 568.741 907.576 569.247 907.461 569.566C907.329 569.933 906.883 570.319 905.999 570.678C905.78 570.766 905.542 570.85 905.286 570.93Z" fill="#FFF0E0"/>
<path d="M969.492 488.984L977.201 496.738C976.995 496.823 976.786 496.909 976.577 496.995L976.576 496.995L976.551 497.005C975.098 497.602 974.213 498.051 973.092 498.733C971.505 499.699 970.134 500.708 968.714 501.753C968.494 501.915 968.273 502.078 968.05 502.241C966.382 503.463 964.578 504.744 962.195 506.106C961.869 506.292 961.56 506.473 961.261 506.648L961.26 506.649L961.258 506.649C959.458 507.704 958.056 508.524 955.966 508.743L955.944 508.746C955.383 508.804 954.637 508.882 953.897 508.908C953.134 508.933 952.435 508.9 951.965 508.761L951.962 508.76C951.549 508.637 951.194 508.531 950.945 508.367C950.83 508.29 950.764 508.217 950.728 508.148C950.695 508.085 950.67 507.994 950.69 507.847C950.842 506.727 951.412 505.679 952.167 504.668C952.7 503.954 953.298 503.292 953.882 502.645C954.133 502.367 954.382 502.091 954.623 501.815C956.467 499.697 958.323 497.577 960.444 495.798C963.331 493.378 966.28 491.083 969.492 488.984Z" fill="#FFF0E0"/>
<path d="M964.586 484.165L960.144 480L939.863 499.83C938.927 502.827 937.683 505.502 935.318 507.89C932.034 511.205 927.244 515.21 922.158 517.387L905 534.545L905.025 537.765C911.77 534.557 918.308 530.744 924.226 526.287C928.276 523.237 932.074 519.877 935.397 516.064C937.059 514.157 938.609 512.158 940.168 510.148L940.169 510.146L940.17 510.145L940.172 510.143C940.658 509.517 941.144 508.889 941.635 508.263C946.087 502.588 950.914 497.229 955.834 491.978C958.644 488.979 961.383 486.401 964.586 484.165Z" fill="#FFF0E0"/>
<path d="M924.26 515.286C928.25 513.088 931.938 509.933 934.634 507.212C936.384 505.446 937.489 503.508 938.325 501.333L933.235 506.31L924.26 515.286Z" fill="#FFF0E0"/>
</svg>
