<svg width="137" height="59" viewBox="0 0 137 59" fill="none" xmlns="http://www.w3.org/2000/svg">
<path d="M0.90625 3.5C2.4375 5.15625 3.21875 7.46875 3.21875 10.4062V37.0938C3.21875 40.0312 2.53125 42.3438 1.1875 44H30.4375L32.5312 33.25C31.1875 36.5 29.4688 38.875 27.4062 40.4062C25.3125 41.9688 22.9688 42.7188 20.375 42.7188H13.9062C12.9375 42.7188 12.125 42.5625 11.5 42.25C10.8438 41.9375 10.3438 41.5 10.0312 40.9062C9.71875 40.3438 9.5 39.7188 9.375 39.0938C9.25 38.4688 9.1875 37.7188 9.1875 36.9062V23.6562H16.2188C18.6562 23.6562 20.5625 24.1875 22 25.1875C23.4375 26.2188 24.375 27.5938 24.8438 29.2812V17.1875C23.9062 20.75 21.0312 22.5 16.2188 22.5H9.1875V4.625H16.9062C20.625 4.625 23.6562 5.28125 25.9688 6.59375C28.2812 7.90625 30.125 10.2188 31.5 13.5312L29.5312 3.5H0.90625ZM36.3438 44H45.1875C43.9062 42.4375 43.2812 40.1562 43.2812 37.0938V0.34375L36.3438 3.8125C37.625 5.4375 38.2812 7.71875 38.2812 10.7188V37.0938C38.2812 40.0938 37.625 42.4062 36.3438 44ZM47.0938 49.0625C47.0938 50.375 47.4062 51.5625 48.0312 52.6562C48.6562 53.75 49.4688 54.6562 50.4688 55.375C51.4688 56.0938 52.5938 56.6875 53.8438 57.1875C55.0938 57.6875 56.3438 58.0625 57.5938 58.2812C58.8438 58.5 60.0312 58.5938 61.1875 58.5938C62.625 58.5938 64.0625 58.4688 65.4688 58.2188C66.8438 57.9688 68.2188 57.5312 69.5312 56.9062C70.8438 56.3125 71.9688 55.5938 72.9688 54.7188C73.9688 53.8438 74.75 52.7812 75.375 51.4688C75.9688 50.1562 76.2812 48.7188 76.2812 47.125C76.2812 46.3125 76.1562 45.5625 75.9688 44.875C75.7812 44.1875 75.5312 43.5938 75.25 43.0938C74.9688 42.5938 74.5625 42.1562 74.0312 41.7812C73.5 41.4062 73.0312 41.0625 72.5938 40.8125C72.1562 40.5625 71.5625 40.375 70.8125 40.1875C70.0625 40.0312 69.4375 39.9062 68.9375 39.8125C68.4375 39.75 67.75 39.6875 66.875 39.625C66 39.5625 65.375 39.5312 64.9375 39.5312H62.9688C62.2812 39.5312 61.75 39.5312 61.3125 39.5312C60.875 39.5312 60.2812 39.5 59.5312 39.4688C58.7812 39.4688 58.1875 39.4062 57.6875 39.3438C57.1875 39.2812 56.5938 39.1875 55.9688 39.0625C55.3438 38.9375 54.8125 38.8125 54.375 38.625C53.9375 38.4375 53.5312 38.2188 53.1562 37.9688C52.7812 37.7188 52.5 37.4375 52.3125 37.0625C52.125 36.7188 52.0312 36.3125 52.0312 35.875C52.0312 34.6875 52.6562 33.6875 53.9688 32.875C55.9688 34.4062 58.5 35.1562 61.5625 35.1562C64.875 35.1562 67.6875 34.1875 70 32.1875C72.3125 30.1875 73.4688 27.5625 73.4688 24.2812C73.4688 21.2812 72.4062 18.8125 70.2812 16.875C71.125 16.0312 71.9688 15.5938 72.8438 15.5938C73.2812 15.5938 73.6875 15.75 74.0625 16.0312C74.4062 16.3125 74.6875 16.625 74.875 16.9688C75.0625 17.3438 75.3438 17.6562 75.6875 17.9375C76 18.2188 76.375 18.3438 76.8125 18.3438C77.4375 18.3438 77.9062 18.125 78.2188 17.625C78.5312 17.125 78.7188 16.5625 78.7188 15.9062C78.7188 14.9688 78.4375 14.25 77.875 13.75C77.3125 13.2812 76.5312 13.0312 75.5938 13.0312C74.4688 13.0312 73.375 13.3438 72.3438 13.9688C71.3125 14.5938 70.4375 15.4062 69.6875 16.4062C67.625 14.8438 65.0625 14.0625 62.0312 14.0625C58.6875 14.0625 55.875 15.0625 53.5625 17C51.25 18.9375 50.125 21.5625 50.125 24.8125C50.125 26.3125 50.4062 27.75 51 29.0938C51.5938 30.4688 52.4375 31.5938 53.5625 32.5312C50.9375 34.1562 49.6562 36.0312 49.6562 38.125C49.6562 39.75 50.4688 41.0312 52.1562 41.9375C50.6875 42.7188 49.4688 43.7188 48.5312 44.9688C47.5625 46.2188 47.0938 47.5625 47.0938 49.0625ZM49.1562 47.1875C49.1562 46.1875 49.4375 45.2188 50.0312 44.3438C50.625 43.4688 51.4062 42.75 52.3438 42.1562C52.6562 42.4062 53.0312 42.5938 53.4688 42.7812C53.875 42.9688 54.375 43.125 54.9375 43.25C55.5 43.375 55.9688 43.5 56.4062 43.5938C56.8125 43.6875 57.375 43.7812 58.125 43.8438C58.875 43.9062 59.4062 43.9688 59.7812 44C60.1562 44.0625 60.75 44.0938 61.625 44.0938C62.5 44.125 63.0312 44.1562 63.2812 44.1562C63.5 44.1562 64.0625 44.1875 65 44.1875C65.9375 44.1875 66.4375 44.1875 66.5 44.1875C67.25 44.25 67.875 44.2812 68.3438 44.3125C68.7812 44.375 69.4062 44.4375 70.1562 44.5312C70.9062 44.6562 71.5312 44.8125 72.0312 45C72.5 45.1875 72.9688 45.4375 73.4688 45.75C73.9688 46.0625 74.3125 46.4375 74.5625 46.9062C74.8125 47.375 74.9375 47.9062 74.9375 48.5312C74.9375 49.7188 74.5312 50.7188 73.7188 51.5625C72.9062 52.4375 71.9062 53.0625 70.6562 53.5C69.4062 53.9375 68.2188 54.2188 67.0312 54.4062C65.8438 54.5938 64.75 54.6875 63.6875 54.6875C62.6562 54.6875 61.5625 54.625 60.375 54.5C59.1875 54.375 57.9375 54.125 56.5938 53.75C55.2188 53.375 54 52.9375 52.9375 52.375C51.8438 51.8438 50.9375 51.125 50.2188 50.2188C49.5 49.3438 49.1562 48.3125 49.1562 47.1875ZM54.5938 22.1875C54.5938 20.1562 55.0938 18.4062 56.0938 16.9375C57.0938 15.5 58.5938 14.75 60.5625 14.75C62.25 14.75 63.7812 15.4375 65.125 16.75C66.4688 18.0938 67.4688 19.6562 68.0938 21.4062C68.7188 23.1875 69.0625 24.9062 69.0625 26.5938C69.0625 27.9375 68.8438 29.1875 68.4062 30.3438C67.9688 31.5 67.2812 32.4688 66.3438 33.2812C65.375 34.0938 64.2188 34.4688 62.9062 34.4688C61.5938 34.4688 60.375 34.0625 59.2812 33.25C58.1875 32.4375 57.3125 31.375 56.6562 30.0938C56 28.8438 55.5 27.5 55.125 26.125C54.75 24.75 54.5938 23.4375 54.5938 22.1875ZM78.0938 29.5312C78.0938 31.4688 78.4062 33.3438 79.0312 35.0938C79.6562 36.8438 80.5625 38.4375 81.75 39.8125C82.9062 41.1875 84.4062 42.2812 86.25 43.0938C88.0625 43.9062 90.0938 44.3125 92.3125 44.3125C94.5938 44.3125 96.6875 43.9062 98.5938 43.0312C100.469 42.1562 102.031 41.0312 103.219 39.5938C104.406 38.1562 105.312 36.5312 106 34.6875C106.625 32.9375 106.938 31.0938 106.969 29.1562V28.9688C106.969 27.0312 106.625 25.1875 106 23.4062C105.375 21.625 104.469 20.0312 103.281 18.6562C102.094 17.2812 100.594 16.1562 98.7812 15.3125C96.9375 14.5 94.9062 14.0625 92.6875 14.0625C90.375 14.0625 88.2812 14.5 86.4062 15.375C84.5312 16.25 82.9688 17.4375 81.7812 18.875C80.5938 20.3438 79.6562 22 79.0312 23.8125C78.4062 25.5938 78.0938 27.4375 78.0938 29.3438V29.5312ZM83.625 29.3438C83.5625 28.5312 83.5312 27.75 83.5312 26.9375C83.5 25.9375 83.5625 24.9375 83.6875 23.9688C83.875 22.2812 84.2812 20.75 84.875 19.375C85.4375 18.0312 86.2812 16.9688 87.375 16.1562C88.4375 15.3438 89.7188 14.9375 91.2188 14.9375C93.1562 14.9375 94.9062 15.6562 96.4375 17.0938C97.9688 18.5312 99.125 20.2812 99.9375 22.3438C100.75 24.4062 101.219 26.625 101.406 28.9688C101.469 29.7812 101.5 30.5938 101.5 31.375C101.5 33 101.344 34.5 101.062 35.9375C100.625 38.0625 99.8125 39.875 98.5625 41.3125C97.2812 42.75 95.6875 43.4375 93.7812 43.4375C91.8438 43.4375 90.0938 42.75 88.5938 41.3125C87.0938 39.875 85.9375 38.125 85.1562 36.0625C84.3438 34 83.8438 31.75 83.625 29.3438ZM110.781 28.9688C110.781 30.5312 110.969 32.0625 111.375 33.5625C111.781 35.0625 112.406 36.4375 113.25 37.75C114.062 39.0625 115.062 40.1875 116.219 41.1562C117.375 42.1562 118.75 42.9062 120.375 43.4688C122 44.0312 123.719 44.3125 125.594 44.3125C130.812 44.3125 134.562 42.0938 136.844 37.6562C134.688 40.4375 131.844 41.8125 128.344 41.8125C126.406 41.8125 124.625 41.4062 123.031 40.5312C121.438 39.6562 120.156 38.5312 119.156 37.0938C118.156 35.6875 117.406 34.0938 116.875 32.3438C116.344 30.5938 116.094 28.8125 116.094 26.9688C116.094 24.7812 116.406 22.7812 117.094 20.9688C117.781 19.1562 118.812 17.6875 120.219 16.5312C121.594 15.4062 123.25 14.8125 125.125 14.8125C129.719 14.8125 132.469 18.3438 133.375 25.375L136.062 17.4375C133.531 15.1875 130.156 14.0625 125.906 14.0625C123.906 14.0625 122.062 14.3438 120.375 14.9062C118.688 15.4688 117.281 16.25 116.125 17.1875C114.938 18.125 113.969 19.25 113.156 20.5312C112.344 21.8125 111.719 23.1562 111.344 24.5625C110.969 26 110.781 27.4688 110.781 28.9688Z" fill="#FFB189"/>
</svg>
