<svg width="184" height="46" viewBox="0 0 184 46" fill="none" xmlns="http://www.w3.org/2000/svg">
<path d="M32.4062 0.1875V36.375L4.875 0.1875H0.71875V45H5.53125V8.84375L33.0312 45H37.1875V0.1875H32.4062ZM73.375 29.6562C73.375 32.9688 72.25 35.7812 70.0625 38.0625C67.875 40.3438 65.2188 41.4688 62.1562 41.4688C59.0938 41.4688 56.4375 40.3438 54.25 38.0312C52.0625 35.7188 50.9688 32.9375 50.9688 29.625C50.9688 26.3125 52.0625 23.5312 54.25 21.25C56.4375 18.9688 59.0938 17.8125 62.1562 17.8125C65.2188 17.8125 67.875 18.9688 70.0625 21.25C72.25 23.5312 73.375 26.3438 73.375 29.6562ZM46.5 29.6562C46.5 34.1562 48 37.9375 51.0625 41.0312C54.125 44.0938 57.8125 45.6562 62.1875 45.6562C66.5312 45.6562 70.2188 44.0938 73.25 41.0312C76.3125 37.9375 77.8125 34.1562 77.8125 29.6562C77.8125 25.1562 76.3125 21.375 73.25 18.2812C70.2188 15.1875 66.5312 13.625 62.1875 13.625C57.8125 13.625 54.125 15.1875 51.0625 18.2812C48 21.375 46.5 25.1562 46.5 29.6562ZM101.875 13.625H100.594C99.25 13.625 97.9688 13.8125 96.7812 14.1562C95.5938 14.5 94.625 14.875 93.9062 15.3125C93.1875 15.75 92.5312 16.2188 91.9062 16.7812C91.2812 17.3438 90.875 17.7188 90.7188 17.9375C90.5312 18.1562 90.4062 18.3438 90.3438 18.4688V14.3125H85.875V45.0312H90.3438V28.0625C90.3438 25.125 91.2812 22.7188 93.1562 20.9062C95.0312 19.0625 97.2812 18.1562 99.9375 18.1562H101.875V13.625ZM148.875 45H153.375V26.75C153.375 22.625 152.25 19.4062 150.062 17.0938C147.875 14.7812 145.031 13.625 141.531 13.625C140.062 13.625 138.688 13.8438 137.438 14.2188C136.188 14.5938 135.188 15.0312 134.469 15.5312C133.75 16.0312 133.094 16.5625 132.469 17.1875C131.844 17.8125 131.438 18.2812 131.312 18.5312C131.156 18.7812 131.031 18.9688 130.938 19.0938L130.625 18.5C130.406 18.125 130.031 17.6875 129.531 17.125C129.031 16.5938 128.406 16.0625 127.719 15.5625C127.031 15.0625 126.062 14.5938 124.875 14.2188C123.688 13.8438 122.406 13.6562 121.031 13.6562C119.875 13.6562 118.812 13.8125 117.812 14.125C116.812 14.4375 116 14.8125 115.375 15.2188C114.75 15.625 114.156 16.0938 113.656 16.5938C113.156 17.0938 112.844 17.4688 112.719 17.6562C112.594 17.8438 112.469 18.0312 112.406 18.1562V14.3125H107.938V45.0312H112.406V28.0625C112.406 24.9375 113.188 22.4688 114.781 20.625C116.375 18.75 118.344 17.8438 120.719 17.8438C123.031 17.8438 124.875 18.625 126.281 20.1875C127.688 21.75 128.406 23.9688 128.406 26.7812V45.0312H132.875V28.0625C132.875 24.9375 133.656 22.4688 135.281 20.625C136.875 18.75 138.844 17.8438 141.219 17.8438C143.5 17.8438 145.344 18.5938 146.75 20.1562C148.156 21.7188 148.875 23.9062 148.875 26.7812V45ZM182.188 17.8125L181.719 17.3438C181.469 17.0938 181.031 16.7812 180.469 16.3438C179.906 15.9062 179.25 15.5 178.531 15.0938C177.781 14.6875 176.844 14.3438 175.719 14.0625C174.594 13.7812 173.438 13.625 172.25 13.625C169.312 13.625 166.844 14.5 164.906 16.2188C162.969 17.9688 162 19.9688 162 22.2812C162 24.25 162.562 25.8438 163.719 27.0938C164.875 28.3438 166.281 29.25 167.906 29.8125C169.531 30.375 171.125 30.9062 172.75 31.375C174.375 31.8438 175.75 32.4688 176.906 33.2812C178.062 34.0938 178.656 35.125 178.656 36.4062C178.656 37.875 178.062 39.0938 176.906 40.0625C175.75 41 174.094 41.5 171.938 41.5C171 41.5 170.062 41.3438 169.156 41.0312C168.219 40.7188 167.469 40.3438 166.906 39.9375C166.312 39.5312 165.75 39.0625 165.25 38.5625C164.75 38.0625 164.406 37.6875 164.281 37.5C164.125 37.3125 164 37.1562 163.938 37.0312L160.719 40.2188L161.125 40.8125C161.406 41.1875 161.844 41.625 162.469 42.1562C163.094 42.6875 163.812 43.2188 164.656 43.75C165.469 44.25 166.531 44.7188 167.812 45.0938C169.094 45.4688 170.469 45.6562 171.938 45.6562C175.344 45.6562 178.062 44.75 180.094 43C182.094 41.25 183.125 39.0312 183.125 36.4062C183.125 34.375 182.531 32.7188 181.406 31.4062C180.25 30.0938 178.875 29.1562 177.25 28.5938C175.625 28.0312 174 27.5 172.375 27.0625C170.75 26.625 169.344 26.0312 168.219 25.2812C167.062 24.5312 166.5 23.5312 166.5 22.3125C166.5 21.125 167.031 20.0625 168.094 19.1875C169.156 18.2812 170.531 17.8438 172.25 17.8438C173.562 17.8438 174.812 18.125 176 18.7188C177.156 19.3125 177.906 19.7812 178.219 20.125C178.531 20.4688 178.781 20.7812 178.969 21.0312L182.188 17.8125Z" fill="#FFB189"/>
</svg>
