<svg width="189" height="42" viewBox="0 0 189 42" fill="none" xmlns="http://www.w3.org/2000/svg">
<path d="M0.90625 41H6.6875C5.8125 40 5.21875 38.9375 4.875 37.8125C4.53125 36.6875 4.375 35.3438 4.375 33.7188V5.40625L21.7812 41.8438L27.3438 39.2188L41.75 5.21875V33.5625C41.75 35.1875 41.5625 36.5625 41.25 37.6875C40.9375 38.8438 40.3125 39.9375 39.4375 41H50C49.125 40.0312 48.5312 38.9688 48.2188 37.8438C47.875 36.7188 47.7188 35.375 47.7188 33.8438V7.90625C47.7188 6.28125 47.875 4.90625 48.1875 3.78125C48.5 2.65625 49.125 1.5625 50 0.5H42.4688L26.6562 38L8.65625 0.5H0.90625C2.4375 2.15625 3.21875 4.53125 3.21875 7.59375V33.7188C3.21875 35.3125 3.03125 36.6875 2.71875 37.8125C2.375 38.9688 1.78125 40.0312 0.90625 41ZM53.8438 15.0312C55.125 16.6562 55.7812 18.9375 55.7812 21.9375V28C55.7812 29.1875 55.7812 30.1562 55.8125 30.9375C55.8438 31.7188 55.9062 32.625 56.0312 33.625C56.1562 34.6562 56.3125 35.5 56.5312 36.1562C56.75 36.8438 57.0625 37.5312 57.5 38.2188C57.9062 38.9375 58.4062 39.5 59 39.9062C59.5625 40.3438 60.2812 40.6875 61.1562 40.9375C62.0312 41.1875 63.0312 41.3125 64.1562 41.3125C66.6875 41.3125 68.875 40.5938 70.75 39.1562C72.5938 37.7188 74.2812 35.6875 75.8125 33.125V41.625L82.6562 38.3125C81.375 36.75 80.75 34.4688 80.75 31.4062V11.3125L73.875 14.75C75.1562 16.375 75.8125 18.6875 75.8125 21.6875V32.6875C73 36.75 69.9688 38.75 66.7188 38.75C65.7812 38.75 65 38.625 64.3125 38.375C62.5 37.75 61.375 36.0938 60.9688 33.4062C60.7812 32.2812 60.7188 29.9688 60.7188 26.4062V11.5625L53.8438 15.0312ZM84.5312 13.3438H88.0625V31.4688C88.0625 32.4062 88.0625 33.2188 88.125 33.9062C88.1562 34.5938 88.25 35.3438 88.375 36.1875C88.5 37.0625 88.6875 37.7812 89 38.3438C89.2812 38.9062 89.6562 39.4688 90.125 40C90.5625 40.5312 91.1562 40.9375 91.9062 41.1875C92.625 41.4375 93.4688 41.5625 94.4688 41.5625C97.3438 41.5625 99.625 40.0938 101.312 37.1562C100.125 38.3438 98.7812 38.9375 97.3438 38.9375C96.7188 38.9375 96.1875 38.8438 95.7188 38.625C95.2188 38.4062 94.8438 38.1562 94.5312 37.8438C94.2188 37.5312 93.9688 37.125 93.7812 36.5625C93.5625 36 93.4062 35.5312 93.3125 35.0938C93.1875 34.6562 93.125 34.0938 93.0625 33.375C93 32.6875 93 32.125 93 31.75V30.125V29.4688V13.3438H99.9062V12.5312H93V5.53125H91.4688C90.9062 7 90 8.53125 88.7188 10.0938C87.4375 11.6875 86.0312 12.6875 84.5312 13.0938V13.3438ZM103.219 26.2188C103.219 29.0938 103.781 31.6562 104.938 33.9375C106.094 36.25 107.75 38.0312 109.906 39.3438C112.062 40.6562 114.531 41.3125 117.312 41.3125C122.781 41.3125 126.844 38.625 129.469 33.1875C126.906 36.875 123.75 38.6875 120.062 38.6875C118.5 38.6875 117.094 38.4375 115.812 37.875C114.531 37.3125 113.469 36.5938 112.656 35.6875C111.812 34.8125 111.094 33.75 110.531 32.5625C109.938 31.375 109.5 30.1875 109.25 29C108.969 27.8125 108.812 26.625 108.75 25.375H129.719V24.7812C129.719 20.7812 128.719 17.5 126.719 15C124.594 12.375 121.562 11.0625 117.625 11.0625C113.469 11.0625 110.031 12.4688 107.312 15.25C104.562 18.0625 103.219 21.7188 103.219 26.2188ZM108.594 24.625C108.594 23.8125 108.625 23 108.688 22.1875C109 19.1875 109.875 16.7188 111.312 14.7812C112.75 12.8438 114.562 11.875 116.688 11.875C118.812 11.875 120.594 12.7812 122.031 14.5312C123.438 16.2812 124.156 18.25 124.156 20.4062C124.156 22.25 123.469 23.4375 122.125 23.9688C121.375 24.25 119.906 24.4375 117.688 24.5L108.594 24.625ZM133.531 41H157.281L159.781 32.2812C158.219 35.1562 156.594 37.1562 154.875 38.3438C153.125 39.5312 151.094 40.0938 148.719 40.0938H140.719L154.094 20.0625C156.281 16.5938 158.188 13.9688 159.781 12.1875H143.906C141.031 12.1875 138.656 12.0625 136.812 11.75L134.5 20C135.969 17.5625 137.594 15.8125 139.344 14.7188C141.094 13.6562 143.344 13.0938 146.031 13.0938H148.594C150.031 13.0938 151.344 13.0625 152.562 12.9688L139.125 33.1875C137 36.5 135.156 39.0938 133.531 41ZM163.719 34.2812C163.719 36.4688 164.469 38.2188 166.031 39.4688C167.562 40.75 169.438 41.375 171.656 41.375C175.844 41.375 179.281 39.125 181.969 34.5938V41.625L188.875 38.1875C187.594 36.625 186.969 34.3125 186.969 31.2812V24.0938C186.969 22.4688 186.875 21.0625 186.75 19.875C186.625 18.6875 186.344 17.5 185.938 16.3438C185.5 15.2188 184.938 14.2812 184.25 13.5312C183.562 12.8125 182.625 12.2188 181.469 11.7812C180.281 11.3438 178.906 11.125 177.312 11.125C174.344 11.125 171.812 11.6875 169.719 12.7812C167.594 13.9062 166.094 15.0312 165.219 16.2188L167.906 23.1562C168.094 21.9062 168.312 20.7812 168.562 19.75C168.812 18.75 169.156 17.75 169.594 16.75C170.031 15.75 170.531 14.9375 171.094 14.25C171.656 13.5625 172.344 13.0312 173.188 12.625C174.031 12.2188 174.969 12 176.031 12C177 12 177.844 12.1875 178.594 12.5625C179.344 12.9375 179.906 13.375 180.344 13.9375C180.75 14.5 181.094 15.2188 181.344 16.0312C181.594 16.875 181.75 17.6875 181.844 18.4375C181.906 19.2188 181.969 20.0938 181.969 21.0312V22.5L178.312 23.5312C178.125 23.5938 177.875 23.6562 177.562 23.75C176.156 24.1562 175.156 24.4688 174.531 24.6562C173.906 24.8438 172.906 25.1875 171.562 25.6875C170.188 26.1875 169.156 26.6875 168.469 27.1562C167.781 27.6562 167 28.25 166.125 28.9375C165.25 29.6562 164.656 30.4688 164.281 31.3438C163.906 32.25 163.719 33.2188 163.719 34.2812ZM168.594 33.625C168.594 29.4375 172.531 26.1875 180.438 23.8438L181.969 23.4062V34.2188C179.719 37.25 177.125 38.75 174.156 38.75C172.438 38.75 171.094 38.3125 170.094 37.375C169.094 36.4375 168.594 35.1875 168.594 33.625Z" fill="#FFB189"/>
</svg>
