<svg width="396" height="49" viewBox="0 0 396 49" fill="none" xmlns="http://www.w3.org/2000/svg">
<path d="M10.432 47.512C16.256 47.512 20.224 46.488 20.224 43.608C20.224 41.944 18.688 41.048 16.32 40.408C14.592 39.832 14.144 37.72 14.144 33.816V24.408C14.144 22.296 14.144 19.928 14.272 17.816C19.776 23.704 28.864 34.584 35.392 42.392C38.144 45.464 40.128 47.64 42.88 47.64C45.632 47.64 47.296 45.848 47.296 42.648C47.296 39.256 47.104 34.392 47.104 29.72V14.36C47.104 11.032 47.296 8.28 48.768 7.768C51.2 7.192 52.608 6.232 52.608 4.568C52.608 1.688 48.576 0.663998 43.392 0.663998C37.568 0.663998 33.6 1.688 33.6 4.568C33.6 6.232 35.136 7.128 37.504 7.768C39.232 8.344 39.68 10.456 39.68 14.36V23.832C39.68 25.176 39.616 26.328 39.552 27.288C34.304 21.272 27.456 12.632 20.992 5.272C17.664 1.688 15.936 0.791996 10.304 0.791996C4.224 0.791996 0.896 1.752 0.896 4.504C0.896 6.296 2.752 7.192 4.864 7.832C6.208 8.344 6.72 10.264 6.72 12.76V33.816C6.72 37.144 6.528 39.896 5.056 40.408C2.688 40.984 1.28 41.944 1.28 43.608C1.28 46.488 5.248 47.512 10.432 47.512ZM68.9795 48.024C75.4435 48.024 80.1795 45.208 82.6755 42.008C84.0835 40.216 84.8515 38.296 84.8515 36.76C84.8515 34.968 84.0195 34.136 82.7395 34.136C81.9715 34.136 81.2035 34.584 80.4355 35.096C78.5155 36.504 76.2115 37.656 72.8835 37.656C67.9555 37.656 64.7555 34.968 63.7955 30.424H79.2195C82.7395 30.424 84.6595 28.376 84.6595 25.176C84.6595 19.864 79.4755 13.656 70.1955 13.656C60.3395 13.656 52.5315 21.08 52.5315 31.512C52.5315 41.176 59.2515 48.024 68.9795 48.024ZM63.4755 26.392C63.7955 21.784 66.2915 18.584 70.0035 18.584C72.9475 18.584 74.6755 20.632 74.6755 23C74.6755 24.984 73.2675 26.136 70.0035 26.264L63.4755 26.392ZM125.173 47.64C127.925 47.64 129.141 45.976 131.317 41.88C133.365 37.784 135.669 32.408 137.973 26.904C139.445 23.64 140.405 21.272 141.941 20.632C143.733 19.928 144.565 19.096 144.565 17.496C144.565 15.384 142.005 13.976 137.397 13.976C132.853 13.976 129.973 15.448 129.973 17.56C129.973 18.776 130.933 19.608 132.405 20.184C133.429 20.696 133.685 22.232 133.237 24.152C132.533 27.096 130.741 31.768 128.821 35.864C127.221 32.152 125.493 27.48 124.469 24.408C123.893 22.552 123.765 20.888 124.725 20.568C125.941 20.184 127.157 19.352 127.157 17.816C127.157 15.448 123.637 13.976 117.621 13.976C111.093 13.976 108.021 15.576 108.021 17.88C108.021 19.288 108.789 20.12 109.941 20.632C110.709 21.016 111.093 21.72 112.693 25.816L113.077 26.776C112.053 29.528 110.325 32.984 108.469 36.056C106.613 32.216 104.373 27.416 103.477 24.408C102.965 22.552 102.773 20.888 103.541 20.568C104.628 20.12 105.461 19.352 105.461 17.944C105.461 15.448 101.812 13.976 95.9885 13.976C88.3085 13.976 85.3645 15.512 85.3645 17.816C85.3645 19.288 86.4525 20.12 87.7965 20.696C88.6925 21.144 89.0125 21.848 90.8045 25.88C92.9165 30.616 96.4365 38.616 98.2925 42.2C100.341 45.912 101.621 47.64 104.373 47.64C107.061 47.64 108.405 45.976 110.645 41.816C112.309 38.744 113.909 35.8 115.445 32.792C116.789 36.376 118.197 40.024 119.157 42.2C120.885 46.04 122.421 47.64 125.173 47.64ZM168.361 47.512C175.145 47.512 179.497 46.68 179.497 43.736C179.497 42.136 178.345 41.432 176.489 40.92C175.209 40.472 175.081 38.808 175.081 36.376V29.464C175.529 28.888 176.041 28.248 176.681 27.544C179.689 31.32 184.489 38.552 188.009 43.736C190.057 46.616 193.065 47.512 198.057 47.512C204.649 47.512 208.041 46.168 208.041 43.672C208.041 42.2 207.081 41.304 204.137 40.6C203.113 40.344 201.705 39.448 199.657 36.76C194.345 29.848 189.417 23.128 186.089 18.456L186.217 18.328C192.553 12.248 195.561 8.728 199.209 8.216C203.113 7.704 204.585 6.424 204.585 4.632C204.585 1.88 200.809 0.663998 194.345 0.663998C187.689 0.663998 183.785 1.752 183.785 4.504C183.785 5.72 184.553 6.552 185.705 6.936C186.729 7.256 186.793 8.024 185.065 10.392C183.529 13.016 179.369 17.176 175.081 20.952V11.8C175.081 9.368 175.209 7.704 176.361 7.256C178.153 6.744 179.305 6.04 179.305 4.44C179.305 1.56 175.081 0.663998 168.361 0.663998C161.513 0.663998 157.289 1.56 157.289 4.44C157.289 6.04 158.441 6.744 160.297 7.256C161.449 7.704 161.641 9.368 161.641 11.8V36.376C161.641 38.808 161.449 40.472 160.297 40.92C158.441 41.432 157.289 42.136 157.289 43.736C157.289 46.68 161.513 47.512 168.361 47.512ZM208.34 38.552C208.34 44.504 212.884 47.896 218.58 47.896C223.124 47.896 226.772 45.848 228.948 42.52C230.42 45.784 233.108 47.448 236.756 47.448C241.876 47.448 244.692 44.184 244.692 41.496C244.692 41.048 244.628 40.856 244.18 40.728C241.492 40.024 241.044 38.488 241.044 35.672V24.856C241.044 17.624 236.82 13.656 228.884 13.656C220.308 13.656 210.58 18.392 210.58 22.68C210.58 24.472 212.052 26.072 214.74 26.072C218.068 26.072 219.86 24.088 221.076 22.232C222.42 20.504 223.7 18.84 225.428 18.84C228.18 18.84 228.372 21.784 228.372 25.048V28.952C226.58 28.504 224.276 28.12 221.972 28.12C214.1 28.12 208.34 31.832 208.34 38.552ZM220.692 36.888C220.692 34.072 222.356 32.344 225.108 32.344C226.644 32.344 227.924 32.92 228.692 33.56V35.544C228.692 39.512 226.644 41.304 224.34 41.304C222.1 41.304 220.692 39.704 220.692 36.888ZM278.783 47.512C284.351 47.512 288.447 46.68 288.447 43.8C288.447 42.2 287.295 41.624 285.951 41.176C285.055 40.728 285.055 39.64 285.055 37.208V25.624C285.055 17.752 280.959 13.656 274.751 13.656C269.183 13.656 265.151 16.856 263.103 21.08V20.12C263.103 16.088 262.911 13.976 259.583 13.976C257.087 13.976 251.391 15.192 248.447 17.112C247.295 17.816 246.847 18.584 246.847 19.544C246.847 20.76 247.679 21.592 249.407 22.104C250.239 22.36 250.559 24.28 250.559 26.264V37.208C250.559 39.192 250.495 40.728 249.599 41.176C248.383 41.56 247.167 42.2 247.167 43.8C247.167 46.616 251.071 47.512 256.831 47.512C262.399 47.512 266.239 46.68 266.239 43.864C266.239 42.328 265.151 41.816 263.935 41.304C263.103 40.728 263.103 39.576 263.103 37.208V30.872C263.167 24.216 265.407 22.04 268.159 22.04C271.167 22.04 272.511 24.216 272.511 30.744V37.208C272.511 39.128 272.447 40.728 271.615 41.304C270.463 41.752 269.375 42.328 269.375 43.864C269.375 46.616 273.023 47.512 278.783 47.512ZM308.452 47.96C316.388 47.96 322.404 43.48 322.404 36.824C322.404 29.4 315.172 26.84 309.668 25.304C305.444 24.152 303.46 23.448 303.46 21.464C303.46 19.928 304.804 18.648 307.236 18.648C309.86 18.648 312.996 20.184 315.108 23.064C316.388 24.6 317.348 25.688 318.756 25.688C320.036 25.688 321.572 24.792 321.572 22.168C321.572 18.52 318.884 13.464 315.94 13.464C314.724 13.464 313.764 14.296 313.508 15.512C311.012 14.168 307.876 13.528 305.06 13.528C297.444 13.528 291.364 18.072 291.364 24.856C291.364 31.384 297.38 33.816 303.588 35.8C307.876 37.08 310.244 37.72 310.244 40.024C310.244 41.752 308.58 42.84 306.148 42.84C303.204 42.84 299.812 41.048 297.06 37.464C295.908 35.928 295.012 34.584 293.411 34.584C291.94 34.584 290.788 35.8 290.788 38.424C290.788 42.456 293.476 48.024 296.932 48.024C298.34 48.024 299.3 47.192 299.556 45.912C302.116 47.32 305.38 47.96 308.452 47.96ZM325.215 38.552C325.215 44.504 329.759 47.896 335.455 47.896C339.999 47.896 343.647 45.848 345.823 42.52C347.295 45.784 349.983 47.448 353.631 47.448C358.751 47.448 361.567 44.184 361.567 41.496C361.567 41.048 361.503 40.856 361.055 40.728C358.367 40.024 357.919 38.488 357.919 35.672V24.856C357.919 17.624 353.695 13.656 345.759 13.656C337.183 13.656 327.455 18.392 327.455 22.68C327.455 24.472 328.927 26.072 331.615 26.072C334.943 26.072 336.735 24.088 337.951 22.232C339.295 20.504 340.575 18.84 342.303 18.84C345.055 18.84 345.247 21.784 345.247 25.048V28.952C343.455 28.504 341.151 28.12 338.847 28.12C330.975 28.12 325.215 31.832 325.215 38.552ZM337.567 36.888C337.567 34.072 339.231 32.344 341.983 32.344C343.519 32.344 344.799 32.92 345.567 33.56V35.544C345.567 39.512 343.519 41.304 341.215 41.304C338.975 41.304 337.567 39.704 337.567 36.888ZM381.514 47.96C389.45 47.96 395.466 43.48 395.466 36.824C395.466 29.4 388.234 26.84 382.73 25.304C378.506 24.152 376.522 23.448 376.522 21.464C376.522 19.928 377.866 18.648 380.298 18.648C382.922 18.648 386.058 20.184 388.17 23.064C389.45 24.6 390.41 25.688 391.818 25.688C393.098 25.688 394.634 24.792 394.634 22.168C394.634 18.52 391.946 13.464 389.002 13.464C387.786 13.464 386.826 14.296 386.57 15.512C384.074 14.168 380.938 13.528 378.122 13.528C370.506 13.528 364.426 18.072 364.426 24.856C364.426 31.384 370.442 33.816 376.65 35.8C380.938 37.08 383.306 37.72 383.306 40.024C383.306 41.752 381.642 42.84 379.21 42.84C376.266 42.84 372.874 41.048 370.122 37.464C368.97 35.928 368.074 34.584 366.474 34.584C365.002 34.584 363.85 35.8 363.85 38.424C363.85 42.456 366.538 48.024 369.994 48.024C371.402 48.024 372.362 47.192 372.618 45.912C375.178 47.32 378.442 47.96 381.514 47.96Z" fill="#F86542"/>
</svg>
