<svg width="18" height="12" viewBox="0 0 18 12" fill="none" xmlns="http://www.w3.org/2000/svg">
<path d="M14.4993 1.05784L14.4987 1.05795C12.0624 1.55719 8.54222 3.73945 4.84429 7.08038L4.84419 7.08047C4.10627 7.7461 3.15134 8.69794 2.3806 9.51354C1.99527 9.92131 1.65774 10.2931 1.41735 10.5767C1.30476 10.7096 1.21537 10.8208 1.15278 10.9062C1.32198 10.9212 1.60526 10.9272 2.0612 10.9272H3.15687L3.39441 10.6783L3.39623 10.6765C3.55676 10.5173 3.94643 10.0864 4.27178 9.7158L4.27242 9.71507L4.27308 9.71434C4.93306 8.97841 5.434 8.43184 5.78353 8.06872C5.95794 7.88754 6.09702 7.74955 6.20046 7.65595C6.25178 7.60954 6.29786 7.5708 6.33723 7.54261C6.35673 7.52864 6.37849 7.51443 6.40117 7.50299C6.4188 7.49409 6.45932 7.47496 6.51022 7.47496C6.55845 7.47496 6.59731 7.49092 6.62121 7.50324C6.64674 7.51641 6.66892 7.53261 6.68704 7.54769C6.72327 7.57783 6.75826 7.61604 6.79015 7.65577C6.85465 7.73612 6.92181 7.84183 6.97848 7.95422C7.08169 8.15887 7.42675 8.83218 7.74458 9.44876C8.06262 10.0657 8.37401 10.6832 8.44373 10.8242L8.44433 10.8254L8.4449 10.8266L8.51284 10.9693L11.4995 10.993H11.4996C13.1234 11.0054 13.9959 11.0051 14.541 10.9607C14.8112 10.9387 14.9933 10.9064 15.142 10.862C15.2898 10.8179 15.4117 10.7599 15.5624 10.6782L15.5637 10.6775C15.6961 10.6071 15.8647 10.4568 16.0172 10.2734C16.1697 10.09 16.2864 9.89728 16.3315 9.75642L16.3319 9.75504C16.4523 9.38908 16.5323 9.0096 16.5671 8.66679C16.6024 8.32096 16.5903 8.02526 16.5361 7.82124L16.536 7.82078C16.5004 7.6851 16.4513 7.46809 16.4234 7.33513L16.4224 7.33055L16.4217 7.32594C16.4204 7.31808 16.4132 7.29206 16.3916 7.24464C16.3714 7.20028 16.343 7.14659 16.3076 7.08663C16.2373 6.96727 16.1441 6.83088 16.0457 6.70589L15.5531 6.10916L15.8937 5.81197C15.8939 5.81175 15.8942 5.81153 15.8944 5.81131C16.0737 5.6509 16.2361 5.32515 16.3337 4.91141C16.4299 4.50364 16.4554 4.04168 16.3876 3.63754C16.3641 3.50253 16.3322 3.35305 16.2997 3.22285C16.266 3.08822 16.2347 2.9874 16.2145 2.94213L16.2136 2.94015L16.2128 2.93815C16.1426 2.77125 16.011 2.56909 15.8612 2.38997C15.7088 2.20773 15.557 2.07233 15.4552 2.01938C15.265 1.92242 15.1392 1.85428 15.0577 1.7947C15.0148 1.76326 14.9766 1.72884 14.946 1.68695C14.9139 1.64314 14.8968 1.60001 14.8856 1.56025C14.8695 1.50257 14.8767 1.4377 14.9142 1.38217C14.9458 1.33529 14.9889 1.3104 15.0169 1.2973C15.0724 1.27136 15.1419 1.25889 15.2084 1.25087C15.3486 1.23396 15.5645 1.22797 15.8643 1.22797C16.329 1.22797 16.8241 1.32483 16.8241 1.29725C16.8241 1.26967 15.5023 0.849288 14.4993 1.05784ZM12.5921 7.16263H12.5922C13.4623 7.1749 13.9477 7.18312 14.2306 7.20747C14.3715 7.2196 14.4781 7.23676 14.5623 7.26723C14.6563 7.30128 14.7154 7.34926 14.7648 7.40475C14.91 7.56636 14.966 7.80139 14.9609 8.01666C14.956 8.23317 14.8888 8.46812 14.7414 8.63992L14.5221 8.91153H12.0922C11.8735 8.91153 11.6743 8.91199 11.4929 8.91242C11.1321 8.91325 10.8417 8.91391 10.6074 8.91048C10.2585 8.90537 10.0138 8.89128 9.83495 8.84907C9.64154 8.80342 9.51602 8.72286 9.41286 8.59148C9.36621 8.53205 9.32622 8.46496 9.28748 8.39639C9.27279 8.37036 9.25846 8.34449 9.24372 8.31787C9.21733 8.27021 9.18961 8.22016 9.15606 8.16257C8.85589 7.64739 8.62756 7.25436 8.46058 6.95152C8.29482 6.65088 8.1839 6.42919 8.12356 6.25959C8.06396 6.09209 8.04 5.93897 8.09902 5.79804C8.15438 5.66588 8.26994 5.58319 8.3584 5.52004L8.36066 5.51842L8.36296 5.51687C8.46218 5.45047 8.59862 5.33478 8.66857 5.26669L8.66964 5.26564L8.67075 5.26461C8.9232 5.02681 9.31316 4.6872 9.6531 4.40345C9.82321 4.26145 9.98225 4.13225 10.1064 4.03597C10.1683 3.98798 10.2231 3.94697 10.267 3.91632C10.2888 3.90108 10.3098 3.88713 10.3286 3.87579C10.3422 3.86763 10.3685 3.85209 10.3983 3.84254C10.4357 3.83034 10.4833 3.82597 10.5141 3.82337C10.5557 3.81985 10.6086 3.81699 10.6697 3.81465C10.7924 3.80996 10.9559 3.80704 11.1452 3.80563C11.5245 3.80279 12.013 3.80589 12.4991 3.81309C12.9852 3.8203 13.4703 3.83163 13.8424 3.8453C14.0284 3.85214 14.1875 3.85961 14.305 3.86753C14.3635 3.87148 14.4138 3.87566 14.4527 3.88019C14.4719 3.88244 14.4907 3.88502 14.5076 3.88815L14.5082 3.88827C14.5187 3.89025 14.5488 3.89584 14.5778 3.9102C14.8894 4.06373 14.972 4.45609 14.9203 4.82402C14.9023 4.95312 14.8796 5.10397 14.7878 5.22552C14.6895 5.35597 14.5387 5.42214 14.3449 5.4617C14.1516 5.50117 13.883 5.52031 13.5112 5.53033C13.137 5.54042 12.6459 5.54144 12.0024 5.54144C11.3913 5.54144 10.8342 5.54349 10.4283 5.5476C10.268 5.54922 10.1318 5.55115 10.0255 5.55339C10.0327 5.56888 10.0402 5.58508 10.0481 5.60192C10.1301 5.77667 10.2468 6.01555 10.3777 6.27795L10.3778 6.27809L10.8109 7.13942L12.5921 7.16263Z" fill="#ECF8F5"/>
<path d="M5.81703 2.09382C5.75491 1.98314 5.70183 1.89059 5.65813 1.81675C5.65382 1.82454 5.64946 1.83247 5.64507 1.84051C5.55902 2.02147 4.76247 3.57365 3.8691 5.31008C3.4232 6.17674 3.01938 6.96931 2.72621 7.55205C3.11047 7.15192 3.61991 6.6377 4.03862 6.2215L4.0393 6.22083L4.03999 6.22015C4.11836 6.14386 4.30619 5.97007 4.46033 5.83658C4.60816 5.70065 4.75808 5.56102 4.80185 5.51815C4.82414 5.49374 4.86407 5.45631 4.90661 5.41714C4.95972 5.36824 5.03098 5.30401 5.11514 5.22917C5.28331 5.07961 5.50475 4.88613 5.73993 4.68449C5.94408 4.50322 6.14222 4.32847 6.30608 4.18397C6.51691 3.99803 6.67099 3.86213 6.70813 3.82678L6.70906 3.8259L6.71002 3.82501C6.71833 3.81732 6.7247 3.81121 6.72959 3.80643C6.72469 3.79224 6.71598 3.7705 6.7007 3.73817C6.67504 3.6839 6.63728 3.61269 6.58347 3.51356L6.58296 3.51264L6.58247 3.51171C6.2615 2.90395 6.00155 2.42264 5.81703 2.09382Z" fill="#ECF8F5"/>
<path d="M1.00023 10.8818L1 10.8817M14.4993 1.05784L14.4987 1.05795C12.0624 1.55719 8.54222 3.73945 4.84429 7.08038L4.84419 7.08047C4.10627 7.7461 3.15134 8.69794 2.3806 9.51354C1.99527 9.92131 1.65774 10.2931 1.41735 10.5767C1.30476 10.7096 1.21537 10.8208 1.15278 10.9062C1.32198 10.9212 1.60526 10.9272 2.0612 10.9272H3.15687L3.39441 10.6783L3.39623 10.6765C3.55676 10.5173 3.94643 10.0864 4.27178 9.7158L4.27242 9.71507L4.27308 9.71434C4.93306 8.97841 5.434 8.43184 5.78353 8.06872C5.95794 7.88754 6.09702 7.74955 6.20046 7.65595C6.25178 7.60954 6.29786 7.5708 6.33723 7.54261C6.35673 7.52864 6.37849 7.51443 6.40117 7.50299C6.4188 7.49409 6.45932 7.47496 6.51022 7.47496C6.55845 7.47496 6.59731 7.49092 6.62121 7.50324C6.64674 7.51641 6.66892 7.53261 6.68704 7.54769C6.72327 7.57783 6.75826 7.61604 6.79015 7.65577C6.85465 7.73612 6.92181 7.84183 6.97848 7.95422C7.08169 8.15887 7.42675 8.83218 7.74458 9.44876C8.06262 10.0657 8.37402 10.6832 8.44373 10.8242L8.44433 10.8254L8.4449 10.8266L8.51284 10.9693L11.4995 10.993H11.4996C13.1234 11.0054 13.9959 11.0051 14.541 10.9607C14.8112 10.9387 14.9933 10.9064 15.142 10.862C15.2898 10.8179 15.4117 10.7599 15.5624 10.6782L15.5637 10.6775C15.6961 10.6071 15.8647 10.4568 16.0172 10.2734C16.1697 10.09 16.2864 9.89728 16.3315 9.75642L16.3319 9.75504C16.4523 9.38908 16.5323 9.0096 16.5671 8.66679C16.6024 8.32096 16.5903 8.02526 16.5361 7.82124L16.536 7.82078C16.5004 7.6851 16.4513 7.46809 16.4234 7.33513L16.4224 7.33055L16.4217 7.32594C16.4204 7.31808 16.4132 7.29206 16.3916 7.24464C16.3714 7.20028 16.343 7.14659 16.3076 7.08663C16.2373 6.96727 16.1441 6.83088 16.0457 6.70589L15.5531 6.10916L15.8937 5.81197C15.8939 5.81175 15.8942 5.81153 15.8944 5.81131C16.0737 5.6509 16.2361 5.32515 16.3337 4.91141C16.4299 4.50364 16.4554 4.04168 16.3876 3.63754C16.3641 3.50253 16.3322 3.35305 16.2997 3.22285C16.266 3.08822 16.2347 2.9874 16.2145 2.94213L16.2136 2.94015L16.2128 2.93815C16.1426 2.77125 16.011 2.56909 15.8612 2.38997C15.7088 2.20773 15.557 2.07233 15.4552 2.01938C15.265 1.92242 15.1392 1.85428 15.0577 1.7947C15.0148 1.76326 14.9766 1.72884 14.946 1.68695C14.914 1.64314 14.8968 1.60001 14.8856 1.56025C14.8695 1.50257 14.8767 1.4377 14.9142 1.38217C14.9458 1.33529 14.9889 1.3104 15.0169 1.2973C15.0724 1.27136 15.1419 1.25889 15.2084 1.25087C15.3486 1.23396 15.5645 1.22797 15.8643 1.22797C16.329 1.22797 16.8241 1.32483 16.8241 1.29725C16.8241 1.26967 15.5023 0.849288 14.4993 1.05784ZM12.5921 7.16263H12.5922C13.4623 7.1749 13.9477 7.18312 14.2306 7.20747C14.3715 7.2196 14.4781 7.23676 14.5623 7.26723C14.6563 7.30128 14.7154 7.34926 14.7648 7.40475C14.91 7.56636 14.966 7.80139 14.9609 8.01666C14.956 8.23317 14.8888 8.46812 14.7414 8.63992L14.5221 8.91153H12.0922C11.8735 8.91153 11.6743 8.91199 11.4929 8.91241C11.1321 8.91325 10.8417 8.91391 10.6074 8.91048C10.2585 8.90537 10.0138 8.89128 9.83495 8.84907C9.64154 8.80342 9.51602 8.72286 9.41286 8.59148C9.36621 8.53205 9.32622 8.46496 9.28748 8.39639C9.27279 8.37036 9.25846 8.34449 9.24372 8.31787C9.21733 8.27021 9.18961 8.22016 9.15606 8.16257C8.85589 7.64739 8.62756 7.25436 8.46058 6.95152C8.29482 6.65087 8.1839 6.42919 8.12356 6.25959C8.06396 6.09209 8.04 5.93897 8.09902 5.79804C8.15438 5.66588 8.26994 5.58319 8.3584 5.52004L8.36066 5.51842L8.36296 5.51687C8.46218 5.45047 8.59862 5.33478 8.66857 5.26669L8.66964 5.26564L8.67075 5.26461C8.9232 5.02681 9.31316 4.6872 9.6531 4.40345C9.82321 4.26145 9.98225 4.13225 10.1064 4.03597C10.1683 3.98798 10.2231 3.94697 10.267 3.91632C10.2888 3.90108 10.3098 3.88713 10.3286 3.87579C10.3422 3.86763 10.3685 3.85209 10.3983 3.84254C10.4357 3.83034 10.4833 3.82597 10.5141 3.82337C10.5557 3.81985 10.6086 3.81699 10.6697 3.81465C10.7924 3.80996 10.9559 3.80704 11.1452 3.80563C11.5245 3.80279 12.013 3.80589 12.4991 3.81309C12.9852 3.8203 13.4703 3.83163 13.8424 3.8453C14.0284 3.85214 14.1875 3.85961 14.305 3.86753C14.3635 3.87148 14.4138 3.87566 14.4527 3.88019C14.4719 3.88244 14.4907 3.88502 14.5076 3.88815L14.5082 3.88827C14.5187 3.89025 14.5488 3.89584 14.5778 3.9102C14.8894 4.06373 14.972 4.45609 14.9203 4.82402C14.9023 4.95312 14.8796 5.10397 14.7878 5.22552C14.6895 5.35597 14.5387 5.42214 14.3449 5.4617C14.1516 5.50117 13.8831 5.52031 13.5112 5.53033C13.137 5.54042 12.6459 5.54144 12.0024 5.54144C11.3913 5.54144 10.8342 5.54349 10.4283 5.5476C10.268 5.54922 10.1318 5.55115 10.0255 5.55339C10.0327 5.56888 10.0402 5.58508 10.0481 5.60192C10.1301 5.77667 10.2468 6.01555 10.3777 6.27795L10.3778 6.27809L10.8109 7.13942L12.5921 7.16263ZM5.81703 2.09382C5.75491 1.98314 5.70183 1.89059 5.65813 1.81675C5.65382 1.82454 5.64946 1.83247 5.64507 1.84051C5.55902 2.02147 4.76247 3.57365 3.8691 5.31008C3.4232 6.17674 3.01938 6.96931 2.72621 7.55205C3.11047 7.15192 3.61991 6.6377 4.03862 6.2215L4.0393 6.22083L4.03999 6.22015C4.11836 6.14386 4.30619 5.97007 4.46033 5.83658C4.60816 5.70065 4.75808 5.56102 4.80185 5.51815C4.82414 5.49374 4.86407 5.45631 4.90661 5.41714C4.95972 5.36824 5.03098 5.30401 5.11514 5.22917C5.28331 5.07961 5.50475 4.88613 5.73993 4.68449C5.94408 4.50322 6.14222 4.32847 6.30608 4.18397C6.51691 3.99803 6.67099 3.86213 6.70813 3.82678L6.70906 3.8259L6.71002 3.82501C6.71833 3.81732 6.7247 3.81121 6.72959 3.80643C6.72469 3.79224 6.71598 3.7705 6.7007 3.73817C6.67504 3.6839 6.63728 3.61269 6.58347 3.51356L6.58296 3.51264L6.58247 3.51171C6.2615 2.90395 6.00155 2.42264 5.81703 2.09382Z" stroke="#ECF8F5" stroke-width="0.5"/>
</svg>
