<svg width="427" height="48" viewBox="0 0 427 48" fill="none" xmlns="http://www.w3.org/2000/svg">
<path d="M33.752 47H40.152L23.256 1.56H16.92L0.024 47H6.424L11.032 33.944H29.144L33.752 47ZM12.888 28.76L20.12 8.408L27.288 28.76H12.888ZM62.1795 15.256C58.2755 15.256 54.5635 16.664 52.0035 19.032V0.919998L46.1155 2.2V44.76C50.0835 46.552 54.7555 47.64 58.5955 47.64C68.0675 47.64 74.0195 41.56 74.4035 31.448C74.4035 21.272 69.7315 15.256 62.1795 15.256ZM57.6355 42.712C55.7155 42.712 53.7955 42.264 52.0035 41.496V24.024C54.4355 21.592 57.5075 20.184 60.5155 20.184C65.3795 20.184 68.2595 24.152 68.2595 30.872C68.2595 38.296 64.2915 42.712 57.6355 42.712ZM112.468 1.56H98.388V47H112.468C126.1 47 133.204 37.912 133.204 24.216C133.204 10.648 126.1 1.56 112.468 1.56ZM112.468 41.752H104.34V6.808H112.468C122.196 6.808 126.932 13.784 126.932 24.216C126.932 34.776 122.196 41.752 112.468 41.752ZM144.441 8.664C146.681 8.664 148.473 6.936 148.473 4.76C148.473 2.712 146.681 0.919998 144.441 0.919998C142.201 0.919998 140.473 2.712 140.473 4.76C140.473 6.936 142.201 8.664 144.441 8.664ZM141.433 47H147.385V15.256L141.433 16.536V47ZM166.58 47.64C174.644 47.64 179.06 44.568 179.06 39.192C179.06 35.48 176.884 32.536 171.956 30.488L165.108 27.544C162.996 26.584 161.844 25.88 161.844 23.832C161.844 21.4 163.508 20.056 167.604 20.056C170.356 20.056 174.004 20.632 176.628 21.784L177.396 16.984C174.772 15.896 170.996 15.256 167.54 15.256C159.86 15.256 155.7 18.264 155.7 23.768C155.7 27.992 158.132 30.744 162.484 32.536L168.948 35.224C171.252 36.184 172.98 37.08 172.98 39.192C172.98 41.56 170.932 42.84 166.836 42.84C163.508 42.84 159.284 42.008 155.892 40.408L155.06 45.016C158.068 46.744 162.1 47.64 166.58 47.64ZM203.071 41.88C202.111 42.328 199.743 42.712 198.399 42.712C195.327 42.712 193.663 41.048 193.663 35.544V20.504H203.327V15.896H193.663V7.768H189.247L187.903 15.896H182.719V20.504H187.711V36.312C187.711 45.016 191.551 47.64 196.863 47.64C198.847 47.64 202.047 47.32 203.967 46.552L203.071 41.88ZM225.095 15.256C221.639 15.256 218.375 17.816 215.943 21.656L215.175 15.256L210.055 15.832V47H215.943V25.944C218.119 23 221.127 21.016 224.135 21.016C225.671 21.016 227.591 21.4 228.679 22.168L228.935 22.104L229.895 17.048C228.743 16.024 226.759 15.256 225.095 15.256ZM238.753 8.664C240.993 8.664 242.785 6.936 242.785 4.76C242.785 2.712 240.993 0.919998 238.753 0.919998C236.513 0.919998 234.785 2.712 234.785 4.76C234.785 6.936 236.513 8.664 238.753 8.664ZM235.745 47H241.697V15.256L235.745 16.536V47ZM267.805 15.256C263.901 15.256 260.189 16.664 257.629 19.032V0.919998L251.741 2.2V44.76C255.709 46.552 260.381 47.64 264.221 47.64C273.693 47.64 279.645 41.56 280.029 31.448C280.029 21.272 275.357 15.256 267.805 15.256ZM263.26 42.712C261.341 42.712 259.421 42.264 257.629 41.496V24.024C260.061 21.592 263.133 20.184 266.141 20.184C271.005 20.184 273.885 24.152 273.885 30.872C273.885 38.296 269.917 42.712 263.26 42.712ZM307.962 15.896V39.256C305.53 40.92 302.01 42.712 298.81 42.712C295.738 42.712 293.498 40.984 293.498 34.52V15.896H287.61V35.736C287.61 44.248 292.026 47.64 297.146 47.64C301.626 47.64 305.594 45.464 308.09 43.672L308.794 47H313.914V15.896H307.962ZM340.571 41.88C339.611 42.328 337.243 42.712 335.899 42.712C332.827 42.712 331.163 41.048 331.163 35.544V20.504H340.827V15.896H331.163V7.768H326.747L325.403 15.896H320.219V20.504H325.211V36.312C325.211 45.016 329.051 47.64 334.363 47.64C336.347 47.64 339.547 47.32 341.467 46.552L340.571 41.88ZM350.691 8.664C352.931 8.664 354.723 6.936 354.723 4.76C354.723 2.712 352.931 0.919998 350.691 0.919998C348.451 0.919998 346.723 2.712 346.723 4.76C346.723 6.936 348.451 8.664 350.691 8.664ZM347.683 47H353.635V15.256L347.683 16.536V47ZM376.926 47.64C386.078 47.64 392.222 41.176 392.222 31.512C392.222 21.72 386.078 15.256 376.798 15.256C367.646 15.256 361.566 21.72 361.566 31.512C361.566 41.176 367.71 47.64 376.926 47.64ZM376.926 42.712C371.614 42.712 367.71 37.976 367.71 31.512C367.71 24.664 371.294 20.184 376.798 20.184C382.366 20.184 386.078 24.664 386.078 31.512C386.078 38.232 382.43 42.712 376.926 42.712ZM416.823 15.256C412.343 15.256 408.311 17.496 405.815 19.288L405.175 15.256L400.055 15.832V47H405.943V23.64C408.311 21.976 411.895 20.184 415.159 20.184C418.231 20.184 420.407 21.912 420.407 28.376V47H426.359V27.16C426.359 18.648 421.879 15.256 416.823 15.256Z" fill="#F86542"/>
</svg>
