<svg width="520" height="50" viewBox="0 0 520 50" fill="none" xmlns="http://www.w3.org/2000/svg">
<path d="M9.704 48.512C15.4 48.512 19.496 47.36 19.496 44.608C19.496 43.136 18.216 42.304 15.912 41.728C14.632 41.472 14.504 40.448 15.272 37.824C15.464 37.12 15.72 36.352 16.04 35.392C18.664 35.072 21.096 34.944 24.104 34.944C26.92 34.944 29.608 35.008 32.232 35.328L32.552 36.48C33.384 39.616 33.32 41.472 32.296 41.728C29.8 42.368 28.584 43.136 28.584 44.672C28.584 47.424 32.808 48.512 41.128 48.512C49.064 48.512 53.8 47.424 53.8 44.608C53.8 43.008 52.648 42.112 50.92 41.664C49.832 41.344 48.808 40.256 46.76 35.648C43.816 28.928 36.904 12.48 34.024 6.976C31.976 3.136 29.288 1.6 25.64 1.6C21.224 1.6 19.048 3.904 18.728 8C18.6 9.408 18.536 10.624 17.896 12.48C16.872 15.744 11.56 28.16 8.872 34.048C6.312 39.68 5.224 41.152 3.496 41.664C1.32 42.304 0.232 43.264 0.232 44.8C0.232 47.296 3.88 48.512 9.704 48.512ZM18.408 28.8C20.072 24.512 22.056 19.584 23.848 15.488C25.832 19.52 28.072 24.512 29.864 28.8C27.88 28.8 25.896 28.736 24.104 28.736C22.184 28.736 20.328 28.736 18.408 28.8ZM75.5265 48.896C86.2785 48.896 93.2545 41.728 93.2545 30.656C93.2545 21.184 87.6865 14.656 80.2625 14.656C75.3345 14.656 71.1745 17.664 69.3825 21.504V14.656C69.3825 11.52 69.4465 8.832 69.4465 6.592C69.4465 2.496 69.1905 0.383999 65.7985 0.383999C63.1745 0.383999 57.2225 1.6 53.9585 3.52C52.8065 4.224 52.3585 5.056 52.3585 6.016C52.3585 7.36 53.4465 8.192 55.3025 8.768C56.3265 9.152 56.8385 11.136 56.8385 13.312V36.864C56.8385 39.936 56.6465 41.728 55.9425 44.16C55.8145 44.672 55.6225 45.376 55.6225 45.888C55.6225 47.168 56.5825 47.936 57.8625 47.936C59.5265 47.936 61.3185 46.4 62.7905 44.672C65.6065 47.104 70.2145 48.896 75.5265 48.896ZM69.1265 33.92C69.1265 25.856 71.7505 22.656 74.7585 22.656C78.0225 22.656 80.2625 26.048 80.2625 33.344C80.2625 40.576 78.0225 43.904 74.5025 43.904C71.4305 43.904 69.1265 41.664 69.1265 33.92ZM133.093 48.384C147.109 48.384 157.925 38.848 157.925 24.448C157.925 10.88 147.493 1.792 133.093 1.792C128.869 1.792 126.309 2.112 122.469 2.112C120.421 2.112 118.309 2.048 116.325 2.048C112.229 2.048 109.349 2.88 109.349 5.44C109.349 7.232 110.885 8.064 112.613 8.448C113.765 8.96 113.957 10.624 113.957 12.992V37.184C113.957 39.552 113.765 41.216 112.613 41.728C110.885 42.176 109.349 42.944 109.349 44.8C109.349 47.36 112.357 48.064 116.453 48.064C118.437 48.064 120.421 48 122.725 48C126.245 48 128.933 48.384 133.093 48.384ZM127.397 36.672V13.44C127.397 11.328 127.525 9.472 128.165 9.088C128.933 8.64 130.213 8.256 131.813 8.256C139.301 8.256 143.076 15.616 143.076 25.216C143.076 34.048 139.812 41.92 132.133 41.92C130.341 41.92 129.061 41.6 128.165 40.96C127.461 40.448 127.397 38.528 127.397 36.672ZM171.02 48.512C176.588 48.512 180.684 47.68 180.684 44.8C180.684 43.264 179.596 42.688 178.188 42.176C177.42 41.856 177.292 40.832 177.292 38.208V29.376C177.292 26.176 177.356 23.424 177.356 21.12C177.356 17.088 177.164 14.976 173.772 14.976C171.276 14.976 165.58 16.192 162.636 18.112C161.484 18.816 161.036 19.584 161.036 20.544C161.036 21.76 161.868 22.592 163.596 23.104C164.428 23.36 164.748 25.28 164.748 27.264V38.208C164.748 40.256 164.62 41.856 163.788 42.176C162.444 42.624 161.356 43.264 161.356 44.8C161.356 47.616 165.26 48.512 171.02 48.512ZM163.148 7.168C163.148 9.984 165.196 11.84 169.292 11.84C173.132 11.84 177.996 10.304 177.996 6.4C177.996 3.584 176.012 1.6 171.852 1.6C167.884 1.6 163.148 3.072 163.148 7.168ZM201.014 48.96C208.95 48.96 214.966 44.48 214.966 37.824C214.966 30.4 207.734 27.84 202.23 26.304C198.006 25.152 196.022 24.448 196.022 22.464C196.022 20.928 197.366 19.648 199.798 19.648C202.422 19.648 205.558 21.184 207.67 24.064C208.95 25.6 209.91 26.688 211.318 26.688C212.598 26.688 214.134 25.792 214.134 23.168C214.134 19.52 211.446 14.464 208.502 14.464C207.286 14.464 206.326 15.296 206.07 16.512C203.574 15.168 200.438 14.528 197.622 14.528C190.006 14.528 183.926 19.072 183.926 25.856C183.926 32.384 189.942 34.816 196.15 36.8C200.438 38.08 202.806 38.72 202.806 41.024C202.806 42.752 201.142 43.84 198.71 43.84C195.766 43.84 192.374 42.048 189.622 38.464C188.47 36.928 187.574 35.584 185.974 35.584C184.502 35.584 183.35 36.8 183.35 39.424C183.35 43.456 186.038 49.024 189.494 49.024C190.902 49.024 191.862 48.192 192.118 46.912C194.678 48.32 197.942 48.96 201.014 48.96ZM231.284 48.704C238.9 48.704 244.404 43.328 244.404 40.256C244.404 38.72 243.636 37.952 242.484 37.952C240.82 37.952 239.348 40.192 236.596 40.192C234.804 40.192 233.908 39.232 233.908 35.904V22.144H241.076C243.38 22.144 243.956 21.312 243.956 19.264C243.956 17.216 243.252 16.448 241.076 16.448H233.908V11.904C233.908 9.92 233.012 8.896 231.412 8.896C229.492 8.896 226.548 10.624 223.796 12.544C220.852 14.656 217.396 17.344 217.396 19.584C217.396 21.76 219.508 22.272 220.916 22.272H221.364L221.428 39.296C221.428 45.248 224.948 48.704 231.284 48.704ZM256.206 48.512C262.414 48.512 266.83 47.68 266.83 44.864C266.83 43.264 265.614 42.56 263.63 41.984C262.734 41.664 262.478 40.64 262.478 38.08V29.568C262.478 27.136 263.758 25.152 265.102 25.152C265.998 25.152 266.702 25.92 267.47 26.688C268.494 27.712 270.094 28.8 272.334 28.8C275.918 28.8 278.222 25.984 278.222 21.632C278.222 17.152 275.406 14.592 271.886 14.592C267.918 14.592 264.462 17.728 262.478 22.528V21.12C262.478 17.088 262.286 14.976 258.958 14.976C256.462 14.976 250.766 16.192 247.822 18.112C246.67 18.816 246.222 19.584 246.222 20.544C246.222 21.76 247.054 22.592 248.782 23.104C249.614 23.36 249.934 25.28 249.934 27.264V38.208C249.934 40.384 249.806 41.856 248.974 42.176C247.63 42.624 246.542 43.264 246.542 44.8C246.542 47.616 250.446 48.512 256.206 48.512ZM289.833 48.512C295.401 48.512 299.497 47.68 299.497 44.8C299.497 43.264 298.409 42.688 297.001 42.176C296.233 41.856 296.105 40.832 296.105 38.208V29.376C296.105 26.176 296.169 23.424 296.169 21.12C296.169 17.088 295.977 14.976 292.585 14.976C290.089 14.976 284.393 16.192 281.449 18.112C280.297 18.816 279.849 19.584 279.849 20.544C279.849 21.76 280.681 22.592 282.409 23.104C283.241 23.36 283.561 25.28 283.561 27.264V38.208C283.561 40.256 283.433 41.856 282.601 42.176C281.257 42.624 280.169 43.264 280.169 44.8C280.169 47.616 284.073 48.512 289.833 48.512ZM281.961 7.168C281.961 9.984 284.009 11.84 288.105 11.84C291.945 11.84 296.809 10.304 296.809 6.4C296.809 3.584 294.825 1.6 290.665 1.6C286.697 1.6 281.961 3.072 281.961 7.168ZM323.027 48.896C333.779 48.896 340.755 41.728 340.755 30.656C340.755 21.184 335.187 14.656 327.763 14.656C322.835 14.656 318.675 17.664 316.883 21.504V14.656C316.883 11.52 316.947 8.832 316.947 6.592C316.947 2.496 316.691 0.383999 313.299 0.383999C310.675 0.383999 304.723 1.6 301.459 3.52C300.306 4.224 299.858 5.056 299.858 6.016C299.858 7.36 300.947 8.192 302.803 8.768C303.827 9.152 304.339 11.136 304.339 13.312V36.864C304.339 39.936 304.147 41.728 303.443 44.16C303.315 44.672 303.123 45.376 303.123 45.888C303.123 47.168 304.083 47.936 305.363 47.936C307.027 47.936 308.819 46.4 310.291 44.672C313.107 47.104 317.715 48.896 323.027 48.896ZM316.627 33.92C316.627 25.856 319.251 22.656 322.259 22.656C325.523 22.656 327.763 26.048 327.763 33.344C327.763 40.576 325.523 43.904 322.003 43.904C318.931 43.904 316.627 41.664 316.627 33.92ZM356.778 49.024C362.218 49.024 366.122 45.888 368.17 41.664V42.56C368.17 46.592 368.426 48.704 371.69 48.704C374.25 48.704 379.882 47.552 382.826 45.568C383.978 44.864 384.426 44.096 384.426 43.136C384.426 41.92 383.594 41.088 381.93 40.576C381.098 40.32 380.778 38.464 380.778 36.416V29.376V21.12C380.778 16.96 380.586 14.976 377.13 14.976C374.378 14.976 369.13 15.808 366.058 17.344C364.906 17.92 364.266 18.752 364.266 19.712C364.266 20.928 365.162 21.888 366.89 22.336C367.85 22.72 368.234 24.768 368.234 26.688V31.232C368.234 38.4 366.058 40.704 363.242 40.704C360.106 40.704 359.082 37.76 359.082 32V28.992V21.12C359.082 16.96 358.89 14.976 355.498 14.976C352.746 14.976 347.562 15.872 344.554 17.344C343.402 17.92 342.89 18.752 342.89 19.712C342.89 20.928 343.722 21.824 345.322 22.336C346.218 22.592 346.538 24.64 346.538 26.624V37.056C346.538 44.928 350.506 49.024 356.778 49.024ZM400.222 48.704C407.838 48.704 413.342 43.328 413.342 40.256C413.342 38.72 412.574 37.952 411.422 37.952C409.758 37.952 408.286 40.192 405.534 40.192C403.742 40.192 402.846 39.232 402.846 35.904V22.144H410.014C412.318 22.144 412.894 21.312 412.894 19.264C412.894 17.216 412.19 16.448 410.014 16.448H402.846V11.904C402.846 9.92 401.95 8.896 400.35 8.896C398.43 8.896 395.486 10.624 392.734 12.544C389.79 14.656 386.334 17.344 386.334 19.584C386.334 21.76 388.446 22.272 389.854 22.272H390.302L390.366 39.296C390.366 45.248 393.885 48.704 400.222 48.704ZM425.208 48.512C430.776 48.512 434.872 47.68 434.872 44.8C434.872 43.264 433.784 42.688 432.376 42.176C431.608 41.856 431.48 40.832 431.48 38.208V29.376C431.48 26.176 431.544 23.424 431.544 21.12C431.544 17.088 431.352 14.976 427.96 14.976C425.464 14.976 419.768 16.192 416.824 18.112C415.672 18.816 415.224 19.584 415.224 20.544C415.224 21.76 416.056 22.592 417.784 23.104C418.616 23.36 418.936 25.28 418.936 27.264V38.208C418.936 40.256 418.808 41.856 417.976 42.176C416.632 42.624 415.544 43.264 415.544 44.8C415.544 47.616 419.448 48.512 425.208 48.512ZM417.336 7.168C417.336 9.984 419.384 11.84 423.48 11.84C427.32 11.84 432.184 10.304 432.184 6.4C432.184 3.584 430.2 1.6 426.04 1.6C422.072 1.6 417.336 3.072 417.336 7.168ZM455.266 49.024C466.85 49.024 475.106 41.984 475.106 31.552C475.106 21.632 467.938 14.528 457.25 14.528C445.41 14.528 437.282 21.696 437.282 32.064C437.282 41.984 444.45 49.024 455.266 49.024ZM449.57 26.176C449.57 22.016 451.49 19.84 454.05 19.84C458.978 19.84 462.882 30.784 462.882 37.376C462.882 41.408 461.026 43.712 458.402 43.712C453.346 43.712 449.57 32.832 449.57 26.176ZM509.908 48.512C515.476 48.512 519.572 47.68 519.572 44.8C519.572 43.2 518.42 42.624 517.076 42.176C516.18 41.728 516.18 40.64 516.18 38.208V26.624C516.18 18.752 512.084 14.656 505.876 14.656C500.308 14.656 496.276 17.856 494.228 22.08V21.12C494.228 17.088 494.036 14.976 490.708 14.976C488.212 14.976 482.516 16.192 479.572 18.112C478.42 18.816 477.972 19.584 477.972 20.544C477.972 21.76 478.804 22.592 480.532 23.104C481.364 23.36 481.684 25.28 481.684 27.264V38.208C481.684 40.192 481.62 41.728 480.724 42.176C479.508 42.56 478.292 43.2 478.292 44.8C478.292 47.616 482.196 48.512 487.956 48.512C493.524 48.512 497.364 47.68 497.364 44.864C497.364 43.328 496.276 42.816 495.06 42.304C494.228 41.728 494.228 40.576 494.228 38.208V31.872C494.292 25.216 496.532 23.04 499.284 23.04C502.292 23.04 503.636 25.216 503.636 31.744V38.208C503.636 40.128 503.572 41.728 502.74 42.304C501.588 42.752 500.5 43.328 500.5 44.864C500.5 47.616 504.148 48.512 509.908 48.512Z" fill="#F86542"/>
</svg>
