<svg width="48" height="68" viewBox="0 0 48 68" fill="none" xmlns="http://www.w3.org/2000/svg">
<path d="M21.9573 0.0838013C22.0629 0.157165 22.1051 4.91401 22.1157 18.0425C22.1157 22.0136 22.1473 24.0986 22.2212 24.0986C22.2845 24.0986 22.3268 24.0043 22.3268 23.8786C22.3268 23.7633 22.3796 23.5747 22.4429 23.4595C22.5063 23.3442 22.6223 22.9984 22.7068 22.7051C23.0024 21.6678 23.0446 21.5316 23.3296 20.7981C23.488 20.3895 23.7308 19.6875 23.8786 19.2265C24.0263 18.7655 24.2797 17.9901 24.4487 17.4977C24.6175 17.0157 24.7548 16.5337 24.7548 16.4289C24.7548 16.3242 24.797 16.2404 24.8498 16.2404C24.9026 16.2404 24.9659 16.1356 24.9975 15.9994C25.1348 15.4755 25.3987 14.6478 25.8632 13.359C26.1271 12.6046 26.4438 11.693 26.5599 11.3159L26.7087 10.8721C26.7918 10.624 26.8686 10.3927 26.9083 10.2681C27.1828 9.51369 27.3939 8.82218 27.3939 8.66502C27.3939 8.58118 27.4255 8.4869 27.4783 8.46595C27.5206 8.445 27.7844 7.72203 28.0695 6.86284C28.3439 5.99321 28.6818 5.00832 28.819 4.66253C28.9457 4.31677 29.2096 3.54143 29.3996 2.93372C29.5896 2.32605 29.8113 1.67644 29.8851 1.48781C29.9697 1.29922 30.033 1.04778 30.033 0.942989C30.033 0.888695 30.0423 0.839044 30.0566 0.80171C30.0727 0.75981 30.0951 0.73341 30.1174 0.73341C30.1596 0.73341 30.2441 0.576284 30.2969 0.387655L30.4025 0.0523758L39.1959 0.0209503L48 0L47.9261 0.335279L47.9224 0.351511L47.9174 0.372345L47.9023 0.431973C47.8891 0.481317 47.8738 0.534229 47.857 0.587948C47.8119 0.732105 47.7561 0.882134 47.7044 0.98489C47.6199 1.15253 47.5566 1.37258 47.5566 1.47733C47.5566 1.57165 47.5144 1.67644 47.4616 1.69739C47.3877 1.72881 47.2505 2.07457 46.8071 3.35284C46.7539 3.4963 46.6896 3.67242 46.6422 3.80273L46.596 3.92912C46.5537 4.04439 46.3954 4.44251 46.2371 4.81969C46.0893 5.19691 45.7726 6.06658 45.5403 6.75809C45.2975 7.4496 45.0653 8.05731 45.0125 8.10968C44.9597 8.17257 44.9175 8.31926 44.9175 8.45547C44.9175 8.50996 44.9108 8.55938 44.8993 8.5991L44.8962 8.60938L44.8938 8.6164L44.885 8.6385L44.8761 8.65569C44.8725 8.66168 44.8688 8.66709 44.8649 8.67184C44.8522 8.68765 44.8378 8.69644 44.8225 8.69644C44.7697 8.69644 44.7064 8.80123 44.6747 8.92697C44.6008 9.2413 44.3897 9.84901 44.263 10.1004C44.2102 10.2052 44.0414 10.6453 43.9041 11.0749C43.7563 11.5149 43.5979 11.955 43.5346 12.0598C43.4396 12.2379 43.0913 13.1704 42.4684 14.9307C42.3523 15.2764 42.215 15.5803 42.1728 15.6117C42.1518 15.6273 42.1281 15.6689 42.1058 15.7249C42.0833 15.7813 42.062 15.8524 42.0462 15.926C41.9617 16.2823 41.7506 16.869 41.5816 17.2043C41.4972 17.351 41.4339 17.5501 41.4339 17.6444C41.4339 17.7282 41.3706 17.9587 41.2861 18.1473C41.2016 18.3359 41.0433 18.7236 40.9166 19.0169C40.6633 19.6037 40.0721 21.2173 39.9877 21.5316C39.956 21.6468 39.8715 21.8878 39.7871 22.0764C39.7026 22.2546 39.6393 22.4536 39.6393 22.5165C39.6393 22.5794 39.5971 22.6317 39.5443 22.6317C39.4915 22.6317 39.4282 22.7575 39.3965 22.9146C39.3121 23.3442 38.6892 25.073 38.5731 25.1883C38.5203 25.2512 38.4781 25.3873 38.4781 25.5131C38.4781 25.6283 38.3831 25.8903 38.2775 26.0998C38.172 26.2989 38.0242 26.6342 37.9714 26.8333C37.9081 27.0324 37.7602 27.4515 37.6336 27.7658C37.5069 28.0801 37.3802 28.4468 37.3485 28.5726C37.2958 28.7926 37.4964 29.526 37.8025 30.2595C37.887 30.4481 37.9503 30.6786 37.9503 30.7729C37.9503 30.8567 38.0664 31.2025 38.2037 31.5273C38.3409 31.8521 38.6048 32.6065 38.7948 33.2142C38.9743 33.8219 39.1959 34.4715 39.2804 34.6601C39.3648 34.8487 39.4282 35.1001 39.4282 35.2049C39.4282 35.3202 39.4809 35.4145 39.5337 35.4145C39.5971 35.4145 39.6393 35.4983 39.6393 35.5926C39.6393 35.6974 39.766 36.106 39.9138 36.5146C40.0616 36.9128 40.2199 37.3843 40.2727 37.5624C40.3149 37.73 40.4838 38.233 40.6422 38.6626C40.7899 39.0921 40.98 39.6579 41.0644 39.9199C41.1383 40.1818 41.2544 40.5276 41.3178 40.7057C41.7295 41.8373 42.0673 42.9269 42.0673 43.0841C42.0673 43.1889 42.0989 43.2727 42.1517 43.2727C42.1939 43.2727 42.3101 43.5661 42.4262 43.9223C42.5317 44.2891 42.6796 44.7501 42.7535 44.9491C43.3869 46.7199 43.4713 47.0447 43.3235 47.2123C43.2601 47.2961 43.144 47.359 43.0596 47.359C42.9857 47.359 42.764 47.4219 42.5739 47.5057C42.384 47.5895 42.004 47.7467 41.7295 47.8515C41.4444 47.9562 41.2227 48.0715 41.2227 48.1134C41.2227 48.1272 41.2176 48.1395 41.2086 48.1502C41.2015 48.1586 41.192 48.166 41.1805 48.1722C41.1511 48.1884 41.1092 48.1972 41.0644 48.1972C40.906 48.1972 40.3466 48.4172 39.8293 48.6792C39.6815 48.763 39.4809 48.8259 39.3965 48.8259C39.3015 48.8259 39.1009 48.8887 38.932 48.9726C37.9503 49.4441 37.3802 49.6746 35.9973 50.1984C35.649 50.3346 35.3217 50.4813 35.2689 50.5233C35.2056 50.5652 35.0789 50.6071 34.9733 50.6071C34.8678 50.6071 34.7834 50.649 34.7834 50.7119C34.7834 50.7642 34.72 50.8166 34.6355 50.8166C34.5617 50.8166 34.3505 50.89 34.1922 50.9738C34.0233 51.0576 33.8016 51.131 33.7066 51.131C33.6116 51.131 33.506 51.1729 33.4638 51.2253C33.4322 51.2776 33.2315 51.3824 33.0099 51.4557C32.5981 51.5815 31.1414 52.1997 30.6347 52.4512C30.4658 52.535 30.2863 52.5978 30.2229 52.5978C30.1958 52.5978 30.1266 52.6173 30.0385 52.6476C29.9555 52.6762 29.8558 52.7144 29.7585 52.755C29.5579 52.8388 29.2412 52.9855 29.0407 53.0693C28.8401 53.1531 28.6079 53.2265 28.5128 53.2265C28.4178 53.2265 28.344 53.2579 28.344 53.2998C28.344 53.3837 27.7 53.6561 27.1933 53.8027C26.9083 53.8866 26.7605 53.7294 26.7605 53.3417C26.7605 53.2056 26.6866 52.8598 26.5916 52.5559C26.0848 50.9319 25.9265 50.3871 25.7576 49.7689C25.4832 48.7106 25.2826 47.9772 25.1137 47.4533C25.0292 47.1809 24.9659 46.8665 24.9659 46.7408C24.9659 46.6256 24.9237 46.5208 24.8604 46.5208C24.8076 46.5208 24.7548 46.416 24.7548 46.3008C24.7548 46.175 24.6914 45.8607 24.607 45.5883C24.4381 45.0644 24.2375 44.3205 23.963 43.2727L23.8141 42.7376L23.7621 42.5527C23.6874 42.2888 23.6089 42.019 23.5408 41.8058C23.4513 41.5257 23.3439 41.1654 23.2566 40.8615C23.21 40.6993 23.1691 40.5531 23.1397 40.4437C22.7596 39.0188 22.6118 38.474 22.4746 38.0444C22.4488 37.9644 22.425 37.8816 22.4044 37.802L22.3834 37.7179C22.3745 37.6803 22.3663 37.644 22.3593 37.6099C22.3486 37.5584 22.3403 37.5117 22.3347 37.4723C22.3295 37.4361 22.3268 37.4061 22.3268 37.3843C22.3268 37.269 22.2634 37.1119 22.179 37.0385C22.0524 36.9128 22.0418 38.2539 22.084 46.2588C22.1051 51.4138 22.1051 55.7202 22.0629 55.8459C22.0312 55.9611 21.9045 56.0555 21.799 56.0555C21.6934 56.0555 21.5773 56.0974 21.5351 56.1497C21.5034 56.2022 21.3239 56.286 21.1445 56.3279C20.9544 56.3593 20.7328 56.4326 20.6378 56.485C20.2049 56.7051 19.4977 56.9985 19.3921 56.9985C19.3183 56.9985 19.0438 57.1137 18.7693 57.2499C18.2098 57.5223 17.7664 57.7214 17.0486 57.9938C16.7846 58.0881 16.4152 58.2348 16.2252 58.3186C16.0352 58.4025 15.8135 58.4653 15.729 58.4653C15.6446 58.4653 15.5707 58.5072 15.5707 58.5701C15.5707 58.6225 15.5074 58.6749 15.4229 58.6749C15.3384 58.6749 15.1379 58.7377 14.969 58.8215C14.8107 58.9054 14.4623 59.0521 14.1984 59.1464C13.9344 59.2511 13.5966 59.3874 13.4383 59.4712C13.2905 59.555 13.1005 59.6179 13.0266 59.6179C12.9421 59.6179 12.6149 59.7436 12.2982 59.8903C11.7071 60.1837 11.4009 60.3094 10.662 60.5923C10.5943 60.6167 10.5113 60.6483 10.421 60.6833L10.3126 60.7256L10.1192 60.8018L10.1139 60.8038L9.97012 60.8605C9.88932 60.8922 9.81216 60.9223 9.74358 60.9485C9.45851 61.0533 9.23684 61.1685 9.23684 61.2105C9.23684 61.2629 9.16293 61.2943 9.0785 61.2943C8.99406 61.2943 8.77239 61.3572 8.58235 61.441C8.39234 61.5248 8.06509 61.661 7.84343 61.7553C7.63227 61.8496 7.40005 61.9229 7.31558 61.9229C7.2417 61.9229 7.08336 61.9963 6.97778 62.0801C6.86165 62.1639 6.6822 62.2373 6.58721 62.2373C6.48163 62.2373 6.21771 62.3421 5.99604 62.4678C5.77433 62.604 5.45764 62.7611 5.27819 62.824C5.10929 62.8869 4.61314 63.0755 4.19087 63.2326C3.76864 63.3898 3.39914 63.4946 3.36748 63.4736C3.33582 63.4317 3.28305 0.586759 3.31471 0.0733261C3.32527 -0.0209498 21.8201 -0.0209497 21.9573 0.0838013Z" fill="#FFFEFF"/>
<path d="M40.4627 51.812C40.5365 51.9587 40.5894 52.1578 40.5894 52.2416C40.5894 52.3254 40.7055 52.6607 40.8533 52.975C41.0011 53.2893 41.1172 53.6142 41.1172 53.698C41.1172 53.7818 41.1805 54.0019 41.265 54.1904C41.3389 54.379 41.5711 55.0286 41.7611 55.6364C41.9617 56.2441 42.1517 56.747 42.2045 56.7679C42.2467 56.7889 42.2784 56.8727 42.2784 56.9565C42.2784 57.0927 42.7218 58.5072 43.0702 59.5131C43.3235 60.236 43.5663 60.9381 43.8302 61.7134L44.0914 62.4713C44.15 62.6397 44.2001 62.7818 44.2313 62.8659C44.3052 63.065 44.453 63.526 44.5586 63.8823C44.6747 64.249 44.7908 64.5424 44.8331 64.5424C44.8858 64.5424 44.9175 64.6262 44.9175 64.7205C44.9175 64.9091 45.4876 66.6903 45.7198 67.2351C45.8043 67.4132 45.8676 67.6542 45.8676 67.7799V68H26.4755L26.2116 67.1828C25.9476 66.3969 25.8104 65.915 25.4515 64.5424C25.3459 64.1652 25.1982 63.6518 25.1137 63.3898C25.0292 63.1279 24.9659 62.8136 24.9659 62.6773C24.9659 62.5516 24.9237 62.4468 24.8709 62.4468C24.8181 62.4468 24.7548 62.3211 24.7336 62.1535C24.702 61.9963 24.5753 61.4934 24.4381 61.0323C23.9841 59.4188 23.8891 59.0416 23.8364 58.6015C23.7836 58.1929 23.7942 58.1719 24.1109 58.0986C24.178 58.0869 24.2435 58.0678 24.3011 58.0458C24.3974 58.0089 24.471 57.9638 24.4909 57.931L24.5037 57.9169C24.5155 57.9055 24.5297 57.8947 24.5458 57.8849C24.5574 57.8779 24.57 57.8715 24.5833 57.8658L24.5932 57.8618L24.5997 57.8593C24.6376 57.8451 24.6804 57.8367 24.7231 57.8367C24.8076 57.8367 25.0292 57.7738 25.2087 57.69C25.3332 57.642 25.5308 57.5531 25.726 57.4654C25.8277 57.4197 25.9315 57.3731 26.0215 57.3337C26.6127 57.0823 27.2883 56.7994 28.4495 56.3488C28.9457 56.1602 29.3679 55.9716 29.3785 55.9193C29.3996 55.8773 29.4735 55.8459 29.5368 55.8459C29.6846 55.8459 30.8563 55.3849 30.9514 55.2801C30.9831 55.2487 31.0886 55.2172 31.173 55.2172C31.2575 55.2172 31.4686 55.1544 31.6481 55.0705C31.7065 55.048 31.781 55.0165 31.8637 54.9803C31.9572 54.9395 32.0612 54.8928 32.1647 54.8463C32.2675 54.8001 32.3699 54.7541 32.461 54.7143C33.0521 54.4629 33.7911 54.159 34.625 53.8447C34.9733 53.7085 35.3006 53.5618 35.3534 53.5199C35.4167 53.4779 35.5434 53.436 35.649 53.436C35.7545 53.436 35.839 53.3941 35.839 53.3417C35.839 53.2894 35.9762 53.216 36.1557 53.1741C36.3246 53.1322 36.4935 53.0589 36.5252 53.0064C36.5674 52.9541 36.6624 52.9122 36.7574 52.9122C36.8419 52.9122 37.0635 52.8493 37.243 52.7655C37.3144 52.7379 37.4098 52.6999 37.5149 52.6578L37.9092 52.4992L38.0558 52.4407C38.3198 52.3464 38.7736 52.1473 39.0587 52.0216C40.2833 51.4663 40.3044 51.4663 40.4627 51.812Z" fill="#FFFEFF"/>
<path d="M18.7376 64.2385V68L0 67.979L0.591167 67.7066C1.15064 67.4342 1.39345 67.3399 2.26962 67.0046C3.45195 66.5541 3.64196 66.4703 3.64196 66.3969C3.64196 66.355 3.75809 66.3236 3.89533 66.3236C4.04308 66.3236 4.18032 66.2817 4.21202 66.2292C4.24368 66.1873 4.57093 66.0407 4.92984 65.9044C5.2993 65.7787 5.76378 65.6006 5.96438 65.5168L6.19247 65.4217C6.41796 65.3277 6.71931 65.2021 6.96722 65.0977C7.09253 65.0449 7.22879 64.9881 7.35974 64.9335L7.41977 64.9085L7.42742 64.9053L7.43217 64.9034L7.45498 64.8938C7.65044 64.8124 7.82407 64.74 7.9173 64.6995C8.09675 64.6262 8.424 64.5005 8.65627 64.4062C8.88853 64.3223 9.30016 64.1547 9.57464 64.0499C9.85971 63.9451 10.0814 63.8299 10.0814 63.7775C10.0814 63.7356 10.1975 63.7041 10.3347 63.7041C10.4825 63.7041 10.6197 63.6622 10.6514 63.6099C10.6831 63.568 11.0737 63.3898 11.5276 63.2326C11.9815 63.0755 12.3932 62.8974 12.446 62.8555C12.5093 62.8031 12.6254 62.7612 12.7099 62.7612C12.7489 62.7612 12.8616 62.7261 13.0075 62.6714C13.1377 62.6225 13.2945 62.5579 13.4489 62.4888C14.0928 62.1849 14.4517 62.0382 15.0956 61.7867C15.2349 61.7365 15.4387 61.6561 15.6387 61.5771C15.7712 61.5249 15.9051 61.4721 16.0141 61.4305C16.2991 61.3257 16.5208 61.2105 16.5208 61.1581C16.5208 61.1162 16.6158 61.0847 16.7424 61.0847C16.8586 61.0847 17.0908 61.0114 17.2386 60.9381C17.8614 60.6028 18.537 60.3513 18.6637 60.4247C18.706 60.4456 18.7376 62.164 18.7376 64.2385Z" fill="#FFFEFF"/>
</svg>
