<svg width="15" height="15" viewBox="0 0 15 15" fill="none" xmlns="http://www.w3.org/2000/svg">
<path fill-rule="evenodd" clip-rule="evenodd" d="M7.5 15C11.6421 15 15 11.6421 15 7.5C15 3.35786 11.6421 0 7.5 0C3.35786 0 0 3.35786 0 7.5C0 11.6421 3.35786 15 7.5 15ZM4.84424 10.2891H4.03125C4.1543 10.1528 4.23779 10.0034 4.28613 9.84082C4.33008 9.68262 4.35645 9.48926 4.35645 9.26514V5.59131C4.35645 5.16064 4.24658 4.82666 4.03125 4.59375H5.12109L7.65234 9.86719L9.87598 4.59375H10.9351C10.812 4.74316 10.7241 4.89697 10.6802 5.05518C10.6362 5.21338 10.6143 5.40674 10.6143 5.63525V9.28271C10.6143 9.49805 10.6362 9.68701 10.6846 9.84521C10.7285 10.0034 10.812 10.1528 10.9351 10.2891H9.44971C9.57275 10.1396 9.66064 9.98584 9.70459 9.82324C9.74854 9.66504 9.7749 9.47168 9.7749 9.24316V5.25732L7.74902 10.0386L6.9668 10.4077L4.51904 5.28369V9.26514C4.51904 9.49365 4.54102 9.68262 4.58936 9.84082C4.6377 9.99902 4.72119 10.1484 4.84424 10.2891Z" fill="#FFF"/>
</svg>
