<svg width="204" height="46" viewBox="0 0 204 46" fill="none" xmlns="http://www.w3.org/2000/svg">
<path d="M41.375 8.53125V45H46.1562V0.1875H42L23.4375 24.5312L4.875 0.1875H0.71875V45H5.53125V8.53125L23.4375 32.1875L41.375 8.53125ZM80.0625 45H84.5625V14.2812H80.0625V31.25C80.0625 34.25 79.1562 36.6875 77.375 38.5938C75.5625 40.5312 73.375 41.4688 70.7812 41.4688C68.3438 41.4688 66.3125 40.5938 64.6562 38.8438C62.9688 37.0938 62.1562 34.875 62.1562 32.1875V14.2812H57.6875V32.1875C57.6875 36.1875 58.8438 39.4062 61.2188 41.9062C63.5938 44.4062 66.5625 45.625 70.1562 45.625C71.375 45.625 72.5625 45.4688 73.7188 45.125C74.875 44.8125 75.8125 44.4375 76.5312 44C77.2188 43.5625 77.875 43.0938 78.5 42.5312C79.125 41.9688 79.5 41.5938 79.6875 41.375C79.8438 41.1562 79.9688 40.9688 80.0625 40.8438V45ZM98 11.0938C98 13.2188 97.125 14.2812 95.4375 14.2812H91.9062V18.4375H97.6875V36.6875C97.6875 39.5625 98.4062 41.75 99.9062 43.3125C101.406 44.875 103.469 45.625 106.125 45.625C107.75 45.6562 109.188 45.3438 110.469 44.6875V40.5312L109.906 40.7812C109.531 40.9062 109.031 41.0625 108.344 41.2188C107.656 41.4062 107 41.4688 106.312 41.4688C103.531 41.5 102.156 39.9062 102.156 36.6875V18.4375H108.875V14.2812H102.156V4.03125H98V11.0938ZM142.75 31.3125L143.062 29C143.062 24.5625 141.656 20.9062 138.844 18C136.031 15.0938 132.531 13.625 128.344 13.625C124.281 13.625 120.781 15.1875 117.781 18.3125C114.781 21.4375 113.312 25.1875 113.312 29.625C113.312 34.0625 114.812 37.8438 117.844 40.9688C120.844 44.0938 124.469 45.625 128.656 45.625C130.188 45.625 131.688 45.4062 133.156 44.9375C134.625 44.4688 135.812 43.9688 136.75 43.4062C137.688 42.8438 138.531 42.2188 139.344 41.5C140.156 40.7812 140.656 40.2812 140.906 39.9688C141.156 39.6562 141.344 39.4375 141.469 39.25L138.594 36.375L137.5 37.625C136.812 38.5 135.625 39.3438 134 40.1875C132.344 41.0625 130.562 41.4688 128.656 41.4688C125.781 41.4688 123.312 40.4688 121.188 38.4375C119.062 36.4375 117.938 34.0312 117.781 31.25L142.75 31.3125ZM128.344 17.8125C131.031 17.8125 133.312 18.7188 135.219 20.5312C137.125 22.3438 138.25 24.6562 138.594 27.4062H117.781C118.125 24.8125 119.312 22.5625 121.312 20.6562C123.312 18.7812 125.656 17.8125 128.344 17.8125ZM172.5 14.2812H149.125V18.4375H167.062L148.5 40.8438V45H173.125V40.8438H153.938L172.5 18.4375V14.2812ZM187.531 27.4062C184.625 27.9062 182.406 28.9375 180.875 30.5C179.312 32.0625 178.562 34.125 178.562 36.6875C178.562 39.0312 179.594 41.0938 181.688 42.9062C183.781 44.7188 186.375 45.625 189.438 45.625C190.656 45.625 191.844 45.4688 193 45.125C194.156 44.8125 195.094 44.4375 195.812 44C196.5 43.5625 197.156 43.0938 197.781 42.5312C198.406 41.9688 198.781 41.5938 198.969 41.375C199.156 41.1562 199.281 40.9688 199.375 40.8438V45H203.844V25.4688C203.844 22.125 202.688 19.3125 200.375 17.0312C198.062 14.7812 195.188 13.625 191.688 13.625C190.312 13.625 188.938 13.8438 187.625 14.25C186.312 14.6562 185.25 15.125 184.438 15.625C183.625 16.1562 182.844 16.75 182.094 17.4062C181.344 18.0625 180.875 18.5312 180.656 18.7812C180.438 19.0312 180.281 19.25 180.156 19.4062L183.031 22.2812L184 21.1875C184.625 20.4375 185.656 19.6875 187.094 18.9375C188.531 18.1875 190.062 17.8125 191.688 17.8125C193.938 17.8125 195.781 18.5312 197.219 19.9375C198.656 21.375 199.375 23.2188 199.375 25.4688L187.531 27.4062ZM189.438 41.4688C187.438 41.4688 185.844 41.0312 184.719 40.125C183.594 39.2188 183.031 38.0625 183.031 36.6875C183.031 33.8125 184.969 32 188.812 31.25L199.375 29.3125V31.25C199.375 34.2812 198.438 36.75 196.562 38.625C194.688 40.5312 192.312 41.4688 189.438 41.4688Z" fill="#FFB189"/>
</svg>
