<svg width="280" height="59" viewBox="0 0 280 59" fill="none" xmlns="http://www.w3.org/2000/svg">
<path d="M16.072 46.512C12.7867 46.512 9.928 46 7.496 44.976C5.10667 43.952 3.25067 42.5013 1.928 40.624C0.648 38.7467 0.00800014 36.5493 0.00800014 34.032V32.176C0.00800014 31.7493 0.221334 31.536 0.648 31.536H5.32C5.74667 31.536 5.96 31.7493 5.96 32.176V33.712C5.96 35.888 6.89867 37.68 8.776 39.088C10.6533 40.496 13.2347 41.2 16.52 41.2C19.464 41.2 21.6827 40.5813 23.176 39.344C24.6693 38.1067 25.416 36.4853 25.416 34.48C25.416 33.1573 25.032 32.0267 24.264 31.088C23.496 30.1493 22.3653 29.296 20.872 28.528C19.4213 27.7173 17.288 26.7573 14.472 25.648C11.3573 24.4533 8.88267 23.3653 7.048 22.384C5.256 21.4027 3.76267 20.1227 2.568 18.544C1.37333 16.9227 0.776 14.896 0.776 12.464C0.776 8.79467 2.07733 5.91467 4.68 3.824C7.32533 1.73333 10.888 0.688 15.368 0.688C18.5253 0.688 21.2987 1.22133 23.688 2.288C26.0773 3.35466 27.912 4.848 29.192 6.768C30.5147 8.688 31.176 10.9067 31.176 13.424V14.704C31.176 15.1307 30.9627 15.344 30.536 15.344H25.736C25.3093 15.344 25.096 15.1307 25.096 14.704V13.744C25.096 11.5253 24.2 9.69066 22.408 8.24C20.6587 6.74667 18.2267 6 15.112 6C12.4667 6 10.4187 6.55467 8.968 7.664C7.51733 8.73067 6.792 10.288 6.792 12.336C6.792 13.744 7.15467 14.896 7.88 15.792C8.60533 16.688 9.672 17.4987 11.08 18.224C12.5307 18.9067 14.728 19.8027 17.672 20.912C20.7013 22.1067 23.1547 23.216 25.032 24.24C26.9093 25.2213 28.4667 26.544 29.704 28.208C30.9413 29.8293 31.56 31.856 31.56 34.288C31.56 38.0427 30.1733 41.0293 27.4 43.248C24.6693 45.424 20.8933 46.512 16.072 46.512ZM58.497 14.064C58.497 13.6373 58.7103 13.424 59.137 13.424H63.937C64.3637 13.424 64.577 13.6373 64.577 14.064V45.36C64.577 45.7867 64.3637 46 63.937 46H59.137C58.7103 46 58.497 45.7867 58.497 45.36V42.992C58.497 42.9067 58.4543 42.864 58.369 42.864C58.3263 42.8213 58.2623 42.8427 58.177 42.928C56.4703 45.2747 53.8463 46.448 50.305 46.448C48.2143 46.448 46.273 46.0427 44.481 45.232C42.7317 44.4213 41.3237 43.2267 40.257 41.648C39.1903 40.0693 38.657 38.1493 38.657 35.888V14.064C38.657 13.6373 38.8703 13.424 39.297 13.424H44.097C44.5237 13.424 44.737 13.6373 44.737 14.064V33.968C44.737 36.1867 45.313 37.936 46.465 39.216C47.6597 40.496 49.3237 41.136 51.457 41.136C53.5903 41.136 55.297 40.496 56.577 39.216C57.857 37.8933 58.497 36.144 58.497 33.968V14.064ZM88.0705 12.976C91.5692 12.976 94.3425 14 96.3905 16.048C98.4385 18.0533 99.4625 20.784 99.4625 24.24V45.36C99.4625 45.7867 99.2492 46 98.8225 46H93.9585C93.5318 46 93.3185 45.7867 93.3185 45.36V25.456C93.3185 23.3227 92.6998 21.5947 91.4625 20.272C90.2252 18.9493 88.5825 18.288 86.5345 18.288C84.5292 18.288 82.8865 18.9493 81.6065 20.272C80.3265 21.5947 79.6865 23.3013 79.6865 25.392V45.36C79.6865 45.7867 79.4732 46 79.0465 46H74.1825C73.7558 46 73.5425 45.7867 73.5425 45.36V14.064C73.5425 13.6373 73.7558 13.424 74.1825 13.424H79.0465C79.4732 13.424 79.6865 13.6373 79.6865 14.064V16.368C79.6865 16.4533 79.7078 16.5173 79.7505 16.56C79.8358 16.6027 79.8998 16.5813 79.9425 16.496C81.7772 14.1493 84.4865 12.976 88.0705 12.976ZM122.758 12.976C126.257 12.976 129.03 14 131.078 16.048C133.126 18.0533 134.15 20.784 134.15 24.24V45.36C134.15 45.7867 133.937 46 133.51 46H128.646C128.219 46 128.006 45.7867 128.006 45.36V25.456C128.006 23.3227 127.387 21.5947 126.15 20.272C124.913 18.9493 123.27 18.288 121.222 18.288C119.217 18.288 117.574 18.9493 116.294 20.272C115.014 21.5947 114.374 23.3013 114.374 25.392V45.36C114.374 45.7867 114.161 46 113.734 46H108.87C108.443 46 108.23 45.7867 108.23 45.36V14.064C108.23 13.6373 108.443 13.424 108.87 13.424H113.734C114.161 13.424 114.374 13.6373 114.374 14.064V16.368C114.374 16.4533 114.395 16.5173 114.438 16.56C114.523 16.6027 114.587 16.5813 114.63 16.496C116.465 14.1493 119.174 12.976 122.758 12.976ZM141.083 58.736C140.784 58.736 140.635 58.5227 140.635 58.096V54.32C140.635 53.8933 140.848 53.68 141.275 53.68H141.403C143.109 53.6373 144.453 53.424 145.435 53.04C146.416 52.656 147.227 51.9307 147.867 50.864C148.507 49.84 149.125 48.2827 149.723 46.192C149.765 46.1493 149.765 46.0853 149.723 46C149.723 45.872 149.723 45.808 149.723 45.808L139.035 14.128L138.971 13.872C138.971 13.5733 139.163 13.424 139.547 13.424H144.731C145.115 13.424 145.371 13.5947 145.499 13.936L152.731 38.064C152.773 38.1493 152.837 38.192 152.923 38.192C153.008 38.192 153.072 38.1493 153.115 38.064L160.283 13.936C160.411 13.5947 160.667 13.424 161.051 13.424H166.107C166.576 13.424 166.747 13.6587 166.619 14.128L154.971 48.24C153.989 51.184 153.008 53.36 152.027 54.768C151.045 56.2187 149.765 57.2427 148.187 57.84C146.608 58.4373 144.389 58.736 141.531 58.736H141.083ZM181.874 46.384C179.314 46.384 177.052 46 175.09 45.232C173.17 44.464 171.676 43.4187 170.61 42.096C169.543 40.7307 169.01 39.2373 169.01 37.616V36.912C169.01 36.4853 169.223 36.272 169.65 36.272H174.258C174.684 36.272 174.898 36.4853 174.898 36.912V37.232C174.898 38.4267 175.538 39.472 176.818 40.368C178.14 41.264 179.804 41.712 181.81 41.712C183.73 41.712 185.287 41.3067 186.482 40.496C187.676 39.6427 188.274 38.576 188.274 37.296C188.274 36.0587 187.719 35.1413 186.61 34.544C185.5 33.904 183.708 33.2427 181.234 32.56C178.802 31.8773 176.754 31.1947 175.09 30.512C173.468 29.7867 172.082 28.784 170.93 27.504C169.82 26.1813 169.266 24.496 169.266 22.448C169.266 19.5893 170.375 17.328 172.594 15.664C174.855 13.9573 177.842 13.104 181.554 13.104C184.028 13.104 186.204 13.5093 188.082 14.32C190.002 15.088 191.474 16.176 192.498 17.584C193.522 18.992 194.034 20.5707 194.034 22.32V22.512C194.034 22.9387 193.82 23.152 193.394 23.152H188.914C188.487 23.152 188.274 22.9387 188.274 22.512V22.32C188.274 21.0827 187.655 20.0587 186.418 19.248C185.223 18.3947 183.58 17.968 181.49 17.968C179.612 17.968 178.076 18.3307 176.882 19.056C175.73 19.7813 175.154 20.7627 175.154 22C175.154 23.2373 175.708 24.176 176.818 24.816C177.97 25.456 179.804 26.1387 182.322 26.864C184.796 27.5467 186.844 28.2293 188.466 28.912C190.13 29.552 191.538 30.5333 192.69 31.856C193.842 33.136 194.418 34.8213 194.418 36.912C194.418 39.8133 193.266 42.1173 190.962 43.824C188.7 45.5307 185.671 46.384 181.874 46.384ZM205.317 8.304C204.122 8.304 203.141 7.92 202.373 7.152C201.605 6.384 201.221 5.40267 201.221 4.208C201.221 3.01333 201.605 2.032 202.373 1.264C203.141 0.495998 204.122 0.112 205.317 0.112C206.512 0.112 207.493 0.495998 208.261 1.264C209.029 2.032 209.413 3.01333 209.413 4.208C209.413 5.40267 209.029 6.384 208.261 7.152C207.493 7.92 206.512 8.304 205.317 8.304ZM202.757 45.936C202.33 45.936 202.117 45.7227 202.117 45.296V14.064C202.117 13.6373 202.33 13.424 202.757 13.424H207.621C208.048 13.424 208.261 13.6373 208.261 14.064V45.296C208.261 45.7227 208.048 45.936 207.621 45.936H202.757ZM238.142 1.84C238.142 1.41333 238.355 1.2 238.782 1.2H243.646C244.072 1.2 244.286 1.41333 244.286 1.84V45.36C244.286 45.7867 244.072 46 243.646 46H238.782C238.355 46 238.142 45.7867 238.142 45.36V43.248C238.142 43.1627 238.099 43.0987 238.014 43.056C237.971 43.0133 237.907 43.0347 237.822 43.12C236.883 44.1867 235.774 45.0187 234.494 45.616C233.214 46.2133 231.827 46.512 230.333 46.512C227.262 46.512 224.702 45.7653 222.654 44.272C220.648 42.736 219.176 40.5813 218.238 37.808C217.427 35.5467 217.022 32.816 217.022 29.616C217.022 26.6293 217.363 24.048 218.046 21.872C218.942 19.056 220.414 16.8587 222.462 15.28C224.51 13.7013 227.134 12.912 230.333 12.912C231.784 12.912 233.15 13.2107 234.43 13.808C235.752 14.3627 236.883 15.1733 237.822 16.24C237.907 16.3253 237.971 16.3467 238.014 16.304C238.099 16.2613 238.142 16.1973 238.142 16.112V1.84ZM236.542 37.744C237.523 35.952 238.014 33.264 238.014 29.68C238.014 26.096 237.48 23.3653 236.414 21.488C235.176 19.312 233.363 18.224 230.974 18.224C228.414 18.224 226.515 19.248 225.278 21.296C223.912 23.4293 223.23 26.2453 223.23 29.744C223.23 33.0293 223.763 35.6747 224.83 37.68C226.067 40.0267 228.094 41.2 230.91 41.2C233.384 41.2 235.262 40.048 236.542 37.744ZM279.661 25.648C279.831 27.3973 279.895 29.36 279.853 31.536C279.853 31.9627 279.639 32.176 279.213 32.176H258.797C258.626 32.176 258.541 32.2613 258.541 32.432C258.541 33.8827 258.669 34.992 258.925 35.76C259.394 37.4667 260.333 38.8107 261.741 39.792C263.191 40.7307 265.005 41.2 267.181 41.2C270.338 41.2 272.77 39.8987 274.477 37.296C274.69 36.8693 274.967 36.8053 275.309 37.104L278.957 39.536C279.255 39.792 279.319 40.0693 279.149 40.368C277.954 42.288 276.247 43.8027 274.029 44.912C271.853 46.0213 269.378 46.576 266.605 46.576C263.49 46.576 260.866 45.8933 258.733 44.528C256.599 43.1627 254.999 41.2213 253.933 38.704C252.909 36.1867 252.397 33.136 252.397 29.552C252.397 26.4373 252.631 24.0693 253.101 22.448C253.869 19.504 255.405 17.1787 257.709 15.472C260.013 13.7653 262.807 12.912 266.093 12.912C270.402 12.912 273.623 14 275.757 16.176C277.89 18.3093 279.191 21.4667 279.661 25.648ZM266.093 18.224C264.258 18.224 262.743 18.6933 261.549 19.632C260.354 20.528 259.543 21.744 259.117 23.28C258.818 24.2187 258.626 25.4133 258.541 26.864C258.541 27.0347 258.626 27.12 258.797 27.12H273.453C273.623 27.12 273.709 27.0347 273.709 26.864C273.623 25.456 273.495 24.4107 273.325 23.728C272.898 22.064 272.045 20.7413 270.765 19.76C269.527 18.736 267.97 18.224 266.093 18.224Z" fill="#F8D914"/>
</svg>
