<svg width="299" height="64" viewBox="0 0 299 64" fill="none" xmlns="http://www.w3.org/2000/svg">
<path d="M18.544 48.864C16.7093 48.864 15.152 48.6293 13.872 48.16C12.6133 47.6907 11.6 47.2213 10.832 46.752C10.0853 46.2827 9.54133 46.048 9.2 46.048C8.88 46.048 8.57067 46.1973 8.272 46.496C7.97333 46.7947 7.67467 47.136 7.376 47.52C7.07733 47.904 6.77867 48.2347 6.48 48.512C6.18133 48.8107 5.872 48.96 5.552 48.96C5.21067 48.96 4.92267 48.8533 4.688 48.64C4.45333 48.4267 4.29333 48.096 4.208 47.648L1.936 36C1.89333 35.6587 1.936 35.3707 2.064 35.136C2.192 34.88 2.416 34.6987 2.736 34.592C3.07733 34.464 3.376 34.4747 3.632 34.624C3.90933 34.752 4.144 35.008 4.336 35.392C5.76533 38.2507 7.216 40.4907 8.688 42.112C10.1813 43.7333 11.696 44.8853 13.232 45.568C14.768 46.2293 16.3147 46.56 17.872 46.56C20.112 46.56 21.8827 45.9733 23.184 44.8C24.4853 43.6053 25.136 41.9627 25.136 39.872C25.136 38.528 24.8373 37.312 24.24 36.224C23.664 35.136 22.5973 34.1013 21.04 33.12C19.4827 32.1173 17.2427 31.136 14.32 30.176C11.0347 29.0667 8.4 27.8187 6.416 26.432C4.45333 25.024 3.024 23.424 2.128 21.632C1.25333 19.8187 0.816 17.7387 0.816 15.392C0.816 12.832 1.43467 10.5813 2.672 8.64C3.93067 6.67733 5.68 5.152 7.92 4.064C10.16 2.976 12.7413 2.432 15.664 2.432C17.5413 2.432 19.088 2.63467 20.304 3.04C21.5413 3.44533 22.544 3.86133 23.312 4.288C24.08 4.69333 24.688 4.896 25.136 4.896C25.5627 4.896 25.9573 4.68266 26.32 4.256C26.6827 3.82933 27.0453 3.40266 27.408 2.976C27.792 2.54933 28.2187 2.336 28.688 2.336C29.0293 2.336 29.3067 2.44267 29.52 2.656C29.7547 2.86933 29.9573 3.25333 30.128 3.808L33.296 15.488C33.4027 15.8933 33.392 16.2453 33.264 16.544C33.136 16.8427 32.9013 17.056 32.56 17.184C32.2187 17.2907 31.9093 17.28 31.632 17.152C31.376 17.0027 31.152 16.7573 30.96 16.416C29.424 13.4293 27.856 11.0933 26.256 9.408C24.6773 7.70133 23.0773 6.496 21.456 5.792C19.8347 5.088 18.192 4.736 16.528 4.736C14.3093 4.736 12.528 5.39733 11.184 6.72C9.86133 8.02133 9.2 9.78133 9.2 12C9.2 13.3227 9.488 14.56 10.064 15.712C10.64 16.8427 11.6853 17.92 13.2 18.944C14.7147 19.968 16.8693 20.992 19.664 22.016C23.0347 23.232 25.7013 24.5333 27.664 25.92C29.648 27.3067 31.0667 28.8533 31.92 30.56C32.7733 32.2453 33.2 34.1653 33.2 36.32C33.2 38.624 32.6133 40.736 31.44 42.656C30.288 44.5547 28.624 46.0693 26.448 47.2C24.272 48.3093 21.6373 48.864 18.544 48.864ZM60.2895 44.736V42.208L60.0975 42.08V23.968C60.0975 23.584 60.0335 23.3067 59.9055 23.136C59.7775 22.944 59.5642 22.8267 59.2655 22.784L57.4415 22.72C57.1642 22.656 56.9615 22.56 56.8335 22.432C56.7055 22.2827 56.6415 22.1013 56.6415 21.888C56.6415 21.632 56.7162 21.4293 56.8655 21.28C57.0148 21.1307 57.2922 20.992 57.6975 20.864L64.8335 18.528C65.3882 18.3147 65.8362 18.1653 66.1775 18.08C66.5402 17.9947 66.8708 17.952 67.1695 17.952C67.6388 17.952 67.9908 18.0907 68.2255 18.368C68.4815 18.624 68.6095 18.9653 68.6095 19.392V44.096C68.6095 44.6293 68.6842 45.024 68.8335 45.28C69.0042 45.536 69.2602 45.7067 69.6015 45.792L71.0095 46.112C71.3295 46.2187 71.5535 46.3573 71.6815 46.528C71.8308 46.6773 71.9055 46.8587 71.9055 47.072C71.9055 47.3707 71.7988 47.6053 71.5855 47.776C71.3935 47.9253 71.0842 48 70.6575 48H63.1695C62.3375 48 61.6442 47.7013 61.0895 47.104C60.5562 46.4853 60.2895 45.696 60.2895 44.736ZM40.6735 39.616V23.968C40.6735 23.584 40.5988 23.3067 40.4495 23.136C40.3215 22.944 40.1188 22.8267 39.8415 22.784L38.0175 22.72C37.7188 22.656 37.5055 22.56 37.3775 22.432C37.2708 22.2827 37.2175 22.1013 37.2175 21.888C37.2175 21.632 37.2922 21.4293 37.4415 21.28C37.5908 21.1307 37.8575 20.992 38.2415 20.864L45.3775 18.528C45.9748 18.3147 46.4442 18.1653 46.7855 18.08C47.1268 17.9947 47.4362 17.952 47.7135 17.952C48.2042 17.952 48.5668 18.0907 48.8015 18.368C49.0362 18.624 49.1535 18.9653 49.1535 19.392V38.496C49.1535 40.3733 49.5908 41.7707 50.4655 42.688C51.3615 43.584 52.5562 44.032 54.0495 44.032C54.9668 44.032 55.9268 43.8187 56.9295 43.392C57.9535 42.9653 58.9882 42.2933 60.0335 41.376L61.2815 40.32L62.3055 41.376L61.0895 42.464C58.5722 44.768 56.3535 46.3893 54.4335 47.328C52.5348 48.2453 50.7428 48.704 49.0575 48.704C46.5828 48.704 44.5668 47.9147 43.0095 46.336C41.4522 44.736 40.6735 42.496 40.6735 39.616ZM87.449 19.36V44.096C87.449 44.6293 87.5237 45.024 87.673 45.28C87.8437 45.5147 88.0997 45.6853 88.441 45.792L89.817 46.144C90.329 46.3147 90.585 46.6133 90.585 47.04C90.585 47.68 90.1797 48 89.369 48H76.793C76.409 48 76.1103 47.9253 75.897 47.776C75.705 47.6053 75.609 47.3707 75.609 47.072C75.609 46.8587 75.673 46.6773 75.801 46.528C75.9503 46.3573 76.1743 46.2293 76.473 46.144L77.945 45.792C78.2863 45.7067 78.5317 45.536 78.681 45.28C78.8517 45.024 78.937 44.64 78.937 44.128V23.936C78.937 23.5307 78.873 23.2427 78.745 23.072C78.617 22.9013 78.4037 22.7947 78.105 22.752L76.281 22.656C76.0037 22.6133 75.801 22.528 75.673 22.4C75.545 22.2507 75.481 22.0693 75.481 21.856C75.481 21.6 75.5557 21.3973 75.705 21.248C75.8757 21.0987 76.153 20.9493 76.537 20.8L83.673 18.496C84.249 18.2827 84.7077 18.1333 85.049 18.048C85.3903 17.9627 85.7103 17.92 86.009 17.92C86.4783 17.92 86.8303 18.0587 87.065 18.336C87.321 18.592 87.449 18.9333 87.449 19.36ZM86.585 26.176L85.561 25.088L86.777 24.032C89.2303 21.8133 91.3423 20.224 93.113 19.264C94.905 18.2827 96.601 17.792 98.201 17.792C100.59 17.792 102.446 18.5813 103.769 20.16C105.092 21.7173 105.902 23.8933 106.201 26.688L108.217 43.968C108.281 44.544 108.388 44.9707 108.537 45.248C108.708 45.5253 108.974 45.7173 109.337 45.824L110.649 46.144C110.948 46.2293 111.161 46.3573 111.289 46.528C111.417 46.6773 111.481 46.8587 111.481 47.072C111.481 47.3707 111.385 47.6053 111.193 47.776C111.001 47.9253 110.702 48 110.297 48H97.561C96.7503 48 96.345 47.68 96.345 47.04C96.345 46.6347 96.601 46.336 97.113 46.144L98.521 45.792C98.9263 45.6853 99.2143 45.4933 99.385 45.216C99.577 44.9387 99.641 44.5227 99.577 43.968L97.753 27.808C97.5397 25.9947 97.0917 24.6507 96.409 23.776C95.7263 22.88 94.713 22.432 93.369 22.432C92.5157 22.432 91.6303 22.656 90.713 23.104C89.7957 23.552 88.825 24.224 87.801 25.12L86.585 26.176ZM125.512 19.36V44.096C125.512 44.6293 125.586 45.024 125.736 45.28C125.906 45.5147 126.162 45.6853 126.504 45.792L127.88 46.144C128.392 46.3147 128.648 46.6133 128.648 47.04C128.648 47.68 128.242 48 127.432 48H114.856C114.472 48 114.173 47.9253 113.96 47.776C113.768 47.6053 113.672 47.3707 113.672 47.072C113.672 46.8587 113.736 46.6773 113.864 46.528C114.013 46.3573 114.237 46.2293 114.536 46.144L116.008 45.792C116.349 45.7067 116.594 45.536 116.744 45.28C116.914 45.024 117 44.64 117 44.128V23.936C117 23.5307 116.936 23.2427 116.808 23.072C116.68 22.9013 116.466 22.7947 116.168 22.752L114.344 22.656C114.066 22.6133 113.864 22.528 113.736 22.4C113.608 22.2507 113.544 22.0693 113.544 21.856C113.544 21.6 113.618 21.3973 113.768 21.248C113.938 21.0987 114.216 20.9493 114.6 20.8L121.736 18.496C122.312 18.2827 122.77 18.1333 123.112 18.048C123.453 17.9627 123.773 17.92 124.072 17.92C124.541 17.92 124.893 18.0587 125.128 18.336C125.384 18.592 125.512 18.9333 125.512 19.36ZM124.648 26.176L123.624 25.088L124.84 24.032C127.293 21.8133 129.405 20.224 131.176 19.264C132.968 18.2827 134.664 17.792 136.264 17.792C138.653 17.792 140.509 18.5813 141.832 20.16C143.154 21.7173 143.965 23.8933 144.264 26.688L146.28 43.968C146.344 44.544 146.45 44.9707 146.6 45.248C146.77 45.5253 147.037 45.7173 147.4 45.824L148.712 46.144C149.01 46.2293 149.224 46.3573 149.352 46.528C149.48 46.6773 149.544 46.8587 149.544 47.072C149.544 47.3707 149.448 47.6053 149.256 47.776C149.064 47.9253 148.765 48 148.36 48H135.624C134.813 48 134.408 47.68 134.408 47.04C134.408 46.6347 134.664 46.336 135.176 46.144L136.584 45.792C136.989 45.6853 137.277 45.4933 137.448 45.216C137.64 44.9387 137.704 44.5227 137.64 43.968L135.816 27.808C135.602 25.9947 135.154 24.6507 134.472 23.776C133.789 22.88 132.776 22.432 131.432 22.432C130.578 22.432 129.693 22.656 128.776 23.104C127.858 23.552 126.888 24.224 125.864 25.12L124.648 26.176ZM170.585 42.496L166.201 51.552L153.849 23.584C153.422 22.5813 152.964 21.8453 152.473 21.376C152.004 20.9067 151.364 20.576 150.553 20.384C150.212 20.2773 149.977 20.1493 149.849 20C149.721 19.8507 149.657 19.6587 149.657 19.424C149.657 19.1253 149.764 18.9013 149.977 18.752C150.19 18.5813 150.478 18.496 150.841 18.496H165.209C165.572 18.496 165.86 18.5813 166.073 18.752C166.286 18.9013 166.393 19.1253 166.393 19.424C166.393 19.68 166.318 19.8827 166.169 20.032C166.02 20.1813 165.774 20.2987 165.433 20.384L163.865 20.64C163.076 20.7893 162.606 21.1093 162.457 21.6C162.308 22.0693 162.457 22.8373 162.905 23.904L170.585 42.496ZM164.697 53.696L167.097 47.744L167.961 45.92L176.377 24.512C176.868 23.296 177.006 22.4213 176.793 21.888C176.601 21.3333 176.057 20.9493 175.161 20.736L173.689 20.416C173.348 20.3307 173.092 20.2133 172.921 20.064C172.772 19.8933 172.697 19.68 172.697 19.424C172.697 19.1467 172.804 18.9227 173.017 18.752C173.23 18.5813 173.518 18.496 173.881 18.496H182.489C182.873 18.496 183.172 18.5813 183.385 18.752C183.598 18.9227 183.705 19.1573 183.705 19.456C183.705 19.648 183.63 19.8293 183.481 20C183.353 20.1493 183.118 20.288 182.777 20.416C181.753 20.672 180.964 21.056 180.409 21.568C179.876 22.08 179.374 22.9333 178.905 24.128L167.289 53.408C166.265 55.9467 165.326 57.9413 164.473 59.392C163.62 60.864 162.692 61.8987 161.689 62.496C160.686 63.0933 159.417 63.392 157.881 63.392C155.705 63.392 153.977 62.7947 152.697 61.6C151.417 60.4053 150.777 58.944 150.777 57.216C150.777 55.9573 151.086 54.9653 151.705 54.24C152.345 53.536 153.166 53.184 154.169 53.184C155.129 53.184 155.876 53.4827 156.409 54.08C156.964 54.6773 157.401 55.488 157.721 56.512L158.105 57.76C158.297 58.464 158.564 59.0293 158.905 59.456C159.268 59.904 159.705 60.128 160.217 60.128C160.686 60.128 161.134 59.9253 161.561 59.52C161.988 59.136 162.446 58.4747 162.937 57.536C163.449 56.5973 164.036 55.3173 164.697 53.696ZM198.699 46.656C200.171 46.656 201.312 46.2827 202.123 45.536C202.955 44.7893 203.371 43.8293 203.371 42.656C203.371 41.888 203.2 41.1947 202.859 40.576C202.517 39.9573 201.888 39.392 200.971 38.88C200.053 38.368 198.752 37.888 197.067 37.44C194.059 36.6933 191.723 35.8187 190.059 34.816C188.395 33.8133 187.232 32.6613 186.571 31.36C185.909 30.0373 185.579 28.576 185.579 26.976C185.579 24.1173 186.571 21.8667 188.555 20.224C190.56 18.5813 193.376 17.76 197.003 17.76C198.389 17.76 199.52 17.888 200.395 18.144C201.269 18.3787 201.973 18.624 202.507 18.88C203.04 19.1147 203.467 19.232 203.787 19.232C204.171 19.232 204.533 19.1147 204.875 18.88C205.237 18.624 205.589 18.3787 205.931 18.144C206.272 17.888 206.613 17.76 206.955 17.76C207.189 17.76 207.403 17.8347 207.595 17.984C207.787 18.1333 207.947 18.4213 208.075 18.848L210.027 26.304C210.197 26.8373 210.251 27.2747 210.187 27.616C210.123 27.936 209.92 28.1707 209.579 28.32C209.237 28.4267 208.939 28.4267 208.683 28.32C208.448 28.192 208.213 27.9573 207.979 27.616C206.933 25.6747 205.845 24.1387 204.715 23.008C203.605 21.8773 202.443 21.0667 201.227 20.576C200.032 20.064 198.763 19.808 197.419 19.808C195.691 19.808 194.368 20.192 193.451 20.96C192.555 21.728 192.107 22.7627 192.107 24.064C192.107 24.8533 192.299 25.5787 192.683 26.24C193.088 26.88 193.813 27.4773 194.859 28.032C195.925 28.5653 197.451 29.0773 199.435 29.568C202.016 30.1867 204.064 30.9653 205.579 31.904C207.115 32.8427 208.213 33.9627 208.875 35.264C209.557 36.5653 209.899 38.0587 209.899 39.744C209.899 41.536 209.44 43.1147 208.523 44.48C207.627 45.824 206.379 46.8693 204.779 47.616C203.179 48.3627 201.344 48.736 199.275 48.736C197.952 48.736 196.864 48.5867 196.011 48.288C195.179 47.9893 194.485 47.7013 193.931 47.424C193.397 47.1253 192.949 46.976 192.587 46.976C192.245 46.976 191.893 47.1147 191.531 47.392C191.168 47.6693 190.805 47.9467 190.443 48.224C190.101 48.5227 189.771 48.672 189.451 48.672C189.216 48.672 189.003 48.576 188.811 48.384C188.64 48.2133 188.512 47.9147 188.427 47.488L187.115 40.704C187.008 40.0853 186.987 39.6267 187.051 39.328C187.136 39.0293 187.328 38.816 187.627 38.688C187.947 38.5387 188.224 38.5493 188.459 38.72C188.715 38.8693 188.981 39.1467 189.259 39.552C190.709 42.112 192.235 43.936 193.835 45.024C195.456 46.112 197.077 46.656 198.699 46.656ZM226.356 19.36V44.096C226.356 44.6293 226.441 45.024 226.612 45.28C226.783 45.536 227.039 45.7067 227.38 45.792L228.788 46.112C229.087 46.2187 229.3 46.3573 229.428 46.528C229.577 46.6773 229.652 46.8587 229.652 47.072C229.652 47.3707 229.556 47.6053 229.364 47.776C229.172 47.9253 228.863 48 228.436 48H215.732C215.327 48 215.028 47.9253 214.836 47.776C214.644 47.6053 214.548 47.3707 214.548 47.072C214.548 46.8587 214.612 46.6773 214.74 46.528C214.868 46.3573 215.081 46.2293 215.38 46.144L216.852 45.792C217.215 45.7067 217.471 45.536 217.62 45.28C217.791 45.024 217.876 44.64 217.876 44.128V23.936C217.876 23.5307 217.812 23.2427 217.684 23.072C217.556 22.9013 217.343 22.7947 217.044 22.752L215.22 22.656C214.921 22.6133 214.708 22.528 214.58 22.4C214.473 22.2507 214.42 22.0693 214.42 21.856C214.42 21.6 214.495 21.3973 214.644 21.248C214.793 21.0987 215.06 20.9493 215.444 20.8L222.58 18.496C223.177 18.2827 223.647 18.1333 223.988 18.048C224.329 17.9627 224.628 17.92 224.884 17.92C225.396 17.92 225.769 18.0587 226.004 18.336C226.239 18.592 226.356 18.9333 226.356 19.36ZM221.62 13.344C220.041 13.344 218.772 12.9067 217.812 12.032C216.852 11.136 216.372 9.99467 216.372 8.608C216.372 7.22133 216.852 6.09067 217.812 5.216C218.772 4.34133 220.041 3.904 221.62 3.904C223.199 3.904 224.479 4.352 225.46 5.248C226.441 6.12266 226.932 7.24266 226.932 8.608C226.932 9.99467 226.441 11.136 225.46 12.032C224.479 12.9067 223.199 13.344 221.62 13.344ZM255.192 43.264L255 43.104V6.464C255 6.08 254.936 5.80266 254.808 5.632C254.68 5.44 254.477 5.32266 254.2 5.28L252.344 5.216C252.067 5.152 251.864 5.056 251.736 4.928C251.629 4.77866 251.576 4.59733 251.576 4.384C251.576 4.128 251.651 3.92533 251.8 3.776C251.949 3.62666 252.216 3.488 252.6 3.36L259.736 1.024C260.312 0.810665 260.771 0.661331 261.112 0.575996C261.453 0.490664 261.784 0.447998 262.104 0.447998C262.573 0.447998 262.925 0.586665 263.16 0.863998C263.395 1.12 263.512 1.46133 263.512 1.888V44.096C263.512 44.6293 263.587 45.024 263.736 45.28C263.907 45.536 264.163 45.7067 264.504 45.792L265.912 46.112C266.232 46.2187 266.456 46.3573 266.584 46.528C266.733 46.6773 266.808 46.8587 266.808 47.072C266.808 47.3707 266.701 47.6053 266.488 47.776C266.296 47.9253 265.997 48 265.592 48H257.976C257.165 48 256.493 47.744 255.96 47.232C255.448 46.72 255.192 46.048 255.192 45.216V43.264ZM232.952 34.08C232.952 30.752 233.603 27.872 234.904 25.44C236.205 23.008 237.955 21.1307 240.152 19.808C242.371 18.464 244.845 17.792 247.576 17.792C249.965 17.792 252.024 18.3253 253.752 19.392C255.501 20.4373 256.931 21.9413 258.04 23.904L256.44 25.184C255.544 23.6267 254.488 22.4533 253.272 21.664C252.077 20.8747 250.744 20.48 249.272 20.48C247.843 20.48 246.552 20.9173 245.4 21.792C244.269 22.6667 243.373 24.0427 242.712 25.92C242.072 27.776 241.752 30.208 241.752 33.216C241.752 35.9467 242.051 38.208 242.648 40C243.267 41.7707 244.109 43.0933 245.176 43.968C246.264 44.8213 247.501 45.248 248.888 45.248C250.253 45.248 251.565 44.8427 252.824 44.032C254.083 43.2213 255.256 41.9627 256.344 40.256L257.4 41.536C255.757 43.8827 253.965 45.6747 252.024 46.912C250.104 48.128 247.971 48.736 245.624 48.736C243.192 48.736 241.016 48.128 239.096 46.912C237.197 45.6747 235.693 43.9573 234.584 41.76C233.496 39.5627 232.952 37.0027 232.952 34.08ZM298.173 29.952C298.173 30.7413 297.949 31.3493 297.501 31.776C297.053 32.2027 296.392 32.416 295.517 32.416H275.581V30.656H288.445C289.256 30.656 289.661 30.272 289.661 29.504C289.661 26.3253 289.149 23.9467 288.125 22.368C287.101 20.7893 285.778 20 284.157 20C282.877 20 281.757 20.4053 280.797 21.216C279.837 22.0053 279.08 23.1893 278.525 24.768C277.992 26.3467 277.725 28.288 277.725 30.592C277.725 34.816 278.674 37.984 280.573 40.096C282.472 42.208 284.978 43.264 288.093 43.264C290.098 43.264 291.826 42.8053 293.277 41.888C294.749 40.9707 295.762 39.6907 296.317 38.048C296.573 37.7493 296.776 37.5467 296.925 37.44C297.096 37.3333 297.256 37.28 297.405 37.28C297.64 37.28 297.81 37.3867 297.917 37.6C298.045 37.792 298.098 38.048 298.077 38.368C297.992 40.288 297.362 42.0373 296.189 43.616C295.037 45.1733 293.49 46.4213 291.549 47.36C289.608 48.2773 287.389 48.736 284.893 48.736C281.97 48.736 279.378 48.128 277.117 46.912C274.877 45.6747 273.117 43.9467 271.837 41.728C270.578 39.488 269.949 36.8747 269.949 33.888C269.949 30.7093 270.568 27.9147 271.805 25.504C273.042 23.0933 274.802 21.2053 277.085 19.84C279.389 18.4747 282.12 17.792 285.277 17.792C287.965 17.792 290.269 18.3147 292.189 19.36C294.109 20.4053 295.581 21.8453 296.605 23.68C297.65 25.4933 298.173 27.584 298.173 29.952Z" fill="#F8D914"/>
</svg>
