<svg width="9" height="15" viewBox="0 0 9 15" fill="none" xmlns="http://www.w3.org/2000/svg">
<path fill-rule="evenodd" clip-rule="evenodd" d="M4.54485 0.219266C5.39203 0.877074 8.26246 3.40864 8.31229 3.54817C8.34219 3.62791 8.3721 4.80399 8.3721 6.13953V8.5814L7.87375 9.07974L5.46179 9.06977C4.94289 9.06977 4.45257 9.06826 4.04345 9.06701C3.39958 9.06503 2.95683 9.06367 2.92027 9.06977C2.8206 9.06977 2.7907 9.43854 2.7907 10.5947C2.7907 11.9801 2.81063 12.1595 3.01993 12.5581C3.30897 13.1462 3.77741 13.4552 4.37542 13.4552C5.19269 13.4552 5.78073 12.887 5.92027 11.9601C6.04983 11.113 6.76744 10.7741 7.27575 11.3123C7.47508 11.5316 7.49502 11.6213 7.45515 12.1794C7.36545 13.2259 6.73754 14.1628 5.77076 14.701C5.29236 14.9701 5.14286 15 4.38538 15C3.70764 14.99 3.4485 14.9502 3.10963 14.7708C2.45183 14.4219 1.92359 13.8937 1.62458 13.2757C1.35548 12.7276 1.34551 12.6478 1.31561 10.8837C1.29568 9.88704 1.24585 9.06977 1.21595 9.0598C1.17608 9.0598 0.946842 9.04984 0.70764 9.0299C0 8.99003 0 8.99003 0 6.05982V3.47841L0.279068 3.21927C0.42857 3.07973 1.10631 2.49169 1.79402 1.91362C2.48173 1.33555 3.24917 0.667774 3.50831 0.428572C3.76744 0.189369 4.03654 0 4.11628 0C4.19601 0 4.38538 0.099664 4.54485 0.219266ZM2.17548 4.62103C2.19542 3.74395 2.23529 3.51471 2.39475 3.34528C2.61402 3.10608 2.93296 3.07618 3.21203 3.27551C3.38146 3.40508 3.41137 3.58448 3.45123 4.8702C3.51103 6.53465 3.57083 6.67418 4.24857 6.67418C4.92632 6.67418 4.98612 6.52468 5.02598 4.9001C5.05588 3.79378 5.09575 3.44495 5.21535 3.30541C5.42465 3.07618 5.87316 3.08614 6.08246 3.32535C6.24193 3.49478 6.2519 3.70408 6.222 5.09943C6.1921 6.51472 6.17216 6.71405 5.97283 7.02302C5.63396 7.57119 5.02598 7.86023 4.24857 7.86023C2.62399 7.85026 2.09575 7.02302 2.17548 4.62103Z" fill="#FFF"/>
</svg>
