<svg width="1920" height="1024" viewBox="0 0 1920 1024" fill="none" xmlns="http://www.w3.org/2000/svg">
<rect width="1920" height="1024" fill="#1D1D1D"/>
<path d="M838.867 332.016H831.414V369H801.32V232.945H839.008C847.633 232.945 854.336 235.547 859.117 240.75C863.945 245.906 866.359 253.078 866.359 262.266V300.867C866.359 310.102 863.898 317.602 858.977 323.367C854.102 329.133 847.398 332.016 838.867 332.016ZM831.977 306.773C834.273 306.773 835.422 305.109 835.422 301.781V263.18C835.422 259.805 834.273 258.117 831.977 258.117H831.414V306.773H831.977Z" fill="#FFF6E7"/>
<path d="M963.383 231.609C974.633 231.609 982.977 234.375 988.414 239.906C993.852 245.438 996.57 254.297 996.57 266.484V335.602C996.57 347.789 993.852 356.625 988.414 362.109C982.977 367.547 974.633 370.266 963.383 370.266C952.555 370.266 944.375 367.523 938.844 362.039C933.359 356.508 930.617 347.695 930.617 335.602V266.484C930.617 254.391 933.359 245.555 938.844 239.977C944.375 234.398 952.555 231.609 963.383 231.609ZM965.562 343.969V258.117C965.562 256.195 964.883 255.234 963.523 255.234C962.211 255.234 961.555 256.195 961.555 258.117V343.969C961.555 345.797 962.164 346.711 963.383 346.711C964.836 346.711 965.562 345.797 965.562 343.969Z" fill="#FFF6E7"/>
<path d="M1129.98 369H1098.62L1096.02 323.086H1093.41V369H1063.32V232.945H1100.16C1109.77 232.945 1116.85 235.219 1121.4 239.766C1125.95 244.312 1128.22 250.758 1128.22 259.102V292.078C1128.22 299.109 1126.6 304.781 1123.37 309.094L1129.98 369ZM1093.41 300.727H1094.12C1096.32 300.727 1097.42 298.523 1097.42 294.117V263.32C1097.42 259.852 1096.32 258.117 1094.12 258.117H1093.41V300.727Z" fill="#FFF6E7"/>
<path d="M888.883 407.945V432.977H875.805V544H845.852V433.117H832.422V407.945H888.883Z" fill="#FFF6E7"/>
<path d="M986.102 432.977L966.414 433.117V462.648L984.836 462.508V486.273H966.414V544H936.32V407.945L986.102 407.805V432.977Z" fill="#FFF6E7"/>
<path d="M1065.38 406.609C1076.63 406.609 1084.98 409.375 1090.41 414.906C1095.85 420.438 1098.57 429.297 1098.57 441.484V510.602C1098.57 522.789 1095.85 531.625 1090.41 537.109C1084.98 542.547 1076.63 545.266 1065.38 545.266C1054.55 545.266 1046.38 542.523 1040.84 537.039C1035.36 531.508 1032.62 522.695 1032.62 510.602V441.484C1032.62 429.391 1035.36 420.555 1040.84 414.977C1046.38 409.398 1054.55 406.609 1065.38 406.609ZM1067.56 518.969V433.117C1067.56 431.195 1066.88 430.234 1065.52 430.234C1064.21 430.234 1063.55 431.195 1063.55 433.117V518.969C1063.55 520.797 1064.16 521.711 1065.38 521.711C1066.84 521.711 1067.56 520.797 1067.56 518.969Z" fill="#FFF6E7"/>
<path d="M803.414 630.828H821.133V656H773.32V519.945H803.414V630.828Z" fill="#FFF6E7"/>
<path d="M890.32 588.945H920.414V725H890.32V588.945Z" fill="#FFF6E7"/>
<path d="M1019.38 587.609C1030.63 587.609 1038.98 590.375 1044.41 595.906C1049.85 601.438 1052.57 610.297 1052.57 622.484V691.602C1052.57 703.789 1049.85 712.625 1044.41 718.109C1038.98 723.547 1030.63 726.266 1019.38 726.266C1008.55 726.266 1000.38 723.523 994.844 718.039C989.359 712.508 986.617 703.695 986.617 691.602V622.484C986.617 610.391 989.359 601.555 994.844 595.977C1000.38 590.398 1008.55 587.609 1019.38 587.609ZM1021.56 699.969V614.117C1021.56 612.195 1020.88 611.234 1019.52 611.234C1018.21 611.234 1017.55 612.195 1017.55 614.117V699.969C1017.55 701.797 1018.16 702.711 1019.38 702.711C1020.84 702.711 1021.56 701.797 1021.56 699.969Z" fill="#FFF6E7"/>
<path d="M1145.13 693.43V725H1117.15V693.43H1145.13Z" fill="#FFF6E7"/>
<circle cx="960" cy="125" r="15" fill="#FFF6E7"/>
<path d="M871.76 852L866.32 837.88H869.68L873.82 849.3H872.44L876.64 837.88H879.96L874.46 852H871.76ZM881.618 852V837.88H884.758V852H881.618ZM890.937 852V838.08H894.077V852H890.937ZM886.517 840.62V837.88H898.497V840.62H886.517ZM903.222 852V838.08H906.362V852H903.222ZM898.802 840.62V837.88H910.782V840.62H898.802ZM918.534 852.24C917.467 852.24 916.48 852.053 915.574 851.68C914.68 851.307 913.894 850.787 913.214 850.12C912.534 849.453 912.007 848.68 911.634 847.8C911.26 846.907 911.074 845.947 911.074 844.92C911.074 843.88 911.26 842.92 911.634 842.04C912.007 841.16 912.527 840.393 913.194 839.74C913.86 839.073 914.64 838.56 915.534 838.2C916.44 837.827 917.427 837.64 918.494 837.64C919.547 837.64 920.52 837.827 921.414 838.2C922.32 838.56 923.107 839.073 923.774 839.74C924.454 840.393 924.98 841.167 925.354 842.06C925.727 842.94 925.914 843.9 925.914 844.94C925.914 845.967 925.727 846.927 925.354 847.82C924.98 848.7 924.46 849.473 923.794 850.14C923.127 850.793 922.34 851.307 921.434 851.68C920.54 852.053 919.574 852.24 918.534 852.24ZM918.494 849.38C919.334 849.38 920.067 849.193 920.694 848.82C921.334 848.447 921.827 847.927 922.174 847.26C922.52 846.58 922.694 845.8 922.694 844.92C922.694 844.253 922.594 843.653 922.394 843.12C922.194 842.573 921.907 842.107 921.534 841.72C921.16 841.32 920.714 841.02 920.194 840.82C919.687 840.607 919.12 840.5 918.494 840.5C917.654 840.5 916.914 840.687 916.274 841.06C915.647 841.42 915.16 841.933 914.814 842.6C914.467 843.253 914.294 844.027 914.294 844.92C914.294 845.587 914.394 846.193 914.594 846.74C914.794 847.287 915.074 847.76 915.434 848.16C915.807 848.547 916.254 848.847 916.774 849.06C917.294 849.273 917.867 849.38 918.494 849.38ZM930.307 846.18V843.86H933.287C933.914 843.86 934.394 843.7 934.727 843.38C935.074 843.06 935.247 842.627 935.247 842.08C935.247 841.573 935.08 841.153 934.747 840.82C934.414 840.487 933.934 840.32 933.307 840.32H930.307V837.88H933.667C934.6 837.88 935.42 838.06 936.127 838.42C936.834 838.767 937.387 839.253 937.787 839.88C938.187 840.507 938.387 841.227 938.387 842.04C938.387 842.867 938.187 843.593 937.787 844.22C937.387 844.833 936.827 845.313 936.107 845.66C935.387 846.007 934.54 846.18 933.567 846.18H930.307ZM927.907 852V837.88H931.047V852H927.907ZM935.587 852L931.187 845.92L934.067 845.14L939.307 852H935.587ZM940.68 852V837.88H943.82V852H940.68ZM953.28 852.24C952.213 852.24 951.226 852.053 950.32 851.68C949.426 851.307 948.64 850.787 947.96 850.12C947.28 849.453 946.753 848.68 946.38 847.8C946.006 846.907 945.82 845.947 945.82 844.92C945.82 843.88 946.006 842.92 946.38 842.04C946.753 841.16 947.273 840.393 947.94 839.74C948.606 839.073 949.386 838.56 950.28 838.2C951.186 837.827 952.173 837.64 953.24 837.64C954.293 837.64 955.266 837.827 956.16 838.2C957.066 838.56 957.853 839.073 958.52 839.74C959.2 840.393 959.726 841.167 960.1 842.06C960.473 842.94 960.66 843.9 960.66 844.94C960.66 845.967 960.473 846.927 960.1 847.82C959.726 848.7 959.206 849.473 958.54 850.14C957.873 850.793 957.086 851.307 956.18 851.68C955.286 852.053 954.32 852.24 953.28 852.24ZM953.24 849.38C954.08 849.38 954.813 849.193 955.44 848.82C956.08 848.447 956.573 847.927 956.92 847.26C957.266 846.58 957.44 845.8 957.44 844.92C957.44 844.253 957.34 843.653 957.14 843.12C956.94 842.573 956.653 842.107 956.28 841.72C955.906 841.32 955.46 841.02 954.94 840.82C954.433 840.607 953.866 840.5 953.24 840.5C952.4 840.5 951.66 840.687 951.02 841.06C950.393 841.42 949.906 841.933 949.56 842.6C949.213 843.253 949.04 844.027 949.04 844.92C949.04 845.587 949.14 846.193 949.34 846.74C949.54 847.287 949.82 847.76 950.18 848.16C950.553 848.547 951 848.847 951.52 849.06C952.04 849.273 952.613 849.38 953.24 849.38ZM968.862 852V849.56H972.182C972.795 849.56 973.275 849.38 973.622 849.02C973.968 848.66 974.142 848.22 974.142 847.7C974.142 847.34 974.062 847.02 973.902 846.74C973.742 846.46 973.515 846.24 973.222 846.08C972.942 845.92 972.595 845.84 972.182 845.84H968.862V843.46H971.922C972.442 843.46 972.862 843.333 973.182 843.08C973.502 842.813 973.662 842.413 973.662 841.88C973.662 841.36 973.502 840.973 973.182 840.72C972.862 840.453 972.442 840.32 971.922 840.32H968.862V837.88H972.522C973.428 837.88 974.195 838.047 974.822 838.38C975.462 838.713 975.948 839.16 976.282 839.72C976.615 840.28 976.782 840.9 976.782 841.58C976.782 842.447 976.502 843.18 975.942 843.78C975.382 844.38 974.555 844.793 973.462 845.02L973.542 843.96C974.728 844.187 975.642 844.647 976.282 845.34C976.935 846.033 977.262 846.887 977.262 847.9C977.262 848.673 977.068 849.373 976.682 850C976.308 850.613 975.762 851.1 975.042 851.46C974.335 851.82 973.482 852 972.482 852H968.862ZM966.462 852V837.88H969.562V852H966.462ZM984.954 852.22C983.794 852.22 982.767 851.973 981.874 851.48C980.994 850.987 980.301 850.307 979.794 849.44C979.301 848.56 979.054 847.56 979.054 846.44V837.88H982.214V846.62C982.214 847.18 982.334 847.667 982.574 848.08C982.814 848.493 983.141 848.813 983.554 849.04C983.981 849.253 984.447 849.36 984.954 849.36C985.487 849.36 985.954 849.253 986.354 849.04C986.754 848.813 987.067 848.5 987.294 848.1C987.534 847.687 987.654 847.2 987.654 846.64V837.88H990.814V846.46C990.814 847.58 990.567 848.573 990.074 849.44C989.581 850.307 988.894 850.987 988.014 851.48C987.134 851.973 986.114 852.22 984.954 852.22ZM997.401 852.22C996.241 852.22 995.241 852.033 994.401 851.66C993.574 851.273 992.814 850.693 992.121 849.92L994.161 847.9C994.614 848.42 995.114 848.827 995.661 849.12C996.221 849.4 996.867 849.54 997.601 849.54C998.267 849.54 998.781 849.42 999.141 849.18C999.514 848.94 999.701 848.607 999.701 848.18C999.701 847.793 999.581 847.48 999.341 847.24C999.101 847 998.781 846.793 998.381 846.62C997.994 846.447 997.561 846.28 997.081 846.12C996.614 845.96 996.147 845.78 995.681 845.58C995.214 845.367 994.781 845.107 994.381 844.8C993.994 844.48 993.681 844.087 993.441 843.62C993.201 843.14 993.081 842.54 993.081 841.82C993.081 840.953 993.287 840.207 993.701 839.58C994.127 838.953 994.714 838.48 995.461 838.16C996.207 837.827 997.067 837.66 998.041 837.66C999.027 837.66 999.927 837.833 1000.74 838.18C1001.57 838.527 1002.25 839 1002.78 839.6L1000.74 841.62C1000.31 841.18 999.881 840.853 999.441 840.64C999.014 840.427 998.527 840.32 997.981 840.32C997.434 840.32 997.001 840.427 996.681 840.64C996.361 840.84 996.201 841.133 996.201 841.52C996.201 841.88 996.321 842.173 996.561 842.4C996.801 842.613 997.114 842.8 997.501 842.96C997.901 843.12 998.334 843.28 998.801 843.44C999.281 843.6 999.754 843.787 1000.22 844C1000.69 844.213 1001.11 844.487 1001.5 844.82C1001.9 845.14 1002.22 845.553 1002.46 846.06C1002.7 846.553 1002.82 847.167 1002.82 847.9C1002.82 849.247 1002.34 850.307 1001.38 851.08C1000.42 851.84 999.094 852.22 997.401 852.22ZM1003.35 852L1008.95 837.88H1011.79L1017.33 852H1014.01L1009.77 840.28H1010.91L1006.61 852H1003.35ZM1006.53 849.44V846.88H1014.23V849.44H1006.53ZM1020.7 852V838.08H1023.84V852H1020.7ZM1016.28 840.62V837.88H1028.26V840.62H1016.28ZM1032.99 852V838.08H1036.13V852H1032.99ZM1028.57 840.62V837.88H1040.55V840.62H1028.57ZM1039.5 852L1045.1 837.88H1047.94L1053.48 852H1050.16L1045.92 840.28H1047.06L1042.76 852H1039.5ZM1042.68 849.44V846.88H1050.38V849.44H1042.68Z" fill="#FFF6E7"/>
<path d="M798.06 881.22C797.007 881.22 796.027 881.04 795.12 880.68C794.227 880.307 793.44 879.787 792.76 879.12C792.093 878.453 791.573 877.68 791.2 876.8C790.827 875.907 790.64 874.947 790.64 873.92C790.64 872.893 790.827 871.94 791.2 871.06C791.573 870.167 792.093 869.393 792.76 868.74C793.427 868.087 794.207 867.58 795.1 867.22C796.007 866.847 796.987 866.66 798.04 866.66C799.16 866.66 800.153 866.84 801.02 867.2C801.9 867.56 802.667 868.053 803.32 868.68L801.22 870.8C800.847 870.4 800.393 870.087 799.86 869.86C799.34 869.633 798.733 869.52 798.04 869.52C797.427 869.52 796.86 869.627 796.34 869.84C795.833 870.04 795.393 870.333 795.02 870.72C794.66 871.107 794.373 871.573 794.16 872.12C793.96 872.667 793.86 873.267 793.86 873.92C793.86 874.587 793.96 875.193 794.16 875.74C794.373 876.287 794.66 876.753 795.02 877.14C795.393 877.527 795.833 877.827 796.34 878.04C796.86 878.253 797.427 878.36 798.04 878.36C798.76 878.36 799.387 878.247 799.92 878.02C800.453 877.793 800.913 877.48 801.3 877.08L803.42 879.2C802.74 879.827 801.96 880.32 801.08 880.68C800.213 881.04 799.207 881.22 798.06 881.22ZM807.549 875.18V872.86H810.529C811.156 872.86 811.636 872.7 811.969 872.38C812.316 872.06 812.489 871.627 812.489 871.08C812.489 870.573 812.322 870.153 811.989 869.82C811.656 869.487 811.176 869.32 810.549 869.32H807.549V866.88H810.909C811.842 866.88 812.662 867.06 813.369 867.42C814.076 867.767 814.629 868.253 815.029 868.88C815.429 869.507 815.629 870.227 815.629 871.04C815.629 871.867 815.429 872.593 815.029 873.22C814.629 873.833 814.069 874.313 813.349 874.66C812.629 875.007 811.782 875.18 810.809 875.18H807.549ZM805.149 881V866.88H808.289V881H805.149ZM812.829 881L808.429 874.92L811.309 874.14L816.549 881H812.829ZM817.923 881V866.88H821.063V881H817.923ZM820.323 881V878.28H828.063V881H820.323ZM820.323 875.1V872.48H827.363V875.1H820.323ZM820.323 869.58V866.88H827.963V869.58H820.323ZM829.167 881L834.767 866.88H837.607L843.147 881H839.827L835.587 869.28H836.727L832.427 881H829.167ZM832.347 878.44V875.88H840.047V878.44H832.347ZM846.519 881V867.08H849.659V881H846.519ZM842.099 869.62V866.88H854.079V869.62H842.099ZM855.833 881V866.88H858.973V881H855.833ZM866.092 881L860.652 866.88H864.012L868.152 878.3H866.772L870.972 866.88H874.292L868.792 881H866.092ZM875.95 881V866.88H879.09V881H875.95ZM878.35 881V878.28H886.09V881H878.35ZM878.35 875.1V872.48H885.39V875.1H878.35ZM878.35 869.58V866.88H885.99V869.58H878.35ZM894.183 881V878.24H897.683C898.536 878.24 899.283 878.073 899.923 877.74C900.563 877.393 901.056 876.893 901.403 876.24C901.75 875.587 901.923 874.813 901.923 873.92C901.923 873.027 901.743 872.26 901.383 871.62C901.036 870.98 900.543 870.487 899.903 870.14C899.276 869.793 898.536 869.62 897.683 869.62H894.083V866.88H897.723C898.79 866.88 899.77 867.053 900.663 867.4C901.57 867.733 902.356 868.22 903.023 868.86C903.703 869.487 904.223 870.233 904.583 871.1C904.956 871.953 905.143 872.9 905.143 873.94C905.143 874.967 904.956 875.913 904.583 876.78C904.223 877.647 903.71 878.393 903.043 879.02C902.376 879.647 901.59 880.133 900.683 880.48C899.79 880.827 898.816 881 897.763 881H894.183ZM892.063 881V866.88H895.203V881H892.063ZM907.141 881V866.88H910.281V881H907.141ZM909.541 881V878.28H917.281V881H909.541ZM909.541 875.1V872.48H916.581V875.1H909.541ZM909.541 869.58V866.88H917.181V869.58H909.541ZM923.573 881L918.133 866.88H921.493L925.633 878.3H924.253L928.453 866.88H931.773L926.273 881H923.573ZM933.43 881V866.88H936.57V881H933.43ZM935.83 881V878.28H943.57V881H935.83ZM935.83 875.1V872.48H942.87V875.1H935.83ZM935.83 869.58V866.88H943.47V869.58H935.83ZM945.735 881V866.88H948.875V881H945.735ZM948.155 881V878.24H955.135V881H948.155ZM962.905 881.24C961.838 881.24 960.851 881.053 959.945 880.68C959.051 880.307 958.265 879.787 957.585 879.12C956.905 878.453 956.378 877.68 956.005 876.8C955.631 875.907 955.445 874.947 955.445 873.92C955.445 872.88 955.631 871.92 956.005 871.04C956.378 870.16 956.898 869.393 957.565 868.74C958.231 868.073 959.011 867.56 959.905 867.2C960.811 866.827 961.798 866.64 962.865 866.64C963.918 866.64 964.891 866.827 965.785 867.2C966.691 867.56 967.478 868.073 968.145 868.74C968.825 869.393 969.351 870.167 969.725 871.06C970.098 871.94 970.285 872.9 970.285 873.94C970.285 874.967 970.098 875.927 969.725 876.82C969.351 877.7 968.831 878.473 968.165 879.14C967.498 879.793 966.711 880.307 965.805 880.68C964.911 881.053 963.945 881.24 962.905 881.24ZM962.865 878.38C963.705 878.38 964.438 878.193 965.065 877.82C965.705 877.447 966.198 876.927 966.545 876.26C966.891 875.58 967.065 874.8 967.065 873.92C967.065 873.253 966.965 872.653 966.765 872.12C966.565 871.573 966.278 871.107 965.905 870.72C965.531 870.32 965.085 870.02 964.565 869.82C964.058 869.607 963.491 869.5 962.865 869.5C962.025 869.5 961.285 869.687 960.645 870.06C960.018 870.42 959.531 870.933 959.185 871.6C958.838 872.253 958.665 873.027 958.665 873.92C958.665 874.587 958.765 875.193 958.965 875.74C959.165 876.287 959.445 876.76 959.805 877.16C960.178 877.547 960.625 877.847 961.145 878.06C961.665 878.273 962.238 878.38 962.865 878.38ZM974.678 875.86V873.42H977.718C978.105 873.42 978.458 873.34 978.778 873.18C979.098 873.02 979.351 872.787 979.538 872.48C979.725 872.173 979.818 871.8 979.818 871.36C979.818 870.933 979.725 870.567 979.538 870.26C979.351 869.953 979.098 869.72 978.778 869.56C978.458 869.4 978.105 869.32 977.718 869.32H974.678V866.88H978.178C979.071 866.88 979.878 867.06 980.598 867.42C981.318 867.78 981.885 868.3 982.298 868.98C982.725 869.647 982.938 870.44 982.938 871.36C982.938 872.28 982.725 873.08 982.298 873.76C981.885 874.427 981.318 874.947 980.598 875.32C979.878 875.68 979.071 875.86 978.178 875.86H974.678ZM972.278 881V866.88H975.418V881H972.278ZM984.7 881V866.88H987.84V881H984.7ZM987.1 881V878.28H994.84V881H987.1ZM987.1 875.1V872.48H994.14V875.1H987.1ZM987.1 869.58V866.88H994.74V869.58H987.1ZM999.405 875.18V872.86H1002.38C1003.01 872.86 1003.49 872.7 1003.82 872.38C1004.17 872.06 1004.34 871.627 1004.34 871.08C1004.34 870.573 1004.18 870.153 1003.84 869.82C1003.51 869.487 1003.03 869.32 1002.4 869.32H999.405V866.88H1002.76C1003.7 866.88 1004.52 867.06 1005.22 867.42C1005.93 867.767 1006.48 868.253 1006.88 868.88C1007.28 869.507 1007.48 870.227 1007.48 871.04C1007.48 871.867 1007.28 872.593 1006.88 873.22C1006.48 873.833 1005.92 874.313 1005.2 874.66C1004.48 875.007 1003.64 875.18 1002.66 875.18H999.405ZM997.005 881V866.88H1000.14V881H997.005ZM1004.68 881L1000.28 874.92L1003.16 874.14L1008.4 881H1004.68ZM1022.68 881L1016.2 873.88C1015.69 873.32 1015.33 872.793 1015.1 872.3C1014.87 871.793 1014.76 871.24 1014.76 870.64C1014.76 869.92 1014.94 869.26 1015.3 868.66C1015.67 868.047 1016.17 867.56 1016.8 867.2C1017.44 866.827 1018.18 866.64 1019.02 866.64C1019.67 866.64 1020.25 866.74 1020.76 866.94C1021.27 867.127 1021.71 867.373 1022.08 867.68C1022.45 867.973 1022.74 868.287 1022.94 868.62L1020.9 870.56C1020.63 870.2 1020.35 869.927 1020.06 869.74C1019.78 869.553 1019.45 869.46 1019.06 869.46C1018.66 869.46 1018.33 869.58 1018.06 869.82C1017.81 870.047 1017.68 870.333 1017.68 870.68C1017.68 870.973 1017.74 871.233 1017.86 871.46C1017.99 871.687 1018.18 871.94 1018.42 872.22L1026.26 881H1022.68ZM1018.04 881.22C1017.08 881.22 1016.24 881.033 1015.52 880.66C1014.81 880.273 1014.26 879.753 1013.86 879.1C1013.47 878.433 1013.28 877.693 1013.28 876.88C1013.28 876 1013.51 875.22 1013.98 874.54C1014.45 873.847 1015.15 873.287 1016.08 872.86L1017.38 874.84C1016.98 875.027 1016.68 875.273 1016.48 875.58C1016.28 875.887 1016.18 876.253 1016.18 876.68C1016.18 877.027 1016.25 877.333 1016.4 877.6C1016.56 877.853 1016.79 878.053 1017.08 878.2C1017.37 878.347 1017.72 878.42 1018.12 878.42C1018.57 878.42 1018.96 878.327 1019.28 878.14C1019.61 877.94 1019.89 877.667 1020.12 877.32L1022.18 879.44C1021.95 879.733 1021.63 880.02 1021.2 880.3C1020.79 880.567 1020.31 880.787 1019.76 880.96C1019.23 881.133 1018.65 881.22 1018.04 881.22ZM1032.86 881V878.24H1036.36C1037.21 878.24 1037.96 878.073 1038.6 877.74C1039.24 877.393 1039.73 876.893 1040.08 876.24C1040.42 875.587 1040.6 874.813 1040.6 873.92C1040.6 873.027 1040.42 872.26 1040.06 871.62C1039.71 870.98 1039.22 870.487 1038.58 870.14C1037.95 869.793 1037.21 869.62 1036.36 869.62H1032.76V866.88H1036.4C1037.46 866.88 1038.44 867.053 1039.34 867.4C1040.24 867.733 1041.03 868.22 1041.7 868.86C1042.38 869.487 1042.9 870.233 1043.26 871.1C1043.63 871.953 1043.82 872.9 1043.82 873.94C1043.82 874.967 1043.63 875.913 1043.26 876.78C1042.9 877.647 1042.38 878.393 1041.72 879.02C1041.05 879.647 1040.26 880.133 1039.36 880.48C1038.46 880.827 1037.49 881 1036.44 881H1032.86ZM1030.74 881V866.88H1033.88V881H1030.74ZM1045.81 881V866.88H1048.95V881H1045.81ZM1048.21 881V878.28H1055.95V881H1048.21ZM1048.21 875.1V872.48H1055.25V875.1H1048.21ZM1048.21 869.58V866.88H1055.85V869.58H1048.21ZM1062.01 881.22C1060.85 881.22 1059.85 881.033 1059.01 880.66C1058.18 880.273 1057.42 879.693 1056.73 878.92L1058.77 876.9C1059.22 877.42 1059.72 877.827 1060.27 878.12C1060.83 878.4 1061.47 878.54 1062.21 878.54C1062.87 878.54 1063.39 878.42 1063.75 878.18C1064.12 877.94 1064.31 877.607 1064.31 877.18C1064.31 876.793 1064.19 876.48 1063.95 876.24C1063.71 876 1063.39 875.793 1062.99 875.62C1062.6 875.447 1062.17 875.28 1061.69 875.12C1061.22 874.96 1060.75 874.78 1060.29 874.58C1059.82 874.367 1059.39 874.107 1058.99 873.8C1058.6 873.48 1058.29 873.087 1058.05 872.62C1057.81 872.14 1057.69 871.54 1057.69 870.82C1057.69 869.953 1057.89 869.207 1058.31 868.58C1058.73 867.953 1059.32 867.48 1060.07 867.16C1060.81 866.827 1061.67 866.66 1062.65 866.66C1063.63 866.66 1064.53 866.833 1065.35 867.18C1066.17 867.527 1066.85 868 1067.39 868.6L1065.35 870.62C1064.92 870.18 1064.49 869.853 1064.05 869.64C1063.62 869.427 1063.13 869.32 1062.59 869.32C1062.04 869.32 1061.61 869.427 1061.29 869.64C1060.97 869.84 1060.81 870.133 1060.81 870.52C1060.81 870.88 1060.93 871.173 1061.17 871.4C1061.41 871.613 1061.72 871.8 1062.11 871.96C1062.51 872.12 1062.94 872.28 1063.41 872.44C1063.89 872.6 1064.36 872.787 1064.83 873C1065.29 873.213 1065.72 873.487 1066.11 873.82C1066.51 874.14 1066.83 874.553 1067.07 875.06C1067.31 875.553 1067.43 876.167 1067.43 876.9C1067.43 878.247 1066.95 879.307 1065.99 880.08C1065.03 880.84 1063.7 881.22 1062.01 881.22ZM1069.43 881V866.88H1072.57V881H1069.43ZM1081.95 881.22C1080.92 881.22 1079.95 881.033 1079.05 880.66C1078.15 880.287 1077.37 879.773 1076.71 879.12C1076.04 878.453 1075.51 877.68 1075.13 876.8C1074.75 875.907 1074.57 874.947 1074.57 873.92C1074.57 872.893 1074.76 871.94 1075.15 871.06C1075.53 870.18 1076.07 869.413 1076.75 868.76C1077.44 868.093 1078.25 867.58 1079.17 867.22C1080.09 866.847 1081.07 866.66 1082.13 866.66C1083.34 866.66 1084.44 866.88 1085.43 867.32C1086.43 867.76 1087.25 868.367 1087.91 869.14L1085.77 871.28C1085.31 870.693 1084.78 870.253 1084.17 869.96C1083.55 869.667 1082.86 869.52 1082.09 869.52C1081.26 869.52 1080.52 869.707 1079.87 870.08C1079.21 870.44 1078.7 870.953 1078.33 871.62C1077.97 872.273 1077.79 873.04 1077.79 873.92C1077.79 874.8 1077.97 875.573 1078.33 876.24C1078.69 876.907 1079.18 877.427 1079.81 877.8C1080.43 878.173 1081.15 878.36 1081.97 878.36C1082.79 878.36 1083.49 878.207 1084.07 877.9C1084.65 877.58 1085.1 877.127 1085.41 876.54C1085.73 875.94 1085.89 875.213 1085.89 874.36L1087.97 875.76L1081.67 875.66V873H1089.09V873.46C1089.09 875.153 1088.78 876.58 1088.17 877.74C1087.57 878.887 1086.73 879.753 1085.65 880.34C1084.58 880.927 1083.35 881.22 1081.95 881.22ZM1090.99 881V866.88H1093.19L1094.13 869.7V881H1090.99ZM1100.73 881L1092.41 870.34L1093.19 866.88L1101.51 877.54L1100.73 881ZM1100.73 881L1099.89 878.18V866.88H1103.03V881H1100.73ZM1105.75 881V866.88H1108.89V881H1105.75ZM1108.15 881V878.28H1115.89V881H1108.15ZM1108.15 875.1V872.48H1115.19V875.1H1108.15ZM1108.15 869.58V866.88H1115.79V869.58H1108.15ZM1120.46 875.18V872.86H1123.44C1124.07 872.86 1124.55 872.7 1124.88 872.38C1125.23 872.06 1125.4 871.627 1125.4 871.08C1125.4 870.573 1125.23 870.153 1124.9 869.82C1124.57 869.487 1124.09 869.32 1123.46 869.32H1120.46V866.88H1123.82C1124.75 866.88 1125.57 867.06 1126.28 867.42C1126.99 867.767 1127.54 868.253 1127.94 868.88C1128.34 869.507 1128.54 870.227 1128.54 871.04C1128.54 871.867 1128.34 872.593 1127.94 873.22C1127.54 873.833 1126.98 874.313 1126.26 874.66C1125.54 875.007 1124.69 875.18 1123.72 875.18H1120.46ZM1118.06 881V866.88H1121.2V881H1118.06ZM1125.74 881L1121.34 874.92L1124.22 874.14L1129.46 881H1125.74Z" fill="#FFF6E7"/>
<path d="M932.62 910.2C931.567 910.2 930.6 910.013 929.72 909.64C928.84 909.267 928.073 908.747 927.42 908.08C926.78 907.413 926.28 906.64 925.92 905.76C925.573 904.867 925.4 903.913 925.4 902.9C925.4 901.873 925.573 900.92 925.92 900.04C926.267 899.16 926.76 898.393 927.4 897.74C928.04 897.087 928.8 896.573 929.68 896.2C930.56 895.827 931.527 895.64 932.58 895.64C933.647 895.64 934.62 895.827 935.5 896.2C936.393 896.573 937.16 897.087 937.8 897.74C938.44 898.393 938.933 899.16 939.28 900.04C939.64 900.92 939.82 901.88 939.82 902.92C939.82 903.933 939.64 904.887 939.28 905.78C938.933 906.66 938.44 907.433 937.8 908.1C937.16 908.767 936.4 909.287 935.52 909.66C934.64 910.02 933.673 910.2 932.62 910.2ZM932.58 909.12C933.793 909.12 934.853 908.847 935.76 908.3C936.68 907.753 937.4 907.007 937.92 906.06C938.44 905.113 938.7 904.053 938.7 902.88C938.7 901.733 938.44 900.693 937.92 899.76C937.413 898.827 936.7 898.087 935.78 897.54C934.86 896.993 933.793 896.72 932.58 896.72C931.38 896.72 930.32 896.993 929.4 897.54C928.493 898.073 927.787 898.807 927.28 899.74C926.773 900.673 926.52 901.72 926.52 902.88C926.52 904.053 926.773 905.113 927.28 906.06C927.8 907.007 928.513 907.753 929.42 908.3C930.34 908.847 931.393 909.12 932.58 909.12ZM932.86 907C932.047 907 931.307 906.827 930.64 906.48C929.987 906.12 929.467 905.633 929.08 905.02C928.693 904.407 928.5 903.707 928.5 902.92C928.5 902.133 928.693 901.433 929.08 900.82C929.467 900.207 929.993 899.72 930.66 899.36C931.327 899 932.073 898.82 932.9 898.82C933.513 898.82 934.073 898.927 934.58 899.14C935.087 899.34 935.54 899.64 935.94 900.04L934.22 901.78C934.06 901.607 933.873 901.48 933.66 901.4C933.447 901.307 933.193 901.26 932.9 901.26C932.593 901.26 932.313 901.333 932.06 901.48C931.807 901.613 931.607 901.807 931.46 902.06C931.327 902.3 931.26 902.58 931.26 902.9C931.26 903.233 931.333 903.527 931.48 903.78C931.627 904.02 931.827 904.213 932.08 904.36C932.333 904.493 932.607 904.56 932.9 904.56C933.207 904.56 933.467 904.513 933.68 904.42C933.907 904.313 934.1 904.167 934.26 903.98L936 905.72C935.56 906.16 935.08 906.487 934.56 906.7C934.04 906.9 933.473 907 932.86 907ZM946.2 908.24L951.62 902.64C951.953 902.307 952.22 902 952.42 901.72C952.62 901.44 952.766 901.18 952.86 900.94C952.953 900.687 953 900.433 953 900.18C953 899.633 952.82 899.207 952.46 898.9C952.113 898.58 951.653 898.42 951.08 898.42C950.52 898.42 950.013 898.573 949.56 898.88C949.12 899.173 948.693 899.66 948.28 900.34L946.18 898.52C946.74 897.573 947.453 896.86 948.32 896.38C949.186 895.9 950.18 895.66 951.3 895.66C952.273 895.66 953.113 895.84 953.82 896.2C954.54 896.56 955.093 897.073 955.48 897.74C955.88 898.407 956.08 899.187 956.08 900.08C956.08 900.64 956.006 901.16 955.86 901.64C955.713 902.107 955.473 902.573 955.14 903.04C954.82 903.493 954.386 903.993 953.84 904.54L950.08 908.28L946.2 908.24ZM946.2 910V908.24L948.86 907.32H956.36V910H946.2ZM964.289 910.22C963.155 910.22 962.129 909.913 961.209 909.3C960.289 908.687 959.562 907.833 959.029 906.74C958.509 905.633 958.249 904.36 958.249 902.92C958.249 901.467 958.509 900.2 959.029 899.12C959.549 898.027 960.262 897.18 961.169 896.58C962.075 895.967 963.102 895.66 964.249 895.66C965.409 895.66 966.442 895.967 967.349 896.58C968.255 897.18 968.969 898.027 969.489 899.12C970.022 900.213 970.289 901.487 970.289 902.94C970.289 904.393 970.022 905.667 969.489 906.76C968.969 907.853 968.255 908.707 967.349 909.32C966.455 909.92 965.435 910.22 964.289 910.22ZM964.269 907.44C964.855 907.44 965.362 907.273 965.789 906.94C966.215 906.593 966.542 906.087 966.769 905.42C967.009 904.74 967.129 903.913 967.129 902.94C967.129 901.953 967.009 901.127 966.769 900.46C966.542 899.793 966.215 899.293 965.789 898.96C965.362 898.613 964.849 898.44 964.249 898.44C963.675 898.44 963.169 898.607 962.729 898.94C962.302 899.273 961.975 899.773 961.749 900.44C961.522 901.107 961.409 901.933 961.409 902.92C961.409 903.907 961.522 904.733 961.749 905.4C961.975 906.067 962.302 906.573 962.729 906.92C963.169 907.267 963.682 907.44 964.269 907.44ZM972.009 908.24L977.429 902.64C977.762 902.307 978.029 902 978.229 901.72C978.429 901.44 978.576 901.18 978.669 900.94C978.762 900.687 978.809 900.433 978.809 900.18C978.809 899.633 978.629 899.207 978.269 898.9C977.922 898.58 977.462 898.42 976.889 898.42C976.329 898.42 975.822 898.573 975.369 898.88C974.929 899.173 974.502 899.66 974.089 900.34L971.989 898.52C972.549 897.573 973.262 896.86 974.129 896.38C974.996 895.9 975.989 895.66 977.109 895.66C978.082 895.66 978.922 895.84 979.629 896.2C980.349 896.56 980.902 897.073 981.289 897.74C981.689 898.407 981.889 899.187 981.889 900.08C981.889 900.64 981.816 901.16 981.669 901.64C981.522 902.107 981.282 902.573 980.949 903.04C980.629 903.493 980.196 903.993 979.649 904.54L975.889 908.28L972.009 908.24ZM972.009 910V908.24L974.669 907.32H982.169V910H972.009ZM988.478 910.22C987.505 910.22 986.611 910.053 985.798 909.72C984.985 909.373 984.298 908.88 983.738 908.24L985.758 906.22C986.011 906.593 986.378 906.9 986.858 907.14C987.351 907.367 987.871 907.48 988.418 907.48C988.911 907.48 989.338 907.393 989.698 907.22C990.058 907.047 990.338 906.8 990.538 906.48C990.751 906.16 990.858 905.78 990.858 905.34C990.858 904.9 990.751 904.527 990.538 904.22C990.338 903.9 990.038 903.653 989.638 903.48C989.251 903.307 988.785 903.22 988.238 903.22C987.985 903.22 987.718 903.24 987.438 903.28C987.171 903.307 986.945 903.353 986.758 903.42L988.138 901.68C988.511 901.573 988.865 901.487 989.198 901.42C989.545 901.34 989.865 901.3 990.158 901.3C990.878 901.3 991.525 901.473 992.098 901.82C992.671 902.153 993.125 902.633 993.458 903.26C993.805 903.873 993.978 904.607 993.978 905.46C993.978 906.393 993.745 907.22 993.278 907.94C992.825 908.66 992.185 909.22 991.358 909.62C990.545 910.02 989.585 910.22 988.478 910.22ZM986.758 903.42V901.68L990.198 897.64L993.718 897.62L990.138 901.7L986.758 903.42ZM984.618 898.54V895.88H993.718V897.62L991.258 898.54H984.618Z" fill="#FFF6E7"/>
</svg>
