<svg width="1920" height="1080" viewBox="0 0 1920 1080" fill="none" xmlns="http://www.w3.org/2000/svg">
<rect width="1920" height="1080" fill="#68424C"/>
<line x1="962" y1="416" x2="962" y2="664" stroke="#FFF" stroke-width="4" stroke-linecap="round"/>
<path d="M1449.07 516.19C1449.07 516.19 1433.36 516.448 1417.69 512.271C1402.03 508.093 1397.13 507.201 1387.27 510.176C1377.42 513.151 1367.73 513.093 1367.73 513.093" stroke="#E38EA6" stroke-width="55" stroke-linecap="round"/>
<path d="M1486.6 597.363C1490.26 597.363 1493.18 595.055 1493.18 590.879C1493.18 586.484 1490.26 584.176 1486.6 584.176C1482.84 584.176 1479.92 586.484 1479.92 590.879C1479.92 595.055 1482.84 597.363 1486.6 597.363Z" fill="#E38EA6"/>
<path d="M1259.31 523.055C1259.31 524.154 1259.99 525.451 1261.36 526.945C1262.78 528.44 1263.48 529.385 1263.48 529.78V530.374C1263.48 530.989 1263.15 531.297 1262.49 531.297H1245.18C1244.47 531.297 1244.12 531.011 1244.12 530.44C1243.99 529.824 1243.99 529.341 1244.12 528.989C1244.25 528.725 1244.7 528.242 1245.45 527.538C1246.24 526.791 1246.93 526.022 1247.5 525.231C1248.12 524.44 1248.41 523.67 1248.36 522.923V511.055C1248.36 509.868 1248.14 508.967 1247.7 508.352C1247.26 507.736 1246.64 507.275 1245.84 506.967C1245.05 506.615 1244.59 506.374 1244.45 506.242C1244.05 505.934 1243.86 505.495 1243.86 504.923C1243.81 504.352 1244.03 503.912 1244.52 503.604C1245.8 502.857 1247.64 502.132 1250.02 501.429C1252.45 500.681 1254.38 500.308 1255.79 500.308C1257.07 500.308 1257.98 500.813 1258.51 501.824C1259.04 502.791 1259.31 504.615 1259.31 507.297V523.055ZM1253.21 486.791C1255.15 486.791 1256.79 487.319 1258.11 488.374C1259.48 489.429 1260.17 490.703 1260.17 492.198C1260.17 493.692 1259.48 494.989 1258.11 496.088C1256.74 497.143 1255.11 497.67 1253.21 497.67C1251.3 497.67 1249.67 497.143 1248.3 496.088C1246.93 494.989 1246.24 493.692 1246.24 492.198C1246.24 490.703 1246.93 489.429 1248.3 488.374C1249.67 487.319 1251.3 486.791 1253.21 486.791Z" fill="#FFF"/>
<path d="M1265.66 504.132C1265 504.132 1264.66 503.824 1264.66 503.209V502.22C1264.66 501.604 1265 501.297 1265.66 501.297C1267.16 501.297 1268.49 500.945 1269.64 500.242C1270.79 499.495 1271.67 498.593 1272.29 497.538C1272.95 496.484 1273.55 495.429 1274.08 494.374C1274.61 493.275 1275.18 492.352 1275.8 491.604C1276.47 490.857 1277.17 490.462 1277.93 490.418H1278.06C1279.34 490.418 1279.98 491.714 1279.98 494.308C1279.98 494.484 1279.96 495.385 1279.91 497.011C1279.91 498.593 1279.91 500.022 1279.91 501.297H1285.48C1286.06 501.297 1286.35 501.604 1286.35 502.22V503.209C1286.35 503.824 1286.06 504.132 1285.48 504.132H1279.78C1279.78 506.198 1279.76 508.989 1279.72 512.505C1279.67 516.022 1279.65 518.11 1279.65 518.769C1279.65 521.714 1280.42 523.187 1281.97 523.187C1282.68 523.187 1283.74 522.857 1285.15 522.198C1285.24 522.154 1285.37 522.132 1285.55 522.132C1285.9 522.132 1286.19 522.308 1286.41 522.659C1286.68 523.011 1286.74 523.363 1286.61 523.714C1286.21 525.604 1285.15 527.341 1283.43 528.923C1281.75 530.505 1279.69 531.297 1277.26 531.297C1275.05 531.297 1273.04 530.527 1271.23 528.989C1269.46 527.451 1268.58 525.473 1268.58 523.055C1268.58 521.912 1268.55 518.901 1268.51 514.022C1268.47 509.143 1268.44 505.846 1268.44 504.132H1265.66Z" fill="#FFF"/>
<path d="M1289.49 504.132C1288.83 504.132 1288.49 503.824 1288.49 503.209V502.22C1288.49 501.604 1288.83 501.297 1289.49 501.297C1290.99 501.297 1292.32 500.945 1293.47 500.242C1294.62 499.495 1295.5 498.593 1296.12 497.538C1296.78 496.484 1297.38 495.429 1297.91 494.374C1298.44 493.275 1299.01 492.352 1299.63 491.604C1300.3 490.857 1301 490.462 1301.76 490.418H1301.89C1303.17 490.418 1303.81 491.714 1303.81 494.308C1303.81 494.484 1303.79 495.385 1303.75 497.011C1303.75 498.593 1303.75 500.022 1303.75 501.297H1309.32C1309.89 501.297 1310.18 501.604 1310.18 502.22V503.209C1310.18 503.824 1309.89 504.132 1309.32 504.132H1303.61C1303.61 506.198 1303.59 508.989 1303.55 512.505C1303.5 516.022 1303.48 518.11 1303.48 518.769C1303.48 521.714 1304.25 523.187 1305.8 523.187C1306.51 523.187 1307.57 522.857 1308.98 522.198C1309.07 522.154 1309.2 522.132 1309.38 522.132C1309.74 522.132 1310.02 522.308 1310.24 522.659C1310.51 523.011 1310.58 523.363 1310.44 523.714C1310.04 525.604 1308.98 527.341 1307.26 528.923C1305.58 530.505 1303.52 531.297 1301.09 531.297C1298.88 531.297 1296.87 530.527 1295.06 528.989C1293.29 527.451 1292.41 525.473 1292.41 523.055C1292.41 521.912 1292.38 518.901 1292.34 514.022C1292.3 509.143 1292.27 505.846 1292.27 504.132H1289.49Z" fill="#FFF"/>
<path d="M1329.96 500.374C1335.09 500.374 1339.31 501.912 1342.63 504.989C1345.94 508.066 1347.6 511.846 1347.6 516.33C1347.6 520.901 1345.99 524.725 1342.76 527.802C1339.53 530.879 1335.27 532.418 1329.96 532.418C1324.7 532.418 1320.44 530.879 1317.16 527.802C1313.94 524.725 1312.32 520.901 1312.32 516.33C1312.32 511.846 1313.98 508.066 1317.3 504.989C1320.66 501.912 1324.88 500.374 1329.96 500.374ZM1333.01 529.582C1335 529.099 1336.22 527.473 1336.66 524.703C1337.15 521.934 1336.95 518.791 1336.06 515.275C1335.18 511.758 1334.03 508.923 1332.61 506.769C1331.24 504.571 1329.7 503.473 1327.97 503.473C1327.75 503.473 1327.46 503.516 1327.11 503.604C1325.12 504.088 1323.86 505.714 1323.33 508.484C1322.8 511.209 1322.96 514.352 1323.8 517.912C1324.5 521.385 1325.54 524.22 1326.91 526.418C1328.33 528.615 1329.96 529.714 1331.82 529.714C1332.35 529.714 1332.75 529.67 1333.01 529.582Z" fill="#FFF"/>
<path d="M1371.09 500.044C1371.18 500.044 1371.33 500.044 1371.55 500.044C1371.82 500 1372.02 499.978 1372.15 499.978C1374.8 499.978 1377.03 500.659 1378.84 502.022C1380.66 503.385 1381.54 505.165 1381.5 507.363C1381.5 508.769 1381.01 509.934 1380.04 510.857C1379.11 511.736 1377.96 512.176 1376.59 512.176C1375.04 512.176 1373.85 511.868 1373.01 511.253C1372.17 510.593 1371.75 509.758 1371.75 508.747C1371.75 507.912 1372.08 506.923 1372.74 505.78C1373.1 504.857 1373.08 504.044 1372.68 503.341C1372.28 502.637 1371.57 502.286 1370.56 502.286C1368.83 502.242 1367.48 503.187 1366.51 505.121C1365.58 507.055 1365.07 509.692 1364.99 513.033V523.055C1364.99 524.154 1365.67 525.451 1367.04 526.945C1368.46 528.44 1369.16 529.385 1369.16 529.78V530.374C1369.16 530.989 1368.83 531.297 1368.17 531.297H1350.86C1350.15 531.297 1349.8 531.011 1349.8 530.44C1349.67 529.824 1349.71 529.341 1349.93 528.989C1350.02 528.681 1350.44 528.198 1351.19 527.538C1351.95 526.835 1352.61 526.088 1353.18 525.297C1353.8 524.462 1354.09 523.67 1354.04 522.923V511.846C1354.04 510.703 1353.8 509.824 1353.32 509.209C1352.87 508.549 1352.28 508.044 1351.53 507.692C1350.77 507.341 1350.33 507.099 1350.2 506.967C1349.8 506.703 1349.6 506.308 1349.6 505.78C1349.6 505.253 1349.8 504.813 1350.2 504.462C1350.91 503.67 1352.7 502.813 1355.57 501.89C1358.44 500.923 1360.45 500.418 1361.6 500.374C1362.71 500.374 1363.62 501.582 1364.32 504C1365.87 501.714 1368.12 500.396 1371.09 500.044Z" fill="#FFF"/>
<path d="M1399.63 523.055C1399.63 524.154 1400.32 525.451 1401.69 526.945C1403.1 528.44 1403.81 529.385 1403.81 529.78V530.374C1403.81 530.989 1403.48 531.297 1402.82 531.297H1385.51C1384.8 531.297 1384.45 531.011 1384.45 530.44C1384.31 529.824 1384.31 529.341 1384.45 528.989C1384.58 528.725 1385.02 528.242 1385.77 527.538C1386.57 526.791 1387.25 526.022 1387.83 525.231C1388.45 524.44 1388.74 523.67 1388.69 522.923V511.055C1388.69 509.868 1388.47 508.967 1388.03 508.352C1387.59 507.736 1386.97 507.275 1386.17 506.967C1385.38 506.615 1384.91 506.374 1384.78 506.242C1384.38 505.934 1384.18 505.495 1384.18 504.923C1384.14 504.352 1384.36 503.912 1384.85 503.604C1386.13 502.857 1387.96 502.132 1390.35 501.429C1392.78 500.681 1394.7 500.308 1396.12 500.308C1397.4 500.308 1398.31 500.813 1398.84 501.824C1399.37 502.791 1399.63 504.615 1399.63 507.297V523.055ZM1393.53 486.791C1395.48 486.791 1397.11 487.319 1398.44 488.374C1399.81 489.429 1400.49 490.703 1400.49 492.198C1400.49 493.692 1399.81 494.989 1398.44 496.088C1397.07 497.143 1395.43 497.67 1393.53 497.67C1391.63 497.67 1390 497.143 1388.62 496.088C1387.25 494.989 1386.57 493.692 1386.57 492.198C1386.57 490.703 1387.25 489.429 1388.62 488.374C1390 487.319 1391.63 486.791 1393.53 486.791Z" fill="#FFF"/>
<path d="M1423.28 500.374C1428.4 500.374 1432.63 501.912 1435.94 504.989C1439.26 508.066 1440.91 511.846 1440.91 516.33C1440.91 520.901 1439.3 524.725 1436.07 527.802C1432.85 530.879 1428.58 532.418 1423.28 532.418C1418.02 532.418 1413.75 530.879 1410.48 527.802C1407.25 524.725 1405.64 520.901 1405.64 516.33C1405.64 511.846 1407.3 508.066 1410.61 504.989C1413.97 501.912 1418.19 500.374 1423.28 500.374ZM1426.33 529.582C1428.32 529.099 1429.53 527.473 1429.97 524.703C1430.46 521.934 1430.26 518.791 1429.38 515.275C1428.49 511.758 1427.34 508.923 1425.93 506.769C1424.56 504.571 1423.01 503.473 1421.29 503.473C1421.07 503.473 1420.78 503.516 1420.42 503.604C1418.44 504.088 1417.18 505.714 1416.64 508.484C1416.11 511.209 1416.27 514.352 1417.11 517.912C1417.82 521.385 1418.86 524.22 1420.23 526.418C1421.64 528.615 1423.28 529.714 1425.13 529.714C1425.66 529.714 1426.06 529.67 1426.33 529.582Z" fill="#FFF"/>
<path d="M1247.83 481.086V481.707C1247.83 482.327 1246.87 483.491 1244.95 485.197C1243.02 486.904 1241.72 488.533 1241.05 490.084L1229.11 525.301C1228.64 527.317 1228.67 528.739 1229.19 529.567C1229.61 530.343 1229.42 530.963 1228.64 531.429C1226.67 532.308 1224.53 532.747 1222.25 532.747C1221.57 532.747 1221.05 532.721 1220.69 532.67H1220.76C1219.36 532.618 1218.06 532.23 1216.86 531.506C1215.67 530.782 1214.63 529.8 1213.74 528.559C1212.91 527.266 1212.26 526.231 1211.79 525.456C1211.38 524.628 1210.91 523.594 1210.39 522.353C1209.71 520.802 1208.54 517.363 1206.88 512.036C1205.27 506.71 1203.78 501.771 1202.43 497.22C1201.08 492.618 1200.4 490.239 1200.4 490.084C1199.88 488.791 1199.02 487.576 1197.83 486.438C1196.68 485.301 1195.67 484.37 1194.79 483.646C1193.9 482.922 1193.46 482.275 1193.46 481.707V481.086C1193.46 480.362 1193.82 480 1194.55 480L1216.24 480.078C1217.07 480.078 1217.49 480.388 1217.49 481.008C1217.64 481.732 1217.59 482.301 1217.33 482.715C1217.23 482.973 1216.84 483.491 1216.16 484.266C1215.54 485.042 1215.07 485.869 1214.76 486.749C1214.5 487.628 1214.52 488.584 1214.84 489.619L1214.99 490.006C1218.48 506.865 1221.08 517.104 1222.79 520.724C1223.21 521.448 1223.78 521.81 1224.51 521.81C1225.34 521.81 1225.89 521.396 1226.15 520.569L1236.37 489.696C1236.63 488.197 1236.65 487.136 1236.44 486.516C1236.24 485.895 1235.79 485.171 1235.12 484.344C1234.49 483.516 1234.13 482.973 1234.03 482.715C1233.92 482.508 1233.84 482.275 1233.79 482.017C1233.79 481.707 1233.79 481.474 1233.79 481.319L1233.87 481.008C1233.87 480.388 1234.29 480.078 1235.12 480.078L1246.66 480C1247.44 480 1247.83 480.362 1247.83 481.086Z" fill="#FFF"/>
<path d="M1267.42 588.026V589.912C1267.42 590.141 1267.27 590.398 1266.98 590.684C1266.75 590.912 1266.44 591.026 1266.04 591.026C1263.62 591.026 1261.47 590.998 1259.57 590.941C1257.67 590.941 1256.47 590.941 1255.95 590.941C1254.23 590.941 1252.7 590.284 1251.38 588.969C1250.12 587.598 1249.17 585.941 1248.54 583.998C1246.81 589.198 1242.93 591.798 1236.9 591.798C1233.16 591.798 1229.83 590.684 1226.9 588.455C1223.97 586.226 1222.1 582.769 1221.3 578.084C1221.01 576.426 1220.87 571.541 1220.87 563.426C1220.81 562.341 1220.52 561.312 1220 560.341C1219.54 559.369 1219.08 558.655 1218.62 558.198C1218.16 557.684 1217.59 557.112 1216.9 556.484C1216.21 555.855 1215.81 555.484 1215.69 555.369C1215.23 554.912 1215 554.341 1215 553.655C1215 552.969 1215.26 552.455 1215.78 552.112C1217.85 550.969 1222.04 550.398 1228.37 550.398C1231.12 550.398 1232.93 550.941 1233.8 552.026C1234.72 553.112 1235.15 555.512 1235.09 559.226V577.998C1235.26 579.941 1235.87 581.655 1236.9 583.141C1237.99 584.569 1239.46 585.255 1241.3 585.198C1242.62 585.141 1243.74 584.684 1244.66 583.826C1245.63 582.969 1246.32 581.855 1246.73 580.484C1247.13 579.112 1247.42 577.826 1247.59 576.626C1247.76 575.369 1247.85 574.084 1247.85 572.769L1248.02 564.026C1248.02 563.055 1247.88 562.169 1247.59 561.369C1247.36 560.512 1247.01 559.769 1246.55 559.141C1246.09 558.512 1245.66 557.998 1245.26 557.598C1244.92 557.141 1244.46 556.684 1243.88 556.226C1243.36 555.769 1243.05 555.484 1242.93 555.369C1242.47 554.912 1242.22 554.341 1242.16 553.655C1242.16 552.969 1242.45 552.455 1243.02 552.112C1244.97 550.969 1249.14 550.398 1255.52 550.398C1258.34 550.398 1260.17 550.941 1261.04 552.026C1261.96 553.055 1262.39 555.455 1262.33 559.226L1261.9 579.969C1261.84 580.998 1262.21 582.055 1263.02 583.141C1263.82 584.169 1264.71 585.169 1265.69 586.141C1266.67 587.055 1267.24 587.684 1267.42 588.026Z" fill="#FFF"/>
<path d="M1303.56 567.798C1304.53 568.312 1305.17 568.684 1305.45 568.912C1305.8 569.084 1306.52 569.569 1307.61 570.369C1308.7 571.169 1309.5 571.912 1310.02 572.598C1310.54 573.284 1311.03 574.226 1311.49 575.426C1312 576.569 1312.23 577.798 1312.18 579.112C1312.12 581.912 1311.06 584.284 1308.99 586.226C1306.92 588.169 1304.36 589.569 1301.32 590.426C1298.27 591.284 1294.88 591.741 1291.14 591.798C1285.51 591.855 1280.91 590.941 1277.35 589.055C1273.79 587.169 1271.83 585.112 1271.49 582.884C1271.26 580.998 1271.63 579.369 1272.61 577.998C1273.59 576.626 1274.99 575.712 1276.83 575.255C1277.52 575.141 1278.04 575.084 1278.38 575.084C1280.11 575.084 1281.78 575.512 1283.38 576.369C1284.99 577.169 1285.86 578.026 1285.97 578.941C1286.09 579.512 1285.77 580.255 1285.02 581.169C1284.28 582.084 1283.82 582.912 1283.64 583.655C1283.18 585.312 1283.67 586.655 1285.11 587.684C1286.55 588.712 1288.41 589.226 1290.71 589.226C1293.01 589.226 1294.79 588.712 1296.06 587.684C1297.38 586.598 1297.98 585.255 1297.87 583.655C1297.81 582.226 1297 580.855 1295.45 579.541C1293.9 578.226 1292.32 577.169 1290.71 576.369C1290.42 576.255 1289.85 575.998 1288.99 575.598C1288.18 575.141 1287.21 574.626 1286.06 574.055C1284.97 573.426 1284.16 572.969 1283.64 572.684C1276.46 569.084 1273.07 564.941 1273.47 560.255C1273.87 557.055 1275.86 554.484 1279.42 552.541C1283.04 550.541 1287.35 549.541 1292.35 549.541H1293.99C1298.99 549.826 1302.72 550.769 1305.19 552.369C1307.72 553.969 1309.04 555.769 1309.16 557.769C1309.27 558.912 1308.87 559.941 1307.95 560.855C1307.09 561.712 1305.86 562.169 1304.25 562.226C1303.96 562.284 1303.53 562.312 1302.95 562.312C1301.4 562.312 1299.96 561.969 1298.64 561.284C1297.38 560.598 1296.66 559.798 1296.49 558.884C1296.49 558.369 1296.86 557.826 1297.61 557.255C1298.36 556.684 1298.76 556.112 1298.82 555.541C1298.87 555.198 1298.76 554.826 1298.47 554.426C1298.18 553.969 1297.58 553.541 1296.66 553.141C1295.8 552.741 1294.71 552.512 1293.38 552.455C1291.66 552.455 1290.08 552.769 1288.64 553.398C1287.21 553.969 1286.49 554.998 1286.49 556.484C1286.55 557.169 1286.92 557.884 1287.61 558.626C1288.3 559.312 1288.9 559.798 1289.42 560.084C1289.94 560.369 1290.74 560.798 1291.83 561.369C1292.06 561.484 1292.98 561.998 1294.59 562.912C1296.26 563.769 1297.92 564.655 1299.59 565.569C1301.32 566.484 1302.64 567.226 1303.56 567.798Z" fill="#FFF"/>
<path d="M1358.2 585.455C1359.98 586.941 1359.87 588.284 1357.86 589.484C1355.9 590.455 1353.46 590.941 1350.53 590.941C1345.36 590.255 1342.08 586.512 1340.7 579.712C1340.7 579.655 1340.67 579.484 1340.62 579.198C1340.27 577.655 1339.95 576.426 1339.67 575.512C1339.38 574.541 1338.81 573.512 1337.94 572.426C1337.08 571.284 1336.02 570.684 1334.75 570.626H1334.41C1332.74 570.626 1331.45 571.369 1330.53 572.855C1329.61 574.284 1329.27 576.169 1329.5 578.512C1329.73 580.684 1330.67 582.341 1332.34 583.484C1334.06 584.626 1336.05 585.198 1338.29 585.198C1338.35 585.141 1338.46 585.112 1338.63 585.112C1338.75 585.112 1338.98 585.198 1339.32 585.369C1339.44 585.541 1339.49 585.826 1339.49 586.226C1338.86 587.369 1337.66 588.426 1335.87 589.398C1334.09 590.312 1331.88 590.769 1329.24 590.769C1325.5 590.769 1322.2 589.798 1319.32 587.855C1316.51 585.855 1315.01 582.969 1314.84 579.198C1314.73 575.369 1316.19 572.369 1319.24 570.198C1322.34 568.026 1325.82 566.855 1329.67 566.684C1329.84 566.684 1330.07 566.684 1330.36 566.684C1330.64 566.626 1330.87 566.598 1331.05 566.598C1334.55 566.598 1337.28 567.255 1339.24 568.569C1339.18 568.341 1339.09 567.941 1338.98 567.369C1338.92 566.741 1338.86 566.284 1338.81 565.998C1338 560.512 1337.05 556.941 1335.96 555.284C1334.87 553.684 1333.55 552.884 1332 552.884C1329.18 552.884 1328.26 554.141 1329.24 556.655C1330.04 558.255 1330.44 559.512 1330.44 560.426C1330.44 561.626 1329.81 562.626 1328.55 563.426C1327.28 564.226 1325.82 564.626 1324.15 564.626C1322.48 564.626 1321.02 564.112 1319.75 563.084C1318.49 561.998 1317.86 560.626 1317.86 558.969C1317.86 556.284 1319.27 554.169 1322.08 552.626C1324.9 551.084 1328.35 550.312 1332.43 550.312C1333.52 550.312 1334.32 550.341 1334.84 550.398C1344.78 550.969 1350.64 555.598 1352.43 564.284C1352.43 564.626 1353.26 569.284 1354.93 578.255C1355.67 581.626 1356.76 584.026 1358.2 585.455Z" fill="#FFF"/>
<path d="M1362.94 555.284C1362.08 555.284 1361.65 554.884 1361.65 554.084V552.798C1361.65 551.998 1362.08 551.598 1362.94 551.598C1364.9 551.598 1366.62 551.141 1368.11 550.226C1369.61 549.255 1370.76 548.084 1371.56 546.712C1372.42 545.341 1373.2 543.969 1373.89 542.598C1374.58 541.169 1375.33 539.969 1376.13 538.998C1376.99 538.026 1377.91 537.512 1378.89 537.455H1379.06C1380.73 537.455 1381.56 539.141 1381.56 542.512C1381.56 542.741 1381.53 543.912 1381.48 546.026C1381.48 548.084 1381.48 549.941 1381.48 551.598H1388.72C1389.46 551.598 1389.84 551.998 1389.84 552.798V554.084C1389.84 554.884 1389.46 555.284 1388.72 555.284H1381.3C1381.3 557.969 1381.27 561.598 1381.22 566.169C1381.16 570.741 1381.13 573.455 1381.13 574.312C1381.13 578.141 1382.14 580.055 1384.15 580.055C1385.07 580.055 1386.45 579.626 1388.29 578.769C1388.4 578.712 1388.57 578.684 1388.8 578.684C1389.26 578.684 1389.64 578.912 1389.92 579.369C1390.27 579.826 1390.35 580.284 1390.18 580.741C1389.66 583.198 1388.29 585.455 1386.04 587.512C1383.86 589.569 1381.19 590.598 1378.03 590.598C1375.15 590.598 1372.54 589.598 1370.18 587.598C1367.88 585.598 1366.73 583.026 1366.73 579.884C1366.73 578.398 1366.71 574.484 1366.65 568.141C1366.59 561.798 1366.56 557.512 1366.56 555.284H1362.94Z" fill="#FFF"/>
<path d="M1393.92 555.284C1393.06 555.284 1392.63 554.884 1392.63 554.084V552.798C1392.63 551.998 1393.06 551.598 1393.92 551.598C1395.87 551.598 1397.6 551.141 1399.09 550.226C1400.59 549.255 1401.74 548.084 1402.54 546.712C1403.4 545.341 1404.18 543.969 1404.87 542.598C1405.56 541.169 1406.31 539.969 1407.11 538.998C1407.97 538.026 1408.89 537.512 1409.87 537.455H1410.04C1411.71 537.455 1412.54 539.141 1412.54 542.512C1412.54 542.741 1412.51 543.912 1412.45 546.026C1412.45 548.084 1412.45 549.941 1412.45 551.598H1419.7C1420.44 551.598 1420.82 551.998 1420.82 552.798V554.084C1420.82 554.884 1420.44 555.284 1419.7 555.284H1412.28C1412.28 557.969 1412.25 561.598 1412.2 566.169C1412.14 570.741 1412.11 573.455 1412.11 574.312C1412.11 578.141 1413.12 580.055 1415.13 580.055C1416.05 580.055 1417.43 579.626 1419.26 578.769C1419.38 578.712 1419.55 578.684 1419.78 578.684C1420.24 578.684 1420.62 578.912 1420.9 579.369C1421.25 579.826 1421.33 580.284 1421.16 580.741C1420.64 583.198 1419.26 585.455 1417.02 587.512C1414.84 589.569 1412.17 590.598 1409.01 590.598C1406.13 590.598 1403.52 589.598 1401.16 587.598C1398.86 585.598 1397.71 583.026 1397.71 579.884C1397.71 578.398 1397.69 574.484 1397.63 568.141C1397.57 561.798 1397.54 557.512 1397.54 555.284H1393.92Z" fill="#FFF"/>
<path d="M1469.49 585.455C1471.27 586.941 1471.16 588.284 1469.15 589.484C1467.19 590.455 1464.75 590.941 1461.82 590.941C1456.65 590.255 1453.37 586.512 1451.99 579.712C1451.99 579.655 1451.96 579.484 1451.91 579.198C1451.56 577.655 1451.24 576.426 1450.96 575.512C1450.67 574.541 1450.1 573.512 1449.23 572.426C1448.37 571.284 1447.31 570.684 1446.04 570.626H1445.7C1444.03 570.626 1442.74 571.369 1441.82 572.855C1440.9 574.284 1440.56 576.169 1440.79 578.512C1441.01 580.684 1441.96 582.341 1443.63 583.484C1445.35 584.626 1447.34 585.198 1449.58 585.198C1449.64 585.141 1449.75 585.112 1449.92 585.112C1450.04 585.112 1450.27 585.198 1450.61 585.369C1450.73 585.541 1450.78 585.826 1450.78 586.226C1450.15 587.369 1448.95 588.426 1447.16 589.398C1445.38 590.312 1443.17 590.769 1440.53 590.769C1436.79 590.769 1433.49 589.798 1430.61 587.855C1427.8 585.855 1426.3 582.969 1426.13 579.198C1426.02 575.369 1427.48 572.369 1430.53 570.198C1433.63 568.026 1437.11 566.855 1440.96 566.684C1441.13 566.684 1441.36 566.684 1441.65 566.684C1441.93 566.626 1442.16 566.598 1442.34 566.598C1445.84 566.598 1448.57 567.255 1450.53 568.569C1450.47 568.341 1450.38 567.941 1450.27 567.369C1450.21 566.741 1450.15 566.284 1450.1 565.998C1449.29 560.512 1448.34 556.941 1447.25 555.284C1446.16 553.684 1444.84 552.884 1443.28 552.884C1440.47 552.884 1439.55 554.141 1440.53 556.655C1441.33 558.255 1441.73 559.512 1441.73 560.426C1441.73 561.626 1441.1 562.626 1439.84 563.426C1438.57 564.226 1437.11 564.626 1435.44 564.626C1433.77 564.626 1432.31 564.112 1431.04 563.084C1429.78 561.998 1429.15 560.626 1429.15 558.969C1429.15 556.284 1430.56 554.169 1433.37 552.626C1436.19 551.084 1439.64 550.312 1443.72 550.312C1444.81 550.312 1445.61 550.341 1446.13 550.398C1456.07 550.969 1461.93 555.598 1463.72 564.284C1463.72 564.626 1464.55 569.284 1466.22 578.255C1466.96 581.626 1468.05 584.026 1469.49 585.455Z" fill="#FFF"/>
<path d="M1213.35 579.275C1213.42 585.456 1211.2 590.365 1206.71 594.001C1202.21 597.637 1196.28 599.636 1188.89 600H1188.99H1156.54C1156.22 600 1155.9 599.855 1155.58 599.564C1155.32 599.273 1155.19 598.946 1155.19 598.582C1154.94 597.564 1154.94 596.764 1155.19 596.182C1155.26 595.964 1156.32 594.655 1158.37 592.255C1160.42 589.783 1161.45 587.747 1161.45 586.147V540.007C1161.45 538.334 1160.42 536.298 1158.37 533.898C1156.38 531.499 1155.32 530.117 1155.19 529.753C1155.06 529.535 1155 529.244 1155 528.881C1155 528.444 1155.03 528.081 1155.1 527.79L1155.19 527.354C1155.19 526.554 1155.64 526.154 1156.54 526.154H1186.2C1192.55 526.154 1197.75 527.863 1201.8 531.281C1205.84 534.626 1207.9 538.807 1207.96 543.825C1207.96 547.606 1206.8 551.024 1204.49 554.078C1202.25 557.059 1199.1 559.241 1195.06 560.623C1200.64 561.568 1205.07 563.75 1208.34 567.167C1211.62 570.585 1213.29 574.621 1213.35 579.275ZM1192.75 541.207C1190.82 533.498 1187.71 529.644 1183.41 529.644C1179.94 529.644 1177.82 532.044 1177.05 536.844V542.734C1177.05 542.806 1177.08 542.916 1177.15 543.061V543.17C1178.49 553.205 1181.7 558.223 1186.78 558.223C1187.42 558.223 1188.19 558.077 1189.09 557.787C1191.27 556.987 1192.68 554.878 1193.32 551.46C1193.97 547.97 1193.77 544.552 1192.75 541.207ZM1187.16 595.201C1190.43 595.201 1193.16 593.71 1195.35 590.728C1197.53 587.747 1198.27 584.002 1197.56 579.493C1197.05 576.439 1196.05 574.003 1194.58 572.185C1193.16 570.367 1190.88 568.804 1187.74 567.495C1187.55 567.422 1186.9 567.167 1185.81 566.731C1184.79 566.295 1184.02 565.968 1183.5 565.749C1182.99 565.458 1182.28 565.059 1181.38 564.549C1180.55 564.04 1179.78 563.459 1179.07 562.804C1178.37 562.15 1177.72 561.423 1177.15 560.623V568.04C1177.28 572.985 1177.6 577.239 1178.11 580.802C1178.62 584.365 1179.2 587.056 1179.84 588.874C1180.48 590.619 1181.32 592.001 1182.35 593.019C1183.37 594.037 1184.18 594.655 1184.75 594.873C1185.4 595.019 1186.2 595.128 1187.16 595.201Z" fill="#FFF"/>
<path d="M699.299 542.652C699.695 542.652 700.069 542.537 700.396 542.362H697.082C697.844 542.552 698.59 542.644 699.276 542.652H699.299Z" fill="#FFF"/>
<path d="M700 475C664.159 475 635 504.159 635 540C635 575.841 664.159 605 700 605C735.841 605 765 575.841 765 540C765 504.159 735.849 475 700 475ZM645.781 516.982C647.93 511.938 650.772 507.252 654.178 503.039C656.029 503.024 658.109 502.544 658.109 502.544C658.109 502.544 656.936 501.911 655.572 501.378C657.088 499.641 658.688 497.98 660.387 496.433C661.096 497.675 661.866 498.704 661.866 498.704C661.866 498.704 661.995 496.905 661.835 495.176C664.974 492.501 668.388 490.139 672.037 488.158C675.192 486.947 678.818 486.071 680.815 486.718C681.318 488.265 682.11 492.456 678.567 497.98L677.15 500.212L679.557 501.302C679.618 501.332 685.226 503.923 687.314 509.393C685.699 510.879 681.836 513.774 676.114 513.569L673.363 513.5L673.79 516.22C673.828 516.479 674.681 522.285 670.11 527.222C667.847 526.552 662.742 524.502 661.066 519.329L660.128 516.464L657.622 518.14C655.648 519.458 650.056 522.354 645.957 521.47C645.812 520.243 645.713 518.636 645.789 516.975L645.781 516.982ZM643.678 557.25C653.058 559.17 661.134 563.003 667.748 568.679C666.711 569.235 665.683 569.822 664.654 570.439C659.008 566.629 652.585 563.894 645.469 562.225C644.806 560.603 644.204 558.942 643.686 557.25H643.678ZM670.643 559.94C668.54 559.94 666.567 560.526 665.066 561.555C664.014 560.862 662.94 560.199 661.827 559.574C664.288 558.248 667.397 557.494 670.643 557.494C675.984 557.494 680.868 559.589 683.108 562.614C681.539 563.018 679.961 563.483 678.399 564.016C677.241 561.616 674.247 559.94 670.643 559.94ZM674.521 565.471C673.569 565.86 672.624 566.271 671.679 566.713C670.757 565.867 669.812 565.052 668.83 564.275C669.393 564.115 670.011 564.024 670.643 564.024C672.418 564.024 673.896 564.702 674.521 565.471ZM670.643 553.41C665.629 553.41 660.966 554.873 657.614 557.448C656.311 556.854 654.97 556.313 653.606 555.81C658.003 552.709 664.121 550.918 670.643 550.918C680.525 550.918 689.234 555.033 692.571 560.991C690.826 561.143 689.082 561.38 687.337 561.692C684.777 556.732 678.239 553.41 670.643 553.41ZM650.193 571.384C649.301 569.974 648.463 568.519 647.694 567.026C652.463 568.42 656.867 570.355 660.86 572.847C659.885 573.502 658.917 574.188 657.957 574.904C655.511 573.532 652.913 572.359 650.193 571.391V571.384ZM697.851 598.859C695.421 598.767 693.028 598.531 690.682 598.158C692.975 597.358 695.375 596.71 697.851 596.238V598.866V598.859ZM697.851 590.401C697.783 591.27 697.783 591.857 697.783 592.101C692.716 593 688 594.592 683.695 596.588C682.179 596.154 680.693 595.659 679.23 595.11C684.662 592.009 690.918 589.457 697.851 588.352V590.401ZM697.851 584.237C697.768 584.237 697.676 584.237 697.585 584.253C688.807 585.586 681.051 589.06 674.59 593.129C673.302 592.512 672.045 591.834 670.811 591.125C678.117 586.005 687.261 581.601 697.851 580.618V584.237ZM697.851 576.527C685.577 577.586 675.146 582.866 667.054 588.801C665.843 587.979 664.669 587.102 663.519 586.196C671.268 580.047 683.306 572.976 697.851 572.725V576.527ZM697.851 568.641C685.142 568.847 672.312 573.891 660.578 583.316C660.494 583.377 660.426 583.445 660.342 583.506C659.298 582.554 658.307 581.563 657.332 580.535C659.725 578.599 662.49 576.58 665.591 574.645C665.652 574.607 665.713 574.569 665.774 574.531C674.171 569.342 684.99 564.869 697.387 564.846C697.547 564.846 697.699 564.824 697.851 564.785V568.641ZM697.851 560.823C697.699 560.785 697.547 560.763 697.387 560.763C697.257 560.763 697.135 560.763 697.006 560.763C693.638 552.488 683.078 546.819 670.651 546.819C662.125 546.819 654.124 549.6 648.951 554.301C646.878 553.722 644.737 553.242 642.535 552.854C641.774 549.448 641.301 545.935 641.164 542.339H697.851V560.823ZM697.63 537.783C696.35 537.348 694.872 536.282 694.872 533.638C694.872 529.47 697.859 528.152 698.75 527.847H741.182C744.611 527.733 749.708 525.356 749.708 519.253C749.708 512.723 744.138 510.643 741.19 510.46H704.252C703.802 510.452 699.886 510.216 699.886 505.058C699.886 499.9 703.01 499.366 703.787 499.252H727.109C728.161 499.336 728.702 499.892 728.702 500.906C728.702 501.538 728.572 501.888 728.45 502.01C728.336 502.125 728.092 502.155 728.062 502.155H707.368C706.103 502.147 705.082 503.168 705.082 504.433C705.082 505.698 706.103 506.719 707.368 506.719H727.795C728.367 506.75 730.096 506.704 731.529 505.386C732.321 504.654 733.266 503.29 733.266 500.906C733.266 496.502 729.677 494.772 727.262 494.688H703.436C700.625 494.94 695.299 497.424 695.299 505.058C695.299 513.073 701.676 514.971 704.183 515.032H740.938C741.586 515.085 745.114 515.55 745.114 519.26C745.114 522.773 742.036 523.23 741.03 523.283H698.118L697.851 523.352C695.23 523.992 690.27 526.971 690.27 533.646C690.27 535.268 690.605 536.64 691.154 537.79H641.149C641.309 533.493 641.918 529.31 642.955 525.287H642.977C648.158 527.573 654.46 525.051 657.812 523.306C661.667 530.377 670.018 531.939 670.407 532.007L671.519 532.205L672.35 531.436C677.378 526.803 678.346 521.257 678.43 518.072C686.727 517.325 691.444 511.725 691.665 511.466L692.411 510.559L692.114 509.424C690.59 503.633 686.285 500.067 683.619 498.353C687.802 490.178 684.754 484.235 684.609 483.96L684.312 483.404L684.106 483.275C689.165 481.857 694.484 481.08 699.985 481.08C731.727 481.08 757.663 506.315 758.836 537.775H697.63V537.783ZM741.205 542.354C731.97 545.501 721.288 550.957 712.739 560.397C708.892 564.648 706.034 568.725 703.909 572.458C703.398 572.55 702.911 572.71 702.423 572.908V542.347H741.205V542.354ZM707.825 598.371C706.05 598.607 704.244 598.767 702.423 598.844V592.779C702.918 592.611 703.444 592.52 703.985 592.543C705.143 592.596 706.202 593.091 706.987 593.944C707.772 594.798 708.168 595.903 708.115 597.053C708.092 597.51 707.985 597.945 707.833 598.364L707.825 598.371ZM707.795 590.683C706.705 589.975 705.448 589.556 704.114 589.502C703.581 589.48 703.048 589.518 702.537 589.601C702.712 588.26 703.063 586.409 703.749 584.169C703.932 584.154 704.114 584.131 704.297 584.138C705.455 584.192 706.514 584.687 707.299 585.54C708.076 586.394 708.48 587.499 708.427 588.649C708.396 589.381 708.16 590.066 707.795 590.676V590.683ZM708.488 582.531C707.421 581.738 706.156 581.274 704.815 581.144C705.433 579.567 706.233 577.807 707.254 575.894C707.68 576.123 708.092 576.405 708.435 576.786C709.936 578.424 709.913 580.9 708.488 582.538V582.531ZM708.77 573.243C709.821 571.521 711.048 569.708 712.488 567.826C714.248 566.34 716.892 566.485 718.461 568.199C719.239 569.052 719.642 570.157 719.589 571.308C719.559 572.009 719.345 572.664 719.002 573.258C717.821 572.367 716.412 571.849 714.903 571.788C712.93 571.704 711.048 572.382 709.6 573.715L709.76 573.891C709.448 573.647 709.113 573.433 708.77 573.243ZM711.437 575.719L711.665 575.963C712.518 575.186 713.623 574.782 714.774 574.835C715.932 574.889 716.991 575.384 717.776 576.237C718.561 577.091 718.957 578.195 718.903 579.346C718.858 580.405 718.416 581.388 717.684 582.142C716.534 581.312 715.17 580.832 713.722 580.771C713.318 580.755 712.922 580.771 712.526 580.824C712.793 579.079 712.435 577.258 711.437 575.712V575.719ZM711.078 597.853C711.109 597.64 711.147 597.419 711.155 597.198C711.216 595.796 710.88 594.447 710.21 593.259C711.863 592.527 713.867 592.87 715.155 594.272C715.772 594.95 716.122 595.773 716.229 596.619C714.538 597.106 712.823 597.518 711.078 597.853ZM717.22 590.12C716.884 590.341 716.564 590.577 716.267 590.851L716.511 591.11C716.458 591.163 716.412 591.224 716.359 591.278C714.888 590.188 713.098 589.708 711.337 589.861C711.406 589.51 711.452 589.16 711.467 588.794C711.528 587.407 711.2 586.066 710.545 584.885C711.383 584.146 712.458 583.765 713.578 583.818C714.736 583.872 715.795 584.367 716.58 585.22C717.837 586.592 718.02 588.55 717.22 590.112V590.12ZM719.17 595.697C719.018 594.965 718.759 594.249 718.378 593.579C718.766 593.221 719.117 592.824 719.414 592.398C720.039 592.101 720.724 591.941 721.441 591.979C722.599 592.032 723.658 592.527 724.443 593.381C724.488 593.434 724.519 593.487 724.565 593.541C722.812 594.348 721.014 595.072 719.178 595.704L719.17 595.697ZM725.845 590.539C724.633 589.563 723.155 589 721.578 588.923C721.288 588.908 720.999 588.923 720.717 588.939C720.732 588.786 720.755 588.626 720.763 588.474C720.823 587.057 720.481 585.693 719.795 584.489C720.603 583.857 721.593 583.521 722.637 583.567C723.795 583.62 724.854 584.116 725.639 584.969C726.424 585.822 726.82 586.927 726.767 588.078C726.728 588.984 726.401 589.83 725.852 590.531L725.845 590.539ZM727.254 581.54C727.079 581.655 726.904 581.776 726.736 581.906C725.586 581.075 724.214 580.588 722.759 580.527C722.439 580.512 722.119 580.527 721.806 580.557C721.875 580.207 721.921 579.856 721.936 579.498C721.989 578.226 721.723 576.984 721.166 575.872C722.896 574.82 725.189 575.102 726.607 576.649C727.384 577.502 727.787 578.607 727.734 579.757C727.704 580.39 727.528 580.992 727.247 581.54H727.254ZM727.65 573.532C726.142 572.473 724.321 572.047 722.553 572.252C722.591 571.993 722.622 571.727 722.637 571.46C722.698 570.028 722.355 568.648 721.654 567.437C723.414 566.073 725.959 566.248 727.49 567.917C728.946 569.509 728.968 571.902 727.658 573.532H727.65ZM728.984 591.262C729.464 590.333 729.746 589.297 729.799 588.222C729.86 586.889 729.555 585.594 728.946 584.443C729.121 584.245 729.288 584.032 729.441 583.818C731.109 583.034 733.159 583.361 734.47 584.794C735.033 585.411 735.392 586.158 735.529 586.965C733.456 588.542 731.269 589.975 728.991 591.262H728.984ZM736.573 582.599C735.003 580.969 732.847 580.215 730.736 580.367C730.751 580.207 730.774 580.055 730.782 579.895C730.828 578.828 730.645 577.792 730.264 576.832C732.024 575.369 734.652 575.521 736.214 577.228C737.601 578.744 737.693 580.976 736.58 582.599H736.573ZM739.46 583.712C740.946 581.022 740.649 577.571 738.462 575.171C736.603 573.136 733.852 572.39 731.338 572.969C732.062 570.561 731.551 567.841 729.73 565.86C727.071 562.949 722.606 562.675 719.597 565.159C718.477 564.344 717.174 563.894 715.848 563.787C715.94 563.681 716.031 563.582 716.122 563.475C719.536 559.703 723.361 556.618 727.3 554.088C728.016 557.616 729.7 563.102 733.571 567.666C737.433 572.214 743.498 573.875 747.727 574.477C745.297 577.837 742.531 580.931 739.46 583.704V583.712ZM749.67 571.635C746.005 571.277 739.582 570.043 735.902 565.7C732.054 561.159 730.614 555.429 730.104 552.397C741.464 545.897 753.259 543.703 758.844 542.994C758.318 553.501 755.019 563.277 749.678 571.635H749.67Z" fill="#FFF"/>
<path d="M744.047 556.153C745.639 556.153 746.935 554.858 746.935 553.265C746.935 551.673 745.639 550.377 744.047 550.377C742.455 550.377 741.159 551.673 741.159 553.265C741.159 554.858 742.455 556.153 744.047 556.153Z" fill="#FFF"/>
<path d="M658.147 505.454C658.978 508.35 662.003 510.018 664.898 509.18C667.793 508.35 669.462 505.325 668.624 502.429C667.793 499.534 664.768 497.865 661.873 498.704C658.978 499.534 657.309 502.559 658.147 505.454Z" fill="#FFF"/>
<path d="M666.788 515.755C669.302 515.161 664.89 509.18 664.89 509.18C664.89 509.18 664.273 516.35 666.788 515.755Z" fill="#FFF"/>
<path d="M675.291 507.443C676.182 505.02 668.761 505.393 668.761 505.393C668.761 505.393 674.399 509.866 675.291 507.443Z" fill="#FFF"/>
<path d="M672.411 495.511C670.841 493.462 667.184 499.93 667.184 499.93C667.184 499.93 673.98 497.561 672.411 495.511Z" fill="#FFF"/>
<path d="M655.26 513.226C657.302 514.803 659.694 508.014 659.694 508.014C659.694 508.014 653.218 511.649 655.26 513.226Z" fill="#FFF"/>
</svg>
