<svg width="1920" height="1080" viewBox="0 0 1920 1080" fill="none" xmlns="http://www.w3.org/2000/svg">
<path d="M0 0H1920V1080H0V0Z" fill="#FEF6FF"/>
<path d="M958.49 545.711C959.344 545.711 960.148 545.465 960.853 545.087H953.715C955.356 545.498 956.964 545.695 958.441 545.711H958.49Z" fill="#E38EA6"/>
<path d="M960 400C882.804 400 820 462.804 820 540C820 617.196 882.804 680 960 680C1037.2 680 1100 617.196 1100 540C1100 462.804 1037.21 400 960 400ZM843.221 490.423C847.849 479.559 853.97 469.467 861.306 460.392C865.294 460.359 869.774 459.325 869.774 459.325C869.774 459.325 867.247 457.963 864.309 456.814C867.575 453.072 871.021 449.495 874.681 446.163C876.207 448.838 877.864 451.054 877.864 451.054C877.864 451.054 878.143 447.181 877.799 443.456C884.56 437.695 891.912 432.608 899.773 428.341C906.567 425.732 914.378 423.845 918.678 425.24C919.761 428.571 921.468 437.597 913.837 449.495L910.784 454.303L915.97 456.65C916.101 456.716 928.18 462.295 932.676 474.078C929.197 477.278 920.877 483.514 908.552 483.071L902.628 482.923L903.547 488.782C903.629 489.34 905.467 501.845 895.621 512.479C890.747 511.035 879.751 506.621 876.141 495.478L874.123 489.307L868.724 492.918C864.473 495.757 852.428 501.993 843.599 500.089C843.287 497.447 843.074 493.984 843.238 490.407L843.221 490.423ZM838.692 577.154C858.893 581.289 876.289 589.544 890.533 601.77C888.301 602.968 886.086 604.232 883.871 605.561C871.71 597.356 857.876 591.464 842.548 587.87C841.121 584.375 839.824 580.797 838.708 577.154H838.692ZM896.769 582.947C892.24 582.947 887.99 584.211 884.757 586.426C882.492 584.933 880.178 583.505 877.782 582.159C883.083 579.304 889.778 577.679 896.769 577.679C908.273 577.679 918.793 582.192 923.617 588.707C920.237 589.577 916.84 590.578 913.476 591.727C910.981 586.557 904.532 582.947 896.769 582.947ZM905.122 594.861C903.071 595.698 901.036 596.584 899.001 597.536C897.016 595.714 894.981 593.959 892.864 592.285C894.078 591.94 895.407 591.743 896.769 591.743C900.593 591.743 903.777 593.204 905.122 594.861ZM896.769 568.883C885.971 568.883 875.928 572.034 868.707 577.581C865.901 576.301 863.013 575.135 860.075 574.052C869.544 567.373 882.722 563.517 896.769 563.517C918.054 563.517 936.812 572.378 944 585.212C940.241 585.54 936.483 586.049 932.725 586.721C927.211 576.038 913.131 568.883 896.769 568.883ZM852.723 607.596C850.803 604.56 848.998 601.425 847.34 598.209C857.613 601.212 867.099 605.38 875.698 610.747C873.597 612.158 871.513 613.635 869.446 615.178C864.178 612.224 858.582 609.696 852.723 607.612V607.596ZM955.372 666.773C950.137 666.576 944.984 666.067 939.93 665.263C944.869 663.54 950.039 662.145 955.372 661.128V666.789V666.773ZM955.372 648.557C955.224 650.428 955.224 651.691 955.224 652.217C944.311 654.153 934.153 657.583 924.881 661.883C921.615 660.947 918.415 659.88 915.264 658.699C926.965 652.02 940.438 646.522 955.372 644.143V648.557ZM955.372 635.281C955.192 635.281 954.995 635.281 954.798 635.314C935.893 638.185 919.187 645.669 905.27 654.432C902.497 653.103 899.789 651.642 897.13 650.116C912.868 639.088 932.561 629.603 955.372 627.486V635.281ZM955.372 618.673C928.934 620.954 906.468 632.327 889.04 645.111C886.431 643.338 883.903 641.451 881.425 639.498C898.115 626.255 924.044 611.026 955.372 610.484V618.673ZM955.372 601.688C927.999 602.131 900.363 612.995 875.091 633.295C874.91 633.426 874.763 633.574 874.582 633.705C872.334 631.654 870.2 629.521 868.1 627.305C873.253 623.137 879.21 618.788 885.889 614.62C886.02 614.538 886.152 614.456 886.283 614.373C904.368 603.198 927.671 593.565 954.371 593.515C954.716 593.515 955.044 593.466 955.372 593.384V601.688ZM955.372 584.851C955.044 584.768 954.716 584.719 954.371 584.719C954.092 584.719 953.83 584.719 953.551 584.719C946.297 566.897 923.552 554.688 896.786 554.688C878.422 554.688 861.191 560.678 850.048 570.803C845.584 569.556 840.973 568.522 836.23 567.685C834.589 560.349 833.572 552.784 833.276 545.038H955.372V584.851ZM954.896 535.224C952.139 534.289 948.956 531.992 948.956 526.297C948.956 517.32 955.389 514.481 957.309 513.825H1048.7C1056.08 513.579 1067.06 508.459 1067.06 495.314C1067.06 481.25 1055.07 476.769 1048.72 476.376H969.157C968.189 476.359 959.754 475.85 959.754 464.74C959.754 453.63 966.482 452.482 968.156 452.235H1018.39C1020.65 452.416 1021.82 453.614 1021.82 455.797C1021.82 457.159 1021.54 457.913 1021.28 458.176C1021.03 458.422 1020.51 458.488 1020.44 458.488H975.869C973.145 458.471 970.946 460.671 970.946 463.395C970.946 466.119 973.145 468.318 975.869 468.318H1019.87C1021.1 468.384 1024.82 468.285 1027.91 465.446C1029.61 463.871 1031.65 460.933 1031.65 455.797C1031.65 446.311 1023.92 442.586 1018.72 442.405H967.401C961.346 442.947 949.875 448.297 949.875 464.74C949.875 482.004 963.61 486.091 969.01 486.222H1048.17C1049.57 486.337 1057.17 487.338 1057.17 495.33C1057.17 502.895 1050.54 503.88 1048.37 503.995H955.947L955.372 504.143C949.727 505.521 939.044 511.938 939.044 526.313C939.044 529.809 939.766 532.763 940.947 535.241H833.243C833.588 525.985 834.901 516.976 837.133 508.311H837.182C848.341 513.234 861.913 507.802 869.134 504.044C877.438 519.273 895.424 522.637 896.261 522.785L898.657 523.212L900.445 521.554C911.277 511.577 913.361 499.63 913.541 492.77C931.412 491.162 941.571 479.1 942.047 478.542L943.655 476.589L943.015 474.144C939.733 461.672 930.461 453.991 924.717 450.299C933.726 432.69 927.162 419.89 926.85 419.299L926.21 418.101L925.767 417.822C936.664 414.77 948.119 413.096 959.967 413.096C1028.33 413.096 1084.2 467.448 1086.72 535.208H954.896V535.224ZM1048.75 545.071C1028.86 551.849 1005.85 563.599 987.439 583.932C979.151 593.089 972.997 601.868 968.419 609.91C967.319 610.107 966.269 610.451 965.219 610.878V545.055H1048.75V545.071ZM976.854 665.723C973.03 666.231 969.141 666.576 965.219 666.74V653.677C966.285 653.316 967.418 653.119 968.583 653.168C971.077 653.283 973.358 654.35 975.049 656.188C976.739 658.026 977.592 660.406 977.477 662.884C977.428 663.868 977.198 664.804 976.87 665.706L976.854 665.723ZM976.788 649.164C974.441 647.638 971.734 646.735 968.862 646.621C967.713 646.571 966.564 646.653 965.465 646.834C965.842 643.946 966.597 639.958 968.074 635.133C968.468 635.1 968.862 635.051 969.256 635.067C971.75 635.182 974.031 636.249 975.721 638.087C977.395 639.925 978.265 642.305 978.15 644.783C978.085 646.358 977.576 647.835 976.788 649.148V649.164ZM978.282 631.605C975.984 629.898 973.26 628.897 970.372 628.618C971.701 625.221 973.424 621.43 975.623 617.311C976.542 617.803 977.428 618.41 978.167 619.231C981.4 622.759 981.35 628.093 978.282 631.621V631.605ZM978.889 611.6C981.153 607.891 983.796 603.985 986.897 599.932C990.688 596.732 996.383 597.044 999.763 600.736C1001.44 602.574 1002.31 604.954 1002.19 607.432C1002.13 608.942 1001.67 610.353 1000.93 611.633C998.385 609.713 995.349 608.597 992.099 608.466C987.849 608.285 983.796 609.746 980.678 612.617L981.022 612.995C980.349 612.47 979.627 612.01 978.889 611.6ZM984.633 616.934L985.125 617.459C986.963 615.785 989.342 614.915 991.82 615.03C994.315 615.145 996.596 616.211 998.286 618.049C999.977 619.888 1000.83 622.267 1000.72 624.745C1000.62 627.026 999.665 629.143 998.089 630.768C995.611 628.979 992.674 627.945 989.556 627.814C988.686 627.781 987.833 627.814 986.979 627.929C987.554 624.171 986.782 620.248 984.633 616.917V616.934ZM983.861 664.607C983.927 664.147 984.009 663.671 984.025 663.195C984.157 660.176 983.435 657.271 981.99 654.711C985.552 653.136 989.868 653.874 992.641 656.894C993.97 658.354 994.725 660.127 994.955 661.948C991.312 662.998 987.619 663.885 983.861 664.607ZM997.088 647.95C996.366 648.426 995.677 648.934 995.037 649.525L995.562 650.083C995.447 650.198 995.349 650.329 995.234 650.444C992.067 648.098 988.21 647.064 984.419 647.392C984.567 646.637 984.665 645.882 984.698 645.094C984.829 642.108 984.124 639.219 982.712 636.676C984.518 635.084 986.832 634.263 989.244 634.378C991.738 634.493 994.019 635.56 995.71 637.398C998.418 640.352 998.811 644.569 997.088 647.933V647.95ZM1001.29 659.963C1000.96 658.387 1000.4 656.844 999.583 655.4C1000.42 654.629 1001.17 653.776 1001.81 652.857C1003.16 652.217 1004.64 651.872 1006.18 651.954C1008.67 652.069 1010.96 653.136 1012.65 654.974C1012.74 655.089 1012.81 655.203 1012.91 655.318C1009.13 657.058 1005.26 658.617 1001.31 659.979L1001.29 659.963ZM1015.67 648.852C1013.06 646.752 1009.87 645.537 1006.48 645.373C1005.85 645.341 1005.23 645.373 1004.62 645.406C1004.65 645.078 1004.7 644.733 1004.72 644.405C1004.85 641.353 1004.11 638.415 1002.64 635.822C1004.37 634.46 1006.51 633.738 1008.76 633.837C1011.25 633.951 1013.53 635.018 1015.22 636.856C1016.91 638.694 1017.77 641.074 1017.65 643.552C1017.57 645.505 1016.86 647.326 1015.68 648.836L1015.67 648.852ZM1018.7 629.471C1018.32 629.718 1017.95 629.98 1017.59 630.259C1015.11 628.47 1012.15 627.42 1009.02 627.289C1008.33 627.256 1007.64 627.289 1006.97 627.354C1007.12 626.599 1007.21 625.845 1007.25 625.073C1007.36 622.333 1006.79 619.658 1005.59 617.262C1009.31 614.997 1014.25 615.604 1017.31 618.936C1018.98 620.774 1019.85 623.153 1019.74 625.631C1019.67 626.993 1019.29 628.29 1018.68 629.471H1018.7ZM1019.55 612.224C1016.31 609.943 1012.38 609.024 1008.58 609.467C1008.66 608.909 1008.72 608.334 1008.76 607.76C1008.89 604.675 1008.15 601.704 1006.64 599.095C1010.43 596.158 1015.91 596.535 1019.21 600.129C1022.34 603.559 1022.39 608.712 1019.57 612.224H1019.55ZM1022.43 650.411C1023.46 648.409 1024.07 646.178 1024.18 643.864C1024.31 640.992 1023.66 638.202 1022.34 635.724C1022.72 635.297 1023.08 634.838 1023.41 634.378C1027.01 632.688 1031.42 633.394 1034.24 636.479C1035.46 637.808 1036.23 639.416 1036.52 641.156C1032.06 644.553 1027.35 647.638 1022.44 650.411H1022.43ZM1038.77 631.752C1035.39 628.241 1030.75 626.616 1026.2 626.944C1026.23 626.599 1026.28 626.271 1026.3 625.927C1026.4 623.629 1026 621.397 1025.18 619.33C1028.97 616.179 1034.64 616.507 1038 620.183C1040.99 623.449 1041.18 628.257 1038.79 631.752H1038.77ZM1044.99 634.148C1048.19 628.355 1047.55 620.921 1042.84 615.752C1038.84 611.37 1032.91 609.762 1027.5 611.009C1029.06 605.823 1027.96 599.965 1024.03 595.698C1018.31 589.429 1008.69 588.838 1002.21 594.188C999.796 592.432 996.99 591.464 994.134 591.234C994.331 591.005 994.528 590.791 994.725 590.562C1002.08 582.438 1010.32 575.792 1018.8 570.343C1020.34 577.942 1023.97 589.757 1032.31 599.587C1040.63 609.385 1053.69 612.962 1062.8 614.259C1057.56 621.496 1051.6 628.159 1044.99 634.132V634.148ZM1066.98 608.137C1059.09 607.366 1045.25 604.708 1037.33 595.353C1029.04 585.573 1025.94 573.232 1024.84 566.7C1049.31 552.702 1074.71 547.976 1086.74 546.449C1085.61 569.08 1078.5 590.135 1067 608.137H1066.98Z" fill="#E38EA6"/>
<path d="M1054.87 574.791C1058.3 574.791 1061.09 572.001 1061.09 568.571C1061.09 565.141 1058.3 562.351 1054.87 562.351C1051.44 562.351 1048.65 565.141 1048.65 568.571C1048.65 572.001 1051.44 574.791 1054.87 574.791Z" fill="#E38EA6"/>
<path d="M869.856 465.594C871.645 471.83 878.16 475.424 884.396 473.619C890.632 471.83 894.226 465.315 892.421 459.079C890.632 452.843 884.117 449.249 877.881 451.054C871.645 452.843 868.051 459.358 869.856 465.594Z" fill="#E38EA6"/>
<path d="M888.466 487.781C893.881 486.501 884.379 473.619 884.379 473.619C884.379 473.619 883.05 489.061 888.466 487.781Z" fill="#E38EA6"/>
<path d="M906.78 469.877C908.7 464.658 892.716 465.462 892.716 465.462C892.716 465.462 904.86 475.096 906.78 469.877Z" fill="#E38EA6"/>
<path d="M900.577 444.178C897.196 439.763 889.319 453.696 889.319 453.696C889.319 453.696 903.957 448.592 900.577 444.178Z" fill="#E38EA6"/>
<path d="M863.636 482.333C868.034 485.73 873.187 471.108 873.187 471.108C873.187 471.108 859.238 478.936 863.636 482.333Z" fill="#E38EA6"/>
</svg>
