<svg width="15" height="15" viewBox="0 0 15 15" fill="none" xmlns="http://www.w3.org/2000/svg">
<path d="M7.41912 7.80595C7.46484 7.80595 7.50791 7.79276 7.54572 7.77254H7.16329C7.2512 7.79452 7.33736 7.80507 7.41648 7.80595H7.41912Z" fill="#F8F4EC"/>
<path d="M7.5 0C3.36449 0 0 3.36449 0 7.5C0 11.6355 3.36449 15 7.5 15C11.6355 15 15 11.6355 15 7.5C15 3.36449 11.6364 0 7.5 0ZM1.24399 4.8441C1.49191 4.2621 1.81983 3.72143 2.21281 3.23526C2.42644 3.2335 2.66645 3.17812 2.66645 3.17812C2.66645 3.17812 2.53106 3.10515 2.3737 3.04361C2.54865 2.84316 2.73327 2.65151 2.92932 2.47304C3.01108 2.61634 3.09987 2.73503 3.09987 2.73503C3.09987 2.73503 3.11482 2.52755 3.09635 2.32798C3.45856 2.0194 3.85242 1.74686 4.27353 1.51829C4.6375 1.3785 5.05597 1.2774 5.28631 1.35213C5.34433 1.53059 5.43576 2.01413 5.02696 2.65151L4.86344 2.9091L5.14125 3.03481C5.14828 3.03833 5.79534 3.33724 6.03622 3.96847C5.84984 4.1399 5.40411 4.47398 4.74388 4.45024L4.4265 4.44233L4.47574 4.75618C4.48013 4.78607 4.5786 5.45598 4.05111 6.02567C3.79 5.94831 3.20097 5.71182 3.00756 5.11488L2.89943 4.78432L2.61019 4.97773C2.38249 5.12982 1.73719 5.4639 1.26421 5.36192C1.24751 5.22037 1.23608 5.03487 1.24487 4.84322L1.24399 4.8441ZM1.00135 9.49039C2.08358 9.71193 3.01547 10.1541 3.77857 10.8091C3.65901 10.8733 3.54032 10.941 3.42164 11.0122C2.77019 10.5726 2.02907 10.257 1.20795 10.0645C1.13146 9.87721 1.06201 9.68556 1.00223 9.49039H1.00135ZM4.11265 9.80073C3.87 9.80073 3.6423 9.86842 3.46911 9.98711C3.34779 9.9071 3.22383 9.83062 3.09548 9.75853C3.37944 9.60556 3.73813 9.51852 4.11265 9.51852C4.72893 9.51852 5.29246 9.76029 5.55093 10.1093C5.36983 10.1559 5.18784 10.2095 5.00762 10.2711C4.87399 9.99414 4.52848 9.80073 4.11265 9.80073ZM4.56013 10.439C4.45024 10.4838 4.34123 10.5313 4.23221 10.5823C4.12584 10.4847 4.01682 10.3906 3.90341 10.301C3.96847 10.2825 4.03968 10.2719 4.11265 10.2719C4.31749 10.2719 4.48804 10.3502 4.56013 10.439ZM4.11265 9.0473C3.53417 9.0473 2.99613 9.21609 2.60931 9.51325C2.45897 9.44467 2.30424 9.38225 2.14688 9.32423C2.65414 8.96642 3.3601 8.75982 4.11265 8.75982C5.2529 8.75982 6.25777 9.23456 6.64283 9.92205C6.44151 9.93963 6.24018 9.96689 6.03886 10.0029C5.74347 9.43061 4.98916 9.0473 4.11265 9.0473ZM1.75302 11.1212C1.65016 10.9586 1.55345 10.7906 1.46466 10.6183C2.015 10.7792 2.52315 11.0025 2.98382 11.29C2.87129 11.3656 2.75964 11.4447 2.64887 11.5274C2.36666 11.3691 2.06687 11.2337 1.75302 11.1221V11.1212ZM7.25208 14.2914C6.97163 14.2809 6.69558 14.2536 6.4248 14.2105C6.68943 14.1182 6.96636 14.0435 7.25208 13.989V14.2923V14.2914ZM7.25208 13.3156C7.24417 13.4158 7.24417 13.4835 7.24417 13.5116C6.65954 13.6153 6.11534 13.7991 5.61863 14.0294C5.44368 13.9793 5.27224 13.9222 5.10345 13.8589C5.73028 13.5011 6.45206 13.2065 7.25208 13.0791V13.3156ZM7.25208 12.6043C7.24241 12.6043 7.23186 12.6043 7.22131 12.6061C6.20853 12.7599 5.31356 13.1608 4.56805 13.6303C4.41947 13.5591 4.27441 13.4808 4.13199 13.3991C4.97509 12.8083 6.03007 12.3001 7.25208 12.1867V12.6043ZM7.25208 11.7146C5.83578 11.8368 4.63222 12.4461 3.69857 13.1309C3.55879 13.036 3.4234 12.9349 3.29065 12.8303C4.18474 12.1208 5.57379 11.3049 7.25208 11.2759V11.7146ZM7.25208 10.8047C5.78566 10.8285 4.30518 11.4104 2.9513 12.4979C2.94162 12.505 2.93371 12.5129 2.92404 12.5199C2.8036 12.41 2.68931 12.2957 2.57678 12.1771C2.85283 11.9538 3.17196 11.7208 3.52977 11.4975C3.53681 11.4931 3.54384 11.4887 3.55087 11.4843C4.51969 10.8856 5.76808 10.3695 7.19845 10.3669C7.21691 10.3669 7.2345 10.3643 7.25208 10.3599V10.8047ZM7.25208 9.90271C7.2345 9.89831 7.21691 9.89567 7.19845 9.89567C7.18351 9.89567 7.16944 9.89567 7.1545 9.89567C6.76591 8.94092 5.54742 8.28684 4.11353 8.28684C3.12976 8.28684 2.20666 8.60773 1.60972 9.15016C1.37059 9.08334 1.12355 9.02796 0.869476 8.98312C0.781561 8.59014 0.727054 8.18486 0.71123 7.7699H7.25208V9.90271ZM7.22659 7.24417C7.07889 7.19406 6.90833 7.07098 6.90833 6.76591C6.90833 6.28502 7.25296 6.13293 7.35582 6.09776H12.2518C12.6474 6.08457 13.2356 5.81028 13.2356 5.10608C13.2356 4.35266 12.5929 4.11265 12.2527 4.09155H7.99056C7.93869 4.09067 7.48681 4.06342 7.48681 3.46823C7.48681 2.87305 7.84726 2.81151 7.93694 2.79832H10.628C10.7493 2.80799 10.8117 2.87217 10.8117 2.9891C10.8117 3.06207 10.7968 3.10251 10.7827 3.11658C10.7695 3.12976 10.7414 3.13328 10.7379 3.13328H8.35014C8.2042 3.1324 8.08639 3.25021 8.08639 3.39614C8.08639 3.54208 8.2042 3.65989 8.35014 3.65989H10.7071C10.7731 3.6634 10.9726 3.65813 11.1379 3.50604C11.2293 3.42164 11.3384 3.26427 11.3384 2.9891C11.3384 2.48095 10.9243 2.28139 10.6456 2.27171H7.8965C7.57209 2.30073 6.95757 2.58733 6.95757 3.46823C6.95757 4.3931 7.69341 4.612 7.98265 4.61904H12.2237C12.2984 4.62519 12.7054 4.67882 12.7054 5.10696C12.7054 5.51225 12.3503 5.565 12.2342 5.57115H7.28285L7.25208 5.57906C6.94965 5.65291 6.37733 5.99666 6.37733 6.76679C6.37733 6.95405 6.41601 7.1123 6.47931 7.24505H0.709471C0.727933 6.74921 0.798265 6.26656 0.917829 5.80237H0.920467C1.51829 6.06611 2.24534 5.77511 2.63217 5.57379C3.07701 6.38964 4.04056 6.56986 4.08539 6.57778L4.21375 6.60063L4.30958 6.51184C4.88981 5.97732 5.00147 5.3373 5.01114 4.96982C5.96853 4.88366 6.51272 4.23749 6.53821 4.2076L6.62437 4.10298L6.59008 3.97198C6.41425 3.30383 5.91754 2.89239 5.60984 2.69458C6.09249 1.75126 5.74083 1.06553 5.72412 1.03388L5.68984 0.969699L5.6661 0.954753C6.24985 0.791232 6.8635 0.701559 7.49824 0.701559C11.1608 0.701559 14.1534 3.61329 14.2888 7.24329H7.22659V7.24417ZM12.2544 7.77166C11.1889 8.13474 9.95634 8.76421 8.96993 9.85348C8.52596 10.344 8.19628 10.8144 7.951 11.2452C7.8921 11.2557 7.83583 11.2742 7.77957 11.297V7.77078H12.2544V7.77166ZM8.40288 14.2351C8.19804 14.2624 7.98969 14.2809 7.77957 14.2896V13.5898C7.83671 13.5705 7.89737 13.56 7.95979 13.5626C8.09342 13.5688 8.21563 13.6259 8.30618 13.7244C8.39673 13.8228 8.44245 13.9503 8.43629 14.0831C8.43365 14.1358 8.42135 14.1859 8.40376 14.2343L8.40288 14.2351ZM8.39937 13.3481C8.27365 13.2663 8.12859 13.218 7.97474 13.2118C7.9132 13.2092 7.85166 13.2136 7.79276 13.2232C7.81298 13.0685 7.85342 12.8549 7.93254 12.5964C7.95364 12.5947 7.97474 12.592 7.99584 12.5929C8.12947 12.5991 8.25167 12.6562 8.34222 12.7547C8.4319 12.8531 8.47849 12.9806 8.47234 13.1134C8.46882 13.1978 8.44157 13.2769 8.39937 13.3472V13.3481ZM8.47937 12.4074C8.35629 12.316 8.21035 12.2623 8.05562 12.2474C8.12683 12.0654 8.21914 11.8623 8.33695 11.6417C8.38618 11.668 8.43365 11.7006 8.47322 11.7445C8.64641 11.9335 8.64377 12.2193 8.47937 12.4083V12.4074ZM8.5119 11.3357C8.63322 11.137 8.77476 10.9278 8.94092 10.7106C9.144 10.5392 9.44907 10.5559 9.63017 10.7537C9.71985 10.8522 9.76644 10.9797 9.76029 11.1124C9.75677 11.1933 9.73215 11.2689 9.69259 11.3375C9.55632 11.2346 9.39368 11.1748 9.21961 11.1678C8.99191 11.1581 8.77476 11.2364 8.60773 11.3902L8.62619 11.4104C8.59014 11.3823 8.55146 11.3577 8.5119 11.3357ZM8.8196 11.6214L8.84597 11.6496C8.94444 11.5599 9.07191 11.5133 9.20467 11.5195C9.3383 11.5256 9.4605 11.5828 9.55105 11.6812C9.6416 11.7797 9.68732 11.9072 9.68116 12.0399C9.67589 12.1621 9.6249 12.2755 9.5405 12.3626C9.40775 12.2667 9.25038 12.2113 9.08334 12.2043C9.03675 12.2026 8.99103 12.2043 8.94532 12.2105C8.97609 12.0091 8.93477 11.799 8.8196 11.6206V11.6214ZM8.77828 14.1754C8.7818 14.1507 8.78619 14.1252 8.78707 14.0998C8.7941 13.938 8.75542 13.7824 8.67806 13.6452C8.86883 13.5608 9.10005 13.6004 9.24862 13.7622C9.31983 13.8404 9.36027 13.9354 9.37258 14.0329C9.17741 14.0892 8.9796 14.1367 8.77828 14.1754ZM9.48687 13.283C9.44819 13.3085 9.41127 13.3358 9.37698 13.3674L9.40511 13.3973C9.39896 13.4035 9.39368 13.4105 9.38753 13.4167C9.21785 13.2909 9.01125 13.2356 8.80817 13.2531C8.81608 13.2127 8.82136 13.1723 8.82312 13.1301C8.83015 12.9701 8.79235 12.8153 8.71674 12.6791C8.81345 12.5938 8.9374 12.5498 9.06664 12.556C9.20027 12.5621 9.32247 12.6193 9.41302 12.7177C9.55808 12.876 9.57918 13.1019 9.48687 13.2821V13.283ZM9.71193 13.9266C9.69435 13.8422 9.66446 13.7595 9.6205 13.6822C9.66534 13.6408 9.70578 13.5951 9.74007 13.5459C9.81216 13.5116 9.89128 13.4931 9.97392 13.4975C10.1075 13.5037 10.2298 13.5608 10.3203 13.6593C10.3256 13.6655 10.3291 13.6716 10.3344 13.6778C10.1322 13.771 9.92469 13.8545 9.71281 13.9274L9.71193 13.9266ZM10.4821 13.3314C10.3423 13.2188 10.1717 13.1538 9.98974 13.145C9.95634 13.1432 9.92293 13.145 9.8904 13.1468C9.89216 13.1292 9.8948 13.1107 9.89567 13.0931C9.90271 12.9296 9.86315 12.7722 9.78402 12.6333C9.87721 12.5604 9.9915 12.5217 10.1119 12.527C10.2456 12.5331 10.3678 12.5903 10.4583 12.6887C10.5489 12.7872 10.5946 12.9147 10.5884 13.0474C10.584 13.152 10.5462 13.2496 10.4829 13.3305L10.4821 13.3314ZM10.6447 12.2931C10.6245 12.3063 10.6043 12.3204 10.5849 12.3353C10.4522 12.2395 10.2939 12.1832 10.126 12.1762C10.0891 12.1744 10.0522 12.1762 10.0161 12.1797C10.024 12.1393 10.0293 12.0988 10.0311 12.0575C10.0372 11.9107 10.0064 11.7674 9.94227 11.639C10.1418 11.5177 10.4065 11.5502 10.57 11.7287C10.6597 11.8272 10.7062 11.9546 10.7001 12.0874C10.6966 12.1604 10.6764 12.2298 10.6438 12.2931H10.6447ZM10.6904 11.3691C10.5164 11.2469 10.3062 11.1977 10.1023 11.2214C10.1067 11.1915 10.1102 11.1608 10.1119 11.13C10.119 10.9647 10.0794 10.8056 9.99854 10.6658C10.2016 10.5084 10.4953 10.5287 10.672 10.7212C10.8399 10.9049 10.8425 11.181 10.6913 11.3691H10.6904ZM10.8443 13.4149C10.8997 13.3076 10.9322 13.1881 10.9383 13.0641C10.9454 12.9103 10.9102 12.7608 10.8399 12.6281C10.8601 12.6052 10.8794 12.5806 10.897 12.556C11.0896 12.4654 11.326 12.5032 11.4773 12.6685C11.5423 12.7397 11.5836 12.8259 11.5995 12.9191C11.3603 13.101 11.108 13.2663 10.8452 13.4149H10.8443ZM11.7199 12.4153C11.5388 12.2272 11.29 12.1401 11.0465 12.1577C11.0482 12.1393 11.0509 12.1217 11.0518 12.1032C11.057 11.9801 11.0359 11.8606 10.992 11.7498C11.1951 11.581 11.4984 11.5986 11.6786 11.7955C11.8386 11.9705 11.8491 12.2281 11.7208 12.4153H11.7199ZM12.0531 12.5437C12.2245 12.2333 12.1902 11.8351 11.9379 11.5581C11.7234 11.3234 11.406 11.2373 11.1159 11.3041C11.1994 11.0263 11.1405 10.7124 10.9304 10.4838C10.6236 10.148 10.1084 10.1163 9.76117 10.4029C9.63193 10.3089 9.4816 10.257 9.32863 10.2447C9.33918 10.2324 9.34972 10.221 9.36028 10.2087C9.75413 9.77347 10.1955 9.41742 10.65 9.12554C10.7326 9.53259 10.9269 10.1656 11.3735 10.6922C11.8192 11.217 12.519 11.4087 13.007 11.4781C12.7265 11.8658 12.4074 12.2228 12.0531 12.5428V12.5437ZM13.2312 11.1502C12.8083 11.1089 12.0672 10.9665 11.6425 10.4654C11.1986 9.94139 11.0324 9.28027 10.9735 8.93037C12.2843 8.18046 13.6452 7.92727 14.2896 7.8455C14.229 9.05785 13.8483 10.1858 13.232 11.1502H13.2312Z" fill="#F8F4EC"/>
<path d="M12.5823 9.36379C12.7661 9.36379 12.9155 9.21434 12.9155 9.03059C12.9155 8.84685 12.7661 8.6974 12.5823 8.6974C12.3986 8.6974 12.2492 8.84685 12.2492 9.03059C12.2492 9.21434 12.3986 9.36379 12.5823 9.36379Z" fill="#F8F4EC"/>
<path d="M2.67085 3.51395C2.76667 3.84802 3.1157 4.04056 3.44977 3.94385C3.78385 3.84802 3.97638 3.499 3.87967 3.16493C3.78385 2.83085 3.43483 2.63832 3.10075 2.73502C2.76667 2.83085 2.57414 3.17987 2.67085 3.51395Z" fill="#F8F4EC"/>
<path d="M3.6678 4.70255C3.95792 4.63398 3.44889 3.94385 3.44889 3.94385C3.44889 3.94385 3.37768 4.77113 3.6678 4.70255Z" fill="#F8F4EC"/>
<path d="M4.64893 3.74341C4.75179 3.46384 3.8955 3.50691 3.8955 3.50691C3.8955 3.50691 4.54607 4.02297 4.64893 3.74341Z" fill="#F8F4EC"/>
<path d="M4.31661 2.36667C4.13551 2.13017 3.71352 2.87657 3.71352 2.87657C3.71352 2.87657 4.49771 2.60316 4.31661 2.36667Z" fill="#F8F4EC"/>
<path d="M2.33765 4.41068C2.57326 4.59266 2.84931 3.80934 2.84931 3.80934C2.84931 3.80934 2.10204 4.2287 2.33765 4.41068Z" fill="#F8F4EC"/>
</svg>
