<svg width="384" height="64" viewBox="0 0 384 64" fill="none" xmlns="http://www.w3.org/2000/svg">
<path d="M0.48 47V0.919998H4.8L22.912 39.672L40.928 0.919998H45.312V46.968H40.832V11.416L24.416 47H21.376L4.992 11.416V47H0.48ZM64.1805 47.96C61.5778 47.96 59.3912 47.4907 57.6205 46.552C55.8712 45.6133 54.5592 44.3653 53.6845 42.808C52.8098 41.2507 52.3725 39.5547 52.3725 37.72C52.3725 35.8427 52.7458 34.2427 53.4925 32.92C54.2605 31.576 55.2952 30.4773 56.5965 29.624C57.9192 28.7707 59.4445 28.12 61.1725 27.672C62.9218 27.2453 64.8525 26.872 66.9645 26.552C69.0978 26.2107 71.1778 25.9227 73.2045 25.688C75.2525 25.432 77.0445 25.1867 78.5805 24.952L76.9165 25.976C76.9805 22.5627 76.3192 20.0347 74.9325 18.392C73.5458 16.7493 71.1352 15.928 67.7005 15.928C65.3325 15.928 63.3272 16.4613 61.6845 17.528C60.0632 18.5947 58.9218 20.28 58.2605 22.584L53.6845 21.24C54.4738 18.1467 56.0632 15.7467 58.4525 14.04C60.8418 12.3333 63.9458 11.48 67.7645 11.48C70.9218 11.48 73.5992 12.0773 75.7965 13.272C78.0152 14.4453 79.5832 16.152 80.5005 18.392C80.9272 19.3947 81.2045 20.5147 81.3325 21.752C81.4605 22.9893 81.5245 24.248 81.5245 25.528V47H77.3325V38.328L78.5485 38.84C77.3752 41.8053 75.5512 44.0667 73.0765 45.624C70.6018 47.1813 67.6365 47.96 64.1805 47.96ZM64.7245 43.896C66.9218 43.896 68.8418 43.5013 70.4845 42.712C72.1272 41.9227 73.4498 40.8453 74.4525 39.48C75.4552 38.0933 76.1058 36.536 76.4045 34.808C76.6605 33.6987 76.7992 32.4827 76.8205 31.16C76.8418 29.816 76.8525 28.8133 76.8525 28.152L78.6445 29.08C77.0445 29.2933 75.3058 29.5067 73.4285 29.72C71.5725 29.9333 69.7378 30.1787 67.9245 30.456C66.1325 30.7333 64.5112 31.064 63.0605 31.448C62.0792 31.7253 61.1298 32.12 60.2125 32.632C59.2952 33.1227 58.5378 33.784 57.9405 34.616C57.3645 35.448 57.0765 36.4827 57.0765 37.72C57.0765 38.7227 57.3218 39.6933 57.8125 40.632C58.3245 41.5707 59.1352 42.3493 60.2445 42.968C61.3752 43.5867 62.8685 43.896 64.7245 43.896ZM114.815 47V29.368C114.815 27.448 114.634 25.688 114.271 24.088C113.908 22.4667 113.322 21.0587 112.511 19.864C111.722 18.648 110.687 17.7093 109.407 17.048C108.148 16.3867 106.612 16.056 104.799 16.056C103.135 16.056 101.663 16.344 100.383 16.92C99.1243 17.496 98.0577 18.328 97.183 19.416C96.3297 20.4827 95.679 21.784 95.231 23.32C94.783 24.856 94.559 26.6053 94.559 28.568L91.231 27.832C91.231 24.2907 91.8497 21.3147 93.087 18.904C94.3243 16.4933 96.031 14.6693 98.207 13.432C100.383 12.1947 102.879 11.576 105.695 11.576C107.764 11.576 109.567 11.896 111.103 12.536C112.66 13.176 113.972 14.04 115.039 15.128C116.127 16.216 117.002 17.464 117.663 18.872C118.324 20.2587 118.804 21.7413 119.103 23.32C119.402 24.8773 119.551 26.4347 119.551 27.992V47H114.815ZM89.823 47V12.44H94.079V20.952H94.559V47H89.823ZM127.855 47V12.44H132.079V20.76L131.247 19.672C131.631 18.648 132.132 17.7093 132.751 16.856C133.37 15.9813 134.042 15.2667 134.767 14.712C135.663 13.9227 136.708 13.3253 137.903 12.92C139.098 12.4933 140.303 12.248 141.519 12.184C142.735 12.0987 143.844 12.184 144.847 12.44V16.856C143.588 16.536 142.212 16.4613 140.719 16.632C139.226 16.8027 137.85 17.4 136.591 18.424C135.439 19.32 134.575 20.3973 133.999 21.656C133.423 22.8933 133.039 24.216 132.847 25.624C132.655 27.0107 132.559 28.3867 132.559 29.752V47H127.855ZM164.725 47.96C161.29 47.96 158.357 47.1813 155.925 45.624C153.493 44.0667 151.626 41.912 150.325 39.16C149.023 36.408 148.373 33.2507 148.373 29.688C148.373 26.0613 149.034 22.8827 150.357 20.152C151.679 17.4213 153.557 15.2987 155.989 13.784C158.442 12.248 161.354 11.48 164.725 11.48C168.181 11.48 171.125 12.2587 173.557 13.816C176.01 15.352 177.877 17.496 179.157 20.248C180.458 22.9787 181.109 26.1253 181.109 29.688C181.109 33.3147 180.458 36.504 179.157 39.256C177.855 41.9867 175.978 44.12 173.525 45.656C171.071 47.192 168.138 47.96 164.725 47.96ZM164.725 43.448C168.565 43.448 171.423 42.1787 173.301 39.64C175.178 37.08 176.117 33.7627 176.117 29.688C176.117 25.5067 175.167 22.1787 173.269 19.704C171.391 17.2293 168.543 15.992 164.725 15.992C162.143 15.992 160.01 16.5787 158.325 17.752C156.661 18.904 155.413 20.5147 154.581 22.584C153.77 24.632 153.365 27 153.365 29.688C153.365 33.848 154.325 37.1867 156.245 39.704C158.165 42.2 160.991 43.448 164.725 43.448ZM203.688 47.96C200.509 47.96 197.821 47.16 195.624 45.56C193.426 43.9387 191.762 41.752 190.632 39C189.501 36.2267 188.936 33.1227 188.936 29.688C188.936 26.1893 189.501 23.0747 190.632 20.344C191.784 17.592 193.469 15.4267 195.688 13.848C197.906 12.2693 200.637 11.48 203.88 11.48C207.037 11.48 209.746 12.28 212.008 13.88C214.269 15.48 215.997 17.656 217.192 20.408C218.408 23.16 219.016 26.2533 219.016 29.688C219.016 33.144 218.408 36.248 217.192 39C215.976 41.752 214.226 43.9387 211.944 45.56C209.661 47.16 206.909 47.96 203.688 47.96ZM188.136 62.36V12.44H192.36V38.456H192.872V62.36H188.136ZM203.208 43.576C205.618 43.576 207.624 42.968 209.224 41.752C210.824 40.536 212.018 38.8827 212.808 36.792C213.618 34.68 214.024 32.312 214.024 29.688C214.024 27.0853 213.629 24.7387 212.84 22.648C212.05 20.5573 210.845 18.904 209.224 17.688C207.624 16.472 205.586 15.864 203.112 15.864C200.701 15.864 198.696 16.4507 197.096 17.624C195.517 18.7973 194.333 20.4293 193.544 22.52C192.754 24.5893 192.36 26.9787 192.36 29.688C192.36 32.3547 192.754 34.744 193.544 36.856C194.333 38.9467 195.528 40.5893 197.128 41.784C198.728 42.9787 200.754 43.576 203.208 43.576ZM240.667 47.96C237.296 47.96 234.373 47.2133 231.899 45.72C229.445 44.2267 227.536 42.1253 226.171 39.416C224.805 36.7067 224.123 33.528 224.123 29.88C224.123 26.104 224.795 22.84 226.139 20.088C227.483 17.336 229.371 15.2133 231.803 13.72C234.256 12.2267 237.147 11.48 240.475 11.48C243.888 11.48 246.8 12.2693 249.211 13.848C251.621 15.4053 253.445 17.6453 254.683 20.568C255.92 23.4907 256.485 26.9787 256.379 31.032H251.579V29.368C251.493 24.888 250.523 21.5067 248.667 19.224C246.832 16.9413 244.144 15.8 240.603 15.8C236.891 15.8 234.043 17.0053 232.059 19.416C230.096 21.8267 229.115 25.2613 229.115 29.72C229.115 34.072 230.096 37.4533 232.059 39.864C234.043 42.2533 236.848 43.448 240.475 43.448C242.949 43.448 245.104 42.8827 246.939 41.752C248.795 40.6 250.256 38.9467 251.323 36.792L255.707 38.488C254.341 41.496 252.325 43.832 249.659 45.496C247.013 47.1387 244.016 47.96 240.667 47.96ZM227.451 31.032V27.096H253.851V31.032H227.451ZM276.293 47V0.919998H294.085C294.533 0.919998 295.034 0.941331 295.589 0.983997C296.165 1.00533 296.741 1.06933 297.317 1.176C299.727 1.53866 301.765 2.38133 303.429 3.704C305.114 5.00533 306.383 6.648 307.236 8.632C308.111 10.616 308.549 12.8133 308.549 15.224C308.549 18.7013 307.631 21.72 305.797 24.28C303.962 26.84 301.338 28.4507 297.925 29.112L296.293 29.496H280.997V47H276.293ZM304.197 47L295.109 28.248L299.621 26.52L309.605 47H304.197ZM280.997 25.016H293.957C294.341 25.016 294.789 24.9947 295.301 24.952C295.813 24.9093 296.314 24.8347 296.805 24.728C298.383 24.3867 299.674 23.736 300.677 22.776C301.701 21.816 302.458 20.6747 302.949 19.352C303.461 18.0293 303.717 16.6533 303.717 15.224C303.717 13.7947 303.461 12.4187 302.949 11.096C302.458 9.752 301.701 8.6 300.677 7.64C299.674 6.68 298.383 6.02933 296.805 5.688C296.314 5.58133 295.813 5.51733 295.301 5.496C294.789 5.45333 294.341 5.432 293.957 5.432H280.997V25.016ZM331.292 47.96C327.921 47.96 324.998 47.2133 322.524 45.72C320.07 44.2267 318.161 42.1253 316.796 39.416C315.43 36.7067 314.748 33.528 314.748 29.88C314.748 26.104 315.42 22.84 316.764 20.088C318.108 17.336 319.996 15.2133 322.428 13.72C324.881 12.2267 327.772 11.48 331.1 11.48C334.513 11.48 337.425 12.2693 339.836 13.848C342.246 15.4053 344.07 17.6453 345.308 20.568C346.545 23.4907 347.11 26.9787 347.004 31.032H342.204V29.368C342.118 24.888 341.148 21.5067 339.292 19.224C337.457 16.9413 334.769 15.8 331.228 15.8C327.516 15.8 324.668 17.0053 322.684 19.416C320.721 21.8267 319.74 25.2613 319.74 29.72C319.74 34.072 320.721 37.4533 322.684 39.864C324.668 42.2533 327.473 43.448 331.1 43.448C333.574 43.448 335.729 42.8827 337.564 41.752C339.42 40.6 340.881 38.9467 341.948 36.792L346.332 38.488C344.966 41.496 342.95 43.832 340.284 45.496C337.638 47.1387 334.641 47.96 331.292 47.96ZM318.076 31.032V27.096H344.476V31.032H318.076ZM367.833 63.32C366.062 63.32 364.313 63.0533 362.585 62.52C360.878 62.008 359.3 61.1867 357.849 60.056C356.398 58.9467 355.182 57.496 354.201 55.704L358.457 53.336C359.417 55.256 360.761 56.632 362.489 57.464C364.238 58.3173 366.02 58.744 367.833 58.744C370.329 58.744 372.345 58.2747 373.881 57.336C375.438 56.4187 376.569 55.0533 377.273 53.24C377.977 51.4267 378.318 49.1653 378.297 46.456V37.24H378.841V12.44H383.033V46.52C383.033 47.5013 383.001 48.44 382.937 49.336C382.894 50.2533 382.798 51.1493 382.649 52.024C382.244 54.6053 381.401 56.728 380.121 58.392C378.862 60.056 377.198 61.2933 375.129 62.104C373.081 62.9147 370.649 63.32 367.833 63.32ZM367.513 47.96C364.292 47.96 361.54 47.16 359.257 45.56C356.974 43.9387 355.225 41.752 354.009 39C352.793 36.248 352.185 33.144 352.185 29.688C352.185 26.2533 352.782 23.16 353.977 20.408C355.193 17.656 356.932 15.48 359.193 13.88C361.454 12.28 364.164 11.48 367.321 11.48C370.564 11.48 373.294 12.2693 375.513 13.848C377.732 15.4267 379.406 17.592 380.537 20.344C381.689 23.0747 382.265 26.1893 382.265 29.688C382.265 33.1227 381.7 36.2267 380.569 39C379.438 41.752 377.774 43.9387 375.577 45.56C373.38 47.16 370.692 47.96 367.513 47.96ZM367.993 43.576C370.446 43.576 372.473 42.9787 374.073 41.784C375.673 40.5893 376.868 38.9467 377.657 36.856C378.446 34.744 378.841 32.3547 378.841 29.688C378.841 26.9787 378.446 24.5893 377.657 22.52C376.868 20.4293 375.673 18.7973 374.073 17.624C372.494 16.4507 370.5 15.864 368.089 15.864C365.614 15.864 363.566 16.472 361.945 17.688C360.324 18.904 359.118 20.5573 358.329 22.648C357.561 24.7387 357.177 27.0853 357.177 29.688C357.177 32.312 357.572 34.68 358.361 36.792C359.172 38.8827 360.377 40.536 361.977 41.752C363.577 42.968 365.582 43.576 367.993 43.576Z" fill="#563213"/>
</svg>
