<svg width="1920" height="1080" viewBox="0 0 1920 1080" fill="none" xmlns="http://www.w3.org/2000/svg">
<rect width="1920" height="1080" fill="#4E2705"/>
<line x1="962" y1="416" x2="962" y2="664" stroke="#FFF" stroke-width="4" stroke-linecap="round"/>
<path d="M1449.07 516.19C1449.07 516.19 1433.36 516.448 1417.69 512.271C1402.03 508.093 1397.13 507.201 1387.27 510.176C1377.42 513.151 1367.73 513.093 1367.73 513.093" stroke="#F1AF76" stroke-width="55" stroke-linecap="round"/>
<path d="M1486.6 597.363C1490.26 597.363 1493.18 595.055 1493.18 590.879C1493.18 586.484 1490.26 584.176 1486.6 584.176C1482.84 584.176 1479.92 586.484 1479.92 590.879C1479.92 595.055 1482.84 597.363 1486.6 597.363Z" fill="#F1AF76"/>
<path d="M1259.31 523.055C1259.31 524.154 1259.99 525.451 1261.36 526.945C1262.78 528.44 1263.48 529.385 1263.48 529.78V530.374C1263.48 530.989 1263.15 531.297 1262.49 531.297H1245.18C1244.47 531.297 1244.12 531.011 1244.12 530.44C1243.99 529.824 1243.99 529.341 1244.12 528.989C1244.25 528.725 1244.7 528.242 1245.45 527.538C1246.24 526.791 1246.93 526.022 1247.5 525.231C1248.12 524.44 1248.41 523.67 1248.36 522.923V511.055C1248.36 509.868 1248.14 508.967 1247.7 508.352C1247.26 507.736 1246.64 507.275 1245.84 506.967C1245.05 506.615 1244.59 506.374 1244.45 506.242C1244.05 505.934 1243.86 505.495 1243.86 504.923C1243.81 504.352 1244.03 503.912 1244.52 503.604C1245.8 502.857 1247.64 502.132 1250.02 501.429C1252.45 500.681 1254.38 500.308 1255.79 500.308C1257.07 500.308 1257.98 500.813 1258.51 501.824C1259.04 502.791 1259.31 504.615 1259.31 507.297V523.055ZM1253.21 486.791C1255.15 486.791 1256.79 487.319 1258.11 488.374C1259.48 489.429 1260.17 490.703 1260.17 492.198C1260.17 493.692 1259.48 494.989 1258.11 496.088C1256.74 497.143 1255.11 497.67 1253.21 497.67C1251.3 497.67 1249.67 497.143 1248.3 496.088C1246.93 494.989 1246.24 493.692 1246.24 492.198C1246.24 490.703 1246.93 489.429 1248.3 488.374C1249.67 487.319 1251.3 486.791 1253.21 486.791Z" fill="#FFF"/>
<path d="M1265.66 504.132C1265 504.132 1264.66 503.824 1264.66 503.209V502.22C1264.66 501.604 1265 501.297 1265.66 501.297C1267.16 501.297 1268.49 500.945 1269.64 500.242C1270.79 499.495 1271.67 498.593 1272.29 497.538C1272.95 496.484 1273.55 495.429 1274.08 494.374C1274.61 493.275 1275.18 492.352 1275.8 491.604C1276.47 490.857 1277.17 490.462 1277.93 490.418H1278.06C1279.34 490.418 1279.98 491.714 1279.98 494.308C1279.98 494.484 1279.96 495.385 1279.91 497.011C1279.91 498.593 1279.91 500.022 1279.91 501.297H1285.48C1286.06 501.297 1286.35 501.604 1286.35 502.22V503.209C1286.35 503.824 1286.06 504.132 1285.48 504.132H1279.78C1279.78 506.198 1279.76 508.989 1279.72 512.505C1279.67 516.022 1279.65 518.11 1279.65 518.769C1279.65 521.714 1280.42 523.187 1281.97 523.187C1282.68 523.187 1283.74 522.857 1285.15 522.198C1285.24 522.154 1285.37 522.132 1285.55 522.132C1285.9 522.132 1286.19 522.308 1286.41 522.659C1286.68 523.011 1286.74 523.363 1286.61 523.714C1286.21 525.604 1285.15 527.341 1283.43 528.923C1281.75 530.505 1279.69 531.297 1277.26 531.297C1275.05 531.297 1273.04 530.527 1271.23 528.989C1269.46 527.451 1268.58 525.473 1268.58 523.055C1268.58 521.912 1268.55 518.901 1268.51 514.022C1268.47 509.143 1268.44 505.846 1268.44 504.132H1265.66Z" fill="#FFF"/>
<path d="M1289.49 504.132C1288.83 504.132 1288.49 503.824 1288.49 503.209V502.22C1288.49 501.604 1288.83 501.297 1289.49 501.297C1290.99 501.297 1292.32 500.945 1293.47 500.242C1294.62 499.495 1295.5 498.593 1296.12 497.538C1296.78 496.484 1297.38 495.429 1297.91 494.374C1298.44 493.275 1299.01 492.352 1299.63 491.604C1300.3 490.857 1301 490.462 1301.76 490.418H1301.89C1303.17 490.418 1303.81 491.714 1303.81 494.308C1303.81 494.484 1303.79 495.385 1303.75 497.011C1303.75 498.593 1303.75 500.022 1303.75 501.297H1309.32C1309.89 501.297 1310.18 501.604 1310.18 502.22V503.209C1310.18 503.824 1309.89 504.132 1309.32 504.132H1303.61C1303.61 506.198 1303.59 508.989 1303.55 512.505C1303.5 516.022 1303.48 518.11 1303.48 518.769C1303.48 521.714 1304.25 523.187 1305.8 523.187C1306.51 523.187 1307.57 522.857 1308.98 522.198C1309.07 522.154 1309.2 522.132 1309.38 522.132C1309.74 522.132 1310.02 522.308 1310.24 522.659C1310.51 523.011 1310.58 523.363 1310.44 523.714C1310.04 525.604 1308.98 527.341 1307.26 528.923C1305.58 530.505 1303.52 531.297 1301.09 531.297C1298.88 531.297 1296.87 530.527 1295.06 528.989C1293.29 527.451 1292.41 525.473 1292.41 523.055C1292.41 521.912 1292.38 518.901 1292.34 514.022C1292.3 509.143 1292.27 505.846 1292.27 504.132H1289.49Z" fill="#FFF"/>
<path d="M1329.96 500.374C1335.09 500.374 1339.31 501.912 1342.63 504.989C1345.94 508.066 1347.6 511.846 1347.6 516.33C1347.6 520.901 1345.99 524.725 1342.76 527.802C1339.53 530.879 1335.27 532.418 1329.96 532.418C1324.7 532.418 1320.44 530.879 1317.16 527.802C1313.94 524.725 1312.32 520.901 1312.32 516.33C1312.32 511.846 1313.98 508.066 1317.3 504.989C1320.66 501.912 1324.88 500.374 1329.96 500.374ZM1333.01 529.582C1335 529.099 1336.22 527.473 1336.66 524.703C1337.15 521.934 1336.95 518.791 1336.06 515.275C1335.18 511.758 1334.03 508.923 1332.61 506.769C1331.24 504.571 1329.7 503.473 1327.97 503.473C1327.75 503.473 1327.46 503.516 1327.11 503.604C1325.12 504.088 1323.86 505.714 1323.33 508.484C1322.8 511.209 1322.96 514.352 1323.8 517.912C1324.5 521.385 1325.54 524.22 1326.91 526.418C1328.33 528.615 1329.96 529.714 1331.82 529.714C1332.35 529.714 1332.75 529.67 1333.01 529.582Z" fill="#FFF"/>
<path d="M1371.09 500.044C1371.18 500.044 1371.33 500.044 1371.55 500.044C1371.82 500 1372.02 499.978 1372.15 499.978C1374.8 499.978 1377.03 500.659 1378.84 502.022C1380.66 503.385 1381.54 505.165 1381.5 507.363C1381.5 508.769 1381.01 509.934 1380.04 510.857C1379.11 511.736 1377.96 512.176 1376.59 512.176C1375.04 512.176 1373.85 511.868 1373.01 511.253C1372.17 510.593 1371.75 509.758 1371.75 508.747C1371.75 507.912 1372.08 506.923 1372.74 505.78C1373.1 504.857 1373.08 504.044 1372.68 503.341C1372.28 502.637 1371.57 502.286 1370.56 502.286C1368.83 502.242 1367.48 503.187 1366.51 505.121C1365.58 507.055 1365.07 509.692 1364.99 513.033V523.055C1364.99 524.154 1365.67 525.451 1367.04 526.945C1368.46 528.44 1369.16 529.385 1369.16 529.78V530.374C1369.16 530.989 1368.83 531.297 1368.17 531.297H1350.86C1350.15 531.297 1349.8 531.011 1349.8 530.44C1349.67 529.824 1349.71 529.341 1349.93 528.989C1350.02 528.681 1350.44 528.198 1351.19 527.538C1351.95 526.835 1352.61 526.088 1353.18 525.297C1353.8 524.462 1354.09 523.67 1354.04 522.923V511.846C1354.04 510.703 1353.8 509.824 1353.32 509.209C1352.87 508.549 1352.28 508.044 1351.53 507.692C1350.77 507.341 1350.33 507.099 1350.2 506.967C1349.8 506.703 1349.6 506.308 1349.6 505.78C1349.6 505.253 1349.8 504.813 1350.2 504.462C1350.91 503.67 1352.7 502.813 1355.57 501.89C1358.44 500.923 1360.45 500.418 1361.6 500.374C1362.71 500.374 1363.62 501.582 1364.32 504C1365.87 501.714 1368.12 500.396 1371.09 500.044Z" fill="#FFF"/>
<path d="M1399.63 523.055C1399.63 524.154 1400.32 525.451 1401.69 526.945C1403.1 528.44 1403.81 529.385 1403.81 529.78V530.374C1403.81 530.989 1403.48 531.297 1402.82 531.297H1385.51C1384.8 531.297 1384.45 531.011 1384.45 530.44C1384.31 529.824 1384.31 529.341 1384.45 528.989C1384.58 528.725 1385.02 528.242 1385.77 527.538C1386.57 526.791 1387.25 526.022 1387.83 525.231C1388.45 524.44 1388.74 523.67 1388.69 522.923V511.055C1388.69 509.868 1388.47 508.967 1388.03 508.352C1387.59 507.736 1386.97 507.275 1386.17 506.967C1385.38 506.615 1384.91 506.374 1384.78 506.242C1384.38 505.934 1384.18 505.495 1384.18 504.923C1384.14 504.352 1384.36 503.912 1384.84 503.604C1386.13 502.857 1387.96 502.132 1390.35 501.429C1392.78 500.681 1394.7 500.308 1396.12 500.308C1397.4 500.308 1398.31 500.813 1398.84 501.824C1399.37 502.791 1399.63 504.615 1399.63 507.297V523.055ZM1393.53 486.791C1395.48 486.791 1397.11 487.319 1398.44 488.374C1399.81 489.429 1400.49 490.703 1400.49 492.198C1400.49 493.692 1399.81 494.989 1398.44 496.088C1397.07 497.143 1395.43 497.67 1393.53 497.67C1391.63 497.67 1390 497.143 1388.62 496.088C1387.25 494.989 1386.57 493.692 1386.57 492.198C1386.57 490.703 1387.25 489.429 1388.62 488.374C1390 487.319 1391.63 486.791 1393.53 486.791Z" fill="#FFF"/>
<path d="M1423.28 500.374C1428.4 500.374 1432.63 501.912 1435.94 504.989C1439.26 508.066 1440.91 511.846 1440.91 516.33C1440.91 520.901 1439.3 524.725 1436.07 527.802C1432.85 530.879 1428.58 532.418 1423.28 532.418C1418.02 532.418 1413.75 530.879 1410.48 527.802C1407.25 524.725 1405.64 520.901 1405.64 516.33C1405.64 511.846 1407.3 508.066 1410.61 504.989C1413.97 501.912 1418.19 500.374 1423.28 500.374ZM1426.33 529.582C1428.32 529.099 1429.53 527.473 1429.97 524.703C1430.46 521.934 1430.26 518.791 1429.38 515.275C1428.49 511.758 1427.34 508.923 1425.93 506.769C1424.56 504.571 1423.01 503.473 1421.29 503.473C1421.07 503.473 1420.78 503.516 1420.42 503.604C1418.44 504.088 1417.18 505.714 1416.64 508.484C1416.11 511.209 1416.27 514.352 1417.11 517.912C1417.82 521.385 1418.86 524.22 1420.23 526.418C1421.64 528.615 1423.28 529.714 1425.13 529.714C1425.66 529.714 1426.06 529.67 1426.33 529.582Z" fill="#FFF"/>
<path d="M1247.83 481.086V481.707C1247.83 482.327 1246.87 483.491 1244.95 485.197C1243.02 486.904 1241.72 488.533 1241.05 490.084L1229.11 525.301C1228.64 527.317 1228.67 528.739 1229.19 529.567C1229.61 530.343 1229.42 530.963 1228.64 531.429C1226.67 532.308 1224.53 532.747 1222.25 532.747C1221.57 532.747 1221.05 532.721 1220.69 532.67H1220.76C1219.36 532.618 1218.06 532.23 1216.86 531.506C1215.67 530.782 1214.63 529.8 1213.74 528.559C1212.91 527.266 1212.26 526.231 1211.79 525.456C1211.38 524.628 1210.91 523.594 1210.39 522.353C1209.71 520.802 1208.54 517.363 1206.88 512.036C1205.27 506.71 1203.78 501.771 1202.43 497.22C1201.08 492.618 1200.4 490.239 1200.4 490.084C1199.88 488.791 1199.02 487.576 1197.83 486.438C1196.68 485.301 1195.67 484.37 1194.79 483.646C1193.9 482.922 1193.46 482.275 1193.46 481.707V481.086C1193.46 480.362 1193.82 480 1194.55 480L1216.24 480.078C1217.07 480.078 1217.49 480.388 1217.49 481.008C1217.64 481.732 1217.59 482.301 1217.33 482.715C1217.23 482.973 1216.84 483.491 1216.16 484.266C1215.54 485.042 1215.07 485.869 1214.76 486.749C1214.5 487.628 1214.52 488.584 1214.84 489.619L1214.99 490.006C1218.48 506.865 1221.08 517.104 1222.79 520.724C1223.21 521.448 1223.78 521.81 1224.51 521.81C1225.34 521.81 1225.89 521.396 1226.15 520.569L1236.37 489.696C1236.63 488.197 1236.65 487.136 1236.44 486.516C1236.24 485.895 1235.79 485.171 1235.12 484.344C1234.49 483.516 1234.13 482.973 1234.03 482.715C1233.92 482.508 1233.84 482.275 1233.79 482.017C1233.79 481.707 1233.79 481.474 1233.79 481.319L1233.87 481.008C1233.87 480.388 1234.29 480.078 1235.12 480.078L1246.66 480C1247.44 480 1247.83 480.362 1247.83 481.086Z" fill="#FFF"/>
<path d="M1267.42 588.026V589.912C1267.42 590.141 1267.27 590.398 1266.98 590.684C1266.75 590.912 1266.44 591.026 1266.04 591.026C1263.62 591.026 1261.47 590.998 1259.57 590.941C1257.67 590.941 1256.47 590.941 1255.95 590.941C1254.23 590.941 1252.7 590.284 1251.38 588.969C1250.12 587.598 1249.17 585.941 1248.54 583.998C1246.81 589.198 1242.93 591.798 1236.9 591.798C1233.16 591.798 1229.83 590.684 1226.9 588.455C1223.97 586.226 1222.1 582.769 1221.3 578.084C1221.01 576.426 1220.87 571.541 1220.87 563.426C1220.81 562.341 1220.52 561.312 1220 560.341C1219.54 559.369 1219.08 558.655 1218.62 558.198C1218.16 557.684 1217.59 557.112 1216.9 556.484C1216.21 555.855 1215.81 555.484 1215.69 555.369C1215.23 554.912 1215 554.341 1215 553.655C1215 552.969 1215.26 552.455 1215.78 552.112C1217.85 550.969 1222.04 550.398 1228.37 550.398C1231.12 550.398 1232.93 550.941 1233.8 552.026C1234.72 553.112 1235.15 555.512 1235.09 559.226V577.998C1235.26 579.941 1235.87 581.655 1236.9 583.141C1237.99 584.569 1239.46 585.255 1241.3 585.198C1242.62 585.141 1243.74 584.684 1244.66 583.826C1245.63 582.969 1246.32 581.855 1246.73 580.484C1247.13 579.112 1247.42 577.826 1247.59 576.626C1247.76 575.369 1247.85 574.084 1247.85 572.769L1248.02 564.026C1248.02 563.055 1247.88 562.169 1247.59 561.369C1247.36 560.512 1247.01 559.769 1246.55 559.141C1246.09 558.512 1245.66 557.998 1245.26 557.598C1244.92 557.141 1244.46 556.684 1243.88 556.226C1243.36 555.769 1243.05 555.484 1242.93 555.369C1242.47 554.912 1242.22 554.341 1242.16 553.655C1242.16 552.969 1242.45 552.455 1243.02 552.112C1244.97 550.969 1249.14 550.398 1255.52 550.398C1258.34 550.398 1260.17 550.941 1261.04 552.026C1261.96 553.055 1262.39 555.455 1262.33 559.226L1261.9 579.969C1261.84 580.998 1262.21 582.055 1263.02 583.141C1263.82 584.169 1264.71 585.169 1265.69 586.141C1266.67 587.055 1267.24 587.684 1267.42 588.026Z" fill="#FFF"/>
<path d="M1303.56 567.798C1304.53 568.312 1305.17 568.684 1305.45 568.912C1305.8 569.084 1306.52 569.569 1307.61 570.369C1308.7 571.169 1309.5 571.912 1310.02 572.598C1310.54 573.284 1311.03 574.226 1311.49 575.426C1312 576.569 1312.23 577.798 1312.18 579.112C1312.12 581.912 1311.06 584.284 1308.99 586.226C1306.92 588.169 1304.36 589.569 1301.32 590.426C1298.27 591.284 1294.88 591.741 1291.14 591.798C1285.51 591.855 1280.91 590.941 1277.35 589.055C1273.79 587.169 1271.83 585.112 1271.49 582.884C1271.26 580.998 1271.63 579.369 1272.61 577.998C1273.59 576.626 1274.99 575.712 1276.83 575.255C1277.52 575.141 1278.04 575.084 1278.38 575.084C1280.11 575.084 1281.78 575.512 1283.38 576.369C1284.99 577.169 1285.86 578.026 1285.97 578.941C1286.09 579.512 1285.77 580.255 1285.02 581.169C1284.28 582.084 1283.82 582.912 1283.64 583.655C1283.18 585.312 1283.67 586.655 1285.11 587.684C1286.55 588.712 1288.41 589.226 1290.71 589.226C1293.01 589.226 1294.79 588.712 1296.06 587.684C1297.38 586.598 1297.98 585.255 1297.87 583.655C1297.81 582.226 1297 580.855 1295.45 579.541C1293.9 578.226 1292.32 577.169 1290.71 576.369C1290.42 576.255 1289.85 575.998 1288.99 575.598C1288.18 575.141 1287.21 574.626 1286.06 574.055C1284.97 573.426 1284.16 572.969 1283.64 572.684C1276.46 569.084 1273.07 564.941 1273.47 560.255C1273.87 557.055 1275.86 554.484 1279.42 552.541C1283.04 550.541 1287.35 549.541 1292.35 549.541H1293.99C1298.99 549.826 1302.72 550.769 1305.19 552.369C1307.72 553.969 1309.04 555.769 1309.16 557.769C1309.27 558.912 1308.87 559.941 1307.95 560.855C1307.09 561.712 1305.86 562.169 1304.25 562.226C1303.96 562.284 1303.53 562.312 1302.95 562.312C1301.4 562.312 1299.96 561.969 1298.64 561.284C1297.38 560.598 1296.66 559.798 1296.49 558.884C1296.49 558.369 1296.86 557.826 1297.61 557.255C1298.36 556.684 1298.76 556.112 1298.82 555.541C1298.87 555.198 1298.76 554.826 1298.47 554.426C1298.18 553.969 1297.58 553.541 1296.66 553.141C1295.8 552.741 1294.71 552.512 1293.38 552.455C1291.66 552.455 1290.08 552.769 1288.64 553.398C1287.21 553.969 1286.49 554.998 1286.49 556.484C1286.55 557.169 1286.92 557.884 1287.61 558.626C1288.3 559.312 1288.9 559.798 1289.42 560.084C1289.94 560.369 1290.74 560.798 1291.83 561.369C1292.06 561.484 1292.98 561.998 1294.59 562.912C1296.26 563.769 1297.92 564.655 1299.59 565.569C1301.32 566.484 1302.64 567.226 1303.56 567.798Z" fill="#FFF"/>
<path d="M1358.2 585.455C1359.98 586.941 1359.87 588.284 1357.86 589.484C1355.9 590.455 1353.46 590.941 1350.53 590.941C1345.36 590.255 1342.08 586.512 1340.7 579.712C1340.7 579.655 1340.67 579.484 1340.62 579.198C1340.27 577.655 1339.95 576.426 1339.67 575.512C1339.38 574.541 1338.81 573.512 1337.94 572.426C1337.08 571.284 1336.02 570.684 1334.75 570.626H1334.41C1332.74 570.626 1331.45 571.369 1330.53 572.855C1329.61 574.284 1329.27 576.169 1329.5 578.512C1329.73 580.684 1330.67 582.341 1332.34 583.484C1334.06 584.626 1336.05 585.198 1338.29 585.198C1338.35 585.141 1338.46 585.112 1338.63 585.112C1338.75 585.112 1338.98 585.198 1339.32 585.369C1339.44 585.541 1339.49 585.826 1339.49 586.226C1338.86 587.369 1337.66 588.426 1335.87 589.398C1334.09 590.312 1331.88 590.769 1329.24 590.769C1325.5 590.769 1322.2 589.798 1319.32 587.855C1316.51 585.855 1315.01 582.969 1314.84 579.198C1314.73 575.369 1316.19 572.369 1319.24 570.198C1322.34 568.026 1325.82 566.855 1329.67 566.684C1329.84 566.684 1330.07 566.684 1330.36 566.684C1330.64 566.626 1330.87 566.598 1331.05 566.598C1334.55 566.598 1337.28 567.255 1339.24 568.569C1339.18 568.341 1339.09 567.941 1338.98 567.369C1338.92 566.741 1338.86 566.284 1338.81 565.998C1338 560.512 1337.05 556.941 1335.96 555.284C1334.87 553.684 1333.55 552.884 1332 552.884C1329.18 552.884 1328.26 554.141 1329.24 556.655C1330.04 558.255 1330.44 559.512 1330.44 560.426C1330.44 561.626 1329.81 562.626 1328.55 563.426C1327.28 564.226 1325.82 564.626 1324.15 564.626C1322.48 564.626 1321.02 564.112 1319.75 563.084C1318.49 561.998 1317.86 560.626 1317.86 558.969C1317.86 556.284 1319.27 554.169 1322.08 552.626C1324.9 551.084 1328.35 550.312 1332.43 550.312C1333.52 550.312 1334.32 550.341 1334.84 550.398C1344.78 550.969 1350.64 555.598 1352.43 564.284C1352.43 564.626 1353.26 569.284 1354.93 578.255C1355.67 581.626 1356.76 584.026 1358.2 585.455Z" fill="#FFF"/>
<path d="M1362.94 555.284C1362.08 555.284 1361.65 554.884 1361.65 554.084V552.798C1361.65 551.998 1362.08 551.598 1362.94 551.598C1364.9 551.598 1366.62 551.141 1368.11 550.226C1369.61 549.255 1370.76 548.084 1371.56 546.712C1372.42 545.341 1373.2 543.969 1373.89 542.598C1374.58 541.169 1375.33 539.969 1376.13 538.998C1376.99 538.026 1377.91 537.512 1378.89 537.455H1379.06C1380.73 537.455 1381.56 539.141 1381.56 542.512C1381.56 542.741 1381.53 543.912 1381.48 546.026C1381.48 548.084 1381.48 549.941 1381.48 551.598H1388.72C1389.46 551.598 1389.84 551.998 1389.84 552.798V554.084C1389.84 554.884 1389.46 555.284 1388.72 555.284H1381.3C1381.3 557.969 1381.27 561.598 1381.22 566.169C1381.16 570.741 1381.13 573.455 1381.13 574.312C1381.13 578.141 1382.14 580.055 1384.15 580.055C1385.07 580.055 1386.45 579.626 1388.29 578.769C1388.4 578.712 1388.57 578.684 1388.8 578.684C1389.26 578.684 1389.64 578.912 1389.92 579.369C1390.27 579.826 1390.35 580.284 1390.18 580.741C1389.66 583.198 1388.29 585.455 1386.04 587.512C1383.86 589.569 1381.19 590.598 1378.03 590.598C1375.15 590.598 1372.54 589.598 1370.18 587.598C1367.88 585.598 1366.73 583.026 1366.73 579.884C1366.73 578.398 1366.71 574.484 1366.65 568.141C1366.59 561.798 1366.56 557.512 1366.56 555.284H1362.94Z" fill="#FFF"/>
<path d="M1393.92 555.284C1393.06 555.284 1392.63 554.884 1392.63 554.084V552.798C1392.63 551.998 1393.06 551.598 1393.92 551.598C1395.87 551.598 1397.6 551.141 1399.09 550.226C1400.59 549.255 1401.74 548.084 1402.54 546.712C1403.4 545.341 1404.18 543.969 1404.87 542.598C1405.56 541.169 1406.31 539.969 1407.11 538.998C1407.97 538.026 1408.89 537.512 1409.87 537.455H1410.04C1411.71 537.455 1412.54 539.141 1412.54 542.512C1412.54 542.741 1412.51 543.912 1412.45 546.026C1412.45 548.084 1412.45 549.941 1412.45 551.598H1419.7C1420.44 551.598 1420.82 551.998 1420.82 552.798V554.084C1420.82 554.884 1420.44 555.284 1419.7 555.284H1412.28C1412.28 557.969 1412.25 561.598 1412.2 566.169C1412.14 570.741 1412.11 573.455 1412.11 574.312C1412.11 578.141 1413.12 580.055 1415.13 580.055C1416.05 580.055 1417.43 579.626 1419.26 578.769C1419.38 578.712 1419.55 578.684 1419.78 578.684C1420.24 578.684 1420.62 578.912 1420.9 579.369C1421.25 579.826 1421.33 580.284 1421.16 580.741C1420.64 583.198 1419.26 585.455 1417.02 587.512C1414.84 589.569 1412.17 590.598 1409.01 590.598C1406.13 590.598 1403.52 589.598 1401.16 587.598C1398.86 585.598 1397.71 583.026 1397.71 579.884C1397.71 578.398 1397.69 574.484 1397.63 568.141C1397.57 561.798 1397.54 557.512 1397.54 555.284H1393.92Z" fill="#FFF"/>
<path d="M1469.49 585.455C1471.27 586.941 1471.16 588.284 1469.15 589.484C1467.19 590.455 1464.75 590.941 1461.82 590.941C1456.65 590.255 1453.37 586.512 1451.99 579.712C1451.99 579.655 1451.96 579.484 1451.91 579.198C1451.56 577.655 1451.24 576.426 1450.96 575.512C1450.67 574.541 1450.1 573.512 1449.23 572.426C1448.37 571.284 1447.31 570.684 1446.04 570.626H1445.7C1444.03 570.626 1442.74 571.369 1441.82 572.855C1440.9 574.284 1440.56 576.169 1440.79 578.512C1441.01 580.684 1441.96 582.341 1443.63 583.484C1445.35 584.626 1447.34 585.198 1449.58 585.198C1449.64 585.141 1449.75 585.112 1449.92 585.112C1450.04 585.112 1450.27 585.198 1450.61 585.369C1450.73 585.541 1450.78 585.826 1450.78 586.226C1450.15 587.369 1448.95 588.426 1447.16 589.398C1445.38 590.312 1443.17 590.769 1440.53 590.769C1436.79 590.769 1433.49 589.798 1430.61 587.855C1427.8 585.855 1426.3 582.969 1426.13 579.198C1426.02 575.369 1427.48 572.369 1430.53 570.198C1433.63 568.026 1437.11 566.855 1440.96 566.684C1441.13 566.684 1441.36 566.684 1441.65 566.684C1441.93 566.626 1442.16 566.598 1442.34 566.598C1445.84 566.598 1448.57 567.255 1450.53 568.569C1450.47 568.341 1450.38 567.941 1450.27 567.369C1450.21 566.741 1450.15 566.284 1450.1 565.998C1449.29 560.512 1448.34 556.941 1447.25 555.284C1446.16 553.684 1444.84 552.884 1443.28 552.884C1440.47 552.884 1439.55 554.141 1440.53 556.655C1441.33 558.255 1441.73 559.512 1441.73 560.426C1441.73 561.626 1441.1 562.626 1439.84 563.426C1438.57 564.226 1437.11 564.626 1435.44 564.626C1433.77 564.626 1432.31 564.112 1431.04 563.084C1429.78 561.998 1429.15 560.626 1429.15 558.969C1429.15 556.284 1430.56 554.169 1433.37 552.626C1436.19 551.084 1439.64 550.312 1443.72 550.312C1444.81 550.312 1445.61 550.341 1446.13 550.398C1456.07 550.969 1461.93 555.598 1463.72 564.284C1463.72 564.626 1464.55 569.284 1466.22 578.255C1466.96 581.626 1468.05 584.026 1469.49 585.455Z" fill="#FFF"/>
<path d="M1213.35 579.275C1213.42 585.456 1211.2 590.365 1206.71 594.001C1202.21 597.637 1196.28 599.636 1188.89 600H1188.99H1156.54C1156.22 600 1155.9 599.855 1155.58 599.564C1155.32 599.273 1155.19 598.946 1155.19 598.582C1154.94 597.564 1154.94 596.764 1155.19 596.182C1155.26 595.964 1156.32 594.655 1158.37 592.255C1160.42 589.783 1161.45 587.747 1161.45 586.147V540.007C1161.45 538.334 1160.42 536.298 1158.37 533.898C1156.38 531.499 1155.32 530.117 1155.19 529.753C1155.06 529.535 1155 529.244 1155 528.881C1155 528.444 1155.03 528.081 1155.1 527.79L1155.19 527.354C1155.19 526.554 1155.64 526.154 1156.54 526.154H1186.2C1192.55 526.154 1197.75 527.863 1201.8 531.281C1205.84 534.626 1207.9 538.807 1207.96 543.825C1207.96 547.606 1206.8 551.024 1204.49 554.078C1202.25 557.059 1199.1 559.241 1195.06 560.623C1200.64 561.568 1205.07 563.75 1208.34 567.167C1211.62 570.585 1213.29 574.621 1213.35 579.275ZM1192.75 541.207C1190.82 533.498 1187.71 529.644 1183.41 529.644C1179.94 529.644 1177.82 532.044 1177.05 536.844V542.734C1177.05 542.807 1177.08 542.916 1177.15 543.061V543.17C1178.49 553.205 1181.7 558.223 1186.78 558.223C1187.42 558.223 1188.19 558.077 1189.09 557.787C1191.27 556.987 1192.68 554.878 1193.32 551.46C1193.97 547.97 1193.77 544.552 1192.75 541.207ZM1187.16 595.201C1190.43 595.201 1193.16 593.71 1195.35 590.728C1197.53 587.747 1198.27 584.002 1197.56 579.493C1197.05 576.439 1196.05 574.003 1194.58 572.185C1193.16 570.367 1190.88 568.804 1187.74 567.495C1187.55 567.422 1186.9 567.167 1185.81 566.731C1184.79 566.295 1184.02 565.968 1183.5 565.749C1182.99 565.458 1182.28 565.059 1181.38 564.549C1180.55 564.04 1179.78 563.459 1179.07 562.804C1178.37 562.15 1177.72 561.423 1177.15 560.623V568.04C1177.28 572.985 1177.6 577.239 1178.11 580.802C1178.62 584.365 1179.2 587.056 1179.84 588.874C1180.48 590.619 1181.32 592.001 1182.35 593.019C1183.37 594.037 1184.18 594.655 1184.75 594.873C1185.4 595.019 1186.2 595.128 1187.16 595.201Z" fill="#FFF"/>
<path d="M700.514 570.077C701.293 569.643 702.073 569.21 702.848 568.773L702.855 568.77L702.857 568.768C708.186 565.769 713.332 562.621 717.04 558.307C717.588 557.669 718.214 556.903 718.612 556.143C719.021 555.363 719.115 554.738 718.861 554.28C718.785 554.144 718.636 554.031 718.359 553.954C718.08 553.877 717.731 553.855 717.351 553.861C715.158 553.891 712.904 554.706 710.7 555.582C707.649 556.795 704.786 558.279 701.955 559.919C701.466 560.203 700.968 560.487 700.466 560.772C697.56 562.427 694.534 564.15 692.383 566.329C691.469 567.255 690.748 568.456 690.399 569.644C690.048 570.838 690.092 571.95 690.594 572.766C690.75 573.018 691.051 573.18 691.578 573.21C692.107 573.24 692.772 573.129 693.498 572.93C694.589 572.633 695.713 572.171 696.59 571.811C696.884 571.69 697.151 571.58 697.379 571.492C698.468 571.072 699.427 570.641 700.407 570.136L700.514 570.077Z" fill="#FFF"/>
<path fill-rule="evenodd" clip-rule="evenodd" d="M730.195 547.827L720.833 538.589C710.326 542.51 700.954 550.107 693.313 558.169C692.303 559.235 691.305 560.325 690.304 561.418C688.185 563.733 686.051 566.063 683.755 568.215C682.598 569.3 681.496 570.461 680.38 571.636C679.949 572.09 679.516 572.546 679.077 573.001C677.511 574.623 675.88 576.214 674.05 577.546C671.187 579.63 668.194 581.625 665.231 583.598C664.325 584.202 663.421 584.804 662.525 585.406C661.243 586.268 659.899 587.032 658.575 587.784C658.331 587.924 658.087 588.062 657.844 588.201C657.221 588.558 656.605 588.916 656 589.286V595.688C657.233 595.323 658.483 595.008 659.725 594.701L660.133 594.6C661.408 594.285 662.672 593.973 663.913 593.614C665.729 593.09 667.552 592.625 669.367 592.162C672.31 591.411 675.235 590.665 678.083 589.677C679.08 589.331 680.098 589.064 681.094 588.803L681.099 588.802L681.464 588.706C682.585 588.41 683.678 588.109 684.734 587.691C685.542 587.371 686.319 586.994 687.112 586.609L687.114 586.609L687.115 586.608L687.119 586.606C687.328 586.505 687.537 586.403 687.749 586.301C688.758 585.818 689.802 585.348 690.921 585.032C691.668 584.821 692.435 584.342 693.259 583.781C693.384 583.696 693.511 583.609 693.639 583.521C694.327 583.047 695.05 582.549 695.769 582.212C697.871 581.228 699.955 579.732 701.927 578.317C702.149 578.158 702.369 578 702.588 577.844C704.738 576.307 707.094 575.061 709.445 573.859C709.737 573.71 710.029 573.561 710.32 573.412L710.323 573.411C711.789 572.665 713.244 571.924 714.65 571.126L723.416 562.244C724.574 560.295 725.588 558.248 726.554 556.284C727.281 554.806 727.901 553.279 728.529 551.734L728.651 551.434C729.14 550.231 729.638 549.019 730.195 547.827ZM697.726 572.39C698.837 571.962 699.815 571.522 700.808 571.012C700.816 571.009 700.823 571.005 700.83 571.002C700.836 570.999 700.842 570.996 700.847 570.993L700.861 570.985C701.643 570.582 702.436 570.136 703.311 569.618C703.734 569.41 704.913 568.717 705.359 568.45C709.986 565.765 714.434 562.815 717.77 558.934C718.318 558.296 719.01 557.457 719.465 556.59C719.909 555.743 720.205 554.719 719.703 553.813C719.455 553.367 719.03 553.141 718.616 553.026C718.204 552.913 717.746 552.892 717.337 552.898C714.945 552.932 712.538 553.816 710.344 554.688C707.236 555.924 704.328 557.431 701.473 559.086C700.998 559.362 700.509 559.64 700.013 559.922C697.114 561.571 693.951 563.371 691.698 565.652C690.679 566.685 689.872 568.023 689.475 569.373C689.081 570.715 689.077 572.138 689.775 573.271C690.164 573.902 690.84 574.132 691.524 574.171C692.207 574.21 692.989 574.067 693.751 573.859C694.907 573.544 696.122 573.044 697.004 572.682L697.005 572.681C697.283 572.568 697.527 572.467 697.726 572.39Z" fill="#FFF"/>
<path d="M712.353 573.454C711.822 573.728 711.289 573.999 710.759 574.27L710.757 574.27C710.465 574.419 710.174 574.567 709.883 574.716C707.533 575.917 705.234 577.136 703.147 578.627C702.929 578.783 702.708 578.941 702.485 579.101C700.525 580.509 698.365 582.059 696.178 583.084C695.537 583.384 694.892 583.828 694.202 584.302C694.07 584.393 693.936 584.485 693.801 584.577C692.984 585.133 692.098 585.7 691.183 585.958C690.148 586.251 689.166 586.69 688.165 587.169C687.961 587.267 687.756 587.367 687.549 587.467C686.752 587.854 685.934 588.252 685.088 588.586C683.973 589.027 682.831 589.341 681.709 589.637C681.585 589.669 681.462 589.702 681.339 589.734C680.338 589.996 679.358 590.253 678.398 590.586C675.524 591.584 672.517 592.352 669.536 593.113C667.729 593.574 665.931 594.033 664.18 594.539C662.92 594.903 661.638 595.22 660.365 595.534L659.956 595.635C658.62 595.966 657.296 596.3 656 596.692V600H672.684C674.042 598.384 675.702 597.096 677.403 595.955C679.222 594.735 681.411 594.106 683.622 593.754C685.633 593.434 687.696 593.34 689.549 593.255C689.733 593.247 689.915 593.238 690.094 593.23C690.822 593.196 691.544 593.171 692.262 593.146L692.266 593.146C692.492 593.138 692.718 593.13 692.944 593.122L712.353 573.454Z" fill="#FFF"/>
<path d="M685.84 600H674.289C675.475 598.644 676.55 597.686 677.939 596.754C679.594 595.644 681.629 595.046 683.773 594.705C685.727 594.394 687.737 594.302 689.598 594.217L689.724 594.211C689.863 594.204 690.002 594.198 690.139 594.192C690.742 594.163 691.35 594.141 691.959 594.12L685.84 600Z" fill="#FFF"/>
<path d="M725.911 559.715C726.439 558.697 726.937 557.686 727.418 556.709C728.16 555.199 728.792 553.643 729.417 552.105L729.542 551.797C729.989 550.699 730.436 549.611 730.923 548.546L733.968 551.551L725.911 559.715Z" fill="#FFF"/>
<path d="M694.885 541.92L656 580.107V588.161C656.454 587.89 656.91 587.626 657.366 587.366C657.613 587.224 657.86 587.084 658.107 586.944C659.431 586.191 660.739 585.447 661.988 584.608C662.889 584.002 663.795 583.399 664.702 582.794L664.703 582.793L664.707 582.791L664.709 582.79C667.668 580.818 670.639 578.839 673.483 576.768C675.244 575.487 676.827 573.945 678.385 572.332C678.811 571.89 679.237 571.442 679.664 570.993C680.786 569.81 681.918 568.618 683.097 567.513C685.366 565.385 687.457 563.102 689.562 560.803C690.569 559.703 691.579 558.599 692.614 557.507C700.202 549.502 709.547 541.882 720.079 537.845L709.583 527.487L704.546 532.434C705.471 532.769 706.324 533.288 707.051 534.119C707.486 534.616 707.823 535.253 707.918 535.925C708.016 536.61 707.859 537.332 707.308 537.93C707.148 538.104 707.003 538.29 706.843 538.494C706.754 538.608 706.661 538.727 706.558 538.854C706.29 539.183 705.973 539.537 705.583 539.789C704.764 540.319 703.786 540.649 702.819 540.883C702.027 541.075 701.214 541.208 700.48 541.329C700.318 541.355 700.161 541.381 700.008 541.407C698.294 541.695 696.591 541.846 694.885 541.92Z" fill="#FFF"/>
<path d="M695.924 540.9C697.235 540.816 698.54 540.677 699.848 540.457C700.009 540.43 700.171 540.404 700.336 540.377L700.337 540.376C701.07 540.256 701.839 540.13 702.593 539.948C703.515 539.724 704.372 539.426 705.06 538.981C705.317 538.815 705.556 538.561 705.812 538.246C705.888 538.153 705.968 538.051 706.051 537.945C706.227 537.72 706.415 537.479 706.6 537.279C706.93 536.919 707.028 536.498 706.965 536.06C706.901 535.608 706.665 535.139 706.327 534.753C705.62 533.945 704.764 533.479 703.771 533.194L695.924 540.9Z" fill="#FFF"/>
<path d="M728.696 562.598L732.695 558.6C733.668 560.029 734.818 561.459 735.906 562.75C737.569 564.723 739.753 566.281 741.929 567.507C742.744 567.966 743.614 568.384 744.472 568.795L745.098 569.096L745.462 569.274C746.639 569.854 747.762 570.458 748.739 571.214C752.479 574.108 755.464 578.228 757.811 582.392C759.427 585.258 760.532 588.441 761.522 591.623C762.052 593.327 762.844 594.855 763.626 596.363L763.645 596.399L763.891 596.874L764.103 597.288C764.259 597.594 764.412 597.901 764.56 598.209C764.741 598.587 764.845 598.985 764.94 599.421L765.065 600H755.024C754.802 599.795 754.589 599.579 754.371 599.354L754.22 599.198C754.001 598.97 753.774 598.735 753.528 598.497C752.467 597.469 751.193 596.711 749.975 595.985L749.946 595.968C748.701 595.226 747.514 594.516 746.536 593.567C744.669 591.757 742.638 590.296 740.461 588.919C739.421 588.26 738.304 587.752 737.227 587.261L737.041 587.176C735.895 586.654 734.796 586.141 733.802 585.463C732.063 584.279 730.361 583.089 728.911 581.621C728.326 581.028 727.836 580.338 727.325 579.61L727.28 579.545C726.791 578.848 726.278 578.116 725.664 577.476C724.433 576.195 723.465 574.426 722.897 572.727C722.558 571.713 722.114 570.686 721.612 569.683L724.948 566.346C725.127 566.433 725.288 566.514 725.423 566.586C725.547 566.652 725.641 566.706 725.708 566.747C725.764 566.781 725.801 566.806 725.821 566.822C728.308 568.861 730.364 571.58 731.943 574.419C732.565 575.537 733.299 576.608 734.013 577.651C734.308 578.082 734.6 578.508 734.879 578.931C735.521 579.902 736.334 580.882 737.091 581.796C737.301 582.049 737.505 582.297 737.702 582.538C739.932 585.276 743.476 587.005 746.948 587.005C748.245 587.005 749.421 586.95 750.731 586.548C750.924 586.488 751.105 586.389 751.241 586.23C751.381 586.067 751.442 585.876 751.453 585.693C751.472 585.36 751.327 585.029 751.194 584.781C751.054 584.518 750.872 584.254 750.724 584.039L750.722 584.035C750.558 583.796 750.457 583.646 750.419 583.559C749.874 582.323 749.118 581.129 748.395 579.986C748.102 579.525 747.815 579.071 747.549 578.627L747.295 578.197L747.105 577.874C746.355 576.592 745.57 575.251 744.513 574.13L743.886 573.459C742.738 572.221 741.469 570.855 740.072 569.88C739.176 569.254 738.212 568.761 737.276 568.291L737.087 568.196C736.209 567.756 735.359 567.33 734.564 566.815C732.498 565.475 730.549 564.106 728.696 562.598Z" fill="#FFF"/>
<path d="M753.459 599.797L753.655 600H739.518C739.327 599.784 739.123 599.578 738.92 599.385C738.568 599.05 738.194 598.731 737.849 598.437L737.814 598.407C737.454 598.1 737.134 597.825 736.881 597.573C736.432 597.124 735.938 596.711 735.462 596.313L735.087 595.999C734.492 595.495 733.942 594.997 733.492 594.422C732.609 593.293 731.593 592.283 730.599 591.292L730.595 591.289C730.204 590.9 729.817 590.514 729.441 590.126C728.71 589.368 728.043 588.55 727.361 587.712L727.256 587.583C726.542 586.706 725.807 585.812 724.979 584.986C722.975 582.984 721.027 580.945 719.069 578.896L717.636 577.397C717.134 576.873 716.551 576.423 715.996 576.001L715.896 575.925L715.597 575.697L720.893 570.401C721.319 571.276 721.693 572.162 721.984 573.032C722.587 574.836 723.62 576.738 724.97 578.143C725.532 578.728 726.007 579.407 726.51 580.123L726.537 580.162C727.042 580.882 727.575 581.639 728.226 582.297C729.75 583.84 731.526 585.078 733.26 586.259C734.331 586.989 735.501 587.532 736.642 588.052L736.811 588.129C737.903 588.627 738.963 589.11 739.947 589.732C742.093 591.09 744.064 592.511 745.865 594.258C746.934 595.294 748.213 596.056 749.436 596.784L749.453 596.795C750.698 597.536 751.883 598.244 752.858 599.188C753.054 599.377 753.253 599.584 753.459 599.797Z" fill="#FFF"/>
<path d="M714.911 576.384C715.042 576.485 715.173 576.585 715.303 576.683L715.413 576.767C715.708 576.991 715.992 577.21 716.26 577.434C716.502 577.637 716.731 577.844 716.941 578.063L718.37 579.558C720.328 581.607 722.286 583.657 724.299 585.667C725.087 586.454 725.794 587.312 726.51 588.191L726.633 588.343C727.306 589.168 727.992 590.01 728.749 590.794C729.148 591.207 729.547 591.605 729.943 591.998L729.958 592.014C730.938 592.989 731.889 593.935 732.735 595.016C733.248 595.672 733.862 596.222 734.465 596.733L734.862 597.067C735.333 597.461 735.785 597.839 736.201 598.254C736.357 598.409 736.532 598.569 736.716 598.731C736.869 598.866 737.029 599.002 737.189 599.139L737.217 599.163L737.242 599.184C737.553 599.45 737.87 599.72 738.169 600H730.759L711.187 580.107L714.911 576.384Z" fill="#FFF"/>
<path d="M728.012 563.282L725.666 565.628L725.875 565.736C726.099 565.855 726.305 565.975 726.43 566.078C729.037 568.213 731.164 571.037 732.784 573.951C733.383 575.029 734.076 576.04 734.779 577.066C735.08 577.506 735.384 577.948 735.682 578.4C736.292 579.323 737.059 580.249 737.811 581.157L738.187 581.612L738.449 581.93C740.502 584.452 743.776 586.043 746.948 586.043C748.217 586.043 749.278 585.987 750.448 585.627L750.491 585.612C750.485 585.551 750.45 585.43 750.346 585.235C750.304 585.157 750.256 585.077 750.206 584.996C750.165 584.932 750.123 584.867 750.08 584.802L749.905 584.546C749.835 584.444 749.759 584.334 749.691 584.226C749.63 584.128 749.575 584.032 749.538 583.947C749.024 582.781 748.33 581.685 747.622 580.568L747.448 580.292L747.184 579.873L746.945 579.488L746.723 579.121C746.566 578.857 746.412 578.595 746.259 578.334C745.508 577.053 744.788 575.825 743.813 574.791C743.597 574.562 743.381 574.329 743.163 574.095C742.011 572.856 740.825 571.58 739.521 570.669C738.689 570.088 737.784 569.623 736.844 569.151L736.646 569.052L736.639 569.048C735.773 568.614 734.879 568.167 734.04 567.622C731.927 566.252 729.923 564.844 728.012 563.282Z" fill="#FFF"/>
<path d="M765.412 582.032V597.76C765.092 597.095 764.764 596.461 764.441 595.84C763.675 594.365 762.945 592.956 762.441 591.337C761.448 588.144 760.318 584.88 758.65 581.919C756.272 577.7 753.211 573.457 749.328 570.452C748.271 569.635 747.077 568.996 745.887 568.411C745.542 568.241 745.199 568.076 744.859 567.913C744.013 567.507 743.187 567.111 742.402 566.668C740.28 565.474 738.204 563.983 736.641 562.13C735.521 560.8 734.353 559.344 733.388 557.907L737.497 553.797L765.412 582.032Z" fill="#FFF"/>
<path d="M708.62 582.032L712.068 585.675L711.995 585.757C711.953 585.802 711.912 585.843 711.872 585.881C710.962 586.748 709.97 587.292 708.811 587.927L708.395 588.157C707.961 588.396 707.477 588.597 706.96 588.798L706.568 588.948C706.349 589.032 706.126 589.117 705.902 589.206L705.557 589.347L705.377 589.424C704.326 589.883 703.275 590.496 702.609 591.604C702.339 592.055 702.174 592.531 702.031 592.969L701.983 593.116L701.981 593.122L701.887 593.409L701.813 593.621C701.79 593.687 701.766 593.752 701.741 593.817C701.699 593.925 701.654 594.031 701.605 594.136L701.572 594.207C701.457 594.439 701.328 594.672 701.189 594.924C701.083 595.115 700.972 595.317 700.856 595.538C700.606 596.014 700.358 596.543 700.253 597.048C700.098 597.795 699.974 598.454 699.974 599.267C699.974 599.354 699.981 599.448 699.986 599.518L699.989 599.563L699.99 599.571C699.811 599.635 699.681 599.802 699.671 600H694.518L694.548 599.928C694.605 599.797 694.667 599.667 694.735 599.528L694.755 599.484L694.765 599.465C694.841 599.307 694.923 599.137 694.995 598.963C695.551 597.629 695.983 596.238 696.291 594.818L708.62 582.032Z" fill="#FFF"/>
<path d="M694.944 596.214L691.294 600H693.497C693.544 599.841 693.603 599.69 693.664 599.549C693.735 599.384 693.813 599.221 693.886 599.071L693.898 599.047C693.976 598.886 694.046 598.738 694.107 598.593C694.429 597.819 694.709 597.024 694.944 596.214Z" fill="#FFF"/>
<path d="M719.88 600H708.128C708.99 597.665 710.195 595.678 711.985 593.753C712.842 592.832 714.326 592.046 715.554 591.452C716.016 591.228 716.484 591.027 716.959 590.843L722.617 596.821C722.412 597.079 722.191 597.333 721.96 597.589L721.587 597.998C721.258 598.357 720.918 598.728 720.61 599.106L720.422 599.331C720.261 599.523 720.066 599.754 719.88 600Z" fill="#FFF"/>
<path d="M721.117 600H725.626L723.284 597.526C723.086 597.77 722.88 598.005 722.675 598.233L722.278 598.669C721.956 599.021 721.646 599.359 721.356 599.714L721.134 599.98C721.129 599.987 721.123 599.993 721.117 600Z" fill="#FFF"/>
<path d="M711.28 593.098C709.313 595.214 708.015 597.41 707.105 600H700.908L700.929 599.928C700.935 599.898 700.94 599.87 700.944 599.844C700.963 599.715 700.956 599.586 700.95 599.499L700.944 599.425L700.942 599.401C700.939 599.349 700.936 599.309 700.936 599.267C700.936 598.9 700.965 598.569 701.014 598.232C701.042 598.034 701.078 597.835 701.118 597.625L701.196 597.244C701.271 596.879 701.463 596.452 701.708 595.985C701.8 595.81 701.905 595.62 702.01 595.43C702.163 595.152 702.318 594.872 702.436 594.631C702.633 594.229 702.77 593.811 702.893 593.431L702.899 593.414L702.946 593.268C703.089 592.833 703.225 592.448 703.435 592.1C703.943 591.251 704.768 590.74 705.762 590.307C705.955 590.222 706.151 590.143 706.349 590.065L706.686 589.934L706.894 589.854L707.309 589.695C707.833 589.492 708.367 589.272 708.86 588.999L709.278 588.77C710.424 588.142 711.529 587.537 712.536 586.578C712.578 586.538 712.62 586.496 712.663 586.452L712.733 586.377L716.248 590.091C715.873 590.244 715.501 590.408 715.135 590.585C713.926 591.17 712.278 592.025 711.28 593.098Z" fill="#FFF"/>
<path d="M731.996 505.094L712.471 524.92L765.412 577.219L765.318 565.092C764.137 564.112 762.991 563 761.858 561.832C761.26 561.217 760.111 560.393 758.576 559.423C757.052 558.46 755.188 557.378 753.192 556.243C752.31 555.742 751.401 555.229 750.485 554.713C747.27 552.902 743.969 551.042 741.405 549.407C737.751 547.077 734.651 544.874 731.822 541.302C728.379 536.954 725.789 530.171 727.091 524.301C727.612 521.951 729.25 520.218 731.204 519.081C733.157 517.947 735.47 517.38 737.443 517.38C740.086 517.38 741.822 518.367 743.821 519.504C744.27 519.759 744.731 520.021 745.219 520.282C747.788 521.654 750.109 523.496 752.262 525.473C754.083 527.147 755.794 528.971 757.489 530.78C757.859 531.174 758.227 531.568 758.596 531.958C760.667 534.151 762.754 536.274 765.068 538.078L765.111 538.112L765.067 532.427L751.637 519.359C748.288 518.175 745.089 516.621 742.278 514.421C741.165 513.55 740.19 512.564 739.248 511.596L739.049 511.391C738.17 510.487 737.313 509.606 736.365 508.813C736.023 508.526 735.686 508.232 735.351 507.94C734.395 507.104 733.023 505.694 731.996 505.094Z" fill="#FFF"/>
<path d="M749.896 517.664L734.501 502.515L732.684 504.385C733.733 505.033 735.136 506.471 736.047 507.268C736.366 507.547 736.678 507.82 736.983 508.075C737.971 508.901 738.861 509.817 739.733 510.714L739.938 510.924C740.882 511.895 741.815 512.837 742.871 513.663C745.01 515.337 747.386 516.627 749.896 517.664Z" fill="#FFF"/>
<path d="M765.238 554.61L765.309 563.818C764.385 563.008 763.47 562.112 762.549 561.162C761.862 560.454 760.621 559.577 759.09 558.609C757.546 557.634 755.666 556.542 753.668 555.407C752.777 554.9 751.862 554.384 750.943 553.866L750.942 553.866L750.941 553.866C747.73 552.056 744.462 550.214 741.923 548.596C738.293 546.281 735.303 544.148 732.577 540.704C729.245 536.496 726.812 530.003 728.03 524.509C728.476 522.498 729.889 520.959 731.688 519.914C733.489 518.867 735.634 518.342 737.443 518.342C739.812 518.342 741.301 519.186 743.276 520.305C743.74 520.567 744.23 520.845 744.765 521.131C747.235 522.45 749.488 524.233 751.61 526.182C753.403 527.829 755.084 529.622 756.778 531.429L756.78 531.431L756.781 531.433C757.152 531.828 757.523 532.224 757.897 532.619C759.971 534.816 762.1 536.985 764.476 538.838C764.689 539.004 764.904 539.167 765.12 539.327L765.159 544.426C764.544 544.102 763.92 543.79 763.283 543.491C761.221 542.522 759.262 541.562 757.604 540.215C757.283 539.954 756.96 539.696 756.638 539.439L756.637 539.438C755.408 538.456 754.194 537.485 753.143 536.412C752.701 535.961 752.305 535.499 751.897 535.025C751.66 534.749 751.42 534.47 751.165 534.185C750.711 533.679 750.204 533.204 749.713 532.744C749.486 532.531 749.262 532.321 749.048 532.113C748.87 531.938 748.689 531.755 748.506 531.568C748.046 531.101 747.564 530.611 747.022 530.177C746.294 529.595 745.462 529.253 744.66 528.923L744.494 528.855C744.08 528.684 743.673 528.504 743.266 528.325C741.819 527.686 740.37 527.047 738.628 526.8C738.506 526.782 738.382 526.764 738.256 526.746L738.255 526.746C737.521 526.638 736.717 526.52 735.943 526.519C735.672 526.518 735.459 526.599 735.288 526.691C735.209 526.734 735.135 526.781 735.076 526.818L735.075 526.819C735.012 526.859 734.963 526.89 734.912 526.918C734.19 527.318 733.792 527.881 733.659 528.539C733.532 529.169 733.659 529.833 733.863 530.444C734.222 531.523 735.03 532.448 735.911 533.246C736.558 533.831 737.282 534.379 737.943 534.88L737.945 534.881C738.183 535.062 738.414 535.236 738.629 535.404C739.79 536.307 741.004 537.173 742.317 537.937C742.471 538.027 742.624 538.114 742.774 538.199C743.317 538.509 743.828 538.8 744.293 539.155C744.621 539.405 744.934 539.671 745.257 539.947L745.33 540.009C745.676 540.303 746.036 540.607 746.424 540.892C746.821 541.185 747.214 541.459 747.601 541.729C748.3 542.217 748.979 542.691 749.628 543.23C750.728 544.146 751.745 545.118 752.776 546.102L752.779 546.105C753.175 546.484 753.573 546.864 753.978 547.243C755.429 548.602 756.955 549.932 758.753 551.046C759.954 551.79 761.21 552.462 762.457 553.12L762.83 553.317C763.642 553.745 764.448 554.169 765.238 554.61Z" fill="#FFF"/>
<path d="M765.229 553.506L765.168 545.522C764.418 545.117 763.655 544.729 762.874 544.362C760.819 543.397 758.758 542.393 756.997 540.962C756.69 540.713 756.376 540.462 756.06 540.21C754.826 539.223 753.552 538.205 752.455 537.085C751.995 536.616 751.558 536.108 751.134 535.615L751.133 535.614L751.133 535.613C750.901 535.344 750.674 535.079 750.448 534.828C750.022 534.352 749.568 533.927 749.095 533.484C748.86 533.264 748.62 533.039 748.377 532.802C748.166 532.597 747.969 532.396 747.776 532.2C747.334 531.75 746.916 531.325 746.421 530.929C745.804 530.436 745.092 530.142 744.259 529.799L744.126 529.744C743.668 529.555 743.233 529.363 742.809 529.177C741.384 528.549 740.09 527.98 738.492 527.753C738.362 527.734 738.232 527.715 738.103 527.696C737.365 527.588 736.64 527.482 735.942 527.481C735.876 527.481 735.821 527.497 735.744 527.539C735.7 527.562 735.655 527.591 735.592 527.63L735.584 527.636C735.527 527.672 735.456 527.718 735.379 527.76C734.884 528.034 734.676 528.369 734.603 528.729C734.524 529.119 734.594 529.594 734.776 530.14C735.056 530.98 735.714 531.769 736.557 532.532C737.17 533.087 737.842 533.595 738.493 534.088C738.74 534.275 738.984 534.46 739.221 534.644C740.36 535.531 741.538 536.37 742.801 537.105C742.937 537.184 743.077 537.264 743.22 537.345C743.771 537.659 744.355 537.992 744.876 538.389C745.227 538.656 745.558 538.939 745.878 539.211L745.954 539.276C746.301 539.571 746.637 539.854 746.994 540.117C747.35 540.379 747.724 540.64 748.103 540.905C748.826 541.41 749.567 541.928 750.243 542.49C751.371 543.428 752.424 544.435 753.463 545.428C753.855 545.802 754.245 546.175 754.636 546.541C756.073 547.886 757.544 549.164 759.26 550.228C760.429 550.952 761.658 551.61 762.906 552.269L763.28 552.466C763.929 552.808 764.582 553.152 765.229 553.506Z" fill="#FFF"/>
<path d="M716.321 484.813L719.85 488.342C716.677 490.427 713.685 492.663 710.825 495.061C708.637 496.895 706.734 499.073 704.897 501.183C704.68 501.432 704.445 501.692 704.202 501.961L704.201 501.962C703.604 502.623 702.957 503.341 702.396 504.092C701.599 505.159 700.92 506.363 700.736 507.718C700.692 508.041 700.74 508.336 700.875 508.595C701.008 508.848 701.207 509.032 701.414 509.169C701.786 509.415 702.264 509.557 702.625 509.664L702.691 509.683C703.32 509.87 704.153 509.896 704.929 509.87C705.704 509.843 706.477 509.762 707.035 509.704L707.066 509.701C709.378 509.459 710.968 508.525 712.767 507.468C713.062 507.295 713.362 507.119 713.672 506.941C716.102 505.553 717.94 504.247 719.618 503.018C719.844 502.852 720.067 502.688 720.288 502.526C721.709 501.48 723.044 500.498 724.593 499.555C725.635 498.921 726.305 498.368 727.78 497.762L727.853 497.732C728.18 497.598 728.508 497.463 728.834 497.326L731.722 500.214L720.588 511.569C719.118 512.325 717.924 512.96 716.434 513.754L716.433 513.754C714.692 514.681 712.545 515.825 709.077 517.628C707.326 518.187 705.47 519.039 703.651 519.903C703.385 520.029 703.121 520.156 702.857 520.281C701.289 521.03 699.761 521.76 698.328 522.312C690.678 525.262 683.267 529.085 676.384 533.516C673.19 535.572 670.22 537.926 667.31 540.329C666.567 540.942 665.829 541.557 665.092 542.172C662.934 543.972 660.785 545.763 658.563 547.458C657.749 548.079 656.933 548.698 656.116 549.317L656.034 538.826C662.971 535.556 669.709 531.647 675.805 527.056C679.894 523.976 683.745 520.572 687.122 516.697C688.805 514.767 690.378 512.737 691.94 510.723C692.424 510.099 692.908 509.476 693.392 508.857C697.819 503.214 702.624 497.88 707.537 492.636C710.368 489.615 713.118 487.025 716.321 484.813Z" fill="#FFF"/>
<path d="M656.126 550.517L656.187 558.288C657.677 558.097 659.131 557.749 660.386 557.133C664.203 555.259 666.854 552.732 669.32 550.087C669.796 549.576 670.267 549.058 670.739 548.54L670.74 548.539C672.697 546.389 674.671 544.22 677.137 542.387C678.884 541.088 680.77 540.01 682.639 538.958L682.986 538.762C684.744 537.773 686.48 536.797 688.109 535.657C689.136 534.938 690.163 534.214 691.191 533.488L691.192 533.487C693.553 531.821 695.921 530.15 698.311 528.534C701.67 526.264 705.175 524.578 708.741 522.863C709.036 522.721 709.333 522.579 709.629 522.436L718.27 513.868C717.832 514.1 717.382 514.34 716.9 514.596L716.899 514.597C715.155 515.526 712.997 516.674 709.484 518.501L709.447 518.521L709.407 518.533C707.715 519.069 705.9 519.9 704.064 520.773C703.802 520.897 703.54 521.022 703.277 521.147C701.712 521.895 700.145 522.643 698.675 523.21C691.089 526.135 683.736 529.928 676.905 534.325C673.76 536.349 670.826 538.674 667.922 541.071C667.189 541.677 666.456 542.288 665.723 542.899L665.721 542.9C663.559 544.704 661.387 546.515 659.147 548.223C658.141 548.99 657.134 549.755 656.126 550.517Z" fill="#FFF"/>
<path d="M656.195 559.258L656.243 565.398C657.242 566.09 657.988 566.72 658.508 567.297C659.307 568.186 659.664 569.065 659.367 569.892C659.086 570.672 658.288 571.194 657.361 571.57C657.035 571.701 656.678 571.822 656.294 571.932L656.321 575.294L707.532 524.516C704.541 525.967 701.646 527.442 698.85 529.332C696.469 530.941 694.114 532.603 691.757 534.267C690.726 534.994 689.695 535.722 688.661 536.446C686.992 537.614 685.217 538.612 683.468 539.596L683.111 539.797C681.239 540.85 679.403 541.902 677.711 543.16C675.327 544.931 673.43 547.015 671.479 549.158C671 549.684 670.517 550.214 670.024 550.744C667.531 553.418 664.785 556.046 660.81 557.997C659.402 558.689 657.793 559.06 656.195 559.258Z" fill="#FFF"/>
<path d="M656.286 570.93L656.252 566.589C656.924 567.089 657.429 567.538 657.792 567.941C658.512 568.741 658.576 569.247 658.461 569.566C658.329 569.933 657.883 570.319 656.999 570.678C656.78 570.766 656.542 570.85 656.286 570.93Z" fill="#FFF"/>
<path d="M720.492 488.984L728.201 496.738C727.995 496.823 727.786 496.909 727.577 496.995L727.576 496.995L727.551 497.005C726.098 497.602 725.213 498.051 724.092 498.733C722.505 499.699 721.134 500.708 719.714 501.753C719.494 501.915 719.273 502.078 719.05 502.241C717.382 503.463 715.578 504.744 713.195 506.106C712.869 506.292 712.56 506.473 712.261 506.648L712.26 506.649L712.258 506.649C710.458 507.704 709.056 508.524 706.966 508.743L706.944 508.746C706.383 508.804 705.637 508.882 704.897 508.908C704.134 508.933 703.435 508.9 702.965 508.761L702.962 508.76C702.549 508.637 702.194 508.531 701.945 508.367C701.83 508.29 701.764 508.217 701.728 508.148C701.695 508.085 701.67 507.994 701.69 507.847C701.842 506.727 702.412 505.679 703.167 504.668C703.7 503.954 704.298 503.292 704.882 502.645C705.133 502.367 705.382 502.091 705.623 501.815C707.467 499.697 709.323 497.577 711.444 495.798C714.331 493.378 717.28 491.083 720.492 488.984Z" fill="#FFF"/>
<path d="M715.586 484.165L711.144 480L690.863 499.83C689.927 502.827 688.683 505.502 686.318 507.89C683.034 511.205 678.244 515.21 673.158 517.387L656 534.545L656.025 537.765C662.77 534.557 669.308 530.744 675.226 526.287C679.276 523.237 683.074 519.877 686.397 516.064C688.059 514.157 689.609 512.158 691.168 510.148L691.169 510.146L691.17 510.145L691.172 510.143C691.658 509.517 692.144 508.889 692.635 508.263C697.087 502.588 701.914 497.229 706.834 491.978C709.644 488.979 712.383 486.401 715.586 484.165Z" fill="#FFF"/>
<path d="M675.26 515.286C679.25 513.088 682.938 509.933 685.634 507.212C687.384 505.446 688.489 503.508 689.325 501.333L684.235 506.31L675.26 515.286Z" fill="#FFF"/>
</svg>
