<svg width="741" height="100" viewBox="0 0 741 100" fill="none" xmlns="http://www.w3.org/2000/svg">
<path d="M203.654 48.1905H192.607C191.976 48.1905 191.464 48.7025 191.464 49.3333C191.464 49.9642 191.976 50.4762 192.607 50.4762H203.654V61.5238C203.654 62.1547 204.166 62.6667 204.797 62.6667C205.428 62.6667 205.94 62.1547 205.94 61.5238V50.4762H216.988C217.619 50.4762 218.131 49.9642 218.131 49.3333C218.131 48.7025 217.619 48.1905 216.988 48.1905H205.94V37.1429C205.94 36.512 205.428 36 204.797 36C204.166 36 203.654 36.512 203.654 37.1429V48.1905Z" fill="#563213"/>
<g clip-path="url(#clip0_672_3098)">
<path d="M548.447 47.1746H535.113H524.066C523.435 47.1746 522.923 46.6626 522.923 46.0318C522.923 45.4009 523.435 44.8889 524.066 44.8889H537.399H548.447C549.078 44.8889 549.59 45.4009 549.59 46.0318C549.59 46.6626 549.078 47.1746 548.447 47.1746Z" fill="#563213"/>
<path d="M548.447 54.5397H535.113H524.066C523.435 54.5397 522.923 54.0277 522.923 53.3969C522.923 52.766 523.435 52.254 524.066 52.254H537.399H548.447C549.078 52.254 549.59 52.766 549.59 53.3969C549.59 54.0277 549.078 54.5397 548.447 54.5397Z" fill="#563213"/>
</g>
<path d="M0.26901 83.1551L45.1937 39.3048L65.6385 59.3583L25.2869 100H0.26901V83.1551Z" fill="#4E2705"/>
<path d="M64.0244 16.5775L0.26901 79.4118L0 45.4545L23.6729 21.9251L46.2332 0L64.0244 16.5775Z" fill="#A66C34"/>
<path d="M62.4103 100L46.0007 83.4225L68.0595 61.4973L91.4634 85.0267V100H62.4103Z" fill="#864C12"/>
<path d="M58.1062 100H29.3221L43.8486 85.0267L58.1062 100Z" fill="#F1AF76"/>
<path d="M91.4634 80.4813L91.1744 43.1546L65.9075 18.7166L47.6148 37.4332L91.4634 80.4813Z" fill="#EBB184"/>
<path d="M686.431 75.0639C687.08 74.7028 687.73 74.3416 688.376 73.9779L688.382 73.9746L688.384 73.9737C692.824 71.4742 697.112 68.8507 700.203 65.2554C700.66 64.7239 701.181 64.0858 701.513 63.4526C701.854 62.8026 701.932 62.282 701.72 61.9001C701.657 61.7865 701.532 61.6922 701.302 61.6286C701.07 61.5644 700.779 61.546 700.462 61.5504C698.634 61.5762 696.756 62.2551 694.919 62.9854C692.377 63.9962 689.991 65.2323 687.632 66.5992C687.224 66.8356 686.809 67.0721 686.391 67.3102C683.97 68.6892 681.448 70.1253 679.655 71.9407C678.893 72.7122 678.292 73.7133 678.002 74.703C677.71 75.6986 677.746 76.6252 678.165 77.3048C678.294 77.5152 678.545 77.6499 678.984 77.6748C679.425 77.6998 679.979 77.6071 680.584 77.442C681.493 77.1938 682.43 76.8092 683.161 76.509C683.406 76.4083 683.628 76.3171 683.819 76.2436C684.726 75.8935 685.525 75.5338 686.342 75.1133L686.431 75.0639Z" fill="#4E2705"/>
<path fill-rule="evenodd" clip-rule="evenodd" d="M711.165 56.5226L703.364 48.8241C694.608 52.0916 686.797 58.4228 680.43 65.1412C679.588 66.0294 678.757 66.9374 677.923 67.8482C676.156 69.7772 674.378 71.7189 672.465 73.5125C671.501 74.4167 670.583 75.3838 669.653 76.3631C669.294 76.7414 668.933 77.1216 668.567 77.5006C667.262 78.8527 665.903 80.1782 664.377 81.2887C661.992 83.0252 659.497 84.6873 657.029 86.3319C656.273 86.8353 655.52 87.337 654.773 87.8387C653.705 88.5564 652.585 89.1931 651.482 89.8204C651.278 89.9363 651.075 90.0519 650.873 90.1677C650.353 90.4647 649.84 90.7631 649.336 91.0715V96.4063C650.363 96.1022 651.405 95.84 652.44 95.584L652.78 95.5C653.843 95.2375 654.896 94.9775 655.93 94.6787C657.443 94.2415 658.962 93.854 660.475 93.4681C662.928 92.8425 665.365 92.2208 667.738 91.3975C668.57 91.1091 669.417 90.8868 670.248 90.6691L670.252 90.668L670.556 90.5882C671.49 90.342 672.401 90.0909 673.281 89.7427C673.955 89.4761 674.602 89.162 675.262 88.8411L675.264 88.8404L675.265 88.8397L675.269 88.8382C675.442 88.7538 675.617 88.669 675.793 88.5844C676.635 88.1814 677.505 87.7902 678.437 87.5266C679.059 87.3509 679.698 86.952 680.385 86.4845C680.49 86.4135 680.595 86.3408 680.702 86.2674C681.275 85.8729 681.878 85.4575 682.477 85.1768C684.228 84.3567 685.965 83.1102 687.609 81.9306C687.793 81.7981 687.977 81.6664 688.159 81.5363C689.951 80.2562 691.915 79.2171 693.873 78.2157C694.117 78.0913 694.36 77.9674 694.603 77.8438L694.605 77.8427C695.827 77.2206 697.039 76.6036 698.211 75.9385L705.516 68.5365C706.481 66.9121 707.326 65.2066 708.131 63.5698C708.736 62.3382 709.253 61.0662 709.777 59.7785L709.878 59.5286C710.286 58.5259 710.701 57.5158 711.165 56.5226ZM684.108 76.992C685.033 76.6349 685.848 76.268 686.676 75.8434C686.682 75.8407 686.688 75.8378 686.695 75.8347C686.699 75.8323 686.704 75.8298 686.709 75.8272L686.721 75.8206C687.372 75.485 688.033 75.1131 688.762 74.6818C689.114 74.5083 690.097 73.9304 690.469 73.708C694.324 71.471 698.031 69.0123 700.811 65.7783C701.268 65.2468 701.844 64.5477 702.223 63.8252C702.593 63.1195 702.84 62.266 702.422 61.5112C702.215 61.1393 701.861 60.9508 701.516 60.8554C701.172 60.7606 700.791 60.7436 700.45 60.7484C698.457 60.7765 696.451 61.5133 694.623 62.24C692.032 63.27 689.61 64.5261 687.23 65.9052C686.834 66.1346 686.427 66.3663 686.013 66.6017C683.598 67.9758 680.962 69.4755 679.084 71.377C678.235 72.2371 677.562 73.3524 677.232 74.4771C676.904 75.5961 676.9 76.782 677.482 77.7257C677.806 78.2519 678.369 78.4433 678.939 78.4757C679.508 78.5079 680.16 78.3892 680.795 78.2158C681.758 77.9529 682.771 77.5367 683.506 77.2349L683.507 77.2345C683.738 77.1396 683.942 77.056 684.108 76.992Z" fill="#4E2705"/>
<path d="M696.297 77.8784C695.854 78.1071 695.41 78.3328 694.968 78.558L694.967 78.5585C694.724 78.6824 694.481 78.8061 694.238 78.9299C692.28 79.931 690.364 80.9468 688.625 82.189C688.444 82.3188 688.26 82.4509 688.073 82.5845C686.44 83.7572 684.64 85.0494 682.817 85.9033C682.284 86.1531 681.746 86.5232 681.171 86.9186C681.061 86.9942 680.95 87.0708 680.837 87.1476C680.156 87.6108 679.418 88.083 678.655 88.2985C677.792 88.5424 676.974 88.9083 676.14 89.3078C675.97 89.3892 675.799 89.4723 675.627 89.556C674.963 89.8785 674.281 90.2098 673.576 90.4886C672.647 90.8561 671.695 91.1175 670.76 91.3638C670.657 91.391 670.554 91.4179 670.452 91.4448C669.618 91.6636 668.801 91.8778 668.001 92.1553C665.606 92.9864 663.1 93.6263 660.616 94.2605C659.11 94.6451 657.612 95.0276 656.153 95.4493C655.102 95.7527 654.034 96.0165 652.973 96.2784L652.633 96.3627C651.519 96.6381 650.416 96.9163 649.336 97.2436V100H663.24C664.371 98.6529 665.754 97.5797 667.172 96.6289C668.687 95.6124 670.512 95.0879 672.354 94.7951C674.03 94.5287 675.749 94.45 677.293 94.3793C677.447 94.3723 677.598 94.3654 677.748 94.3583C678.354 94.3298 678.956 94.3089 679.554 94.2882L679.557 94.2881C679.746 94.2815 679.934 94.275 680.122 94.2682L696.297 77.8784Z" fill="#4E2705"/>
<path d="M674.202 100H664.577C665.565 98.8699 666.461 98.0719 667.619 97.2951C668.998 96.3701 670.693 95.8714 672.48 95.5872C674.109 95.3283 675.783 95.2515 677.334 95.1804L677.439 95.1756C677.555 95.1703 677.671 95.165 677.785 95.1596C678.288 95.136 678.794 95.1175 679.302 95.0997L674.202 100Z" fill="#4E2705"/>
<path d="M707.596 66.4289C708.035 65.5807 708.45 64.7384 708.851 63.9238C709.469 62.6657 709.996 61.3688 710.517 60.0871L710.621 59.8308C710.993 58.9156 711.366 58.0092 711.772 57.1215L714.309 59.6257L707.596 66.4289Z" fill="#4E2705"/>
<path d="M681.74 51.6003L649.336 83.4225V90.1343C649.714 89.9087 650.094 89.6887 650.474 89.4714C650.68 89.3535 650.886 89.2365 651.091 89.1197C652.195 88.4922 653.285 87.8724 654.326 87.1729C655.077 86.6685 655.832 86.1656 656.587 85.662L656.589 85.6611L656.592 85.6589L656.593 85.658C659.059 84.0153 661.535 82.3659 663.905 80.6402C665.373 79.5721 666.692 78.2878 667.99 76.9435C668.345 76.5754 668.7 76.2018 669.056 75.8272C669.991 74.8417 670.934 73.8486 671.917 72.9273C673.808 71.1545 675.55 69.2518 677.304 67.3354C678.143 66.419 678.985 65.4994 679.848 64.5894C686.171 57.9181 693.958 51.5685 702.735 48.2042L693.988 39.5722L689.791 43.6946C690.562 43.9738 691.272 44.4064 691.879 45.0992C692.241 45.5137 692.522 46.0439 692.601 46.6039C692.682 47.1751 692.552 47.7762 692.093 48.2753C691.959 48.42 691.839 48.5748 691.705 48.7453C691.631 48.84 691.554 48.9395 691.468 49.0447C691.244 49.3196 690.98 49.614 690.655 49.824C689.973 50.2658 689.158 50.5409 688.352 50.736C687.692 50.8958 687.014 51.0068 686.402 51.1071C686.268 51.1292 686.137 51.1507 686.009 51.1721C684.581 51.4124 683.162 51.5382 681.74 51.6003Z" fill="#4E2705"/>
<path d="M682.606 50.7504C683.699 50.6798 684.786 50.5645 685.876 50.3811C686.01 50.3586 686.145 50.3363 686.282 50.3139L686.283 50.3137C686.894 50.2135 687.535 50.1084 688.163 49.9564C688.931 49.7704 689.646 49.5216 690.22 49.1506C690.433 49.0123 690.632 48.8004 690.846 48.5383C690.909 48.4608 690.976 48.3755 691.045 48.2873C691.191 48.1 691.349 47.8993 691.502 47.7322C691.778 47.4328 691.859 47.0819 691.807 46.7167C691.754 46.3402 691.557 45.9495 691.275 45.6274C690.686 44.9546 689.972 44.5658 689.145 44.3285L682.606 50.7504Z" fill="#4E2705"/>
<path d="M709.916 68.8318L713.248 65.4999C714.059 66.6912 715.017 67.8827 715.924 68.9583C717.31 70.6025 719.13 71.9011 720.944 72.9226C721.623 73.3052 722.348 73.6531 723.062 73.9958L723.584 74.2469L723.888 74.3953C724.869 74.8781 725.804 75.3818 726.618 76.0114C729.735 78.423 732.223 81.8563 734.179 85.3264C735.525 87.7154 736.446 90.3671 737.271 93.0192C737.712 94.4392 738.373 95.7127 739.025 96.9694L739.04 96.9993L739.245 97.3952L739.422 97.7399C739.552 97.995 739.679 98.2505 739.803 98.5075C739.954 98.8229 740.04 99.154 740.12 99.5172L740.224 100H731.856C731.671 99.8293 731.493 99.6488 731.312 99.4615L731.186 99.3315C731.003 99.1418 730.815 98.9462 730.609 98.7473C729.725 97.8909 728.664 97.2588 727.648 96.654L727.624 96.6396C726.587 96.0218 725.598 95.4301 724.782 94.6393C723.227 93.1307 721.534 91.9132 719.721 90.7656C718.853 90.2165 717.923 89.793 717.025 89.384L716.87 89.3135C715.915 88.878 715 88.4506 714.171 87.8861C712.722 86.8992 711.303 85.9075 710.095 84.6841C709.608 84.1904 709.199 83.615 708.774 83.0081L708.736 82.9544C708.328 82.3729 707.901 81.7634 707.389 81.2302C706.364 80.1624 705.557 78.6884 705.084 77.2725C704.801 76.4275 704.431 75.5716 704.012 74.7354L706.793 71.9552C706.942 72.0276 707.076 72.0949 707.189 72.155C707.292 72.21 707.37 72.2547 707.426 72.2888C707.473 72.3174 707.504 72.3384 707.52 72.3517C709.593 74.051 711.306 76.3166 712.622 78.6826C713.14 79.6145 713.751 80.507 714.347 81.3758C714.593 81.7349 714.836 82.09 715.069 82.4421C715.603 83.2514 716.281 84.0687 716.911 84.8301C717.086 85.0409 717.257 85.2474 717.421 85.4482C719.279 87.7302 722.232 89.1711 725.126 89.1711C726.207 89.1711 727.187 89.1248 728.278 88.7896C728.439 88.7403 728.59 88.6578 728.703 88.5253C728.82 88.389 728.871 88.2304 728.88 88.0776C728.896 87.8002 728.775 87.524 728.665 87.3175C728.548 87.0986 728.396 86.8782 728.273 86.6992L728.271 86.6958C728.134 86.4964 728.05 86.3717 728.018 86.2988C727.564 85.2694 726.935 84.2744 726.331 83.3217C726.087 82.9371 725.848 82.5594 725.627 82.1892L725.415 81.831L725.257 81.562C724.632 80.4934 723.978 79.3761 723.097 78.4419L722.574 77.8823C721.617 76.8512 720.56 75.7126 719.396 74.9002C718.649 74.3782 717.846 73.9673 717.066 73.5758L716.909 73.497C716.177 73.1301 715.469 72.7752 714.806 72.3456C713.085 71.2294 711.46 70.0885 709.916 68.8318Z" fill="#864C12"/>
<path d="M730.551 99.8306L730.715 100H718.934C718.775 99.8197 718.605 99.6487 718.436 99.4878C718.142 99.2082 717.831 98.9421 717.543 98.6972L717.514 98.6723C717.214 98.4166 716.948 98.1879 716.737 97.9772C716.363 97.6037 715.951 97.259 715.554 96.9276L715.242 96.6657C714.746 96.2458 714.288 95.831 713.913 95.352C713.176 94.4109 712.33 93.5688 711.502 92.7437L711.499 92.7405C711.173 92.4165 710.85 92.0951 710.537 91.7713C709.927 91.1396 709.372 90.458 708.803 89.7598L708.716 89.6527C708.121 88.922 707.508 88.1766 706.818 87.488C705.148 85.8203 703.525 84.121 701.894 82.4137L700.699 81.1644C700.281 80.7273 699.795 80.3529 699.332 80.0005L699.249 79.9375L699 79.7475L703.413 75.3343C703.768 76.0633 704.08 76.8015 704.323 77.527C704.825 79.0297 705.686 80.6146 706.811 81.7858C707.279 82.2737 707.675 82.8389 708.094 83.4361L708.117 83.4687C708.538 84.0685 708.982 84.6988 709.524 85.2477C710.794 86.5336 712.274 87.5646 713.719 88.5491C714.612 89.1572 715.587 89.6101 716.538 90.0434L716.679 90.1076C717.588 90.5222 718.472 90.9246 719.292 91.4434C721.08 92.5751 722.723 93.7592 724.224 95.2151C725.114 96.0781 726.18 96.7134 727.199 97.3202L727.213 97.3288C728.251 97.9467 729.239 98.5365 730.051 99.3235C730.214 99.481 730.38 99.6531 730.551 99.8306Z" fill="#864C12"/>
<path d="M698.428 80.3196C698.538 80.4041 698.647 80.4871 698.755 80.569L698.847 80.6389C699.093 80.8258 699.33 81.0082 699.553 81.1952C699.754 81.364 699.945 81.5365 700.12 81.7193L701.311 82.9648C702.942 84.6727 704.574 86.3805 706.252 88.0556C706.909 88.7113 707.497 89.4263 708.094 90.1593L708.197 90.2855C708.757 90.9735 709.329 91.6753 709.96 92.3285C710.293 92.6729 710.625 93.0043 710.955 93.3318L710.968 93.345C711.784 94.1572 712.576 94.9456 713.281 95.8463C713.709 96.3934 714.221 96.852 714.723 97.2778L715.054 97.5558C715.447 97.884 715.824 98.1989 716.17 98.5449C716.3 98.6742 716.446 98.8074 716.599 98.9425C716.727 99.0548 716.86 99.1685 716.993 99.2825L717.017 99.3024L717.037 99.3202C717.297 99.5414 717.561 99.7666 717.81 100H711.635L695.325 83.4225L698.428 80.3196Z" fill="#864C12"/>
<path d="M709.346 69.4019L707.391 71.3565L707.565 71.4467C707.752 71.5459 707.923 71.6455 708.028 71.7313C710.2 73.5111 711.972 75.8643 713.323 78.2928C713.822 79.1904 714.4 80.0331 714.985 80.8884C715.236 81.2548 715.489 81.6235 715.737 81.9998C716.246 82.7691 716.885 83.5406 717.512 84.2972L717.825 84.6765L718.043 84.9417C719.754 87.0436 722.483 88.369 725.126 88.369C726.184 88.369 727.068 88.3222 728.043 88.0228L728.079 88.0098C728.074 87.9592 728.044 87.858 727.958 87.6962C727.923 87.631 727.883 87.5642 727.841 87.4965C727.807 87.4432 727.772 87.3892 727.736 87.3349L727.59 87.1217C727.532 87.037 727.468 86.9449 727.412 86.8546C727.361 86.7734 727.315 86.6936 727.284 86.6222C726.856 85.6506 726.278 84.7379 725.688 83.8069L725.542 83.5768L725.323 83.2279L725.123 82.9068L724.939 82.6008C724.808 82.3811 724.679 82.1622 724.552 81.9451C723.926 80.8777 723.326 79.8539 722.513 78.9922C722.334 78.8015 722.153 78.6075 721.972 78.4124C721.012 77.3797 720.023 76.3165 718.937 75.5578C718.243 75.0732 717.489 74.6855 716.706 74.2927L716.541 74.21L716.535 74.2067C715.813 73.8451 715.069 73.4721 714.369 73.0186C712.609 71.8768 710.938 70.703 709.346 69.4019Z" fill="#864C12"/>
<path d="M740.512 85.0267V98.1333C740.246 97.5788 739.972 97.0511 739.703 96.5332C739.065 95.3041 738.456 94.1297 738.037 92.7811C737.209 90.1197 736.268 87.3997 734.878 84.9325C732.896 81.417 730.345 77.8809 727.109 75.377C726.228 74.6961 725.234 74.1636 724.242 73.6756C723.954 73.534 723.669 73.3968 723.385 73.261C722.68 72.9227 721.992 72.5926 721.337 72.2237C719.57 71.2282 717.839 69.9854 716.537 68.4413C715.603 67.3334 714.63 66.1201 713.826 64.9223L717.25 61.4973L740.512 85.0267Z" fill="#864C12"/>
<path d="M693.186 85.0267L696.059 88.0627L695.998 88.1306C695.963 88.168 695.929 88.2027 695.896 88.2344C695.138 88.9568 694.311 89.4104 693.345 89.9396L692.998 90.1306C692.637 90.3303 692.234 90.4976 691.803 90.6649L691.476 90.7904C691.294 90.8601 691.107 90.9312 690.921 91.0052L690.634 91.1228L690.484 91.1868C689.607 91.5688 688.732 92.0797 688.177 93.0036C687.952 93.3789 687.815 93.7762 687.695 94.1406L687.655 94.2634L687.654 94.268L687.575 94.5075L687.513 94.6845C687.494 94.7394 687.474 94.7937 687.453 94.8473C687.418 94.9376 687.381 95.0262 687.34 95.1135L687.312 95.1723C687.217 95.3659 687.11 95.5602 686.994 95.7701C686.905 95.9294 686.812 96.0977 686.716 96.2816C686.507 96.6782 686.301 97.1189 686.213 97.54C686.084 98.1627 685.981 98.7117 685.981 99.3889C685.981 99.4614 685.987 99.5399 685.991 99.598L685.994 99.6362L685.994 99.6425C685.845 99.6958 685.737 99.8348 685.729 100H681.435L681.46 99.9402C681.507 99.8311 681.558 99.7224 681.615 99.607L681.632 99.57L681.64 99.5545C681.703 99.4225 681.772 99.2805 681.832 99.1359C682.295 98.0242 682.656 96.8647 682.912 95.6815L693.186 85.0267Z" fill="#F1AF76"/>
<path d="M681.79 96.8453L678.748 100H680.583C680.623 99.8675 680.672 99.742 680.723 99.624C680.782 99.4863 680.847 99.3512 680.908 99.226L680.918 99.2055C680.982 99.0714 681.041 98.9485 681.091 98.8274C681.36 98.1823 681.593 97.5199 681.79 96.8453Z" fill="#F1AF76"/>
<path d="M702.569 100H692.776C693.494 98.0545 694.499 96.3987 695.99 94.7945C696.704 94.0265 697.941 93.3718 698.964 92.8766C699.349 92.6904 699.74 92.5228 700.135 92.3692L704.85 97.3506C704.679 97.5656 704.495 97.7773 704.303 97.9909L703.992 98.3318C703.717 98.6311 703.434 98.9397 703.177 99.2546L703.021 99.4426C702.887 99.6023 702.725 99.7952 702.569 100Z" fill="#F1AF76"/>
<path d="M703.6 100H707.357L705.406 97.9385C705.241 98.142 705.069 98.3376 704.899 98.5277L704.568 98.8912C704.299 99.1838 704.041 99.4659 703.799 99.7617L703.615 99.9834C703.61 99.9889 703.605 99.9944 703.6 100Z" fill="#F1AF76"/>
<path d="M695.403 94.2484C693.763 96.0118 692.682 97.8419 691.923 100H686.759L686.776 99.9396C686.782 99.9149 686.786 99.8914 686.789 99.8697C686.805 99.7628 686.799 99.6551 686.794 99.5825L686.789 99.5205L686.788 99.5011C686.785 99.4579 686.783 99.424 686.783 99.3889C686.783 99.0836 686.807 98.8074 686.847 98.5266C686.871 98.3619 686.901 98.1956 686.935 98.0208L686.999 97.703C687.062 97.3994 687.222 97.0431 687.426 96.6543C687.503 96.5082 687.59 96.3502 687.677 96.1914C687.805 95.9597 687.934 95.7264 688.032 95.5258C688.197 95.191 688.311 94.8425 688.414 94.5256L688.418 94.5113L688.457 94.3902C688.577 94.0275 688.69 93.7069 688.865 93.4163C689.289 92.7094 689.976 92.283 690.804 91.9221C690.965 91.8519 691.128 91.7855 691.293 91.7206L691.574 91.6115L691.747 91.5453L692.093 91.4127C692.53 91.2432 692.975 91.0599 693.386 90.8326L693.734 90.6416C694.689 90.1187 695.61 89.6142 696.45 88.8152C696.485 88.7821 696.52 88.7469 696.555 88.7099L696.613 88.6475L699.542 91.7423C699.23 91.8699 698.92 92.0066 698.615 92.1545C697.607 92.6421 696.234 93.3541 695.403 94.2484Z" fill="#F1AF76"/>
<path d="M712.666 20.9113L696.395 37.4332L740.512 81.016L740.435 70.9098C739.45 70.0931 738.495 69.1671 737.551 68.1937C737.053 67.6805 736.095 66.9942 734.816 66.1858C733.546 65.3837 731.993 64.4816 730.33 63.5361C729.594 63.118 728.837 62.6912 728.074 62.2612C725.395 60.7516 722.643 59.2013 720.507 57.8394C717.462 55.8977 714.878 54.0618 712.521 51.0848C709.652 47.4617 707.494 41.8091 708.578 36.9175C709.012 34.9592 710.377 33.5146 712.006 32.5679C713.633 31.6222 715.561 31.1497 717.205 31.1497C719.408 31.1497 720.854 31.9722 722.52 32.9199C722.894 33.1323 723.278 33.351 723.685 33.5681C725.826 34.7116 727.76 36.2465 729.554 37.8945C731.072 39.289 732.497 40.8094 733.91 42.3168C734.218 42.6452 734.526 42.9729 734.833 43.2986C736.558 45.1259 738.297 46.8951 740.226 48.3987L740.262 48.4265L740.225 43.6894L729.034 32.7992C726.243 31.8127 723.577 30.5173 721.234 28.684C720.307 27.9583 719.495 27.137 718.709 26.3297L718.543 26.1595C717.811 25.406 717.097 24.6713 716.307 24.0107C716.022 23.772 715.741 23.5269 715.462 23.283C714.665 22.5869 713.522 21.4119 712.666 20.9113Z" fill="#EBB184"/>
<path d="M727.582 31.3867L714.754 18.7624L713.24 20.3209C714.114 20.8609 715.283 22.0592 716.042 22.723C716.308 22.9558 716.568 23.1831 716.822 23.3954C717.645 24.0838 718.387 24.8471 719.113 25.5948L719.284 25.7703C720.071 26.5789 720.849 27.364 721.728 28.0523C723.511 29.4473 725.491 30.5226 727.582 31.3867Z" fill="#EBB184"/>
<path d="M740.367 62.1753L740.426 69.8481C739.657 69.1731 738.894 68.4265 738.126 67.6352C737.554 67.0452 736.52 66.3139 735.244 65.5076C733.958 64.6949 732.391 63.7851 730.726 62.8388C729.983 62.4165 729.221 61.987 728.455 61.5554L728.455 61.5551L728.454 61.5546C725.778 60.0467 723.054 58.512 720.938 57.163C717.914 55.2345 715.422 53.4565 713.15 50.5868C710.373 47.0803 708.346 41.6694 709.361 37.0911C709.733 35.415 710.91 34.1329 712.409 33.2614C713.91 32.389 715.698 31.9519 717.205 31.9519C719.18 31.9519 720.42 32.6546 722.066 33.5872C722.453 33.806 722.861 34.0376 723.307 34.2757C725.365 35.3748 727.243 36.8607 729.011 38.4853C730.505 39.8575 731.906 41.3513 733.318 42.8577L733.319 42.8591L733.321 42.8605C733.629 43.1899 733.939 43.5199 734.25 43.8493C735.978 45.6798 737.752 47.4875 739.733 49.0313C739.91 49.1697 740.089 49.3057 740.269 49.4393L740.302 53.6886C739.79 53.4187 739.269 53.1581 738.739 52.9089C737.02 52.1017 735.388 51.3018 734.006 50.1792C733.738 49.9617 733.469 49.7467 733.201 49.5322L733.2 49.5318C732.176 48.7132 731.164 47.9044 730.288 47.0097C729.92 46.634 729.59 46.2493 729.25 45.854C729.053 45.6245 728.853 45.3914 728.64 45.1545C728.262 44.7326 727.839 44.3367 727.43 43.9534C727.241 43.7758 727.054 43.6008 726.876 43.4273C726.727 43.282 726.577 43.1293 726.424 42.9736C726.041 42.5841 725.639 42.1755 725.187 41.8142C724.581 41.3292 723.887 41.0438 723.219 40.769L723.081 40.7121C722.736 40.5698 722.397 40.4202 722.058 40.2705C720.852 39.7386 719.644 39.206 718.192 38.9998C718.091 38.9854 717.988 38.9702 717.883 38.9548L717.882 38.9547C717.27 38.8648 716.6 38.7666 715.955 38.7657C715.729 38.7654 715.552 38.8326 715.41 38.909C715.343 38.9446 715.282 38.9838 715.233 39.015L715.232 39.0157C715.179 39.0493 715.138 39.0752 715.096 39.0985C714.494 39.4319 714.162 39.9011 714.052 40.4493C713.946 40.9738 714.051 41.5272 714.221 42.0368C714.521 42.9356 715.194 43.707 715.929 44.3716C716.467 44.859 717.071 45.3161 717.622 45.7334L717.623 45.7342C717.822 45.8848 718.014 46.0302 718.194 46.17C719.161 46.9222 720.173 47.6442 721.267 48.2808C721.395 48.3558 721.522 48.4282 721.647 48.4994C722.1 48.7576 722.526 49 722.913 49.2956C723.187 49.5045 723.447 49.726 723.717 49.9558L723.777 50.0072C724.066 50.2528 724.366 50.5061 724.689 50.7436C725.02 50.9871 725.348 51.2158 725.67 51.441C726.253 51.8475 726.819 52.2426 727.359 52.692C728.276 53.4548 729.124 54.2648 729.982 55.0852L729.985 55.0878C730.315 55.4031 730.647 55.7199 730.984 56.0362C732.193 57.1682 733.465 58.2766 734.964 59.2052C735.964 59.8252 737.011 60.3849 738.05 60.9335L738.361 61.0974C739.038 61.4539 739.709 61.8079 740.367 62.1753Z" fill="#EBB184"/>
<path d="M740.36 61.255L740.309 54.6014C739.684 54.2639 739.048 53.9405 738.398 53.635C736.685 52.8304 734.968 51.9941 733.5 50.8018C733.244 50.5938 732.983 50.3851 732.72 50.1747C731.691 49.3527 730.629 48.5041 729.715 47.571C729.332 47.1798 728.968 46.7566 728.615 46.3457L728.614 46.3447L728.613 46.3443C728.42 46.1201 728.231 45.8995 728.043 45.6899C727.688 45.2937 727.309 44.9394 726.915 44.57C726.719 44.3867 726.519 44.1995 726.316 44.0017C726.141 43.8309 725.977 43.6636 725.816 43.5002C725.448 43.1253 725.099 42.7705 724.686 42.4406C724.173 42.0298 723.58 41.7853 722.885 41.4992L722.775 41.4535C722.393 41.2958 722.03 41.1361 721.677 40.9807C720.489 40.4578 719.411 39.9832 718.08 39.7939C717.971 39.7785 717.863 39.7627 717.755 39.7469C717.14 39.6569 716.536 39.5686 715.954 39.5678C715.899 39.5678 715.853 39.5811 715.789 39.6157C715.753 39.6353 715.715 39.6589 715.663 39.6921L715.656 39.6966C715.609 39.7268 715.549 39.7646 715.485 39.8003C715.073 40.0284 714.899 40.3073 714.838 40.6079C714.773 40.9322 714.831 41.3283 714.982 41.7829C715.216 42.4832 715.764 43.1409 716.467 43.7769C716.977 44.2388 717.537 44.6628 718.08 45.0737C718.286 45.2295 718.489 45.3835 718.686 45.5369C719.636 46.2758 720.618 46.9749 721.67 47.5876C721.784 47.6537 721.9 47.7201 722.019 47.7876C722.478 48.0492 722.965 48.3263 723.4 48.6578C723.692 48.8804 723.968 49.1155 724.234 49.3425L724.297 49.3964C724.587 49.6426 724.867 49.8787 725.164 50.0973C725.461 50.3157 725.773 50.5333 726.088 50.7539C726.691 51.1748 727.309 51.6066 727.872 52.0754C728.812 52.8571 729.69 53.696 730.555 54.5231C730.882 54.8352 731.207 55.1456 731.533 55.4506C732.73 56.5718 733.956 57.637 735.386 58.5234C736.36 59.1271 737.385 59.6752 738.425 60.2241L738.736 60.3883C739.277 60.6733 739.821 60.96 740.36 61.255Z" fill="#EBB184"/>
<path d="M699.603 4.01069L702.544 6.95187C699.9 8.68879 697.407 10.5522 695.024 12.5507C693.2 14.0795 691.614 15.8942 690.083 17.6524C689.902 17.8599 689.707 18.0764 689.505 18.3007L689.504 18.3017C689.006 18.8526 688.467 19.4504 687.999 20.0767C687.335 20.9661 686.77 21.9695 686.616 23.098C686.58 23.3675 686.619 23.6137 686.732 23.8293C686.843 24.0401 687.009 24.1937 687.181 24.3077C687.491 24.5129 687.889 24.6308 688.19 24.7198L688.245 24.736C688.77 24.892 689.464 24.9133 690.111 24.8913C690.756 24.8694 691.401 24.8018 691.865 24.7532L691.891 24.7505C693.817 24.5489 695.142 23.7707 696.641 22.8903C696.887 22.746 697.138 22.599 697.396 22.4512C699.421 21.2942 700.953 20.206 702.351 19.1815C702.54 19.0435 702.725 18.9069 702.909 18.7715C704.093 17.9001 705.206 17.0816 706.497 16.2959C707.365 15.7672 707.924 15.3066 709.152 14.8017L709.214 14.7764C709.486 14.6647 709.76 14.5521 710.031 14.4385L712.438 16.8449L703.16 26.3074C701.934 26.9376 700.94 27.467 699.698 28.1282L699.697 28.1286C698.246 28.9011 696.457 29.8538 693.567 31.3569C692.108 31.8223 690.561 32.5324 689.045 33.2526C688.824 33.3577 688.603 33.463 688.383 33.5679C687.077 34.1917 685.803 34.7997 684.61 35.2599C678.234 37.718 672.058 40.9042 666.323 44.5966C663.661 46.31 661.186 48.272 658.761 50.274C658.142 50.7848 657.527 51.2978 656.913 51.8099C655.114 53.3097 653.324 54.8026 651.472 56.2148C650.793 56.7322 650.114 57.2485 649.433 57.764L649.364 49.0214C655.145 46.2963 660.76 43.0388 665.84 39.2132C669.248 36.647 672.457 33.8097 675.271 30.5807C676.673 28.9721 677.984 27.2812 679.286 25.6026C679.69 25.0822 680.092 24.5631 680.496 24.0479C684.185 19.3453 688.189 14.8998 692.283 10.5303C694.642 8.01253 696.935 5.85406 699.603 4.01069Z" fill="#A66C34"/>
<path d="M649.441 58.764L649.492 65.2403C650.733 65.0806 651.945 64.7908 652.991 64.2775C656.172 62.716 658.381 60.6104 660.436 58.4062C660.833 57.9799 661.225 57.5486 661.619 57.1163L661.619 57.1158C663.25 55.3241 664.895 53.5166 666.95 51.9893C668.406 50.9067 669.977 50.0082 671.535 49.1315L671.824 48.9687C673.29 48.1445 674.736 47.331 676.094 46.3808C676.949 45.782 677.805 45.1781 678.662 44.5734L678.663 44.5724C680.63 43.1841 682.604 41.7914 684.595 40.4451C687.394 38.5535 690.316 37.1483 693.286 35.7194C693.533 35.6009 693.78 35.4821 694.027 35.3629L701.228 28.2231C700.862 28.4169 700.487 28.6165 700.086 28.8302L700.085 28.8308C698.632 29.6046 696.834 30.5621 693.906 32.0845L693.875 32.1006L693.842 32.111C692.432 32.5575 690.919 33.2503 689.389 33.9771C689.171 34.0808 688.952 34.1851 688.734 34.2895C687.429 34.9124 686.123 35.536 684.898 36.0083C678.577 38.4456 672.45 41.6063 666.757 45.2711C664.136 46.9579 661.691 48.8952 659.271 50.8927C658.66 51.3974 658.049 51.9064 657.438 52.4161L657.437 52.417C655.635 53.9198 653.825 55.4289 651.958 56.8526C651.12 57.4919 650.281 58.1288 649.441 58.764Z" fill="#A66C34"/>
<path d="M649.498 66.048L649.538 71.1654C650.371 71.7417 650.993 72.2665 651.426 72.7477C652.092 73.4884 652.389 74.2207 652.142 74.9099C651.908 75.5599 651.242 75.9947 650.47 76.3079C650.199 76.4179 649.901 76.5182 649.581 76.6102L649.603 79.4118L692.279 37.0963C689.787 38.3055 687.374 39.5348 685.045 41.1096C683.06 42.4512 681.097 43.8361 679.134 45.2221C678.275 45.8283 677.415 46.4349 676.554 47.0379C675.162 48.0117 673.683 48.8435 672.226 49.6633L671.928 49.8304C670.368 50.7087 668.839 51.5847 667.428 52.6331C665.442 54.1095 663.861 55.8456 662.235 57.6316C661.836 58.0701 661.434 58.5117 661.022 58.9531C658.945 61.1814 656.656 63.3715 653.345 64.9975C652.171 65.5738 650.83 65.8836 649.498 66.048Z" fill="#A66C34"/>
<path d="M649.575 75.7749L649.546 72.1578C650.106 72.5738 650.527 72.9482 650.829 73.2842C651.429 73.9506 651.482 74.3725 651.387 74.6386C651.277 74.944 650.905 75.2658 650.168 75.5646C649.986 75.6386 649.787 75.7086 649.575 75.7749Z" fill="#A66C34"/>
<path d="M703.079 7.48663L709.503 13.948C709.331 14.0191 709.158 14.0905 708.983 14.1622L708.983 14.1624L708.962 14.1711C707.751 14.6686 707.013 15.0423 706.08 15.6107C704.756 16.4161 703.614 17.2569 702.431 18.1274C702.248 18.2624 702.063 18.3981 701.877 18.5345C700.488 19.5524 698.984 20.62 696.998 21.7548C696.727 21.9098 696.469 22.0609 696.22 22.2066L696.219 22.2073L696.218 22.2079C694.718 23.0864 693.55 23.7704 691.808 23.9527L691.789 23.9546C691.321 24.0036 690.7 24.0686 690.083 24.0896C689.448 24.1112 688.865 24.0835 688.474 23.9671L688.471 23.9664C688.126 23.864 687.831 23.776 687.624 23.6389C687.528 23.5754 687.473 23.5144 687.443 23.457C687.415 23.4044 687.394 23.3287 687.411 23.2059C687.538 22.2726 688.013 21.3991 688.642 20.5566C689.086 19.9617 689.584 19.4101 690.071 18.8706C690.28 18.6388 690.488 18.4091 690.688 18.1792C692.225 16.4139 693.772 14.6472 695.539 13.1653C697.945 11.148 700.403 9.2362 703.079 7.48663Z" fill="#A66C34"/>
<path d="M698.991 3.47043L695.289 0L678.388 16.5249C677.608 19.0225 676.572 21.252 674.601 23.2413C671.864 26.0038 667.873 29.3417 663.635 31.1559L649.336 45.4545L649.357 48.1372C654.978 45.4643 660.426 42.2863 665.358 38.5724C668.732 36.031 671.898 33.2308 674.667 30.0537C676.052 28.4641 677.344 26.7983 678.642 25.1235L678.644 25.122L678.644 25.1212L678.646 25.1191C679.051 24.5972 679.456 24.0744 679.865 23.5528C683.575 18.8229 687.598 14.3577 691.698 9.98186C694.04 7.48254 696.321 5.33405 698.991 3.47043Z" fill="#A66C34"/>
<path d="M665.386 29.4046C668.711 27.5731 671.784 24.9444 674.031 22.6768C675.489 21.2051 676.41 19.5897 677.107 17.7778L672.865 21.9251L665.386 29.4046Z" fill="#A66C34"/>
<path fill-rule="evenodd" clip-rule="evenodd" d="M417.563 27.0029L405.266 14.8677C391.278 20.0751 378.795 30.1889 368.615 40.9305C367.272 42.3467 365.945 43.7958 364.614 45.2503L364.614 45.2504L364.613 45.2505C361.79 48.3345 358.944 51.4424 355.884 54.3112C354.345 55.7534 352.882 57.2952 351.397 58.8589L351.397 58.859L351.397 58.8592L351.397 58.8593C350.822 59.4643 350.245 60.0726 349.659 60.6797C347.572 62.8412 345.396 64.9647 342.95 66.745C339.137 69.521 335.148 72.1785 331.203 74.8065L331.203 74.8068L331.202 74.8072L331.201 74.8079L331.2 74.8085L331.198 74.8099C329.993 75.6129 328.792 76.4132 327.601 77.2133C325.89 78.3625 324.097 79.3821 322.335 80.3843L322.334 80.3843L322.334 80.3844L322.328 80.3878C322.074 80.5325 321.82 80.6769 321.567 80.8213C323.049 82.9413 325.129 85.426 328.022 88.319C328.469 88.1986 328.915 88.075 329.358 87.947C331.783 87.2463 334.213 86.6265 336.632 86.0097L336.632 86.0097L336.632 86.0097L336.632 86.0096C340.547 85.0112 344.432 84.0203 348.22 82.7059C349.553 82.2436 350.912 81.8873 352.238 81.5396L352.238 81.5395L352.238 81.5395L352.238 81.5395L352.248 81.5369C352.409 81.4947 352.57 81.4525 352.73 81.4103C354.222 81.017 355.672 80.6171 357.072 80.0634C358.144 79.6391 359.173 79.1396 360.229 78.6272L360.229 78.627L360.23 78.6265C360.511 78.4901 360.794 78.3528 361.08 78.2157C362.425 77.5714 363.822 76.9427 365.321 76.5189C366.296 76.2436 367.304 75.6162 368.403 74.8685C368.568 74.7559 368.736 74.6403 368.906 74.5233L368.906 74.5232L368.906 74.5232C369.821 73.893 370.794 73.2231 371.76 72.7705C374.548 71.4646 377.315 69.4791 379.943 67.5933C380.238 67.3817 380.531 67.1714 380.822 66.9635C383.693 64.9129 386.836 63.2495 389.966 61.6494C390.356 61.4498 390.746 61.2513 391.135 61.0532C393.207 59.9989 395.257 58.9551 397.231 57.8197L408.294 46.6095C409.929 43.9059 411.348 41.0437 412.699 38.2965C413.665 36.3321 414.49 34.3028 415.326 32.2444L415.488 31.8462C416.144 30.2326 416.813 28.6042 417.563 27.0029ZM393.641 61.4576C393.033 61.7707 392.424 62.0806 391.817 62.3897L391.813 62.3918L391.812 62.3919L391.811 62.3928C391.422 62.5903 391.035 62.7875 390.649 62.985C387.52 64.5845 384.465 66.2043 381.694 68.1841C381.404 68.3913 381.11 68.6024 380.812 68.8161C378.204 70.6889 375.319 72.76 372.396 74.1289C371.553 74.524 370.702 75.1092 369.783 75.7409L369.783 75.7412C369.607 75.8623 369.428 75.9851 369.247 76.1086C368.16 76.8482 366.967 77.6125 365.729 77.9624C364.36 78.3493 363.059 78.9305 361.728 79.5685C361.458 79.698 361.185 79.8303 360.911 79.9637L360.91 79.9639L360.91 79.964L360.91 79.9641L360.91 79.9642C359.848 80.4797 358.754 81.0111 357.624 81.4582C356.133 82.0481 354.606 82.4672 353.112 82.8608L352.934 82.9077L352.62 82.9902L352.619 82.9903L352.619 82.9903L352.619 82.9904C351.286 83.34 349.986 83.6811 348.712 84.123C344.881 85.452 340.867 86.4771 336.895 87.4916C334.49 88.1059 332.099 88.7164 329.774 89.3881C329.603 89.4375 329.432 89.4862 329.26 89.5343C329.757 90.0125 330.274 90.5012 330.814 91.0005C334.297 94.2221 337.514 96.3789 340.428 97.7713C342.402 95.3386 344.71 92.8075 347.29 91.0774C349.73 89.4407 352.663 88.5992 355.614 88.13C358.298 87.7034 361.051 87.5774 363.518 87.4645C363.763 87.4533 364.005 87.4422 364.244 87.431C365.216 87.3853 366.178 87.3519 367.135 87.3187L367.136 87.3187L367.136 87.3187C367.477 87.3069 367.817 87.2951 368.156 87.2828L393.641 61.4576ZM358.584 96.9818C358.584 96.9818 352.375 102.694 341.85 98.4013C343.726 96.117 345.831 93.8623 348.125 92.3232C350.31 90.8577 353.002 90.0642 355.85 89.6114C358.445 89.1988 361.115 89.0763 363.594 88.9626H363.594C363.836 88.9515 364.076 88.9405 364.314 88.9293C365.078 88.8934 365.848 88.865 366.621 88.8378L358.584 96.9818ZM412.2 42.6516C412.844 41.4001 413.454 40.1598 414.045 38.9585C415.036 36.9446 415.879 34.8689 416.711 32.8218L416.711 32.8214L416.878 32.4113C417.467 30.9613 418.056 29.5269 418.697 28.1228L422.669 32.0424L412.2 42.6516ZM370.513 19.3333L318.852 70.0661C318.852 70.0661 316.325 72.5933 320.733 79.5699C321.017 79.4077 321.301 79.2464 321.584 79.0856L321.602 79.0754L321.604 79.0742C323.367 78.0714 325.104 77.0835 326.764 75.9682C327.966 75.1605 329.175 74.3553 330.385 73.5492L330.389 73.5466C334.328 70.9219 338.282 68.2883 342.067 65.5323C344.404 63.8314 346.507 61.7848 348.58 59.6379C349.144 59.0531 349.708 58.459 350.274 57.8627L350.277 57.8603L350.278 57.8593L350.28 57.8571L350.28 57.857L350.28 57.857C351.775 56.2816 353.285 54.6912 354.858 53.2169C357.876 50.3869 360.655 47.3519 363.457 44.2915L363.457 44.2914L363.457 44.2913L363.457 44.2912L363.457 44.2911C364.799 42.8262 366.145 41.3555 367.526 39.8986C377.623 29.2451 390.064 19.0969 404.091 13.7084L390.2 0L383.579 6.50215C384.806 6.95375 385.941 7.65042 386.911 8.75952C387.502 9.4343 387.961 10.3005 388.092 11.2203C388.225 12.161 388.01 13.1556 387.251 13.9801C387.041 14.2084 386.853 14.45 386.642 14.7198L386.641 14.7204C386.523 14.872 386.398 15.0326 386.257 15.2046C385.899 15.6455 385.467 16.1273 384.934 16.4725C383.828 17.1881 382.512 17.6312 381.219 17.9442C380.16 18.2005 379.073 18.3787 378.095 18.539L378.095 18.539C377.881 18.5742 377.671 18.6085 377.469 18.6426C375.141 19.0342 372.828 19.2359 370.513 19.3333ZM372.131 17.7439C373.832 17.6306 375.524 17.4486 377.22 17.1633C377.435 17.1272 377.653 17.0915 377.872 17.0554L377.873 17.0554C378.848 16.8953 379.867 16.7281 380.866 16.4863C382.089 16.1904 383.218 15.7963 384.119 15.2132C384.445 15.0019 384.755 14.6747 385.094 14.2577C385.192 14.1373 385.297 14.0031 385.407 13.8632L385.407 13.8627C385.643 13.5617 385.899 13.2348 386.147 12.9646C386.563 12.5133 386.686 11.9868 386.607 11.4311C386.525 10.8546 386.221 10.2492 385.782 9.74728C384.845 8.67581 383.704 8.06118 382.371 7.68786L372.131 17.7439ZM374.45 59.8931C375.932 59.3214 377.238 58.7338 378.562 58.0545C378.578 58.0476 378.593 58.0401 378.608 58.0321L378.62 58.0254L378.638 58.0157C379.68 57.479 380.735 56.8847 381.9 56.196C382.471 55.9145 384.031 54.9964 384.626 54.6405C390.791 51.0634 396.73 47.1261 401.184 41.9446C401.914 41.0953 402.842 39.9699 403.454 38.8033C404.049 37.6682 404.467 36.2592 403.77 35.0023C403.421 34.3729 402.824 34.059 402.256 33.9021C401.692 33.7464 401.07 33.7195 400.523 33.7272C397.315 33.7725 394.092 34.9576 391.173 36.1183C387.027 37.7667 383.151 39.7766 379.346 41.9817C378.715 42.3472 378.065 42.7167 377.405 43.0923L377.405 43.0927C373.546 45.2876 369.319 47.6925 366.307 50.7426C364.938 52.1289 363.853 53.9266 363.32 55.7421C362.791 57.5468 362.78 59.477 363.731 61.0209C364.276 61.9046 365.218 62.2182 366.146 62.2709C367.073 62.3234 368.129 62.1301 369.147 61.8519C370.693 61.4299 372.323 60.7605 373.497 60.2781L373.497 60.278L373.498 60.2778L373.499 60.2776L373.499 60.2774C373.866 60.1266 374.189 59.994 374.45 59.8931ZM378.06 56.6206C379.102 56.0415 380.143 55.4626 381.179 54.8797L381.189 54.8736L381.193 54.8718C388.286 50.8789 395.121 46.6958 400.046 40.9668C400.776 40.1175 401.601 39.1062 402.125 38.1066C402.666 37.0756 402.768 36.2889 402.458 35.7296C402.377 35.5832 402.209 35.4453 401.857 35.348C401.5 35.2495 401.047 35.22 400.544 35.2271C397.647 35.268 394.663 36.3447 391.727 37.5121C387.671 39.1247 383.864 41.0971 380.098 43.2795C379.444 43.6583 378.78 44.0368 378.111 44.4177C374.241 46.6217 370.227 48.9077 367.374 51.7966C366.169 53.0173 365.219 54.6014 364.76 56.1646C364.298 57.7384 364.361 59.1837 365.008 60.2337C365.189 60.527 365.546 60.7344 366.231 60.7733C366.918 60.8122 367.79 60.6677 368.752 60.4049C370.198 60.0103 371.684 59.4001 372.852 58.9206L372.852 58.9205L372.852 58.9205C373.246 58.7589 373.603 58.6122 373.91 58.4936C375.356 57.936 376.628 57.3632 377.93 56.6931L378.06 56.6206Z" fill="#4E2705"/>
<defs>
<clipPath id="clip0_672_3098">
<rect width="26.6667" height="26.6667" fill="white" transform="translate(522.669 36)"/>
</clipPath>
</defs>
</svg>
