<svg width="1920" height="881" viewBox="0 0 1920 881" fill="none" xmlns="http://www.w3.org/2000/svg">
<rect width="1920" height="881" fill="#FFF0E0"/>
<path d="M230.66 208.76C253.57 208.76 271.334 214.57 283.951 226.191C296.679 237.702 303.043 255.244 303.043 278.818V461.934C303.043 484.622 296.568 501.667 283.619 513.066C270.781 524.355 253.128 530 230.66 530H149.479V208.76H230.66ZM230.328 463.096V275.664C230.328 270.684 228.281 268.193 224.186 268.193H220.533V470.566H223.854C228.17 470.566 230.328 468.076 230.328 463.096ZM381.9 173.066H416.764L381.9 200.957H360.816L381.9 173.066ZM383.893 470.566H436.852V530H312.838V208.76H435.855V268.193H383.893V337.588H433.863V393.369H383.893V470.566ZM596.559 371.289V462.598C596.559 487.057 590.25 504.932 577.633 516.221C565.126 527.399 546.367 532.988 521.354 532.988C495.234 532.988 475.81 526.514 463.082 513.564C450.354 500.505 443.99 479.697 443.99 451.143V287.949C443.99 259.395 450.41 238.532 463.248 225.361C476.197 212.191 495.732 205.605 521.852 205.605C546.975 205.605 565.68 211.139 577.965 222.207C590.361 233.164 596.559 251.426 596.559 276.992V358.34H526.168V268.193C526.168 263.877 524.563 261.719 521.354 261.719C518.365 261.719 516.926 263.877 517.037 268.193V470.566C517.037 475.104 518.642 477.373 521.852 477.373C524.84 477.373 526.279 475.104 526.168 470.566V370.957L596.559 371.289ZM681.393 205.605C707.955 205.605 727.656 212.135 740.494 225.195C753.333 238.255 759.752 259.173 759.752 287.949V451.143C759.752 479.919 753.333 500.781 740.494 513.73C727.656 526.569 707.955 532.988 681.393 532.988C655.826 532.988 636.513 526.514 623.453 513.564C610.504 500.505 604.029 479.697 604.029 451.143V287.949C604.029 259.395 610.504 238.532 623.453 225.361C636.513 212.191 655.826 205.605 681.393 205.605ZM686.539 470.898V268.193C686.539 263.656 684.934 261.387 681.725 261.387C678.626 261.387 677.076 263.656 677.076 268.193V470.898C677.076 475.215 678.515 477.373 681.393 477.373C684.824 477.373 686.539 475.215 686.539 470.898ZM926.432 530H852.389L846.246 421.592H840.104V530H769.049V208.76H856.041C878.73 208.76 895.442 214.128 906.178 224.863C916.913 235.599 922.281 250.817 922.281 270.518V348.379C922.281 364.98 918.463 378.372 910.826 388.555L926.432 530ZM840.104 368.799H841.764C846.965 368.799 849.566 363.597 849.566 353.193V280.479C849.566 272.288 846.965 268.193 841.764 268.193H840.104V368.799ZM1115.03 208.76V267.861H1084.15V530H1013.42V268.193H981.715V208.76H1115.03ZM1191.23 530L1189.9 471.23H1177.28L1175.95 530H1102.24L1124.99 208.76H1243.69L1265.1 530H1191.23ZM1178.94 415.117H1188.57L1185.75 305.547V272.676H1181.76V305.547L1178.94 415.117ZM1482.75 530H1406.88L1396.59 388.887H1392.6V530H1321.55V208.76H1392.94L1392.6 346.055H1396.26L1407.54 208.76H1480.92L1461.17 361.66L1482.75 530ZM1565.09 530L1563.77 471.23H1551.15L1549.82 530H1476.11L1498.85 208.76H1617.55L1638.97 530H1565.09ZM1552.81 415.117H1562.44L1559.62 305.547V272.676H1555.63V305.547L1552.81 415.117ZM1720.15 470.566H1773.11V530H1638.47V473.887L1688.11 268.193H1640.3V208.76H1771.12L1770.12 263.711L1720.15 470.566Z" fill="#4E2705"/>
<path d="M1246.81 591.219V581.562L1247.84 553.531H1266.72V614H1254.06V597.875L1254.81 574.312H1254.12L1251.88 614H1240.88L1238.62 574.188H1237.94L1238.69 597.812V614H1226.03V553.531H1244.84L1246 581.562L1246.06 591.219H1246.81ZM1282.16 602.812H1292.12V614H1268.78V553.531H1291.94V564.719H1282.16V577.781H1291.56V588.281H1282.16V602.812ZM1311.5 583.094L1310.47 569.406V553.531H1323.22V614H1310.34L1306.19 583.219H1305.56L1306.5 597.875V614H1293.78V553.531H1306.78L1310.88 583.094H1311.5ZM1354 553.531V602.594C1354 606.615 1352.74 609.625 1350.22 611.625C1347.72 613.625 1344.14 614.625 1339.47 614.625C1330.03 614.625 1325.32 610.615 1325.34 602.594V553.531H1338.66V602.812C1338.66 603.667 1338.95 604.094 1339.53 604.094C1340.22 604.094 1340.56 603.667 1340.56 602.812V553.531H1354ZM1356.09 553.531H1369.47V614H1356.09V553.531ZM1399.62 574.781H1386.44V564.531C1386.44 563.677 1386.14 563.25 1385.53 563.25C1384.95 563.25 1384.66 563.677 1384.66 564.531V574.062C1384.66 575.208 1385.1 576.021 1386 576.5L1391.88 577.781C1394.65 578.51 1396.74 579.688 1398.16 581.312C1399.59 582.917 1400.31 585.406 1400.31 588.781V601.469C1400.31 605.656 1399.04 608.896 1396.5 611.188C1393.98 613.479 1390.39 614.625 1385.72 614.625C1376.16 614.625 1371.39 610.958 1371.41 603.625V590.719H1384.72V602.938C1384.72 603.792 1385.03 604.219 1385.66 604.219C1386.26 604.219 1386.56 603.833 1386.56 603.062V591.281C1386.56 590.094 1385.99 589.281 1384.84 588.844L1380.62 587.875C1377.21 587.271 1374.75 586.021 1373.25 584.125C1371.75 582.229 1371 579.427 1371 575.719V565.562C1371 561.604 1372.25 558.51 1374.75 556.281C1377.25 554.052 1380.89 552.938 1385.66 552.938C1390.09 552.938 1393.53 553.906 1395.97 555.844C1398.41 557.76 1399.62 560.49 1399.62 564.031V574.781ZM1415.22 602.812H1425.19V614H1401.84V553.531H1425V564.719H1415.22V577.781H1424.62V588.281H1415.22V602.812ZM1456.47 614H1442.53L1441.38 593.594H1440.22V614H1426.84V553.531H1443.22C1447.49 553.531 1450.64 554.542 1452.66 556.562C1454.68 558.583 1455.69 561.448 1455.69 565.156V579.812C1455.69 582.938 1454.97 585.458 1453.53 587.375L1456.47 614ZM1440.22 583.656H1440.53C1441.51 583.656 1442 582.677 1442 580.719V567.031C1442 565.49 1441.51 564.719 1440.53 564.719H1440.22V583.656ZM1457.59 553.531H1470.97V614H1457.59V553.531ZM1486.41 602.812H1496.38V614H1473.03V553.531H1496.19V564.719H1486.41V577.781H1495.81V588.281H1486.41V602.812ZM1523.38 614L1523.12 602.938H1520.75L1520.5 614H1506.62L1510.91 553.531H1533.25L1537.28 614H1523.38ZM1521.06 592.375H1522.88L1522.34 571.75V565.562H1521.59V571.75L1521.06 592.375ZM1567.41 614H1553.47L1552.31 593.594H1551.16V614H1537.78V553.531H1554.16C1558.43 553.531 1561.57 554.542 1563.59 556.562C1565.61 558.583 1566.62 561.448 1566.62 565.156V579.812C1566.62 582.938 1565.91 585.458 1564.47 587.375L1567.41 614ZM1551.16 583.656H1551.47C1552.45 583.656 1552.94 582.677 1552.94 580.719V567.031C1552.94 565.49 1552.45 564.719 1551.47 564.719H1551.16V583.656ZM1592.47 553.531V564.656H1586.66V614H1573.34V564.719H1567.38V553.531H1592.47ZM1593.72 553.531H1607.09V614H1593.72V553.531ZM1637.25 574.781H1624.06V564.531C1624.06 563.677 1623.76 563.25 1623.16 563.25C1622.57 563.25 1622.28 563.677 1622.28 564.531V574.062C1622.28 575.208 1622.73 576.021 1623.62 576.5L1629.5 577.781C1632.27 578.51 1634.36 579.688 1635.78 581.312C1637.22 582.917 1637.94 585.406 1637.94 588.781V601.469C1637.94 605.656 1636.67 608.896 1634.12 611.188C1631.6 613.479 1628.01 614.625 1623.34 614.625C1613.78 614.625 1609.01 610.958 1609.03 603.625V590.719H1622.34V602.938C1622.34 603.792 1622.66 604.219 1623.28 604.219C1623.89 604.219 1624.19 603.833 1624.19 603.062V591.281C1624.19 590.094 1623.61 589.281 1622.47 588.844L1618.25 587.875C1614.83 587.271 1612.38 586.021 1610.88 584.125C1609.38 582.229 1608.62 579.427 1608.62 575.719V565.562C1608.62 561.604 1609.88 558.51 1612.38 556.281C1614.88 554.052 1618.51 552.938 1623.28 552.938C1627.72 552.938 1631.16 553.906 1633.59 555.844C1636.03 557.76 1637.25 560.49 1637.25 564.031V574.781ZM1654.19 614L1653.94 602.938H1651.56L1651.31 614H1637.44L1641.72 553.531H1664.06L1668.09 614H1654.19ZM1651.88 592.375H1653.69L1653.16 571.75V565.562H1652.41V571.75L1651.88 592.375ZM1686.31 583.094L1685.28 569.406V553.531H1698.03V614H1685.16L1681 583.219H1680.38L1681.31 597.875V614H1668.59V553.531H1681.59L1685.69 583.094H1686.31ZM1715.38 614L1715.12 602.938H1712.75L1712.5 614H1698.62L1702.91 553.531H1725.25L1729.28 614H1715.38ZM1713.06 592.375H1714.88L1714.34 571.75V565.562H1713.59V571.75L1713.06 592.375ZM1743.16 602.812H1751.03V614H1729.78V553.531H1743.16V602.812ZM1765.34 602.812H1775.31V614H1751.97V553.531H1775.12V564.719H1765.34V577.781H1774.75V588.281H1765.34V602.812Z" fill="#4E2705"/>
<path d="M150.138 753.864H151.546V769H148.444V757.67L144.77 759.166L144.308 756.658L150.138 753.864ZM165.556 762.928V765.568H163.422V769H160.32V765.568H154.182L153.566 763.588L160.804 753.886H163.422V762.928H165.556ZM156.58 762.928H160.32V757.89L156.58 762.928ZM180.703 762.928L185.367 768.714V769H181.869L177.249 763.082H176.105V769H172.981V753.38H179.251C182.353 753.38 184.421 755.316 184.421 758.22C184.421 760.64 182.991 762.4 180.703 762.928ZM176.105 756.108V760.816H178.723C180.197 760.816 181.209 759.936 181.209 758.484C181.209 757.032 180.197 756.108 178.723 756.108H176.105ZM193.403 769.22C189.619 769.22 187.243 767.68 187.243 763.104V753.38H190.367V763.016C190.367 765.524 191.489 766.492 193.403 766.492C195.317 766.492 196.417 765.524 196.417 763.016V753.38H199.541V763.104C199.541 767.68 197.187 769.22 193.403 769.22ZM206.076 766.272H213.402V769H202.952V753.38H213.292L212.852 756.108H206.076V759.914H211.356V762.598H206.076V766.272ZM230.143 769L228.867 765.018H223.367L222.091 769H218.813L224.313 753.38H227.921L233.421 769H230.143ZM224.225 762.334H228.009L226.117 756.394L224.225 762.334ZM241.056 769.22C237.272 769.22 234.896 767.68 234.896 763.104V753.38H238.02V763.016C238.02 765.524 239.142 766.492 241.056 766.492C242.97 766.492 244.07 765.524 244.07 763.016V753.38H247.194V763.104C247.194 767.68 244.84 769.22 241.056 769.22ZM257.094 760.662H262.946V767.394C261.934 768.472 259.756 769.22 257.468 769.22C252.804 769.22 249.724 765.986 249.724 761.124C249.724 756.328 252.804 753.16 257.534 753.16C259.14 753.16 261.01 753.556 262.154 754.15L261.692 756.746C260.79 756.262 259.272 755.888 257.93 755.888C254.916 755.888 252.98 757.824 252.98 761.124C252.98 764.468 254.894 766.492 257.666 766.492C258.436 766.492 259.184 766.36 259.778 766.162V763.104L256.676 762.95L257.094 760.662ZM271.778 769.22C267.994 769.22 265.618 767.68 265.618 763.104V753.38H268.742V763.016C268.742 765.524 269.864 766.492 271.778 766.492C273.692 766.492 274.792 765.524 274.792 763.016V753.38H277.916V763.104C277.916 767.68 275.562 769.22 271.778 769.22ZM285.573 769.242C283.593 769.242 281.613 768.714 280.271 767.856L280.733 765.172C281.965 765.898 283.527 766.514 285.353 766.514C287.113 766.514 288.235 765.92 288.235 764.732C288.235 763.94 287.729 763.324 286.673 762.884L284.011 761.74C281.701 760.772 280.689 759.496 280.689 757.56C280.689 754.59 283.043 753.16 286.299 753.16C287.817 753.16 289.577 753.49 290.831 754.04L290.391 756.658C289.313 756.152 287.861 755.888 286.673 755.888C285.067 755.888 283.901 756.35 283.901 757.428C283.901 758.088 284.363 758.638 285.375 759.034L288.147 760.222C290.369 761.168 291.425 762.664 291.447 764.534C291.425 767.526 289.137 769.242 285.573 769.242ZM304.985 753.38V756.108H300.211V769H297.087V756.108H292.291V753.38H304.985ZM310.146 766.272H317.472V769H307.022V753.38H317.362L316.922 756.108H310.146V759.914H315.426V762.598H310.146V766.272ZM329.999 753.38C334.883 753.38 337.545 756.504 337.545 761.168C337.545 765.876 334.883 769 329.999 769H324.983V753.38H329.999ZM329.999 766.272C332.881 766.272 334.311 764.38 334.311 761.168C334.311 758 332.881 756.108 329.999 756.108H328.107V766.272H329.999ZM343.383 766.272H350.709V769H340.259V753.38H350.599L350.159 756.108H343.383V759.914H348.663V762.598H343.383V766.272ZM366.921 753.38H370.133L364.853 769H361.487L356.185 753.38H359.397L363.159 765.876L366.921 753.38ZM372.163 769V753.38H375.287V769H372.163ZM381.947 766.272H388.657V769H378.823V753.38H381.947V766.272ZM393.828 766.272H400.538V769H390.704V753.38H393.828V766.272ZM405.709 766.272H413.035V769H402.585V753.38H412.925L412.485 756.108H405.709V759.914H410.989V762.598H405.709V766.272ZM418.728 766.272H425.438V769H415.604V753.38H418.728V766.272ZM430.609 766.272H437.935V769H427.485V753.38H437.825L437.385 756.108H430.609V759.914H435.889V762.598H430.609V766.272Z" fill="#4E2705"/>
<path d="M148.806 795.18C147.276 795.18 145.818 794.82 144.774 794.19L145.044 792.624C145.944 793.218 147.384 793.704 148.788 793.704C150.57 793.704 151.596 792.858 151.596 791.616C151.596 790.662 151.02 789.996 149.958 789.582L147.618 788.682C145.728 787.926 144.918 786.81 144.918 785.352C144.918 783.156 146.682 782.04 149.31 782.04C150.498 782.04 151.686 782.256 152.658 782.67L152.406 784.11C151.524 783.732 150.426 783.516 149.472 783.516C147.888 783.516 146.682 784.128 146.682 785.316C146.682 786.072 147.186 786.702 148.302 787.098L150.642 788.016C152.406 788.718 153.324 789.942 153.36 791.472C153.324 793.938 151.668 795.18 148.806 795.18ZM158.646 786.072C160.896 786.072 162.228 787.602 162.228 789.852V795H160.788L160.59 793.938C159.762 794.676 158.376 795.18 157.35 795.18C155.838 795.18 154.596 794.082 154.596 792.516C154.596 790.878 155.964 789.906 158.106 789.906C159.006 789.906 159.96 790.014 160.572 790.176V789.744C160.572 788.448 159.816 787.44 158.25 787.44C157.332 787.44 156.234 787.728 155.496 788.232L155.262 786.954C156.018 786.432 157.35 786.072 158.646 786.072ZM156.324 792.516C156.324 793.308 156.954 793.848 157.908 793.848C158.682 793.848 159.78 793.47 160.572 792.876V791.418C160.05 791.256 159.15 791.166 158.214 791.166C156.954 791.166 156.324 791.688 156.324 792.516ZM165.815 784.218C165.185 784.218 164.699 783.732 164.699 783.12C164.699 782.544 165.185 782.04 165.815 782.04C166.445 782.04 166.949 782.544 166.949 783.12C166.949 783.732 166.445 784.218 165.815 784.218ZM164.969 795V786.432L166.643 786.072V795H164.969ZM174.202 786.072C175.624 786.072 176.884 787.026 176.884 789.42V795H175.21V789.762C175.21 787.944 174.598 787.458 173.734 787.458C172.816 787.458 171.808 787.962 171.142 788.43V795H169.486V786.234L170.926 786.072L171.106 787.206C171.808 786.702 172.942 786.072 174.202 786.072ZM184.291 793.56L184.543 794.874C184.003 795.09 183.103 795.18 182.545 795.18C181.051 795.18 179.971 794.442 179.971 791.994V787.548H178.567V786.252H180.025L180.403 783.966H181.645V786.252H184.363V787.548H181.645V791.778C181.645 793.326 182.113 793.794 182.977 793.794C183.355 793.794 184.021 793.686 184.291 793.56ZM197.025 788.34C198.609 788.574 199.707 789.942 199.707 791.508C199.707 793.182 198.447 795 195.711 795H190.779V782.22H195.207C197.817 782.22 199.005 783.948 199.005 785.532C199.005 786.648 198.411 787.944 197.025 788.34ZM197.241 785.748C197.241 784.74 196.737 783.696 194.793 783.696H192.543V787.782H194.793C196.737 787.782 197.241 786.738 197.241 785.748ZM195.315 793.524C197.277 793.524 197.961 792.39 197.961 791.328C197.961 790.248 197.277 789.168 195.315 789.168H192.543V793.524H195.315ZM208.974 790.518L208.722 790.896H203.052C203.178 792.768 204.096 793.812 205.878 793.812C206.742 793.812 207.552 793.632 208.092 793.308L208.344 794.55C207.732 794.928 206.67 795.18 205.626 795.18C202.962 795.18 201.324 793.488 201.324 790.626C201.324 787.8 202.89 786.072 205.446 786.072C207.696 786.072 208.974 787.728 208.974 790.518ZM205.338 787.422C204.15 787.422 203.304 788.232 203.088 789.636H207.228C207.084 788.088 206.472 787.422 205.338 787.422ZM215.722 786.072C217.144 786.072 218.404 787.026 218.404 789.42V795H216.73V789.762C216.73 787.944 216.118 787.458 215.254 787.458C214.336 787.458 213.328 787.962 212.662 788.43V795H211.006V786.234L212.446 786.072L212.626 787.206C213.328 786.702 214.462 786.072 215.722 786.072ZM224.821 795.18C222.229 795.18 220.501 793.362 220.501 790.644C220.501 787.89 222.211 786.072 224.785 786.072C227.395 786.072 229.123 787.89 229.123 790.644C229.123 793.362 227.395 795.18 224.821 795.18ZM224.821 793.794C226.369 793.794 227.395 792.534 227.395 790.644C227.395 788.718 226.351 787.458 224.785 787.458C223.237 787.458 222.229 788.718 222.229 790.644C222.229 792.462 223.327 793.794 224.821 793.794ZM229.958 785.118L229.256 784.362L231.722 781.842H232.55L235.016 784.362L234.314 785.118L232.136 783.426L229.958 785.118ZM231.362 795V786.432L233.036 786.072V795H231.362ZM240.577 793.56L240.829 794.874C240.289 795.09 239.389 795.18 238.831 795.18C237.337 795.18 236.257 794.442 236.257 791.994V787.548H234.853V786.252H236.311L236.689 783.966H237.931V786.252H240.649V787.548H237.931V791.778C237.931 793.326 238.399 793.794 239.263 793.794C239.641 793.794 240.307 793.686 240.577 793.56ZM243.297 792.624C243.909 792.624 244.575 793.056 244.575 794.352C244.575 795.45 244.089 797.124 242.523 798.204L241.947 797.484C242.793 796.854 243.315 795.882 243.351 794.946C242.739 794.982 242.109 794.532 242.109 793.812C242.109 793.182 242.577 792.624 243.297 792.624ZM253.168 793.524H259.072V795H251.494V782.22H253.168V793.524ZM263.957 786.072C266.207 786.072 267.539 787.602 267.539 789.852V795H266.099L265.901 793.938C265.073 794.676 263.687 795.18 262.661 795.18C261.149 795.18 259.907 794.082 259.907 792.516C259.907 790.878 261.275 789.906 263.417 789.906C264.317 789.906 265.271 790.014 265.883 790.176V789.744C265.883 788.448 265.127 787.44 263.561 787.44C262.643 787.44 261.545 787.728 260.807 788.232L260.573 786.954C261.329 786.432 262.661 786.072 263.957 786.072ZM261.635 792.516C261.635 793.308 262.265 793.848 263.219 793.848C263.993 793.848 265.091 793.47 265.883 792.876V791.418C265.361 791.256 264.461 791.166 263.525 791.166C262.265 791.166 261.635 791.688 261.635 792.516ZM280.005 789.942L284.217 794.838V795H282.219L278.007 789.978H276.441V795H274.767V782.22H279.339C281.805 782.22 283.479 783.768 283.479 786.09C283.479 788.214 282.129 789.69 280.005 789.942ZM276.441 783.696V788.574H279.051C280.599 788.574 281.715 787.602 281.715 786.126C281.715 784.686 280.599 783.696 279.051 783.696H276.441ZM291.058 782.958L287.89 785.154L287.242 784.38L290.014 781.806L291.058 782.958ZM292.804 790.518L292.552 790.896H286.882C287.008 792.768 287.926 793.812 289.708 793.812C290.572 793.812 291.382 793.632 291.922 793.308L292.174 794.55C291.562 794.928 290.5 795.18 289.456 795.18C286.792 795.18 285.154 793.488 285.154 790.626C285.154 787.8 286.72 786.072 289.276 786.072C291.526 786.072 292.804 787.728 292.804 790.518ZM289.168 787.422C287.98 787.422 287.134 788.232 286.918 789.636H291.058C290.914 788.088 290.302 787.422 289.168 787.422ZM300.47 786.252H302.144V795H300.704L300.506 794.064C299.804 794.568 298.688 795.18 297.428 795.18C295.988 795.18 294.746 794.226 294.746 791.832V786.252H296.402V791.49C296.402 793.308 297.032 793.794 297.896 793.794C298.796 793.794 299.786 793.29 300.47 792.822V786.252ZM309.659 786.072C311.081 786.072 312.341 787.026 312.341 789.42V795H310.667V789.762C310.667 787.944 310.055 787.458 309.191 787.458C308.273 787.458 307.265 787.962 306.599 788.43V795H304.943V786.234L306.383 786.072L306.563 787.206C307.265 786.702 308.399 786.072 309.659 786.072ZM315.932 784.218C315.302 784.218 314.816 783.732 314.816 783.12C314.816 782.544 315.302 782.04 315.932 782.04C316.562 782.04 317.066 782.544 317.066 783.12C317.066 783.732 316.562 784.218 315.932 784.218ZM315.086 795V786.432L316.76 786.072V795H315.086ZM323.311 795.18C320.719 795.18 318.991 793.362 318.991 790.644C318.991 787.89 320.701 786.072 323.275 786.072C325.885 786.072 327.613 787.89 327.613 790.644C327.613 793.362 325.885 795.18 323.311 795.18ZM323.311 793.794C324.859 793.794 325.885 792.534 325.885 790.644C325.885 788.718 324.841 787.458 323.275 787.458C321.727 787.458 320.719 788.718 320.719 790.644C320.719 792.462 321.817 793.794 323.311 793.794ZM334.532 786.072C335.954 786.072 337.214 787.026 337.214 789.42V795H335.54V789.762C335.54 787.944 334.928 787.458 334.064 787.458C333.146 787.458 332.138 787.962 331.472 788.43V795H329.816V786.234L331.256 786.072L331.436 787.206C332.138 786.702 333.272 786.072 334.532 786.072Z" fill="#4E2705"/>
<path d="M1621.8 770.22C1617.03 770.22 1613.9 767.008 1613.9 762.19C1613.9 757.372 1617.03 754.16 1621.8 754.16C1623.23 754.16 1624.9 754.468 1626 754.908L1625.56 757.46C1624.66 757.108 1623.36 756.888 1622.31 756.888C1619.2 756.888 1617.11 758.868 1617.11 762.19C1617.11 765.512 1619.2 767.492 1622.31 767.492C1623.38 767.492 1624.66 767.272 1625.54 766.942L1626 769.472C1624.9 769.912 1623.23 770.22 1621.8 770.22ZM1634.44 770.22C1630.1 770.22 1627.24 767.008 1627.24 762.168C1627.24 757.372 1630.1 754.16 1634.46 754.16C1638.79 754.16 1641.65 757.372 1641.65 762.168C1641.65 767.008 1638.79 770.22 1634.44 770.22ZM1634.44 767.492C1636.84 767.492 1638.44 765.38 1638.44 762.19C1638.44 759 1636.86 756.888 1634.46 756.888C1632.06 756.888 1630.46 759 1630.46 762.19C1630.46 765.38 1632.04 767.492 1634.44 767.492ZM1650.7 770.22C1646.37 770.22 1643.51 767.008 1643.51 762.168C1643.51 757.372 1646.37 754.16 1650.72 754.16C1655.06 754.16 1657.92 757.372 1657.92 762.168C1657.92 767.008 1655.06 770.22 1650.7 770.22ZM1650.7 767.492C1653.1 767.492 1654.71 765.38 1654.71 762.19C1654.71 759 1653.12 756.888 1650.72 756.888C1648.33 756.888 1646.72 759 1646.72 762.19C1646.72 765.38 1648.3 767.492 1650.7 767.492ZM1668.35 763.928L1673.02 769.714V770H1669.52L1664.9 764.082H1663.75V770H1660.63V754.38H1666.9C1670 754.38 1672.07 756.316 1672.07 759.22C1672.07 761.64 1670.64 763.4 1668.35 763.928ZM1663.75 757.108V761.816H1666.37C1667.85 761.816 1668.86 760.936 1668.86 759.484C1668.86 758.032 1667.85 757.108 1666.37 757.108H1663.75ZM1680.06 754.38C1684.95 754.38 1687.61 757.504 1687.61 762.168C1687.61 766.876 1684.95 770 1680.06 770H1675.05V754.38H1680.06ZM1680.06 767.272C1682.94 767.272 1684.37 765.38 1684.37 762.168C1684.37 759 1682.94 757.108 1680.06 757.108H1678.17V767.272H1680.06ZM1696.66 770.22C1692.32 770.22 1689.46 767.008 1689.46 762.168C1689.46 757.372 1692.32 754.16 1696.68 754.16C1701.01 754.16 1703.87 757.372 1703.87 762.168C1703.87 767.008 1701.01 770.22 1696.66 770.22ZM1696.66 767.492C1699.06 767.492 1700.66 765.38 1700.66 762.19C1700.66 759 1699.08 756.888 1696.68 756.888C1694.28 756.888 1692.68 759 1692.68 762.19C1692.68 765.38 1694.26 767.492 1696.66 767.492ZM1715.71 754.38H1718.84V770H1715.49L1709.71 760.144V770H1706.58V754.38H1709.99L1715.71 764.5V754.38ZM1731.53 754.38H1734.65V770H1731.31L1725.52 760.144V770H1722.4V754.38H1725.81L1731.53 764.5V754.38ZM1745.8 751.52L1741.58 753.412L1740.76 752.246L1744.13 749.32L1745.8 751.52ZM1741.33 767.272H1748.66V770H1738.21V754.38H1748.55L1748.11 757.108H1741.33V760.914H1746.61V763.598H1741.33V767.272ZM1754.35 767.272H1761.68V770H1751.23V754.38H1761.57L1761.13 757.108H1754.35V760.914H1759.63V763.598H1754.35V767.272ZM1768.49 770.242C1766.51 770.242 1764.53 769.714 1763.19 768.856L1763.65 766.172C1764.89 766.898 1766.45 767.514 1768.27 767.514C1770.03 767.514 1771.16 766.92 1771.16 765.732C1771.16 764.94 1770.65 764.324 1769.59 763.884L1766.93 762.74C1764.62 761.772 1763.61 760.496 1763.61 758.56C1763.61 755.59 1765.96 754.16 1769.22 754.16C1770.74 754.16 1772.5 754.49 1773.75 755.04L1773.31 757.658C1772.23 757.152 1770.78 756.888 1769.59 756.888C1767.99 756.888 1766.82 757.35 1766.82 758.428C1766.82 759.088 1767.28 759.638 1768.3 760.034L1771.07 761.222C1773.29 762.168 1774.35 763.664 1774.37 765.534C1774.35 768.526 1772.06 770.242 1768.49 770.242Z" fill="#4E2705"/>
<path d="M1566.5 792.768H1572.1V794H1564.9L1564.59 792.8L1568.21 789.296C1569.52 788.016 1570.32 787.248 1570.32 786.016C1570.32 784.848 1569.3 784.08 1567.98 784.08C1567.12 784.08 1565.9 784.368 1565.01 784.752L1564.8 783.584C1565.66 783.136 1567.01 782.848 1568.13 782.848C1570.29 782.848 1571.86 784.112 1571.86 786C1571.86 787.52 1570.78 788.688 1569.04 790.352L1566.5 792.768ZM1576.88 783.008H1577.6V794H1576.11V784.896L1573.32 786.128L1573.08 784.896L1576.88 783.008ZM1582.12 787.68C1580.74 787.68 1579.78 786.736 1579.78 785.296C1579.78 783.872 1580.74 782.912 1582.12 782.912C1583.49 782.912 1584.44 783.872 1584.44 785.296C1584.44 786.736 1583.49 787.68 1582.12 787.68ZM1582.12 786.832C1582.93 786.832 1583.51 786.224 1583.51 785.296C1583.51 784.384 1582.93 783.776 1582.12 783.776C1581.27 783.776 1580.71 784.384 1580.71 785.296C1580.71 786.224 1581.29 786.832 1582.12 786.832ZM1587.65 792.768H1593.25V794H1586.05L1585.75 792.8L1589.36 789.296C1590.68 788.016 1591.48 787.248 1591.48 786.016C1591.48 784.848 1590.45 784.08 1589.14 784.08C1588.28 784.08 1587.06 784.368 1586.16 784.752L1585.96 783.584C1586.82 783.136 1588.16 782.848 1589.28 782.848C1591.44 782.848 1593.01 784.112 1593.01 786C1593.01 787.52 1591.94 788.688 1590.2 790.352L1587.65 792.768ZM1595.97 782.208C1596.51 782.208 1597.1 782.592 1597.1 783.744C1597.1 784.72 1596.67 786.208 1595.28 787.168L1594.77 786.528C1595.52 785.968 1595.98 785.104 1596.02 784.272C1595.47 784.304 1594.91 783.904 1594.91 783.264C1594.91 782.704 1595.33 782.208 1595.97 782.208ZM1603.3 788.24C1605.09 788.56 1605.68 789.888 1605.68 790.976C1605.68 792.752 1604.05 794.16 1601.51 794.16C1600.72 794.16 1599.43 794.032 1598.34 793.536L1598.56 792.32C1599.54 792.8 1600.72 792.928 1601.38 792.928C1603.12 792.928 1604.15 791.984 1604.15 790.88C1604.15 789.696 1603.14 789.072 1601.68 789.072H1600.37V787.792H1601.43C1603.06 787.792 1603.7 786.704 1603.7 785.792C1603.7 784.784 1602.87 784.08 1601.44 784.08C1600.28 784.08 1599.49 784.368 1598.92 784.608L1598.71 783.424C1599.4 783.136 1600.36 782.848 1601.64 782.848C1603.88 782.848 1605.24 784 1605.24 785.584C1605.24 786.88 1604.44 787.824 1603.3 788.24ZM1614.37 783.008L1614.53 783.872L1609.44 794H1607.88L1612.87 784.224H1606.87V783.008H1614.37ZM1615.48 794.16C1614.89 794.16 1614.41 793.696 1614.41 793.088C1614.41 792.544 1614.89 792.048 1615.48 792.048C1616.07 792.048 1616.55 792.544 1616.55 793.088C1616.55 793.696 1616.07 794.16 1615.48 794.16ZM1622.88 788.24C1624.67 788.56 1625.26 789.888 1625.26 790.976C1625.26 792.752 1623.63 794.16 1621.09 794.16C1620.3 794.16 1619.01 794.032 1617.92 793.536L1618.14 792.32C1619.12 792.8 1620.3 792.928 1620.96 792.928C1622.7 792.928 1623.73 791.984 1623.73 790.88C1623.73 789.696 1622.72 789.072 1621.26 789.072H1619.95V787.792H1621.01C1622.64 787.792 1623.28 786.704 1623.28 785.792C1623.28 784.784 1622.45 784.08 1621.02 784.08C1619.86 784.08 1619.07 784.368 1618.5 784.608L1618.29 783.424C1618.98 783.136 1619.94 782.848 1621.22 782.848C1623.46 782.848 1624.82 784 1624.82 785.584C1624.82 786.88 1624.02 787.824 1622.88 788.24ZM1630.83 794.16C1628.38 794.16 1626.93 792.064 1626.93 788.528C1626.93 784.96 1628.38 782.848 1630.83 782.848C1633.29 782.848 1634.75 784.96 1634.75 788.528C1634.75 792.064 1633.29 794.16 1630.83 794.16ZM1630.83 792.928C1632.33 792.928 1633.21 791.328 1633.21 788.528C1633.21 785.712 1632.33 784.064 1630.83 784.064C1629.33 784.064 1628.45 785.712 1628.45 788.528C1628.45 791.328 1629.33 792.928 1630.83 792.928ZM1644.19 790.112V791.344H1642.39V794H1640.91V791.344H1636.22L1635.88 790.272L1641.1 783.024H1642.39V790.112H1644.19ZM1637.45 790.112H1640.91V785.296L1637.45 790.112ZM1646.38 782.208C1646.92 782.208 1647.51 782.592 1647.51 783.744C1647.51 784.72 1647.08 786.208 1645.69 787.168L1645.18 786.528C1645.93 785.968 1646.39 785.104 1646.42 784.272C1645.88 784.304 1645.32 783.904 1645.32 783.264C1645.32 782.704 1645.74 782.208 1646.38 782.208ZM1649.38 782.208C1649.93 782.208 1650.52 782.592 1650.52 783.744C1650.52 784.72 1650.09 786.208 1648.7 787.168L1648.18 786.528C1648.94 785.968 1649.4 785.104 1649.43 784.272C1648.89 784.304 1648.33 783.904 1648.33 783.264C1648.33 782.704 1648.74 782.208 1649.38 782.208ZM1655.46 794.16C1654.1 794.16 1652.8 793.84 1651.88 793.28L1652.12 791.888C1652.92 792.416 1654.2 792.848 1655.44 792.848C1657.03 792.848 1657.94 792.096 1657.94 790.992C1657.94 790.144 1657.43 789.552 1656.48 789.184L1654.4 788.384C1652.72 787.712 1652 786.72 1652 785.424C1652 783.472 1653.57 782.48 1655.91 782.48C1656.96 782.48 1658.02 782.672 1658.88 783.04L1658.66 784.32C1657.88 783.984 1656.9 783.792 1656.05 783.792C1654.64 783.792 1653.57 784.336 1653.57 785.392C1653.57 786.064 1654.02 786.624 1655.01 786.976L1657.09 787.792C1658.66 788.416 1659.48 789.504 1659.51 790.864C1659.48 793.056 1658 794.16 1655.46 794.16ZM1661.98 791.888C1662.53 791.888 1663.12 792.272 1663.12 793.424C1663.12 794.4 1662.69 795.888 1661.29 796.848L1660.78 796.208C1661.53 795.648 1662 794.784 1662.03 793.952C1661.49 793.984 1660.93 793.584 1660.93 792.944C1660.93 792.384 1661.34 791.888 1661.98 791.888ZM1672.66 787.232C1674.84 787.232 1676.24 788.576 1676.24 790.544C1676.24 792.72 1674.52 794.16 1671.96 794.16C1670.76 794.16 1669.43 793.824 1668.58 793.344L1668.87 792.096C1669.6 792.592 1670.76 792.928 1671.83 792.928C1673.56 792.928 1674.71 792.016 1674.71 790.56C1674.71 789.312 1673.81 788.432 1672.34 788.432C1671.14 788.432 1670.28 788.624 1669.54 789.008L1668.76 788.304L1669.38 783.008H1675.52V784.224H1670.6L1670.2 787.552C1670.92 787.328 1671.84 787.232 1672.66 787.232ZM1681.79 787.232C1683.96 787.232 1685.37 788.576 1685.37 790.544C1685.37 792.72 1683.64 794.16 1681.08 794.16C1679.88 794.16 1678.55 793.824 1677.71 793.344L1677.99 792.096C1678.73 792.592 1679.88 792.928 1680.95 792.928C1682.68 792.928 1683.83 792.016 1683.83 790.56C1683.83 789.312 1682.94 788.432 1681.47 788.432C1680.27 788.432 1679.4 788.624 1678.67 789.008L1677.88 788.304L1678.51 783.008H1684.65V784.224H1679.72L1679.32 787.552C1680.04 787.328 1680.97 787.232 1681.79 787.232ZM1689.1 787.68C1687.73 787.68 1686.77 786.736 1686.77 785.296C1686.77 783.872 1687.73 782.912 1689.1 782.912C1690.48 782.912 1691.42 783.872 1691.42 785.296C1691.42 786.736 1690.48 787.68 1689.1 787.68ZM1689.1 786.832C1689.92 786.832 1690.49 786.224 1690.49 785.296C1690.49 784.384 1689.92 783.776 1689.1 783.776C1688.25 783.776 1687.69 784.384 1687.69 785.296C1687.69 786.224 1688.27 786.832 1689.1 786.832ZM1700.14 790.112V791.344H1698.35V794H1696.86V791.344H1692.17L1691.83 790.272L1697.05 783.024H1698.35V790.112H1700.14ZM1693.4 790.112H1696.86V785.296L1693.4 790.112ZM1706.13 788.24C1707.92 788.56 1708.51 789.888 1708.51 790.976C1708.51 792.752 1706.88 794.16 1704.34 794.16C1703.55 794.16 1702.26 794.032 1701.17 793.536L1701.39 792.32C1702.37 792.8 1703.55 792.928 1704.21 792.928C1705.95 792.928 1706.98 791.984 1706.98 790.88C1706.98 789.696 1705.97 789.072 1704.51 789.072H1703.2V787.792H1704.26C1705.89 787.792 1706.53 786.704 1706.53 785.792C1706.53 784.784 1705.7 784.08 1704.27 784.08C1703.11 784.08 1702.32 784.368 1701.75 784.608L1701.54 783.424C1702.23 783.136 1703.19 782.848 1704.47 782.848C1706.71 782.848 1708.07 784 1708.07 785.584C1708.07 786.88 1707.27 787.824 1706.13 788.24ZM1711.3 782.208C1711.84 782.208 1712.43 782.592 1712.43 783.744C1712.43 784.72 1712 786.208 1710.61 787.168L1710.1 786.528C1710.85 785.968 1711.31 785.104 1711.34 784.272C1710.8 784.304 1710.24 783.904 1710.24 783.264C1710.24 782.704 1710.66 782.208 1711.3 782.208ZM1717.24 783.008H1717.96V794H1716.47V784.896L1713.68 786.128L1713.44 784.896L1717.24 783.008ZM1724.21 794.16C1721.76 794.16 1720.3 792.064 1720.3 788.528C1720.3 784.96 1721.76 782.848 1724.21 782.848C1726.67 782.848 1728.13 784.96 1728.13 788.528C1728.13 792.064 1726.67 794.16 1724.21 794.16ZM1724.21 792.928C1725.71 792.928 1726.59 791.328 1726.59 788.528C1726.59 785.712 1725.71 784.064 1724.21 784.064C1722.7 784.064 1721.82 785.712 1721.82 788.528C1721.82 791.328 1722.7 792.928 1724.21 792.928ZM1730.61 794.16C1730.01 794.16 1729.53 793.696 1729.53 793.088C1729.53 792.544 1730.01 792.048 1730.61 792.048C1731.2 792.048 1731.68 792.544 1731.68 793.088C1731.68 793.696 1731.2 794.16 1730.61 794.16ZM1741.06 790.112V791.344H1739.27V794H1737.78V791.344H1733.09L1732.76 790.272L1737.97 783.024H1739.27V790.112H1741.06ZM1734.32 790.112H1737.78V785.296L1734.32 790.112ZM1747.05 788.24C1748.84 788.56 1749.43 789.888 1749.43 790.976C1749.43 792.752 1747.8 794.16 1745.26 794.16C1744.47 794.16 1743.18 794.032 1742.09 793.536L1742.31 792.32C1743.29 792.8 1744.47 792.928 1745.13 792.928C1746.87 792.928 1747.9 791.984 1747.9 790.88C1747.9 789.696 1746.89 789.072 1745.43 789.072H1744.12V787.792H1745.18C1746.81 787.792 1747.45 786.704 1747.45 785.792C1747.45 784.784 1746.62 784.08 1745.19 784.08C1744.03 784.08 1743.24 784.368 1742.67 784.608L1742.46 783.424C1743.15 783.136 1744.11 782.848 1745.39 782.848C1747.63 782.848 1748.99 784 1748.99 785.584C1748.99 786.88 1748.19 787.824 1747.05 788.24ZM1756.87 788.544C1758.01 789.056 1758.84 789.968 1758.84 791.216C1758.84 792.944 1757.26 794.16 1754.91 794.16C1752.54 794.16 1751.05 792.912 1751.05 791.088C1751.05 790.064 1751.79 789.024 1752.95 788.416C1751.96 787.904 1751.37 786.944 1751.37 785.952C1751.37 784.096 1752.83 782.848 1755 782.848C1757.18 782.848 1758.59 784.064 1758.59 785.856C1758.59 787.056 1757.93 788.08 1756.87 788.544ZM1754.95 784.08C1753.72 784.08 1752.89 784.784 1752.89 785.904C1752.89 786.64 1753.24 787.232 1754.28 787.648L1755.51 788.064C1756.47 787.648 1757.07 786.832 1757.07 785.92C1757.07 784.816 1756.23 784.08 1754.95 784.08ZM1754.97 792.928C1756.41 792.928 1757.32 792.24 1757.32 791.248C1757.32 790.448 1756.73 789.728 1755.82 789.44L1754.31 788.928C1753.24 789.376 1752.57 790.256 1752.57 791.136C1752.57 792.208 1753.5 792.928 1754.97 792.928ZM1761.69 782.208C1762.23 782.208 1762.82 782.592 1762.82 783.744C1762.82 784.72 1762.39 786.208 1761 787.168L1760.49 786.528C1761.24 785.968 1761.7 785.104 1761.74 784.272C1761.19 784.304 1760.63 783.904 1760.63 783.264C1760.63 782.704 1761.05 782.208 1761.69 782.208ZM1764.7 782.208C1765.24 782.208 1765.83 782.592 1765.83 783.744C1765.83 784.72 1765.4 786.208 1764.01 787.168L1763.5 786.528C1764.25 785.968 1764.71 785.104 1764.74 784.272C1764.2 784.304 1763.64 783.904 1763.64 783.264C1763.64 782.704 1764.06 782.208 1764.7 782.208ZM1769.46 792.688H1775.19V794H1767.97V782.64H1775.11L1774.88 783.952H1769.46V787.856H1773.65V789.136H1769.46V792.688Z" fill="#4E2705"/>
<path d="M144 730H1776V726H144V730ZM1776 817H144V821H1776V817Z" fill="#4E2705" mask="url(#path-3-inside-1_751_169)"/>
<rect width="1920" height="70" fill="#FFF0E0"/>
<path d="M1829.04 30H1859V32.5H1829.04V30Z" fill="#4E2705"/>
<path d="M1829.04 37.5H1859V40H1829.04V37.5Z" fill="#4E2705"/>
<path d="M89.9231 33.5879L82.2394 26.0585L76.7287 31.633L89.9231 44.7483V39.1877V33.5879Z" fill="#FFF0E0"/>
<path d="M81.2003 27.1096L76.7287 31.633L89.9231 44.7483V41.8135C89.4221 41.5093 88.4976 40.7744 88.0422 40.2995C87.9035 40.1549 87.6368 39.9616 87.2804 39.7338C86.9269 39.5078 86.4943 39.2537 86.031 38.9873C85.8262 38.8695 85.6152 38.7492 85.4027 38.6281C84.6565 38.2028 83.8903 37.766 83.2954 37.3823C82.4472 36.8352 81.7276 36.318 81.0711 35.4792C80.2721 34.4585 79.6709 32.8659 79.973 31.4877C80.0939 30.936 80.474 30.529 80.9277 30.2623C81.3809 29.9958 81.9177 29.8627 82.3757 29.8627C82.9892 29.8627 83.392 30.0944 83.8561 30.3615C83.9601 30.4213 84.0672 30.4829 84.1804 30.5441C84.7767 30.8662 85.3153 31.2987 85.815 31.763C86.2378 32.1559 86.6347 32.5842 87.0283 33.0089C87.114 33.1014 87.1996 33.1938 87.2853 33.2856C87.7658 33.8004 88.2501 34.2988 88.7872 34.7224C89.0052 34.8943 89.6914 35.2338 89.9231 35.3831V33.5879L86.9309 30.7066C85.7078 30.3947 84.497 29.9591 83.4978 29.168C83.2395 28.9636 83.0133 28.7322 82.7945 28.5047L82.7484 28.4568C82.5444 28.2445 82.3455 28.0375 82.1256 27.8514C82.0461 27.7841 81.9679 27.7151 81.8902 27.6463C81.6649 27.4473 81.4429 27.2511 81.2003 27.1096Z" fill="#4E2705"/>
<path d="M86.608 30.3866L82.2394 26.0585L81.3632 26.9448C81.6096 27.0975 81.8381 27.2996 82.0517 27.4886C82.1258 27.5542 82.1982 27.6182 82.2689 27.678C82.4981 27.872 82.7047 28.087 82.9071 28.2977L82.9546 28.3471C83.1738 28.5749 83.3905 28.7961 83.6355 28.9901C84.5012 29.6755 85.5343 30.087 86.608 30.3866Z" fill="#4E2705"/>
<path d="M88.6499 34.9007C88.9117 35.1071 89.6445 35.4604 89.9231 35.6351V36.7936C89.5725 36.5815 88.7517 36.173 88.3731 35.9932C87.8944 35.7657 87.4398 35.5404 87.0549 35.2241C86.9804 35.1628 86.9055 35.1022 86.8308 35.0418L86.8306 35.0417C86.5454 34.8111 86.2636 34.5832 86.0196 34.3311C85.9171 34.2253 85.825 34.1169 85.7304 34.0055C85.6755 33.9409 85.6197 33.8752 85.5605 33.8084C85.4552 33.6896 85.3375 33.578 85.2236 33.47C85.1709 33.42 85.1189 33.3707 85.0693 33.3218C85.0278 33.2809 84.986 33.2379 84.9433 33.194C84.8366 33.0842 84.7247 32.9691 84.5989 32.8673C84.43 32.7307 84.2368 32.6503 84.0507 32.5729L84.0122 32.5568C83.9162 32.5167 83.8217 32.4746 83.7272 32.4324C83.3913 32.2826 83.055 32.1325 82.6507 32.0744C82.6225 32.0703 82.5937 32.0661 82.5645 32.0617L82.5643 32.0617C82.3938 32.0364 82.2073 32.0087 82.0277 32.0085C81.9646 32.0084 81.9153 32.0273 81.8757 32.0488C81.8572 32.0589 81.8401 32.0699 81.8264 32.0787L81.8261 32.0789C81.8115 32.0883 81.8001 32.0956 81.7884 32.1022C81.6206 32.1961 81.5283 32.3283 81.4975 32.4828C81.4681 32.6306 81.4974 32.7865 81.5447 32.9301C81.6282 33.1833 81.8157 33.4006 82.0202 33.5879C82.1702 33.7252 82.3383 33.854 82.4919 33.9715L82.4922 33.9718C82.5476 34.0142 82.6011 34.0552 82.6511 34.0946C82.9203 34.3065 83.2023 34.5099 83.5069 34.6892C83.5428 34.7104 83.5782 34.7308 83.6129 34.7508C83.7391 34.8236 83.8576 34.8919 83.9655 34.9751C84.0418 35.034 84.1143 35.0964 84.1894 35.1612L84.2062 35.1756C84.2865 35.2448 84.3701 35.3162 84.4601 35.3831C84.5524 35.4517 84.6436 35.5162 84.7334 35.5796C84.8957 35.6941 85.0533 35.8054 85.2037 35.932C85.4591 36.147 85.6952 36.3752 85.9343 36.6063L85.9351 36.607C86.027 36.6959 86.1194 36.7851 86.2135 36.8742C86.5502 37.1932 86.9044 37.5054 87.3217 37.7671C87.6003 37.9417 87.8918 38.0994 88.1814 38.254L88.2679 38.3002C88.5291 38.4394 88.7877 38.5773 89.0373 38.7258C89.1792 38.8102 89.7812 39.1021 89.9231 39.1877V41.5046C89.4922 41.2219 88.6199 40.5772 88.2025 40.1421C88.0431 39.9759 87.7552 39.7699 87.3998 39.5427C87.0415 39.3138 86.6051 39.0574 86.1414 38.7908C85.9345 38.6718 85.7223 38.5508 85.5089 38.4292L85.5086 38.429C84.7633 38.0042 84.0047 37.5718 83.4155 37.1917C82.573 36.6484 81.8791 36.1474 81.2462 35.3389C80.4729 34.351 79.9084 32.8265 80.1911 31.5367C80.2946 31.0644 80.6223 30.7032 81.04 30.4577C81.4581 30.2119 81.9559 30.0887 82.3757 30.0887C82.9256 30.0887 83.2711 30.2867 83.7295 30.5494C83.8372 30.6111 83.951 30.6764 84.0752 30.7434C84.6484 31.0531 85.1713 31.4717 85.6638 31.9294C86.0799 32.3161 86.4699 32.7369 86.8633 33.1613L86.864 33.1621C86.95 33.2549 87.0362 33.3479 87.1228 33.4407C87.6042 33.9564 88.0984 34.4657 88.6499 34.9007Z" fill="#4E2705"/>
<path d="M89.9231 38.8788V37.1917C89.5409 36.9566 88.6899 36.3934 88.2781 36.1977C87.8011 35.9711 87.3228 35.7354 86.9141 35.3995C86.8428 35.3409 86.77 35.2821 86.6967 35.2228C86.4102 34.9913 86.1145 34.7521 85.8599 34.4893C85.7532 34.379 85.6518 34.2598 85.5534 34.144L85.5532 34.1438C85.4995 34.0806 85.4465 34.0183 85.3942 33.9593C85.2953 33.8477 85.1899 33.7478 85.0801 33.6438C85.0255 33.5921 84.9699 33.5394 84.9134 33.4836C84.8646 33.4355 84.8188 33.3884 84.774 33.3424C84.6714 33.2367 84.5743 33.1368 84.4594 33.0438C84.3163 32.9281 84.1511 32.8592 83.9577 32.7786L83.9269 32.7657C83.8205 32.7213 83.7195 32.6763 83.6212 32.6325C83.2904 32.4852 82.9902 32.3515 82.6193 32.2981C82.5891 32.2938 82.5589 32.2893 82.5288 32.2849C82.3575 32.2595 82.1894 32.2347 82.0274 32.2344C82.0119 32.2344 81.9993 32.2382 81.9813 32.2479C81.9712 32.2535 81.9607 32.2601 81.9462 32.2694L81.9442 32.2707C81.9311 32.2792 81.9145 32.2899 81.8966 32.2999C81.7818 32.3642 81.7334 32.4428 81.7165 32.5275C81.6983 32.6189 81.7144 32.7304 81.7567 32.8585C81.8217 33.0558 81.9745 33.2411 82.1702 33.4203C82.3123 33.5504 82.4682 33.6699 82.6194 33.7857C82.6767 33.8296 82.7334 33.873 82.7883 33.9162C83.0528 34.1244 83.3261 34.3213 83.6193 34.4939C83.6509 34.5126 83.6834 34.5313 83.7164 34.5503C83.8444 34.624 83.9799 34.702 84.101 34.7954C84.1823 34.8582 84.2592 34.9244 84.3334 34.9884L84.351 35.0036C84.4316 35.0729 84.5096 35.1394 84.5924 35.201C84.6752 35.2625 84.7619 35.3239 84.8498 35.386C85.0176 35.5046 85.1897 35.6263 85.3466 35.7583C85.6083 35.9785 85.8528 36.2149 86.0939 36.4479C86.1849 36.5359 86.2754 36.6233 86.3661 36.7093C86.6997 37.0251 87.0411 37.3253 87.4394 37.575C87.7107 37.7451 87.996 37.8995 88.2856 38.0541L88.3724 38.1004C88.6329 38.2393 88.8962 38.3796 89.1506 38.531C89.2552 38.5932 89.8194 38.8163 89.9231 38.8788Z" fill="#4E2705"/>
<path d="M89.9231 45.6117L82.309 37.952L76.4218 43.8563L82.309 50H89.9231V45.6117Z" fill="#FFF0E0"/>
<path d="M89.9231 45.6117L82.309 37.952L81.6641 38.5988C81.6846 38.6321 81.7037 38.6671 81.7202 38.7041C81.7455 38.7607 81.7677 38.8137 81.7889 38.8643L81.789 38.8645C81.8447 38.9973 81.8936 39.1139 81.9732 39.2371C82.2162 39.6126 82.5176 39.9954 82.8061 40.3433C83.1882 40.8041 83.6964 41.1749 84.2152 41.472C84.4075 41.5821 84.6095 41.6806 84.8164 41.7815C84.8996 41.822 84.9835 41.863 85.068 41.9052C85.3591 42.0509 85.6512 42.2098 85.9096 42.413C86.8597 43.1601 87.6086 44.2153 88.1903 45.2644C88.5985 46.0006 88.8749 46.8123 89.1178 47.6064C89.2409 48.0089 89.4198 48.3593 89.6071 48.7261C89.6872 48.8832 89.769 49.0433 89.8485 49.2117C89.8807 49.28 89.9043 49.3485 89.9231 49.4156V45.6117Z" fill="#4E2705"/>
<path d="M80.3015 39.9653L81.491 38.7724C81.4962 38.7825 81.5012 38.7927 81.5058 38.803C81.5262 38.8487 81.5457 38.8953 81.5655 38.9425C81.6238 39.0816 81.6843 39.226 81.7765 39.3686C82.0272 39.7561 82.3357 40.1474 82.626 40.4976C83.0329 40.9882 83.5673 41.3757 84.0997 41.6805C84.2991 41.7947 84.5119 41.8985 84.7216 42.0008C84.8032 42.0406 84.8843 42.0802 84.964 42.12C85.252 42.2641 85.5266 42.4144 85.7655 42.6023C86.6806 43.3219 87.411 44.3464 87.9851 45.3819C88.3805 46.0948 88.6509 46.8861 88.893 47.6775C89.0226 48.1012 89.2165 48.4813 89.4078 48.8563L89.4079 48.8564C89.4859 49.0093 89.5635 49.1614 89.6362 49.3153C89.6806 49.4094 89.706 49.5082 89.7293 49.6166C89.7337 49.637 89.7381 49.6581 89.7426 49.6796C89.761 49.7682 89.781 49.8643 89.8112 49.9576C89.8165 49.9738 89.8248 49.9881 89.8353 50H87.657C87.6388 49.9789 87.6135 49.9643 87.5849 49.9602C87.5757 49.9561 87.5628 49.9499 87.5476 49.9421C87.5088 49.9222 87.47 49.8994 87.4538 49.8874C87.3257 49.7922 87.22 49.6807 87.1066 49.5611C87.053 49.5046 86.9976 49.4461 86.9373 49.3868C86.6777 49.1313 86.3661 48.9426 86.068 48.7622L86.0609 48.7579C85.7564 48.5735 85.466 48.3969 85.2266 48.161C84.77 47.7108 84.273 47.3475 83.7406 47.005C83.4859 46.8412 83.2129 46.7148 82.9493 46.5928L82.9039 46.5717C82.6235 46.4418 82.3547 46.3142 82.1114 46.1458C81.6861 45.8513 81.2695 45.5553 80.9148 45.1903C80.7717 45.0429 80.6519 44.8712 80.5269 44.6901L80.5159 44.6741C80.3962 44.5006 80.2707 44.3187 80.1204 44.1596C79.8194 43.841 79.5826 43.4011 79.4435 42.9786C79.2808 42.4841 79.02 41.977 78.7447 41.5267L79.1982 41.0719C79.2389 41.087 79.2805 41.103 79.3225 41.1195C79.5115 41.1936 79.7057 41.2779 79.8623 41.3519C79.9406 41.3889 80.0087 41.4229 80.0616 41.4515C80.1175 41.4817 80.1484 41.5015 80.1587 41.5102C80.7674 42.0173 81.2704 42.6933 81.6566 43.3994C81.8088 43.6774 81.9883 43.9438 82.163 44.203C82.2352 44.3102 82.3066 44.4162 82.3749 44.5212C82.5319 44.7627 82.7308 45.0066 82.916 45.2338C82.9673 45.2967 83.0175 45.3583 83.0655 45.4183C83.6111 46.0993 84.478 46.5292 85.3276 46.5292C85.6447 46.5292 85.9324 46.5154 86.253 46.4154C86.3001 46.4007 86.3444 46.3761 86.3778 46.3365C86.412 46.2958 86.4269 46.2485 86.4296 46.2029C86.4344 46.1201 86.3989 46.0377 86.3664 45.9761C86.332 45.9108 86.2876 45.845 86.2515 45.7916L86.2508 45.7906C86.2106 45.7311 86.186 45.6939 86.1765 45.6721C86.0434 45.3649 85.8584 45.068 85.6813 44.7837C85.6099 44.669 85.5396 44.5562 85.4746 44.4458C85.4385 44.3843 85.4025 44.3217 85.3661 44.2586C85.1825 43.9397 84.9905 43.6063 84.7318 43.3275C84.6817 43.2735 84.6306 43.2176 84.5785 43.1605C84.2974 42.8529 83.9871 42.5131 83.6455 42.2707C83.4261 42.1149 83.1904 41.9923 82.9613 41.8755L82.9152 41.852C82.7002 41.7425 82.4923 41.6366 82.2978 41.5084C81.5795 41.0349 80.9187 40.5466 80.3015 39.9653Z" fill="#4E2705"/>
<path d="M86.9203 49.7101C87.0122 49.8069 87.1093 49.9091 87.2146 50H83.6792C83.6008 49.8538 83.482 49.7224 83.3636 49.6078C83.2773 49.5244 83.1858 49.445 83.1015 49.3719L83.0929 49.3644C83.0049 49.2881 82.9267 49.2199 82.8647 49.157C82.7549 49.0456 82.6339 48.9427 82.5175 48.8438L82.5173 48.8437C82.4864 48.8174 82.4558 48.7915 82.4258 48.7657C82.2803 48.6403 82.1457 48.5166 82.0357 48.3736C81.8192 48.0924 81.5706 47.8409 81.3269 47.5944C81.2313 47.4977 81.1364 47.4018 81.0446 47.3051C80.8655 47.1166 80.7026 46.9132 80.5357 46.7049L80.5101 46.6729C80.3353 46.4549 80.1554 46.2324 79.953 46.027C79.4626 45.5293 78.986 45.0222 78.5072 44.5128L78.5068 44.5124C78.3903 44.3883 78.2736 44.2642 78.1565 44.14C78.0336 44.0095 77.8912 43.8978 77.7552 43.7926L77.7308 43.7738C77.6013 43.6738 77.4786 43.579 77.3708 43.4726C77.3484 43.4505 77.3257 43.427 77.3022 43.4028C77.2357 43.3341 77.1638 43.2599 77.08 43.1962L78.5727 41.6992C78.8311 42.1271 79.0704 42.5993 79.2202 43.0545C79.3678 43.5029 79.6204 43.9759 79.9505 44.3254C80.0881 44.471 80.2045 44.6396 80.3274 44.8178L80.3341 44.8276C80.4576 45.0065 80.5881 45.1946 80.7473 45.3584C81.1201 45.7422 81.5546 46.0498 81.9788 46.3436C82.2409 46.5251 82.5272 46.6602 82.8062 46.7895L82.8476 46.8087C83.1147 46.9324 83.3741 47.0525 83.6147 47.2073C84.1397 47.545 84.622 47.8983 85.0627 48.3328C85.324 48.5903 85.6371 48.7799 85.9362 48.961L85.9404 48.9635C86.245 49.1479 86.5349 49.3239 86.7735 49.5588C86.8212 49.6058 86.87 49.6571 86.9203 49.7101Z" fill="#4E2705"/>
<path d="M76.9101 43.3666L76.4218 43.8563L82.309 50H83.3986C83.345 49.9282 83.2778 49.8553 83.2012 49.7812C83.1197 49.7023 83.0324 49.6266 82.9469 49.5525L82.94 49.5465C82.8538 49.4717 82.7681 49.3971 82.6984 49.3264C82.5966 49.2232 82.4861 49.1292 82.3709 49.0313L82.3706 49.0311C82.3386 49.0039 82.3063 48.9764 82.2736 48.9483C82.1261 48.8213 81.9759 48.6844 81.8502 48.5211C81.6433 48.2524 81.4107 48.0171 81.1711 47.7747C81.0732 47.6757 80.9742 47.5755 80.8753 47.4714C80.689 47.2754 80.5203 47.0647 80.3549 46.8583L80.3275 46.8241C80.1522 46.6054 79.9794 46.392 79.7866 46.1964C79.2941 45.6965 78.8151 45.1869 78.3361 44.6772C78.2196 44.5533 78.1031 44.4293 77.9865 44.3055C77.878 44.1905 77.7498 44.0892 77.6126 43.9832L77.5856 43.9623C77.4587 43.8643 77.3251 43.7612 77.2068 43.6443C77.1762 43.6141 77.1481 43.5853 77.1215 43.558C77.0471 43.4817 76.9841 43.4171 76.9101 43.3666Z" fill="#4E2705"/>
<path d="M80.1337 40.1336L79.3829 40.8866L79.4073 40.8961C79.6011 40.9722 79.8001 41.0585 79.9615 41.1348C80.0422 41.1729 80.1143 41.2089 80.1721 41.2401C80.2269 41.2697 80.2773 41.2994 80.308 41.325C80.9455 41.8562 81.466 42.5584 81.8625 43.283C82.009 43.5509 82.1785 43.8024 82.3505 44.0576C82.4242 44.1669 82.4984 44.277 82.5714 44.3893C82.7206 44.6188 82.9082 44.849 83.0922 45.0747C83.1448 45.1393 83.1971 45.2035 83.2481 45.2671C83.7506 45.8943 84.5514 46.2899 85.3276 46.2899C85.638 46.2899 85.8975 46.2759 86.1838 46.1866C86.1884 46.1851 86.1918 46.1838 86.1943 46.1827C86.1928 46.1676 86.1843 46.1374 86.1589 46.0891C86.1314 46.0371 86.0944 45.9818 86.0567 45.9261L86.051 45.9177C86.0184 45.8696 85.9805 45.8136 85.961 45.7686C85.8354 45.4787 85.6657 45.2063 85.4925 44.9285C85.4188 44.8101 85.3444 44.6907 85.2725 44.5686C85.2341 44.5033 85.1966 44.4382 85.1594 44.3737L85.159 44.373C84.9753 44.0545 84.7991 43.7489 84.5605 43.4918C84.5077 43.4349 84.4548 43.377 84.4015 43.3187C84.1197 43.0106 83.8296 42.6933 83.5107 42.4669C83.3069 42.3223 83.0855 42.2066 82.8557 42.0894L82.8072 42.0647C82.5947 41.9565 82.3756 41.8449 82.1697 41.7092C81.4418 41.2294 80.7665 40.7307 80.1337 40.1336Z" fill="#4E2705"/>
<path d="M81.3314 50L76.0758 44.4394L70.5917 50H81.3314Z" fill="#FFF0E0"/>
<path d="M79.5872 48.1546L78.8309 47.3544C78.3937 47.481 77.9704 47.6131 77.5693 47.8214C77.2778 47.9729 76.9255 48.1731 76.7221 48.408C76.2973 48.8986 76.0112 49.405 75.8065 50H78.5963C78.6405 49.9374 78.6868 49.8784 78.725 49.8295C78.7417 49.8082 78.7568 49.7889 78.7697 49.772C78.8428 49.6757 78.9234 49.5813 79.0016 49.4898C79.0316 49.4546 79.0613 49.4198 79.0901 49.3855C79.196 49.2594 79.2933 49.1353 79.3705 49.0019C79.5218 48.7407 79.5768 48.4641 79.5872 48.1546Z" fill="#4E2705"/>
<path d="M79.8005 48.3803C79.7724 48.639 79.7048 48.8894 79.5646 49.1314C79.4762 49.2839 79.3678 49.421 79.2599 49.5497C79.2281 49.5876 79.1966 49.6245 79.1656 49.6609C79.0891 49.7504 79.0155 49.8366 78.9467 49.9271C78.9302 49.9488 78.9125 49.9714 78.8941 49.9949C78.8928 49.9966 78.8915 49.9983 78.8901 50H81.3314L79.8005 48.3803Z" fill="#4E2705"/>
<path d="M77.2911 45.7252L78.6425 47.1551C78.2452 47.2726 77.8476 47.4043 77.4698 47.6006C77.1828 47.7497 76.7916 47.9675 76.5548 48.241C76.0878 48.7803 75.7797 49.34 75.5637 50H74.0927C74.0972 49.9857 74.0998 49.972 74.1014 49.9601C74.1057 49.9274 74.104 49.8945 74.1026 49.8723L74.102 49.8627L74.1013 49.8533C74.1002 49.8372 74.0994 49.8254 74.0994 49.8131C74.0994 49.6328 74.1246 49.4857 74.161 49.2975C74.1789 49.2046 74.2245 49.0957 74.2826 48.9768C74.3044 48.9321 74.3293 48.8838 74.3542 48.8352C74.3906 48.7644 74.4273 48.693 74.4554 48.6316C74.5029 48.5277 74.5356 48.4195 74.5652 48.3214L74.5654 48.321C74.5691 48.3086 74.5728 48.2964 74.5765 48.2843C74.6103 48.1734 74.6428 48.0754 74.6925 47.9865C74.8133 47.7703 75.0091 47.6399 75.245 47.5295C75.3325 47.4885 75.4219 47.4519 75.5137 47.4143C75.5462 47.401 75.579 47.3875 75.6121 47.3737C75.7365 47.3219 75.8633 47.2658 75.9804 47.1963C76.0136 47.1766 76.0467 47.1572 76.0796 47.1379C76.3516 46.978 76.6141 46.8237 76.8531 46.5793C76.9855 46.4439 77.1335 46.1991 77.2254 45.9482C77.2521 45.8755 77.2748 45.8002 77.2911 45.7252Z" fill="#4E2705"/>
<path d="M76.0758 44.4394L77.0893 45.5117C77.089 45.5212 77.0885 45.531 77.0877 45.5411C77.0807 45.6372 77.0538 45.7466 77.0128 45.8584C76.9301 46.0842 76.7986 46.2963 76.6955 46.4017C76.4795 46.6226 76.2438 46.7613 75.9689 46.9232C75.9365 46.9423 75.9035 46.9617 75.8699 46.9816C75.767 47.0427 75.6522 47.0939 75.5294 47.145C75.499 47.1577 75.4678 47.1705 75.4363 47.1834C75.3431 47.2216 75.2465 47.2612 75.1537 47.3046C74.904 47.4215 74.6545 47.5777 74.4966 47.8603C74.4324 47.975 74.3933 48.0965 74.3593 48.208L74.3479 48.2456C74.3176 48.3455 74.2901 48.4364 74.2502 48.5235C74.2232 48.5827 74.1925 48.6421 74.1594 48.7063C74.1343 48.7551 74.1078 48.8066 74.0803 48.8628C74.021 48.9841 73.9621 49.1189 73.9372 49.2476C73.9004 49.4381 73.8709 49.606 73.8709 49.8131C73.8709 49.8353 73.8726 49.8593 73.8738 49.877C73.8741 49.8813 73.8744 49.8853 73.8746 49.8887L73.8747 49.8907C73.8323 49.907 73.8015 49.9495 73.7991 50H72.2304C72.2346 49.9433 72.2519 49.8844 72.2784 49.8182C72.2931 49.7813 72.3096 49.7445 72.3274 49.705L72.3296 49.7002C72.3478 49.6598 72.3672 49.6164 72.3844 49.5722C72.6072 48.998 72.7464 48.3821 72.801 47.7599L76.0758 44.4394Z" fill="#4E2705"/>
<path d="M72.5422 48.0223L70.5917 50H72.0014C72.006 49.8968 72.0357 49.8032 72.0684 49.7215C72.0852 49.6793 72.1038 49.638 72.121 49.5998L72.1238 49.5935C72.1423 49.5525 72.1591 49.5149 72.1735 49.4778C72.3531 49.0151 72.4763 48.5231 72.5422 48.0223Z" fill="#4E2705"/>
<path d="M81.9451 37.5659L76.1011 32.0825L62.1535 45.6751V50H69.6338L81.9451 37.5659Z" fill="#FFF0E0"/>
<path d="M76.1011 32.0825L78.8046 34.6192C75.9283 35.4896 73.3842 37.4973 71.3569 39.6174C71.1056 39.8803 70.8603 40.1459 70.6158 40.4106C70.1044 40.9641 69.5967 41.5137 69.0456 42.0258C68.7593 42.2919 68.4845 42.5787 68.2119 42.8634C68.1082 42.9716 68.0049 43.0795 67.9013 43.1858C67.5231 43.5741 67.1385 43.9451 66.711 44.2536C66.0202 44.7521 65.2987 45.2285 64.5801 45.703L64.5798 45.7032L64.5795 45.7034C64.3588 45.8491 64.1385 45.9946 63.9194 46.1405C63.6159 46.3426 63.2984 46.5216 62.9768 46.7029C62.9169 46.7366 62.857 46.7704 62.7969 46.8044C62.581 46.9268 62.3647 47.0521 62.1535 47.1869V45.6751L72.2381 35.8472C72.5423 35.8261 72.8466 35.7929 73.1524 35.7419C73.1895 35.7358 73.2277 35.7296 73.2668 35.7232L73.267 35.7232C73.4453 35.6942 73.6427 35.6621 73.8351 35.616C74.07 35.5596 74.3075 35.4802 74.5064 35.3526C74.601 35.2919 74.678 35.2069 74.7432 35.1275C74.7682 35.0971 74.7908 35.0683 74.8124 35.041C74.8512 34.9917 74.8865 34.947 74.9253 34.9052C75.0591 34.7611 75.0971 34.5875 75.0735 34.4225C75.0503 34.2607 74.9686 34.1076 74.8629 33.9878C74.7434 33.8525 74.61 33.7515 74.4666 33.6754L76.1011 32.0825Z" fill="#4E2705"/>
<path d="M74.2904 33.8471L72.4986 35.5933C72.7037 35.5737 72.9085 35.5477 73.1137 35.5135C73.1526 35.507 73.1921 35.5005 73.2321 35.4941L73.2323 35.494C73.4103 35.4651 73.5971 35.4347 73.7801 35.3908C74.004 35.3371 74.2124 35.2652 74.3794 35.158C74.4417 35.1181 74.4997 35.0569 74.5619 34.9812C74.5803 34.9588 74.5998 34.9342 74.6199 34.9087C74.6626 34.8546 74.7084 34.7966 74.7532 34.7484C74.8335 34.6619 74.8572 34.5605 74.8421 34.455C74.8265 34.3463 74.7691 34.2334 74.687 34.1404C74.5711 34.0091 74.4385 33.9153 74.2904 33.8471Z" fill="#4E2705"/>
<path d="M73.2753 42.6429C73.4646 42.5386 73.6539 42.4343 73.8423 42.3292L73.8439 42.3283L73.8444 42.328C75.1385 41.6061 76.3882 40.8483 77.2888 39.8098C77.4219 39.6563 77.5737 39.472 77.6705 39.2891C77.7699 39.1013 77.7926 38.951 77.731 38.8407C77.7126 38.8079 77.6763 38.7806 77.6092 38.7622C77.5414 38.7437 77.4566 38.7384 77.3643 38.7397C76.8317 38.7471 76.2844 38.9432 75.7491 39.1541C75.0082 39.4461 74.3128 39.8031 73.6255 40.198C73.5066 40.2662 73.3856 40.3345 73.2637 40.4033C72.5581 40.8016 71.8232 41.2165 71.3008 41.7408C71.0787 41.9636 70.9036 42.2528 70.819 42.5387C70.7338 42.8262 70.7443 43.0939 70.8664 43.2902C70.9042 43.351 70.9772 43.3899 71.1053 43.3971C71.2337 43.4043 71.3952 43.3775 71.5715 43.3298C71.8365 43.2581 72.1094 43.1471 72.3225 43.0603C72.394 43.0312 72.4587 43.0049 72.5142 42.9837C72.7786 42.8826 73.0113 42.7787 73.2495 42.6572L73.2753 42.6429Z" fill="#4E2705"/>
<path fill-rule="evenodd" clip-rule="evenodd" d="M78.9911 34.8057L79.0005 34.803L80.8764 36.5631C80.791 36.6971 80.711 36.8347 80.6372 36.9763C80.4364 37.3615 80.2704 37.7606 80.1083 38.1557L80.0787 38.2278C79.9262 38.5998 79.7756 38.9672 79.5991 39.323C79.3861 39.7522 79.1635 40.1978 78.9138 40.6274L76.6185 42.9456C76.305 43.1188 75.9824 43.2816 75.6574 43.4456C75.5864 43.4814 75.5153 43.5173 75.4441 43.5533C74.8733 43.8426 74.3012 44.1427 73.7789 44.5124C73.7258 44.55 73.6723 44.588 73.6185 44.6263C73.1396 44.967 72.6334 45.3271 72.1231 45.564C71.9485 45.645 71.7727 45.765 71.6057 45.879C71.5747 45.9002 71.5439 45.9212 71.5135 45.9417C71.3133 46.0767 71.1269 46.1919 70.9457 46.2427C70.674 46.3188 70.4204 46.4318 70.1753 46.5482C70.1239 46.5727 70.073 46.5972 70.0224 46.6215L70.0214 46.622L70.021 46.6222L70.0206 46.6224C69.828 46.7151 69.6395 46.8058 69.4431 46.8828C69.1866 46.9834 68.9211 47.0559 68.6489 47.127L68.5592 47.1504C68.3173 47.2132 68.0702 47.2775 67.8279 47.3608C67.1364 47.5986 66.4262 47.7781 65.7114 47.9588C65.2705 48.0703 64.8277 48.1822 64.3867 48.3085C64.0853 48.3948 63.7785 48.4699 63.4688 48.5457L63.3696 48.57C63.0272 48.654 62.6821 48.7403 62.3435 48.8439C62.28 48.8634 62.2166 48.8835 62.1535 48.9043V47.4642C62.3976 47.3017 62.6529 47.153 62.913 47.0055C62.9719 46.9721 63.0312 46.9387 63.0906 46.9052C63.4121 46.7241 63.7384 46.5401 64.0497 46.3328C64.2673 46.1879 64.4868 46.043 64.707 45.8976C65.4264 45.4226 66.1534 44.9425 66.8486 44.4409C67.2931 44.1201 67.6891 43.7373 68.0695 43.3468C68.1761 43.2373 68.2813 43.1275 68.386 43.0182C68.6569 42.7353 68.9245 42.456 69.2055 42.1948C69.7631 41.6767 70.2812 41.1159 70.7959 40.5587C71.039 40.2956 71.2813 40.0334 71.5266 39.7768C73.5695 37.6403 76.1222 35.6394 78.9911 34.8057ZM72.5983 43.1998C72.868 43.0967 73.1056 42.9907 73.3468 42.8681C73.35 42.8667 73.3532 42.8651 73.3563 42.8634L73.3598 42.8615C73.5497 42.7645 73.7421 42.6571 73.9546 42.5326C74.0574 42.4825 74.3437 42.3155 74.4521 42.2513C75.5755 41.6051 76.6559 40.895 77.4661 39.9608C77.5992 39.8073 77.7671 39.6054 77.8775 39.3967C77.9854 39.1929 78.0573 38.9464 77.9354 38.7283C77.8753 38.6209 77.7721 38.5665 77.6714 38.5389C77.5714 38.5115 77.4601 38.5066 77.361 38.508C76.78 38.5161 76.1954 38.7289 75.6627 38.9388C74.9077 39.2363 74.2017 39.5992 73.5082 39.9975C73.3929 40.0638 73.2742 40.1307 73.1536 40.1987C72.4498 40.5956 71.6817 41.0287 71.1344 41.578C70.8869 41.8264 70.6909 42.1486 70.5947 42.4734C70.499 42.7967 70.4979 43.1392 70.6675 43.4118C70.762 43.5638 70.926 43.619 71.0921 43.6284C71.2579 43.6377 71.448 43.6034 71.6331 43.5533C71.9137 43.4774 72.2089 43.3572 72.4231 43.27L72.4233 43.2699C72.4907 43.2425 72.55 43.2183 72.5983 43.1998Z" fill="#4E2705"/>
<path d="M62.1535 49.1489V50H66.48C66.825 49.5854 67.2224 49.1646 67.6629 48.8718C68.1045 48.5782 68.6363 48.4267 69.1731 48.3421C69.6614 48.2652 70.1625 48.2425 70.6125 48.222C70.6571 48.22 70.7013 48.218 70.7449 48.216C70.9216 48.2077 71.097 48.2017 71.2714 48.1957C71.3228 48.1939 71.3742 48.1922 71.4255 48.1904L76.0753 43.4942C75.9711 43.5473 75.8669 43.5999 75.7629 43.6523L75.7618 43.6529C75.6912 43.6885 75.6208 43.724 75.5505 43.7596C74.9799 44.0488 74.4216 44.3421 73.9148 44.701C73.8628 44.7377 73.8103 44.7751 73.7571 44.813L73.7542 44.815L73.754 44.8152C73.278 45.1539 72.7535 45.5272 72.2222 45.7738C72.0667 45.846 71.9099 45.9529 71.7424 46.0671C71.7104 46.0889 71.6779 46.111 71.645 46.1332C71.4466 46.267 71.2316 46.4034 71.0093 46.4657C70.7579 46.5361 70.5194 46.6418 70.2763 46.7572C70.2268 46.7807 70.177 46.8047 70.1268 46.8289C69.9332 46.922 69.7345 47.0177 69.5291 47.0982C69.2583 47.2044 68.9809 47.2799 68.7085 47.351L68.6186 47.3744C68.3756 47.4376 68.1376 47.4995 67.9046 47.5796C67.2065 47.8197 66.4761 48.0046 65.7524 48.1877C65.3135 48.2988 64.8769 48.4093 64.4516 48.5311C64.1455 48.6187 63.8342 48.6949 63.5251 48.7706L63.4258 48.7949C63.0833 48.8789 62.744 48.9638 62.4125 49.0653C62.3255 49.092 62.2391 49.1197 62.1535 49.1489Z" fill="#4E2705"/>
<path d="M69.6338 50H66.7853C67.0916 49.6452 67.4291 49.3062 67.7931 49.0642C68.1949 48.7971 68.6891 48.653 69.2098 48.5709C69.6844 48.4962 70.1724 48.474 70.6243 48.4534C70.6685 48.4514 70.7124 48.4494 70.7558 48.4474C70.899 48.4407 71.0431 48.4355 71.1878 48.4305L69.6338 50Z" fill="#4E2705"/>
<path d="M79.5041 40.0312L81.9451 37.5659L81.0495 36.7256C80.9768 36.8418 80.9084 36.9607 80.8449 37.0826C80.6496 37.4573 80.4872 37.8473 80.3248 38.243L80.2945 38.3169C80.1427 38.6871 79.9891 39.0618 79.8088 39.4252C79.7108 39.6228 79.6098 39.826 79.5041 40.0312Z" fill="#4E2705"/>
<path d="M81.8635 25.6733L76.2197 20L62.0695 33.47L62 44.901L81.8635 25.6733Z" fill="#FFF0E0"/>
<path d="M78.0175 21.8072L76.2197 20L70.3684 25.57C70.3312 25.7144 70.2883 25.8566 70.2455 25.9987L70.2454 25.999C70.2289 26.0539 70.2124 26.1087 70.1962 26.1637C69.9401 27.0324 69.6307 27.7924 68.957 28.4506C68.1425 29.2463 66.9523 30.2068 65.703 30.6996C65.3659 30.8326 65.0227 30.932 64.6804 30.9846L62.0695 33.47L62.0585 35.2724C63.5152 34.5794 64.9262 33.7665 66.2192 32.8256C67.2015 32.1108 68.1252 31.3201 68.9374 30.4182C69.3438 29.967 69.7237 29.4933 70.1057 29.017L70.106 29.0166L70.1062 29.0164L70.1067 29.0158C70.2257 28.8674 70.345 28.7187 70.4652 28.5704C71.5561 27.2255 72.7351 25.9588 73.9358 24.7183C74.8923 23.7302 75.8115 22.9385 77.0429 22.2984C77.3656 22.1306 77.6908 21.9672 78.0175 21.8072Z" fill="#4E2705"/>
<path d="M64.9944 30.6857C65.2022 30.6342 65.4109 30.5659 65.619 30.4839C66.8271 30.0074 67.9914 29.0711 68.7968 28.2843C69.428 27.6675 69.7234 26.9532 69.9755 26.0977C69.9923 26.0408 70.0092 25.9848 70.0258 25.9296C70.0305 25.914 70.0352 25.8983 70.0398 25.8828L64.9944 30.6857Z" fill="#4E2705"/>
<path d="M62.0407 38.1994L62.0268 40.4848C62.5197 40.4648 63.026 40.3932 63.4437 40.1968C64.3648 39.7639 65.0105 39.1684 65.6122 38.5435C65.7286 38.4227 65.8436 38.3003 65.9589 38.1777L65.959 38.1776C66.4369 37.6694 66.9189 37.1568 67.5169 36.7273C67.9407 36.423 68.3965 36.1724 68.8482 35.928L68.9321 35.8827C69.3571 35.653 69.7766 35.4262 70.1714 35.1595C70.4201 34.9914 70.669 34.8219 70.9182 34.6521L70.9186 34.6518C71.4907 34.2621 72.0646 33.8711 72.6435 33.4936C73.4451 32.9708 74.2784 32.5852 75.1258 32.1953L78.2678 29.1539C78.144 29.2304 78.0094 29.3124 77.8616 29.4004L77.8571 29.4031L77.8524 29.4054C77.155 29.7394 76.7781 29.932 76.2355 30.2093L76.2352 30.2094L76.2346 30.2097C75.8135 30.4249 75.2926 30.6911 74.4448 31.1138L74.4358 31.1183L74.4263 31.1211C74.0193 31.2421 73.5815 31.4335 73.1385 31.6348C73.0753 31.6635 73.012 31.6924 72.9487 31.7213C72.571 31.8938 72.1929 32.0664 71.8388 32.1959C70.0119 32.8639 68.2364 33.7419 66.5828 34.768C65.8217 35.2403 65.1094 35.7858 64.404 36.349C64.2256 36.4914 64.0476 36.635 63.8693 36.7788C63.3439 37.2025 62.8162 37.6281 62.2727 38.0287C62.1954 38.0856 62.1181 38.1425 62.0407 38.1994Z" fill="#4E2705"/>
<path d="M62.0254 40.7167L62.0183 41.8991C62.4623 42.1801 62.7652 42.4224 62.947 42.6341C63.1339 42.8517 63.215 43.0649 63.1401 43.2625C63.0695 43.4489 62.8761 43.5707 62.6527 43.6568C62.4718 43.7265 62.2505 43.7806 62.0065 43.8241L62 44.901L74.6193 32.6856C73.9849 32.9846 73.3683 33.297 72.7686 33.688C72.1917 34.0642 71.621 34.453 71.0499 34.8421C70.8001 35.0123 70.5501 35.1826 70.2996 35.3519C69.8951 35.6252 69.4661 35.857 69.0433 36.0855L68.9572 36.1321C68.5047 36.3769 68.061 36.6212 67.6505 36.916C67.0725 37.3311 66.6093 37.8235 66.1327 38.33C66.0157 38.4544 65.8979 38.5796 65.7774 38.7048C65.1691 39.3365 64.5002 39.956 63.5411 40.4068C63.0799 40.6235 62.5335 40.6969 62.0254 40.7167Z" fill="#4E2705"/>
<path d="M62.008 43.5884L62.0166 42.173C62.3851 42.4148 62.6283 42.6173 62.7729 42.7856C62.9411 42.9815 62.9541 43.1036 62.9251 43.1799C62.8919 43.2675 62.7835 43.3583 62.5705 43.4404C62.4174 43.4994 62.2263 43.5478 62.008 43.5884Z" fill="#4E2705"/>
<path d="M62.0425 37.9112L62.1368 37.8417C62.6759 37.4444 63.1979 37.0234 63.7222 36.6005C63.9013 36.4561 64.0806 36.3114 64.261 36.1674C64.968 35.603 65.689 35.0505 66.4621 34.5707C68.1282 33.5369 69.9177 32.6518 71.7602 31.9781C72.1051 31.852 72.4738 31.6837 72.8521 31.511L72.8522 31.5109C72.9158 31.4819 72.9798 31.4527 73.0438 31.4236C73.4828 31.2242 73.9304 31.0279 74.3515 30.9018C75.189 30.4841 75.7075 30.2192 76.1281 30.0043L76.1282 30.0042C76.6727 29.7261 77.0529 29.5318 77.7489 29.1984C78.1526 28.9576 78.4573 28.7631 78.7116 28.6004L78.7254 28.5916C78.8543 28.5092 78.971 28.4346 79.0815 28.3663L81.8635 25.6733L81.2327 25.0392C81.1268 25.1005 81.0246 25.1646 80.9224 25.2309C80.8501 25.2778 80.7774 25.3262 80.7032 25.3755C80.5102 25.5038 80.3078 25.6385 80.0793 25.7701C79.8121 25.9241 79.4576 26.0627 79.1133 26.1972L79.0955 26.2041C78.7403 26.343 78.3973 26.4779 78.1452 26.6257C77.7705 26.8453 77.4469 27.0753 77.1023 27.3202C77.0487 27.3583 76.9947 27.3967 76.9399 27.4355C76.533 27.7234 76.0874 28.029 75.5001 28.3517C75.4251 28.3928 75.3525 28.4339 75.2812 28.4742C74.8462 28.7199 74.4617 28.9371 73.9081 28.9844L73.9006 28.9851C73.7671 28.9965 73.5816 29.0123 73.3965 29.015C73.2109 29.0177 73.0118 29.0076 72.8622 28.9596L72.8466 28.9546C72.7609 28.9272 72.6471 28.8909 72.5594 28.8299C72.5106 28.7959 72.4639 28.7506 72.4334 28.6891C72.4022 28.6262 72.3923 28.5549 72.4043 28.4773C72.4546 28.1523 72.6225 27.8657 72.818 27.6126C72.9556 27.4344 73.1138 27.2648 73.2595 27.1086L73.2597 27.1083C73.3191 27.0447 73.3764 26.9832 73.4294 26.9243C73.8785 26.4253 74.3437 25.9102 74.8753 25.479C75.7973 24.7313 76.8293 24.0305 77.8507 23.4319C78.2304 23.2094 78.6336 23.0114 79.0346 22.8296L78.1899 21.9805C77.8405 22.151 77.493 22.3251 77.1485 22.5042C75.9472 23.1287 75.0477 23.9017 74.1006 24.88C72.9017 26.1187 71.7281 27.3798 70.6435 28.7169C70.5247 28.8634 70.4063 29.011 70.2876 29.159C69.9047 29.6364 69.5191 30.1173 69.1079 30.5739C68.2825 31.4904 67.3459 32.2916 66.354 33.0133C65.0184 33.9852 63.56 34.8208 62.057 35.5292L62.0425 37.9112Z" fill="#4E2705"/>
<path d="M79.2089 23.0048L81.0643 24.8698C80.9731 24.9239 80.8849 24.9796 80.7977 25.0361C80.7213 25.0858 80.6461 25.1358 80.5706 25.186C80.3797 25.3129 80.1866 25.4413 79.965 25.569C79.7129 25.7144 79.3717 25.8477 79.0184 25.9858L79.0122 25.9882C78.6622 26.1249 78.3005 26.2666 78.0294 26.4254C77.6453 26.6505 77.3129 26.8869 76.9687 27.1315C76.9153 27.1695 76.8617 27.2076 76.8075 27.2459C76.4032 27.532 75.9659 27.8318 75.3899 28.1483C75.3112 28.1915 75.2363 28.2337 75.1641 28.2743L75.1638 28.2745L75.1635 28.2747C74.7282 28.5199 74.3893 28.7108 73.8886 28.7536L73.8833 28.754C73.7488 28.7655 73.5702 28.7808 73.3932 28.7833C73.2108 28.786 73.0438 28.7747 72.9321 28.7388L72.9315 28.7386C72.8332 28.7071 72.7488 28.68 72.6902 28.6392C72.663 28.6203 72.6476 28.6024 72.6393 28.5857C72.6317 28.5703 72.6262 28.5483 72.6317 28.513C72.6733 28.2442 72.8144 27.9946 72.9996 27.7549C73.1304 27.5856 73.2763 27.4291 73.4191 27.2761C73.4805 27.2103 73.5413 27.1451 73.6 27.0799C74.0508 26.5788 74.5044 26.0774 75.0197 25.6595C75.9315 24.9199 76.9538 24.2256 77.9665 23.6321C78.3618 23.4005 78.7855 23.1948 79.2089 23.0048Z" fill="#4E2705"/>
</svg>
