<svg width="1920" height="1024" viewBox="0 0 1920 1024" fill="none" xmlns="http://www.w3.org/2000/svg">
<rect width="1920" height="1024" fill="#FFF0E0"/>
<path d="M230.66 252.76C253.57 252.76 271.334 258.57 283.951 270.191C296.679 281.702 303.043 299.244 303.043 322.818V505.934C303.043 528.622 296.568 545.667 283.619 557.066C270.781 568.355 253.128 574 230.66 574H149.479V252.76H230.66ZM230.328 507.096V319.664C230.328 314.684 228.281 312.193 224.186 312.193H220.533V514.566H223.854C228.17 514.566 230.328 512.076 230.328 507.096ZM381.9 217.066H416.764L381.9 244.957H360.816L381.9 217.066ZM383.893 514.566H436.852V574H312.838V252.76H435.855V312.193H383.893V381.588H433.863V437.369H383.893V514.566ZM596.559 415.289V506.598C596.559 531.057 590.25 548.932 577.633 560.221C565.126 571.399 546.367 576.988 521.354 576.988C495.234 576.988 475.81 570.514 463.082 557.564C450.354 544.505 443.99 523.697 443.99 495.143V331.949C443.99 303.395 450.41 282.532 463.248 269.361C476.197 256.191 495.732 249.605 521.852 249.605C546.975 249.605 565.68 255.139 577.965 266.207C590.361 277.164 596.559 295.426 596.559 320.992V402.34H526.168V312.193C526.168 307.877 524.563 305.719 521.354 305.719C518.365 305.719 516.926 307.877 517.037 312.193V514.566C517.037 519.104 518.642 521.373 521.852 521.373C524.84 521.373 526.279 519.104 526.168 514.566V414.957L596.559 415.289ZM681.393 249.605C707.955 249.605 727.656 256.135 740.494 269.195C753.333 282.255 759.752 303.173 759.752 331.949V495.143C759.752 523.919 753.333 544.781 740.494 557.73C727.656 570.569 707.955 576.988 681.393 576.988C655.826 576.988 636.513 570.514 623.453 557.564C610.504 544.505 604.029 523.697 604.029 495.143V331.949C604.029 303.395 610.504 282.532 623.453 269.361C636.513 256.191 655.826 249.605 681.393 249.605ZM686.539 514.898V312.193C686.539 307.656 684.934 305.387 681.725 305.387C678.626 305.387 677.076 307.656 677.076 312.193V514.898C677.076 519.215 678.515 521.373 681.393 521.373C684.824 521.373 686.539 519.215 686.539 514.898ZM926.432 574H852.389L846.246 465.592H840.104V574H769.049V252.76H856.041C878.73 252.76 895.442 258.128 906.178 268.863C916.913 279.599 922.281 294.817 922.281 314.518V392.379C922.281 408.98 918.463 422.372 910.826 432.555L926.432 574ZM840.104 412.799H841.764C846.965 412.799 849.566 407.597 849.566 397.193V324.479C849.566 316.288 846.965 312.193 841.764 312.193H840.104V412.799ZM1115.03 252.76V311.861H1084.15V574H1013.42V312.193H981.715V252.76H1115.03ZM1191.23 574L1189.9 515.23H1177.28L1175.95 574H1102.24L1124.99 252.76H1243.69L1265.1 574H1191.23ZM1178.94 459.117H1188.57L1185.75 349.547V316.676H1181.76V349.547L1178.94 459.117ZM1482.75 574H1406.88L1396.59 432.887H1392.6V574H1321.55V252.76H1392.94L1392.6 390.055H1396.26L1407.54 252.76H1480.92L1461.17 405.66L1482.75 574ZM1565.09 574L1563.77 515.23H1551.15L1549.82 574H1476.11L1498.85 252.76H1617.55L1638.97 574H1565.09ZM1552.81 459.117H1562.44L1559.62 349.547V316.676H1555.63V349.547L1552.81 459.117ZM1720.15 514.566H1773.11V574H1638.47V517.887L1688.11 312.193H1640.3V252.76H1771.12L1770.12 307.711L1720.15 514.566Z" fill="#4E2705"/>
<path d="M1246.81 635.219V625.562L1247.84 597.531H1266.72V658H1254.06V641.875L1254.81 618.312H1254.12L1251.88 658H1240.88L1238.62 618.188H1237.94L1238.69 641.812V658H1226.03V597.531H1244.84L1246 625.562L1246.06 635.219H1246.81ZM1282.16 646.812H1292.12V658H1268.78V597.531H1291.94V608.719H1282.16V621.781H1291.56V632.281H1282.16V646.812ZM1311.5 627.094L1310.47 613.406V597.531H1323.22V658H1310.34L1306.19 627.219H1305.56L1306.5 641.875V658H1293.78V597.531H1306.78L1310.88 627.094H1311.5ZM1354 597.531V646.594C1354 650.615 1352.74 653.625 1350.22 655.625C1347.72 657.625 1344.14 658.625 1339.47 658.625C1330.03 658.625 1325.32 654.615 1325.34 646.594V597.531H1338.66V646.812C1338.66 647.667 1338.95 648.094 1339.53 648.094C1340.22 648.094 1340.56 647.667 1340.56 646.812V597.531H1354ZM1356.09 597.531H1369.47V658H1356.09V597.531ZM1399.62 618.781H1386.44V608.531C1386.44 607.677 1386.14 607.25 1385.53 607.25C1384.95 607.25 1384.66 607.677 1384.66 608.531V618.062C1384.66 619.208 1385.1 620.021 1386 620.5L1391.88 621.781C1394.65 622.51 1396.74 623.688 1398.16 625.312C1399.59 626.917 1400.31 629.406 1400.31 632.781V645.469C1400.31 649.656 1399.04 652.896 1396.5 655.188C1393.98 657.479 1390.39 658.625 1385.72 658.625C1376.16 658.625 1371.39 654.958 1371.41 647.625V634.719H1384.72V646.938C1384.72 647.792 1385.03 648.219 1385.66 648.219C1386.26 648.219 1386.56 647.833 1386.56 647.062V635.281C1386.56 634.094 1385.99 633.281 1384.84 632.844L1380.62 631.875C1377.21 631.271 1374.75 630.021 1373.25 628.125C1371.75 626.229 1371 623.427 1371 619.719V609.562C1371 605.604 1372.25 602.51 1374.75 600.281C1377.25 598.052 1380.89 596.938 1385.66 596.938C1390.09 596.938 1393.53 597.906 1395.97 599.844C1398.41 601.76 1399.62 604.49 1399.62 608.031V618.781ZM1415.22 646.812H1425.19V658H1401.84V597.531H1425V608.719H1415.22V621.781H1424.62V632.281H1415.22V646.812ZM1456.47 658H1442.53L1441.38 637.594H1440.22V658H1426.84V597.531H1443.22C1447.49 597.531 1450.64 598.542 1452.66 600.562C1454.68 602.583 1455.69 605.448 1455.69 609.156V623.812C1455.69 626.938 1454.97 629.458 1453.53 631.375L1456.47 658ZM1440.22 627.656H1440.53C1441.51 627.656 1442 626.677 1442 624.719V611.031C1442 609.49 1441.51 608.719 1440.53 608.719H1440.22V627.656ZM1457.59 597.531H1470.97V658H1457.59V597.531ZM1486.41 646.812H1496.38V658H1473.03V597.531H1496.19V608.719H1486.41V621.781H1495.81V632.281H1486.41V646.812ZM1523.38 658L1523.12 646.938H1520.75L1520.5 658H1506.62L1510.91 597.531H1533.25L1537.28 658H1523.38ZM1521.06 636.375H1522.88L1522.34 615.75V609.562H1521.59V615.75L1521.06 636.375ZM1567.41 658H1553.47L1552.31 637.594H1551.16V658H1537.78V597.531H1554.16C1558.43 597.531 1561.57 598.542 1563.59 600.562C1565.61 602.583 1566.62 605.448 1566.62 609.156V623.812C1566.62 626.938 1565.91 629.458 1564.47 631.375L1567.41 658ZM1551.16 627.656H1551.47C1552.45 627.656 1552.94 626.677 1552.94 624.719V611.031C1552.94 609.49 1552.45 608.719 1551.47 608.719H1551.16V627.656ZM1592.47 597.531V608.656H1586.66V658H1573.34V608.719H1567.38V597.531H1592.47ZM1593.72 597.531H1607.09V658H1593.72V597.531ZM1637.25 618.781H1624.06V608.531C1624.06 607.677 1623.76 607.25 1623.16 607.25C1622.57 607.25 1622.28 607.677 1622.28 608.531V618.062C1622.28 619.208 1622.73 620.021 1623.62 620.5L1629.5 621.781C1632.27 622.51 1634.36 623.688 1635.78 625.312C1637.22 626.917 1637.94 629.406 1637.94 632.781V645.469C1637.94 649.656 1636.67 652.896 1634.12 655.188C1631.6 657.479 1628.01 658.625 1623.34 658.625C1613.78 658.625 1609.01 654.958 1609.03 647.625V634.719H1622.34V646.938C1622.34 647.792 1622.66 648.219 1623.28 648.219C1623.89 648.219 1624.19 647.833 1624.19 647.062V635.281C1624.19 634.094 1623.61 633.281 1622.47 632.844L1618.25 631.875C1614.83 631.271 1612.38 630.021 1610.88 628.125C1609.38 626.229 1608.62 623.427 1608.62 619.719V609.562C1608.62 605.604 1609.88 602.51 1612.38 600.281C1614.88 598.052 1618.51 596.938 1623.28 596.938C1627.72 596.938 1631.16 597.906 1633.59 599.844C1636.03 601.76 1637.25 604.49 1637.25 608.031V618.781ZM1654.19 658L1653.94 646.938H1651.56L1651.31 658H1637.44L1641.72 597.531H1664.06L1668.09 658H1654.19ZM1651.88 636.375H1653.69L1653.16 615.75V609.562H1652.41V615.75L1651.88 636.375ZM1686.31 627.094L1685.28 613.406V597.531H1698.03V658H1685.16L1681 627.219H1680.38L1681.31 641.875V658H1668.59V597.531H1681.59L1685.69 627.094H1686.31ZM1715.38 658L1715.12 646.938H1712.75L1712.5 658H1698.62L1702.91 597.531H1725.25L1729.28 658H1715.38ZM1713.06 636.375H1714.88L1714.34 615.75V609.562H1713.59V615.75L1713.06 636.375ZM1743.16 646.812H1751.03V658H1729.78V597.531H1743.16V646.812ZM1765.34 646.812H1775.31V658H1751.97V597.531H1775.12V608.719H1765.34V621.781H1774.75V632.281H1765.34V646.812Z" fill="#4E2705"/>
<path d="M150.138 840.364H151.546V855.5H148.444V844.17L144.77 845.666L144.308 843.158L150.138 840.364ZM165.556 849.428V852.068H163.422V855.5H160.32V852.068H154.182L153.566 850.088L160.804 840.386H163.422V849.428H165.556ZM156.58 849.428H160.32V844.39L156.58 849.428ZM180.703 849.428L185.367 855.214V855.5H181.869L177.249 849.582H176.105V855.5H172.981V839.88H179.251C182.353 839.88 184.421 841.816 184.421 844.72C184.421 847.14 182.991 848.9 180.703 849.428ZM176.105 842.608V847.316H178.723C180.197 847.316 181.209 846.436 181.209 844.984C181.209 843.532 180.197 842.608 178.723 842.608H176.105ZM193.403 855.72C189.619 855.72 187.243 854.18 187.243 849.604V839.88H190.367V849.516C190.367 852.024 191.489 852.992 193.403 852.992C195.317 852.992 196.417 852.024 196.417 849.516V839.88H199.541V849.604C199.541 854.18 197.187 855.72 193.403 855.72ZM206.076 852.772H213.402V855.5H202.952V839.88H213.292L212.852 842.608H206.076V846.414H211.356V849.098H206.076V852.772ZM230.143 855.5L228.867 851.518H223.367L222.091 855.5H218.813L224.313 839.88H227.921L233.421 855.5H230.143ZM224.225 848.834H228.009L226.117 842.894L224.225 848.834ZM241.056 855.72C237.272 855.72 234.896 854.18 234.896 849.604V839.88H238.02V849.516C238.02 852.024 239.142 852.992 241.056 852.992C242.97 852.992 244.07 852.024 244.07 849.516V839.88H247.194V849.604C247.194 854.18 244.84 855.72 241.056 855.72ZM257.094 847.162H262.946V853.894C261.934 854.972 259.756 855.72 257.468 855.72C252.804 855.72 249.724 852.486 249.724 847.624C249.724 842.828 252.804 839.66 257.534 839.66C259.14 839.66 261.01 840.056 262.154 840.65L261.692 843.246C260.79 842.762 259.272 842.388 257.93 842.388C254.916 842.388 252.98 844.324 252.98 847.624C252.98 850.968 254.894 852.992 257.666 852.992C258.436 852.992 259.184 852.86 259.778 852.662V849.604L256.676 849.45L257.094 847.162ZM271.778 855.72C267.994 855.72 265.618 854.18 265.618 849.604V839.88H268.742V849.516C268.742 852.024 269.864 852.992 271.778 852.992C273.692 852.992 274.792 852.024 274.792 849.516V839.88H277.916V849.604C277.916 854.18 275.562 855.72 271.778 855.72ZM285.573 855.742C283.593 855.742 281.613 855.214 280.271 854.356L280.733 851.672C281.965 852.398 283.527 853.014 285.353 853.014C287.113 853.014 288.235 852.42 288.235 851.232C288.235 850.44 287.729 849.824 286.673 849.384L284.011 848.24C281.701 847.272 280.689 845.996 280.689 844.06C280.689 841.09 283.043 839.66 286.299 839.66C287.817 839.66 289.577 839.99 290.831 840.54L290.391 843.158C289.313 842.652 287.861 842.388 286.673 842.388C285.067 842.388 283.901 842.85 283.901 843.928C283.901 844.588 284.363 845.138 285.375 845.534L288.147 846.722C290.369 847.668 291.425 849.164 291.447 851.034C291.425 854.026 289.137 855.742 285.573 855.742ZM304.985 839.88V842.608H300.211V855.5H297.087V842.608H292.291V839.88H304.985ZM310.146 852.772H317.472V855.5H307.022V839.88H317.362L316.922 842.608H310.146V846.414H315.426V849.098H310.146V852.772ZM329.999 839.88C334.883 839.88 337.545 843.004 337.545 847.668C337.545 852.376 334.883 855.5 329.999 855.5H324.983V839.88H329.999ZM329.999 852.772C332.881 852.772 334.311 850.88 334.311 847.668C334.311 844.5 332.881 842.608 329.999 842.608H328.107V852.772H329.999ZM343.383 852.772H350.709V855.5H340.259V839.88H350.599L350.159 842.608H343.383V846.414H348.663V849.098H343.383V852.772ZM366.921 839.88H370.133L364.853 855.5H361.487L356.185 839.88H359.397L363.159 852.376L366.921 839.88ZM372.163 855.5V839.88H375.287V855.5H372.163ZM381.947 852.772H388.657V855.5H378.823V839.88H381.947V852.772ZM393.828 852.772H400.538V855.5H390.704V839.88H393.828V852.772ZM405.709 852.772H413.035V855.5H402.585V839.88H412.925L412.485 842.608H405.709V846.414H410.989V849.098H405.709V852.772ZM418.728 852.772H425.438V855.5H415.604V839.88H418.728V852.772ZM430.609 852.772H437.935V855.5H427.485V839.88H437.825L437.385 842.608H430.609V846.414H435.889V849.098H430.609V852.772Z" fill="#4E2705"/>
<path d="M148.806 881.68C147.276 881.68 145.818 881.32 144.774 880.69L145.044 879.124C145.944 879.718 147.384 880.204 148.788 880.204C150.57 880.204 151.596 879.358 151.596 878.116C151.596 877.162 151.02 876.496 149.958 876.082L147.618 875.182C145.728 874.426 144.918 873.31 144.918 871.852C144.918 869.656 146.682 868.54 149.31 868.54C150.498 868.54 151.686 868.756 152.658 869.17L152.406 870.61C151.524 870.232 150.426 870.016 149.472 870.016C147.888 870.016 146.682 870.628 146.682 871.816C146.682 872.572 147.186 873.202 148.302 873.598L150.642 874.516C152.406 875.218 153.324 876.442 153.36 877.972C153.324 880.438 151.668 881.68 148.806 881.68ZM158.646 872.572C160.896 872.572 162.228 874.102 162.228 876.352V881.5H160.788L160.59 880.438C159.762 881.176 158.376 881.68 157.35 881.68C155.838 881.68 154.596 880.582 154.596 879.016C154.596 877.378 155.964 876.406 158.106 876.406C159.006 876.406 159.96 876.514 160.572 876.676V876.244C160.572 874.948 159.816 873.94 158.25 873.94C157.332 873.94 156.234 874.228 155.496 874.732L155.262 873.454C156.018 872.932 157.35 872.572 158.646 872.572ZM156.324 879.016C156.324 879.808 156.954 880.348 157.908 880.348C158.682 880.348 159.78 879.97 160.572 879.376V877.918C160.05 877.756 159.15 877.666 158.214 877.666C156.954 877.666 156.324 878.188 156.324 879.016ZM165.815 870.718C165.185 870.718 164.699 870.232 164.699 869.62C164.699 869.044 165.185 868.54 165.815 868.54C166.445 868.54 166.949 869.044 166.949 869.62C166.949 870.232 166.445 870.718 165.815 870.718ZM164.969 881.5V872.932L166.643 872.572V881.5H164.969ZM174.202 872.572C175.624 872.572 176.884 873.526 176.884 875.92V881.5H175.21V876.262C175.21 874.444 174.598 873.958 173.734 873.958C172.816 873.958 171.808 874.462 171.142 874.93V881.5H169.486V872.734L170.926 872.572L171.106 873.706C171.808 873.202 172.942 872.572 174.202 872.572ZM184.291 880.06L184.543 881.374C184.003 881.59 183.103 881.68 182.545 881.68C181.051 881.68 179.971 880.942 179.971 878.494V874.048H178.567V872.752H180.025L180.403 870.466H181.645V872.752H184.363V874.048H181.645V878.278C181.645 879.826 182.113 880.294 182.977 880.294C183.355 880.294 184.021 880.186 184.291 880.06ZM197.025 874.84C198.609 875.074 199.707 876.442 199.707 878.008C199.707 879.682 198.447 881.5 195.711 881.5H190.779V868.72H195.207C197.817 868.72 199.005 870.448 199.005 872.032C199.005 873.148 198.411 874.444 197.025 874.84ZM197.241 872.248C197.241 871.24 196.737 870.196 194.793 870.196H192.543V874.282H194.793C196.737 874.282 197.241 873.238 197.241 872.248ZM195.315 880.024C197.277 880.024 197.961 878.89 197.961 877.828C197.961 876.748 197.277 875.668 195.315 875.668H192.543V880.024H195.315ZM208.974 877.018L208.722 877.396H203.052C203.178 879.268 204.096 880.312 205.878 880.312C206.742 880.312 207.552 880.132 208.092 879.808L208.344 881.05C207.732 881.428 206.67 881.68 205.626 881.68C202.962 881.68 201.324 879.988 201.324 877.126C201.324 874.3 202.89 872.572 205.446 872.572C207.696 872.572 208.974 874.228 208.974 877.018ZM205.338 873.922C204.15 873.922 203.304 874.732 203.088 876.136H207.228C207.084 874.588 206.472 873.922 205.338 873.922ZM215.722 872.572C217.144 872.572 218.404 873.526 218.404 875.92V881.5H216.73V876.262C216.73 874.444 216.118 873.958 215.254 873.958C214.336 873.958 213.328 874.462 212.662 874.93V881.5H211.006V872.734L212.446 872.572L212.626 873.706C213.328 873.202 214.462 872.572 215.722 872.572ZM224.821 881.68C222.229 881.68 220.501 879.862 220.501 877.144C220.501 874.39 222.211 872.572 224.785 872.572C227.395 872.572 229.123 874.39 229.123 877.144C229.123 879.862 227.395 881.68 224.821 881.68ZM224.821 880.294C226.369 880.294 227.395 879.034 227.395 877.144C227.395 875.218 226.351 873.958 224.785 873.958C223.237 873.958 222.229 875.218 222.229 877.144C222.229 878.962 223.327 880.294 224.821 880.294ZM229.958 871.618L229.256 870.862L231.722 868.342H232.55L235.016 870.862L234.314 871.618L232.136 869.926L229.958 871.618ZM231.362 881.5V872.932L233.036 872.572V881.5H231.362ZM240.577 880.06L240.829 881.374C240.289 881.59 239.389 881.68 238.831 881.68C237.337 881.68 236.257 880.942 236.257 878.494V874.048H234.853V872.752H236.311L236.689 870.466H237.931V872.752H240.649V874.048H237.931V878.278C237.931 879.826 238.399 880.294 239.263 880.294C239.641 880.294 240.307 880.186 240.577 880.06ZM243.297 879.124C243.909 879.124 244.575 879.556 244.575 880.852C244.575 881.95 244.089 883.624 242.523 884.704L241.947 883.984C242.793 883.354 243.315 882.382 243.351 881.446C242.739 881.482 242.109 881.032 242.109 880.312C242.109 879.682 242.577 879.124 243.297 879.124ZM253.168 880.024H259.072V881.5H251.494V868.72H253.168V880.024ZM263.957 872.572C266.207 872.572 267.539 874.102 267.539 876.352V881.5H266.099L265.901 880.438C265.073 881.176 263.687 881.68 262.661 881.68C261.149 881.68 259.907 880.582 259.907 879.016C259.907 877.378 261.275 876.406 263.417 876.406C264.317 876.406 265.271 876.514 265.883 876.676V876.244C265.883 874.948 265.127 873.94 263.561 873.94C262.643 873.94 261.545 874.228 260.807 874.732L260.573 873.454C261.329 872.932 262.661 872.572 263.957 872.572ZM261.635 879.016C261.635 879.808 262.265 880.348 263.219 880.348C263.993 880.348 265.091 879.97 265.883 879.376V877.918C265.361 877.756 264.461 877.666 263.525 877.666C262.265 877.666 261.635 878.188 261.635 879.016ZM280.005 876.442L284.217 881.338V881.5H282.219L278.007 876.478H276.441V881.5H274.767V868.72H279.339C281.805 868.72 283.479 870.268 283.479 872.59C283.479 874.714 282.129 876.19 280.005 876.442ZM276.441 870.196V875.074H279.051C280.599 875.074 281.715 874.102 281.715 872.626C281.715 871.186 280.599 870.196 279.051 870.196H276.441ZM291.058 869.458L287.89 871.654L287.242 870.88L290.014 868.306L291.058 869.458ZM292.804 877.018L292.552 877.396H286.882C287.008 879.268 287.926 880.312 289.708 880.312C290.572 880.312 291.382 880.132 291.922 879.808L292.174 881.05C291.562 881.428 290.5 881.68 289.456 881.68C286.792 881.68 285.154 879.988 285.154 877.126C285.154 874.3 286.72 872.572 289.276 872.572C291.526 872.572 292.804 874.228 292.804 877.018ZM289.168 873.922C287.98 873.922 287.134 874.732 286.918 876.136H291.058C290.914 874.588 290.302 873.922 289.168 873.922ZM300.47 872.752H302.144V881.5H300.704L300.506 880.564C299.804 881.068 298.688 881.68 297.428 881.68C295.988 881.68 294.746 880.726 294.746 878.332V872.752H296.402V877.99C296.402 879.808 297.032 880.294 297.896 880.294C298.796 880.294 299.786 879.79 300.47 879.322V872.752ZM309.659 872.572C311.081 872.572 312.341 873.526 312.341 875.92V881.5H310.667V876.262C310.667 874.444 310.055 873.958 309.191 873.958C308.273 873.958 307.265 874.462 306.599 874.93V881.5H304.943V872.734L306.383 872.572L306.563 873.706C307.265 873.202 308.399 872.572 309.659 872.572ZM315.932 870.718C315.302 870.718 314.816 870.232 314.816 869.62C314.816 869.044 315.302 868.54 315.932 868.54C316.562 868.54 317.066 869.044 317.066 869.62C317.066 870.232 316.562 870.718 315.932 870.718ZM315.086 881.5V872.932L316.76 872.572V881.5H315.086ZM323.311 881.68C320.719 881.68 318.991 879.862 318.991 877.144C318.991 874.39 320.701 872.572 323.275 872.572C325.885 872.572 327.613 874.39 327.613 877.144C327.613 879.862 325.885 881.68 323.311 881.68ZM323.311 880.294C324.859 880.294 325.885 879.034 325.885 877.144C325.885 875.218 324.841 873.958 323.275 873.958C321.727 873.958 320.719 875.218 320.719 877.144C320.719 878.962 321.817 880.294 323.311 880.294ZM334.532 872.572C335.954 872.572 337.214 873.526 337.214 875.92V881.5H335.54V876.262C335.54 874.444 334.928 873.958 334.064 873.958C333.146 873.958 332.138 874.462 331.472 874.93V881.5H329.816V872.734L331.256 872.572L331.436 873.706C332.138 873.202 333.272 872.572 334.532 872.572Z" fill="#4E2705"/>
<path d="M1621.8 856.72C1617.03 856.72 1613.9 853.508 1613.9 848.69C1613.9 843.872 1617.03 840.66 1621.8 840.66C1623.23 840.66 1624.9 840.968 1626 841.408L1625.56 843.96C1624.66 843.608 1623.36 843.388 1622.31 843.388C1619.2 843.388 1617.11 845.368 1617.11 848.69C1617.11 852.012 1619.2 853.992 1622.31 853.992C1623.38 853.992 1624.66 853.772 1625.54 853.442L1626 855.972C1624.9 856.412 1623.23 856.72 1621.8 856.72ZM1634.44 856.72C1630.1 856.72 1627.24 853.508 1627.24 848.668C1627.24 843.872 1630.1 840.66 1634.46 840.66C1638.79 840.66 1641.65 843.872 1641.65 848.668C1641.65 853.508 1638.79 856.72 1634.44 856.72ZM1634.44 853.992C1636.84 853.992 1638.44 851.88 1638.44 848.69C1638.44 845.5 1636.86 843.388 1634.46 843.388C1632.06 843.388 1630.46 845.5 1630.46 848.69C1630.46 851.88 1632.04 853.992 1634.44 853.992ZM1650.7 856.72C1646.37 856.72 1643.51 853.508 1643.51 848.668C1643.51 843.872 1646.37 840.66 1650.72 840.66C1655.06 840.66 1657.92 843.872 1657.92 848.668C1657.92 853.508 1655.06 856.72 1650.7 856.72ZM1650.7 853.992C1653.1 853.992 1654.71 851.88 1654.71 848.69C1654.71 845.5 1653.12 843.388 1650.72 843.388C1648.33 843.388 1646.72 845.5 1646.72 848.69C1646.72 851.88 1648.3 853.992 1650.7 853.992ZM1668.35 850.428L1673.02 856.214V856.5H1669.52L1664.9 850.582H1663.75V856.5H1660.63V840.88H1666.9C1670 840.88 1672.07 842.816 1672.07 845.72C1672.07 848.14 1670.64 849.9 1668.35 850.428ZM1663.75 843.608V848.316H1666.37C1667.85 848.316 1668.86 847.436 1668.86 845.984C1668.86 844.532 1667.85 843.608 1666.37 843.608H1663.75ZM1680.06 840.88C1684.95 840.88 1687.61 844.004 1687.61 848.668C1687.61 853.376 1684.95 856.5 1680.06 856.5H1675.05V840.88H1680.06ZM1680.06 853.772C1682.94 853.772 1684.37 851.88 1684.37 848.668C1684.37 845.5 1682.94 843.608 1680.06 843.608H1678.17V853.772H1680.06ZM1696.66 856.72C1692.32 856.72 1689.46 853.508 1689.46 848.668C1689.46 843.872 1692.32 840.66 1696.68 840.66C1701.01 840.66 1703.87 843.872 1703.87 848.668C1703.87 853.508 1701.01 856.72 1696.66 856.72ZM1696.66 853.992C1699.06 853.992 1700.66 851.88 1700.66 848.69C1700.66 845.5 1699.08 843.388 1696.68 843.388C1694.28 843.388 1692.68 845.5 1692.68 848.69C1692.68 851.88 1694.26 853.992 1696.66 853.992ZM1715.71 840.88H1718.84V856.5H1715.49L1709.71 846.644V856.5H1706.58V840.88H1709.99L1715.71 851V840.88ZM1731.53 840.88H1734.65V856.5H1731.31L1725.52 846.644V856.5H1722.4V840.88H1725.81L1731.53 851V840.88ZM1745.8 838.02L1741.58 839.912L1740.76 838.746L1744.13 835.82L1745.8 838.02ZM1741.33 853.772H1748.66V856.5H1738.21V840.88H1748.55L1748.11 843.608H1741.33V847.414H1746.61V850.098H1741.33V853.772ZM1754.35 853.772H1761.68V856.5H1751.23V840.88H1761.57L1761.13 843.608H1754.35V847.414H1759.63V850.098H1754.35V853.772ZM1768.49 856.742C1766.51 856.742 1764.53 856.214 1763.19 855.356L1763.65 852.672C1764.89 853.398 1766.45 854.014 1768.27 854.014C1770.03 854.014 1771.16 853.42 1771.16 852.232C1771.16 851.44 1770.65 850.824 1769.59 850.384L1766.93 849.24C1764.62 848.272 1763.61 846.996 1763.61 845.06C1763.61 842.09 1765.96 840.66 1769.22 840.66C1770.74 840.66 1772.5 840.99 1773.75 841.54L1773.31 844.158C1772.23 843.652 1770.78 843.388 1769.59 843.388C1767.99 843.388 1766.82 843.85 1766.82 844.928C1766.82 845.588 1767.28 846.138 1768.3 846.534L1771.07 847.722C1773.29 848.668 1774.35 850.164 1774.37 852.034C1774.35 855.026 1772.06 856.742 1768.49 856.742Z" fill="#4E2705"/>
<path d="M1566.5 879.268H1572.1V880.5H1564.9L1564.59 879.3L1568.21 875.796C1569.52 874.516 1570.32 873.748 1570.32 872.516C1570.32 871.348 1569.3 870.58 1567.98 870.58C1567.12 870.58 1565.9 870.868 1565.01 871.252L1564.8 870.084C1565.66 869.636 1567.01 869.348 1568.13 869.348C1570.29 869.348 1571.86 870.612 1571.86 872.5C1571.86 874.02 1570.78 875.188 1569.04 876.852L1566.5 879.268ZM1576.88 869.508H1577.6V880.5H1576.11V871.396L1573.32 872.628L1573.08 871.396L1576.88 869.508ZM1582.12 874.18C1580.74 874.18 1579.78 873.236 1579.78 871.796C1579.78 870.372 1580.74 869.412 1582.12 869.412C1583.49 869.412 1584.44 870.372 1584.44 871.796C1584.44 873.236 1583.49 874.18 1582.12 874.18ZM1582.12 873.332C1582.93 873.332 1583.51 872.724 1583.51 871.796C1583.51 870.884 1582.93 870.276 1582.12 870.276C1581.27 870.276 1580.71 870.884 1580.71 871.796C1580.71 872.724 1581.29 873.332 1582.12 873.332ZM1587.65 879.268H1593.25V880.5H1586.05L1585.75 879.3L1589.36 875.796C1590.68 874.516 1591.48 873.748 1591.48 872.516C1591.48 871.348 1590.45 870.58 1589.14 870.58C1588.28 870.58 1587.06 870.868 1586.16 871.252L1585.96 870.084C1586.82 869.636 1588.16 869.348 1589.28 869.348C1591.44 869.348 1593.01 870.612 1593.01 872.5C1593.01 874.02 1591.94 875.188 1590.2 876.852L1587.65 879.268ZM1595.97 868.708C1596.51 868.708 1597.1 869.092 1597.1 870.244C1597.1 871.22 1596.67 872.708 1595.28 873.668L1594.77 873.028C1595.52 872.468 1595.98 871.604 1596.02 870.772C1595.47 870.804 1594.91 870.404 1594.91 869.764C1594.91 869.204 1595.33 868.708 1595.97 868.708ZM1603.3 874.74C1605.09 875.06 1605.68 876.388 1605.68 877.476C1605.68 879.252 1604.05 880.66 1601.51 880.66C1600.72 880.66 1599.43 880.532 1598.34 880.036L1598.56 878.82C1599.54 879.3 1600.72 879.428 1601.38 879.428C1603.12 879.428 1604.15 878.484 1604.15 877.38C1604.15 876.196 1603.14 875.572 1601.68 875.572H1600.37V874.292H1601.43C1603.06 874.292 1603.7 873.204 1603.7 872.292C1603.7 871.284 1602.87 870.58 1601.44 870.58C1600.28 870.58 1599.49 870.868 1598.92 871.108L1598.71 869.924C1599.4 869.636 1600.36 869.348 1601.64 869.348C1603.88 869.348 1605.24 870.5 1605.24 872.084C1605.24 873.38 1604.44 874.324 1603.3 874.74ZM1614.37 869.508L1614.53 870.372L1609.44 880.5H1607.88L1612.87 870.724H1606.87V869.508H1614.37ZM1615.48 880.66C1614.89 880.66 1614.41 880.196 1614.41 879.588C1614.41 879.044 1614.89 878.548 1615.48 878.548C1616.07 878.548 1616.55 879.044 1616.55 879.588C1616.55 880.196 1616.07 880.66 1615.48 880.66ZM1622.88 874.74C1624.67 875.06 1625.26 876.388 1625.26 877.476C1625.26 879.252 1623.63 880.66 1621.09 880.66C1620.3 880.66 1619.01 880.532 1617.92 880.036L1618.14 878.82C1619.12 879.3 1620.3 879.428 1620.96 879.428C1622.7 879.428 1623.73 878.484 1623.73 877.38C1623.73 876.196 1622.72 875.572 1621.26 875.572H1619.95V874.292H1621.01C1622.64 874.292 1623.28 873.204 1623.28 872.292C1623.28 871.284 1622.45 870.58 1621.02 870.58C1619.86 870.58 1619.07 870.868 1618.5 871.108L1618.29 869.924C1618.98 869.636 1619.94 869.348 1621.22 869.348C1623.46 869.348 1624.82 870.5 1624.82 872.084C1624.82 873.38 1624.02 874.324 1622.88 874.74ZM1630.83 880.66C1628.38 880.66 1626.93 878.564 1626.93 875.028C1626.93 871.46 1628.38 869.348 1630.83 869.348C1633.29 869.348 1634.75 871.46 1634.75 875.028C1634.75 878.564 1633.29 880.66 1630.83 880.66ZM1630.83 879.428C1632.33 879.428 1633.21 877.828 1633.21 875.028C1633.21 872.212 1632.33 870.564 1630.83 870.564C1629.33 870.564 1628.45 872.212 1628.45 875.028C1628.45 877.828 1629.33 879.428 1630.83 879.428ZM1644.19 876.612V877.844H1642.39V880.5H1640.91V877.844H1636.22L1635.88 876.772L1641.1 869.524H1642.39V876.612H1644.19ZM1637.45 876.612H1640.91V871.796L1637.45 876.612ZM1646.38 868.708C1646.92 868.708 1647.51 869.092 1647.51 870.244C1647.51 871.22 1647.08 872.708 1645.69 873.668L1645.18 873.028C1645.93 872.468 1646.39 871.604 1646.42 870.772C1645.88 870.804 1645.32 870.404 1645.32 869.764C1645.32 869.204 1645.74 868.708 1646.38 868.708ZM1649.38 868.708C1649.93 868.708 1650.52 869.092 1650.52 870.244C1650.52 871.22 1650.09 872.708 1648.7 873.668L1648.18 873.028C1648.94 872.468 1649.4 871.604 1649.43 870.772C1648.89 870.804 1648.33 870.404 1648.33 869.764C1648.33 869.204 1648.74 868.708 1649.38 868.708ZM1655.46 880.66C1654.1 880.66 1652.8 880.34 1651.88 879.78L1652.12 878.388C1652.92 878.916 1654.2 879.348 1655.44 879.348C1657.03 879.348 1657.94 878.596 1657.94 877.492C1657.94 876.644 1657.43 876.052 1656.48 875.684L1654.4 874.884C1652.72 874.212 1652 873.22 1652 871.924C1652 869.972 1653.57 868.98 1655.91 868.98C1656.96 868.98 1658.02 869.172 1658.88 869.54L1658.66 870.82C1657.88 870.484 1656.9 870.292 1656.05 870.292C1654.64 870.292 1653.57 870.836 1653.57 871.892C1653.57 872.564 1654.02 873.124 1655.01 873.476L1657.09 874.292C1658.66 874.916 1659.48 876.004 1659.51 877.364C1659.48 879.556 1658 880.66 1655.46 880.66ZM1661.98 878.388C1662.53 878.388 1663.12 878.772 1663.12 879.924C1663.12 880.9 1662.69 882.388 1661.29 883.348L1660.78 882.708C1661.53 882.148 1662 881.284 1662.03 880.452C1661.49 880.484 1660.93 880.084 1660.93 879.444C1660.93 878.884 1661.34 878.388 1661.98 878.388ZM1672.66 873.732C1674.84 873.732 1676.24 875.076 1676.24 877.044C1676.24 879.22 1674.52 880.66 1671.96 880.66C1670.76 880.66 1669.43 880.324 1668.58 879.844L1668.87 878.596C1669.6 879.092 1670.76 879.428 1671.83 879.428C1673.56 879.428 1674.71 878.516 1674.71 877.06C1674.71 875.812 1673.81 874.932 1672.34 874.932C1671.14 874.932 1670.28 875.124 1669.54 875.508L1668.76 874.804L1669.38 869.508H1675.52V870.724H1670.6L1670.2 874.052C1670.92 873.828 1671.84 873.732 1672.66 873.732ZM1681.79 873.732C1683.96 873.732 1685.37 875.076 1685.37 877.044C1685.37 879.22 1683.64 880.66 1681.08 880.66C1679.88 880.66 1678.55 880.324 1677.71 879.844L1677.99 878.596C1678.73 879.092 1679.88 879.428 1680.95 879.428C1682.68 879.428 1683.83 878.516 1683.83 877.06C1683.83 875.812 1682.94 874.932 1681.47 874.932C1680.27 874.932 1679.4 875.124 1678.67 875.508L1677.88 874.804L1678.51 869.508H1684.65V870.724H1679.72L1679.32 874.052C1680.04 873.828 1680.97 873.732 1681.79 873.732ZM1689.1 874.18C1687.73 874.18 1686.77 873.236 1686.77 871.796C1686.77 870.372 1687.73 869.412 1689.1 869.412C1690.48 869.412 1691.42 870.372 1691.42 871.796C1691.42 873.236 1690.48 874.18 1689.1 874.18ZM1689.1 873.332C1689.92 873.332 1690.49 872.724 1690.49 871.796C1690.49 870.884 1689.92 870.276 1689.1 870.276C1688.25 870.276 1687.69 870.884 1687.69 871.796C1687.69 872.724 1688.27 873.332 1689.1 873.332ZM1700.14 876.612V877.844H1698.35V880.5H1696.86V877.844H1692.17L1691.83 876.772L1697.05 869.524H1698.35V876.612H1700.14ZM1693.4 876.612H1696.86V871.796L1693.4 876.612ZM1706.13 874.74C1707.92 875.06 1708.51 876.388 1708.51 877.476C1708.51 879.252 1706.88 880.66 1704.34 880.66C1703.55 880.66 1702.26 880.532 1701.17 880.036L1701.39 878.82C1702.37 879.3 1703.55 879.428 1704.21 879.428C1705.95 879.428 1706.98 878.484 1706.98 877.38C1706.98 876.196 1705.97 875.572 1704.51 875.572H1703.2V874.292H1704.26C1705.89 874.292 1706.53 873.204 1706.53 872.292C1706.53 871.284 1705.7 870.58 1704.27 870.58C1703.11 870.58 1702.32 870.868 1701.75 871.108L1701.54 869.924C1702.23 869.636 1703.19 869.348 1704.47 869.348C1706.71 869.348 1708.07 870.5 1708.07 872.084C1708.07 873.38 1707.27 874.324 1706.13 874.74ZM1711.3 868.708C1711.84 868.708 1712.43 869.092 1712.43 870.244C1712.43 871.22 1712 872.708 1710.61 873.668L1710.1 873.028C1710.85 872.468 1711.31 871.604 1711.34 870.772C1710.8 870.804 1710.24 870.404 1710.24 869.764C1710.24 869.204 1710.66 868.708 1711.3 868.708ZM1717.24 869.508H1717.96V880.5H1716.47V871.396L1713.68 872.628L1713.44 871.396L1717.24 869.508ZM1724.21 880.66C1721.76 880.66 1720.3 878.564 1720.3 875.028C1720.3 871.46 1721.76 869.348 1724.21 869.348C1726.67 869.348 1728.13 871.46 1728.13 875.028C1728.13 878.564 1726.67 880.66 1724.21 880.66ZM1724.21 879.428C1725.71 879.428 1726.59 877.828 1726.59 875.028C1726.59 872.212 1725.71 870.564 1724.21 870.564C1722.7 870.564 1721.82 872.212 1721.82 875.028C1721.82 877.828 1722.7 879.428 1724.21 879.428ZM1730.61 880.66C1730.01 880.66 1729.53 880.196 1729.53 879.588C1729.53 879.044 1730.01 878.548 1730.61 878.548C1731.2 878.548 1731.68 879.044 1731.68 879.588C1731.68 880.196 1731.2 880.66 1730.61 880.66ZM1741.06 876.612V877.844H1739.27V880.5H1737.78V877.844H1733.09L1732.76 876.772L1737.97 869.524H1739.27V876.612H1741.06ZM1734.32 876.612H1737.78V871.796L1734.32 876.612ZM1747.05 874.74C1748.84 875.06 1749.43 876.388 1749.43 877.476C1749.43 879.252 1747.8 880.66 1745.26 880.66C1744.47 880.66 1743.18 880.532 1742.09 880.036L1742.31 878.82C1743.29 879.3 1744.47 879.428 1745.13 879.428C1746.87 879.428 1747.9 878.484 1747.9 877.38C1747.9 876.196 1746.89 875.572 1745.43 875.572H1744.12V874.292H1745.18C1746.81 874.292 1747.45 873.204 1747.45 872.292C1747.45 871.284 1746.62 870.58 1745.19 870.58C1744.03 870.58 1743.24 870.868 1742.67 871.108L1742.46 869.924C1743.15 869.636 1744.11 869.348 1745.39 869.348C1747.63 869.348 1748.99 870.5 1748.99 872.084C1748.99 873.38 1748.19 874.324 1747.05 874.74ZM1756.87 875.044C1758.01 875.556 1758.84 876.468 1758.84 877.716C1758.84 879.444 1757.26 880.66 1754.91 880.66C1752.54 880.66 1751.05 879.412 1751.05 877.588C1751.05 876.564 1751.79 875.524 1752.95 874.916C1751.96 874.404 1751.37 873.444 1751.37 872.452C1751.37 870.596 1752.83 869.348 1755 869.348C1757.18 869.348 1758.59 870.564 1758.59 872.356C1758.59 873.556 1757.93 874.58 1756.87 875.044ZM1754.95 870.58C1753.72 870.58 1752.89 871.284 1752.89 872.404C1752.89 873.14 1753.24 873.732 1754.28 874.148L1755.51 874.564C1756.47 874.148 1757.07 873.332 1757.07 872.42C1757.07 871.316 1756.23 870.58 1754.95 870.58ZM1754.97 879.428C1756.41 879.428 1757.32 878.74 1757.32 877.748C1757.32 876.948 1756.73 876.228 1755.82 875.94L1754.31 875.428C1753.24 875.876 1752.57 876.756 1752.57 877.636C1752.57 878.708 1753.5 879.428 1754.97 879.428ZM1761.69 868.708C1762.23 868.708 1762.82 869.092 1762.82 870.244C1762.82 871.22 1762.39 872.708 1761 873.668L1760.49 873.028C1761.24 872.468 1761.7 871.604 1761.74 870.772C1761.19 870.804 1760.63 870.404 1760.63 869.764C1760.63 869.204 1761.05 868.708 1761.69 868.708ZM1764.7 868.708C1765.24 868.708 1765.83 869.092 1765.83 870.244C1765.83 871.22 1765.4 872.708 1764.01 873.668L1763.5 873.028C1764.25 872.468 1764.71 871.604 1764.74 870.772C1764.2 870.804 1763.64 870.404 1763.64 869.764C1763.64 869.204 1764.06 868.708 1764.7 868.708ZM1769.46 879.188H1775.19V880.5H1767.97V869.14H1775.11L1774.88 870.452H1769.46V874.356H1773.65V875.636H1769.46V879.188Z" fill="#4E2705"/>
<path d="M144 816.5H1776V812.5H144V816.5ZM1776 903.5H144V907.5H1776V903.5Z" fill="#4E2705" mask="url(#path-3-inside-1_751_169)"/>
<rect width="1920" height="70" fill="#FFF0E0"/>
<path d="M1829.04 30H1859V32.5H1829.04V30Z" fill="#4E2705"/>
<path d="M1829.04 37.5H1859V40H1829.04V37.5Z" fill="#4E2705"/>
<path d="M89.9231 33.5879L82.2394 26.0585L76.7287 31.633L89.9231 44.7483V39.1877V33.5879Z" fill="#FFF0E0"/>
<path d="M81.2003 27.1096L76.7287 31.633L89.9231 44.7483V41.8135C89.4221 41.5093 88.4976 40.7744 88.0422 40.2995C87.9035 40.1549 87.6368 39.9616 87.2804 39.7338C86.9269 39.5078 86.4943 39.2537 86.031 38.9873C85.8262 38.8695 85.6152 38.7492 85.4027 38.6281C84.6565 38.2028 83.8903 37.766 83.2954 37.3823C82.4472 36.8352 81.7276 36.318 81.0711 35.4792C80.2721 34.4585 79.6709 32.8659 79.973 31.4877C80.0939 30.936 80.474 30.529 80.9277 30.2623C81.3809 29.9958 81.9177 29.8627 82.3757 29.8627C82.9892 29.8627 83.392 30.0944 83.8561 30.3615C83.9601 30.4213 84.0672 30.4829 84.1804 30.5441C84.7767 30.8662 85.3153 31.2987 85.815 31.763C86.2378 32.1559 86.6347 32.5842 87.0283 33.0089C87.114 33.1014 87.1996 33.1938 87.2853 33.2856C87.7658 33.8004 88.2501 34.2988 88.7872 34.7224C89.0052 34.8943 89.6914 35.2338 89.9231 35.3831V33.5879L86.9309 30.7066C85.7078 30.3947 84.497 29.9591 83.4978 29.168C83.2395 28.9636 83.0133 28.7322 82.7945 28.5047L82.7484 28.4568C82.5444 28.2445 82.3455 28.0375 82.1256 27.8514C82.0461 27.7841 81.9679 27.7151 81.8902 27.6463C81.6649 27.4473 81.4429 27.2511 81.2003 27.1096Z" fill="#4E2705"/>
<path d="M86.608 30.3866L82.2394 26.0585L81.3632 26.9448C81.6096 27.0975 81.8381 27.2996 82.0517 27.4886C82.1258 27.5542 82.1982 27.6182 82.2689 27.678C82.4981 27.872 82.7047 28.087 82.9071 28.2977L82.9546 28.3471C83.1738 28.5749 83.3905 28.7961 83.6355 28.9901C84.5012 29.6755 85.5343 30.087 86.608 30.3866Z" fill="#4E2705"/>
<path d="M88.6499 34.9007C88.9117 35.1071 89.6445 35.4604 89.9231 35.6351V36.7936C89.5725 36.5815 88.7517 36.173 88.3731 35.9932C87.8944 35.7657 87.4398 35.5404 87.0549 35.2241C86.9804 35.1628 86.9055 35.1022 86.8308 35.0418L86.8306 35.0417C86.5454 34.8111 86.2636 34.5832 86.0196 34.3311C85.9171 34.2253 85.825 34.1169 85.7304 34.0055C85.6755 33.9409 85.6197 33.8752 85.5605 33.8084C85.4552 33.6896 85.3375 33.578 85.2236 33.47C85.1709 33.42 85.1189 33.3707 85.0693 33.3218C85.0278 33.2809 84.986 33.2379 84.9433 33.194C84.8366 33.0842 84.7247 32.9691 84.5989 32.8673C84.43 32.7307 84.2368 32.6503 84.0507 32.5729L84.0122 32.5568C83.9162 32.5167 83.8217 32.4746 83.7272 32.4324C83.3913 32.2826 83.055 32.1325 82.6507 32.0744C82.6225 32.0703 82.5937 32.0661 82.5645 32.0617L82.5643 32.0617C82.3938 32.0364 82.2073 32.0087 82.0277 32.0085C81.9646 32.0084 81.9153 32.0273 81.8757 32.0488C81.8572 32.0589 81.8401 32.0699 81.8264 32.0787L81.8261 32.0789C81.8115 32.0883 81.8001 32.0956 81.7884 32.1022C81.6206 32.1961 81.5283 32.3283 81.4975 32.4828C81.4681 32.6306 81.4974 32.7865 81.5447 32.9301C81.6282 33.1833 81.8157 33.4006 82.0202 33.5879C82.1702 33.7252 82.3383 33.854 82.4919 33.9715L82.4922 33.9718C82.5476 34.0142 82.6011 34.0552 82.6511 34.0946C82.9203 34.3065 83.2023 34.5099 83.5069 34.6892C83.5428 34.7104 83.5782 34.7308 83.6129 34.7508C83.7391 34.8236 83.8576 34.8919 83.9655 34.9751C84.0418 35.034 84.1143 35.0964 84.1894 35.1612L84.2062 35.1756C84.2865 35.2448 84.3701 35.3162 84.4601 35.3831C84.5524 35.4517 84.6436 35.5162 84.7334 35.5796C84.8957 35.6941 85.0533 35.8054 85.2037 35.932C85.4591 36.147 85.6952 36.3752 85.9343 36.6063L85.9351 36.607C86.027 36.6959 86.1194 36.7851 86.2135 36.8742C86.5502 37.1932 86.9044 37.5054 87.3217 37.7671C87.6003 37.9417 87.8918 38.0994 88.1814 38.254L88.2679 38.3002C88.5291 38.4394 88.7877 38.5773 89.0373 38.7258C89.1792 38.8102 89.7812 39.1021 89.9231 39.1877V41.5046C89.4922 41.2219 88.6199 40.5772 88.2025 40.1421C88.0431 39.9759 87.7552 39.7699 87.3998 39.5427C87.0415 39.3138 86.6051 39.0574 86.1414 38.7908C85.9345 38.6718 85.7223 38.5508 85.5089 38.4292L85.5086 38.429C84.7633 38.0042 84.0047 37.5718 83.4155 37.1917C82.573 36.6484 81.8791 36.1474 81.2462 35.3389C80.4729 34.351 79.9084 32.8265 80.1911 31.5367C80.2946 31.0644 80.6223 30.7032 81.04 30.4577C81.4581 30.2119 81.9559 30.0887 82.3757 30.0887C82.9256 30.0887 83.2711 30.2867 83.7295 30.5494C83.8372 30.6111 83.951 30.6764 84.0752 30.7434C84.6484 31.0531 85.1713 31.4717 85.6638 31.9294C86.0799 32.3161 86.4699 32.7369 86.8633 33.1613L86.864 33.1621C86.95 33.2549 87.0362 33.3479 87.1228 33.4407C87.6042 33.9564 88.0984 34.4657 88.6499 34.9007Z" fill="#4E2705"/>
<path d="M89.9231 38.8788V37.1917C89.5409 36.9566 88.6899 36.3934 88.2781 36.1977C87.8011 35.9711 87.3228 35.7354 86.9141 35.3995C86.8428 35.3409 86.77 35.2821 86.6967 35.2228C86.4102 34.9913 86.1145 34.7521 85.8599 34.4893C85.7532 34.379 85.6518 34.2598 85.5534 34.144L85.5532 34.1438C85.4995 34.0806 85.4465 34.0183 85.3942 33.9593C85.2953 33.8477 85.1899 33.7478 85.0801 33.6438C85.0255 33.5921 84.9699 33.5394 84.9134 33.4836C84.8646 33.4355 84.8188 33.3884 84.774 33.3424C84.6714 33.2367 84.5743 33.1368 84.4594 33.0438C84.3163 32.9281 84.1511 32.8592 83.9577 32.7786L83.9269 32.7657C83.8205 32.7213 83.7195 32.6763 83.6212 32.6325C83.2904 32.4852 82.9902 32.3515 82.6193 32.2981C82.5891 32.2938 82.5589 32.2893 82.5288 32.2849C82.3575 32.2595 82.1894 32.2347 82.0274 32.2344C82.0119 32.2344 81.9993 32.2382 81.9813 32.2479C81.9712 32.2535 81.9607 32.2601 81.9462 32.2694L81.9442 32.2707C81.9311 32.2792 81.9145 32.2899 81.8966 32.2999C81.7818 32.3642 81.7334 32.4428 81.7165 32.5275C81.6983 32.6189 81.7144 32.7304 81.7567 32.8585C81.8217 33.0558 81.9745 33.2411 82.1702 33.4203C82.3123 33.5504 82.4682 33.6699 82.6194 33.7857C82.6767 33.8296 82.7334 33.873 82.7883 33.9162C83.0528 34.1244 83.3261 34.3213 83.6193 34.4939C83.6509 34.5126 83.6834 34.5313 83.7164 34.5503C83.8444 34.624 83.9799 34.702 84.101 34.7954C84.1823 34.8582 84.2592 34.9244 84.3334 34.9884L84.351 35.0036C84.4316 35.0729 84.5096 35.1394 84.5924 35.201C84.6752 35.2625 84.7619 35.3239 84.8498 35.386C85.0176 35.5046 85.1897 35.6263 85.3466 35.7583C85.6083 35.9785 85.8528 36.2149 86.0939 36.4479C86.1849 36.5359 86.2754 36.6233 86.3661 36.7093C86.6997 37.0251 87.0411 37.3253 87.4394 37.575C87.7107 37.7451 87.996 37.8995 88.2856 38.0541L88.3724 38.1004C88.6329 38.2393 88.8962 38.3796 89.1506 38.531C89.2552 38.5932 89.8194 38.8163 89.9231 38.8788Z" fill="#4E2705"/>
<path d="M89.9231 45.6117L82.309 37.952L76.4218 43.8563L82.309 50H89.9231V45.6117Z" fill="#FFF0E0"/>
<path d="M89.9231 45.6117L82.309 37.952L81.6641 38.5988C81.6846 38.6321 81.7037 38.6671 81.7202 38.7041C81.7455 38.7607 81.7677 38.8137 81.7889 38.8643L81.789 38.8645C81.8447 38.9973 81.8936 39.1139 81.9732 39.2371C82.2162 39.6126 82.5176 39.9954 82.8061 40.3433C83.1882 40.8041 83.6964 41.1749 84.2152 41.472C84.4075 41.5821 84.6095 41.6806 84.8164 41.7815C84.8996 41.822 84.9835 41.863 85.068 41.9052C85.3591 42.0509 85.6512 42.2098 85.9096 42.413C86.8597 43.1601 87.6086 44.2153 88.1903 45.2644C88.5985 46.0006 88.8749 46.8123 89.1178 47.6064C89.2409 48.0089 89.4198 48.3593 89.6071 48.7261C89.6872 48.8832 89.769 49.0433 89.8485 49.2117C89.8807 49.28 89.9043 49.3485 89.9231 49.4156V45.6117Z" fill="#4E2705"/>
<path d="M80.3015 39.9653L81.491 38.7724C81.4962 38.7825 81.5012 38.7927 81.5058 38.803C81.5262 38.8487 81.5457 38.8953 81.5655 38.9425C81.6238 39.0816 81.6843 39.226 81.7765 39.3686C82.0272 39.7561 82.3357 40.1474 82.626 40.4976C83.0329 40.9882 83.5673 41.3757 84.0997 41.6805C84.2991 41.7947 84.5119 41.8985 84.7216 42.0008C84.8032 42.0406 84.8843 42.0802 84.964 42.12C85.252 42.2641 85.5266 42.4144 85.7655 42.6023C86.6806 43.3219 87.411 44.3464 87.9851 45.3819C88.3805 46.0948 88.6509 46.8861 88.893 47.6775C89.0226 48.1012 89.2165 48.4813 89.4078 48.8563L89.4079 48.8564C89.4859 49.0093 89.5635 49.1614 89.6362 49.3153C89.6806 49.4094 89.706 49.5082 89.7293 49.6166C89.7337 49.637 89.7381 49.6581 89.7426 49.6796C89.761 49.7682 89.781 49.8643 89.8112 49.9576C89.8165 49.9738 89.8248 49.9881 89.8353 50H87.657C87.6388 49.9789 87.6135 49.9643 87.5849 49.9602C87.5757 49.9561 87.5628 49.9499 87.5476 49.9421C87.5088 49.9222 87.47 49.8994 87.4538 49.8874C87.3257 49.7922 87.22 49.6807 87.1066 49.5611C87.053 49.5046 86.9976 49.4461 86.9373 49.3868C86.6777 49.1313 86.3661 48.9426 86.068 48.7622L86.0609 48.7579C85.7564 48.5735 85.466 48.3969 85.2266 48.161C84.77 47.7108 84.273 47.3475 83.7406 47.005C83.4859 46.8412 83.2129 46.7148 82.9493 46.5928L82.9039 46.5717C82.6235 46.4418 82.3547 46.3142 82.1114 46.1458C81.6861 45.8513 81.2695 45.5553 80.9148 45.1903C80.7717 45.0429 80.6519 44.8712 80.5269 44.6901L80.5159 44.6741C80.3962 44.5006 80.2707 44.3187 80.1204 44.1596C79.8194 43.841 79.5826 43.4011 79.4435 42.9786C79.2808 42.4841 79.02 41.977 78.7447 41.5267L79.1982 41.0719C79.2389 41.087 79.2805 41.103 79.3225 41.1195C79.5115 41.1936 79.7057 41.2779 79.8623 41.3519C79.9406 41.3889 80.0087 41.4229 80.0616 41.4515C80.1175 41.4817 80.1484 41.5015 80.1587 41.5102C80.7674 42.0173 81.2704 42.6933 81.6566 43.3994C81.8088 43.6774 81.9883 43.9438 82.163 44.203C82.2352 44.3102 82.3066 44.4162 82.3749 44.5212C82.5319 44.7627 82.7308 45.0066 82.916 45.2338C82.9673 45.2967 83.0175 45.3583 83.0655 45.4183C83.6111 46.0993 84.478 46.5292 85.3276 46.5292C85.6447 46.5292 85.9324 46.5154 86.253 46.4154C86.3001 46.4007 86.3444 46.3761 86.3778 46.3365C86.412 46.2958 86.4269 46.2485 86.4296 46.2029C86.4344 46.1201 86.3989 46.0377 86.3664 45.9761C86.332 45.9108 86.2876 45.845 86.2515 45.7916L86.2508 45.7906C86.2106 45.7311 86.186 45.6939 86.1765 45.6721C86.0434 45.3649 85.8584 45.068 85.6813 44.7837C85.6099 44.669 85.5396 44.5562 85.4746 44.4458C85.4385 44.3843 85.4025 44.3217 85.3661 44.2586C85.1825 43.9397 84.9905 43.6063 84.7318 43.3275C84.6817 43.2735 84.6306 43.2176 84.5785 43.1605C84.2974 42.8529 83.9871 42.5131 83.6455 42.2707C83.4261 42.1149 83.1904 41.9923 82.9613 41.8755L82.9152 41.852C82.7002 41.7425 82.4923 41.6366 82.2978 41.5084C81.5795 41.0349 80.9187 40.5466 80.3015 39.9653Z" fill="#4E2705"/>
<path d="M86.9203 49.7101C87.0122 49.8069 87.1093 49.9091 87.2146 50H83.6792C83.6008 49.8538 83.482 49.7224 83.3636 49.6078C83.2773 49.5244 83.1858 49.445 83.1015 49.3719L83.0929 49.3644C83.0049 49.2881 82.9267 49.2199 82.8647 49.157C82.7549 49.0456 82.6339 48.9427 82.5175 48.8438L82.5173 48.8437C82.4864 48.8174 82.4558 48.7915 82.4258 48.7657C82.2803 48.6403 82.1457 48.5166 82.0357 48.3736C81.8192 48.0924 81.5706 47.8409 81.3269 47.5944C81.2313 47.4977 81.1364 47.4018 81.0446 47.3051C80.8655 47.1166 80.7026 46.9132 80.5357 46.7049L80.5101 46.6729C80.3353 46.4549 80.1554 46.2324 79.953 46.027C79.4626 45.5293 78.986 45.0222 78.5072 44.5128L78.5068 44.5124C78.3903 44.3883 78.2736 44.2642 78.1565 44.14C78.0336 44.0095 77.8912 43.8978 77.7552 43.7926L77.7308 43.7738C77.6013 43.6738 77.4786 43.579 77.3708 43.4726C77.3484 43.4505 77.3257 43.427 77.3022 43.4028C77.2357 43.3341 77.1638 43.2599 77.08 43.1962L78.5727 41.6992C78.8311 42.1271 79.0704 42.5993 79.2202 43.0545C79.3678 43.5029 79.6204 43.9759 79.9505 44.3254C80.0881 44.471 80.2045 44.6396 80.3274 44.8178L80.3341 44.8276C80.4576 45.0065 80.5881 45.1946 80.7473 45.3584C81.1201 45.7422 81.5546 46.0498 81.9788 46.3436C82.2409 46.5251 82.5272 46.6602 82.8062 46.7895L82.8476 46.8087C83.1147 46.9324 83.3741 47.0525 83.6147 47.2073C84.1397 47.545 84.622 47.8983 85.0627 48.3328C85.324 48.5903 85.6371 48.7799 85.9362 48.961L85.9404 48.9635C86.245 49.1479 86.5349 49.3239 86.7735 49.5588C86.8212 49.6058 86.87 49.6571 86.9203 49.7101Z" fill="#4E2705"/>
<path d="M76.9101 43.3666L76.4218 43.8563L82.309 50H83.3986C83.345 49.9282 83.2778 49.8553 83.2012 49.7812C83.1197 49.7023 83.0324 49.6266 82.9469 49.5525L82.94 49.5465C82.8538 49.4717 82.7681 49.3971 82.6984 49.3264C82.5966 49.2232 82.4861 49.1292 82.3709 49.0313L82.3706 49.0311C82.3386 49.0039 82.3063 48.9764 82.2736 48.9483C82.1261 48.8213 81.9759 48.6844 81.8502 48.5211C81.6433 48.2524 81.4107 48.0171 81.1711 47.7747C81.0732 47.6757 80.9742 47.5755 80.8753 47.4714C80.689 47.2754 80.5203 47.0647 80.3549 46.8583L80.3275 46.8241C80.1522 46.6054 79.9794 46.392 79.7866 46.1964C79.2941 45.6965 78.8151 45.1869 78.3361 44.6772C78.2196 44.5533 78.1031 44.4293 77.9865 44.3055C77.878 44.1905 77.7498 44.0892 77.6126 43.9832L77.5856 43.9623C77.4587 43.8643 77.3251 43.7612 77.2068 43.6443C77.1762 43.6141 77.1481 43.5853 77.1215 43.558C77.0471 43.4817 76.9841 43.4171 76.9101 43.3666Z" fill="#4E2705"/>
<path d="M80.1337 40.1336L79.3829 40.8866L79.4073 40.8961C79.6011 40.9722 79.8001 41.0585 79.9615 41.1348C80.0422 41.1729 80.1143 41.2089 80.1721 41.2401C80.2269 41.2697 80.2773 41.2994 80.308 41.325C80.9455 41.8562 81.466 42.5584 81.8625 43.283C82.009 43.5509 82.1785 43.8024 82.3505 44.0576C82.4242 44.1669 82.4984 44.277 82.5714 44.3893C82.7206 44.6188 82.9082 44.849 83.0922 45.0747C83.1448 45.1393 83.1971 45.2035 83.2481 45.2671C83.7506 45.8943 84.5514 46.2899 85.3276 46.2899C85.638 46.2899 85.8975 46.2759 86.1838 46.1866C86.1884 46.1851 86.1918 46.1838 86.1943 46.1827C86.1928 46.1676 86.1843 46.1374 86.1589 46.0891C86.1314 46.0371 86.0944 45.9818 86.0567 45.9261L86.051 45.9177C86.0184 45.8696 85.9805 45.8136 85.961 45.7686C85.8354 45.4787 85.6657 45.2063 85.4925 44.9285C85.4188 44.8101 85.3444 44.6907 85.2725 44.5686C85.2341 44.5033 85.1966 44.4382 85.1594 44.3737L85.159 44.373C84.9753 44.0545 84.7991 43.7489 84.5605 43.4918C84.5077 43.4349 84.4548 43.377 84.4015 43.3187C84.1197 43.0106 83.8296 42.6933 83.5107 42.4669C83.3069 42.3223 83.0855 42.2066 82.8557 42.0894L82.8072 42.0647C82.5947 41.9565 82.3756 41.8449 82.1697 41.7092C81.4418 41.2294 80.7665 40.7307 80.1337 40.1336Z" fill="#4E2705"/>
<path d="M81.3314 50L76.0758 44.4394L70.5917 50H81.3314Z" fill="#FFF0E0"/>
<path d="M79.5872 48.1546L78.8309 47.3544C78.3937 47.481 77.9704 47.6131 77.5693 47.8214C77.2778 47.9729 76.9255 48.1731 76.7221 48.408C76.2973 48.8986 76.0112 49.405 75.8065 50H78.5963C78.6405 49.9374 78.6868 49.8784 78.725 49.8295C78.7417 49.8082 78.7568 49.7889 78.7697 49.772C78.8428 49.6757 78.9234 49.5813 79.0016 49.4898C79.0316 49.4546 79.0613 49.4198 79.0901 49.3855C79.196 49.2594 79.2933 49.1353 79.3705 49.0019C79.5218 48.7407 79.5768 48.4641 79.5872 48.1546Z" fill="#4E2705"/>
<path d="M79.8005 48.3803C79.7724 48.639 79.7048 48.8894 79.5646 49.1314C79.4762 49.2839 79.3678 49.421 79.2599 49.5497C79.2281 49.5876 79.1966 49.6245 79.1656 49.6609C79.0891 49.7504 79.0155 49.8366 78.9467 49.9271C78.9302 49.9488 78.9125 49.9714 78.8941 49.9949C78.8928 49.9966 78.8915 49.9983 78.8901 50H81.3314L79.8005 48.3803Z" fill="#4E2705"/>
<path d="M77.2911 45.7252L78.6425 47.1551C78.2452 47.2726 77.8476 47.4043 77.4698 47.6006C77.1828 47.7497 76.7916 47.9675 76.5548 48.241C76.0878 48.7803 75.7797 49.34 75.5637 50H74.0927C74.0972 49.9857 74.0998 49.972 74.1014 49.9601C74.1057 49.9274 74.104 49.8945 74.1026 49.8723L74.102 49.8627L74.1013 49.8533C74.1002 49.8372 74.0994 49.8254 74.0994 49.8131C74.0994 49.6328 74.1246 49.4857 74.161 49.2975C74.1789 49.2046 74.2245 49.0957 74.2826 48.9768C74.3044 48.9321 74.3293 48.8838 74.3542 48.8352C74.3906 48.7644 74.4273 48.693 74.4554 48.6316C74.5029 48.5277 74.5356 48.4195 74.5652 48.3214L74.5654 48.321C74.5691 48.3086 74.5728 48.2964 74.5765 48.2843C74.6103 48.1734 74.6428 48.0754 74.6925 47.9865C74.8133 47.7703 75.0091 47.6399 75.245 47.5295C75.3325 47.4885 75.4219 47.4519 75.5137 47.4143C75.5462 47.401 75.579 47.3875 75.6121 47.3737C75.7365 47.3219 75.8633 47.2658 75.9804 47.1963C76.0136 47.1766 76.0467 47.1572 76.0796 47.1379C76.3516 46.978 76.6141 46.8237 76.8531 46.5793C76.9855 46.4439 77.1335 46.1991 77.2254 45.9482C77.2521 45.8755 77.2748 45.8002 77.2911 45.7252Z" fill="#4E2705"/>
<path d="M76.0758 44.4394L77.0893 45.5117C77.089 45.5212 77.0885 45.531 77.0877 45.5411C77.0807 45.6372 77.0538 45.7466 77.0128 45.8584C76.9301 46.0842 76.7986 46.2963 76.6955 46.4017C76.4795 46.6226 76.2438 46.7613 75.9689 46.9232C75.9365 46.9423 75.9035 46.9617 75.8699 46.9816C75.767 47.0427 75.6522 47.0939 75.5294 47.145C75.499 47.1577 75.4678 47.1705 75.4363 47.1834C75.3431 47.2216 75.2465 47.2612 75.1537 47.3046C74.904 47.4215 74.6545 47.5777 74.4966 47.8603C74.4324 47.975 74.3933 48.0965 74.3593 48.208L74.3479 48.2456C74.3176 48.3455 74.2901 48.4364 74.2502 48.5235C74.2232 48.5827 74.1925 48.6421 74.1594 48.7063C74.1343 48.7551 74.1078 48.8066 74.0803 48.8628C74.021 48.9841 73.9621 49.1189 73.9372 49.2476C73.9004 49.4381 73.8709 49.606 73.8709 49.8131C73.8709 49.8353 73.8726 49.8593 73.8738 49.877C73.8741 49.8813 73.8744 49.8853 73.8746 49.8887L73.8747 49.8907C73.8323 49.907 73.8015 49.9495 73.7991 50H72.2304C72.2346 49.9433 72.2519 49.8844 72.2784 49.8182C72.2931 49.7813 72.3096 49.7445 72.3274 49.705L72.3296 49.7002C72.3478 49.6598 72.3672 49.6164 72.3844 49.5722C72.6072 48.998 72.7464 48.3821 72.801 47.7599L76.0758 44.4394Z" fill="#4E2705"/>
<path d="M72.5422 48.0223L70.5917 50H72.0014C72.006 49.8968 72.0357 49.8032 72.0684 49.7215C72.0852 49.6793 72.1038 49.638 72.121 49.5998L72.1238 49.5935C72.1423 49.5525 72.1591 49.5149 72.1735 49.4778C72.3531 49.0151 72.4763 48.5231 72.5422 48.0223Z" fill="#4E2705"/>
<path d="M81.9451 37.5659L76.1011 32.0825L62.1535 45.6751V50H69.6338L81.9451 37.5659Z" fill="#FFF0E0"/>
<path d="M76.1011 32.0825L78.8046 34.6192C75.9283 35.4896 73.3842 37.4973 71.3569 39.6174C71.1056 39.8803 70.8603 40.1459 70.6158 40.4106C70.1044 40.9641 69.5967 41.5137 69.0456 42.0258C68.7593 42.2919 68.4845 42.5787 68.2119 42.8634C68.1082 42.9716 68.0049 43.0795 67.9013 43.1858C67.5231 43.5741 67.1385 43.9451 66.711 44.2536C66.0202 44.7521 65.2987 45.2285 64.5801 45.703L64.5798 45.7032L64.5795 45.7034C64.3588 45.8491 64.1385 45.9946 63.9194 46.1405C63.6159 46.3426 63.2984 46.5216 62.9768 46.7029C62.9169 46.7366 62.857 46.7704 62.7969 46.8044C62.581 46.9268 62.3647 47.0521 62.1535 47.1869V45.6751L72.2381 35.8472C72.5423 35.8261 72.8466 35.7929 73.1524 35.7419C73.1895 35.7358 73.2277 35.7296 73.2668 35.7232L73.267 35.7232C73.4453 35.6942 73.6427 35.6621 73.8351 35.616C74.07 35.5596 74.3075 35.4802 74.5064 35.3526C74.601 35.2919 74.678 35.2069 74.7432 35.1275C74.7682 35.0971 74.7908 35.0683 74.8124 35.041C74.8512 34.9917 74.8865 34.947 74.9253 34.9052C75.0591 34.7611 75.0971 34.5875 75.0735 34.4225C75.0503 34.2607 74.9686 34.1076 74.8629 33.9878C74.7434 33.8525 74.61 33.7515 74.4666 33.6754L76.1011 32.0825Z" fill="#4E2705"/>
<path d="M74.2904 33.8471L72.4986 35.5933C72.7037 35.5737 72.9085 35.5477 73.1137 35.5135C73.1526 35.507 73.1921 35.5005 73.2321 35.4941L73.2323 35.494C73.4103 35.4651 73.5971 35.4347 73.7801 35.3908C74.004 35.3371 74.2124 35.2652 74.3794 35.158C74.4417 35.1181 74.4997 35.0569 74.5619 34.9812C74.5803 34.9588 74.5998 34.9342 74.6199 34.9087C74.6626 34.8546 74.7084 34.7966 74.7532 34.7484C74.8335 34.6619 74.8572 34.5605 74.8421 34.455C74.8265 34.3463 74.7691 34.2334 74.687 34.1404C74.5711 34.0091 74.4385 33.9153 74.2904 33.8471Z" fill="#4E2705"/>
<path d="M73.2753 42.6429C73.4646 42.5386 73.6539 42.4343 73.8423 42.3292L73.8439 42.3283L73.8444 42.328C75.1385 41.6061 76.3882 40.8483 77.2888 39.8098C77.4219 39.6563 77.5737 39.472 77.6705 39.2891C77.7699 39.1013 77.7926 38.951 77.731 38.8407C77.7126 38.8079 77.6763 38.7806 77.6092 38.7622C77.5414 38.7437 77.4566 38.7384 77.3643 38.7397C76.8317 38.7471 76.2844 38.9432 75.7491 39.1541C75.0082 39.4461 74.3128 39.8031 73.6255 40.198C73.5066 40.2662 73.3856 40.3345 73.2637 40.4033C72.5581 40.8016 71.8232 41.2165 71.3008 41.7408C71.0787 41.9636 70.9036 42.2528 70.819 42.5387C70.7338 42.8262 70.7443 43.0939 70.8664 43.2902C70.9042 43.351 70.9772 43.3899 71.1053 43.3971C71.2337 43.4043 71.3952 43.3775 71.5715 43.3298C71.8365 43.2581 72.1094 43.1471 72.3225 43.0603C72.394 43.0312 72.4587 43.0049 72.5142 42.9837C72.7786 42.8826 73.0113 42.7787 73.2495 42.6572L73.2753 42.6429Z" fill="#4E2705"/>
<path fill-rule="evenodd" clip-rule="evenodd" d="M78.9911 34.8057L79.0005 34.803L80.8764 36.5631C80.791 36.6971 80.711 36.8347 80.6372 36.9763C80.4364 37.3615 80.2704 37.7606 80.1083 38.1557L80.0787 38.2278C79.9262 38.5998 79.7756 38.9672 79.5991 39.323C79.3861 39.7522 79.1635 40.1978 78.9138 40.6274L76.6185 42.9456C76.305 43.1188 75.9824 43.2816 75.6574 43.4456C75.5864 43.4814 75.5153 43.5173 75.4441 43.5533C74.8733 43.8426 74.3012 44.1427 73.7789 44.5124C73.7258 44.55 73.6723 44.588 73.6185 44.6263C73.1396 44.967 72.6334 45.3271 72.1231 45.564C71.9485 45.645 71.7727 45.765 71.6057 45.879C71.5747 45.9002 71.5439 45.9212 71.5135 45.9417C71.3133 46.0767 71.1269 46.1919 70.9457 46.2427C70.674 46.3188 70.4204 46.4318 70.1753 46.5482C70.1239 46.5727 70.073 46.5972 70.0224 46.6215L70.0214 46.622L70.021 46.6222L70.0206 46.6224C69.828 46.7151 69.6395 46.8058 69.4431 46.8828C69.1866 46.9834 68.9211 47.0559 68.6489 47.127L68.5592 47.1504C68.3173 47.2132 68.0702 47.2775 67.8279 47.3608C67.1364 47.5986 66.4262 47.7781 65.7114 47.9588C65.2705 48.0703 64.8277 48.1822 64.3867 48.3085C64.0853 48.3948 63.7785 48.4699 63.4688 48.5457L63.3696 48.57C63.0272 48.654 62.6821 48.7403 62.3435 48.8439C62.28 48.8634 62.2166 48.8835 62.1535 48.9043V47.4642C62.3976 47.3017 62.6529 47.153 62.913 47.0055C62.9719 46.9721 63.0312 46.9387 63.0906 46.9052C63.4121 46.7241 63.7384 46.5401 64.0497 46.3328C64.2673 46.1879 64.4868 46.043 64.707 45.8976C65.4264 45.4226 66.1534 44.9425 66.8486 44.4409C67.2931 44.1201 67.6891 43.7373 68.0695 43.3468C68.1761 43.2373 68.2813 43.1275 68.386 43.0182C68.6569 42.7353 68.9245 42.456 69.2055 42.1948C69.7631 41.6767 70.2812 41.1159 70.7959 40.5587C71.039 40.2956 71.2813 40.0334 71.5266 39.7768C73.5695 37.6403 76.1222 35.6394 78.9911 34.8057ZM72.5983 43.1998C72.868 43.0967 73.1056 42.9907 73.3468 42.8681C73.35 42.8667 73.3532 42.8651 73.3563 42.8634L73.3598 42.8615C73.5497 42.7645 73.7421 42.6571 73.9546 42.5326C74.0574 42.4825 74.3437 42.3155 74.4521 42.2513C75.5755 41.6051 76.6559 40.895 77.4661 39.9608C77.5992 39.8073 77.7671 39.6054 77.8775 39.3967C77.9854 39.1929 78.0573 38.9464 77.9354 38.7283C77.8753 38.6209 77.7721 38.5665 77.6714 38.5389C77.5714 38.5115 77.4601 38.5066 77.361 38.508C76.78 38.5161 76.1954 38.7289 75.6627 38.9388C74.9077 39.2363 74.2017 39.5992 73.5082 39.9975C73.3929 40.0638 73.2742 40.1307 73.1536 40.1987C72.4498 40.5956 71.6817 41.0287 71.1344 41.578C70.8869 41.8264 70.6909 42.1486 70.5947 42.4734C70.499 42.7967 70.4979 43.1392 70.6675 43.4118C70.762 43.5638 70.926 43.619 71.0921 43.6284C71.2579 43.6377 71.448 43.6034 71.6331 43.5533C71.9137 43.4774 72.2089 43.3572 72.4231 43.27L72.4233 43.2699C72.4907 43.2425 72.55 43.2183 72.5983 43.1998Z" fill="#4E2705"/>
<path d="M62.1535 49.1489V50H66.48C66.825 49.5854 67.2224 49.1646 67.6629 48.8718C68.1045 48.5782 68.6363 48.4267 69.1731 48.3421C69.6614 48.2652 70.1625 48.2425 70.6125 48.222C70.6571 48.22 70.7013 48.218 70.7449 48.216C70.9216 48.2077 71.097 48.2017 71.2714 48.1957C71.3228 48.1939 71.3742 48.1922 71.4255 48.1904L76.0753 43.4942C75.9711 43.5473 75.8669 43.5999 75.7629 43.6523L75.7618 43.6529C75.6912 43.6885 75.6208 43.724 75.5505 43.7596C74.9799 44.0488 74.4216 44.3421 73.9148 44.701C73.8628 44.7377 73.8103 44.7751 73.7571 44.813L73.7542 44.815L73.754 44.8152C73.278 45.1539 72.7535 45.5272 72.2222 45.7738C72.0667 45.846 71.9099 45.9529 71.7424 46.0671C71.7104 46.0889 71.6779 46.111 71.645 46.1332C71.4466 46.267 71.2316 46.4034 71.0093 46.4657C70.7579 46.5361 70.5194 46.6418 70.2763 46.7572C70.2268 46.7807 70.177 46.8047 70.1268 46.8289C69.9332 46.922 69.7345 47.0177 69.5291 47.0982C69.2583 47.2044 68.9809 47.2799 68.7085 47.351L68.6186 47.3744C68.3756 47.4376 68.1376 47.4995 67.9046 47.5796C67.2065 47.8197 66.4761 48.0046 65.7524 48.1877C65.3135 48.2988 64.8769 48.4093 64.4516 48.5311C64.1455 48.6187 63.8342 48.6949 63.5251 48.7706L63.4258 48.7949C63.0833 48.8789 62.744 48.9638 62.4125 49.0653C62.3255 49.092 62.2391 49.1197 62.1535 49.1489Z" fill="#4E2705"/>
<path d="M69.6338 50H66.7853C67.0916 49.6452 67.4291 49.3062 67.7931 49.0642C68.1949 48.7971 68.6891 48.653 69.2098 48.5709C69.6844 48.4962 70.1724 48.474 70.6243 48.4534C70.6685 48.4514 70.7124 48.4494 70.7558 48.4474C70.899 48.4407 71.0431 48.4355 71.1878 48.4305L69.6338 50Z" fill="#4E2705"/>
<path d="M79.5041 40.0312L81.9451 37.5659L81.0495 36.7256C80.9768 36.8418 80.9084 36.9607 80.8449 37.0826C80.6496 37.4573 80.4872 37.8473 80.3248 38.243L80.2945 38.3169C80.1427 38.6871 79.9891 39.0618 79.8088 39.4252C79.7108 39.6228 79.6098 39.826 79.5041 40.0312Z" fill="#4E2705"/>
<path d="M81.8635 25.6733L76.2197 20L62.0695 33.47L62 44.901L81.8635 25.6733Z" fill="#FFF0E0"/>
<path d="M78.0175 21.8072L76.2197 20L70.3684 25.57C70.3312 25.7144 70.2883 25.8566 70.2455 25.9987L70.2454 25.999C70.2289 26.0539 70.2124 26.1087 70.1962 26.1637C69.9401 27.0324 69.6307 27.7924 68.957 28.4506C68.1425 29.2463 66.9523 30.2068 65.703 30.6996C65.3659 30.8326 65.0227 30.932 64.6804 30.9846L62.0695 33.47L62.0585 35.2724C63.5152 34.5794 64.9262 33.7665 66.2192 32.8256C67.2015 32.1108 68.1252 31.3201 68.9374 30.4182C69.3438 29.967 69.7237 29.4933 70.1057 29.017L70.106 29.0166L70.1062 29.0164L70.1067 29.0158C70.2257 28.8674 70.345 28.7187 70.4652 28.5704C71.5561 27.2255 72.7351 25.9588 73.9358 24.7183C74.8923 23.7302 75.8115 22.9385 77.0429 22.2984C77.3656 22.1306 77.6908 21.9672 78.0175 21.8072Z" fill="#4E2705"/>
<path d="M64.9944 30.6857C65.2022 30.6342 65.4109 30.5659 65.619 30.4839C66.8271 30.0074 67.9914 29.0711 68.7968 28.2843C69.428 27.6675 69.7234 26.9532 69.9755 26.0977C69.9923 26.0408 70.0092 25.9848 70.0258 25.9296C70.0305 25.914 70.0352 25.8983 70.0398 25.8828L64.9944 30.6857Z" fill="#4E2705"/>
<path d="M62.0407 38.1994L62.0268 40.4848C62.5197 40.4648 63.026 40.3932 63.4437 40.1968C64.3648 39.7639 65.0105 39.1684 65.6122 38.5435C65.7286 38.4227 65.8436 38.3003 65.9589 38.1777L65.959 38.1776C66.4369 37.6694 66.9189 37.1568 67.5169 36.7273C67.9407 36.423 68.3965 36.1724 68.8482 35.928L68.9321 35.8827C69.3571 35.653 69.7766 35.4262 70.1714 35.1595C70.4201 34.9914 70.669 34.8219 70.9182 34.6521L70.9186 34.6518C71.4907 34.2621 72.0646 33.8711 72.6435 33.4936C73.4451 32.9708 74.2784 32.5852 75.1258 32.1953L78.2678 29.1539C78.144 29.2304 78.0094 29.3124 77.8616 29.4004L77.8571 29.4031L77.8524 29.4054C77.155 29.7394 76.7781 29.932 76.2355 30.2093L76.2352 30.2094L76.2346 30.2097C75.8135 30.4249 75.2926 30.6911 74.4448 31.1138L74.4358 31.1183L74.4263 31.1211C74.0193 31.2421 73.5815 31.4335 73.1385 31.6348C73.0753 31.6635 73.012 31.6924 72.9487 31.7213C72.571 31.8938 72.1929 32.0664 71.8388 32.1959C70.0119 32.8639 68.2364 33.7419 66.5828 34.768C65.8217 35.2403 65.1094 35.7858 64.404 36.349C64.2256 36.4914 64.0476 36.635 63.8693 36.7788C63.3439 37.2025 62.8162 37.6281 62.2727 38.0287C62.1954 38.0856 62.1181 38.1425 62.0407 38.1994Z" fill="#4E2705"/>
<path d="M62.0254 40.7167L62.0183 41.8991C62.4623 42.1801 62.7652 42.4224 62.947 42.6341C63.1339 42.8517 63.215 43.0649 63.1401 43.2625C63.0695 43.4489 62.8761 43.5707 62.6527 43.6568C62.4718 43.7265 62.2505 43.7806 62.0065 43.8241L62 44.901L74.6193 32.6856C73.9849 32.9846 73.3683 33.297 72.7686 33.688C72.1917 34.0642 71.621 34.453 71.0499 34.8421C70.8001 35.0123 70.5501 35.1826 70.2996 35.3519C69.8951 35.6252 69.4661 35.857 69.0433 36.0855L68.9572 36.1321C68.5047 36.3769 68.061 36.6212 67.6505 36.916C67.0725 37.3311 66.6093 37.8235 66.1327 38.33C66.0157 38.4544 65.8979 38.5796 65.7774 38.7048C65.1691 39.3365 64.5002 39.956 63.5411 40.4068C63.0799 40.6235 62.5335 40.6969 62.0254 40.7167Z" fill="#4E2705"/>
<path d="M62.008 43.5884L62.0166 42.173C62.3851 42.4148 62.6283 42.6173 62.7729 42.7856C62.9411 42.9815 62.9541 43.1036 62.9251 43.1799C62.8919 43.2675 62.7835 43.3583 62.5705 43.4404C62.4174 43.4994 62.2263 43.5478 62.008 43.5884Z" fill="#4E2705"/>
<path d="M62.0425 37.9112L62.1368 37.8417C62.6759 37.4444 63.1979 37.0234 63.7222 36.6005C63.9013 36.4561 64.0806 36.3114 64.261 36.1674C64.968 35.603 65.689 35.0505 66.4621 34.5707C68.1282 33.5369 69.9177 32.6518 71.7602 31.9781C72.1051 31.852 72.4738 31.6837 72.8521 31.511L72.8522 31.5109C72.9158 31.4819 72.9798 31.4527 73.0438 31.4236C73.4828 31.2242 73.9304 31.0279 74.3515 30.9018C75.189 30.4841 75.7075 30.2192 76.1281 30.0043L76.1282 30.0042C76.6727 29.7261 77.0529 29.5318 77.7489 29.1984C78.1526 28.9576 78.4573 28.7631 78.7116 28.6004L78.7254 28.5916C78.8543 28.5092 78.971 28.4346 79.0815 28.3663L81.8635 25.6733L81.2327 25.0392C81.1268 25.1005 81.0246 25.1646 80.9224 25.2309C80.8501 25.2778 80.7774 25.3262 80.7032 25.3755C80.5102 25.5038 80.3078 25.6385 80.0793 25.7701C79.8121 25.9241 79.4576 26.0627 79.1133 26.1972L79.0955 26.2041C78.7403 26.343 78.3973 26.4779 78.1452 26.6257C77.7705 26.8453 77.4469 27.0753 77.1023 27.3202C77.0487 27.3583 76.9947 27.3967 76.9399 27.4355C76.533 27.7234 76.0874 28.029 75.5001 28.3517C75.4251 28.3928 75.3525 28.4339 75.2812 28.4742C74.8462 28.7199 74.4617 28.9371 73.9081 28.9844L73.9006 28.9851C73.7671 28.9965 73.5816 29.0123 73.3965 29.015C73.2109 29.0177 73.0118 29.0076 72.8622 28.9596L72.8466 28.9546C72.7609 28.9272 72.6471 28.8909 72.5594 28.8299C72.5106 28.7959 72.4639 28.7506 72.4334 28.6891C72.4022 28.6262 72.3923 28.5549 72.4043 28.4773C72.4546 28.1523 72.6225 27.8657 72.818 27.6126C72.9556 27.4344 73.1138 27.2648 73.2595 27.1086L73.2597 27.1083C73.3191 27.0447 73.3764 26.9832 73.4294 26.9243C73.8785 26.4253 74.3437 25.9102 74.8753 25.479C75.7973 24.7313 76.8293 24.0305 77.8507 23.4319C78.2304 23.2094 78.6336 23.0114 79.0346 22.8296L78.1899 21.9805C77.8405 22.151 77.493 22.3251 77.1485 22.5042C75.9472 23.1287 75.0477 23.9017 74.1006 24.88C72.9017 26.1187 71.7281 27.3798 70.6435 28.7169C70.5247 28.8634 70.4063 29.011 70.2876 29.159C69.9047 29.6364 69.5191 30.1173 69.1079 30.5739C68.2825 31.4904 67.3459 32.2916 66.354 33.0133C65.0184 33.9852 63.56 34.8208 62.057 35.5292L62.0425 37.9112Z" fill="#4E2705"/>
<path d="M79.2089 23.0048L81.0643 24.8698C80.9731 24.9239 80.8849 24.9796 80.7977 25.0361C80.7213 25.0858 80.6461 25.1358 80.5706 25.186C80.3797 25.3129 80.1866 25.4413 79.965 25.569C79.7129 25.7144 79.3717 25.8477 79.0184 25.9858L79.0122 25.9882C78.6622 26.1249 78.3005 26.2666 78.0294 26.4254C77.6453 26.6505 77.3129 26.8869 76.9687 27.1315C76.9153 27.1695 76.8617 27.2076 76.8075 27.2459C76.4032 27.532 75.9659 27.8318 75.3899 28.1483C75.3112 28.1915 75.2363 28.2337 75.1641 28.2743L75.1638 28.2745L75.1635 28.2747C74.7282 28.5199 74.3893 28.7108 73.8886 28.7536L73.8833 28.754C73.7488 28.7655 73.5702 28.7808 73.3932 28.7833C73.2108 28.786 73.0438 28.7747 72.9321 28.7388L72.9315 28.7386C72.8332 28.7071 72.7488 28.68 72.6902 28.6392C72.663 28.6203 72.6476 28.6024 72.6393 28.5857C72.6317 28.5703 72.6262 28.5483 72.6317 28.513C72.6733 28.2442 72.8144 27.9946 72.9996 27.7549C73.1304 27.5856 73.2763 27.4291 73.4191 27.2761C73.4805 27.2103 73.5413 27.1451 73.6 27.0799C74.0508 26.5788 74.5044 26.0774 75.0197 25.6595C75.9315 24.9199 76.9538 24.2256 77.9665 23.6321C78.3618 23.4005 78.7855 23.1948 79.2089 23.0048Z" fill="#4E2705"/>
</svg>
