<svg width="1920" height="1024" viewBox="0 0 1920 1024" fill="none" xmlns="http://www.w3.org/2000/svg">
<g clip-path="url(#clip0_751_311)">
<rect width="1920" height="658" fill="#FFF0E0"/>
<rect width="1920" height="86" fill="#4E2705"/>
<path d="M72.8545 32.8701L68.7529 32.8994V39.0518L72.5908 39.0225V43.9736H68.7529V56H62.4834V27.6553L72.8545 27.626V32.8701ZM82.0004 56L81.8832 50.8145H80.7699L80.6527 56H74.1488L76.1557 27.6553H86.6293L88.5189 56H82.0004ZM80.9164 45.8633H81.766L81.517 36.1953V33.2949H81.1654V36.1953L80.9164 45.8633ZM104.271 49.042C104.271 51.8838 103.549 53.8613 102.103 54.9746L103.51 59.0029L97.6355 58.9736L96.8299 56.2637C94.7498 56.166 93.1775 55.5459 92.1131 54.4033C91.0584 53.251 90.5311 51.4639 90.5311 49.042V34.6426C90.5311 32.123 91.1023 30.2822 92.2449 29.1201C93.3973 27.958 95.1014 27.377 97.3572 27.377C99.701 27.377 101.439 27.9531 102.572 29.1055C103.705 30.2578 104.271 32.1035 104.271 34.6426V49.042ZM96.9764 32.8994V50.7852C96.9764 51.166 97.1033 51.3564 97.3572 51.3564C97.66 51.3564 97.8113 51.166 97.8113 50.7852V32.8994C97.8113 32.499 97.6697 32.2988 97.3865 32.2988C97.1131 32.2988 96.9764 32.499 96.9764 32.8994ZM120.361 37.6162H114.179V32.8115C114.179 32.4111 114.037 32.2109 113.754 32.2109C113.481 32.2109 113.344 32.4111 113.344 32.8115V37.2793C113.344 37.8164 113.554 38.1973 113.974 38.4219L116.728 39.0225C118.027 39.3643 119.008 39.916 119.672 40.6777C120.346 41.4297 120.683 42.5967 120.683 44.1787V50.126C120.683 52.0889 120.087 53.6074 118.896 54.6816C117.714 55.7559 116.029 56.293 113.842 56.293C109.36 56.293 107.123 54.5742 107.133 51.1367V45.0869H113.373V50.8145C113.373 51.2148 113.52 51.415 113.813 51.415C114.096 51.415 114.237 51.2344 114.237 50.873V45.3506C114.237 44.7939 113.969 44.4131 113.432 44.208L111.454 43.7539C109.853 43.4707 108.7 42.8848 107.997 41.9961C107.294 41.1074 106.943 39.7939 106.943 38.0557V33.2949C106.943 31.4395 107.529 29.9893 108.7 28.9443C109.872 27.8994 111.576 27.377 113.813 27.377C115.893 27.377 117.504 27.8311 118.647 28.7393C119.789 29.6377 120.361 30.917 120.361 32.5771V37.6162Z" fill="#FFF0E0"/>
<mask id="path-2-inside-1_751_311" fill="white">
<path d="M110 211H1810V321H110V211Z"/>
</mask>
<path d="M110 211H1810V321H110V211Z" fill="#FFF0E0"/>
<path d="M154.8 278.32C147.856 278.32 143.312 273.648 143.312 266.64C143.312 259.632 147.856 254.96 154.8 254.96C156.88 254.96 159.312 255.408 160.912 256.048L160.272 259.76C158.96 259.248 157.072 258.928 155.536 258.928C151.024 258.928 147.984 261.808 147.984 266.64C147.984 271.472 151.024 274.352 155.536 274.352C157.104 274.352 158.96 274.032 160.24 273.552L160.912 277.232C159.312 277.872 156.88 278.32 154.8 278.32ZM170.591 278.32C165.759 278.32 162.559 275.056 162.559 270.16C162.559 265.264 165.759 262 170.559 262C175.391 262 178.623 265.264 178.623 270.16C178.623 275.056 175.423 278.32 170.591 278.32ZM170.591 274.608C172.607 274.608 173.983 272.816 173.983 270.16C173.983 267.472 172.607 265.68 170.559 265.68C168.511 265.68 167.199 267.472 167.199 270.16C167.199 272.784 168.607 274.608 170.591 274.608ZM200.069 262C202.597 262 205.061 263.664 205.061 268.4V278H200.517V268.912C200.517 266.384 199.621 265.68 198.405 265.68C197.509 265.68 196.549 266.192 195.685 266.864C195.749 267.344 195.781 267.856 195.781 268.4V278H191.237V268.912C191.237 266.384 190.373 265.68 189.125 265.68C188.26 265.68 187.333 266.16 186.501 266.8V278H181.957V262.288L185.989 262L186.341 263.888C187.557 262.896 188.933 262 190.789 262C192.389 262 193.989 262.672 194.917 264.4C196.293 263.216 197.957 262 200.069 262ZM227.287 262C229.815 262 232.279 263.664 232.279 268.4V278H227.735V268.912C227.735 266.384 226.839 265.68 225.623 265.68C224.727 265.68 223.767 266.192 222.903 266.864C222.967 267.344 222.999 267.856 222.999 268.4V278H218.455V268.912C218.455 266.384 217.591 265.68 216.343 265.68C215.479 265.68 214.551 266.16 213.719 266.8V278H209.175V262.288L213.207 262L213.559 263.888C214.775 262.896 216.151 262 218.007 262C219.607 262 221.207 262.672 222.135 264.4C223.511 263.216 225.175 262 227.287 262ZM250.282 270.224L249.802 271.088H240.17C240.522 273.552 241.994 274.768 244.362 274.768C245.834 274.768 247.114 274.48 248.106 274L248.97 277.072C247.786 277.808 245.482 278.352 243.466 278.352C238.698 278.352 235.434 275.248 235.434 270.128C235.434 265.296 238.506 262 243.274 262C247.626 262 250.282 265.008 250.282 270.224ZM243.146 265.488C241.61 265.488 240.49 266.448 240.17 268.528H245.674C245.418 266.32 244.586 265.488 243.146 265.488ZM262.805 262C265.333 262 267.765 263.664 267.765 268.4V278H263.253V268.912C263.253 266.384 262.357 265.68 260.981 265.68C260.021 265.68 258.901 266.064 257.813 266.704V278H253.269V262.288L257.301 262L257.653 263.952C259.093 262.928 260.917 262 262.805 262ZM281.815 274.192L282.423 277.68C281.463 278.064 279.479 278.32 278.295 278.32C275.607 278.32 272.791 277.104 272.791 272.016V265.584H270.263V262.32H272.951L274.359 258.128H277.303V262.32H282.135V265.584H277.303V271.504C277.303 273.872 278.103 274.608 279.447 274.608C280.119 274.608 281.303 274.416 281.815 274.192ZM301.452 262C305.196 262 307.819 265.04 307.819 270C307.819 274.992 304.78 278.32 300.14 278.32C299.084 278.32 297.804 278.128 296.876 277.744V284.208H292.332V262.32H296.332L296.716 263.984C297.996 262.704 299.692 262 301.452 262ZM299.5 274.608C301.74 274.608 303.212 272.976 303.212 270.096C303.212 267.248 301.772 265.68 299.852 265.68C298.764 265.68 297.708 266.192 296.876 266.928V274.096C297.676 274.448 298.732 274.608 299.5 274.608ZM317.575 262C322.119 262 324.615 264.816 324.615 269.04V278H320.615L320.199 276.048C318.823 277.424 316.711 278.32 314.791 278.32C311.975 278.32 309.895 276.304 309.895 273.616C309.895 270.544 312.615 268.944 316.103 268.944C317.447 268.944 319.047 269.136 320.071 269.36V268.752C320.071 266.864 318.791 265.552 316.391 265.552C314.919 265.552 312.967 266 311.719 266.672L311.111 263.472C312.551 262.608 315.271 262 317.575 262ZM314.535 273.264C314.535 274.352 315.335 275.12 316.679 275.12C317.639 275.12 318.951 274.736 320.071 274.064V271.728C319.303 271.536 318.343 271.408 317.095 271.408C315.399 271.408 314.535 272.144 314.535 273.264ZM333.795 278.32C331.427 278.32 329.027 277.776 327.555 276.912L328.131 273.712C329.859 274.448 331.683 274.864 333.571 274.864C335.203 274.864 335.939 274.448 335.939 273.68C335.939 272.976 335.395 272.656 334.563 272.336L331.715 271.12C329.379 270.128 327.939 268.848 327.939 266.576C327.939 263.504 330.595 262 334.595 262C336.579 262 338.755 262.352 340.003 262.928L339.363 266.224C338.211 265.776 336.419 265.424 334.787 265.424C333.251 265.424 332.611 265.84 332.611 266.64C332.611 267.312 332.995 267.568 333.795 267.92L337.187 269.36C339.491 270.352 340.611 271.824 340.611 273.744C340.611 276.72 337.859 278.32 333.795 278.32ZM348.858 278.32C346.49 278.32 344.09 277.776 342.618 276.912L343.194 273.712C344.922 274.448 346.746 274.864 348.634 274.864C350.266 274.864 351.002 274.448 351.002 273.68C351.002 272.976 350.458 272.656 349.626 272.336L346.778 271.12C344.442 270.128 343.002 268.848 343.002 266.576C343.002 263.504 345.658 262 349.658 262C351.642 262 353.818 262.352 355.066 262.928L354.426 266.224C353.274 265.776 351.482 265.424 349.85 265.424C348.314 265.424 347.674 265.84 347.674 266.64C347.674 267.312 348.058 267.568 348.858 267.92L352.25 269.36C354.554 270.352 355.674 271.824 355.674 273.744C355.674 276.72 352.922 278.32 348.858 278.32ZM372.688 270.224L372.208 271.088H362.576C362.928 273.552 364.4 274.768 366.768 274.768C368.24 274.768 369.52 274.48 370.512 274L371.376 277.072C370.192 277.808 367.888 278.352 365.872 278.352C361.104 278.352 357.84 275.248 357.84 270.128C357.84 265.296 360.912 262 365.68 262C370.032 262 372.688 265.008 372.688 270.224ZM365.552 265.488C364.016 265.488 362.896 266.448 362.576 268.528H368.08C367.824 266.32 366.992 265.488 365.552 265.488ZM384.603 262C385.435 262 386.555 262.32 387.099 262.8L386.395 266.928L386.267 267.024C385.723 266.576 384.699 266.256 383.739 266.256C382.555 266.256 381.243 266.832 380.219 267.696V278H375.675V262.288L379.707 262L380.219 265.2C381.403 263.28 382.875 262 384.603 262ZM403.253 278.32C398.357 278.32 394.965 275.088 394.965 270.16C394.965 265.296 398.293 262 402.933 262C405.205 262 407.541 262.736 408.693 263.792L406.901 266.672C406.133 266.064 404.757 265.712 403.477 265.712C401.141 265.712 399.637 267.44 399.637 270.064C399.637 272.784 401.333 274.608 404.181 274.608C405.397 274.608 406.901 274.288 407.765 273.808L408.405 277.264C407.125 277.872 405.077 278.32 403.253 278.32ZM418.341 278.32C413.509 278.32 410.309 275.056 410.309 270.16C410.309 265.264 413.509 262 418.309 262C423.141 262 426.373 265.264 426.373 270.16C426.373 275.056 423.173 278.32 418.341 278.32ZM418.341 274.608C420.357 274.608 421.733 272.816 421.733 270.16C421.733 267.472 420.357 265.68 418.309 265.68C416.261 265.68 414.949 267.472 414.949 270.16C414.949 272.784 416.357 274.608 418.341 274.608ZM447.819 262C450.347 262 452.811 263.664 452.811 268.4V278H448.267V268.912C448.267 266.384 447.371 265.68 446.155 265.68C445.259 265.68 444.299 266.192 443.435 266.864C443.499 267.344 443.531 267.856 443.531 268.4V278H438.987V268.912C438.987 266.384 438.123 265.68 436.875 265.68C436.01 265.68 435.083 266.16 434.251 266.8V278H429.707V262.288L433.739 262L434.091 263.888C435.307 262.896 436.683 262 438.539 262C440.139 262 441.739 262.672 442.667 264.4C444.043 263.216 445.707 262 447.819 262ZM475.037 262C477.565 262 480.029 263.664 480.029 268.4V278H475.485V268.912C475.485 266.384 474.589 265.68 473.373 265.68C472.477 265.68 471.517 266.192 470.653 266.864C470.717 267.344 470.749 267.856 470.749 268.4V278H466.205V268.912C466.205 266.384 465.341 265.68 464.093 265.68C463.229 265.68 462.301 266.16 461.469 266.8V278H456.925V262.288L460.957 262L461.309 263.888C462.525 262.896 463.901 262 465.757 262C467.357 262 468.957 262.672 469.885 264.4C471.261 263.216 472.925 262 475.037 262ZM490.544 262C495.088 262 497.584 264.816 497.584 269.04V278H493.584L493.168 276.048C491.792 277.424 489.68 278.32 487.76 278.32C484.944 278.32 482.864 276.304 482.864 273.616C482.864 270.544 485.584 268.944 489.072 268.944C490.416 268.944 492.016 269.136 493.04 269.36V268.752C493.04 266.864 491.76 265.552 489.36 265.552C487.888 265.552 485.936 266 484.688 266.672L484.08 263.472C485.52 262.608 488.24 262 490.544 262ZM487.504 273.264C487.504 274.352 488.304 275.12 489.648 275.12C490.608 275.12 491.92 274.736 493.04 274.064V271.728C492.272 271.536 491.312 271.408 490.064 271.408C488.368 271.408 487.504 272.144 487.504 273.264ZM511.18 262C513.708 262 516.14 263.664 516.14 268.4V278H511.628V268.912C511.628 266.384 510.732 265.68 509.356 265.68C508.396 265.68 507.276 266.064 506.188 266.704V278H501.644V262.288L505.676 262L506.028 263.952C507.468 262.928 509.292 262 511.18 262ZM530.316 255.6L534.86 254.96V278H530.892L530.508 276.336C529.26 277.616 527.756 278.32 525.74 278.32C521.996 278.32 519.372 275.248 519.372 270.288C519.372 265.328 522.412 262 527.052 262C528.108 262 529.356 262.192 530.316 262.576V255.6ZM524.012 270.224C524.012 273.072 525.42 274.608 527.372 274.608C528.428 274.608 529.484 274.096 530.316 273.36V266.224C529.516 265.84 528.46 265.68 527.692 265.68C525.452 265.68 524.012 267.344 524.012 270.224ZM553.032 270.224L552.552 271.088H542.92C543.272 273.552 544.744 274.768 547.112 274.768C548.584 274.768 549.864 274.48 550.856 274L551.72 277.072C550.536 277.808 548.232 278.352 546.216 278.352C541.448 278.352 538.184 275.248 538.184 270.128C538.184 265.296 541.256 262 546.024 262C550.376 262 553.032 265.008 553.032 270.224ZM545.896 265.488C544.36 265.488 543.24 266.448 542.92 268.528H548.424C548.168 266.32 547.336 265.488 545.896 265.488ZM564.807 270.928L564.583 269.648C564.199 267.12 565.159 265.776 566.823 264.656L568.967 263.056C569.959 262.384 570.503 261.776 570.503 260.912C570.503 259.536 569.223 258.864 567.527 258.864C565.895 258.864 564.039 259.472 562.791 260.208L562.151 256.496C563.815 255.6 566.407 254.96 568.359 254.96C572.327 254.96 575.143 257.168 575.143 260.656C575.143 262.576 573.959 264.624 572.295 265.68L569.895 267.248C568.839 267.952 568.071 268.56 568.199 269.712L568.327 270.928H564.807ZM566.567 278.32C565.031 278.32 563.815 277.168 563.815 275.632C563.815 274.16 565.031 273.008 566.567 273.008C568.103 273.008 569.319 274.16 569.319 275.632C569.319 277.168 568.103 278.32 566.567 278.32Z" fill="#4E2705"/>
<path d="M1777.52 256.008C1777.32 255.874 1777.05 255.904 1776.88 256.08L1766 267.513L1755.14 256.081C1754.98 255.906 1754.71 255.874 1754.51 256.006L1753.73 256.515C1753.6 256.596 1753.52 256.728 1753.5 256.875C1753.49 257.023 1753.54 257.17 1753.64 257.278L1765.64 269.92C1765.73 270.019 1765.86 270.076 1766 270.075C1766.14 270.075 1766.27 270.019 1766.36 269.92L1778.36 257.269C1778.46 257.162 1778.51 257.016 1778.5 256.869C1778.48 256.722 1778.4 256.59 1778.28 256.509L1777.52 256.008Z" fill="#4E2705" stroke="#4E2705" stroke-linejoin="round"/>
<path d="M110 213H1810V209H110V213ZM1810 319H110V323H1810V319Z" fill="#4E2705" mask="url(#path-2-inside-1_751_311)"/>
<mask id="path-6-inside-2_751_311" fill="white">
<path d="M110 321H1810V431H110V321Z"/>
</mask>
<path d="M110 321H1810V431H110V321Z" fill="#FFF0E0"/>
<path d="M164.304 376.608C164.304 381.472 162.32 385.184 159.024 387.04L162 391.52L157.488 393.632L155.568 388.192C155.024 388.288 154.416 388.32 153.808 388.32C147.504 388.32 143.344 383.648 143.344 376.608C143.344 369.632 147.504 364.96 153.84 364.96C160.144 364.96 164.304 369.632 164.304 376.608ZM148.016 376.64C148.016 381.28 150.32 384.352 153.808 384.352C157.296 384.352 159.632 381.28 159.632 376.64C159.632 372 157.328 368.928 153.84 368.928C150.352 368.928 148.016 372 148.016 376.64ZM177.531 372.32H182.043V388H178.171L177.723 386.336C176.283 387.36 174.459 388.32 172.539 388.32C170.011 388.32 167.547 386.656 167.547 381.92V372.32H172.091V381.408C172.091 383.904 172.987 384.608 174.363 384.608C175.323 384.608 176.443 384.224 177.531 383.584V372.32ZM200.251 380.224L199.771 381.088H190.139C190.491 383.552 191.963 384.768 194.331 384.768C195.803 384.768 197.083 384.48 198.075 384L198.939 387.072C197.755 387.808 195.451 388.352 193.435 388.352C188.667 388.352 185.403 385.248 185.403 380.128C185.403 375.296 188.475 372 193.243 372C197.595 372 200.251 375.008 200.251 380.224ZM193.115 375.488C191.579 375.488 190.459 376.448 190.139 378.528H195.643C195.387 376.32 194.555 375.488 193.115 375.488ZM203.302 388V365.6L207.814 364.96V388H203.302ZM217.295 388.32C214.927 388.32 212.527 387.776 211.055 386.912L211.631 383.712C213.359 384.448 215.183 384.864 217.071 384.864C218.703 384.864 219.439 384.448 219.439 383.68C219.439 382.976 218.895 382.656 218.063 382.336L215.215 381.12C212.879 380.128 211.439 378.848 211.439 376.576C211.439 373.504 214.095 372 218.095 372C220.079 372 222.255 372.352 223.503 372.928L222.863 376.224C221.711 375.776 219.919 375.424 218.287 375.424C216.751 375.424 216.111 375.84 216.111 376.64C216.111 377.312 216.495 377.568 217.295 377.92L220.687 379.36C222.991 380.352 224.111 381.824 224.111 383.744C224.111 386.72 221.359 388.32 217.295 388.32ZM239.545 388.32C237.177 388.32 234.777 387.776 233.305 386.912L233.881 383.712C235.609 384.448 237.433 384.864 239.321 384.864C240.953 384.864 241.689 384.448 241.689 383.68C241.689 382.976 241.145 382.656 240.313 382.336L237.465 381.12C235.129 380.128 233.689 378.848 233.689 376.576C233.689 373.504 236.345 372 240.345 372C242.329 372 244.505 372.352 245.753 372.928L245.113 376.224C243.961 375.776 242.169 375.424 240.537 375.424C239.001 375.424 238.361 375.84 238.361 376.64C238.361 377.312 238.745 377.568 239.545 377.92L242.937 379.36C245.241 380.352 246.361 381.824 246.361 383.744C246.361 386.72 243.609 388.32 239.545 388.32ZM256.56 388.32C251.728 388.32 248.528 385.056 248.528 380.16C248.528 375.264 251.728 372 256.528 372C261.36 372 264.592 375.264 264.592 380.16C264.592 385.056 261.392 388.32 256.56 388.32ZM256.56 384.608C258.576 384.608 259.952 382.816 259.952 380.16C259.952 377.472 258.576 375.68 256.528 375.68C254.48 375.68 253.168 377.472 253.168 380.16C253.168 382.784 254.576 384.608 256.56 384.608ZM277.461 372C279.989 372 282.421 373.664 282.421 378.4V388H277.909V378.912C277.909 376.384 277.013 375.68 275.637 375.68C274.677 375.68 273.557 376.064 272.469 376.704V388H267.925V372.288L271.957 372L272.309 373.952C273.749 372.928 275.573 372 277.461 372ZM296.471 384.192L297.079 387.68C296.119 388.064 294.135 388.32 292.951 388.32C290.263 388.32 287.447 387.104 287.447 382.016V375.584H284.919V372.32H287.607L289.015 368.128H291.959V372.32H296.791V375.584H291.959V381.504C291.959 383.872 292.759 384.608 294.103 384.608C294.775 384.608 295.959 384.416 296.471 384.192ZM307.052 388V365.6L311.564 364.96V388H307.052ZM329.813 380.224L329.333 381.088H319.701C320.053 383.552 321.525 384.768 323.893 384.768C325.365 384.768 326.645 384.48 327.637 384L328.501 387.072C327.317 387.808 325.013 388.352 322.997 388.352C318.229 388.352 314.965 385.248 314.965 380.128C314.965 375.296 318.037 372 322.805 372C327.157 372 329.813 375.008 329.813 380.224ZM322.677 375.488C321.141 375.488 320.021 376.448 319.701 378.528H325.205C324.949 376.32 324.117 375.488 322.677 375.488ZM337.92 388.32C335.552 388.32 333.152 387.776 331.68 386.912L332.256 383.712C333.984 384.448 335.808 384.864 337.696 384.864C339.328 384.864 340.064 384.448 340.064 383.68C340.064 382.976 339.52 382.656 338.688 382.336L335.84 381.12C333.504 380.128 332.064 378.848 332.064 376.576C332.064 373.504 334.72 372 338.72 372C340.704 372 342.88 372.352 344.128 372.928L343.488 376.224C342.336 375.776 340.544 375.424 338.912 375.424C337.376 375.424 336.736 375.84 336.736 376.64C336.736 377.312 337.12 377.568 337.92 377.92L341.312 379.36C343.616 380.352 344.736 381.824 344.736 383.744C344.736 386.72 341.984 388.32 337.92 388.32ZM373.162 372C375.69 372 378.154 373.664 378.154 378.4V388H373.61V378.912C373.61 376.384 372.714 375.68 371.498 375.68C370.602 375.68 369.642 376.192 368.778 376.864C368.842 377.344 368.874 377.856 368.874 378.4V388H364.33V378.912C364.33 376.384 363.466 375.68 362.218 375.68C361.354 375.68 360.426 376.16 359.594 376.8V388H355.05V372.288L359.082 372L359.434 373.888C360.65 372.896 362.026 372 363.882 372C365.482 372 367.082 372.672 368.01 374.4C369.386 373.216 371.05 372 373.162 372ZM389.341 388.32C384.509 388.32 381.309 385.056 381.309 380.16C381.309 375.264 384.509 372 389.309 372C394.141 372 397.373 375.264 397.373 380.16C397.373 385.056 394.173 388.32 389.341 388.32ZM389.341 384.608C391.357 384.608 392.733 382.816 392.733 380.16C392.733 377.472 391.357 375.68 389.309 375.68C387.261 375.68 385.949 377.472 385.949 380.16C385.949 382.784 387.357 384.608 389.341 384.608ZM410.723 365.6L415.267 364.96V388H411.299L410.915 386.336C409.667 387.616 408.163 388.32 406.147 388.32C402.403 388.32 399.779 385.248 399.779 380.288C399.779 375.328 402.819 372 407.459 372C408.515 372 409.763 372.192 410.723 372.576V365.6ZM404.419 380.224C404.419 383.072 405.827 384.608 407.779 384.608C408.835 384.608 409.891 384.096 410.723 383.36V376.224C409.923 375.84 408.867 375.68 408.099 375.68C405.859 375.68 404.419 377.344 404.419 380.224ZM433.438 380.224L432.958 381.088H423.326C423.678 383.552 425.15 384.768 427.518 384.768C428.99 384.768 430.27 384.48 431.262 384L432.126 387.072C430.942 387.808 428.638 388.352 426.622 388.352C421.854 388.352 418.59 385.248 418.59 380.128C418.59 375.296 421.662 372 426.43 372C430.782 372 433.438 375.008 433.438 380.224ZM426.302 375.488C424.766 375.488 423.646 376.448 423.326 378.528H428.83C428.574 376.32 427.742 375.488 426.302 375.488ZM441.545 388.32C439.177 388.32 436.777 387.776 435.305 386.912L435.881 383.712C437.609 384.448 439.433 384.864 441.321 384.864C442.953 384.864 443.689 384.448 443.689 383.68C443.689 382.976 443.145 382.656 442.313 382.336L439.465 381.12C437.129 380.128 435.689 378.848 435.689 376.576C435.689 373.504 438.345 372 442.345 372C444.329 372 446.505 372.352 447.753 372.928L447.113 376.224C445.961 375.776 444.169 375.424 442.537 375.424C441.001 375.424 440.361 375.84 440.361 376.64C440.361 377.312 440.745 377.568 441.545 377.92L444.937 379.36C447.241 380.352 448.361 381.824 448.361 383.744C448.361 386.72 445.609 388.32 441.545 388.32ZM468.691 365.6L473.235 364.96V388H469.267L468.883 386.336C467.635 387.616 466.131 388.32 464.115 388.32C460.371 388.32 457.747 385.248 457.747 380.288C457.747 375.328 460.787 372 465.427 372C466.483 372 467.731 372.192 468.691 372.576V365.6ZM462.387 380.224C462.387 383.072 463.795 384.608 465.747 384.608C466.803 384.608 467.859 384.096 468.691 383.36V376.224C467.891 375.84 466.835 375.68 466.067 375.68C463.827 375.68 462.387 377.344 462.387 380.224ZM491.407 380.224L490.927 381.088H481.295C481.647 383.552 483.119 384.768 485.487 384.768C486.959 384.768 488.239 384.48 489.231 384L490.095 387.072C488.911 387.808 486.607 388.352 484.591 388.352C479.823 388.352 476.559 385.248 476.559 380.128C476.559 375.296 479.631 372 484.399 372C488.751 372 491.407 375.008 491.407 380.224ZM484.271 375.488C482.735 375.488 481.615 376.448 481.295 378.528H486.799C486.543 376.32 485.711 375.488 484.271 375.488ZM510.702 372C514.446 372 517.069 375.04 517.069 380C517.069 384.992 514.03 388.32 509.39 388.32C508.334 388.32 507.054 388.128 506.126 387.744V394.208H501.582V372.32H505.582L505.966 373.984C507.246 372.704 508.942 372 510.702 372ZM508.75 384.608C510.99 384.608 512.462 382.976 512.462 380.096C512.462 377.248 511.022 375.68 509.102 375.68C508.014 375.68 506.958 376.192 506.126 376.928V384.096C506.926 384.448 507.982 384.608 508.75 384.608ZM526.825 372C531.369 372 533.865 374.816 533.865 379.04V388H529.865L529.449 386.048C528.073 387.424 525.961 388.32 524.041 388.32C521.225 388.32 519.145 386.304 519.145 383.616C519.145 380.544 521.865 378.944 525.353 378.944C526.697 378.944 528.297 379.136 529.321 379.36V378.752C529.321 376.864 528.041 375.552 525.641 375.552C524.169 375.552 522.217 376 520.969 376.672L520.361 373.472C521.801 372.608 524.521 372 526.825 372ZM523.785 383.264C523.785 384.352 524.585 385.12 525.929 385.12C526.889 385.12 528.201 384.736 529.321 384.064V381.728C528.553 381.536 527.593 381.408 526.345 381.408C524.649 381.408 523.785 382.144 523.785 383.264ZM540.229 369.792C538.661 369.792 537.509 368.768 537.509 367.36C537.509 365.984 538.661 364.96 540.229 364.96C541.829 364.96 542.981 365.984 542.981 367.36C542.981 368.768 541.829 369.792 540.229 369.792ZM537.989 388V372.64L542.501 372V388H537.989ZM564.975 372C567.503 372 569.967 373.664 569.967 378.4V388H565.423V378.912C565.423 376.384 564.527 375.68 563.311 375.68C562.415 375.68 561.455 376.192 560.591 376.864C560.655 377.344 560.687 377.856 560.687 378.4V388H556.143V378.912C556.143 376.384 555.279 375.68 554.031 375.68C553.167 375.68 552.239 376.16 551.407 376.8V388H546.863V372.288L550.895 372L551.247 373.888C552.463 372.896 553.839 372 555.695 372C557.295 372 558.895 372.672 559.823 374.4C561.199 373.216 562.863 372 564.975 372ZM587.97 380.224L587.49 381.088H577.858C578.21 383.552 579.682 384.768 582.05 384.768C583.522 384.768 584.802 384.48 585.794 384L586.658 387.072C585.474 387.808 583.17 388.352 581.154 388.352C576.386 388.352 573.122 385.248 573.122 380.128C573.122 375.296 576.194 372 580.962 372C585.314 372 587.97 375.008 587.97 380.224ZM580.834 375.488C579.298 375.488 578.178 376.448 577.858 378.528H583.362C583.106 376.32 582.274 375.488 580.834 375.488ZM600.493 372C603.021 372 605.453 373.664 605.453 378.4V388H600.941V378.912C600.941 376.384 600.045 375.68 598.669 375.68C597.709 375.68 596.589 376.064 595.501 376.704V388H590.957V372.288L594.989 372L595.341 373.952C596.781 372.928 598.605 372 600.493 372ZM619.502 384.192L620.11 387.68C619.15 388.064 617.166 388.32 615.982 388.32C613.294 388.32 610.478 387.104 610.478 382.016V375.584H607.95V372.32H610.638L612.046 368.128H614.99V372.32H619.822V375.584H614.99V381.504C614.99 383.872 615.79 384.608 617.134 384.608C617.806 384.608 618.99 384.416 619.502 384.192ZM627.952 388.32C625.584 388.32 623.184 387.776 621.712 386.912L622.288 383.712C624.016 384.448 625.84 384.864 627.728 384.864C629.36 384.864 630.095 384.448 630.095 383.68C630.095 382.976 629.552 382.656 628.72 382.336L625.872 381.12C623.536 380.128 622.096 378.848 622.096 376.576C622.096 373.504 624.752 372 628.752 372C630.736 372 632.912 372.352 634.16 372.928L633.52 376.224C632.368 375.776 630.576 375.424 628.944 375.424C627.408 375.424 626.768 375.84 626.768 376.64C626.768 377.312 627.152 377.568 627.952 377.92L631.344 379.36C633.648 380.352 634.768 381.824 634.768 383.744C634.768 386.72 632.016 388.32 627.952 388.32ZM646.682 380.928L646.458 379.648C646.074 377.12 647.034 375.776 648.698 374.656L650.842 373.056C651.834 372.384 652.378 371.776 652.378 370.912C652.378 369.536 651.098 368.864 649.402 368.864C647.77 368.864 645.914 369.472 644.666 370.208L644.026 366.496C645.69 365.6 648.282 364.96 650.234 364.96C654.202 364.96 657.018 367.168 657.018 370.656C657.018 372.576 655.834 374.624 654.17 375.68L651.77 377.248C650.714 377.952 649.946 378.56 650.074 379.712L650.202 380.928H646.682ZM648.442 388.32C646.906 388.32 645.69 387.168 645.69 385.632C645.69 384.16 646.906 383.008 648.442 383.008C649.978 383.008 651.194 384.16 651.194 385.632C651.194 387.168 649.978 388.32 648.442 388.32Z" fill="#4E2705"/>
<path d="M1777.52 366.008C1777.32 365.874 1777.05 365.904 1776.88 366.08L1766 377.513L1755.14 366.081C1754.98 365.906 1754.71 365.874 1754.51 366.006L1753.73 366.515C1753.6 366.596 1753.52 366.728 1753.5 366.875C1753.49 367.023 1753.54 367.17 1753.64 367.278L1765.64 379.92C1765.73 380.019 1765.86 380.076 1766 380.075C1766.14 380.075 1766.27 380.019 1766.36 379.92L1778.36 367.269C1778.46 367.162 1778.51 367.016 1778.5 366.869C1778.48 366.722 1778.4 366.59 1778.28 366.509L1777.52 366.008Z" fill="#4E2705" stroke="#4E2705" stroke-linejoin="round"/>
<path d="M1810 429H110V433H1810V429Z" fill="#4E2705" mask="url(#path-6-inside-2_751_311)"/>
<mask id="path-10-inside-3_751_311" fill="white">
<path d="M110 431H1810V541H110V431Z"/>
</mask>
<path d="M110 431H1810V541H110V431Z" fill="#FFF0E0"/>
<path d="M154.8 498.32C147.856 498.32 143.312 493.648 143.312 486.64C143.312 479.632 147.856 474.96 154.8 474.96C156.88 474.96 159.312 475.408 160.912 476.048L160.272 479.76C158.96 479.248 157.072 478.928 155.536 478.928C151.024 478.928 147.984 481.808 147.984 486.64C147.984 491.472 151.024 494.352 155.536 494.352C157.104 494.352 158.96 494.032 160.24 493.552L160.912 497.232C159.312 497.872 156.88 498.32 154.8 498.32ZM170.591 498.32C165.759 498.32 162.559 495.056 162.559 490.16C162.559 485.264 165.759 482 170.559 482C175.391 482 178.623 485.264 178.623 490.16C178.623 495.056 175.423 498.32 170.591 498.32ZM170.591 494.608C172.607 494.608 173.983 492.816 173.983 490.16C173.983 487.472 172.607 485.68 170.559 485.68C168.511 485.68 167.199 487.472 167.199 490.16C167.199 492.784 168.607 494.608 170.591 494.608ZM200.069 482C202.597 482 205.061 483.664 205.061 488.4V498H200.517V488.912C200.517 486.384 199.621 485.68 198.405 485.68C197.509 485.68 196.549 486.192 195.685 486.864C195.749 487.344 195.781 487.856 195.781 488.4V498H191.237V488.912C191.237 486.384 190.373 485.68 189.125 485.68C188.26 485.68 187.333 486.16 186.501 486.8V498H181.957V482.288L185.989 482L186.341 483.888C187.557 482.896 188.933 482 190.789 482C192.389 482 193.989 482.672 194.917 484.4C196.293 483.216 197.957 482 200.069 482ZM227.287 482C229.815 482 232.279 483.664 232.279 488.4V498H227.735V488.912C227.735 486.384 226.839 485.68 225.623 485.68C224.727 485.68 223.767 486.192 222.903 486.864C222.967 487.344 222.999 487.856 222.999 488.4V498H218.455V488.912C218.455 486.384 217.591 485.68 216.343 485.68C215.479 485.68 214.551 486.16 213.719 486.8V498H209.175V482.288L213.207 482L213.559 483.888C214.775 482.896 216.151 482 218.007 482C219.607 482 221.207 482.672 222.135 484.4C223.511 483.216 225.175 482 227.287 482ZM250.282 490.224L249.802 491.088H240.17C240.522 493.552 241.994 494.768 244.362 494.768C245.834 494.768 247.114 494.48 248.106 494L248.97 497.072C247.786 497.808 245.482 498.352 243.466 498.352C238.698 498.352 235.434 495.248 235.434 490.128C235.434 485.296 238.506 482 243.274 482C247.626 482 250.282 485.008 250.282 490.224ZM243.146 485.488C241.61 485.488 240.49 486.448 240.17 488.528H245.674C245.418 486.32 244.586 485.488 243.146 485.488ZM262.805 482C265.333 482 267.765 483.664 267.765 488.4V498H263.253V488.912C263.253 486.384 262.357 485.68 260.981 485.68C260.021 485.68 258.901 486.064 257.813 486.704V498H253.269V482.288L257.301 482L257.653 483.952C259.093 482.928 260.917 482 262.805 482ZM281.815 494.192L282.423 497.68C281.463 498.064 279.479 498.32 278.295 498.32C275.607 498.32 272.791 497.104 272.791 492.016V485.584H270.263V482.32H272.951L274.359 478.128H277.303V482.32H282.135V485.584H277.303V491.504C277.303 493.872 278.103 494.608 279.447 494.608C280.119 494.608 281.303 494.416 281.815 494.192ZM301.979 482.32H307.003L300.507 498H296.187L289.691 482.32H294.715L298.331 492.752L301.979 482.32ZM315.263 482C319.807 482 322.303 484.816 322.303 489.04V498H318.303L317.887 496.048C316.511 497.424 314.399 498.32 312.479 498.32C309.663 498.32 307.583 496.304 307.583 493.616C307.583 490.544 310.303 488.944 313.791 488.944C315.135 488.944 316.735 489.136 317.759 489.36V488.752C317.759 486.864 316.479 485.552 314.079 485.552C312.607 485.552 310.655 486 309.407 486.672L308.799 483.472C310.239 482.608 312.959 482 315.263 482ZM312.223 493.264C312.223 494.352 313.023 495.12 314.367 495.12C315.327 495.12 316.639 494.736 317.759 494.064V491.728C316.991 491.536 316.031 491.408 314.783 491.408C313.087 491.408 312.223 492.144 312.223 493.264ZM328.667 479.792C327.099 479.792 325.947 478.768 325.947 477.36C325.947 475.984 327.099 474.96 328.667 474.96C330.267 474.96 331.419 475.984 331.419 477.36C331.419 478.768 330.267 479.792 328.667 479.792ZM326.427 498V482.64L330.939 482V498H326.427ZM340.42 498.32C338.052 498.32 335.652 497.776 334.18 496.912L334.756 493.712C336.484 494.448 338.308 494.864 340.196 494.864C341.828 494.864 342.564 494.448 342.564 493.68C342.564 492.976 342.02 492.656 341.188 492.336L338.34 491.12C336.004 490.128 334.564 488.848 334.564 486.576C334.564 483.504 337.22 482 341.22 482C343.204 482 345.38 482.352 346.628 482.928L345.988 486.224C344.836 485.776 343.044 485.424 341.412 485.424C339.876 485.424 339.236 485.84 339.236 486.64C339.236 487.312 339.62 487.568 340.42 487.92L343.812 489.36C346.116 490.352 347.236 491.824 347.236 493.744C347.236 496.72 344.484 498.32 340.42 498.32ZM350.107 488.4H360.347V491.44H350.107V488.4ZM366.985 479.792C365.385 479.792 364.233 478.768 364.233 477.36C364.233 475.984 365.385 474.96 366.985 474.96C368.585 474.96 369.737 475.984 369.737 477.36C369.737 478.768 368.585 479.792 366.985 479.792ZM361.225 504.528L360.617 500.88C363.209 500.88 364.681 499.216 364.713 496.4V482.64L369.225 482V496.496C369.225 502.032 365.705 504.528 361.225 504.528ZM387.47 490.224L386.99 491.088H377.358C377.71 493.552 379.182 494.768 381.55 494.768C383.022 494.768 384.302 494.48 385.294 494L386.158 497.072C384.974 497.808 382.67 498.352 380.654 498.352C375.886 498.352 372.622 495.248 372.622 490.128C372.622 485.296 375.694 482 380.462 482C384.814 482 387.47 485.008 387.47 490.224ZM380.334 485.488C378.798 485.488 377.678 486.448 377.358 488.528H382.862C382.606 486.32 381.774 485.488 380.334 485.488ZM406.572 482C407.404 482 408.524 482.32 409.068 482.8L408.364 486.928L408.236 487.024C407.692 486.576 406.668 486.256 405.708 486.256C404.524 486.256 403.212 486.832 402.188 487.696V498H397.644V482.288L401.676 482L402.188 485.2C403.372 483.28 404.844 482 406.572 482ZM425.095 490.224L424.615 491.088H414.983C415.335 493.552 416.807 494.768 419.175 494.768C420.647 494.768 421.927 494.48 422.919 494L423.783 497.072C422.599 497.808 420.295 498.352 418.279 498.352C413.511 498.352 410.247 495.248 410.247 490.128C410.247 485.296 413.319 482 418.087 482C422.439 482 425.095 485.008 425.095 490.224ZM417.959 485.488C416.423 485.488 415.303 486.448 414.983 488.528H420.487C420.231 486.32 419.399 485.488 417.959 485.488ZM435.378 498.32H435.282L434.738 499.504C436.018 499.952 437.01 500.688 437.01 501.84C437.01 503.504 435.41 504.464 433.49 504.464C432.434 504.464 431.154 504.208 430.418 503.824L431.186 502.032C431.73 502.288 432.242 502.416 432.69 502.416C433.266 502.416 433.714 502.192 433.714 501.776C433.714 501.264 433.266 500.944 432.082 500.496L432.05 500.144L433.042 498.064C429.426 497.168 427.09 494.256 427.09 490.16C427.09 485.296 430.418 482 435.058 482C437.33 482 439.666 482.736 440.818 483.792L439.026 486.672C438.258 486.064 436.882 485.712 435.602 485.712C433.266 485.712 431.762 487.44 431.762 490.064C431.762 492.784 433.458 494.608 436.306 494.608C437.522 494.608 439.026 494.288 439.89 493.808L440.53 497.264C439.25 497.872 437.202 498.32 435.378 498.32ZM457.282 490.224L456.802 491.088H447.17C447.522 493.552 448.994 494.768 451.362 494.768C452.834 494.768 454.114 494.48 455.106 494L455.97 497.072C454.786 497.808 452.482 498.352 450.466 498.352C445.698 498.352 442.434 495.248 442.434 490.128C442.434 485.296 445.506 482 450.274 482C454.626 482 457.282 485.008 457.282 490.224ZM450.146 485.488C448.61 485.488 447.49 486.448 447.17 488.528H452.674C452.418 486.32 451.586 485.488 450.146 485.488ZM470.166 482.32H475.19L468.694 498H464.374L457.878 482.32H462.902L466.518 492.752L470.166 482.32ZM484.122 498.32C479.29 498.32 476.09 495.056 476.09 490.16C476.09 485.264 479.29 482 484.09 482C488.922 482 492.154 485.264 492.154 490.16C492.154 495.056 488.954 498.32 484.122 498.32ZM484.122 494.608C486.138 494.608 487.514 492.816 487.514 490.16C487.514 487.472 486.138 485.68 484.09 485.68C482.042 485.68 480.73 487.472 480.73 490.16C480.73 492.784 482.138 494.608 484.122 494.608ZM497.792 479.792C496.224 479.792 495.072 478.768 495.072 477.36C495.072 475.984 496.224 474.96 497.792 474.96C499.392 474.96 500.544 475.984 500.544 477.36C500.544 478.768 499.392 479.792 497.792 479.792ZM495.552 498V482.64L500.064 482V498H495.552ZM513.353 482C514.185 482 515.305 482.32 515.849 482.8L515.145 486.928L515.017 487.024C514.473 486.576 513.449 486.256 512.489 486.256C511.305 486.256 509.993 486.832 508.969 487.696V498H504.425V482.288L508.457 482L508.969 485.2C510.153 483.28 511.625 482 513.353 482ZM542.819 482C545.347 482 547.811 483.664 547.811 488.4V498H543.267V488.912C543.267 486.384 542.371 485.68 541.155 485.68C540.259 485.68 539.299 486.192 538.435 486.864C538.499 487.344 538.531 487.856 538.531 488.4V498H533.987V488.912C533.987 486.384 533.123 485.68 531.875 485.68C531.01 485.68 530.083 486.16 529.251 486.8V498H524.707V482.288L528.739 482L529.091 483.888C530.307 482.896 531.683 482 533.539 482C535.139 482 536.739 482.672 537.667 484.4C539.043 483.216 540.707 482 542.819 482ZM558.325 482C562.869 482 565.365 484.816 565.365 489.04V498H561.365L560.949 496.048C559.573 497.424 557.461 498.32 555.541 498.32C552.725 498.32 550.645 496.304 550.645 493.616C550.645 490.544 553.365 488.944 556.853 488.944C558.197 488.944 559.797 489.136 560.821 489.36V488.752C560.821 486.864 559.541 485.552 557.141 485.552C555.669 485.552 553.717 486 552.469 486.672L551.861 483.472C553.301 482.608 556.021 482 558.325 482ZM555.285 493.264C555.285 494.352 556.085 495.12 557.429 495.12C558.389 495.12 559.701 494.736 560.821 494.064V491.728C560.053 491.536 559.093 491.408 557.845 491.408C556.149 491.408 555.285 492.144 555.285 493.264ZM583.909 498.32C579.013 498.32 575.621 495.088 575.621 490.16C575.621 485.296 578.949 482 583.589 482C585.861 482 588.197 482.736 589.349 483.792L587.557 486.672C586.789 486.064 585.413 485.712 584.133 485.712C581.797 485.712 580.293 487.44 580.293 490.064C580.293 492.784 581.989 494.608 584.837 494.608C586.053 494.608 587.557 494.288 588.421 493.808L589.061 497.264C587.781 497.872 585.733 498.32 583.909 498.32ZM598.997 498.32C594.165 498.32 590.965 495.056 590.965 490.16C590.965 485.264 594.165 482 598.965 482C603.797 482 607.029 485.264 607.029 490.16C607.029 495.056 603.829 498.32 598.997 498.32ZM598.997 494.608C601.013 494.608 602.389 492.816 602.389 490.16C602.389 487.472 601.013 485.68 598.965 485.68C596.917 485.68 595.605 487.472 595.605 490.16C595.605 492.784 597.013 494.608 598.997 494.608ZM628.475 482C631.003 482 633.467 483.664 633.467 488.4V498H628.923V488.912C628.923 486.384 628.027 485.68 626.811 485.68C625.915 485.68 624.955 486.192 624.091 486.864C624.155 487.344 624.187 487.856 624.187 488.4V498H619.643V488.912C619.643 486.384 618.779 485.68 617.531 485.68C616.667 485.68 615.739 486.16 614.907 486.8V498H610.363V482.288L614.395 482L614.747 483.888C615.963 482.896 617.339 482 619.195 482C620.795 482 622.395 482.672 623.323 484.4C624.699 483.216 626.363 482 628.475 482ZM655.694 482C658.222 482 660.686 483.664 660.686 488.4V498H656.142V488.912C656.142 486.384 655.246 485.68 654.03 485.68C653.134 485.68 652.174 486.192 651.31 486.864C651.374 487.344 651.406 487.856 651.406 488.4V498H646.862V488.912C646.862 486.384 645.998 485.68 644.75 485.68C643.885 485.68 642.958 486.16 642.126 486.8V498H637.582V482.288L641.614 482L641.966 483.888C643.182 482.896 644.558 482 646.414 482C648.014 482 649.614 482.672 650.542 484.4C651.918 483.216 653.582 482 655.694 482ZM671.2 482C675.744 482 678.24 484.816 678.24 489.04V498H674.24L673.824 496.048C672.448 497.424 670.336 498.32 668.416 498.32C665.6 498.32 663.52 496.304 663.52 493.616C663.52 490.544 666.24 488.944 669.728 488.944C671.072 488.944 672.672 489.136 673.696 489.36V488.752C673.696 486.864 672.416 485.552 670.016 485.552C668.544 485.552 666.592 486 665.344 486.672L664.736 483.472C666.176 482.608 668.896 482 671.2 482ZM668.16 493.264C668.16 494.352 668.96 495.12 670.304 495.12C671.264 495.12 672.576 494.736 673.696 494.064V491.728C672.928 491.536 671.968 491.408 670.72 491.408C669.024 491.408 668.16 492.144 668.16 493.264ZM691.836 482C694.364 482 696.796 483.664 696.796 488.4V498H692.284V488.912C692.284 486.384 691.388 485.68 690.012 485.68C689.052 485.68 687.932 486.064 686.844 486.704V498H682.3V482.288L686.332 482L686.684 483.952C688.124 482.928 689.948 482 691.836 482ZM710.973 475.6L715.517 474.96V498H711.549L711.165 496.336C709.917 497.616 708.413 498.32 706.397 498.32C702.653 498.32 700.029 495.248 700.029 490.288C700.029 485.328 703.069 482 707.709 482C708.765 482 710.013 482.192 710.973 482.576V475.6ZM704.669 490.224C704.669 493.072 706.077 494.608 708.029 494.608C709.085 494.608 710.141 494.096 710.973 493.36V486.224C710.173 485.84 709.117 485.68 708.349 485.68C706.109 485.68 704.669 487.344 704.669 490.224ZM733.688 490.224L733.208 491.088H723.576C723.928 493.552 725.4 494.768 727.768 494.768C729.24 494.768 730.52 494.48 731.512 494L732.376 497.072C731.192 497.808 728.888 498.352 726.872 498.352C722.104 498.352 718.84 495.248 718.84 490.128C718.84 485.296 721.912 482 726.68 482C731.032 482 733.688 485.008 733.688 490.224ZM726.552 485.488C725.016 485.488 723.896 486.448 723.576 488.528H729.08C728.824 486.32 727.992 485.488 726.552 485.488ZM745.463 490.928L745.239 489.648C744.855 487.12 745.815 485.776 747.479 484.656L749.623 483.056C750.615 482.384 751.159 481.776 751.159 480.912C751.159 479.536 749.879 478.864 748.183 478.864C746.551 478.864 744.695 479.472 743.447 480.208L742.807 476.496C744.471 475.6 747.063 474.96 749.015 474.96C752.983 474.96 755.799 477.168 755.799 480.656C755.799 482.576 754.615 484.624 752.951 485.68L750.551 487.248C749.495 487.952 748.727 488.56 748.855 489.712L748.983 490.928H745.463ZM747.223 498.32C745.687 498.32 744.471 497.168 744.471 495.632C744.471 494.16 745.687 493.008 747.223 493.008C748.759 493.008 749.975 494.16 749.975 495.632C749.975 497.168 748.759 498.32 747.223 498.32Z" fill="#4E2705"/>
<path d="M1777.52 476.008C1777.32 475.874 1777.05 475.904 1776.88 476.08L1766 487.513L1755.14 476.081C1754.98 475.906 1754.71 475.874 1754.51 476.006L1753.73 476.515C1753.6 476.596 1753.52 476.728 1753.5 476.875C1753.49 477.023 1753.54 477.17 1753.64 477.278L1765.64 489.92C1765.73 490.019 1765.86 490.076 1766 490.075C1766.14 490.075 1766.27 490.019 1766.36 489.92L1778.36 477.269C1778.46 477.162 1778.51 477.016 1778.5 476.869C1778.48 476.722 1778.4 476.59 1778.28 476.509L1777.52 476.008Z" fill="#4E2705" stroke="#4E2705" stroke-linejoin="round"/>
<path d="M1810 539H110V543H1810V539Z" fill="#4E2705" mask="url(#path-10-inside-3_751_311)"/>
<rect width="1920" height="289" transform="translate(0 658)" fill="#301702"/>
<path d="M561.773 754V715.66H569.441V754H561.773ZM607.613 727C611.879 727 616.037 729.808 616.037 737.8V754H608.369V738.664C608.369 734.398 606.857 733.21 604.805 733.21C603.293 733.21 601.673 734.074 600.215 735.208C600.323 736.018 600.377 736.882 600.377 737.8V754H592.709V738.664C592.709 734.398 591.251 733.21 589.145 733.21C587.687 733.21 586.121 734.02 584.717 735.1V754H577.049V727.486L583.853 727L584.447 730.186C586.499 728.512 588.821 727 591.953 727C594.653 727 597.353 728.134 598.919 731.05C601.241 729.052 604.049 727 607.613 727ZM638.37 727C644.688 727 649.116 732.13 649.116 740.5C649.116 748.924 643.986 754.54 636.156 754.54C634.374 754.54 632.214 754.216 630.648 753.568V764.476H622.98V727.54H629.73L630.378 730.348C632.538 728.188 635.4 727 638.37 727ZM635.076 748.276C638.856 748.276 641.34 745.522 641.34 740.662C641.34 735.856 638.91 733.21 635.67 733.21C633.834 733.21 632.052 734.074 630.648 735.316V747.412C631.998 748.006 633.78 748.276 635.076 748.276ZM669.845 727C671.249 727 673.139 727.54 674.057 728.35L672.869 735.316L672.653 735.478C671.735 734.722 670.007 734.182 668.387 734.182C666.389 734.182 664.175 735.154 662.447 736.612V754H654.779V727.486L661.583 727L662.447 732.4C664.445 729.16 666.929 727 669.845 727ZM701.102 740.878L700.292 742.336H684.038C684.632 746.494 687.116 748.546 691.112 748.546C693.596 748.546 695.756 748.06 697.43 747.25L698.888 752.434C696.89 753.676 693.002 754.594 689.6 754.594C681.554 754.594 676.046 749.356 676.046 740.716C676.046 732.562 681.23 727 689.276 727C696.62 727 701.102 732.076 701.102 740.878ZM689.06 732.886C686.468 732.886 684.578 734.506 684.038 738.016H693.326C692.894 734.29 691.49 732.886 689.06 732.886ZM714.782 754.54C710.786 754.54 706.736 753.622 704.252 752.164L705.224 746.764C708.14 748.006 711.218 748.708 714.404 748.708C717.158 748.708 718.4 748.006 718.4 746.71C718.4 745.522 717.482 744.982 716.078 744.442L711.272 742.39C707.33 740.716 704.9 738.556 704.9 734.722C704.9 729.538 709.382 727 716.132 727C719.48 727 723.152 727.594 725.258 728.566L724.178 734.128C722.234 733.372 719.21 732.778 716.456 732.778C713.864 732.778 712.784 733.48 712.784 734.83C712.784 735.964 713.432 736.396 714.782 736.99L720.506 739.42C724.394 741.094 726.284 743.578 726.284 746.818C726.284 751.84 721.64 754.54 714.782 754.54ZM740.2 754.54C736.204 754.54 732.154 753.622 729.67 752.164L730.642 746.764C733.558 748.006 736.636 748.708 739.822 748.708C742.576 748.708 743.818 748.006 743.818 746.71C743.818 745.522 742.9 744.982 741.496 744.442L736.69 742.39C732.748 740.716 730.318 738.556 730.318 734.722C730.318 729.538 734.8 727 741.55 727C744.898 727 748.57 727.594 750.676 728.566L749.596 734.128C747.652 733.372 744.628 732.778 741.874 732.778C739.282 732.778 738.202 733.48 738.202 734.83C738.202 735.964 738.85 736.396 740.2 736.99L745.924 739.42C749.812 741.094 751.702 743.578 751.702 746.818C751.702 751.84 747.058 754.54 740.2 754.54ZM760.866 723.274C758.22 723.274 756.276 721.546 756.276 719.17C756.276 716.848 758.22 715.12 760.866 715.12C763.566 715.12 765.51 716.848 765.51 719.17C765.51 721.546 763.566 723.274 760.866 723.274ZM757.086 754V728.08L764.7 727V754H757.086ZM783.994 754.54C775.84 754.54 770.44 749.032 770.44 740.77C770.44 732.508 775.84 727 783.94 727C792.094 727 797.548 732.508 797.548 740.77C797.548 749.032 792.148 754.54 783.994 754.54ZM783.994 748.276C787.396 748.276 789.718 745.252 789.718 740.77C789.718 736.234 787.396 733.21 783.94 733.21C780.484 733.21 778.27 736.234 778.27 740.77C778.27 745.198 780.646 748.276 783.994 748.276ZM819.266 727C823.532 727 827.636 729.808 827.636 737.8V754H820.022V738.664C820.022 734.398 818.51 733.21 816.188 733.21C814.568 733.21 812.678 733.858 810.842 734.938V754H803.174V727.486L809.978 727L810.572 730.294C813.002 728.566 816.08 727 819.266 727ZM850.748 727C855.014 727 859.118 729.808 859.118 737.8V754H851.504V738.664C851.504 734.398 849.992 733.21 847.67 733.21C846.05 733.21 844.16 733.858 842.324 734.938V754H834.656V727.486L841.46 727L842.054 730.294C844.484 728.566 847.562 727 850.748 727ZM889.575 740.878L888.765 742.336H872.511C873.105 746.494 875.589 748.546 879.585 748.546C882.069 748.546 884.229 748.06 885.903 747.25L887.361 752.434C885.363 753.676 881.475 754.594 878.073 754.594C870.027 754.594 864.519 749.356 864.519 740.716C864.519 732.562 869.703 727 877.749 727C885.093 727 889.575 732.076 889.575 740.878ZM877.533 732.886C874.941 732.886 873.051 734.506 872.511 738.016H881.799C881.367 734.29 879.963 732.886 877.533 732.886ZM902.877 747.736H916.809V754H893.643L892.617 748.708L905.901 733.75H893.535V727.54H915.621L916.701 732.724L902.877 747.736ZM949.872 727C956.19 727 960.618 732.13 960.618 740.5C960.618 748.924 955.488 754.54 947.658 754.54C945.876 754.54 943.716 754.216 942.15 753.568V764.476H934.482V727.54H941.232L941.88 730.348C944.04 728.188 946.902 727 949.872 727ZM946.578 748.276C950.358 748.276 952.842 745.522 952.842 740.662C952.842 735.856 950.412 733.21 947.172 733.21C945.336 733.21 943.554 734.074 942.15 735.316V747.412C943.5 748.006 945.282 748.276 946.578 748.276ZM977.081 727C984.749 727 988.961 731.752 988.961 738.88V754H982.211L981.509 750.706C979.187 753.028 975.623 754.54 972.383 754.54C967.631 754.54 964.121 751.138 964.121 746.602C964.121 741.418 968.711 738.718 974.597 738.718C976.865 738.718 979.565 739.042 981.293 739.42V738.394C981.293 735.208 979.133 732.994 975.083 732.994C972.599 732.994 969.305 733.75 967.199 734.884L966.173 729.484C968.603 728.026 973.193 727 977.081 727ZM971.951 746.008C971.951 747.844 973.301 749.14 975.569 749.14C977.189 749.14 979.403 748.492 981.293 747.358V743.416C979.997 743.092 978.377 742.876 976.271 742.876C973.409 742.876 971.951 744.118 971.951 746.008ZM1010.88 727C1012.28 727 1014.17 727.54 1015.09 728.35L1013.9 735.316L1013.69 735.478C1012.77 734.722 1011.04 734.182 1009.42 734.182C1007.42 734.182 1005.21 735.154 1003.48 736.612V754H995.812V727.486L1002.62 727L1003.48 732.4C1005.48 729.16 1007.96 727 1010.88 727ZM1046.13 727C1050.39 727 1054.5 729.808 1054.5 737.8V754H1046.88V738.664C1046.88 734.398 1045.37 733.21 1043.05 733.21C1041.43 733.21 1039.54 733.858 1037.7 734.938V754H1030.04V727.486L1036.84 727L1037.43 730.294C1039.86 728.566 1042.94 727 1046.13 727ZM1073.45 754.54C1065.3 754.54 1059.9 749.032 1059.9 740.77C1059.9 732.508 1065.3 727 1073.4 727C1081.55 727 1087.01 732.508 1087.01 740.77C1087.01 749.032 1081.61 754.54 1073.45 754.54ZM1073.45 748.276C1076.86 748.276 1079.18 745.252 1079.18 740.77C1079.18 736.234 1076.86 733.21 1073.4 733.21C1069.94 733.21 1067.73 736.234 1067.73 740.77C1067.73 745.198 1070.11 748.276 1073.45 748.276ZM1109.06 747.574L1110.08 753.46C1108.46 754.108 1105.12 754.54 1103.12 754.54C1098.58 754.54 1093.83 752.488 1093.83 743.902V733.048H1089.56V727.54H1094.1L1096.48 720.466H1101.44V727.54H1109.6V733.048H1101.44V743.038C1101.44 747.034 1102.79 748.276 1105.06 748.276C1106.2 748.276 1108.19 747.952 1109.06 747.574ZM1129.74 727C1131.15 727 1133.04 727.54 1133.95 728.35L1132.77 735.316L1132.55 735.478C1131.63 734.722 1129.9 734.182 1128.28 734.182C1126.29 734.182 1124.07 735.154 1122.34 736.612V754H1114.68V727.486L1121.48 727L1122.34 732.4C1124.34 729.16 1126.83 727 1129.74 727ZM1161 740.878L1160.19 742.336H1143.93C1144.53 746.494 1147.01 748.546 1151.01 748.546C1153.49 748.546 1155.65 748.06 1157.33 747.25L1158.78 752.434C1156.79 753.676 1152.9 754.594 1149.5 754.594C1141.45 754.594 1135.94 749.356 1135.94 740.716C1135.94 732.562 1141.13 727 1149.17 727C1156.52 727 1161 732.076 1161 740.878ZM1148.96 732.886C1146.36 732.886 1144.47 734.506 1143.93 738.016H1153.22C1152.79 734.29 1151.39 732.886 1148.96 732.886ZM1194.96 747.574L1195.99 753.46C1194.37 754.108 1191.02 754.54 1189.02 754.54C1184.49 754.54 1179.73 752.488 1179.73 743.902V733.048H1175.47V727.54H1180L1182.38 720.466H1187.35V727.54H1195.5V733.048H1187.35V743.038C1187.35 747.034 1188.7 748.276 1190.97 748.276C1192.1 748.276 1194.1 747.952 1194.96 747.574ZM1215.65 727C1217.05 727 1218.94 727.54 1219.86 728.35L1218.67 735.316L1218.45 735.478C1217.54 734.722 1215.81 734.182 1214.19 734.182C1212.19 734.182 1209.98 735.154 1208.25 736.612V754H1200.58V727.486L1207.38 727L1208.25 732.4C1210.25 729.16 1212.73 727 1215.65 727ZM1234.32 727C1241.99 727 1246.2 731.752 1246.2 738.88V754H1239.45L1238.75 750.706C1236.43 753.028 1232.86 754.54 1229.62 754.54C1224.87 754.54 1221.36 751.138 1221.36 746.602C1221.36 741.418 1225.95 738.718 1231.84 738.718C1234.1 738.718 1236.8 739.042 1238.53 739.42V738.394C1238.53 735.208 1236.37 732.994 1232.32 732.994C1229.84 732.994 1226.54 733.75 1224.44 734.884L1223.41 729.484C1225.84 728.026 1230.43 727 1234.32 727ZM1229.19 746.008C1229.19 747.844 1230.54 749.14 1232.81 749.14C1234.43 749.14 1236.64 748.492 1238.53 747.358V743.416C1237.24 743.092 1235.62 742.876 1233.51 742.876C1230.65 742.876 1229.19 744.118 1229.19 746.008ZM1269.59 727.54H1278.07L1267.11 754H1259.82L1248.86 727.54H1257.34L1263.44 745.144L1269.59 727.54ZM1292.01 727C1299.68 727 1303.89 731.752 1303.89 738.88V754H1297.14L1296.44 750.706C1294.12 753.028 1290.55 754.54 1287.31 754.54C1282.56 754.54 1279.05 751.138 1279.05 746.602C1279.05 741.418 1283.64 738.718 1289.53 738.718C1291.79 738.718 1294.49 739.042 1296.22 739.42V738.394C1296.22 735.208 1294.06 732.994 1290.01 732.994C1287.53 732.994 1284.23 733.75 1282.13 734.884L1281.1 729.484C1283.53 728.026 1288.12 727 1292.01 727ZM1286.88 746.008C1286.88 747.844 1288.23 749.14 1290.5 749.14C1292.12 749.14 1294.33 748.492 1296.22 747.358V743.416C1294.93 743.092 1293.31 742.876 1291.2 742.876C1288.34 742.876 1286.88 744.118 1286.88 746.008ZM1314.63 723.274C1311.98 723.274 1310.04 721.546 1310.04 719.17C1310.04 716.848 1311.98 715.12 1314.63 715.12C1317.33 715.12 1319.27 716.848 1319.27 719.17C1319.27 721.546 1317.33 723.274 1314.63 723.274ZM1310.85 754V728.08L1318.46 727V754H1310.85ZM1325.93 754V716.2L1333.55 715.12V754H1325.93ZM1343.61 742.066L1343.23 739.906C1342.58 735.64 1344.2 733.372 1347.01 731.482L1350.63 728.782C1352.3 727.648 1353.22 726.622 1353.22 725.164C1353.22 722.842 1351.06 721.708 1348.2 721.708C1345.44 721.708 1342.31 722.734 1340.2 723.976L1339.12 717.712C1341.93 716.2 1346.31 715.12 1349.6 715.12C1356.3 715.12 1361.05 718.846 1361.05 724.732C1361.05 727.972 1359.05 731.428 1356.24 733.21L1352.19 735.856C1350.41 737.044 1349.11 738.07 1349.33 740.014L1349.55 742.066H1343.61ZM1346.58 754.54C1343.98 754.54 1341.93 752.596 1341.93 750.004C1341.93 747.52 1343.98 745.576 1346.58 745.576C1349.17 745.576 1351.22 747.52 1351.22 750.004C1351.22 752.596 1349.17 754.54 1346.58 754.54Z" fill="#FFF0E0"/>
<path d="M634.845 828.54C623.127 828.54 615.459 820.656 615.459 808.83C615.459 797.004 623.127 789.12 634.845 789.12C638.355 789.12 642.459 789.876 645.159 790.956L644.079 797.22C641.865 796.356 638.679 795.816 636.087 795.816C628.473 795.816 623.343 800.676 623.343 808.83C623.343 816.984 628.473 821.844 636.087 821.844C638.733 821.844 641.865 821.304 644.025 820.494L645.159 826.704C642.459 827.784 638.355 828.54 634.845 828.54ZM661.492 828.54C653.338 828.54 647.938 823.032 647.938 814.77C647.938 806.508 653.338 801 661.438 801C669.592 801 675.046 806.508 675.046 814.77C675.046 823.032 669.646 828.54 661.492 828.54ZM661.492 822.276C664.894 822.276 667.216 819.252 667.216 814.77C667.216 810.234 664.894 807.21 661.438 807.21C657.982 807.21 655.768 810.234 655.768 814.77C655.768 819.198 658.144 822.276 661.492 822.276ZM696.764 801C701.03 801 705.134 803.808 705.134 811.8V828H697.52V812.664C697.52 808.398 696.008 807.21 693.686 807.21C692.066 807.21 690.176 807.858 688.34 808.938V828H680.672V801.486L687.476 801L688.07 804.294C690.5 802.566 693.578 801 696.764 801ZM728.843 821.574L729.869 827.46C728.249 828.108 724.901 828.54 722.903 828.54C718.367 828.54 713.615 826.488 713.615 817.902V807.048H709.349V801.54H713.885L716.261 794.466H721.229V801.54H729.383V807.048H721.229V817.038C721.229 821.034 722.579 822.276 724.847 822.276C725.981 822.276 727.979 821.952 728.843 821.574ZM745.261 801C752.929 801 757.141 805.752 757.141 812.88V828H750.391L749.689 824.706C747.367 827.028 743.803 828.54 740.563 828.54C735.811 828.54 732.301 825.138 732.301 820.602C732.301 815.418 736.891 812.718 742.777 812.718C745.045 812.718 747.745 813.042 749.473 813.42V812.394C749.473 809.208 747.313 806.994 743.263 806.994C740.779 806.994 737.485 807.75 735.379 808.884L734.353 803.484C736.783 802.026 741.373 801 745.261 801ZM740.131 820.008C740.131 821.844 741.481 823.14 743.749 823.14C745.369 823.14 747.583 822.492 749.473 821.358V817.416C748.177 817.092 746.557 816.876 744.451 816.876C741.589 816.876 740.131 818.118 740.131 820.008ZM776.304 828.54C768.042 828.54 762.318 823.086 762.318 814.77C762.318 806.562 767.934 801 775.764 801C779.598 801 783.54 802.242 785.484 804.024L782.46 808.884C781.164 807.858 778.842 807.264 776.682 807.264C772.74 807.264 770.202 810.18 770.202 814.608C770.202 819.198 773.064 822.276 777.87 822.276C779.922 822.276 782.46 821.736 783.918 820.926L784.998 826.758C782.838 827.784 779.382 828.54 776.304 828.54ZM807.048 821.574L808.074 827.46C806.454 828.108 803.106 828.54 801.108 828.54C796.572 828.54 791.82 826.488 791.82 817.902V807.048H787.554V801.54H792.09L794.466 794.466H799.434V801.54H807.588V807.048H799.434V817.038C799.434 821.034 800.784 822.276 803.052 822.276C804.186 822.276 806.184 821.952 807.048 821.574ZM835.785 814.878L834.975 816.336H818.721C819.315 820.494 821.799 822.546 825.795 822.546C828.279 822.546 830.439 822.06 832.113 821.25L833.571 826.434C831.573 827.676 827.685 828.594 824.283 828.594C816.237 828.594 810.729 823.356 810.729 814.716C810.729 806.562 815.913 801 823.959 801C831.303 801 835.785 806.076 835.785 814.878ZM823.743 806.886C821.151 806.886 819.261 808.506 818.721 812.016H828.009C827.577 808.29 826.173 806.886 823.743 806.886ZM849.088 821.736H863.02V828H839.854L838.828 822.708L852.112 807.75H839.746V801.54H861.832L862.912 806.724L849.088 821.736ZM867.289 811.8H884.569V816.93H867.289V811.8ZM907.543 801C911.809 801 915.913 803.808 915.913 811.8V828H908.299V812.664C908.299 808.398 906.787 807.21 904.465 807.21C902.845 807.21 900.955 807.858 899.119 808.938V828H891.451V801.486L898.255 801L898.849 804.294C901.279 802.566 904.357 801 907.543 801ZM934.867 828.54C926.713 828.54 921.313 823.032 921.313 814.77C921.313 806.508 926.713 801 934.813 801C942.967 801 948.421 806.508 948.421 814.77C948.421 823.032 943.021 828.54 934.867 828.54ZM934.867 822.276C938.269 822.276 940.591 819.252 940.591 814.77C940.591 810.234 938.269 807.21 934.813 807.21C931.357 807.21 929.143 810.234 929.143 814.77C929.143 819.198 931.519 822.276 934.867 822.276ZM970.625 801.54H978.239V828H971.705L970.949 825.192C968.519 826.92 965.441 828.54 962.201 828.54C957.935 828.54 953.777 825.732 953.777 817.74V801.54H961.445V816.876C961.445 821.088 962.957 822.276 965.279 822.276C966.899 822.276 968.789 821.628 970.625 820.548V801.54ZM994.169 828.54C990.173 828.54 986.123 827.622 983.639 826.164L984.611 820.764C987.527 822.006 990.605 822.708 993.791 822.708C996.545 822.708 997.787 822.006 997.787 820.71C997.787 819.522 996.869 818.982 995.465 818.442L990.659 816.39C986.717 814.716 984.287 812.556 984.287 808.722C984.287 803.538 988.769 801 995.519 801C998.867 801 1002.54 801.594 1004.65 802.566L1003.57 808.128C1001.62 807.372 998.597 806.778 995.843 806.778C993.251 806.778 992.171 807.48 992.171 808.83C992.171 809.964 992.819 810.396 994.169 810.99L999.893 813.42C1003.78 815.094 1005.67 817.578 1005.67 820.818C1005.67 825.84 1001.03 828.54 994.169 828.54ZM1053.64 801C1057.91 801 1062.06 803.808 1062.06 811.8V828H1054.4V812.664C1054.4 808.398 1052.88 807.21 1050.83 807.21C1049.32 807.21 1047.7 808.074 1046.24 809.208C1046.35 810.018 1046.4 810.882 1046.4 811.8V828H1038.74V812.664C1038.74 808.398 1037.28 807.21 1035.17 807.21C1033.71 807.21 1032.15 808.02 1030.74 809.1V828H1023.08V801.486L1029.88 801L1030.47 804.186C1032.53 802.512 1034.85 801 1037.98 801C1040.68 801 1043.38 802.134 1044.95 805.05C1047.27 803.052 1050.08 801 1053.64 801ZM1079.81 801C1087.48 801 1091.69 805.752 1091.69 812.88V828H1084.94L1084.24 824.706C1081.91 827.028 1078.35 828.54 1075.11 828.54C1070.36 828.54 1066.85 825.138 1066.85 820.602C1066.85 815.418 1071.44 812.718 1077.32 812.718C1079.59 812.718 1082.29 813.042 1084.02 813.42V812.394C1084.02 809.208 1081.86 806.994 1077.81 806.994C1075.33 806.994 1072.03 807.75 1069.93 808.884L1068.9 803.484C1071.33 802.026 1075.92 801 1079.81 801ZM1074.68 820.008C1074.68 821.844 1076.03 823.14 1078.3 823.14C1079.92 823.14 1082.13 822.492 1084.02 821.358V817.416C1082.72 817.092 1081.1 816.876 1079 816.876C1076.14 816.876 1074.68 818.118 1074.68 820.008ZM1102.43 797.274C1099.78 797.274 1097.84 795.546 1097.84 793.17C1097.84 790.848 1099.78 789.12 1102.43 789.12C1105.13 789.12 1107.07 790.848 1107.07 793.17C1107.07 795.546 1105.13 797.274 1102.43 797.274ZM1098.65 828V802.08L1106.26 801V828H1098.65ZM1129.71 801C1133.98 801 1138.08 803.808 1138.08 811.8V828H1130.47V812.664C1130.47 808.398 1128.96 807.21 1126.63 807.21C1125.01 807.21 1123.12 807.858 1121.29 808.938V828H1113.62V801.486L1120.42 801L1121.02 804.294C1123.45 802.566 1126.53 801 1129.71 801ZM1161.79 821.574L1162.82 827.46C1161.2 828.108 1157.85 828.54 1155.85 828.54C1151.32 828.54 1146.56 826.488 1146.56 817.902V807.048H1142.3V801.54H1146.83L1149.21 794.466H1154.18V801.54H1162.33V807.048H1154.18V817.038C1154.18 821.034 1155.53 822.276 1157.8 822.276C1158.93 822.276 1160.93 821.952 1161.79 821.574ZM1190.53 814.878L1189.72 816.336H1173.47C1174.06 820.494 1176.54 822.546 1180.54 822.546C1183.02 822.546 1185.18 822.06 1186.86 821.25L1188.32 826.434C1186.32 827.676 1182.43 828.594 1179.03 828.594C1170.98 828.594 1165.47 823.356 1165.47 814.716C1165.47 806.562 1170.66 801 1178.7 801C1186.05 801 1190.53 806.076 1190.53 814.878ZM1178.49 806.886C1175.9 806.886 1174.01 808.506 1173.47 812.016H1182.75C1182.32 808.29 1180.92 806.886 1178.49 806.886ZM1211.66 801C1215.93 801 1220.03 803.808 1220.03 811.8V828H1212.42V812.664C1212.42 808.398 1210.91 807.21 1208.58 807.21C1206.96 807.21 1205.07 807.858 1203.24 808.938V828H1195.57V801.486L1202.37 801L1202.97 804.294C1205.4 802.566 1208.48 801 1211.66 801ZM1237.85 801C1245.52 801 1249.73 805.752 1249.73 812.88V828H1242.98L1242.28 824.706C1239.96 827.028 1236.39 828.54 1233.15 828.54C1228.4 828.54 1224.89 825.138 1224.89 820.602C1224.89 815.418 1229.48 812.718 1235.37 812.718C1237.64 812.718 1240.34 813.042 1242.06 813.42V812.394C1242.06 809.208 1239.9 806.994 1235.85 806.994C1233.37 806.994 1230.08 807.75 1227.97 808.884L1226.94 803.484C1229.37 802.026 1233.96 801 1237.85 801ZM1232.72 820.008C1232.72 821.844 1234.07 823.14 1236.34 823.14C1237.96 823.14 1240.17 822.492 1242.06 821.358V817.416C1240.77 817.092 1239.15 816.876 1237.04 816.876C1234.18 816.876 1232.72 818.118 1232.72 820.008ZM1272.68 801C1276.94 801 1281.05 803.808 1281.05 811.8V828H1273.43V812.664C1273.43 808.398 1271.92 807.21 1269.6 807.21C1267.98 807.21 1266.09 807.858 1264.25 808.938V828H1256.58V801.486L1263.39 801L1263.98 804.294C1266.41 802.566 1269.49 801 1272.68 801ZM1304.75 821.574L1305.78 827.46C1304.16 828.108 1300.81 828.54 1298.81 828.54C1294.28 828.54 1289.53 826.488 1289.53 817.902V807.048H1285.26V801.54H1289.8L1292.17 794.466H1297.14V801.54H1305.29V807.048H1297.14V817.038C1297.14 821.034 1298.49 822.276 1300.76 822.276C1301.89 822.276 1303.89 821.952 1304.75 821.574Z" fill="#FFF0E0"/>
<rect x="861.5" y="864" width="197" height="40" rx="6" fill="#301702"/>
<path d="M895.62 890V878.48H902.66V880.656H897.796V883.152H901.7V885.328H897.796V890H895.62ZM903.948 890L907.468 878.48H910.716L914.236 890H911.996L908.86 879.84H909.276L906.188 890H903.948ZM906.06 887.6V885.568H912.14V887.6H906.06ZM916.63 890V878.48H918.806V890H916.63ZM922.004 890V878.48H926.868C926.98 878.48 927.13 878.485 927.316 878.496C927.508 878.501 927.679 878.517 927.828 878.544C928.516 878.651 929.079 878.877 929.516 879.224C929.959 879.571 930.284 880.008 930.492 880.536C930.7 881.059 930.804 881.643 930.804 882.288C930.804 883.253 930.564 884.08 930.084 884.768C929.604 885.451 928.852 885.872 927.828 886.032L926.868 886.096H924.18V890H922.004ZM928.5 890L926.228 885.312L928.468 884.88L930.964 890H928.5ZM924.18 884.064H926.772C926.884 884.064 927.007 884.059 927.14 884.048C927.274 884.037 927.396 884.016 927.508 883.984C927.802 883.904 928.028 883.771 928.188 883.584C928.348 883.392 928.458 883.181 928.516 882.952C928.58 882.717 928.612 882.496 928.612 882.288C928.612 882.08 928.58 881.861 928.516 881.632C928.458 881.397 928.348 881.187 928.188 881C928.028 880.808 927.802 880.672 927.508 880.592C927.396 880.56 927.274 880.539 927.14 880.528C927.007 880.517 926.884 880.512 926.772 880.512H924.18V884.064ZM933.523 890V878.48H941.043V880.512H935.699V882.976H940.083V885.008H935.699V887.968H941.043V890H933.523ZM952.452 890.24C951.524 890.24 950.708 890.053 950.004 889.68C949.3 889.301 948.75 888.771 948.356 888.088C947.961 887.405 947.764 886.603 947.764 885.68V878.496L949.972 878.48V885.664C949.972 886.043 950.036 886.387 950.164 886.696C950.292 887.005 950.468 887.272 950.692 887.496C950.921 887.72 951.185 887.893 951.484 888.016C951.788 888.133 952.11 888.192 952.452 888.192C952.804 888.192 953.129 888.131 953.428 888.008C953.732 887.885 953.996 887.712 954.22 887.488C954.444 887.264 954.617 886.997 954.74 886.688C954.868 886.379 954.932 886.037 954.932 885.664V878.48H957.14V885.68C957.14 886.603 956.942 887.405 956.548 888.088C956.153 888.771 955.604 889.301 954.9 889.68C954.196 890.053 953.38 890.24 952.452 890.24ZM960.173 890V878.48H962.381L967.389 886.16V878.48H969.597V890H967.389L962.381 882.32V890H960.173ZM976.632 890V878.48H980.36C980.451 878.48 980.638 878.483 980.92 878.488C981.203 878.493 981.475 878.512 981.736 878.544C982.664 878.656 983.451 878.979 984.096 879.512C984.742 880.045 985.232 880.723 985.568 881.544C985.904 882.365 986.072 883.264 986.072 884.24C986.072 885.216 985.904 886.115 985.568 886.936C985.232 887.757 984.742 888.435 984.096 888.968C983.451 889.501 982.664 889.824 981.736 889.936C981.475 889.968 981.203 889.987 980.92 889.992C980.638 889.997 980.451 890 980.36 890H976.632ZM978.84 887.952H980.36C980.504 887.952 980.699 887.949 980.944 887.944C981.19 887.933 981.411 887.909 981.608 887.872C982.11 887.771 982.518 887.536 982.832 887.168C983.152 886.8 983.387 886.357 983.536 885.84C983.691 885.323 983.768 884.789 983.768 884.24C983.768 883.664 983.688 883.117 983.528 882.6C983.374 882.083 983.136 881.645 982.816 881.288C982.496 880.931 982.094 880.704 981.608 880.608C981.411 880.565 981.19 880.541 980.944 880.536C980.699 880.531 980.504 880.528 980.36 880.528H978.84V887.952ZM988.792 890V878.48H996.312V880.512H990.968V882.976H995.352V885.008H990.968V887.968H996.312V890H988.792ZM1001.51 890L997.989 878.48H1000.23L1003.11 887.952L1006.04 878.48H1008.28L1004.76 890H1001.51ZM1010.44 890V878.48H1012.62V890H1010.44ZM1020.17 890.24C1019.32 890.24 1018.54 890.091 1017.86 889.792C1017.17 889.488 1016.61 889.056 1016.17 888.496C1015.73 887.931 1015.45 887.259 1015.34 886.48L1017.61 886.144C1017.77 886.805 1018.1 887.315 1018.6 887.672C1019.1 888.029 1019.67 888.208 1020.31 888.208C1020.67 888.208 1021.02 888.152 1021.35 888.04C1021.69 887.928 1021.96 887.763 1022.18 887.544C1022.4 887.325 1022.5 887.056 1022.5 886.736C1022.5 886.619 1022.49 886.507 1022.45 886.4C1022.42 886.288 1022.36 886.184 1022.28 886.088C1022.2 885.992 1022.09 885.901 1021.94 885.816C1021.79 885.731 1021.61 885.653 1021.38 885.584L1018.39 884.704C1018.17 884.64 1017.91 884.549 1017.61 884.432C1017.32 884.315 1017.03 884.147 1016.75 883.928C1016.48 883.709 1016.24 883.421 1016.06 883.064C1015.88 882.701 1015.78 882.245 1015.78 881.696C1015.78 880.923 1015.98 880.28 1016.37 879.768C1016.76 879.256 1017.28 878.875 1017.93 878.624C1018.58 878.373 1019.3 878.251 1020.09 878.256C1020.88 878.267 1021.59 878.403 1022.22 878.664C1022.84 878.925 1023.36 879.307 1023.78 879.808C1024.21 880.304 1024.51 880.912 1024.7 881.632L1022.34 882.032C1022.26 881.659 1022.1 881.344 1021.87 881.088C1021.64 880.832 1021.37 880.637 1021.05 880.504C1020.73 880.371 1020.4 880.299 1020.06 880.288C1019.72 880.277 1019.39 880.325 1019.09 880.432C1018.79 880.533 1018.54 880.683 1018.35 880.88C1018.17 881.077 1018.07 881.312 1018.07 881.584C1018.07 881.835 1018.15 882.04 1018.3 882.2C1018.46 882.355 1018.65 882.48 1018.89 882.576C1019.12 882.672 1019.36 882.752 1019.61 882.816L1021.61 883.36C1021.91 883.44 1022.24 883.547 1022.6 883.68C1022.96 883.808 1023.31 883.989 1023.64 884.224C1023.98 884.453 1024.25 884.757 1024.46 885.136C1024.68 885.515 1024.79 885.995 1024.79 886.576C1024.79 887.195 1024.66 887.736 1024.4 888.2C1024.14 888.659 1023.8 889.04 1023.36 889.344C1022.92 889.643 1022.43 889.867 1021.87 890.016C1021.32 890.165 1020.76 890.24 1020.17 890.24Z" fill="#FFF0E0"/>
<rect x="861.5" y="864" width="197" height="40" rx="6" stroke="#FFF0E0" stroke-width="2"/>
<rect width="1920" height="77" transform="translate(0 947)" fill="#FFF0E0"/>
<path d="M68.5266 991.08C65.3586 991.08 62.7986 988.52 62.7986 985.352C62.7986 982.2 65.3586 979.64 68.5266 979.64C71.6786 979.64 74.2386 982.2 74.2386 985.352C74.2386 988.52 71.6786 991.08 68.5266 991.08ZM68.5266 990.168C71.1666 990.168 73.3266 988.024 73.3266 985.352C73.3266 982.696 71.1666 980.552 68.5266 980.552C65.8546 980.552 63.6946 982.696 63.6946 985.352C63.6946 988.024 65.8546 990.168 68.5266 990.168ZM68.7666 988.6C66.8306 988.6 65.5506 987.32 65.5506 985.384C65.5506 983.432 66.8306 982.168 68.7666 982.168C69.3106 982.168 69.9186 982.296 70.3666 982.488L70.1906 983.528C69.8546 983.384 69.3906 983.304 69.0226 983.304C67.8226 983.304 66.9906 984.136 66.9906 985.384C66.9906 986.648 67.8226 987.48 69.0226 987.48C69.4226 987.48 69.8866 987.4 70.2066 987.272L70.3826 988.296C69.9506 988.488 69.3426 988.6 68.7666 988.6ZM82.1183 989.144H86.8863V991H79.3663L79.0303 989.528L82.8223 985.672C83.7823 984.712 84.2943 984.12 84.2943 983.208C84.2943 982.248 83.4783 981.704 82.4063 981.704C81.4303 981.704 80.2783 981.992 79.5263 982.312L79.1903 980.568C80.0383 980.168 81.4623 979.848 82.7263 979.848C85.1103 979.848 86.6143 981.144 86.6143 983.016C86.6143 984.536 85.6383 985.672 83.9423 987.336L82.1183 989.144ZM92.4285 991.16C89.8525 991.16 88.3325 989.064 88.3325 985.512C88.3325 981.944 89.8525 979.832 92.4285 979.832C95.0365 979.832 96.5725 981.944 96.5725 985.512C96.5725 989.064 95.0365 991.16 92.4285 991.16ZM92.4285 989.304C93.5805 989.304 94.2525 988.008 94.2525 985.512C94.2525 983 93.5805 981.688 92.4285 981.688C91.3085 981.688 90.6525 983 90.6525 985.512C90.6525 988.008 91.3085 989.304 92.4285 989.304ZM100.962 989.144H105.73V991H98.2101L97.8741 989.528L101.666 985.672C102.626 984.712 103.138 984.12 103.138 983.208C103.138 982.248 102.322 981.704 101.25 981.704C100.274 981.704 99.1221 981.992 98.3701 982.312L98.0341 980.568C98.8821 980.168 100.306 979.848 101.57 979.848C103.954 979.848 105.458 981.144 105.458 983.016C105.458 984.536 104.482 985.672 102.786 987.336L100.962 989.144ZM112.104 985.24C113.624 985.432 114.488 986.632 114.488 987.928C114.488 989.8 112.776 991.16 110.136 991.16C109.208 991.16 107.848 990.984 106.888 990.52L107.192 988.76C107.976 989.16 109.16 989.304 109.864 989.304C111.176 989.304 112.168 988.648 112.168 987.72C112.168 986.744 111.272 986.28 109.992 986.28H109.016V984.632H109.848C111.08 984.632 111.736 983.96 111.736 983.112C111.736 982.264 111.048 981.704 109.912 981.704C109 981.704 108.184 981.912 107.56 982.104L107.272 980.392C107.912 980.12 109.16 979.848 110.36 979.848C112.6 979.848 114.056 980.952 114.056 982.68C114.056 983.976 113.192 984.936 112.104 985.24ZM119.727 986.2H124.847V987.72H119.727V986.2ZM134.352 979.64C137.904 979.64 139.84 981.912 139.84 985.304C139.84 988.728 137.904 991 134.352 991H130.704V979.64H134.352ZM134.352 989.016C136.448 989.016 137.488 987.64 137.488 985.304C137.488 983 136.448 981.624 134.352 981.624H132.976V989.016H134.352ZM146.919 980.28L143.655 982.216L142.967 981.432L145.479 978.728L146.919 980.28ZM148.487 987.112L148.247 987.544H143.431C143.607 988.776 144.343 989.384 145.527 989.384C146.263 989.384 146.903 989.24 147.399 989L147.831 990.536C147.239 990.904 146.087 991.176 145.079 991.176C142.695 991.176 141.063 989.624 141.063 987.064C141.063 984.648 142.599 983 144.983 983C147.159 983 148.487 984.504 148.487 987.112ZM144.919 984.744C144.151 984.744 143.591 985.224 143.431 986.264H146.183C146.055 985.16 145.639 984.744 144.919 984.744ZM153.628 991.16C151.18 991.16 149.484 989.544 149.484 987.08C149.484 984.648 151.148 983 153.468 983C154.604 983 155.772 983.368 156.348 983.896L155.452 985.336C155.068 985.032 154.38 984.856 153.74 984.856C152.572 984.856 151.82 985.72 151.82 987.032C151.82 988.392 152.668 989.304 154.092 989.304C154.7 989.304 155.452 989.144 155.884 988.904L156.204 990.632C155.564 990.936 154.54 991.16 153.628 991.16ZM161.172 991.16C158.756 991.16 157.156 989.528 157.156 987.08C157.156 984.632 158.756 983 161.156 983C163.572 983 165.188 984.632 165.188 987.08C165.188 989.528 163.588 991.16 161.172 991.16ZM161.172 989.304C162.18 989.304 162.868 988.408 162.868 987.08C162.868 985.736 162.18 984.84 161.156 984.84C160.132 984.84 159.476 985.736 159.476 987.08C159.476 988.392 160.18 989.304 161.172 989.304ZM171.319 983C171.735 983 172.295 983.16 172.567 983.4L172.215 985.464L172.151 985.512C171.879 985.288 171.367 985.128 170.887 985.128C170.295 985.128 169.639 985.416 169.127 985.848V991H166.855V983.144L168.871 983L169.127 984.6C169.719 983.64 170.455 983 171.319 983ZM184.848 979.64V981.624H181.376V991H179.104V981.624H175.616V979.64H184.848ZM187.868 983C190.14 983 191.388 984.408 191.388 986.52V991H189.388L189.18 990.024C188.492 990.712 187.436 991.16 186.476 991.16C185.068 991.16 184.028 990.152 184.028 988.808C184.028 987.272 185.388 986.472 187.132 986.472C187.804 986.472 188.604 986.568 189.116 986.68V986.376C189.116 985.432 188.476 984.776 187.276 984.776C186.54 984.776 185.564 985 184.94 985.336L184.636 983.736C185.356 983.304 186.716 983 187.868 983ZM186.348 988.632C186.348 989.176 186.748 989.56 187.42 989.56C187.9 989.56 188.556 989.368 189.116 989.032V987.864C188.732 987.768 188.252 987.704 187.628 987.704C186.78 987.704 186.348 988.072 186.348 988.632ZM202.675 984.12L206.499 990.792V991H203.987L201.251 985.832L199.507 987.928V991H197.235V979.64H199.507V984.984L203.635 979.64H206.211V979.848L202.675 984.12ZM210.805 983C213.077 983 214.325 984.408 214.325 986.52V991H212.325L212.117 990.024C211.429 990.712 210.373 991.16 209.413 991.16C208.005 991.16 206.965 990.152 206.965 988.808C206.965 987.272 208.325 986.472 210.069 986.472C210.741 986.472 211.541 986.568 212.053 986.68V986.376C212.053 985.432 211.413 984.776 210.213 984.776C209.477 984.776 208.501 985 207.877 985.336L207.573 983.736C208.293 983.304 209.653 983 210.805 983ZM209.285 988.632C209.285 989.176 209.685 989.56 210.357 989.56C210.837 989.56 211.493 989.368 212.053 989.032V987.864C211.669 987.768 211.189 987.704 210.565 987.704C209.717 987.704 209.285 988.072 209.285 988.632ZM218.803 989.144H222.931V991H216.067L215.763 989.432L219.699 985H216.035V983.16H222.579L222.899 984.696L218.803 989.144ZM228.36 979.64H229.64V993.816H228.36V979.64ZM243.442 979.64V981.624H239.97V991H237.698V981.624H234.21V979.64H243.442ZM246.579 991.16C244.163 991.16 242.563 989.528 242.563 987.08C242.563 984.632 244.163 983 246.563 983C248.979 983 250.595 984.632 250.595 987.08C250.595 989.528 248.995 991.16 246.579 991.16ZM246.579 989.304C247.587 989.304 248.275 988.408 248.275 987.08C248.275 985.736 247.587 984.84 246.563 984.84C245.539 984.84 244.883 985.736 244.883 987.08C244.883 988.392 245.587 989.304 246.579 989.304ZM257.173 983.16H259.429V991H257.493L257.269 990.168C256.549 990.68 255.637 991.16 254.677 991.16C253.413 991.16 252.181 990.328 252.181 987.96V983.16H254.453V987.704C254.453 988.952 254.901 989.304 255.589 989.304C256.069 989.304 256.629 989.112 257.173 988.792V983.16ZM264.15 991.16C262.966 991.16 261.766 990.888 261.03 990.456L261.318 988.856C262.182 989.224 263.094 989.432 264.038 989.432C264.854 989.432 265.222 989.224 265.222 988.84C265.222 988.488 264.95 988.328 264.534 988.168L263.11 987.56C261.942 987.064 261.222 986.424 261.222 985.288C261.222 983.752 262.55 983 264.55 983C265.542 983 266.63 983.176 267.254 983.464L266.934 985.112C266.358 984.888 265.462 984.712 264.646 984.712C263.878 984.712 263.558 984.92 263.558 985.32C263.558 985.656 263.75 985.784 264.15 985.96L265.846 986.68C266.998 987.176 267.558 987.912 267.558 988.872C267.558 990.36 266.182 991.16 264.15 991.16ZM277.723 979.8L279.995 979.48V991H278.011L277.819 990.168C277.195 990.808 276.443 991.16 275.435 991.16C273.563 991.16 272.251 989.624 272.251 987.144C272.251 984.664 273.771 983 276.091 983C276.619 983 277.243 983.096 277.723 983.288V979.8ZM274.571 987.112C274.571 988.536 275.275 989.304 276.251 989.304C276.779 989.304 277.307 989.048 277.723 988.68V985.112C277.323 984.92 276.795 984.84 276.411 984.84C275.291 984.84 274.571 985.672 274.571 987.112ZM286.6 983C287.016 983 287.576 983.16 287.848 983.4L287.496 985.464L287.432 985.512C287.16 985.288 286.648 985.128 286.168 985.128C285.576 985.128 284.92 985.416 284.408 985.848V991H282.136V983.144L284.152 983L284.408 984.6C285 983.64 285.736 983 286.6 983ZM292.454 991.16C290.038 991.16 288.438 989.528 288.438 987.08C288.438 984.632 290.038 983 292.438 983C294.854 983 296.47 984.632 296.47 987.08C296.47 989.528 294.87 991.16 292.454 991.16ZM292.454 989.304C293.462 989.304 294.15 988.408 294.15 987.08C294.15 985.736 293.462 984.84 292.438 984.84C291.414 984.84 290.758 985.736 290.758 987.08C290.758 988.392 291.462 989.304 292.454 989.304ZM299.288 981.896C298.504 981.896 297.928 981.384 297.928 980.68C297.928 979.992 298.504 979.48 299.288 979.48C300.088 979.48 300.664 979.992 300.664 980.68C300.664 981.384 300.088 981.896 299.288 981.896ZM298.168 991V983.32L300.424 983V991H298.168ZM307.581 989.096L307.885 990.84C307.405 991.032 306.413 991.16 305.821 991.16C304.477 991.16 303.069 990.552 303.069 988.008V984.792H301.805V983.16H303.149L303.853 981.064H305.325V983.16H307.741V984.792H305.325V987.752C305.325 988.936 305.725 989.304 306.397 989.304C306.733 989.304 307.325 989.208 307.581 989.096ZM311.806 991.16C310.622 991.16 309.422 990.888 308.686 990.456L308.974 988.856C309.838 989.224 310.75 989.432 311.694 989.432C312.51 989.432 312.878 989.224 312.878 988.84C312.878 988.488 312.606 988.328 312.19 988.168L310.766 987.56C309.598 987.064 308.878 986.424 308.878 985.288C308.878 983.752 310.206 983 312.206 983C313.198 983 314.286 983.176 314.91 983.464L314.59 985.112C314.014 984.888 313.118 984.712 312.302 984.712C311.534 984.712 311.214 984.92 311.214 985.32C311.214 985.656 311.406 985.784 311.806 985.96L313.502 986.68C314.654 987.176 315.214 987.912 315.214 988.872C315.214 990.36 313.838 991.16 311.806 991.16ZM324.835 983C325.251 983 325.811 983.16 326.083 983.4L325.731 985.464L325.667 985.512C325.395 985.288 324.883 985.128 324.403 985.128C323.811 985.128 323.155 985.416 322.643 985.848V991H320.371V983.144L322.387 983L322.643 984.6C323.235 983.64 323.971 983 324.835 983ZM332.528 980.28L329.264 982.216L328.576 981.432L331.088 978.728L332.528 980.28ZM334.096 987.112L333.856 987.544H329.04C329.216 988.776 329.952 989.384 331.136 989.384C331.872 989.384 332.512 989.24 333.008 989L333.44 990.536C332.848 990.904 331.696 991.176 330.688 991.176C328.304 991.176 326.672 989.624 326.672 987.064C326.672 984.648 328.208 983 330.592 983C332.768 983 334.096 984.504 334.096 987.112ZM330.528 984.744C329.76 984.744 329.2 985.224 329.04 986.264H331.792C331.664 985.16 331.248 984.744 330.528 984.744ZM338.15 991.16C336.966 991.16 335.766 990.888 335.03 990.456L335.318 988.856C336.182 989.224 337.094 989.432 338.038 989.432C338.854 989.432 339.222 989.224 339.222 988.84C339.222 988.488 338.95 988.328 338.534 988.168L337.11 987.56C335.942 987.064 335.222 986.424 335.222 985.288C335.222 983.752 336.55 983 338.55 983C339.542 983 340.63 983.176 341.254 983.464L340.934 985.112C340.358 984.888 339.462 984.712 338.646 984.712C337.878 984.712 337.558 984.92 337.558 985.32C337.558 985.656 337.75 985.784 338.15 985.96L339.846 986.68C340.998 987.176 341.558 987.912 341.558 988.872C341.558 990.36 340.182 991.16 338.15 991.16ZM350.065 987.112L349.825 987.544H345.009C345.185 988.776 345.921 989.384 347.105 989.384C347.841 989.384 348.481 989.24 348.977 989L349.409 990.536C348.817 990.904 347.665 991.176 346.657 991.176C344.273 991.176 342.641 989.624 342.641 987.064C342.641 984.648 344.177 983 346.561 983C348.737 983 350.065 984.504 350.065 987.112ZM346.497 984.744C345.729 984.744 345.169 985.224 345.009 986.264H347.761C347.633 985.16 347.217 984.744 346.497 984.744ZM356.022 983C356.438 983 356.998 983.16 357.27 983.4L356.918 985.464L356.854 985.512C356.582 985.288 356.07 985.128 355.59 985.128C354.998 985.128 354.342 985.416 353.83 985.848V991H351.558V983.144L353.574 983L353.83 984.6C354.422 983.64 355.158 983 356.022 983ZM363.616 983.16H366.128L362.88 991H360.72L357.472 983.16H359.984L361.792 988.376L363.616 983.16ZM372.434 980.28L369.17 982.216L368.482 981.432L370.994 978.728L372.434 980.28ZM374.002 987.112L373.762 987.544H368.946C369.122 988.776 369.858 989.384 371.042 989.384C371.778 989.384 372.418 989.24 372.914 989L373.346 990.536C372.754 990.904 371.602 991.176 370.594 991.176C368.21 991.176 366.578 989.624 366.578 987.064C366.578 984.648 368.114 983 370.498 983C372.674 983 374.002 984.504 374.002 987.112ZM370.434 984.744C369.666 984.744 369.106 985.224 368.946 986.264H371.698C371.57 985.16 371.154 984.744 370.434 984.744ZM378.056 991.16C376.872 991.16 375.672 990.888 374.936 990.456L375.224 988.856C376.088 989.224 377 989.432 377.944 989.432C378.76 989.432 379.128 989.224 379.128 988.84C379.128 988.488 378.856 988.328 378.44 988.168L377.016 987.56C375.848 987.064 375.128 986.424 375.128 985.288C375.128 983.752 376.456 983 378.456 983C379.448 983 380.536 983.176 381.16 983.464L380.84 985.112C380.264 984.888 379.368 984.712 378.552 984.712C377.784 984.712 377.464 984.92 377.464 985.32C377.464 985.656 377.656 985.784 378.056 985.96L379.752 986.68C380.904 987.176 381.464 987.912 381.464 988.872C381.464 990.36 380.088 991.16 378.056 991.16Z" fill="#4E2705"/>
<path d="M1692.38 983.584L1695.77 987.792V988H1693.23L1689.87 983.696H1689.03V988H1686.76V976.64H1691.32C1693.58 976.64 1695.08 978.048 1695.08 980.16C1695.08 981.92 1694.04 983.2 1692.38 983.584ZM1689.03 978.624V982.048H1690.94C1692.01 982.048 1692.75 981.408 1692.75 980.352C1692.75 979.296 1692.01 978.624 1690.94 978.624H1689.03ZM1702.13 977.28L1698.87 979.216L1698.18 978.432L1700.69 975.728L1702.13 977.28ZM1703.7 984.112L1703.46 984.544H1698.64C1698.82 985.776 1699.56 986.384 1700.74 986.384C1701.48 986.384 1702.12 986.24 1702.61 986L1703.04 987.536C1702.45 987.904 1701.3 988.176 1700.29 988.176C1697.91 988.176 1696.28 986.624 1696.28 984.064C1696.28 981.648 1697.81 980 1700.2 980C1702.37 980 1703.7 981.504 1703.7 984.112ZM1700.13 981.744C1699.36 981.744 1698.8 982.224 1698.64 983.264H1701.4C1701.27 982.16 1700.85 981.744 1700.13 981.744ZM1708.39 980C1710.67 980 1711.91 981.408 1711.91 983.52V988H1709.91L1709.71 987.024C1709.02 987.712 1707.96 988.16 1707 988.16C1705.59 988.16 1704.55 987.152 1704.55 985.808C1704.55 984.272 1705.91 983.472 1707.66 983.472C1708.33 983.472 1709.13 983.568 1709.64 983.68V983.376C1709.64 982.432 1709 981.776 1707.8 981.776C1707.07 981.776 1706.09 982 1705.47 982.336L1705.16 980.736C1705.88 980.304 1707.24 980 1708.39 980ZM1706.87 985.632C1706.87 986.176 1707.27 986.56 1707.95 986.56C1708.43 986.56 1709.08 986.368 1709.64 986.032V984.864C1709.26 984.768 1708.78 984.704 1708.15 984.704C1707.31 984.704 1706.87 985.072 1706.87 985.632ZM1713.98 988V976.8L1716.23 976.48V988H1713.98ZM1719.56 978.896C1718.78 978.896 1718.2 978.384 1718.2 977.68C1718.2 976.992 1718.78 976.48 1719.56 976.48C1720.36 976.48 1720.94 976.992 1720.94 977.68C1720.94 978.384 1720.36 978.896 1719.56 978.896ZM1718.44 988V980.32L1720.7 980V988H1718.44ZM1725.44 988.16C1724.26 988.16 1723.06 987.888 1722.32 987.456L1722.61 985.856C1723.47 986.224 1724.39 986.432 1725.33 986.432C1726.15 986.432 1726.51 986.224 1726.51 985.84C1726.51 985.488 1726.24 985.328 1725.83 985.168L1724.4 984.56C1723.23 984.064 1722.51 983.424 1722.51 982.288C1722.51 980.752 1723.84 980 1725.84 980C1726.83 980 1727.92 980.176 1728.55 980.464L1728.23 982.112C1727.65 981.888 1726.75 981.712 1725.94 981.712C1725.17 981.712 1724.85 981.92 1724.85 982.32C1724.85 982.656 1725.04 982.784 1725.44 982.96L1727.14 983.68C1728.29 984.176 1728.85 984.912 1728.85 985.872C1728.85 987.36 1727.47 988.16 1725.44 988.16ZM1733.61 980C1735.88 980 1737.13 981.408 1737.13 983.52V988H1735.13L1734.92 987.024C1734.24 987.712 1733.18 988.16 1732.22 988.16C1730.81 988.16 1729.77 987.152 1729.77 985.808C1729.77 984.272 1731.13 983.472 1732.88 983.472C1733.55 983.472 1734.35 983.568 1734.86 983.68V983.376C1734.86 982.432 1734.22 981.776 1733.02 981.776C1732.28 981.776 1731.31 982 1730.68 982.336L1730.38 980.736C1731.1 980.304 1732.46 980 1733.61 980ZM1732.09 985.632C1732.09 986.176 1732.49 986.56 1733.16 986.56C1733.64 986.56 1734.3 986.368 1734.86 986.032V984.864C1734.48 984.768 1734 984.704 1733.37 984.704C1732.52 984.704 1732.09 985.072 1732.09 985.632ZM1744.05 986.096L1744.35 987.84C1743.87 988.032 1742.88 988.16 1742.29 988.16C1740.94 988.16 1739.53 987.552 1739.53 985.008V981.792H1738.27V980.16H1739.61L1740.32 978.064H1741.79V980.16H1744.21V981.792H1741.79V984.752C1741.79 985.936 1742.19 986.304 1742.86 986.304C1743.2 986.304 1743.79 986.208 1744.05 986.096ZM1746.86 978.896C1746.08 978.896 1745.5 978.384 1745.5 977.68C1745.5 976.992 1746.08 976.48 1746.86 976.48C1747.66 976.48 1748.24 976.992 1748.24 977.68C1748.24 978.384 1747.66 978.896 1746.86 978.896ZM1745.74 988V980.32L1748 980V988H1745.74ZM1753.71 988.16C1751.3 988.16 1749.7 986.528 1749.7 984.08C1749.7 981.632 1751.3 980 1753.7 980C1756.11 980 1757.73 981.632 1757.73 984.08C1757.73 986.528 1756.13 988.16 1753.71 988.16ZM1753.71 986.304C1754.72 986.304 1755.41 985.408 1755.41 984.08C1755.41 982.736 1754.72 981.84 1753.7 981.84C1752.67 981.84 1752.02 982.736 1752.02 984.08C1752.02 985.392 1752.72 986.304 1753.71 986.304ZM1764.17 980C1765.43 980 1766.65 980.832 1766.65 983.2V988H1764.39V983.456C1764.39 982.192 1763.94 981.84 1763.25 981.84C1762.77 981.84 1762.21 982.032 1761.67 982.352V988H1759.4V980.144L1761.41 980L1761.59 980.976C1762.31 980.464 1763.22 980 1764.17 980ZM1776.88 980C1778.75 980 1780.06 981.52 1780.06 984C1780.06 986.496 1778.54 988.16 1776.22 988.16C1775.7 988.16 1775.06 988.064 1774.59 987.872V991.104H1772.32V980.16H1774.32L1774.51 980.992C1775.15 980.352 1776 980 1776.88 980ZM1775.9 986.304C1777.02 986.304 1777.76 985.488 1777.76 984.048C1777.76 982.624 1777.04 981.84 1776.08 981.84C1775.54 981.84 1775.01 982.096 1774.59 982.464V986.048C1774.99 986.224 1775.52 986.304 1775.9 986.304ZM1784.94 980C1787.21 980 1788.46 981.408 1788.46 983.52V988H1786.46L1786.25 987.024C1785.57 987.712 1784.51 988.16 1783.55 988.16C1782.14 988.16 1781.1 987.152 1781.1 985.808C1781.1 984.272 1782.46 983.472 1784.21 983.472C1784.88 983.472 1785.68 983.568 1786.19 983.68V983.376C1786.19 982.432 1785.55 981.776 1784.35 981.776C1783.61 981.776 1782.64 982 1782.01 982.336L1781.71 980.736C1782.43 980.304 1783.79 980 1784.94 980ZM1783.42 985.632C1783.42 986.176 1783.82 986.56 1784.49 986.56C1784.97 986.56 1785.63 986.368 1786.19 986.032V984.864C1785.81 984.768 1785.33 984.704 1784.7 984.704C1783.85 984.704 1783.42 985.072 1783.42 985.632ZM1794.96 980C1795.37 980 1795.93 980.16 1796.2 980.4L1795.85 982.464L1795.79 982.512C1795.52 982.288 1795 982.128 1794.52 982.128C1793.93 982.128 1793.28 982.416 1792.76 982.848V988H1790.49V980.144L1792.51 980L1792.76 981.6C1793.36 980.64 1794.09 980 1794.96 980ZM1807.92 976.64H1810.25L1806.41 988H1803.97L1800.11 976.64H1802.45L1805.18 985.728L1807.92 976.64ZM1812.6 978.896C1811.81 978.896 1811.24 978.384 1811.24 977.68C1811.24 976.992 1811.81 976.48 1812.6 976.48C1813.4 976.48 1813.97 976.992 1813.97 977.68C1813.97 978.384 1813.4 978.896 1812.6 978.896ZM1811.48 988V980.32L1813.73 980V988H1811.48ZM1820.89 986.096L1821.19 987.84C1820.71 988.032 1819.72 988.16 1819.13 988.16C1817.78 988.16 1816.38 987.552 1816.38 985.008V981.792H1815.11V980.16H1816.46L1817.16 978.064H1818.63V980.16H1821.05V981.792H1818.63V984.752C1818.63 985.936 1819.03 986.304 1819.7 986.304C1820.04 986.304 1820.63 986.208 1820.89 986.096ZM1827.53 986.096L1827.83 987.84C1827.35 988.032 1826.36 988.16 1825.77 988.16C1824.43 988.16 1823.02 987.552 1823.02 985.008V981.792H1821.75V980.16H1823.1L1823.8 978.064H1825.27V980.16H1827.69V981.792H1825.27V984.752C1825.27 985.936 1825.67 986.304 1826.35 986.304C1826.68 986.304 1827.27 986.208 1827.53 986.096ZM1832.64 988.16C1830.22 988.16 1828.62 986.528 1828.62 984.08C1828.62 981.632 1830.22 980 1832.62 980C1835.04 980 1836.65 981.632 1836.65 984.08C1836.65 986.528 1835.05 988.16 1832.64 988.16ZM1832.64 986.304C1833.64 986.304 1834.33 985.408 1834.33 984.08C1834.33 982.736 1833.64 981.84 1832.62 981.84C1831.6 981.84 1830.94 982.736 1830.94 984.08C1830.94 985.392 1831.64 986.304 1832.64 986.304ZM1842.78 980C1843.2 980 1843.76 980.16 1844.03 980.4L1843.68 982.464L1843.62 982.512C1843.34 982.288 1842.83 982.128 1842.35 982.128C1841.76 982.128 1841.1 982.416 1840.59 982.848V988H1838.32V980.144L1840.34 980L1840.59 981.6C1841.18 980.64 1841.92 980 1842.78 980ZM1846.39 978.896C1845.61 978.896 1845.03 978.384 1845.03 977.68C1845.03 976.992 1845.61 976.48 1846.39 976.48C1847.19 976.48 1847.77 976.992 1847.77 977.68C1847.77 978.384 1847.19 978.896 1846.39 978.896ZM1845.27 988V980.32L1847.53 980V988H1845.27ZM1853.25 988.16C1850.83 988.16 1849.23 986.528 1849.23 984.08C1849.23 981.632 1850.83 980 1853.23 980C1855.65 980 1857.26 981.632 1857.26 984.08C1857.26 986.528 1855.66 988.16 1853.25 988.16ZM1853.25 986.304C1854.25 986.304 1854.94 985.408 1854.94 984.08C1854.94 982.736 1854.25 981.84 1853.23 981.84C1852.21 981.84 1851.55 982.736 1851.55 984.08C1851.55 985.392 1852.25 986.304 1853.25 986.304Z" fill="#4E2705"/>
<path d="M1799.93 989.6H1857.85V990.4H1799.93V989.6Z" fill="#4E2705"/>
</g>
<defs>
<clipPath id="clip0_751_311">
<rect width="1920" height="1024" fill="white"/>
</clipPath>
</defs>
</svg>
