<svg width="1920" height="994" viewBox="0 0 1920 994" fill="none" xmlns="http://www.w3.org/2000/svg">
<rect width="1920" height="994" fill="#301702"/>
<rect width="1920" height="109" fill="#301702"/>
<rect width="1796" height="62" transform="translate(62 23)" fill="#301702"/>
<rect x="949.986" y="42" width="30" height="2.5" transform="rotate(45 949.986 42)" fill="#EDE0D4"/>
<rect x="948" y="63.4727" width="30" height="2.5" transform="rotate(-45 948 63.4727)" fill="#EDE0D4"/>
<path d="M873.564 369L873.275 356.209H870.529L870.24 369H854.197L859.147 299.083H884.982L889.644 369H873.564ZM870.891 343.996H872.986L872.372 320.148V312.994H871.505V320.148L870.891 343.996ZM922.633 334.457V354.33C922.633 359.654 921.26 363.544 918.514 366.001C915.792 368.434 911.709 369.65 906.265 369.65C900.58 369.65 896.352 368.241 893.582 365.423C890.812 362.58 889.427 358.052 889.427 351.837V316.318C889.427 310.104 890.824 305.563 893.618 302.696C896.437 299.83 900.688 298.396 906.373 298.396C911.841 298.396 915.912 299.601 918.586 302.01C921.284 304.395 922.633 308.369 922.633 313.934V331.639H907.312V312.019C907.312 311.079 906.963 310.609 906.265 310.609C905.614 310.609 905.301 311.079 905.325 312.019V356.064C905.325 357.052 905.674 357.546 906.373 357.546C907.023 357.546 907.337 357.052 907.312 356.064V334.385L922.633 334.457ZM957.465 334.457V354.33C957.465 359.654 956.092 363.544 953.346 366.001C950.624 368.434 946.541 369.65 941.097 369.65C935.412 369.65 931.184 368.241 928.414 365.423C925.644 362.58 924.259 358.052 924.259 351.837V316.318C924.259 310.104 925.656 305.563 928.45 302.696C931.269 299.83 935.52 298.396 941.205 298.396C946.673 298.396 950.744 299.601 953.418 302.01C956.116 304.395 957.465 308.369 957.465 313.934V331.639H942.145V312.019C942.145 311.079 941.795 310.609 941.097 310.609C940.446 310.609 940.133 311.079 940.157 312.019V356.064C940.157 357.052 940.507 357.546 941.205 357.546C941.855 357.546 942.169 357.052 942.145 356.064V334.385L957.465 334.457ZM992.586 299.083V355.812C992.586 360.461 991.129 363.941 988.214 366.254C985.323 368.566 981.18 369.723 975.784 369.723C964.872 369.723 959.428 365.086 959.452 355.812V299.083H974.845V356.064C974.845 357.052 975.182 357.546 975.856 357.546C976.651 357.546 977.049 357.052 977.049 356.064V299.083H992.586ZM1010.47 356.064H1022V369H995.007V299.083H1021.78V312.019H1010.47V327.122H1021.35V339.263H1010.47V356.064ZM1023.91 299.083H1039.38V369H1023.91V299.083ZM1057.23 356.064H1066.33V369H1041.76V299.083H1057.23V356.064Z" fill="#F1AF76"/>
<path d="M850.512 460.457V480.33C850.512 485.654 849.139 489.544 846.393 492.001C843.671 494.434 839.588 495.65 834.144 495.65C828.459 495.65 824.231 494.241 821.461 491.423C818.691 488.58 817.306 484.052 817.306 477.837V442.318C817.306 436.104 818.703 431.563 821.497 428.696C824.315 425.83 828.567 424.396 834.252 424.396C839.72 424.396 843.791 425.601 846.465 428.01C849.163 430.395 850.512 434.369 850.512 439.934V457.639H835.191V438.019C835.191 437.079 834.842 436.609 834.144 436.609C833.493 436.609 833.18 437.079 833.204 438.019V482.064C833.204 483.052 833.553 483.546 834.252 483.546C834.902 483.546 835.215 483.052 835.191 482.064V460.385L850.512 460.457ZM869.807 495L869.518 482.209H866.771L866.482 495H850.439L855.39 425.083H881.225L885.886 495H869.807ZM867.133 469.996H869.229L868.614 446.148V438.994H867.747V446.148L867.133 469.996ZM912.046 425.083V437.946H905.325V495H889.933V438.019H883.031V425.083H912.046ZM928.631 495L928.342 482.209H925.596L925.307 495H909.264L914.214 425.083H940.049L944.71 495H928.631ZM925.957 469.996H928.053L927.438 446.148V438.994H926.571V446.148L925.957 469.996ZM960.753 482.064H969.858V495H945.288V425.083H960.753V482.064ZM987.13 424.396C992.911 424.396 997.199 425.818 999.993 428.66C1002.79 431.503 1004.18 436.055 1004.18 442.318V477.837C1004.18 484.1 1002.79 488.641 999.993 491.459C997.199 494.253 992.911 495.65 987.13 495.65C981.565 495.65 977.362 494.241 974.52 491.423C971.701 488.58 970.292 484.052 970.292 477.837V442.318C970.292 436.104 971.701 431.563 974.52 428.696C977.362 425.83 981.565 424.396 987.13 424.396ZM988.25 482.137V438.019C988.25 437.031 987.901 436.537 987.202 436.537C986.528 436.537 986.19 437.031 986.19 438.019V482.137C986.19 483.076 986.504 483.546 987.13 483.546C987.877 483.546 988.25 483.076 988.25 482.137ZM1024.85 488.207C1024.15 490.929 1023.18 492.856 1021.93 493.988C1020.67 495.096 1018.76 495.65 1016.18 495.65C1012.93 495.65 1010.39 494.47 1008.56 492.109C1006.75 489.749 1005.85 486.123 1005.85 481.233V442.318C1005.85 436.055 1007.23 431.503 1010 428.66C1012.8 425.818 1017.13 424.396 1023.01 424.396C1033.66 424.396 1038.98 429.034 1038.98 438.308V454.893H1023.37V438.019C1023.37 437.079 1023.02 436.609 1022.32 436.609C1021.65 436.609 1021.31 437.079 1021.31 438.019V482.498C1021.31 483.438 1021.72 483.907 1022.54 483.907C1023.33 483.907 1023.73 483.317 1023.73 482.137V466.419H1022.79V457.169H1038.98V495H1026.98L1025.5 488.207H1024.85ZM1074.39 425.083V481.812C1074.39 486.461 1072.93 489.941 1070.02 492.254C1067.13 494.566 1062.98 495.723 1057.59 495.723C1046.68 495.723 1041.23 491.086 1041.26 481.812V425.083H1056.65V482.064C1056.65 483.052 1056.99 483.546 1057.66 483.546C1058.46 483.546 1058.85 483.052 1058.85 482.064V425.083H1074.39ZM1092.28 482.064H1103.8V495H1076.81V425.083H1103.59V438.019H1092.28V453.122H1103.15V465.263H1092.28V482.064Z" fill="#EDE0D4"/>
<path d="M853.113 549.385H848.524L840.9 543.314H848.524L853.113 549.385ZM851.018 621L850.729 608.209H847.982L847.693 621H831.65L836.601 551.083H862.436L867.097 621H851.018ZM848.344 595.996H850.439L849.825 572.148V564.994H848.958V572.148L848.344 595.996ZM898.677 601.994H894.847V621H879.382V551.083H898.749C903.181 551.083 906.626 552.42 909.083 555.094C911.564 557.743 912.805 561.429 912.805 566.15V585.987C912.805 590.733 911.54 594.587 909.011 597.55C906.506 600.513 903.061 601.994 898.677 601.994ZM895.136 589.022C896.316 589.022 896.906 588.167 896.906 586.457V566.62C896.906 564.886 896.316 564.019 895.136 564.019H894.847V589.022H895.136ZM948.251 621H932.136L930.799 597.405H929.462V621H913.997V551.083H932.931C937.869 551.083 941.506 552.251 943.843 554.588C946.179 556.924 947.348 560.237 947.348 564.524V581.471C947.348 585.084 946.517 587.999 944.854 590.215L948.251 621ZM929.462 585.915H929.823C930.955 585.915 931.521 584.783 931.521 582.519V566.692C931.521 564.91 930.955 564.019 929.823 564.019H929.462V585.915ZM965.667 550.396C971.448 550.396 975.736 551.818 978.53 554.66C981.325 557.503 982.722 562.055 982.722 568.318V603.837C982.722 610.1 981.325 614.641 978.53 617.459C975.736 620.253 971.448 621.65 965.667 621.65C960.103 621.65 955.899 620.241 953.057 617.423C950.238 614.58 948.829 610.052 948.829 603.837V568.318C948.829 562.104 950.238 557.563 953.057 554.696C955.899 551.83 960.103 550.396 965.667 550.396ZM966.787 608.137V564.019C966.787 563.031 966.438 562.537 965.739 562.537C965.065 562.537 964.728 563.031 964.728 564.019V608.137C964.728 609.076 965.041 609.546 965.667 609.546C966.414 609.546 966.787 609.076 966.787 608.137ZM1004.04 601.994H1000.21V621H984.745V551.083H1004.11C1008.54 551.083 1011.99 552.42 1014.45 555.094C1016.93 557.743 1018.17 561.429 1018.17 566.15V585.987C1018.17 590.733 1016.9 594.587 1014.37 597.55C1011.87 600.513 1008.42 601.994 1004.04 601.994ZM1000.5 589.022C1001.68 589.022 1002.27 588.167 1002.27 586.457V566.62C1002.27 564.886 1001.68 564.019 1000.5 564.019H1000.21V589.022H1000.5ZM1035.84 550.396C1041.62 550.396 1045.91 551.818 1048.7 554.66C1051.49 557.503 1052.89 562.055 1052.89 568.318V603.837C1052.89 610.1 1051.49 614.641 1048.7 617.459C1045.91 620.253 1041.62 621.65 1035.84 621.65C1030.27 621.65 1026.07 620.241 1023.23 617.423C1020.41 614.58 1019 610.052 1019 603.837V568.318C1019 562.104 1020.41 557.563 1023.23 554.696C1026.07 551.83 1030.27 550.396 1035.84 550.396ZM1036.96 608.137V564.019C1036.96 563.031 1036.61 562.537 1035.91 562.537C1035.23 562.537 1034.9 563.031 1034.9 564.019V608.137C1034.9 609.076 1035.21 609.546 1035.84 609.546C1036.58 609.546 1036.96 609.076 1036.96 608.137ZM1087.4 575.653H1072.15V563.802C1072.15 562.814 1071.8 562.32 1071.1 562.32C1070.43 562.32 1070.09 562.814 1070.09 563.802V574.822C1070.09 576.147 1070.61 577.087 1071.64 577.641L1078.44 579.122C1081.64 579.965 1084.06 581.326 1085.7 583.205C1087.36 585.06 1088.19 587.938 1088.19 591.841V606.511C1088.19 611.353 1086.72 615.098 1083.79 617.748C1080.87 620.398 1076.72 621.723 1071.32 621.723C1060.26 621.723 1054.75 617.483 1054.77 609.004V594.081H1070.16V608.209C1070.16 609.197 1070.52 609.69 1071.25 609.69C1071.95 609.69 1072.29 609.245 1072.29 608.354V594.731C1072.29 593.358 1071.63 592.419 1070.31 591.913L1065.43 590.793C1061.48 590.094 1058.64 588.649 1056.9 586.457C1055.17 584.265 1054.3 581.025 1054.3 576.737V564.994C1054.3 560.417 1055.75 556.84 1058.64 554.263C1061.53 551.685 1065.73 550.396 1071.25 550.396C1076.38 550.396 1080.35 551.517 1083.17 553.757C1085.99 555.973 1087.4 559.129 1087.4 563.224V575.653Z" fill="#EDE0D4"/>
<path d="M878.623 712.457V732.33C878.623 737.654 877.25 741.544 874.504 744.001C871.782 746.434 867.699 747.65 862.255 747.65C856.57 747.65 852.342 746.241 849.572 743.423C846.802 740.58 845.417 736.052 845.417 729.837V694.318C845.417 688.104 846.814 683.563 849.608 680.696C852.427 677.83 856.678 676.396 862.363 676.396C867.831 676.396 871.902 677.601 874.576 680.01C877.274 682.395 878.623 686.369 878.623 691.934V709.639H863.303V690.019C863.303 689.079 862.953 688.609 862.255 688.609C861.604 688.609 861.291 689.079 861.315 690.019V734.064C861.315 735.052 861.665 735.546 862.363 735.546C863.014 735.546 863.327 735.052 863.303 734.064V712.385L878.623 712.457ZM897.087 676.396C902.868 676.396 907.156 677.818 909.95 680.66C912.744 683.503 914.142 688.055 914.142 694.318V729.837C914.142 736.1 912.744 740.641 909.95 743.459C907.156 746.253 902.868 747.65 897.087 747.65C891.522 747.65 887.319 746.241 884.477 743.423C881.658 740.58 880.249 736.052 880.249 729.837V694.318C880.249 688.104 881.658 683.563 884.477 680.696C887.319 677.83 891.522 676.396 897.087 676.396ZM898.207 734.137V690.019C898.207 689.031 897.858 688.537 897.159 688.537C896.485 688.537 896.147 689.031 896.147 690.019V734.137C896.147 735.076 896.461 735.546 897.087 735.546C897.834 735.546 898.207 735.076 898.207 734.137ZM936.652 711.265L935.46 695.438V677.083H950.202V747H935.315L930.51 711.409H929.787L930.871 728.355V747H916.165V677.083H931.196L935.93 711.265H936.652ZM980.698 677.083V689.946H973.978V747H958.585V690.019H951.684V677.083H980.698ZM997.283 747L996.994 734.209H994.248L993.959 747H977.916L982.866 677.083H1008.7L1013.36 747H997.283ZM994.609 721.996H996.705L996.091 698.148V690.994H995.224V698.148L994.609 721.996ZM1046.35 712.457V732.33C1046.35 737.654 1044.98 741.544 1042.23 744.001C1039.51 746.434 1035.43 747.65 1029.98 747.65C1024.3 747.65 1020.07 746.241 1017.3 743.423C1014.53 740.58 1013.15 736.052 1013.15 729.837V694.318C1013.15 688.104 1014.54 683.563 1017.34 680.696C1020.16 677.83 1024.41 676.396 1030.09 676.396C1035.56 676.396 1039.63 677.601 1042.3 680.01C1045 682.395 1046.35 686.369 1046.35 691.934V709.639H1031.03V690.019C1031.03 689.079 1030.68 688.609 1029.98 688.609C1029.33 688.609 1029.02 689.079 1029.04 690.019V734.064C1029.04 735.052 1029.39 735.546 1030.09 735.546C1030.74 735.546 1031.06 735.052 1031.03 734.064V712.385L1046.35 712.457ZM1076.16 677.083V689.946H1069.44V747H1054.05V690.019H1047.15V677.083H1076.16Z" fill="#EDE0D4"/>
<path d="M941.225 945.903C935.026 945.903 930 951.287 930 957.928C930 964.568 935.026 969.952 941.225 969.952C947.424 969.952 952.45 964.568 952.45 957.928C952.45 951.287 947.424 945.903 941.225 945.903ZM944.031 953.919H942.768C942.265 953.919 942.16 954.141 942.16 954.699V955.923H944.031L943.836 957.928H942.16V964.942H939.354V957.928H937.483V955.923H939.354V953.611C939.354 951.838 940.225 950.913 942.187 950.913H944.031V953.919Z" fill="#EDE0D4"/>
<path d="M982.321 952.218C981.631 952.184 981.423 952.178 979.675 952.178C977.927 952.178 977.72 952.185 977.03 952.218C975.253 952.305 974.426 953.206 974.345 955.094C974.314 955.833 974.307 956.055 974.307 957.928C974.307 959.8 974.314 960.022 974.345 960.762C974.426 962.645 975.249 963.551 977.03 963.638C977.719 963.671 977.927 963.679 979.675 963.679C981.424 963.679 981.631 963.672 982.321 963.638C984.098 963.552 984.923 962.648 985.006 960.762C985.037 960.023 985.043 959.8 985.043 957.928C985.043 956.055 985.037 955.833 985.006 955.094C984.923 953.207 984.096 952.305 982.321 952.218V952.218ZM979.675 961.53C977.818 961.53 976.312 959.918 976.312 957.928C976.312 955.939 977.818 954.326 979.675 954.326C981.532 954.326 983.038 955.939 983.038 957.928C983.038 959.917 981.532 961.53 979.675 961.53ZM983.171 955.026C982.737 955.026 982.385 954.649 982.385 954.184C982.385 953.719 982.737 953.342 983.171 953.342C983.605 953.342 983.956 953.719 983.956 954.184C983.956 954.648 983.605 955.026 983.171 955.026V955.026ZM981.857 957.928C981.857 959.219 980.88 960.265 979.675 960.265C978.47 960.265 977.493 959.219 977.493 957.928C977.493 956.636 978.47 955.59 979.675 955.59C980.88 955.59 981.857 956.636 981.857 957.928ZM979.675 945.903C973.476 945.903 968.45 951.287 968.45 957.928C968.45 964.568 973.476 969.952 979.675 969.952C985.874 969.952 990.9 964.568 990.9 957.928C990.9 951.287 985.874 945.903 979.675 945.903ZM986.183 960.819C986.076 963.369 984.75 964.782 982.375 964.9C981.677 964.934 981.453 964.942 979.675 964.942C977.897 964.942 977.674 964.934 976.975 964.9C974.596 964.782 973.276 963.367 973.166 960.819C973.134 960.072 973.127 959.832 973.127 957.928C973.127 956.023 973.134 955.784 973.166 955.036C973.276 952.487 974.597 951.073 976.975 950.956C977.674 950.921 977.897 950.913 979.675 950.913C981.453 950.913 981.677 950.921 982.375 950.956C984.756 951.074 986.077 952.492 986.183 955.036C986.215 955.784 986.223 956.023 986.223 957.928C986.223 959.832 986.215 960.072 986.183 960.819Z" fill="#EDE0D4"/>
</svg>
