<svg width="14" height="15" viewBox="0 0 14 15" fill="none" xmlns="http://www.w3.org/2000/svg">
<path d="M5.56422 11.2596C5.66165 11.2054 5.75908 11.1512 5.85603 11.0967L5.85685 11.0962L5.85715 11.096C6.52323 10.7211 7.16646 10.3276 7.63003 9.78831C7.69856 9.70859 7.77669 9.61287 7.82651 9.51789C7.87765 9.42039 7.88937 9.34229 7.85762 9.28502C7.84818 9.26798 7.82947 9.25383 7.79494 9.24429C7.76006 9.23465 7.71641 9.2319 7.66888 9.23257C7.39477 9.23644 7.11302 9.33826 6.8375 9.4478C6.45614 9.59943 6.09822 9.78485 5.74443 9.98988C5.68324 10.0253 5.62096 10.0608 5.55823 10.0965C5.19504 10.3034 4.81677 10.5188 4.54786 10.7911C4.43358 10.9068 4.34345 11.057 4.29988 11.2055C4.25605 11.3548 4.26146 11.4938 4.32431 11.5957C4.34377 11.6273 4.38132 11.6475 4.44727 11.6512C4.51337 11.655 4.59646 11.6411 4.68722 11.6163C4.8236 11.5791 4.96408 11.5214 5.07378 11.4763C5.11056 11.4612 5.14388 11.4476 5.17243 11.4365C5.30855 11.384 5.42832 11.3301 5.5509 11.267L5.56422 11.2596Z" fill="#FEF1E7"/>
<path fill-rule="evenodd" clip-rule="evenodd" d="M9.27432 8.47839L8.10415 7.32362C6.79079 7.81373 5.61922 8.76342 4.66411 9.77118C4.53783 9.90441 4.41312 10.0406 4.28803 10.1772C4.02308 10.4666 3.75638 10.7578 3.4694 11.0269C3.32474 11.1625 3.18701 11.3076 3.04756 11.4545C2.99368 11.5112 2.93955 11.5682 2.88466 11.6251C2.68885 11.8279 2.48505 12.0267 2.25622 12.1933C1.89843 12.4538 1.52421 12.7031 1.15392 12.9498C1.04058 13.0253 0.92762 13.1006 0.815608 13.1758C0.655376 13.2835 0.487408 13.379 0.321934 13.4731C0.29135 13.4904 0.260851 13.5078 0.230501 13.5251C0.152619 13.5697 0.0755666 13.6145 0 13.6607V14.4609C0.154117 14.4153 0.310395 14.376 0.465597 14.3376L0.51661 14.325C0.676035 14.2856 0.833962 14.2466 0.989096 14.2018C1.21611 14.1362 1.44395 14.0781 1.6709 14.0202C2.0388 13.9264 2.40442 13.8331 2.76037 13.7096C2.88505 13.6664 3.01222 13.633 3.13675 13.6004L3.13738 13.6002L3.18295 13.5882C3.32307 13.5513 3.4597 13.5136 3.59173 13.4614C3.69281 13.4214 3.78985 13.3743 3.88897 13.3262L3.88919 13.3261L3.8894 13.326L3.88989 13.3257C3.91595 13.3131 3.94216 13.3003 3.96863 13.2877C4.09479 13.2272 4.2253 13.1685 4.36518 13.129C4.45844 13.1026 4.55435 13.0428 4.65742 12.9727C4.67306 12.962 4.68889 12.9511 4.70488 12.9401C4.79082 12.8809 4.88129 12.8186 4.97118 12.7765C5.23385 12.6535 5.49438 12.4665 5.74092 12.2896C5.76862 12.2697 5.79613 12.25 5.82346 12.2304C6.09229 12.0384 6.3868 11.8826 6.68059 11.7324C6.71711 11.7137 6.7536 11.6951 6.79004 11.6766L6.79035 11.6764C6.97366 11.5831 7.15548 11.4905 7.33127 11.3908L8.42695 10.2805C8.57176 10.0368 8.69848 9.78099 8.81922 9.53548C8.91008 9.35074 8.98761 9.15992 9.0661 8.96677L9.08133 8.92929C9.1425 8.77889 9.20474 8.62737 9.27432 8.47839ZM5.21574 11.5488C5.35456 11.4952 5.47687 11.4402 5.60103 11.3765C5.60195 11.3761 5.60288 11.3757 5.60379 11.3752C5.6045 11.3748 5.60521 11.3745 5.60591 11.3741L5.60769 11.3731C5.70542 11.3227 5.80449 11.267 5.91385 11.2023C5.96678 11.1763 6.11411 11.0896 6.1699 11.0562C6.74819 10.7206 7.30428 10.3518 7.72127 9.86675C7.78981 9.78702 7.87623 9.68215 7.93306 9.57378C7.98858 9.46793 8.02562 9.33991 7.96285 9.22668C7.93193 9.17089 7.8788 9.14263 7.82697 9.12831C7.77548 9.11408 7.71822 9.11154 7.66718 9.11226C7.36812 9.11648 7.06721 9.22699 6.79305 9.336C6.40445 9.4905 6.04103 9.67892 5.6841 9.88578C5.62472 9.92019 5.56363 9.95495 5.50157 9.99026C5.13931 10.1964 4.74394 10.4213 4.46225 10.7066C4.33485 10.8356 4.23394 11.0029 4.18442 11.1716C4.13516 11.3394 4.13462 11.5173 4.22189 11.6589C4.27054 11.7378 4.35496 11.7665 4.44046 11.7713C4.52581 11.7762 4.62365 11.7584 4.7189 11.7324C4.86333 11.6929 5.01531 11.6305 5.12554 11.5852L5.12567 11.5852C5.16034 11.5709 5.19087 11.5584 5.21574 11.5488Z" fill="#FEF1E7"/>
<path d="M7.0441 11.6818C6.9777 11.7161 6.91117 11.7499 6.84483 11.7837L6.84465 11.7838C6.80815 11.8024 6.7717 11.8209 6.73536 11.8395C6.44167 11.9897 6.15427 12.142 5.89339 12.3284C5.86615 12.3478 5.83855 12.3676 5.81063 12.3877C5.56565 12.5636 5.29568 12.7574 5.02221 12.8855C4.94218 12.923 4.86147 12.9785 4.77525 13.0378C4.75875 13.0491 4.74205 13.0606 4.72511 13.0721C4.623 13.1416 4.51231 13.2124 4.3979 13.2448C4.26848 13.2814 4.14571 13.3362 4.02062 13.3962C3.99513 13.4084 3.96947 13.4208 3.94363 13.4334C3.84401 13.4818 3.7417 13.5315 3.63599 13.5733C3.49664 13.6284 3.35382 13.6676 3.21362 13.7046C3.19815 13.7086 3.18273 13.7127 3.16735 13.7167C3.04227 13.7495 2.91979 13.7817 2.79981 13.8233C2.44049 13.948 2.06456 14.044 1.69205 14.1391C1.46614 14.1968 1.24143 14.2541 1.02249 14.3174C0.864953 14.3629 0.704702 14.4025 0.545633 14.4418L0.494497 14.4544C0.327505 14.4957 0.162023 14.5374 0 14.5865V15H2.08556C2.25521 14.7979 2.46277 14.637 2.6754 14.4943C2.90273 14.3419 3.17643 14.2632 3.45277 14.2193C3.70408 14.1793 3.962 14.1675 4.19363 14.1569C4.21661 14.1558 4.23934 14.1548 4.26177 14.1537C4.35276 14.1495 4.443 14.1463 4.53277 14.1432L4.5332 14.1432C4.5615 14.1422 4.58976 14.1412 4.61798 14.1402L7.0441 11.6818Z" fill="#FEF1E7"/>
<path d="M3.72995 15H2.2861C2.43442 14.8305 2.5687 14.7108 2.74242 14.5943C2.94927 14.4555 3.2036 14.3807 3.47166 14.3381C3.71592 14.2993 3.96713 14.2877 4.19974 14.2771L4.21544 14.2763C4.23288 14.2755 4.25021 14.2747 4.26742 14.2739C4.3428 14.2704 4.41869 14.2676 4.49489 14.265L3.72995 15Z" fill="#FEF1E7"/>
<path d="M8.73894 9.96433C8.80487 9.8371 8.8671 9.71077 8.92719 9.58858C9.02001 9.39986 9.09905 9.20531 9.17716 9.01306L9.19279 8.97462C9.24862 8.83734 9.30446 8.70138 9.36535 8.56822L9.74599 8.94385L8.73894 9.96433Z" fill="#FEF1E7"/>
<path d="M4.86065 7.74004L0 12.5134V13.5201C0.0567189 13.4863 0.113764 13.4533 0.170758 13.4207C0.201665 13.403 0.232535 13.3855 0.263333 13.368C0.428864 13.2738 0.592334 13.1809 0.748506 13.0759C0.86111 13.0003 0.974351 12.9248 1.08773 12.8493L1.08793 12.8492L1.08843 12.8488L1.08863 12.8487C1.45849 12.6023 1.82983 12.3549 2.18541 12.096C2.40549 11.9358 2.60341 11.7432 2.7981 11.5415C2.8514 11.4863 2.9046 11.4303 2.95795 11.3741C3.09828 11.2263 3.2397 11.0773 3.38711 10.9391C3.67076 10.6732 3.93207 10.3878 4.19525 10.1003C4.32111 9.96285 4.44741 9.82491 4.57678 9.68841C5.5252 8.68771 6.69336 7.73527 8.00992 7.23062L6.69786 5.93583L6.06819 6.55419C6.18385 6.59607 6.29046 6.66096 6.38139 6.76489C6.43578 6.82705 6.47788 6.90659 6.4898 6.99059C6.50196 7.07627 6.48237 7.16644 6.4135 7.24129C6.39353 7.263 6.37539 7.28622 6.3554 7.3118C6.34431 7.326 6.33265 7.34092 6.3198 7.35671C6.28624 7.39794 6.2466 7.44211 6.19792 7.4736C6.0955 7.53988 5.97328 7.58113 5.85237 7.6104C5.75334 7.63437 5.65175 7.65102 5.55997 7.66607C5.53979 7.66937 5.52009 7.6726 5.50099 7.67581C5.28675 7.71186 5.07389 7.73073 4.86065 7.74004Z" fill="#FEF1E7"/>
<path d="M4.99046 7.61256C5.15439 7.60196 5.31751 7.58467 5.48103 7.55716C5.50107 7.55379 5.52141 7.55045 5.54198 7.54708L5.54211 7.54706C5.63374 7.53202 5.72987 7.51625 5.82406 7.49346C5.93932 7.46556 6.04656 7.42823 6.13256 7.37259C6.16462 7.35184 6.19448 7.32007 6.22648 7.28075C6.23594 7.26913 6.24596 7.25633 6.25633 7.24309C6.27832 7.21501 6.30189 7.1849 6.32496 7.15983C6.36627 7.11492 6.37845 7.06229 6.37068 7.0075C6.36266 6.95103 6.33311 6.89242 6.29084 6.84412C6.20252 6.74319 6.09545 6.68487 5.97136 6.64928L4.99046 7.61256Z" fill="#FEF1E7"/>
<path d="M9.08704 10.3248L9.58681 9.82498C9.70847 10.0037 9.85221 10.1824 9.9882 10.3437C10.1961 10.5904 10.4691 10.7852 10.7411 10.9384C10.8431 10.9958 10.9518 11.048 11.0589 11.0994L11.1372 11.137L11.1828 11.1593C11.3299 11.2317 11.4702 11.3073 11.5923 11.4017C12.0598 11.7635 12.433 12.2784 12.7264 12.799C12.9284 13.1573 13.0666 13.5551 13.1903 13.9529C13.2564 14.1659 13.3555 14.3569 13.4533 14.5454L13.4556 14.5499L13.4864 14.6093L13.5129 14.661C13.5324 14.6993 13.5515 14.7376 13.57 14.7761C13.5927 14.8234 13.6057 14.8731 13.6176 14.9276L13.6332 15H12.378C12.3502 14.9744 12.3236 14.9473 12.2964 14.9192L12.2775 14.8997C12.2501 14.8713 12.2218 14.8419 12.191 14.8121C12.0584 14.6836 11.8992 14.5888 11.7469 14.4981L11.7432 14.4959C11.5876 14.4033 11.4393 14.3145 11.317 14.1959C11.0836 13.9696 10.8297 13.787 10.5577 13.6148C10.4276 13.5325 10.2881 13.4689 10.1533 13.4076L10.1301 13.397C9.98687 13.3317 9.84955 13.2676 9.72523 13.1829C9.50793 13.0349 9.2951 12.8861 9.11383 12.7026C9.04075 12.6286 8.97949 12.5422 8.91565 12.4512L8.91001 12.4432C8.84883 12.3559 8.78475 12.2645 8.70799 12.1845C8.55414 12.0244 8.43311 11.8033 8.36214 11.5909C8.31976 11.4641 8.2643 11.3357 8.20148 11.2103L8.61853 10.7933C8.64093 10.8041 8.66099 10.8142 8.67791 10.8233C8.69342 10.8315 8.70517 10.8382 8.71355 10.8433C8.72052 10.8476 8.72514 10.8508 8.72757 10.8527C9.03856 11.1077 9.29549 11.4475 9.49289 11.8024C9.5706 11.9422 9.66233 12.076 9.75163 12.2064C9.78852 12.2602 9.82495 12.3135 9.85989 12.3663C9.9401 12.4877 10.0417 12.6103 10.1363 12.7245C10.1626 12.7561 10.1882 12.7871 10.2128 12.8172C10.4915 13.1595 10.9345 13.3757 11.3685 13.3757C11.5306 13.3757 11.6776 13.3687 11.8413 13.3184C11.8655 13.311 11.8881 13.2987 11.9051 13.2788C11.9226 13.2584 11.9303 13.2346 11.9316 13.2116C11.934 13.17 11.9159 13.1286 11.8993 13.0976C11.8818 13.0648 11.859 13.0317 11.8406 13.0049L11.8402 13.0044C11.8197 12.9745 11.8071 12.9558 11.8023 12.9448C11.7343 12.7904 11.6398 12.6412 11.5493 12.4983C11.5127 12.4406 11.4769 12.3839 11.4436 12.3284L11.4118 12.2746L11.3882 12.2343C11.2944 12.074 11.1963 11.9064 11.0641 11.7663L10.9858 11.6823C10.8422 11.5277 10.6836 11.3569 10.509 11.235C10.3969 11.1567 10.2765 11.0951 10.1595 11.0364L10.1359 11.0246C10.0261 10.9695 9.91989 10.9163 9.82048 10.8518C9.5623 10.6844 9.3186 10.5133 9.08704 10.3248Z" fill="#FEF1E7"/>
<path d="M12.1823 14.9746L12.2069 15H10.4397C10.4158 14.9729 10.3904 14.9473 10.365 14.9232C10.321 14.8812 10.2742 14.8413 10.2311 14.8046L10.2267 14.8008C10.1818 14.7625 10.1418 14.7282 10.1102 14.6966C10.054 14.6406 9.99219 14.5889 9.93274 14.5391L9.88589 14.4999C9.81155 14.4369 9.74278 14.3746 9.68653 14.3028C9.57608 14.1616 9.44918 14.0353 9.32487 13.9116L9.3244 13.9111C9.27552 13.8625 9.22711 13.8143 9.18018 13.7657C9.08869 13.6709 9.00542 13.5687 8.92011 13.464L8.90703 13.4479C8.81773 13.3383 8.72585 13.2265 8.62237 13.1232C8.37186 12.873 8.12831 12.6181 7.88368 12.3621L7.70453 12.1747C7.64171 12.1091 7.56893 12.0529 7.49945 12.0001L7.487 11.9906L7.44963 11.9621L8.11163 11.3001C8.16482 11.4095 8.21158 11.5202 8.24801 11.6291C8.32337 11.8544 8.45246 12.0922 8.62119 12.2679C8.69146 12.3411 8.75091 12.4258 8.81374 12.5154L8.81718 12.5203C8.88024 12.6103 8.9469 12.7048 9.02822 12.7872C9.21872 12.98 9.44072 13.1347 9.65747 13.2824C9.79142 13.3736 9.93767 13.4415 10.0802 13.5065L10.1014 13.5161C10.2378 13.5783 10.3704 13.6387 10.4934 13.7165C10.7616 13.8863 11.008 14.0639 11.2332 14.2823C11.3667 14.4117 11.5267 14.507 11.6795 14.598L11.6816 14.5993C11.8373 14.692 11.9854 14.7805 12.1073 14.8985C12.1317 14.9221 12.1566 14.948 12.1823 14.9746Z" fill="#FEF1E7"/>
<path d="M7.36385 12.0479C7.38031 12.0606 7.3966 12.0731 7.41281 12.0853L7.4266 12.0958C7.4635 12.1239 7.49906 12.1512 7.53251 12.1793C7.56274 12.2046 7.59134 12.2305 7.61766 12.2579L7.79626 12.4447C8.04097 12.7009 8.28577 12.9571 8.53738 13.2083C8.63592 13.3067 8.7242 13.414 8.81374 13.5239L8.82917 13.5428C8.91322 13.646 8.999 13.7513 9.09362 13.8493C9.14352 13.9009 9.19342 13.9506 9.24285 13.9998L9.24481 14.0017C9.36724 14.1236 9.48608 14.2418 9.59183 14.3769C9.65598 14.459 9.73275 14.5278 9.80811 14.5917L9.85777 14.6334C9.91668 14.6826 9.97316 14.7298 10.0252 14.7817C10.0446 14.8011 10.0665 14.8211 10.0895 14.8414C10.1086 14.8582 10.1286 14.8753 10.1486 14.8924L10.1521 14.8954L10.1552 14.898C10.1941 14.9312 10.2337 14.965 10.2711 15H9.34492L6.8984 12.5134L7.36385 12.0479Z" fill="#FEF1E7"/>
<path d="M9.0015 10.4103L8.7083 10.7035L8.73438 10.717C8.76235 10.7319 8.78812 10.7468 8.80379 10.7597C9.12958 11.0267 9.39544 11.3797 9.59802 11.7439C9.6729 11.8786 9.75954 12.005 9.84743 12.1333C9.88503 12.1882 9.92295 12.2435 9.96023 12.3C10.0365 12.4154 10.1324 12.5311 10.2264 12.6446L10.2734 12.7015L10.3061 12.7413C10.5628 13.0565 10.972 13.2553 11.3685 13.2553C11.5271 13.2553 11.6598 13.2483 11.806 13.2034L11.8114 13.2015C11.8106 13.1939 11.8062 13.1787 11.7932 13.1544C11.788 13.1446 11.782 13.1346 11.7757 13.1245C11.7707 13.1165 11.7654 13.1084 11.76 13.1002L11.7382 13.0683C11.7294 13.0555 11.7198 13.0417 11.7114 13.0282C11.7037 13.016 11.6969 13.004 11.6922 12.9933C11.628 12.8476 11.5412 12.7107 11.4528 12.571L11.431 12.5365L11.3981 12.4842L11.3681 12.436L11.3404 12.3901C11.3207 12.3572 11.3015 12.3243 11.2824 12.2918C11.1885 12.1317 11.0985 11.9781 10.9766 11.8488C10.9497 11.8202 10.9226 11.7911 10.8954 11.7619C10.7514 11.6069 10.6031 11.4475 10.4402 11.3337C10.3361 11.261 10.223 11.2028 10.1055 11.1439L10.0808 11.1315L10.0798 11.131C9.97159 11.0768 9.85989 11.0208 9.755 10.9528C9.49093 10.7815 9.24034 10.6054 9.0015 10.4103Z" fill="#FEF1E7"/>
<path d="M13.6765 12.754V14.72C13.6365 14.6368 13.5955 14.5577 13.5551 14.48C13.4594 14.2956 13.3681 14.1194 13.3052 13.9172C13.181 13.518 13.0398 13.11 12.8312 12.7399C12.534 12.2125 12.1514 11.6821 11.666 11.3066C11.5339 11.2044 11.3847 11.1245 11.2359 11.0513C11.1927 11.0301 11.1499 11.0095 11.1074 10.9891C11.0016 10.9384 10.8984 10.8889 10.8002 10.8336C10.535 10.6842 10.2754 10.4978 10.0802 10.2662C9.9401 10.1 9.79416 9.91802 9.67345 9.73835L10.1872 9.2246L13.6765 12.754Z" fill="#FEF1E7"/>
<path d="M6.57754 12.754L7.00853 13.2094L6.99937 13.2196C6.99412 13.2252 6.98903 13.2304 6.98401 13.2352C6.87027 13.3435 6.74619 13.4116 6.60143 13.4909L6.54934 13.5196C6.49513 13.5495 6.43466 13.5746 6.37003 13.5997L6.321 13.6186C6.29366 13.629 6.26569 13.6397 6.23781 13.6508L6.19464 13.6684L6.17216 13.678C6.04072 13.7353 5.90935 13.812 5.82616 13.9505C5.7924 14.0068 5.7718 14.0664 5.75386 14.1211L5.74791 14.1395L5.74767 14.1402L5.73584 14.1761L5.7266 14.2027C5.7237 14.2109 5.72072 14.2191 5.71759 14.2271C5.71234 14.2406 5.70678 14.2539 5.70067 14.267L5.69644 14.2758C5.68218 14.3049 5.66605 14.334 5.64866 14.3655C5.63542 14.3894 5.62147 14.4147 5.60698 14.4422C5.57573 14.5017 5.54479 14.5678 5.53163 14.631C5.51228 14.7244 5.49669 14.8068 5.49669 14.9083C5.49669 14.9192 5.49763 14.931 5.49826 14.9397L5.49865 14.9454L5.49873 14.9464C5.4764 14.9544 5.46019 14.9752 5.45893 15H4.81479L4.81855 14.991C4.8256 14.9747 4.83336 14.9584 4.84182 14.941L4.8444 14.9355L4.84558 14.9332C4.85513 14.9134 4.8654 14.8921 4.8744 14.8704C4.94389 14.7036 4.99794 14.5297 5.0364 14.3522L6.57754 12.754Z" fill="#FEF1E7"/>
<path d="M4.86806 14.5268L4.41176 15H4.68711C4.69306 14.9801 4.70042 14.9613 4.70802 14.9436C4.71687 14.9229 4.72667 14.9027 4.73575 14.8839L4.73724 14.8808C4.74695 14.8607 4.75581 14.8423 4.76333 14.8241C4.80367 14.7273 4.83861 14.628 4.86806 14.5268Z" fill="#FEF1E7"/>
<path d="M7.98496 15H6.51597C6.62376 14.7082 6.77439 14.4598 6.99811 14.2192C7.1052 14.104 7.29069 14.0058 7.44423 13.9315C7.50196 13.9036 7.56055 13.8784 7.61993 13.8554L8.32713 14.6026C8.30151 14.6348 8.27386 14.6666 8.24503 14.6986L8.19842 14.7498C8.15722 14.7947 8.11476 14.841 8.07622 14.8882L8.05272 14.9164C8.03259 14.9403 8.00831 14.9693 7.98496 15Z" fill="#FEF1E7"/>
<path d="M8.13967 15H8.70321L8.41055 14.6908C8.3858 14.7213 8.36003 14.7506 8.33441 14.7792L8.28475 14.8337C8.24448 14.8776 8.20571 14.9199 8.16952 14.9643L8.14179 14.9975C8.14108 14.9983 8.14038 14.9992 8.13967 15Z" fill="#FEF1E7"/>
<path d="M6.90999 14.1373C6.6641 14.4018 6.50187 14.6763 6.38813 15H5.61348L5.61607 14.9909C5.61693 14.9872 5.61756 14.9837 5.61803 14.9805C5.62038 14.9644 5.61944 14.9483 5.61873 14.9374L5.61803 14.9281L5.61779 14.9252C5.61732 14.9187 5.61701 14.9136 5.61701 14.9083C5.61701 14.8625 5.62061 14.8211 5.62672 14.779C5.63025 14.7543 5.63471 14.7293 5.6398 14.7031L5.64944 14.6554C5.65892 14.6099 5.68289 14.5565 5.71352 14.4981C5.72503 14.4762 5.73811 14.4525 5.7512 14.4287C5.77039 14.394 5.78974 14.359 5.80446 14.3289C5.82914 14.2786 5.84621 14.2264 5.86165 14.1788L5.86235 14.1767L5.86823 14.1585C5.88609 14.1041 5.90316 14.056 5.92933 14.0124C5.99293 13.9064 6.09602 13.8425 6.22026 13.7883C6.24439 13.7778 6.26883 13.7678 6.29358 13.7581L6.33572 13.7417L6.36173 13.7318L6.41359 13.7119C6.47907 13.6865 6.54581 13.659 6.60754 13.6249L6.65971 13.5962C6.80298 13.5178 6.94117 13.4421 7.06705 13.3223C7.0723 13.3173 7.07754 13.312 7.08287 13.3065L7.09157 13.2971L7.53094 13.7614C7.4841 13.7805 7.43765 13.801 7.39182 13.8232C7.24071 13.8963 7.0347 14.0031 6.90999 14.1373Z" fill="#FEF1E7"/>
<path d="M9.49952 3.1367L7.05882 5.61497L13.6765 12.1524L13.6648 10.6365C13.5171 10.514 13.3739 10.3751 13.2322 10.2291C13.1575 10.1521 13.0139 10.0491 12.822 9.92786C12.6315 9.80756 12.3986 9.67225 12.1491 9.53042C12.0387 9.46769 11.9251 9.40368 11.8107 9.33918C11.4088 9.11274 10.9961 8.88019 10.6757 8.67591C10.2189 8.38465 9.83136 8.10928 9.47775 7.66271C9.04741 7.11925 8.72367 6.27136 8.88633 5.53763C8.95144 5.24389 9.15619 5.02719 9.40054 4.88518C9.64463 4.74332 9.93373 4.67246 10.1804 4.67246C10.5108 4.67246 10.7277 4.79583 10.9777 4.93799C11.0337 4.96985 11.0914 5.00265 11.1524 5.03522C11.4735 5.20673 11.7636 5.43697 12.0327 5.68418C12.2604 5.89335 12.4742 6.12141 12.6862 6.34752C12.7323 6.39677 12.7784 6.44594 12.8246 6.49479C13.0834 6.76889 13.3442 7.03427 13.6335 7.2598L13.6388 7.26397L13.6334 6.55341L11.9547 4.91988C11.536 4.77191 11.1361 4.5776 10.7847 4.3026C10.6456 4.19375 10.5238 4.07056 10.406 3.94946L10.3811 3.92393C10.2713 3.8109 10.1641 3.70069 10.0457 3.60161C10.0029 3.5658 9.96077 3.52903 9.91889 3.49244C9.79939 3.38804 9.62792 3.21178 9.49952 3.1367Z" fill="#FEF1E7"/>
<path d="M11.737 4.70801L9.81265 2.81436L9.58556 3.04813C9.71668 3.12913 9.89202 3.30888 10.0059 3.40845C10.0458 3.44338 10.0848 3.47746 10.1229 3.50931C10.2463 3.61256 10.3576 3.72707 10.4666 3.83922L10.4922 3.86555C10.6102 3.98684 10.7269 4.10459 10.8589 4.20785C11.1262 4.41709 11.4232 4.5784 11.737 4.70801Z" fill="#FEF1E7"/>
<path d="M13.6547 9.32629L13.6636 10.4772C13.5482 10.376 13.4337 10.264 13.3186 10.1453C13.2327 10.0568 13.0777 9.94709 12.8862 9.82614C12.6933 9.70424 12.4582 9.56776 12.2085 9.42581C12.0971 9.36247 11.9828 9.29806 11.8679 9.2333L11.8678 9.23326L11.8677 9.23319C11.4663 9.00701 11.0577 8.7768 10.7404 8.57445C10.2867 8.28517 9.91293 8.01848 9.57208 7.58802C9.15559 7.06205 8.85156 6.25041 9.00379 5.56367C9.05953 5.31225 9.23607 5.11993 9.46099 4.98921C9.68617 4.85835 9.95431 4.79278 10.1804 4.79278C10.4765 4.79278 10.6626 4.89819 10.9095 5.03807C10.9675 5.07091 11.0288 5.10564 11.0957 5.14135C11.4044 5.30622 11.686 5.5291 11.9513 5.77279C12.1754 5.97863 12.3854 6.2027 12.5973 6.42865L12.5975 6.42886L12.5977 6.42907C12.644 6.47848 12.6904 6.52798 12.7371 6.57739C12.9963 6.85197 13.2625 7.12312 13.5595 7.35469C13.5861 7.37545 13.613 7.39585 13.64 7.4159L13.6449 8.05329C13.5681 8.0128 13.49 7.97371 13.4104 7.93634C13.1526 7.81525 12.9077 7.69528 12.7005 7.52688C12.6603 7.49426 12.62 7.462 12.5797 7.42984L12.5797 7.42978C12.4261 7.30699 12.2743 7.18565 12.1428 7.05146C12.0877 6.99511 12.0381 6.9374 11.9871 6.87809C11.9575 6.84368 11.9275 6.80872 11.8956 6.77317C11.8389 6.70989 11.7755 6.6505 11.7142 6.59301C11.6858 6.56637 11.6578 6.54013 11.6311 6.5141C11.6087 6.4923 11.5862 6.4694 11.5632 6.44604C11.5058 6.38761 11.4455 6.32632 11.3777 6.27213C11.2868 6.19937 11.1827 6.15658 11.0824 6.11535L11.0617 6.10682C11.0101 6.08547 10.9592 6.06303 10.9083 6.04058C10.7274 5.9608 10.5462 5.8809 10.3285 5.84997C10.3133 5.84781 10.2978 5.84553 10.282 5.84322L10.2819 5.84321C10.1901 5.82972 10.0897 5.81498 9.99293 5.81486C9.95895 5.81481 9.9324 5.82488 9.91105 5.83634C9.90109 5.84169 9.89187 5.84757 9.88454 5.85224L9.88437 5.85235C9.87647 5.85739 9.87037 5.86128 9.86406 5.86477C9.7737 5.91478 9.72398 5.98517 9.7074 6.0674C9.69154 6.14607 9.70731 6.22908 9.73281 6.30552C9.77779 6.44034 9.87877 6.55605 9.98892 6.65575C10.0697 6.72886 10.1602 6.79741 10.2429 6.86001L10.2431 6.86013C10.2729 6.88272 10.3017 6.90453 10.3287 6.92551C10.4737 7.03833 10.6255 7.14663 10.7896 7.24212C10.8089 7.25338 10.828 7.26423 10.8467 7.27491C10.9147 7.31364 10.9785 7.35 11.0366 7.39434C11.0777 7.42567 11.1167 7.45891 11.1572 7.49337L11.1662 7.50108C11.2095 7.53791 11.2545 7.57591 11.303 7.61154C11.3526 7.64807 11.4018 7.68238 11.4502 7.71615C11.5375 7.77713 11.6224 7.83639 11.7035 7.9038C11.841 8.01822 11.9682 8.13973 12.097 8.26278L12.0974 8.26317C12.1469 8.31046 12.1966 8.35799 12.2473 8.40543C12.4286 8.57523 12.6194 8.74149 12.8442 8.88079C12.9942 8.97377 13.1512 9.05773 13.3071 9.14003L13.3538 9.16461C13.4552 9.21809 13.556 9.27118 13.6547 9.32629Z" fill="#FEF1E7"/>
<path d="M13.6537 9.18825L13.646 8.19021C13.5522 8.13959 13.4568 8.09108 13.3593 8.04525C13.1023 7.92457 12.8448 7.79912 12.6246 7.62027C12.5862 7.58907 12.547 7.55777 12.5075 7.5262C12.3533 7.40291 12.194 7.27561 12.0569 7.13565C11.9994 7.07697 11.9448 7.01348 11.8918 6.95186L11.8917 6.95171L11.8916 6.95164C11.8627 6.91801 11.8342 6.88493 11.806 6.85349C11.7528 6.79406 11.696 6.74091 11.6369 6.68551C11.6075 6.658 11.5775 6.62992 11.5471 6.60026C11.5208 6.57464 11.4961 6.54955 11.472 6.52503C11.4167 6.46879 11.3644 6.41558 11.3026 6.3661C11.2255 6.30448 11.1366 6.2678 11.0324 6.22487L11.0158 6.21803C10.9585 6.19437 10.9041 6.17041 10.8511 6.1471C10.673 6.06867 10.5113 5.99747 10.3115 5.96909C10.2953 5.96678 10.279 5.9644 10.2628 5.96203C10.1706 5.94854 10.08 5.93529 9.99277 5.93518C9.98444 5.93516 9.97763 5.93717 9.96796 5.94236C9.96249 5.94529 9.95686 5.94883 9.94905 5.95381L9.94798 5.9545C9.94089 5.95901 9.93198 5.9647 9.92232 5.97004C9.86051 6.00426 9.83444 6.04609 9.82535 6.09118C9.81554 6.13984 9.8242 6.19925 9.84695 6.26744C9.88199 6.37248 9.96426 6.47113 10.0697 6.56654C10.1462 6.63582 10.2302 6.69942 10.3116 6.76105C10.3425 6.78442 10.373 6.80753 10.4026 6.83054C10.545 6.94137 10.6922 7.04624 10.8501 7.13814C10.8672 7.14805 10.8847 7.15802 10.9024 7.16814C10.9714 7.20738 11.0444 7.24894 11.1096 7.29866C11.1533 7.33206 11.1947 7.36732 11.2347 7.40138L11.2442 7.40946C11.2876 7.44638 11.3296 7.48181 11.3742 7.51459C11.4188 7.54735 11.4655 7.58 11.5129 7.61309C11.6032 7.67622 11.6959 7.741 11.7804 7.8113C11.9213 7.92856 12.0531 8.0544 12.1829 8.17847C12.2319 8.22528 12.2806 8.27184 12.3295 8.31759C12.5091 8.48577 12.693 8.64555 12.9075 8.77851C13.0537 8.86906 13.2073 8.95129 13.3633 9.03362L13.41 9.05824C13.4911 9.10099 13.5728 9.144 13.6537 9.18825Z" fill="#FEF1E7"/>
<path d="M7.54011 0.601604L7.98128 1.04278C7.58463 1.30332 7.21066 1.58282 6.85315 1.8826C6.57966 2.11192 6.34174 2.38413 6.11208 2.64786C6.08497 2.67899 6.05566 2.71146 6.0253 2.7451L6.02516 2.74525C5.95056 2.8279 5.86962 2.91757 5.79948 3.0115C5.69987 3.14491 5.61504 3.29542 5.59205 3.4647C5.58656 3.50512 5.59249 3.54205 5.60943 3.57439C5.626 3.60601 5.65089 3.62905 5.67673 3.64616C5.72321 3.67693 5.78303 3.69463 5.82814 3.70797L5.83635 3.7104C5.91504 3.73379 6.01918 3.73699 6.11618 3.73369C6.21294 3.7304 6.30969 3.72028 6.37935 3.71298L6.38331 3.71257C6.6722 3.68234 6.87096 3.56561 7.09583 3.43355C7.13269 3.4119 7.17026 3.38984 7.20903 3.36769C7.51275 3.19413 7.74255 3.03089 7.9523 2.87723C7.98055 2.85653 8.00841 2.83603 8.036 2.81573C8.21363 2.68502 8.38047 2.56224 8.5741 2.44438C8.70439 2.36508 8.78815 2.29599 8.97244 2.22026L8.98168 2.21646C9.02246 2.1997 9.06355 2.18282 9.10428 2.16578L9.46524 2.52674L8.07355 3.94611C7.88969 4.04064 7.74054 4.12005 7.55427 4.21923L7.55415 4.21929C7.33652 4.33517 7.06813 4.47807 6.6346 4.70354C6.41574 4.77334 6.18377 4.87986 5.95636 4.98789C5.92316 5.00365 5.89007 5.01945 5.85713 5.03518C5.66112 5.12875 5.47006 5.21996 5.29105 5.28898C4.33477 5.65771 3.40836 6.13562 2.54799 6.68949C2.14874 6.9465 1.77753 7.2408 1.4137 7.5411C1.32088 7.61772 1.22861 7.69466 1.13649 7.77149C0.866716 7.99645 0.598167 8.22039 0.32039 8.43222C0.218615 8.50983 0.116651 8.58728 0.0145388 8.66461L0.00421279 7.35321C0.871313 6.94444 1.71367 6.45582 2.47565 5.88198C2.98676 5.49705 3.46818 5.07145 3.8903 4.5871C4.10059 4.34582 4.29727 4.09219 4.49253 3.84038C4.55306 3.76233 4.61344 3.68446 4.67406 3.60718C5.22736 2.90179 5.82797 2.23497 6.44208 1.57955C6.79594 1.20188 7.1398 0.87811 7.54011 0.601604Z" fill="#FEF1E7"/>
<path d="M0.0157199 8.81461L0.023369 9.78604C0.209598 9.76208 0.391434 9.71862 0.548273 9.64162C1.02536 9.40739 1.35678 9.09155 1.66494 8.76092C1.72454 8.69699 1.78342 8.63229 1.84243 8.56745L1.84251 8.56737C2.08712 8.29861 2.33388 8.02749 2.64206 7.7984C2.86052 7.63601 3.09622 7.50123 3.32984 7.36972L3.37324 7.3453C3.59306 7.22168 3.81003 7.09965 4.01365 6.95712C4.14197 6.8673 4.27032 6.77672 4.39884 6.68601L4.39906 6.68586C4.69413 6.47761 4.99014 6.2687 5.28891 6.06676C5.70869 5.78302 6.14693 5.57225 6.59257 5.35792C6.62955 5.34013 6.66659 5.32232 6.70366 5.30444L7.78375 4.23347C7.72896 4.26253 7.67272 4.29248 7.61254 4.32453L7.61236 4.32462C7.39438 4.44069 7.12468 4.58431 6.68551 4.81268L6.68088 4.81508L6.67592 4.81666C6.46443 4.88363 6.2375 4.98754 6.00798 5.09657C5.97526 5.11211 5.94247 5.12777 5.90968 5.14343C5.71399 5.23686 5.51809 5.33039 5.33433 5.40125C4.38616 5.76685 3.46704 6.24095 2.61311 6.79066C2.22006 7.04369 1.8533 7.33427 1.49029 7.6339C1.39857 7.7096 1.30702 7.78595 1.21533 7.86241L1.21516 7.86256C0.944844 8.08797 0.673398 8.31433 0.393351 8.5279C0.267607 8.62379 0.141714 8.71933 0.0157199 8.81461Z" fill="#FEF1E7"/>
<path d="M0.024323 9.9072L0.0303671 10.6748C0.155224 10.7613 0.248527 10.84 0.313458 10.9122C0.413411 11.0233 0.457988 11.1331 0.420842 11.2365C0.385808 11.334 0.285974 11.3992 0.170077 11.4462C0.1294 11.4627 0.0847194 11.4777 0.036798 11.4915L0.0401069 11.9118L6.44145 5.56444C6.06765 5.74582 5.70578 5.93021 5.35629 6.16645C5.05858 6.36767 4.76423 6.57541 4.46964 6.78331C4.34081 6.87424 4.21187 6.96524 4.08265 7.05569C3.87398 7.20176 3.65211 7.32652 3.43344 7.44949L3.38886 7.47457C3.15485 7.6063 2.9254 7.7377 2.71385 7.89496C2.41592 8.11643 2.1788 8.37685 1.93487 8.64475C1.87498 8.71052 1.81467 8.77675 1.75296 8.84296C1.44142 9.17722 1.09807 9.50573 0.601299 9.74963C0.425216 9.83607 0.224159 9.88254 0.024323 9.9072Z" fill="#FEF1E7"/>
<path d="M0.0358114 11.3662L0.0315392 10.8237C0.115448 10.8861 0.178663 10.9422 0.224009 10.9926C0.313941 11.0926 0.321955 11.1559 0.307609 11.1958C0.291152 11.2416 0.235413 11.2899 0.124869 11.3347C0.097485 11.3458 0.0677215 11.3563 0.0358114 11.3662Z" fill="#FEF1E7"/>
<path d="M8.0615 1.12299L9.02512 2.0922C8.99932 2.10287 8.97328 2.11358 8.9471 2.12433L8.94702 2.12436L8.94385 2.12567C8.76228 2.20028 8.6516 2.25635 8.51154 2.3416C8.31306 2.46241 8.1417 2.58853 7.96427 2.71912C7.93677 2.73936 7.90911 2.75971 7.88119 2.78017C7.67276 2.93287 7.44722 3.093 7.14934 3.26322C7.10865 3.28647 7.06995 3.30913 7.03262 3.33099L7.03244 3.33109L7.03228 3.33119C6.80726 3.46296 6.63206 3.56556 6.37078 3.5929L6.36802 3.59319C6.29782 3.60054 6.20459 3.6103 6.11209 3.61344C6.01679 3.61668 5.92937 3.61253 5.87064 3.59507L5.87029 3.59497C5.81858 3.57959 5.77422 3.56641 5.74316 3.54584C5.72876 3.5363 5.72052 3.52716 5.71601 3.51855C5.71187 3.51066 5.70878 3.49931 5.71128 3.48089C5.73029 3.34089 5.80153 3.20987 5.89589 3.08349C5.96252 2.99426 6.03721 2.91152 6.11029 2.83059C6.14168 2.79581 6.17279 2.76136 6.20282 2.72688C6.4334 2.46209 6.66536 2.19709 6.93046 1.9748C7.29134 1.6722 7.66005 1.38543 8.0615 1.12299Z" fill="#FEF1E7"/>
<path d="M7.44824 0.520564L6.89296 0L4.35786 2.47874C4.24084 2.85338 4.08542 3.1878 3.78976 3.4862C3.37919 3.90057 2.78055 4.40126 2.14479 4.67339L0 6.81818L0.00316845 7.22057C0.846281 6.81964 1.66355 6.34294 2.40326 5.78586C2.90945 5.40465 3.38424 4.98462 3.79959 4.50805C4.00741 4.26961 4.20117 4.01974 4.39598 3.76853L4.39616 3.7683L4.39625 3.76818L4.3965 3.76786C4.4572 3.68959 4.51803 3.61115 4.57939 3.53293C5.1359 2.82344 5.73928 2.15365 6.35428 1.49728C6.70554 1.12238 7.04781 0.800108 7.44824 0.520564Z" fill="#FEF1E7"/>
<path d="M2.40749 4.41069C2.90625 4.13596 3.36726 3.74167 3.70429 3.40151C3.92301 3.18076 4.06111 2.93845 4.16565 2.66668L3.52941 3.28877L2.40749 4.41069Z" fill="#FEF1E7"/>
</svg>
