<svg width="377" height="52" viewBox="0 0 377 52" fill="none" xmlns="http://www.w3.org/2000/svg">
<path d="M0.48 51V4.92H14.688C15.1573 4.92 15.9787 4.93067 17.152 4.952C18.3253 4.97333 19.4453 5.05866 20.512 5.208C24.0747 5.67733 27.0507 6.97867 29.44 9.112C31.8507 11.224 33.664 13.912 34.88 17.176C36.096 20.44 36.704 24.0347 36.704 27.96C36.704 31.8853 36.096 35.48 34.88 38.744C33.664 42.008 31.8507 44.7067 29.44 46.84C27.0507 48.952 24.0747 50.2427 20.512 50.712C19.4453 50.84 18.3147 50.9253 17.12 50.968C15.9467 50.9893 15.136 51 14.688 51H0.48ZM6.336 45.56H14.688C15.4987 45.56 16.4053 45.5387 17.408 45.496C18.4107 45.432 19.2853 45.336 20.032 45.208C22.5493 44.7387 24.5867 43.6827 26.144 42.04C27.7013 40.3973 28.8427 38.3493 29.568 35.896C30.2933 33.4427 30.656 30.7973 30.656 27.96C30.656 25.0587 30.2827 22.3813 29.536 19.928C28.8107 17.4747 27.6693 15.4373 26.112 13.816C24.5547 12.1947 22.528 11.16 20.032 10.712C19.2853 10.5627 18.4 10.4667 17.376 10.424C16.352 10.3813 15.456 10.36 14.688 10.36H6.336V45.56ZM61.7705 11.16H57.1305L61.3225 0.599998H65.9625L61.7705 11.16ZM59.0185 51.96C55.6265 51.96 52.6612 51.2133 50.1225 49.72C47.6052 48.2053 45.6425 46.104 44.2345 43.416C42.8265 40.7067 42.1225 37.5493 42.1225 33.944C42.1225 30.168 42.8158 26.904 44.2025 24.152C45.5892 21.3787 47.5198 19.2453 49.9945 17.752C52.4905 16.2373 55.4132 15.48 58.7625 15.48C62.2398 15.48 65.1945 16.28 67.6265 17.88C70.0798 19.48 71.9145 21.7627 73.1305 24.728C74.3678 27.6933 74.9012 31.224 74.7305 35.32H68.9705V33.272C68.9065 29.0267 68.0425 25.8587 66.3785 23.768C64.7145 21.656 62.2398 20.6 58.9545 20.6C55.4345 20.6 52.7572 21.7307 50.9225 23.992C49.0878 26.2533 48.1705 29.496 48.1705 33.72C48.1705 37.7947 49.0878 40.952 50.9225 43.192C52.7572 45.432 55.3705 46.552 58.7625 46.552C61.0452 46.552 63.0292 46.0293 64.7145 44.984C66.3998 43.9387 67.7225 42.4347 68.6825 40.472L74.1545 42.36C72.8105 45.4107 70.7838 47.7787 68.0745 49.464C65.3865 51.128 62.3678 51.96 59.0185 51.96ZM46.2505 35.32V30.744H71.7865V35.32H46.2505ZM96.415 51.96C92.9163 51.96 89.9403 51.1813 87.487 49.624C85.055 48.0453 83.199 45.88 81.919 43.128C80.639 40.376 79.9777 37.24 79.935 33.72C79.9777 30.1147 80.6497 26.9467 81.951 24.216C83.2737 21.464 85.1617 19.32 87.615 17.784C90.0683 16.248 93.023 15.48 96.479 15.48C100.127 15.48 103.263 16.376 105.887 18.168C108.532 19.96 110.303 22.4133 111.199 25.528L105.567 27.224C104.842 25.2187 103.658 23.6613 102.015 22.552C100.394 21.4427 98.527 20.888 96.415 20.888C94.047 20.888 92.095 21.4427 90.559 22.552C89.023 23.64 87.8817 25.1547 87.135 27.096C86.3883 29.016 86.0043 31.224 85.983 33.72C86.0257 37.56 86.911 40.664 88.639 43.032C90.3883 45.3787 92.9803 46.552 96.415 46.552C98.6763 46.552 100.554 46.04 102.047 45.016C103.54 43.9707 104.671 42.4667 105.439 40.504L111.199 42.008C110.004 45.2293 108.138 47.6933 105.599 49.4C103.06 51.1067 99.999 51.96 96.415 51.96ZM131.513 51.96C128.078 51.96 125.113 51.1813 122.617 49.624C120.142 48.0667 118.233 45.912 116.889 43.16C115.545 40.408 114.873 37.2507 114.873 33.688C114.873 30.0613 115.555 26.8827 116.921 24.152C118.286 21.4213 120.217 19.2987 122.713 17.784C125.209 16.248 128.142 15.48 131.513 15.48C134.969 15.48 137.945 16.2587 140.441 17.816C142.937 19.352 144.846 21.496 146.169 24.248C147.513 26.9787 148.185 30.1253 148.185 33.688C148.185 37.2933 147.513 40.472 146.169 43.224C144.825 45.9547 142.905 48.0987 140.409 49.656C137.913 51.192 134.947 51.96 131.513 51.96ZM131.513 46.552C135.097 46.552 137.763 45.3573 139.513 42.968C141.262 40.5787 142.137 37.4853 142.137 33.688C142.137 29.784 141.251 26.68 139.481 24.376C137.71 22.0507 135.054 20.888 131.513 20.888C129.102 20.888 127.118 21.432 125.561 22.52C124.003 23.608 122.841 25.112 122.073 27.032C121.305 28.952 120.921 31.1707 120.921 33.688C120.921 37.5707 121.817 40.6853 123.609 43.032C125.401 45.3787 128.035 46.552 131.513 46.552ZM155.23 51V16.44H160.318V24.792L159.486 23.704C159.891 22.6373 160.414 21.656 161.054 20.76C161.715 19.864 162.451 19.128 163.262 18.552C164.158 17.8267 165.171 17.272 166.302 16.888C167.433 16.504 168.585 16.28 169.758 16.216C170.931 16.1307 172.03 16.2053 173.054 16.44V21.784C171.859 21.464 170.547 21.3787 169.118 21.528C167.689 21.6773 166.366 22.2 165.15 23.096C164.041 23.8853 163.177 24.8453 162.558 25.976C161.961 27.1067 161.545 28.3333 161.31 29.656C161.075 30.9573 160.958 32.2907 160.958 33.656V51H155.23ZM203.79 51V10.328H188.078V4.92H225.198V10.328H209.486V51H203.79ZM235.617 51.96C233.035 51.96 230.87 51.4907 229.121 50.552C227.393 49.592 226.081 48.3333 225.185 46.776C224.31 45.2187 223.873 43.512 223.873 41.656C223.873 39.8427 224.214 38.2747 224.897 36.952C225.601 35.608 226.582 34.4987 227.841 33.624C229.099 32.728 230.603 32.024 232.353 31.512C233.995 31.064 235.83 30.68 237.857 30.36C239.905 30.0187 241.974 29.7093 244.065 29.432C246.155 29.1547 248.107 28.888 249.921 28.632L247.873 29.816C247.937 26.744 247.318 24.472 246.017 23C244.737 21.528 242.518 20.792 239.361 20.792C237.27 20.792 235.435 21.272 233.857 22.232C232.299 23.1707 231.201 24.7067 230.561 26.84L225.153 25.208C225.985 22.1787 227.595 19.8 229.985 18.072C232.374 16.344 235.521 15.48 239.425 15.48C242.561 15.48 245.249 16.0453 247.489 17.176C249.75 18.2853 251.371 19.9707 252.353 22.232C252.843 23.2987 253.153 24.4613 253.281 25.72C253.409 26.9573 253.472 28.2587 253.472 29.624V51H248.417V42.712L249.601 43.48C248.299 46.2747 246.475 48.3867 244.129 49.816C241.803 51.2453 238.966 51.96 235.617 51.96ZM236.481 47.192C238.529 47.192 240.299 46.8293 241.793 46.104C243.307 45.3573 244.523 44.3867 245.441 43.192C246.358 41.976 246.955 40.6533 247.233 39.224C247.553 38.1573 247.723 36.9733 247.745 35.672C247.787 34.3493 247.809 33.336 247.809 32.632L249.793 33.496C247.937 33.752 246.113 33.9973 244.321 34.232C242.529 34.4667 240.833 34.7227 239.233 35C237.633 35.256 236.193 35.5653 234.913 35.928C233.974 36.2267 233.089 36.6107 232.257 37.08C231.446 37.5493 230.785 38.1573 230.273 38.904C229.782 39.6293 229.536 40.536 229.536 41.624C229.536 42.5627 229.771 43.4587 230.241 44.312C230.731 45.1653 231.478 45.8587 232.481 46.392C233.505 46.9253 234.838 47.192 236.481 47.192ZM274.605 51V4.92H280.301V26.552L300.461 4.92H307.629L286.701 27.288L309.261 51H301.901L280.301 28.472V51H274.605ZM323.554 51.96C320.973 51.96 318.807 51.4907 317.058 50.552C315.33 49.592 314.018 48.3333 313.122 46.776C312.247 45.2187 311.81 43.512 311.81 41.656C311.81 39.8427 312.151 38.2747 312.834 36.952C313.538 35.608 314.519 34.4987 315.778 33.624C317.037 32.728 318.541 32.024 320.29 31.512C321.933 31.064 323.767 30.68 325.794 30.36C327.842 30.0187 329.911 29.7093 332.002 29.432C334.093 29.1547 336.045 28.888 337.858 28.632L335.81 29.816C335.874 26.744 335.255 24.472 333.954 23C332.674 21.528 330.455 20.792 327.298 20.792C325.207 20.792 323.373 21.272 321.794 22.232C320.237 23.1707 319.138 24.7067 318.498 26.84L313.09 25.208C313.922 22.1787 315.533 19.8 317.922 18.072C320.311 16.344 323.458 15.48 327.362 15.48C330.498 15.48 333.186 16.0453 335.426 17.176C337.687 18.2853 339.309 19.9707 340.29 22.232C340.781 23.2987 341.09 24.4613 341.218 25.72C341.346 26.9573 341.41 28.2587 341.41 29.624V51H336.354V42.712L337.538 43.48C336.237 46.2747 334.413 48.3867 332.066 49.816C329.741 51.2453 326.903 51.96 323.554 51.96ZM324.418 47.192C326.466 47.192 328.237 46.8293 329.73 46.104C331.245 45.3573 332.461 44.3867 333.378 43.192C334.295 41.976 334.893 40.6533 335.17 39.224C335.49 38.1573 335.661 36.9733 335.682 35.672C335.725 34.3493 335.746 33.336 335.746 32.632L337.73 33.496C335.874 33.752 334.05 33.9973 332.258 34.232C330.466 34.4667 328.77 34.7227 327.17 35C325.57 35.256 324.13 35.5653 322.85 35.928C321.911 36.2267 321.026 36.6107 320.194 37.08C319.383 37.5493 318.722 38.1573 318.21 38.904C317.719 39.6293 317.474 40.536 317.474 41.624C317.474 42.5627 317.709 43.4587 318.178 44.312C318.669 45.1653 319.415 45.8587 320.418 46.392C321.442 46.9253 322.775 47.192 324.418 47.192ZM346.53 51V49.976L367.49 21.624H348.258V16.44H376.674V17.528L355.746 45.816H375.586V51H346.53Z" fill="#563213"/>
</svg>
