<svg width="1920" height="1080" viewBox="0 0 1920 1080" fill="none" xmlns="http://www.w3.org/2000/svg">
<path d="M0 0H1920V1080H0V0Z" fill="#68424C"/>
<path d="M864.966 69.6701C848.159 73.2833 831.352 85.1551 822.801 100.382C814.84 113.802 814.545 116.125 814.545 151.999C814.545 172.645 816.02 194.066 817.789 199.744C821.622 212.132 841.377 230.972 854.646 235.36C860.248 236.908 864.671 239.231 864.671 240.005C864.671 240.779 860.248 242.844 854.941 244.651C849.633 246.199 840.788 251.361 835.48 256.006C818.379 270.717 816.315 276.653 815.135 315.881C813.661 360.272 815.43 370.595 826.929 385.564C836.365 398.468 849.338 405.694 871.453 410.598C896.81 416.018 928.065 401.823 942.218 378.338C950.769 363.627 953.423 304.784 946.051 282.847C940.154 265.813 924.822 249.554 910.079 244.651C897.99 241.037 897.4 238.457 907.72 236.392C920.399 233.553 940.449 213.681 945.461 198.454C951.064 181.936 951.948 129.287 946.641 111.48C941.923 94.7042 918.63 74.3156 899.464 70.1863C884.131 66.8312 879.414 66.5732 864.966 69.6701ZM903.002 92.6395C923.347 101.931 931.898 125.932 921.283 144.514C900.643 180.646 838.134 166.709 838.134 126.19C838.134 97.285 873.517 78.7031 903.002 92.6395ZM897.99 261.684C903.297 263.491 911.553 268.91 916.271 273.298C923.937 280.524 925.116 283.621 925.116 296.783C925.116 308.139 923.642 313.817 918.924 319.237C904.771 335.754 878.234 341.174 859.069 331.366C829.288 316.14 830.763 277.685 861.722 263.749C876.76 257.038 884.721 256.78 897.99 261.684Z" fill="#FEF6FF"/>
<path d="M1038.93 69.6704C1022.12 73.2836 1005.32 85.1554 996.765 100.382C988.804 114.061 988.509 115.867 988.509 154.064C988.509 198.196 990.868 206.713 1007.08 221.681C1012.39 226.327 1021.53 232.263 1027.72 234.844L1039.22 239.489L1024.19 246.457C1008.26 254.2 996.175 267.104 991.458 281.557C989.688 286.46 988.509 307.107 988.509 327.754C988.509 362.853 989.099 366.208 995.88 378.596C1021.24 422.728 1089.35 422.47 1116.18 378.08C1124.73 363.627 1127.09 304.784 1120.01 282.847C1114.12 265.814 1098.79 249.554 1084.04 244.651C1078.44 243.102 1074.02 241.038 1074.02 240.005C1074.02 239.231 1079.62 236.392 1086.4 233.553C1103.5 226.327 1117.07 210.068 1121.19 191.744C1123.55 182.969 1124.44 164.129 1123.55 144.773C1122.08 107.351 1117.95 97.0272 1097.61 81.8003C1080.5 69.1543 1061.04 65.0249 1038.93 69.6704ZM1076.97 92.8979C1097.9 102.189 1106.45 126.191 1094.95 144.515C1073.43 180.388 1012.1 166.968 1012.1 126.191C1012.1 96.7692 1046.3 79.2195 1076.97 92.8979ZM1079.62 265.039C1093.77 274.588 1099.08 283.363 1099.08 298.074C1099.08 308.139 1097.31 313.817 1092.89 319.237C1073.43 342.206 1034.21 341.69 1017.7 318.463C1010.03 307.623 1010.33 287.751 1017.99 276.653C1030.08 259.62 1061.63 253.684 1079.62 265.039Z" fill="#FEF6FF"/>
<path d="M1214.07 69.4119C1191.37 74.3155 1172.2 89.8005 1165.72 108.124C1163.95 113.802 1162.47 134.965 1162.47 156.386C1162.47 188.13 1163.65 196.647 1168.08 205.164C1174.56 218.068 1190.19 231.23 1202.87 235.359C1213.19 238.714 1215.84 242.586 1207.88 242.586C1197.86 242.586 1177.81 258.071 1170.14 271.491C1162.77 284.137 1162.47 286.976 1162.47 325.172C1162.47 363.627 1162.77 366.208 1170.14 379.112C1191.08 415.76 1245.62 422.986 1278.06 393.048C1292.51 379.628 1294.86 370.595 1295.45 325.689C1295.45 293.17 1294.57 282.589 1290.74 274.588C1284.25 260.91 1272.75 250.586 1256.83 244.392L1243.56 239.231L1253.29 236.392C1268.03 232.004 1281.89 220.907 1289.26 207.744C1295.16 196.905 1295.75 192.518 1295.45 153.289C1294.86 104.511 1292.8 97.801 1271.57 81.7999C1254.76 69.4119 1234.71 65.0245 1214.07 69.4119ZM1250.34 92.6394C1263.32 98.3172 1274.52 114.318 1274.52 126.706C1274.52 139.094 1263.02 155.354 1250.93 160.515C1220.56 173.936 1186.06 156.386 1186.06 127.223C1186.06 97.0268 1219.68 78.961 1250.34 92.6394ZM1253.59 265.297C1267.44 274.33 1273.05 283.363 1273.05 297.557C1273.05 336.786 1215.25 351.497 1191.67 318.462C1184.88 308.655 1184.29 289.299 1190.49 278.717C1195.2 270.975 1207.29 262.2 1217.02 259.877C1226.75 257.555 1245.92 260.393 1253.59 265.297Z" fill="#FEF6FF"/>
<path d="M539.065 83.2957C529.395 85.9931 519.173 94.0851 513.094 104.139C506.464 114.683 506.464 162.254 513.094 172.798C520.554 184.568 563.93 224.538 574.429 228.952C581.889 232.139 592.664 232.875 626.37 232.875C665.602 232.875 670.023 232.385 681.074 227.235C700.137 218.407 705.939 206.147 705.939 175.986C705.939 160.047 704.558 148.767 701.795 142.882C696.546 131.848 649.578 88.6904 637.698 84.2766C627.475 80.3532 552.879 79.8628 539.065 83.2957ZM677.482 133.809C688.81 140.185 692.954 149.013 694.336 168.629C695.717 192.415 691.849 206.147 680.798 214.239C672.509 220.614 671.68 220.614 628.304 220.614C594.874 220.614 582.165 219.634 576.363 216.936C564.207 211.542 559.51 199.771 559.51 175.495C559.51 139.694 567.522 130.622 599.847 129.396C634.935 127.924 671.128 130.131 677.482 133.809Z" fill="#E38EA6"/>
<path d="M597.333 185.625H655.515V165.375H597.333V185.625Z" fill="#E38EA6"/>
<path d="M556.473 265.264C536.41 274.328 531.394 284.616 531.394 317.441C531.394 336.302 532.509 346.346 535.574 351.245C537.803 354.919 550.343 368.392 563.719 381.13C594.65 410.77 597.436 411.75 651.496 411.75C698.59 411.75 709.179 409.055 721.44 394.113C727.013 387.254 727.849 382.6 728.685 360.798C730.357 323.32 729.8 322.585 699.705 293.434C665.987 260.61 664.036 259.875 609.976 259.875C572.914 259.875 567.62 260.365 556.473 265.264ZM701.098 312.541C713.359 317.93 718.096 329.689 718.096 354.184C718.096 377.211 714.752 385.784 702.491 394.358C695.525 399.012 691.345 399.502 649.824 399.502C607.747 399.502 604.124 399.257 596.879 394.113C585.733 386.519 581.553 375.251 581.553 354.184C581.553 333.118 585.733 321.85 596.879 314.256C604.124 309.357 607.747 308.867 648.988 308.867C682.428 308.867 695.246 309.847 701.098 312.541Z" fill="#E38EA6"/>
<path d="M620.606 364.5H678.788V344.25H620.606V364.5Z" fill="#E38EA6"/>
<path d="M1364.17 82.0298C1381.37 188.843 1504.06 263.063 1638.06 247.748C1653.9 245.785 1681.07 239.894 1698.27 234.396C1732.67 223.794 1784.74 192.378 1783.83 183.346C1783.38 180.204 1784.74 178.241 1786.55 179.419C1791.53 182.168 1813.26 158.998 1821.4 142.112C1825.48 134.651 1830.91 124.048 1834.08 118.551C1837.25 113.053 1841.32 99.3085 1843.13 87.9203L1846.3 67.5H1361.45L1364.17 82.0298Z" fill="#FFAAC4"/>
<path d="M1601.01 266.904L1361.45 267.691L1363.71 280.678C1373.61 329.476 1389.82 356.63 1426.75 388.507C1457.82 415.267 1503.75 436.912 1544.73 444.389C1604.16 455.014 1679.81 446.357 1727.55 422.744C1761.77 405.822 1804.55 368.436 1819.86 342.069C1832.91 319.244 1845.07 280.284 1841.92 270.446C1841.02 266.904 1789.24 266.117 1601.01 266.904Z" fill="#FFAAC4"/>
<path d="M1321.3 526.275C1311.99 529.425 1313.03 549.675 1322.86 553.275C1334.75 557.325 1349.23 542.925 1342.51 533.475C1336.3 524.925 1330.61 522.675 1321.3 526.275Z" fill="#FBE0ED"/>
<path d="M1386.47 530.325C1378.71 538.425 1385.44 551.475 1398.88 553.725C1411.81 555.975 1419.57 538.875 1409.74 530.325C1399.92 521.325 1395.26 521.325 1386.47 530.325Z" fill="#FBE0ED"/>
<path d="M1457.32 529.875C1451.12 535.275 1450.6 539.325 1454.22 546.075C1460.94 556.425 1471.28 557.325 1480.59 547.425C1485.25 542.475 1485.77 538.425 1482.15 533.025C1474.39 522.675 1467.15 521.775 1457.32 529.875Z" fill="#FBE0ED"/>
<path d="M1526.1 530.325C1517.83 539.325 1526.1 552.375 1540.07 552.375C1558.17 552.375 1554.55 523.575 1536.45 523.125C1534.38 523.125 1530.24 526.275 1526.1 530.325Z" fill="#FBE0ED"/>
<path d="M1594.37 531.676C1587.65 542.476 1599.03 557.326 1611.44 553.276C1623.33 549.226 1627.47 537.976 1619.71 529.876C1610.92 520.876 1600.58 521.326 1594.37 531.676Z" fill="#FBE0ED"/>
<path d="M1667.29 528.526C1652.81 541.126 1665.74 558.226 1684.36 551.926C1694.7 548.326 1694.19 529.426 1683.84 525.826C1673.5 522.226 1674.53 522.226 1667.29 528.526Z" fill="#FBE0ED"/>
<path d="M1732.98 532.575C1728.32 540.225 1728.84 543.825 1735.04 549.225C1744.35 556.875 1758.32 553.725 1762.97 542.925C1765.04 537.975 1762.45 533.025 1756.76 529.425C1743.84 520.875 1740.22 521.325 1732.98 532.575Z" fill="#FBE0ED"/>
<path d="M1807.45 526.275C1799.69 528.975 1798.65 548.325 1805.89 552.375C1822.96 561.375 1839.51 540.675 1825.55 528.525C1818.82 522.675 1817.27 522.675 1807.45 526.275Z" fill="#FBE0ED"/>
<path d="M1872.61 530.325C1864.85 538.425 1871.58 551.475 1885.02 553.725C1897.95 555.975 1905.71 538.875 1895.88 530.325C1886.06 521.325 1881.4 521.325 1872.61 530.325Z" fill="#FBE0ED"/>
<path d="M1321.31 589.275C1311.48 592.425 1313.03 611.775 1323.37 614.925C1335.79 619.425 1349.75 605.925 1342.51 596.475C1336.3 587.925 1330.62 585.675 1321.31 589.275Z" fill="#FBE0ED"/>
<path d="M1388.02 591.526C1379.75 598.726 1380.26 606.376 1389.06 612.676C1404.57 623.926 1423.71 605.476 1409.74 592.876C1399.92 584.776 1396.3 584.326 1388.02 591.526Z" fill="#FBE0ED"/>
<path d="M1457.84 592.876C1448.53 600.976 1451.11 610.876 1463.53 615.376C1475.42 619.426 1488.87 605.926 1482.14 596.476C1474.39 585.676 1467.15 584.776 1457.84 592.876Z" fill="#FBE0ED"/>
<path d="M1527.66 591.526C1514.73 602.776 1527.66 620.326 1544.21 614.926C1555.07 611.326 1555.07 592.426 1544.21 588.826C1533.86 585.226 1534.9 585.226 1527.66 591.526Z" fill="#FBE0ED"/>
<path d="M1593.85 594.675C1590.23 601.425 1590.75 605.475 1596.96 610.875C1606.78 618.975 1614.02 618.075 1621.78 607.725C1625.4 602.325 1624.88 598.275 1620.23 593.325C1610.92 583.425 1600.58 584.325 1593.85 594.675Z" fill="#FBE0ED"/>
<path d="M1667.29 591.526C1654.37 602.776 1667.29 620.326 1683.84 614.926C1694.7 611.326 1694.7 592.426 1683.84 588.826C1673.5 585.226 1674.54 585.226 1667.29 591.526Z" fill="#FBE0ED"/>
<path d="M1734.53 591.525C1725.22 599.625 1726.77 607.725 1738.15 613.125C1745.9 616.275 1750.04 615.825 1756.25 610.425C1760.9 606.825 1764.52 601.875 1764.52 600.075C1764.52 595.125 1752.63 586.125 1746.42 586.125C1743.32 586.125 1738.15 588.375 1734.53 591.525Z" fill="#FBE0ED"/>
<path d="M1806.93 591.526C1791.93 604.576 1808.48 624.376 1824.51 612.676C1834.34 605.926 1833.82 592.426 1823.48 588.826C1813.13 585.226 1814.17 585.226 1806.93 591.526Z" fill="#FBE0ED"/>
<path d="M1872.61 593.325C1867.95 598.275 1867.44 602.325 1871.06 607.725C1878.82 618.075 1886.06 618.975 1895.88 610.875C1902.09 605.475 1902.61 601.425 1898.98 594.675C1892.26 584.325 1881.92 583.425 1872.61 593.325Z" fill="#FBE0ED"/>
<path d="M1318.2 651.826C1311.48 658.126 1314.58 675.226 1323.37 677.926C1336.3 682.426 1349.75 668.926 1342.51 659.026C1336.3 650.476 1323.89 646.876 1318.2 651.826Z" fill="#FBE0ED"/>
<path d="M1388.02 654.525C1379.23 662.175 1380.26 670.725 1391.12 675.675C1404.05 681.525 1413.88 675.225 1411.81 662.175C1410.26 650.025 1397.85 645.975 1388.02 654.525Z" fill="#FBE0ED"/>
<path d="M1454.22 657.676C1450.6 664.426 1451.12 668.476 1457.32 673.876C1467.15 681.976 1474.39 681.076 1482.15 670.726C1485.77 665.326 1485.25 661.276 1480.59 656.326C1471.28 646.426 1460.94 647.326 1454.22 657.676Z" fill="#FBE0ED"/>
<path d="M1527.66 654.526C1519.38 661.726 1519.9 669.376 1528.69 675.676C1540.07 683.776 1553.52 676.576 1551.45 663.076C1549.9 650.476 1537.48 645.976 1527.66 654.526Z" fill="#FBE0ED"/>
<path d="M1594.37 654.976C1581.44 668.926 1601.1 684.676 1618.16 673.876C1625.4 668.926 1626.44 665.776 1621.78 659.476C1614.54 649.126 1602.13 646.876 1594.37 654.976Z" fill="#FBE0ED"/>
<path d="M1664.71 651.826C1658.5 657.226 1660.57 670.276 1668.84 676.126C1679.19 683.776 1693.15 673.876 1691.08 660.826C1689.53 651.376 1671.95 645.526 1664.71 651.826Z" fill="#FBE0ED"/>
<path d="M1734.52 654.525C1719.01 668.025 1739.18 685.575 1757.28 673.875C1765.04 668.925 1766.07 666.225 1761.42 659.475C1754.18 649.125 1742.8 647.325 1734.52 654.525Z" fill="#FBE0ED"/>
<path d="M1807.45 652.276C1797.62 655.426 1799.17 670.726 1810.03 675.676C1821.41 681.076 1831.75 674.326 1831.75 662.176C1831.75 656.326 1819.86 647.326 1814.69 649.576C1814.17 649.576 1810.55 650.926 1807.45 652.276Z" fill="#FBE0ED"/>
<path d="M1874.16 654.526C1864.85 662.626 1866.41 670.726 1877.78 676.126C1885.54 679.276 1889.68 678.826 1895.88 673.426C1900.54 669.826 1904.16 664.876 1904.16 663.076C1904.16 658.126 1892.26 649.126 1886.06 649.126C1882.96 649.126 1877.78 651.376 1874.16 654.526Z" fill="#FBE0ED"/>
<path d="M1318.2 714.825C1312 720.675 1314.06 738.225 1321.82 740.475C1325.96 741.825 1333.2 740.025 1338.89 736.875C1346.13 731.925 1347.16 728.775 1342.51 722.475C1336.3 713.925 1323.89 709.875 1318.2 714.825Z" fill="#FBE0ED"/>
<path d="M1388.02 717.525C1379.75 724.725 1380.26 732.375 1389.06 738.675C1397.85 745.425 1411.29 740.925 1414.4 730.125C1418.53 715.275 1400.43 706.725 1388.02 717.525Z" fill="#FBE0ED"/>
<path d="M1457.84 714.825C1451.63 720.675 1453.7 738.225 1461.46 740.475C1465.6 741.825 1472.84 740.025 1478.52 736.875C1485.77 731.925 1486.8 728.775 1482.14 722.475C1475.94 713.925 1463.53 709.875 1457.84 714.825Z" fill="#FBE0ED"/>
<path d="M1527.66 717.526C1519.38 724.726 1519.9 732.376 1528.69 738.676C1540.07 746.776 1553.52 739.576 1551.45 726.076C1549.9 713.476 1537.48 708.976 1527.66 717.526Z" fill="#FBE0ED"/>
<path d="M1594.37 718.426C1585.58 727.426 1593.34 739.126 1607.3 739.126C1622.3 739.126 1628.51 728.326 1619.72 718.876C1611.44 710.326 1602.13 710.326 1594.37 718.426Z" fill="#FBE0ED"/>
<path d="M1667.81 715.275C1657.47 718.425 1660.05 733.725 1670.91 738.675C1678.15 742.275 1682.29 741.825 1686.95 736.875C1699.36 723.375 1686.43 708.525 1667.81 715.275Z" fill="#FBE0ED"/>
<path d="M1734.53 717.525C1725.22 725.625 1726.77 733.725 1738.15 739.125C1745.9 742.275 1750.04 741.825 1756.25 736.425C1760.9 732.825 1764.52 727.875 1764.52 726.075C1764.52 721.125 1752.63 712.125 1746.42 712.125C1743.32 712.125 1738.15 714.375 1734.53 717.525Z" fill="#FBE0ED"/>
<path d="M1807.45 715.275C1797.1 718.425 1799.69 733.725 1810.55 738.675C1817.79 742.275 1821.93 741.825 1826.58 736.875C1838.99 723.375 1826.07 708.525 1807.45 715.275Z" fill="#FBE0ED"/>
<path d="M1874.16 717.525C1864.85 725.625 1866.41 733.725 1877.78 739.125C1885.54 742.275 1889.68 741.825 1895.88 736.425C1900.54 732.825 1904.16 727.875 1904.16 726.075C1904.16 721.125 1892.26 712.125 1886.06 712.125C1882.96 712.125 1877.78 714.375 1874.16 717.525Z" fill="#FBE0ED"/>
<path d="M1316.65 781.425C1311.48 793.125 1318.72 803.025 1331.13 801.225C1339.92 800.325 1343.03 796.725 1343.03 788.625C1343.03 780.525 1339.92 776.925 1331.13 776.025C1324.41 775.125 1318.2 777.375 1316.65 781.425Z" fill="#FBE0ED"/>
<path d="M1384.4 784.125C1380.26 795.375 1384.92 802.125 1396.81 802.125C1410.78 802.125 1418.53 793.125 1412.33 783.225C1405.61 772.425 1388.54 772.875 1384.4 784.125Z" fill="#FBE0ED"/>
<path d="M1454.73 783.225C1448.53 793.125 1456.29 802.125 1470.25 802.125C1482.14 802.125 1486.8 795.375 1482.66 784.125C1478.52 772.875 1461.46 772.425 1454.73 783.225Z" fill="#FBE0ED"/>
<path d="M1523.52 781.425C1518.35 793.125 1525.59 803.025 1538 801.225C1546.79 800.325 1549.89 796.725 1549.89 788.625C1549.89 780.525 1546.79 776.925 1538 776.025C1531.28 775.125 1525.07 777.375 1523.52 781.425Z" fill="#FBE0ED"/>
<path d="M1594.37 781.425C1585.58 790.425 1593.34 802.125 1607.3 802.125C1622.3 802.125 1628.51 791.325 1619.72 781.875C1611.44 773.325 1602.13 773.325 1594.37 781.425Z" fill="#FBE0ED"/>
<path d="M1663.15 781.425C1657.98 793.125 1665.22 803.025 1677.64 801.225C1686.43 800.325 1689.53 796.725 1689.53 788.625C1689.53 780.525 1686.43 776.925 1677.64 776.025C1670.91 775.125 1664.71 777.375 1663.15 781.425Z" fill="#FBE0ED"/>
<path d="M1734.01 781.425C1725.73 790.425 1732.46 802.125 1746.42 802.125C1753.14 802.125 1759.87 798.975 1761.42 794.925C1765.04 786.375 1756.25 775.125 1746.42 775.125C1742.8 775.125 1737.11 777.825 1734.01 781.425Z" fill="#FBE0ED"/>
<path d="M1802.79 781.425C1797.62 793.125 1804.86 803.025 1817.27 801.225C1826.06 800.325 1829.17 796.725 1829.17 788.625C1829.17 780.525 1826.06 776.925 1817.27 776.025C1810.55 775.125 1804.34 777.375 1802.79 781.425Z" fill="#FBE0ED"/>
<path d="M1873.13 781.875C1864.34 791.325 1870.54 802.125 1885.54 802.125C1899.5 802.125 1907.26 790.425 1898.47 781.425C1890.71 773.325 1881.4 773.325 1873.13 781.875Z" fill="#FBE0ED"/>
<path d="M1316.65 844.426C1311.48 856.126 1318.72 866.026 1331.13 864.226C1339.92 863.326 1343.03 859.726 1343.03 851.626C1343.03 843.526 1339.92 839.926 1331.13 839.026C1324.41 838.126 1318.2 840.376 1316.65 844.426Z" fill="#FBE0ED"/>
<path d="M1384.4 847.126C1380.26 858.376 1384.92 865.126 1397.33 865.126C1410.26 865.126 1419.57 850.276 1411.81 843.526C1402.5 835.426 1388.02 837.226 1384.4 847.126Z" fill="#FBE0ED"/>
<path d="M1454.22 844.876C1449.05 850.276 1449.05 852.976 1454.22 858.376C1464.56 869.626 1482.66 865.126 1482.66 851.626C1482.66 838.126 1464.56 833.626 1454.22 844.876Z" fill="#FBE0ED"/>
<path d="M1523.52 844.426C1518.35 856.126 1525.59 866.026 1538 864.226C1546.79 863.326 1549.89 859.726 1549.89 851.626C1549.89 843.526 1546.79 839.926 1538 839.026C1531.28 838.126 1525.07 840.376 1523.52 844.426Z" fill="#FBE0ED"/>
<path d="M1594.37 844.426C1585.58 853.426 1592.82 865.126 1606.79 865.126C1621.78 865.126 1626.44 859.276 1622.3 847.126C1618.68 836.776 1603.17 835.426 1594.37 844.426Z" fill="#FBE0ED"/>
<path d="M1663.15 844.426C1657.98 856.126 1665.22 866.026 1677.64 864.226C1686.43 863.326 1689.53 859.726 1689.53 851.626C1689.53 843.526 1686.43 839.926 1677.64 839.026C1670.91 838.126 1664.71 840.376 1663.15 844.426Z" fill="#FBE0ED"/>
<path d="M1734.01 844.426C1725.73 853.426 1732.46 865.126 1746.42 865.126C1753.14 865.126 1759.87 861.976 1761.42 857.926C1765.04 849.376 1756.25 838.126 1746.42 838.126C1742.8 838.126 1737.11 840.826 1734.01 844.426Z" fill="#FBE0ED"/>
<path d="M1802.79 844.426C1797.62 856.126 1804.86 866.026 1817.27 864.226C1826.06 863.326 1829.17 859.726 1829.17 851.626C1829.17 843.526 1826.06 839.926 1817.27 839.026C1810.55 838.126 1804.34 840.376 1802.79 844.426Z" fill="#FBE0ED"/>
<path d="M1871.06 844.876C1866.92 854.776 1873.13 865.126 1883.47 865.126C1897.95 865.126 1906.74 852.976 1898.98 844.876C1895.36 841.276 1888.64 838.126 1883.47 838.126C1878.3 838.126 1873.13 841.276 1871.06 844.876Z" fill="#FBE0ED"/>
<path d="M1316.65 907.426C1311.48 919.126 1318.72 929.026 1331.13 927.226C1339.92 926.326 1343.03 922.726 1343.03 914.626C1343.03 906.526 1339.92 902.926 1331.13 902.026C1324.41 901.126 1318.2 903.376 1316.65 907.426Z" fill="#FBE0ED"/>
<path d="M1383.88 907.876C1379.23 918.226 1385.43 928.126 1396.29 928.126C1410.77 928.126 1418.53 919.125 1412.33 909.225C1406.12 899.325 1388.02 898.426 1383.88 907.876Z" fill="#FBE0ED"/>
<path d="M1454.74 909.226C1450.6 915.976 1451.12 919.576 1456.81 923.626C1468.7 932.176 1482.66 927.226 1482.66 914.626C1482.66 900.226 1462.49 896.176 1454.74 909.226Z" fill="#FBE0ED"/>
<path d="M1523.52 907.426C1518.35 919.126 1525.59 929.026 1538 927.226C1546.79 926.326 1549.89 922.726 1549.89 914.626C1549.89 906.526 1546.79 902.926 1538 902.026C1531.28 901.126 1525.07 903.376 1523.52 907.426Z" fill="#FBE0ED"/>
<path d="M1594.37 907.426C1586.1 916.426 1592.82 928.126 1606.78 928.126C1619.71 928.126 1626.44 918.676 1621.78 907.876C1617.65 899.326 1602.13 899.326 1594.37 907.426Z" fill="#FBE0ED"/>
<path d="M1663.15 907.426C1657.98 919.126 1665.22 929.026 1677.64 927.226C1686.43 926.326 1689.53 922.726 1689.53 914.626C1689.53 906.526 1686.43 902.926 1677.64 902.026C1670.91 901.126 1664.71 903.376 1663.15 907.426Z" fill="#FBE0ED"/>
<path d="M1734.01 907.426C1725.73 916.426 1732.46 928.126 1746.42 928.126C1753.14 928.126 1759.87 924.976 1761.42 920.926C1765.04 912.376 1756.25 901.126 1746.42 901.126C1742.8 901.126 1737.11 903.826 1734.01 907.426Z" fill="#FBE0ED"/>
<path d="M1802.79 907.426C1797.62 919.126 1804.86 929.026 1817.27 927.226C1826.06 926.326 1829.17 922.726 1829.17 914.626C1829.17 906.526 1826.06 902.926 1817.27 902.026C1810.55 901.126 1804.34 903.376 1802.79 907.426Z" fill="#FBE0ED"/>
<path d="M1871.06 907.876C1866.92 917.776 1873.13 928.126 1883.47 928.126C1897.95 928.126 1906.74 915.976 1898.98 907.876C1895.36 904.276 1888.64 901.126 1883.47 901.126C1878.3 901.126 1873.13 904.276 1871.06 907.876Z" fill="#FBE0ED"/>
<path d="M1316.65 970.425C1311.48 982.125 1318.72 992.025 1331.13 990.225C1339.92 989.325 1343.03 985.725 1343.03 977.625C1343.03 969.525 1339.92 965.925 1331.13 965.025C1324.41 964.125 1318.2 966.375 1316.65 970.425Z" fill="#FBE0ED"/>
<path d="M1383.88 970.875C1379.23 981.225 1385.43 991.125 1396.81 991.125C1410.26 991.125 1420.09 976.725 1411.81 969.525C1403.02 961.875 1386.99 962.775 1383.88 970.875Z" fill="#FBE0ED"/>
<path d="M1455.25 969.525C1447.5 976.275 1456.8 991.125 1469.73 991.125C1479.56 991.125 1488.35 976.725 1482.66 968.625C1478.53 962.325 1463.01 962.775 1455.25 969.525Z" fill="#FBE0ED"/>
<path d="M1523.52 970.425C1518.35 982.125 1525.59 992.025 1538 990.225C1546.79 989.325 1549.89 985.725 1549.89 977.625C1549.89 969.525 1546.79 965.925 1538 965.025C1531.28 964.125 1525.07 966.375 1523.52 970.425Z" fill="#FBE0ED"/>
<path d="M1591.78 971.325C1586.61 983.025 1601.61 994.725 1613.51 988.425C1618.16 985.725 1622.3 979.425 1622.3 974.925C1622.3 963.225 1596.44 960.525 1591.78 971.325Z" fill="#FBE0ED"/>
<path d="M1663.15 970.425C1657.98 982.125 1665.22 992.025 1677.64 990.225C1686.43 989.325 1689.53 985.725 1689.53 977.625C1689.53 969.525 1686.43 965.925 1677.64 965.025C1670.91 964.125 1664.71 966.375 1663.15 970.425Z" fill="#FBE0ED"/>
<path d="M1731.42 971.325C1727.8 979.875 1736.59 991.125 1746.42 991.125C1756.25 991.125 1765.04 979.875 1761.42 971.325C1759.87 967.275 1753.14 964.125 1746.42 964.125C1739.7 964.125 1732.97 967.275 1731.42 971.325Z" fill="#FBE0ED"/>
<path d="M1802.79 970.425C1797.62 982.125 1804.86 992.025 1817.27 990.225C1826.06 989.325 1829.17 985.725 1829.17 977.625C1829.17 969.525 1826.06 965.925 1817.27 965.025C1810.55 964.125 1804.34 966.375 1802.79 970.425Z" fill="#FBE0ED"/>
<path d="M1871.06 970.875C1866.92 981.225 1873.13 991.125 1883.99 991.125C1896.4 991.125 1905.71 976.275 1897.95 969.525C1889.16 961.875 1874.68 962.775 1871.06 970.875Z" fill="#FBE0ED"/>
<path d="M1316.65 1033.43C1311.48 1045.13 1318.72 1055.03 1331.13 1053.23C1339.92 1052.33 1343.03 1048.73 1343.03 1040.63C1343.03 1032.53 1339.92 1028.93 1331.13 1028.03C1324.41 1027.13 1318.2 1029.38 1316.65 1033.43Z" fill="#FBE0ED"/>
<path d="M1384.4 1031.63C1379.23 1039.28 1386.99 1054.13 1396.81 1054.13C1409.23 1054.13 1417.5 1046.03 1414.4 1035.68C1411.29 1026.68 1390.09 1023.53 1384.4 1031.63Z" fill="#FBE0ED"/>
<path d="M1452.67 1035.68C1449.05 1047.83 1462.49 1057.73 1473.87 1050.98C1487.83 1043.78 1484.73 1029.38 1469.22 1028.03C1458.87 1027.13 1454.73 1028.93 1452.67 1035.68Z" fill="#FBE0ED"/>
<path d="M1523.52 1033.43C1518.35 1045.13 1525.59 1055.03 1538 1053.23C1546.79 1052.33 1549.89 1048.73 1549.89 1040.63C1549.89 1032.53 1546.79 1028.93 1538 1028.03C1531.28 1027.13 1525.07 1029.38 1523.52 1033.43Z" fill="#FBE0ED"/>
<path d="M1591.79 1034.33C1588.17 1042.88 1596.96 1054.13 1606.78 1054.13C1616.61 1054.13 1625.4 1042.88 1621.78 1034.33C1620.23 1030.28 1613.51 1027.13 1606.78 1027.13C1600.06 1027.13 1593.34 1030.28 1591.79 1034.33Z" fill="#FBE0ED"/>
<path d="M1663.15 1033.43C1657.98 1045.13 1665.22 1055.03 1677.64 1053.23C1686.43 1052.33 1689.53 1048.73 1689.53 1040.63C1689.53 1032.53 1686.43 1028.93 1677.64 1028.03C1670.91 1027.13 1664.71 1029.38 1663.15 1033.43Z" fill="#FBE0ED"/>
<path d="M1731.42 1034.33C1727.8 1042.88 1736.59 1054.13 1746.42 1054.13C1756.25 1054.13 1765.04 1042.88 1761.42 1034.33C1759.87 1030.28 1753.14 1027.13 1746.42 1027.13C1739.7 1027.13 1732.97 1030.28 1731.42 1034.33Z" fill="#FBE0ED"/>
<path d="M1802.79 1033.43C1797.62 1045.13 1804.86 1055.03 1817.27 1053.23C1826.06 1052.33 1829.17 1048.73 1829.17 1040.63C1829.17 1032.53 1826.06 1028.93 1817.27 1028.03C1810.55 1027.13 1804.34 1029.38 1802.79 1033.43Z" fill="#FBE0ED"/>
<path d="M1870.03 1033.88C1866.41 1041.53 1876.23 1054.13 1886.06 1054.13C1895.88 1054.13 1904.68 1042.88 1901.06 1034.33C1896.92 1025.33 1873.65 1024.88 1870.03 1033.88Z" fill="#FBE0ED"/>
<path d="M483.468 811.143C371.684 822.69 261.989 848.823 153.687 889.541C110.505 905.646 108.416 906.558 115.729 910.204C155.776 929.652 290.892 971.89 347.655 982.525C354.272 983.741 370.987 987.083 384.568 989.514C516.899 1015.04 678.481 1015.65 816.035 991.338C893.693 977.663 985.627 951.531 1045.52 926.31L1076.17 913.243L1129.8 941.807C1159.4 957.608 1184.12 970.371 1185.17 970.371C1186.21 970.371 1186.91 941.807 1186.91 906.558V843.049L1132.24 871.613C1102.29 887.414 1076.52 900.481 1074.78 900.481C1073.04 900.481 1061.2 895.923 1048.31 890.149C959.161 850.95 823.697 819.044 704.599 809.32C652.015 805.066 532.221 805.977 483.468 811.143ZM549.981 850.95C549.981 867.359 549.981 905.95 549.981 936.945V993.161L540.231 992.249C535.007 991.641 530.132 991.034 529.784 990.73C528.739 989.514 528.043 935.122 528.391 878.298L528.739 821.475H549.633L549.981 850.95ZM592.118 832.718C592.815 839.099 592.815 878.298 592.118 919.624L591.074 994.984L568.786 993.161L567.742 907.166L567.045 821.475H578.885C590.377 821.475 591.074 822.082 592.118 832.718ZM633.21 994.68H608.834V821.475H633.21V994.68ZM674.999 991.034L665.597 992.553C660.025 993.465 654.801 993.465 653.408 992.553C651.667 991.945 650.622 953.05 650.622 906.254V821.475H674.999V991.034ZM511.327 906.254C511.327 951.531 510.282 988.907 508.541 989.514C507.148 990.426 501.925 990.426 496.353 989.514L486.95 987.995V908.381C486.95 864.32 487.995 827.552 489.388 826.641C490.433 825.425 496.005 824.513 501.576 824.513H511.327V906.254ZM716.091 906.862L716.788 987.995L709.126 989.818C691.714 993.769 692.411 996.807 692.411 907.774V824.21L703.903 825.121L715.046 826.033L716.091 906.862ZM469.538 906.862V985.868L458.395 984.956L446.903 984.045L445.858 907.47L445.162 830.895L452.823 829.679C457.35 829.071 462.922 828.16 465.36 827.856C468.494 827.552 469.538 845.176 469.538 906.862ZM754.049 831.806C754.397 832.11 755.094 866.447 755.79 908.077L756.487 983.741L746.388 986.172C740.816 987.387 735.592 987.995 734.896 987.387C733.851 986.476 733.155 840.619 733.851 829.375C734.199 827.552 751.263 829.375 754.049 831.806ZM427.75 907.47V981.31L403.373 978.879V836.972L411.383 835.757C415.562 835.149 421.133 834.237 423.571 833.933C426.705 833.63 427.75 850.342 427.75 907.47ZM791.311 835.453C796.186 836.972 796.882 846.392 796.882 908.077V978.879L788.176 980.702C783.301 981.918 777.729 981.918 775.988 981.006C773.899 979.791 772.506 949.404 772.506 906.254C772.506 836.668 772.854 833.629 779.122 833.629C782.953 833.629 788.176 834.541 791.311 835.453ZM384.568 972.498C383.524 973.409 378.3 973.105 372.38 971.89L361.585 969.763L362.281 907.166L363.326 844.265L384.22 841.226L385.265 906.254C385.613 942.111 385.265 971.89 384.568 972.498ZM831.01 841.53C838.671 843.353 838.671 843.657 838.671 908.077V972.802L828.224 974.017C822.304 974.929 817.08 974.625 816.035 974.017C814.991 973.105 814.294 942.415 814.294 905.95C814.294 835.757 813.946 837.58 831.01 841.53ZM344.173 907.774V966.724L334.77 964.597L325.02 962.47L323.975 907.47L323.279 852.166L330.94 850.95C335.467 850.342 339.994 849.431 341.735 849.127C343.128 849.127 344.173 875.26 344.173 907.774ZM872.798 850.646C880.46 852.469 880.46 853.077 880.46 906.862V961.255L871.405 964.293C866.53 966.116 860.958 967.332 859.217 967.332C857.476 967.332 856.083 942.718 856.083 908.077C856.083 845.48 855.735 846.696 872.798 850.646ZM305.867 906.558C305.867 957.912 306.215 957.304 289.499 953.354C281.49 951.531 281.49 950.619 281.49 908.077V864.624L291.241 861.585C296.464 859.762 301.688 858.243 303.429 858.243C304.822 857.939 305.867 879.818 305.867 906.558ZM913.194 860.978L922.248 864.016V951.531L911.104 954.873C905.184 956.696 899.961 957.912 899.264 957.608C895.434 953.962 897.175 857.939 901.006 857.939C902.747 857.939 908.319 859.154 913.194 860.978ZM962.296 906.254C962.644 923.271 961.599 938.16 960.554 939.68C959.51 941.199 954.286 943.022 948.366 944.238L937.919 946.061L938.267 907.47C938.615 885.895 938.964 868.271 939.312 867.967C939.66 867.663 944.884 869.182 951.152 871.613L962.296 875.563V906.254ZM264.078 908.381V946.365L256.417 944.238C240.398 940.288 239.353 937.553 240.398 905.343C241.443 873.132 241.791 872.829 261.64 870.398C263.033 870.094 264.078 887.414 264.078 908.381ZM993.637 885.895C1001.65 888.934 1002.34 890.757 1002.34 908.381C1002.34 926.613 1001.99 927.221 991.896 930.26C986.324 932.083 980.752 932.691 980.056 931.475C977.27 927.525 978.663 882.249 981.797 882.249C983.19 882.249 988.762 883.768 993.637 885.895ZM217.066 900.481C219.504 907.47 216.369 918.713 211.842 918.713C210.101 918.713 207.663 915.978 206.619 912.635C204.181 905.646 207.315 894.403 211.842 894.403C213.583 894.403 216.021 897.138 217.066 900.481ZM1037.86 902.304L1049.01 907.166L1036.82 912.939C1020.8 920.536 1019.75 920.232 1019.75 908.077C1019.75 896.226 1022.19 895.315 1037.86 902.304Z" fill="#FFAAC4"/>
<path d="M632.242 500.829C469.871 509.629 335.366 537.985 213.866 588.503L177.824 603.495L119.489 572.206C87.1635 554.933 60.4112 540.918 59.6681 540.918C58.9249 540.918 58.1818 571.555 58.1818 609.362C58.1818 646.843 58.9249 677.805 60.0396 677.805C60.7827 677.805 87.9066 663.791 119.861 646.843L177.824 616.206L208.292 628.591C264.398 652.058 323.476 670.635 390.728 685.953C621.096 738.753 862.61 727.998 1089.63 654.013C1143.88 636.413 1206.3 612.621 1206.3 609.362C1206.3 605.451 1103.75 568.295 1053.96 553.629C915.743 513.866 756.344 493.985 632.242 500.829ZM812.449 523.318C875.614 529.511 952.527 543.525 1016.06 560.473C1042.82 567.643 1065.85 573.51 1066.97 573.51C1068.08 573.51 1068.83 577.421 1068.83 581.984C1068.83 588.177 1067.34 590.132 1063.25 588.828C1052.48 584.917 995.257 573.836 953.642 567.318C806.876 544.503 628.898 541.57 455.751 559.17C410.421 563.732 301.554 578.399 286.691 581.984C280.746 583.288 280.375 582.962 284.834 580.355C294.866 574.162 379.21 551.347 430.485 541.244C559.417 515.822 679.431 510.281 812.449 523.318ZM795.729 566.992C888.247 572.858 1017.18 590.458 1035.01 599.584C1038.73 601.539 897.165 602.517 660.109 602.517C429.371 602.517 282.233 601.214 286.691 599.584C305.641 591.762 468.384 572.532 559.045 567.318C623.697 563.407 737.022 563.407 795.729 566.992ZM1105.98 609.688C1105.98 615.88 1104.12 619.139 1100.41 619.139C1094.84 619.139 1092.23 602.843 1097.06 598.606C1101.52 594.695 1105.98 599.91 1105.98 609.688ZM1036.13 619.791C1032.04 623.05 948.812 637.717 901.624 643.258C762.66 659.554 591.742 659.228 435.316 641.954C386.641 636.739 281.118 621.095 281.118 619.139C281.118 618.162 451.664 617.51 660.109 617.51C868.183 617.51 1037.61 618.487 1036.13 619.791ZM1068.83 638.043C1068.83 642.932 1060.28 646.517 1025.35 655.969C907.197 687.909 815.422 700.62 692.064 701.924C590.256 702.901 495.137 693.124 400.017 671.613C356.916 661.835 279.632 639.347 287.063 639.021C289.292 638.695 314.93 642.28 344.655 646.517C450.921 662.487 525.976 668.354 645.247 670.309C797.215 672.591 903.853 664.443 1011.61 642.28C1066.22 630.873 1068.83 630.547 1068.83 638.043Z" fill="#FBE0ED"/>
<path d="M183.896 82.3042C124.505 89.6914 75.7497 128.9 60.8613 181.037C57.2619 194.249 57.2619 224.081 61.0249 237.577C73.6228 282.895 112.725 319.263 162.626 332.048C199.602 341.424 235.269 338.725 270.609 323.809C318.383 303.494 348.65 263.148 352.577 214.563C353.231 206.466 353.068 201.494 352.086 201.494C351.268 201.494 350.777 199.505 351.268 197.232C352.413 190.271 345.378 167.257 338.343 154.471C309.875 103.329 247.703 74.3488 183.896 82.3042ZM223.653 104.608C225.289 106.313 225.616 109.722 225.125 116.399C223.98 129.042 226.925 133.446 239.032 136.856C254.902 141.402 259.974 147.794 259.974 163.847C259.974 173.366 260.465 175.07 263.901 178.054C266.028 179.9 270.936 182.173 274.863 183.026C288.769 186.293 294.659 193.964 294.168 208.739C293.841 221.382 296.623 225.076 309.057 228.769C313.965 230.19 319.855 232.889 321.982 234.736C325.581 237.861 325.581 238.572 323.782 243.544L321.655 248.8L319.201 244.68C316.092 239.566 312.984 237.435 306.603 236.157C298.422 234.594 291.06 229.906 287.46 223.797C284.679 218.967 284.352 216.41 285.17 209.591C286.315 199.647 283.37 193.964 275.681 191.407C260.465 186.577 258.011 185.157 253.92 179.19C250.157 173.65 249.83 171.803 250.812 164.416C251.957 153.903 249.339 148.647 241.65 146.232C220.381 139.413 214.654 133.162 216.454 118.53C217.272 111.285 216.945 109.012 214 105.034L210.728 100.204L216.127 101.198C219.072 101.625 222.507 103.187 223.653 104.608ZM176.697 108.443C191.094 112.847 196.984 120.945 195.676 134.015C194.367 146.09 197.639 150.778 209.746 153.903C224.634 157.597 230.852 165.41 230.197 180.042C229.706 192.544 232.324 196.095 243.94 199.363C259.81 203.909 265.21 210.728 264.555 225.644C264.064 238.146 267.009 242.123 279.28 245.533C294.496 249.795 299.24 255.903 299.24 270.82C299.24 278.917 298.586 281.048 295.805 283.321C290.896 287.157 289.097 283.747 290.242 272.951C291.387 262.012 288.606 256.614 280.916 254.056C265.21 249.084 262.919 247.664 258.829 241.697C255.229 236.299 254.739 234.31 255.557 227.491C257.029 215.132 254.248 211.012 242.304 207.176C225.616 201.92 219.726 194.675 221.199 181.889C222.671 169.672 219.89 165.552 207.946 161.717C190.931 156.318 186.023 150.067 186.677 135.009C187.331 122.223 184.55 118.53 172.607 115.547C162.463 112.989 158.045 109.722 161.972 107.591C165.244 105.744 168.516 106.028 176.697 108.443ZM124.833 108.586C127.941 109.58 128.432 113.416 125.487 113.416C123.033 113.274 117.634 110.006 117.634 108.586C117.634 107.449 121.56 107.449 124.833 108.586ZM252.448 108.586C253.92 109.012 255.066 110.29 255.066 111.143C255.066 114.126 262.101 118.814 269.136 120.377C283.861 123.786 289.751 131.315 289.097 146.09C288.606 158.591 291.714 162.853 303.821 165.978C318.873 169.956 323.782 176.349 323.782 191.976C323.782 200.357 324.436 203.198 327.054 206.182C330.326 209.733 331.635 217.12 328.854 217.12C325.909 217.12 319.201 211.296 316.583 206.608C314.783 203.341 314.129 198.652 314.456 191.834C314.783 180.184 312.82 177.343 301.04 173.65C284.025 168.109 278.462 161.148 280.262 147.368C281.898 135.577 278.135 130.321 266.028 127.48C256.865 125.349 251.139 121.655 247.867 115.689C243.777 108.017 245.086 106.171 252.448 108.586ZM146.265 125.207C155.755 128.332 158.536 130.037 162.463 135.151C166.553 140.549 166.88 141.97 166.062 150.352C164.753 162.853 167.862 167.257 179.969 170.666C196.003 174.928 202.056 182.742 200.42 196.379C199.111 208.313 202.547 213.143 214.491 216.268C229.543 219.962 235.76 227.917 235.105 242.407C234.451 254.909 237.069 258.602 248.849 261.87C264.719 266.416 270.281 273.377 269.627 287.867C269.463 293.123 269.791 298.38 270.445 299.658C271.263 301.221 270.281 302.357 267.5 303.494C263.901 304.914 263.41 304.63 261.61 300.795C260.301 298.095 259.974 293.692 260.628 288.719C262.101 277.639 259.32 273.519 247.376 269.683C230.524 264.285 225.289 257.75 225.943 242.976C226.598 230.332 223.98 226.639 211.873 223.655C205.819 222.093 201.565 219.82 197.966 216.41C191.749 210.301 190.604 206.324 191.912 196.806C193.221 186.151 189.458 181.037 177.678 178.054C162.79 174.36 156.573 166.547 157.227 151.914C157.718 139.555 155.1 135.861 143.975 132.594C139.557 131.315 133.831 128.9 131.377 127.338C127.287 124.496 127.123 124.212 130.068 122.366C131.704 121.371 133.504 120.661 133.995 120.803C134.486 121.087 140.048 122.934 146.265 125.207ZM116.652 141.97C131.213 145.522 138.576 155.466 136.612 168.82C134.976 179.048 138.085 183.452 149.538 187.146C162.299 191.265 165.899 193.68 169.171 200.073C171.461 204.335 171.789 207.602 170.97 213.853C169.662 225.076 173.097 230.048 183.896 232.747C199.602 236.583 206.965 245.391 205.328 258.744C203.856 271.388 207.128 275.508 222.507 279.627C231.67 282.042 240.014 290.85 240.505 298.948C240.995 304.488 238.705 312.728 236.414 314.006C231.179 316.99 230.034 315.285 231.179 306.193C232.488 293.976 229.215 289.288 217.108 286.162C202.056 282.469 195.839 274.513 196.494 260.023C197.148 247.522 194.53 243.828 182.75 240.561C166.88 236.015 161.481 229.196 162.136 214.563C162.79 202.204 160.009 198.368 148.883 195.101C132.522 190.413 127.123 183.878 127.614 169.104C127.778 163.705 126.96 158.023 125.978 156.318C124.015 153.193 116.161 148.931 112.235 148.931C111.089 148.931 108.635 148.079 106.999 146.942C104.381 145.237 104.218 144.669 106.017 142.68C108.635 139.981 108.472 139.981 116.652 141.97ZM105.363 171.093C107.49 175.07 107.981 178.196 106.999 185.157C106.017 193.254 106.345 194.249 110.271 198.368C112.889 201.068 117.307 203.483 121.233 204.477C130.723 206.608 135.304 209.591 139.23 216.126C141.848 220.814 142.339 223.371 141.521 230.048C140.212 240.276 142.993 245.817 150.683 248.232C171.952 254.909 177.351 260.591 175.879 275.224C174.57 287.725 177.188 291.276 191.258 295.965C203.365 299.942 208.928 304.914 210.4 313.154C211.218 317.558 210.891 317.984 207.455 317.984C204.51 317.842 202.711 316.421 200.257 311.875C197.475 306.761 195.676 305.483 187.822 303.068C171.298 297.953 165.735 291.134 167.207 277.497C168.516 265.848 165.244 261.017 153.791 257.608C137.267 252.92 132.031 246.385 132.522 231.327C132.849 219.82 130.559 215.558 122.215 213.001C102.418 206.75 98.0006 201.778 98.0006 185.725C98.0006 176.065 97.5098 174.076 94.074 170.666C90.9654 167.541 90.4746 166.262 91.9471 163.563L93.5832 160.438L98.0006 163.137C100.455 164.7 103.727 168.251 105.363 171.093ZM84.2574 218.399C85.0755 219.109 88.6749 220.388 92.2743 221.382C107.654 225.644 113.707 233.6 112.071 247.095C110.435 258.887 114.198 264.143 126.141 266.984C141.684 270.536 147.411 278.065 146.756 294.402L146.265 304.914L141.848 302.926C137.594 300.937 137.267 300.226 137.267 291.561C137.267 283.747 136.612 281.758 133.34 278.917C131.213 277.07 126.469 274.939 122.869 274.087C108.472 270.678 102.582 263.148 103.073 248.232C103.4 235.873 100.455 231.611 89.3293 228.627C83.9302 227.207 81.6397 225.786 81.6397 224.081C81.6397 222.661 81.1488 220.672 80.658 219.393C79.5128 216.978 81.6397 216.41 84.2574 218.399Z" fill="#FEF6FF"/>
</svg>
