<svg width="15" height="15" viewBox="0 0 15 15" fill="none" xmlns="http://www.w3.org/2000/svg">
<path d="M5.43609 6.99931C5.53199 7.28703 5.63912 7.50129 5.75748 7.64209C5.87583 7.78289 5.99214 7.84513 6.10642 7.8288C6.27783 7.80431 6.40128 7.61352 6.47678 7.25642C6.55228 6.89932 6.54514 6.4004 6.45536 5.75965C6.36557 5.12707 6.23497 4.64856 6.06356 4.32411C5.89216 3.99966 5.72279 3.84967 5.55546 3.87416C5.43711 3.89048 5.3412 3.98129 5.26774 4.14658C5.19428 4.31186 5.1504 4.54551 5.13612 4.84752C5.12184 5.14952 5.14326 5.5107 5.2004 5.93106C5.26162 6.3555 5.34018 6.71158 5.43609 6.99931Z" fill="#FEF1E7"/>
<path d="M6.02065 12.163C5.47786 12.163 5.06056 12.0038 4.76876 11.6855C4.47696 11.3672 4.33105 10.9427 4.33105 10.4122C4.33105 10.3306 4.33922 10.2571 4.35554 10.1918C4.36207 10.1657 4.3686 10.1428 4.37513 10.1232L4.38232 10.103L4.41987 10.1135C4.7085 10.1914 5.07885 10.2624 5.53092 10.3265C6.00433 10.3918 6.37163 10.4683 6.63283 10.556C6.89402 10.6438 7.07563 10.7509 7.17766 10.8774C7.27969 11.0039 7.33071 11.1549 7.33071 11.3304C7.33071 11.5304 7.28275 11.6916 7.18684 11.8141C7.09094 11.9365 6.94606 12.0253 6.7522 12.0803C6.55835 12.1354 6.3145 12.163 6.02065 12.163Z" fill="#FEF1E7"/>
<path fill-rule="evenodd" clip-rule="evenodd" d="M7.5 15C11.6421 15 15 11.6421 15 7.5C15 3.35786 11.6421 0 7.5 0C3.35786 0 0 3.35786 0 7.5C0 11.6421 3.35786 15 7.5 15ZM8.27921 11.7712C7.73642 12.1385 6.96304 12.3222 5.95907 12.3222C5.1959 12.3222 4.58372 12.2701 4.12255 12.1661C3.66138 12.062 3.32775 11.9161 3.12165 11.7284C2.91555 11.5406 2.8125 11.3223 2.8125 11.0733C2.8125 10.7305 2.93596 10.4785 3.18286 10.3173C3.3862 10.1846 3.69818 10.0885 4.11879 10.0291L4.14474 10.0258L4.14092 10.024C3.94808 9.94867 3.80116 9.85665 3.70015 9.74799C3.56547 9.60311 3.49813 9.40823 3.49813 9.16336C3.49813 8.9389 3.55935 8.73892 3.68179 8.56343C3.80422 8.38794 4.0042 8.24408 4.28172 8.13185C4.49519 8.04552 4.76446 7.98277 5.08953 7.94361L5.02737 7.93238C4.78384 7.88565 4.55876 7.81849 4.35212 7.73088C3.90931 7.54314 3.56853 7.29521 3.32979 6.98709C3.09104 6.67896 2.97167 6.34328 2.97167 5.98006C2.97167 5.55154 3.09308 5.16689 3.33591 4.82611C3.57874 4.48534 3.92462 4.21496 4.37354 4.01498C4.82247 3.81501 5.35506 3.71502 5.97132 3.71502C6.24938 3.71502 6.50767 3.73679 6.74618 3.78034L6.81127 3.79333L6.82736 3.74762C6.97385 3.3454 7.16293 3.0162 7.39462 2.76003C7.64561 2.48251 7.96904 2.34375 8.36491 2.34375C8.70365 2.34375 8.95668 2.43762 9.12401 2.62535C9.29134 2.81308 9.375 3.05795 9.375 3.35996C9.375 3.62523 9.30664 3.83235 9.16992 3.98131C9.0332 4.13028 8.83833 4.20476 8.5853 4.20476C8.43429 4.20476 8.30778 4.16293 8.20575 4.07926C8.10372 3.9956 8.01189 3.89867 7.93027 3.78848C7.84865 3.67829 7.766 3.58136 7.68234 3.4977C7.59868 3.41403 7.49971 3.3722 7.38544 3.3722C7.25892 3.3722 7.15485 3.42016 7.07323 3.51606C7.01201 3.58799 6.95742 3.68756 6.90947 3.81475L6.94577 3.82301C7.14053 3.871 7.32075 3.93499 7.48644 4.01498C7.90068 4.21496 8.21493 4.47411 8.42919 4.79244C8.64345 5.11077 8.75058 5.44951 8.75058 5.80865C8.75058 6.22085 8.62815 6.59325 8.38328 6.92587C8.13841 7.25848 7.80375 7.52274 7.37931 7.71863C6.95487 7.91453 6.4733 8.01248 5.93458 8.01248C5.73053 8.01248 5.53588 8.00205 5.35064 7.98119L5.33134 7.97906L5.32377 7.98391C5.30926 7.99479 5.29452 8.0084 5.27956 8.02472C5.23467 8.07369 5.21222 8.13899 5.21222 8.22062C5.21222 8.30224 5.24895 8.37162 5.32241 8.42875C5.39587 8.48589 5.53259 8.53793 5.73257 8.58486C5.93254 8.63179 6.22435 8.67771 6.60798 8.7226C7.2528 8.79606 7.7558 8.89707 8.11698 9.02562C8.47817 9.15418 8.7312 9.32457 8.87608 9.53679C9.02096 9.74901 9.0934 10.0163 9.0934 10.3387C9.0934 10.9264 8.822 11.4039 8.27921 11.7712ZM11.6073 12.0269C11.429 12.134 11.228 12.1875 11.0042 12.1875C10.7881 12.1875 10.5918 12.134 10.4155 12.0269C10.2391 11.9199 10.0997 11.7762 9.99734 11.5959C9.89495 11.4156 9.84375 11.2184 9.84375 11.0044C9.84375 10.794 9.89495 10.6006 9.99734 10.4241C10.0997 10.2475 10.2391 10.1067 10.4155 10.0015C10.5918 9.89633 10.7881 9.84375 11.0042 9.84375C11.228 9.84375 11.429 9.89633 11.6073 10.0015C11.7855 10.1067 11.9268 10.2475 12.0311 10.4241C12.1354 10.6006 12.1875 10.794 12.1875 11.0044C12.1875 11.2184 12.1354 11.4156 12.0311 11.5959C11.9268 11.7762 11.7855 11.9199 11.6073 12.0269Z" fill="#FEF1E7"/>
</svg>
