<svg width="264" height="55" viewBox="0 0 264 55" fill="none" xmlns="http://www.w3.org/2000/svg">
<path d="M25.032 54.64C21.192 54.64 17.7147 54.0853 14.6 52.976C11.528 51.824 8.904 50.2027 6.728 48.112C4.59467 45.9787 2.93067 43.4187 1.736 40.432C0.584 37.4027 0.00800014 34.0107 0.00800014 30.256C0.00800014 26.3733 0.626667 22.832 1.864 19.632C3.144 16.3893 4.91467 13.616 7.176 11.312C9.43733 9.008 12.1467 7.23733 15.304 6C18.4613 4.72 21.96 4.08 25.8 4.08C28.4453 4.08 30.9627 4.44267 33.352 5.168C35.7413 5.89333 38.3227 7.06666 41.096 8.688L42.312 4.72H44.616V20.912H41.416C40.5627 16.9013 38.8347 13.7867 36.232 11.568C33.672 9.34933 30.4507 8.24 26.568 8.24C21.6613 8.24 17.8427 10.1387 15.112 13.936C12.424 17.6907 11.08 22.96 11.08 29.744C11.08 36.4 12.4027 41.4987 15.048 45.04C17.6933 48.5813 21.5333 50.352 26.568 50.352C30.1947 50.352 33.0107 49.4347 35.016 47.6C37.064 45.7227 38.088 43.1413 38.088 39.856C38.088 37.8933 37.576 36.464 36.552 35.568C35.528 34.6293 33.8 34.0533 31.368 33.84V31.28H52.104V33.84C50.0133 33.84 48.5627 34.3093 47.752 35.248C46.9413 36.144 46.536 37.7867 46.536 40.176V48.688C45.5973 48.688 44.808 48.7307 44.168 48.816C43.528 48.8587 42.888 48.9867 42.248 49.2C41.6507 49.3707 40.968 49.6693 40.2 50.096C39.432 50.5227 38.472 51.0773 37.32 51.76C34.0347 53.68 29.9387 54.64 25.032 54.64ZM75.0785 35.76C71.4945 37.3813 68.7852 38.896 66.9505 40.304C65.1585 41.6693 64.2625 43.0987 64.2625 44.592C64.2625 45.8293 64.6038 46.8107 65.2865 47.536C65.9692 48.2613 66.8225 48.624 67.8465 48.624C68.8705 48.624 69.8305 48.4533 70.7265 48.112C71.6225 47.728 72.3905 47.2373 73.0305 46.64C73.6705 46.0427 74.1612 45.3387 74.5025 44.528C74.8865 43.6747 75.0785 42.7787 75.0785 41.84V35.76ZM75.0785 32.368V29.68C75.0785 27.2053 74.6305 25.4133 73.7345 24.304C72.8812 23.152 71.5372 22.576 69.7025 22.576C68.4652 22.576 67.5265 22.9173 66.8865 23.6C66.2465 24.24 65.6492 25.328 65.0945 26.864C64.7105 27.9307 64.1558 28.7627 63.4305 29.36C62.7478 29.9573 61.7878 30.256 60.5505 30.256C59.3558 30.256 58.4385 29.8933 57.7985 29.168C57.1585 28.4427 56.8385 27.4187 56.8385 26.096C56.8385 24.048 57.9478 22.4267 60.1665 21.232C62.4278 20.0373 65.8198 19.44 70.3425 19.44C75.1212 19.44 78.5345 20.3147 80.5825 22.064C82.6305 23.7707 83.6545 26.6507 83.6545 30.704V44.72C83.6545 48.3467 84.3798 50.16 85.8305 50.16C86.6412 50.16 87.3878 49.8827 88.0705 49.328L89.0305 51.184C88.4332 52.2507 87.4945 53.104 86.2145 53.744C84.9772 54.3413 83.5692 54.64 81.9905 54.64C80.0278 54.64 78.5345 54.0427 77.5105 52.848C76.4865 51.6533 75.9745 49.968 75.9745 47.792H75.6545C74.4172 50.0107 72.8172 51.696 70.8545 52.848C68.8918 54 66.6518 54.576 64.1345 54.576C61.4465 54.576 59.2918 53.8293 57.6705 52.336C56.0492 50.8 55.2385 48.816 55.2385 46.384C55.2385 44.5067 56.0705 42.7573 57.7345 41.136C59.3985 39.472 62.1718 37.8507 66.0545 36.272L75.0785 32.368ZM105.621 43.504C105.621 45.2107 105.685 46.576 105.812 47.6C105.941 48.624 106.197 49.4133 106.581 49.968C106.965 50.5227 107.519 50.9067 108.245 51.12C108.97 51.2907 109.951 51.3973 111.189 51.44V54H91.0285V51.44C92.2232 51.3973 93.1832 51.2693 93.9085 51.056C94.6765 50.8 95.2525 50.416 95.6365 49.904C96.0632 49.3493 96.3405 48.6027 96.4685 47.664C96.6392 46.6827 96.7245 45.4453 96.7245 43.952V17.52C96.7245 15.0453 96.6818 13.0187 96.5965 11.44C96.5112 9.81867 96.4045 8.70933 96.2765 8.112C96.0632 7.04533 95.5725 6.34133 94.8045 6C94.0792 5.65866 92.7352 5.488 90.7725 5.488V3.312L105.621 0.879997V43.504ZM128.371 43.504C128.371 45.2107 128.435 46.576 128.562 47.6C128.691 48.624 128.947 49.4133 129.331 49.968C129.715 50.5227 130.269 50.9067 130.995 51.12C131.72 51.2907 132.701 51.3973 133.939 51.44V54H113.779V51.44C114.973 51.3973 115.933 51.2693 116.659 51.056C117.427 50.8 118.003 50.416 118.387 49.904C118.813 49.3493 119.091 48.6027 119.219 47.664C119.389 46.6827 119.475 45.4453 119.475 43.952V17.52C119.475 15.0453 119.432 13.0187 119.347 11.44C119.261 9.81867 119.155 8.70933 119.027 8.112C118.813 7.04533 118.323 6.34133 117.555 6C116.829 5.65866 115.485 5.488 113.523 5.488V3.312L128.371 0.879997V43.504ZM169.873 48.048C165.99 52.4427 161.147 54.64 155.345 54.64C152.699 54.64 150.289 54.2347 148.113 53.424C145.979 52.5707 144.145 51.3973 142.609 49.904C141.073 48.368 139.878 46.5547 139.025 44.464C138.171 42.3733 137.745 40.048 137.745 37.488C137.745 34.8427 138.193 32.432 139.089 30.256C139.985 28.0373 141.243 26.1387 142.865 24.56C144.529 22.9387 146.47 21.68 148.689 20.784C150.95 19.888 153.425 19.44 156.113 19.44C160.635 19.44 164.155 20.656 166.673 23.088C169.19 25.52 170.449 28.9333 170.449 33.328C170.449 34.0107 170.342 34.4373 170.129 34.608C169.915 34.736 169.318 34.8 168.337 34.8H147.729C147.558 35.184 147.473 35.888 147.473 36.912C147.473 41.0933 148.369 44.4 150.161 46.832C151.995 49.264 154.47 50.48 157.585 50.48C159.377 50.48 161.147 50.0747 162.897 49.264C164.689 48.4533 166.417 47.3013 168.081 45.808L169.873 48.048ZM157.457 31.216C159.163 31.216 160.251 31.1307 160.721 30.96C161.233 30.7467 161.489 30.2773 161.489 29.552C161.489 27.6747 160.955 26.1387 159.889 24.944C158.822 23.7493 157.478 23.152 155.857 23.152C154.022 23.152 152.379 23.92 150.929 25.456C149.521 26.9493 148.603 28.8693 148.177 31.216H157.457ZM189.262 44.08C189.262 45.744 189.326 47.0667 189.454 48.048C189.625 48.9867 189.945 49.712 190.414 50.224C190.883 50.736 191.566 51.0773 192.462 51.248C193.358 51.376 194.553 51.44 196.046 51.44V54H174.67V51.44C175.95 51.3547 176.974 51.2267 177.742 51.056C178.51 50.8853 179.086 50.544 179.47 50.032C179.854 49.52 180.089 48.7947 180.174 47.856C180.302 46.8747 180.366 45.5733 180.366 43.952V36.144C180.366 33.4987 180.302 31.3867 180.174 29.808C180.046 28.2293 179.769 27.0133 179.342 26.16C178.915 25.3067 178.297 24.752 177.486 24.496C176.718 24.1973 175.694 24.048 174.414 24.048V21.808L187.214 19.44L188.238 26.8H188.494C189.646 24.5387 191.161 22.7467 193.038 21.424C194.915 20.1013 196.899 19.44 198.99 19.44C200.611 19.44 201.934 19.8453 202.958 20.656C203.982 21.4667 204.494 22.4907 204.494 23.728C204.494 25.0933 204.089 26.2453 203.278 27.184C202.51 28.1227 201.443 28.592 200.078 28.592C199.438 28.592 198.862 28.464 198.35 28.208C197.838 27.952 197.369 27.6747 196.942 27.376C196.558 27.0347 196.153 26.736 195.726 26.48C195.342 26.1813 194.937 26.032 194.51 26.032C193.699 26.032 192.931 26.5653 192.206 27.632C191.481 28.6987 190.883 30.128 190.414 31.92C190.073 33.2 189.795 34.6507 189.582 36.272C189.369 37.8507 189.262 39.4293 189.262 41.008V44.08ZM221.073 43.504C221.073 45.2107 221.137 46.576 221.265 47.6C221.393 48.624 221.649 49.4133 222.033 49.968C222.417 50.5227 222.972 50.9067 223.697 51.12C224.422 51.2907 225.404 51.3973 226.641 51.44V54H206.481V51.44C207.676 51.3973 208.636 51.2693 209.361 51.056C210.129 50.8 210.705 50.416 211.089 49.904C211.516 49.3493 211.793 48.6027 211.921 47.664C212.092 46.6827 212.177 45.4453 212.177 43.952V36.08C212.177 33.6053 212.134 31.5787 212.049 30C211.964 28.3787 211.857 27.2693 211.729 26.672C211.516 25.6053 211.025 24.9013 210.257 24.56C209.532 24.2187 208.188 24.048 206.225 24.048V21.872L221.073 19.44V43.504ZM211.665 5.872C211.665 4.464 212.134 3.29066 213.073 2.352C214.054 1.37066 215.228 0.879997 216.593 0.879997C218.001 0.879997 219.174 1.37066 220.113 2.352C221.094 3.29066 221.585 4.464 221.585 5.872C221.585 7.23733 221.094 8.41066 220.113 9.392C219.174 10.3307 218.001 10.8 216.593 10.8C215.228 10.8 214.054 10.3307 213.073 9.392C212.134 8.41066 211.665 7.23733 211.665 5.872ZM249.766 35.76C246.182 37.3813 243.473 38.896 241.638 40.304C239.846 41.6693 238.95 43.0987 238.95 44.592C238.95 45.8293 239.291 46.8107 239.974 47.536C240.657 48.2613 241.51 48.624 242.534 48.624C243.558 48.624 244.518 48.4533 245.414 48.112C246.31 47.728 247.078 47.2373 247.718 46.64C248.358 46.0427 248.849 45.3387 249.19 44.528C249.574 43.6747 249.766 42.7787 249.766 41.84V35.76ZM249.766 32.368V29.68C249.766 27.2053 249.318 25.4133 248.422 24.304C247.569 23.152 246.225 22.576 244.39 22.576C243.153 22.576 242.214 22.9173 241.574 23.6C240.934 24.24 240.337 25.328 239.782 26.864C239.398 27.9307 238.843 28.7627 238.118 29.36C237.435 29.9573 236.475 30.256 235.238 30.256C234.043 30.256 233.126 29.8933 232.486 29.168C231.846 28.4427 231.526 27.4187 231.526 26.096C231.526 24.048 232.635 22.4267 234.854 21.232C237.115 20.0373 240.507 19.44 245.03 19.44C249.809 19.44 253.222 20.3147 255.27 22.064C257.318 23.7707 258.342 26.6507 258.342 30.704V44.72C258.342 48.3467 259.067 50.16 260.518 50.16C261.329 50.16 262.075 49.8827 262.758 49.328L263.718 51.184C263.121 52.2507 262.182 53.104 260.902 53.744C259.665 54.3413 258.257 54.64 256.678 54.64C254.715 54.64 253.222 54.0427 252.198 52.848C251.174 51.6533 250.662 49.968 250.662 47.792H250.342C249.105 50.0107 247.505 51.696 245.542 52.848C243.579 54 241.339 54.576 238.822 54.576C236.134 54.576 233.979 53.8293 232.358 52.336C230.737 50.8 229.926 48.816 229.926 46.384C229.926 44.5067 230.758 42.7573 232.422 41.136C234.086 39.472 236.859 37.8507 240.742 36.272L249.766 32.368Z" fill="#030D3E"/>
</svg>
