<svg width="13" height="15" viewBox="0 0 13 15" fill="none" xmlns="http://www.w3.org/2000/svg">
<path d="M6.45273 15C8.25731 15 9.75201 14.6031 10.9368 13.8093C12.1217 13.0155 12.7141 11.8613 12.7141 10.3467C12.6229 8.30292 11.1009 6.77007 8.14794 5.74818L6.5621 5.09124C6.21577 4.98175 5.96969 4.87226 5.82386 4.76277C5.67804 4.65328 5.60513 4.51642 5.60513 4.35219C5.60513 3.89599 5.90589 3.66788 6.50741 3.66788C7.25477 3.66788 7.81072 4.0511 8.17528 4.81752L12.2493 3.66788C11.2649 1.22263 9.36922 0 6.5621 0C4.88512 0 3.49067 0.437956 2.37876 1.31387C1.26685 2.18978 0.710894 3.33029 0.710894 4.7354C0.710894 5.17336 0.774692 5.57938 0.902289 5.95347C1.02988 6.32755 1.22128 6.65602 1.47647 6.93887C1.73167 7.22171 1.97774 7.46807 2.21471 7.67792C2.45167 7.88777 2.75244 8.08394 3.117 8.26642C3.48156 8.4489 3.75954 8.5812 3.95093 8.66332C4.14232 8.74544 4.40207 8.84124 4.73018 8.95073L5.19499 9.11496L6.83552 9.71715C7.23654 9.86314 7.49629 9.98631 7.61477 10.0867C7.73325 10.187 7.79249 10.3193 7.79249 10.4836C7.79249 10.958 7.34591 11.1953 6.45273 11.1953C5.14031 11.1953 4.3565 10.6113 4.10131 9.44343L0 10.3741C0.510385 13.458 2.6613 15 6.45273 15Z" fill="#FFF"/>
</svg>
