<svg width="274" height="47" viewBox="0 0 274 47" fill="none" xmlns="http://www.w3.org/2000/svg">
<path d="M26.832 1.2C27.6 1.2 28.2507 1.11466 28.784 0.943996C29.3173 0.773332 29.7867 0.613332 30.192 0.463997C30.6187 0.314664 31.0027 0.239998 31.344 0.239998C31.8987 0.239998 32.3147 0.389332 32.592 0.688C32.8907 0.965331 33.136 1.47733 33.328 2.224L36.144 12.848C36.272 13.2747 36.2187 13.6267 35.984 13.904C35.7707 14.16 35.472 14.3307 35.088 14.416C34.7467 14.4587 34.416 14.4267 34.096 14.32C33.7973 14.192 33.5307 13.904 33.296 13.456C31.888 10.896 30.576 8.93333 29.36 7.568C28.1653 6.18133 26.96 5.22133 25.744 4.688C24.5493 4.15466 23.2373 3.888 21.808 3.888H17.104V41.424C17.104 41.8507 17.232 42.2027 17.488 42.48C17.744 42.7573 18.1387 42.9387 18.672 43.024L21.488 43.408C21.936 43.4933 22.256 43.6427 22.448 43.856C22.64 44.0693 22.736 44.3787 22.736 44.784C22.736 45.1467 22.608 45.4453 22.352 45.68C22.096 45.8933 21.6907 46 21.136 46H2.32C1.76533 46 1.36 45.8933 1.104 45.68C0.848 45.4453 0.72 45.1467 0.72 44.784C0.72 44.1227 1.09333 43.664 1.84 43.408L3.6 43.024C4.112 42.8747 4.48533 42.6827 4.72 42.448C4.976 42.192 5.104 41.8507 5.104 41.424V5.776C5.104 5.34933 4.976 5.01866 4.72 4.784C4.48533 4.528 4.112 4.32533 3.6 4.176L1.84 3.792C1.09333 3.536 0.72 3.07733 0.72 2.416C0.72 2.032 0.848 1.73333 1.104 1.52C1.36 1.30666 1.76533 1.2 2.32 1.2H26.832ZM13.232 22.8H21.808C23.408 22.8 24.5813 22.48 25.328 21.84C26.0747 21.1787 26.64 19.9307 27.024 18.096C27.1307 17.6907 27.2907 17.4027 27.504 17.232C27.7387 17.0613 28.0053 16.976 28.304 16.976C29.0293 16.9547 29.4773 17.3173 29.648 18.064L32.144 28.72C32.272 29.168 32.2613 29.52 32.112 29.776C31.984 30.032 31.76 30.224 31.44 30.352C31.0987 30.4587 30.7787 30.4693 30.48 30.384C30.1813 30.2773 29.8827 30.032 29.584 29.648C28.816 28.56 28.112 27.7067 27.472 27.088C26.832 26.4693 26.1493 26.0427 25.424 25.808C24.6987 25.5733 23.792 25.456 22.704 25.456H13.232V22.8ZM51.0585 29.008C51.0585 26 51.4852 23.4933 52.3385 21.488C53.1918 19.4827 54.3012 17.9787 55.6665 16.976C57.0532 15.9733 58.5358 15.472 60.1145 15.472C62.0772 15.472 63.5812 16.0693 64.6265 17.264C65.6932 18.4373 66.2265 20.1867 66.2265 22.512C66.2265 24.7093 65.7572 26.3413 64.8185 27.408C63.8798 28.4533 62.6745 28.976 61.2025 28.976C59.7518 28.976 58.6638 28.592 57.9385 27.824C57.2345 27.056 56.8718 25.9787 56.8505 24.592L56.8185 23.376C56.8185 22.7787 56.6905 22.3307 56.4345 22.032C56.1998 21.712 55.8052 21.552 55.2505 21.552C54.6745 21.552 54.1305 21.808 53.6185 22.32C53.1278 22.832 52.7332 23.632 52.4345 24.72C52.1358 25.7867 51.9865 27.1733 51.9865 28.88L51.0585 29.008ZM51.5385 17.328L51.9865 25.52V41.488C51.9865 42 52.0825 42.3947 52.2745 42.672C52.4665 42.928 52.8398 43.1093 53.3945 43.216L56.1785 43.728C56.5838 43.792 56.8718 43.92 57.0425 44.112C57.2345 44.2827 57.3305 44.5387 57.3305 44.88C57.3305 45.2427 57.2025 45.52 56.9465 45.712C56.7118 45.904 56.3598 46 55.8905 46H39.7305C39.2398 46 38.8772 45.904 38.6425 45.712C38.4292 45.4987 38.3225 45.232 38.3225 44.912C38.3225 44.656 38.3972 44.432 38.5465 44.24C38.6958 44.048 38.9412 43.888 39.2825 43.76L40.4345 43.472C40.7545 43.344 40.9785 43.152 41.1065 42.896C41.2558 42.6187 41.3305 42.2027 41.3305 41.648V22.512C41.3305 22.064 41.2665 21.744 41.1385 21.552C41.0105 21.3387 40.7972 21.2 40.4985 21.136L39.0585 21.04C38.7812 20.9547 38.5678 20.8373 38.4185 20.688C38.2905 20.5173 38.2265 20.304 38.2265 20.048C38.2265 19.7493 38.3118 19.5147 38.4825 19.344C38.6745 19.152 38.9945 18.9813 39.4425 18.832L47.4105 16.4C48.2852 16.0587 48.9145 15.8453 49.2985 15.76C49.7038 15.6533 50.0238 15.6 50.2585 15.6C50.6425 15.6 50.9305 15.7387 51.1225 16.016C51.3358 16.272 51.4745 16.7093 51.5385 17.328ZM87.003 42.256V41.68L86.331 41.776V21.104C86.331 19.952 86.043 19.056 85.467 18.416C84.9123 17.7547 84.1337 17.424 83.131 17.424C82.171 17.424 81.4137 17.6587 80.859 18.128C80.3257 18.576 80.059 19.1413 80.059 19.824V22.928C80.059 24.3573 79.5577 25.5093 78.555 26.384C77.5737 27.2373 76.2083 27.664 74.459 27.664C73.051 27.664 71.9737 27.3333 71.227 26.672C70.4803 25.9893 70.107 25.0187 70.107 23.76C70.107 22.48 70.651 21.2107 71.739 19.952C72.8483 18.672 74.491 17.616 76.667 16.784C78.8643 15.9307 81.595 15.504 84.859 15.504C88.9337 15.504 91.963 16.2933 93.947 17.872C95.931 19.4507 96.923 21.648 96.923 24.464V40.528C96.923 41.0613 97.0403 41.4773 97.275 41.776C97.5097 42.0533 97.8297 42.192 98.235 42.192C98.619 42.192 98.939 42.0853 99.195 41.872C99.451 41.6587 99.6537 41.3707 99.803 41.008C99.8883 40.88 99.9843 40.784 100.091 40.72C100.198 40.6347 100.315 40.592 100.443 40.592C100.678 40.592 100.838 40.6667 100.923 40.816C101.03 40.9653 101.083 41.1787 101.083 41.456C101.083 42.1387 100.816 42.896 100.283 43.728C99.7497 44.5387 98.9283 45.2533 97.819 45.872C96.7097 46.4693 95.291 46.768 93.563 46.768C91.4937 46.768 89.883 46.352 88.731 45.52C87.579 44.6667 87.003 43.5787 87.003 42.256ZM68.667 39.408C68.667 36.7413 69.8297 34.6187 72.155 33.04C74.5017 31.4613 77.9577 30.672 82.523 30.672C83.7603 30.672 84.827 30.7787 85.723 30.992C86.6403 31.2053 87.4297 31.4933 88.091 31.856L87.419 33.456C86.8217 33.1573 86.2243 32.9333 85.627 32.784C85.051 32.6347 84.411 32.56 83.707 32.56C82.363 32.56 81.307 32.9973 80.539 33.872C79.771 34.7467 79.387 36.016 79.387 37.68C79.387 39.3227 79.739 40.56 80.443 41.392C81.1683 42.224 82.0963 42.64 83.227 42.64C84.0377 42.64 84.827 42.4373 85.595 42.032C86.363 41.6267 86.9817 41.104 87.451 40.464L88.059 41.904C87.035 43.4613 85.595 44.6667 83.739 45.52C81.9043 46.352 79.9417 46.768 77.851 46.768C75.1203 46.768 72.9017 46.0853 71.195 44.72C69.5097 43.3333 68.667 41.5627 68.667 39.408ZM125.689 42.192V39.92L125.433 39.792V22.544C125.433 22.096 125.369 21.776 125.241 21.584C125.113 21.392 124.9 21.2747 124.601 21.232L123.225 21.104C122.905 21.04 122.681 20.9227 122.553 20.752C122.425 20.5813 122.361 20.368 122.361 20.112C122.361 19.8133 122.446 19.5787 122.617 19.408C122.788 19.2373 123.097 19.0667 123.545 18.896L131.609 16.24C132.292 16.0053 132.825 15.8347 133.209 15.728C133.614 15.6 134.009 15.536 134.393 15.536C134.948 15.536 135.364 15.696 135.641 16.016C135.94 16.336 136.089 16.7413 136.089 17.232V41.584C136.089 42.1813 136.164 42.6187 136.313 42.896C136.462 43.152 136.697 43.344 137.017 43.472L138.169 43.76C138.51 43.888 138.745 44.048 138.873 44.24C139.022 44.4107 139.097 44.6347 139.097 44.912C139.097 45.2533 138.98 45.52 138.745 45.712C138.532 45.904 138.18 46 137.689 46H129.049C128.11 46 127.31 45.6373 126.649 44.912C126.009 44.1867 125.689 43.28 125.689 42.192ZM105.817 37.584V22.544C105.817 22.096 105.742 21.776 105.593 21.584C105.465 21.392 105.252 21.2747 104.953 21.232L103.609 21.104C103.289 21.04 103.065 20.9227 102.937 20.752C102.809 20.5813 102.745 20.368 102.745 20.112C102.745 19.8133 102.83 19.5787 103.001 19.408C103.172 19.2373 103.481 19.0667 103.929 18.896L111.993 16.24C112.697 15.984 113.241 15.8027 113.625 15.696C114.03 15.5893 114.393 15.536 114.713 15.536C115.31 15.536 115.748 15.696 116.025 16.016C116.324 16.336 116.473 16.7413 116.473 17.232V36.208C116.473 37.808 116.836 39.0027 117.561 39.792C118.308 40.5813 119.321 40.976 120.601 40.976C121.412 40.976 122.244 40.8053 123.097 40.464C123.972 40.1013 124.814 39.5573 125.625 38.832L126.809 37.808L128.025 39.056L126.873 40.112C124.228 42.544 121.892 44.2613 119.865 45.264C117.838 46.2453 115.972 46.736 114.265 46.736C111.748 46.736 109.71 45.936 108.153 44.336C106.596 42.7147 105.817 40.464 105.817 37.584ZM156.112 17.2V41.584C156.112 42.1813 156.176 42.6187 156.304 42.896C156.453 43.152 156.688 43.344 157.008 43.472L158.128 43.792C158.661 44.0267 158.928 44.3787 158.928 44.848C158.928 45.616 158.448 46 157.488 46H143.824C143.333 46 142.97 45.904 142.736 45.712C142.522 45.52 142.416 45.2533 142.416 44.912C142.416 44.656 142.48 44.432 142.608 44.24C142.757 44.048 143.002 43.888 143.344 43.76L144.528 43.472C144.848 43.344 145.082 43.152 145.232 42.896C145.381 42.6187 145.456 42.1813 145.456 41.584V22.512C145.456 22.064 145.381 21.744 145.232 21.552C145.104 21.36 144.89 21.232 144.592 21.168L143.216 21.072C142.917 20.9867 142.693 20.8693 142.544 20.72C142.416 20.5493 142.352 20.336 142.352 20.08C142.352 19.7813 142.437 19.5467 142.608 19.376C142.778 19.184 143.088 19.0133 143.536 18.864L151.632 16.208C152.293 15.952 152.826 15.7707 153.232 15.664C153.637 15.5573 154.021 15.504 154.384 15.504C154.938 15.504 155.365 15.664 155.664 15.984C155.962 16.304 156.112 16.7093 156.112 17.2ZM155.12 24.4L153.936 23.152L155.088 22.128C157.669 19.7813 159.898 18.0853 161.776 17.04C163.674 15.9947 165.434 15.472 167.056 15.472C169.466 15.472 171.344 16.2613 172.688 17.84C174.053 19.4187 174.874 21.6053 175.152 24.4L177.04 41.52C177.104 42.1387 177.189 42.5973 177.296 42.896C177.424 43.1733 177.658 43.3653 178 43.472L179.088 43.76C179.429 43.888 179.664 44.048 179.792 44.24C179.941 44.432 180.016 44.656 180.016 44.912C180.016 45.2533 179.898 45.52 179.664 45.712C179.45 45.904 179.098 46 178.608 46H164.784C163.824 46 163.344 45.616 163.344 44.848C163.344 44.3787 163.6 44.0267 164.112 43.792L165.264 43.472C165.605 43.344 165.861 43.1413 166.032 42.864C166.202 42.5653 166.256 42.1173 166.192 41.52L164.592 25.776C164.421 24.24 164.048 23.1093 163.472 22.384C162.917 21.6373 162.064 21.264 160.912 21.264C160.165 21.264 159.408 21.4453 158.64 21.808C157.872 22.1707 157.104 22.6933 156.336 23.376L155.12 24.4ZM210.684 24.304C210.684 25.712 210.214 26.8747 209.276 27.792C208.337 28.7093 207.068 29.168 205.468 29.168C203.889 29.168 202.673 28.7307 201.82 27.856C200.988 26.96 200.572 25.7653 200.572 24.272V22.576C200.572 21.1893 200.23 20.1013 199.548 19.312C198.886 18.5227 197.99 18.128 196.86 18.128C195.836 18.128 194.908 18.5013 194.076 19.248C193.265 19.9733 192.625 21.04 192.156 22.448C191.686 23.8347 191.452 25.5413 191.452 27.568C191.452 30.2133 191.868 32.4427 192.7 34.256C193.532 36.0693 194.673 37.4453 196.124 38.384C197.596 39.3013 199.27 39.76 201.148 39.76C202.854 39.76 204.337 39.4507 205.596 38.832C206.876 38.192 207.889 37.2 208.636 35.856C208.956 35.5147 209.201 35.28 209.372 35.152C209.564 35.024 209.756 34.9707 209.948 34.992C210.225 34.992 210.417 35.12 210.524 35.376C210.652 35.6107 210.705 35.9093 210.684 36.272C210.513 38.2773 209.83 40.0693 208.636 41.648C207.462 43.2267 205.873 44.4747 203.868 45.392C201.884 46.3093 199.59 46.768 196.988 46.768C194.065 46.768 191.452 46.1707 189.148 44.976C186.865 43.7813 185.062 42.0747 183.74 39.856C182.417 37.616 181.756 34.9493 181.756 31.856C181.756 28.72 182.428 25.9253 183.772 23.472C185.137 20.9973 187.036 19.0453 189.468 17.616C191.9 16.1867 194.748 15.472 198.012 15.472C200.678 15.472 202.95 15.8667 204.828 16.656C206.726 17.4453 208.177 18.512 209.18 19.856C210.182 21.1787 210.684 22.6613 210.684 24.304ZM243.609 27.92C243.609 28.816 243.353 29.52 242.841 30.032C242.35 30.5227 241.614 30.768 240.633 30.768H220.985V28.72H231.769C232.601 28.72 233.017 28.304 233.017 27.472C233.017 24.2507 232.59 21.8933 231.737 20.4C230.883 18.8853 229.817 18.128 228.537 18.128C227.555 18.128 226.681 18.4693 225.913 19.152C225.166 19.8347 224.569 20.8907 224.121 22.32C223.673 23.7493 223.449 25.5627 223.449 27.76C223.449 31.92 224.366 35.0027 226.201 37.008C228.035 38.992 230.478 39.984 233.529 39.984C235.427 39.984 237.059 39.5893 238.425 38.8C239.79 38.0107 240.793 36.8693 241.433 35.376C241.731 35.0347 241.977 34.8107 242.169 34.704C242.361 34.576 242.542 34.512 242.713 34.512C242.969 34.512 243.161 34.64 243.289 34.896C243.438 35.1307 243.502 35.4293 243.481 35.792C243.438 37.7973 242.809 39.632 241.593 41.296C240.398 42.96 238.755 44.2933 236.665 45.296C234.574 46.2773 232.174 46.768 229.465 46.768C226.457 46.768 223.769 46.1493 221.401 44.912C219.054 43.6533 217.209 41.904 215.865 39.664C214.521 37.4027 213.849 34.768 213.849 31.76C213.849 28.496 214.489 25.648 215.769 23.216C217.049 20.7627 218.894 18.864 221.305 17.52C223.715 16.1547 226.585 15.472 229.913 15.472C232.814 15.472 235.278 16.016 237.305 17.104C239.353 18.1707 240.91 19.6427 241.977 21.52C243.065 23.376 243.609 25.5093 243.609 27.92ZM260.708 44.304C262.03 44.304 263.044 43.984 263.748 43.344C264.473 42.6827 264.836 41.8613 264.836 40.88C264.836 40.2187 264.686 39.6213 264.388 39.088C264.11 38.5333 263.566 38.032 262.756 37.584C261.945 37.1147 260.772 36.688 259.236 36.304C255.972 35.5573 253.444 34.6507 251.652 33.584C249.881 32.5173 248.654 31.3013 247.972 29.936C247.289 28.5493 246.948 27.0027 246.948 25.296C246.948 22.2027 248.014 19.792 250.148 18.064C252.281 16.336 255.31 15.472 259.236 15.472C260.686 15.472 261.86 15.6 262.756 15.856C263.673 16.0907 264.398 16.336 264.932 16.592C265.465 16.8267 265.902 16.944 266.244 16.944C266.649 16.944 267.054 16.8267 267.46 16.592C267.865 16.336 268.27 16.08 268.676 15.824C269.081 15.568 269.476 15.44 269.86 15.44C270.137 15.44 270.393 15.536 270.628 15.728C270.862 15.8987 271.044 16.2293 271.172 16.72L272.932 24.144C273.124 24.8053 273.177 25.3387 273.092 25.744C273.006 26.128 272.772 26.3947 272.388 26.544C272.004 26.6933 271.662 26.704 271.364 26.576C271.065 26.4267 270.777 26.1493 270.5 25.744C269.369 23.824 268.228 22.288 267.076 21.136C265.945 19.984 264.782 19.152 263.588 18.64C262.414 18.128 261.166 17.872 259.844 17.872C258.286 17.872 257.113 18.2133 256.324 18.896C255.534 19.5573 255.14 20.4427 255.14 21.552C255.14 22.2773 255.321 22.928 255.684 23.504C256.046 24.08 256.718 24.6133 257.7 25.104C258.702 25.5733 260.153 26.0213 262.052 26.448C264.761 27.0667 266.916 27.8773 268.516 28.88C270.116 29.8613 271.268 31.0453 271.972 32.432C272.676 33.7973 273.028 35.3653 273.028 37.136C273.028 39.0773 272.526 40.7733 271.524 42.224C270.521 43.6747 269.156 44.7947 267.428 45.584C265.7 46.3733 263.726 46.768 261.508 46.768C260.142 46.768 259.022 46.6187 258.148 46.32C257.273 46.0427 256.558 45.7653 256.004 45.488C255.47 45.1893 255.022 45.04 254.66 45.04C254.276 45.04 253.86 45.1787 253.411 45.456C252.985 45.7333 252.558 46.0107 252.132 46.288C251.705 46.5653 251.31 46.704 250.948 46.704C250.649 46.704 250.393 46.5867 250.18 46.352C249.966 46.1387 249.817 45.7653 249.732 45.232L248.548 38.544C248.441 37.84 248.43 37.3173 248.516 36.976C248.622 36.6347 248.846 36.3893 249.188 36.24C249.572 36.0693 249.902 36.08 250.18 36.272C250.478 36.4427 250.788 36.752 251.108 37.2C252.686 39.76 254.276 41.584 255.876 42.672C257.476 43.76 259.086 44.304 260.708 44.304Z" fill="#F8D914"/>
</svg>
