<svg width="170" height="42" viewBox="0 0 170 42" fill="none" xmlns="http://www.w3.org/2000/svg">
<path d="M22.3899 19.8299C22.1965 19.9459 22.1965 20.0619 22.3899 20.1779C26.4885 21.9179 28.5379 25.1466 28.5379 29.8639C28.5379 33.4212 27.3585 36.1666 24.9999 38.0999C22.6412 40.0332 19.5672 40.9999 15.7779 40.9999H1.33586C0.949193 40.9999 0.755859 40.8066 0.755859 40.4199V0.979902C0.755859 0.593235 0.949193 0.399902 1.33586 0.399902H15.3139C19.3352 0.399902 22.4479 1.3279 24.6519 3.1839C26.8945 5.00124 28.0159 7.66924 28.0159 11.1879C28.0159 15.3639 26.1405 18.2446 22.3899 19.8299ZM6.55586 5.2139C6.40119 5.2139 6.32386 5.29124 6.32386 5.4459V17.6839C6.32386 17.8386 6.40119 17.9159 6.55586 17.9159H15.3139C17.5565 17.9159 19.3159 17.3552 20.5919 16.2339C21.9065 15.1126 22.5639 13.5852 22.5639 11.6519C22.5639 9.6799 21.9065 8.1139 20.5919 6.9539C19.3159 5.7939 17.5565 5.2139 15.3139 5.2139H6.55586ZM15.7779 36.1279C17.9819 36.1279 19.7219 35.5286 20.9979 34.3299C22.3125 33.0926 22.9699 31.4299 22.9699 29.3419C22.9699 27.2539 22.3125 25.6106 20.9979 24.4119C19.6832 23.1746 17.8852 22.5559 15.6039 22.5559H6.55586C6.40119 22.5559 6.32386 22.6332 6.32386 22.7879V35.8959C6.32386 36.0506 6.40119 36.1279 6.55586 36.1279H15.7779Z" fill="#F8D914"/>
<path d="M46.758 11.0139C49.1167 11.0139 51.166 11.4392 52.906 12.2899C54.6847 13.1019 56.038 14.2619 56.966 15.7699C57.9327 17.2392 58.416 18.9212 58.416 20.8159V40.4199C58.416 40.8066 58.2227 40.9999 57.836 40.9999H53.428C53.0414 40.9999 52.848 40.8066 52.848 40.4199V38.3319C52.848 38.1386 52.7514 38.0999 52.558 38.2159C51.5527 39.2599 50.3153 40.0719 48.846 40.6519C47.4153 41.1932 45.8107 41.4639 44.032 41.4639C41.1707 41.4639 38.7927 40.7486 36.898 39.3179C35.042 37.8486 34.114 35.6446 34.114 32.7059C34.114 29.6899 35.158 27.3312 37.246 25.6299C39.3727 23.8899 42.3307 23.0199 46.12 23.0199H52.616C52.7707 23.0199 52.848 22.9426 52.848 22.7879V21.2219C52.848 19.5206 52.3453 18.2059 51.34 17.2779C50.3733 16.3112 48.8847 15.8279 46.874 15.8279C45.25 15.8279 43.916 16.1566 42.872 16.8139C41.8667 17.4326 41.248 18.2832 41.016 19.3659C40.9 19.7526 40.668 19.9266 40.32 19.8879L35.622 19.2499C35.2354 19.1726 35.0614 19.0179 35.1 18.7859C35.4094 16.5046 36.6273 14.6486 38.754 13.2179C40.8807 11.7486 43.5487 11.0139 46.758 11.0139ZM45.25 36.7659C47.2993 36.7659 49.078 36.2246 50.586 35.1419C52.094 34.0592 52.848 32.6866 52.848 31.0239V27.6019C52.848 27.4472 52.7707 27.3699 52.616 27.3699H47.164C44.8827 27.3699 43.0654 27.8146 41.712 28.7039C40.3587 29.5932 39.682 30.8306 39.682 32.4159C39.682 33.8466 40.1847 34.9292 41.19 35.6639C42.234 36.3986 43.5873 36.7659 45.25 36.7659Z" fill="#F8D914"/>
<path d="M78.8669 11.1879C80.1042 11.1879 81.2256 11.4392 82.2309 11.9419C82.5016 12.0579 82.5982 12.2899 82.5209 12.6379L81.5929 16.9879C81.5542 17.3359 81.3222 17.4519 80.8969 17.3359C80.2396 17.0652 79.4662 16.9299 78.5769 16.9299L77.7649 16.9879C75.9476 17.0652 74.4396 17.7032 73.2409 18.9019C72.0809 20.0619 71.5009 21.5892 71.5009 23.4839V40.4199C71.5009 40.8066 71.3076 40.9999 70.9209 40.9999H66.5129C66.1262 40.9999 65.9329 40.8066 65.9329 40.4199V12.0579C65.9329 11.6712 66.1262 11.4779 66.5129 11.4779H70.9209C71.3076 11.4779 71.5009 11.6712 71.5009 12.0579V15.1319C71.5009 15.2479 71.5202 15.3252 71.5589 15.3639C71.6362 15.3639 71.6942 15.3252 71.7329 15.2479C73.4729 12.5412 75.8509 11.1879 78.8669 11.1879Z" fill="#F8D914"/>
<path d="M88.0363 40.9999C87.6497 40.9999 87.4563 40.8066 87.4563 40.4199V0.979902C87.4563 0.593235 87.6497 0.399902 88.0363 0.399902H92.4443C92.831 0.399902 93.0243 0.593235 93.0243 0.979902V40.4199C93.0243 40.8066 92.831 40.9999 92.4443 40.9999H88.0363Z" fill="#F8D914"/>
<path d="M113.171 41.4639C110.309 41.4639 107.815 40.7486 105.689 39.3179C103.562 37.8486 102.073 35.8186 101.223 33.2279C100.527 31.1399 100.179 28.7812 100.179 26.1519C100.179 23.4066 100.507 21.0866 101.165 19.1919C102.015 16.6399 103.504 14.6486 105.631 13.2179C107.757 11.7486 110.29 11.0139 113.229 11.0139C116.013 11.0139 118.429 11.7486 120.479 13.2179C122.567 14.6486 124.055 16.6206 124.945 19.1339C125.641 21.1059 125.989 23.4259 125.989 26.0939C125.989 28.8006 125.641 31.1786 124.945 33.2279C124.094 35.8186 122.625 37.8486 120.537 39.3179C118.449 40.7486 115.993 41.4639 113.171 41.4639ZM113.171 36.6499C114.717 36.6499 116.071 36.2246 117.231 35.3739C118.391 34.4846 119.222 33.2472 119.725 31.6619C120.15 30.1926 120.363 28.3752 120.363 26.2099C120.363 24.0446 120.169 22.2466 119.783 20.8159C119.28 19.2306 118.449 18.0126 117.289 17.1619C116.129 16.2726 114.717 15.8279 113.055 15.8279C111.469 15.8279 110.097 16.2726 108.937 17.1619C107.777 18.0126 106.945 19.2306 106.443 20.8159C106.017 22.1692 105.805 23.9672 105.805 26.2099C105.805 28.4526 106.017 30.2699 106.443 31.6619C106.907 33.2472 107.719 34.4846 108.879 35.3739C110.077 36.2246 111.508 36.6499 113.171 36.6499Z" fill="#F8D914"/>
<path d="M138.473 40.9999C138.164 40.9999 137.951 40.8452 137.835 40.5359L129.483 12.1159L129.425 11.9419C129.425 11.6326 129.619 11.4779 130.005 11.4779H134.529C134.877 11.4779 135.09 11.6519 135.167 11.9999L140.677 33.0539C140.716 33.1312 140.755 33.1699 140.793 33.1699C140.871 33.1699 140.929 33.1312 140.967 33.0539L146.593 11.9999C146.671 11.6519 146.883 11.4779 147.231 11.4779H151.233C151.581 11.4779 151.794 11.6519 151.871 11.9999L157.613 32.9959C157.652 33.0732 157.691 33.1119 157.729 33.1119C157.807 33.1119 157.865 33.0732 157.903 32.9959L163.645 11.9999C163.723 11.6519 163.935 11.4779 164.283 11.4779L168.749 11.5359C168.943 11.5359 169.078 11.5939 169.155 11.7099C169.271 11.8259 169.31 11.9806 169.271 12.1739L160.861 40.5359C160.745 40.8452 160.533 40.9999 160.223 40.9999H155.699C155.39 40.9999 155.177 40.8452 155.061 40.5359L149.377 20.9319C149.339 20.8546 149.281 20.8159 149.203 20.8159C149.165 20.8159 149.126 20.8546 149.087 20.9319L143.693 40.4779C143.616 40.8259 143.403 40.9999 143.055 40.9999H138.473Z" fill="#F8D914"/>
</svg>
