<svg width="13" height="15" viewBox="0 0 13 15" fill="none" xmlns="http://www.w3.org/2000/svg">
<path d="M6.35742 0.0159028C6.35503 0.0241272 6.34071 0.0946218 6.32638 0.172166C6.31205 0.24971 6.29056 0.363676 6.27862 0.424772C6.24877 0.57751 6.17235 0.97228 6.08758 1.42345C6.01355 1.81117 5.98848 1.90163 5.9061 2.06377C5.82849 2.21416 5.7461 2.32578 5.61715 2.45267C5.44999 2.61716 5.29597 2.71585 5.09658 2.78634C4.65361 2.94378 4.43272 3.02485 4.42436 3.0319C4.40765 3.04835 4.44227 3.06362 4.67271 3.14352C4.97718 3.24926 5.08583 3.2939 5.1921 3.3597C5.37716 3.47366 5.51686 3.60525 5.63984 3.78502C5.75804 3.95773 5.83207 4.13514 5.87863 4.35367C5.89654 4.43944 5.92878 4.89178 5.95624 5.45339C5.96221 5.5791 5.97296 5.76944 5.98012 5.87636C5.98609 5.98327 5.99803 6.19476 6.004 6.34632C6.01117 6.49789 6.02191 6.70114 6.02788 6.79866C6.03505 6.895 6.0446 7.09356 6.05176 7.23925C6.05893 7.38494 6.06967 7.58585 6.07564 7.68572C6.08281 7.78559 6.09355 7.9865 6.09952 8.13219C6.10669 8.27787 6.11743 8.48583 6.1234 8.59628C6.13056 8.70554 6.14131 8.9041 6.14728 9.03687C6.15444 9.16963 6.16519 9.36702 6.17116 9.47746C6.17832 9.58673 6.19146 9.83816 6.20101 10.0355C6.21056 10.2329 6.2237 10.4832 6.23086 10.5936C6.23683 10.7029 6.24757 10.8968 6.25474 11.0225C6.26071 11.1482 6.26907 11.2962 6.27265 11.3514C6.27623 11.4067 6.29175 11.7027 6.30847 12.0094C6.32518 12.316 6.34429 12.6556 6.35026 12.7637C6.35742 12.8706 6.3622 12.9987 6.3622 13.048C6.3622 13.115 6.36578 13.1373 6.37891 13.1373C6.39205 13.1373 6.39563 13.0821 6.4016 12.8577C6.40518 12.7049 6.41951 12.3842 6.43384 12.1445C6.44697 11.906 6.46369 11.5993 6.46966 11.4631C6.47563 11.3279 6.48876 11.0812 6.49831 10.9167C6.50906 10.7522 6.52577 10.4714 6.53652 10.294C6.54726 10.1166 6.5592 9.9157 6.56159 9.84756C6.56398 9.77941 6.57592 9.52798 6.58905 9.28947C6.60219 9.04979 6.63204 8.49523 6.65472 8.05582C6.67741 7.6164 6.70129 7.15349 6.70845 7.02777C6.73711 6.49554 6.74547 6.3522 6.75621 6.14071C6.76337 6.01735 6.77412 5.82466 6.78009 5.71187C6.78606 5.59908 6.79681 5.40287 6.80397 5.27715C6.85173 4.39714 6.85412 4.3807 6.90785 4.21151C6.95083 4.07522 7.0762 3.82731 7.14426 3.74389C7.39499 3.43489 7.62304 3.29508 8.12929 3.13999C8.27615 3.09534 8.35615 3.06127 8.35615 3.04482C8.35615 3.02955 8.30242 3.0037 8.22481 2.98255C8.11377 2.952 7.61588 2.76519 7.51439 2.71702C7.36037 2.64183 7.27321 2.58073 7.14426 2.45384C6.88874 2.20241 6.78845 1.99328 6.69651 1.52331C6.64159 1.24251 6.52219 0.652704 6.4816 0.465894C6.44458 0.295532 6.41115 0.121645 6.4016 0.0452756C6.39563 0.0029788 6.36697 -0.0158198 6.35742 0.0159028Z" fill="#FFF"/>
<path d="M11.9465 2.66298C11.9357 2.67238 11.8485 2.81102 11.7518 2.9708C11.3411 3.65225 11.0235 4.17156 10.9793 4.23736C10.9172 4.32783 10.7596 4.48761 10.6605 4.56046C10.5101 4.66972 10.3394 4.74844 10.1328 4.80249C10.011 4.83421 10.005 4.83539 9.53819 4.84126L9.06657 4.84831L9.11552 4.89531C9.14179 4.92115 9.2385 4.99987 9.32924 5.07154C9.54893 5.24308 9.6755 5.3688 9.7734 5.51566C9.87131 5.66252 9.93579 5.80469 9.98354 5.9821C10.0158 6.10782 10.0194 6.13249 10.0206 6.33457C10.0218 6.59423 10.0158 6.62948 9.89041 7.03952C9.84146 7.19813 9.75908 7.47306 9.70535 7.65047C9.57162 8.09576 9.34835 8.83008 9.26119 9.11324C9.22178 9.24248 9.17044 9.41166 9.14776 9.48921C9.09403 9.67132 9.07373 9.74064 9.01881 9.91218C8.99493 9.98972 8.95433 10.1213 8.92926 10.2059C8.90419 10.2893 8.86956 10.4056 8.85165 10.4644C8.83374 10.522 8.80867 10.6042 8.79792 10.6465C8.77404 10.7311 8.69404 10.9978 8.65584 11.1165C8.6427 11.1588 8.60211 11.2962 8.56509 11.4219C8.48629 11.6875 8.48151 11.7051 8.37525 12.0564C8.09705 12.9775 8.029 13.2066 7.99795 13.3135C7.97288 13.4017 7.8093 13.9386 7.76035 14.0949C7.74244 14.1524 7.71498 14.2429 7.69946 14.2946C7.65767 14.4391 7.55618 14.7599 7.53827 14.8057C7.50723 14.8867 7.49409 14.942 7.49887 14.976C7.50245 15.0113 7.50245 15.0113 7.54185 14.9514C7.56215 14.9185 7.58006 14.882 7.58006 14.8691C7.58006 14.8351 7.57767 14.8398 7.95019 13.9597C8.01586 13.8011 8.0887 13.6296 8.11138 13.5779C8.13287 13.5262 8.20332 13.3617 8.2666 13.2137C8.32988 13.0645 8.42659 12.8377 8.48152 12.7085C8.53644 12.5792 8.61644 12.3889 8.66061 12.2855C8.70479 12.1821 8.78479 11.9918 8.83971 11.8625C8.89463 11.7333 8.97463 11.543 9.01881 11.4396C9.06298 11.3362 9.12985 11.1776 9.16805 11.0871C9.20626 10.9966 9.2588 10.8721 9.28506 10.811C9.32924 10.7064 9.47849 10.3586 9.60983 10.0473C9.64087 9.97327 9.71132 9.80643 9.76505 9.67719C9.81878 9.54795 9.96563 9.20135 10.0898 8.90763C10.2152 8.6139 10.3394 8.31782 10.368 8.24968C10.4707 7.99825 10.8766 7.04774 10.9017 6.99957C10.9937 6.81864 11.162 6.6236 11.3316 6.49906C11.4474 6.41329 11.6515 6.31108 11.7829 6.27113C11.9572 6.21943 12.0921 6.20533 12.4372 6.20533C12.6939 6.20533 12.75 6.20298 12.75 6.18888C12.75 6.18066 12.6545 6.09724 12.5387 6.00442C12.1053 5.66017 12.03 5.5838 11.8879 5.35117C11.8187 5.23838 11.7471 5.05627 11.7172 4.91881C11.7065 4.87298 11.6957 4.77547 11.6921 4.70145C11.6838 4.54753 11.679 4.58513 11.8247 3.61465C11.8808 3.23986 11.9369 2.86859 11.9488 2.78869C11.9608 2.70997 11.9679 2.64535 11.9667 2.64535C11.9656 2.64535 11.956 2.65358 11.9465 2.66298Z" fill="#FFF"/>
<path d="M0.793466 2.68883C0.78869 2.70527 0.789884 2.73347 0.795853 2.74992C0.820927 2.81572 0.825703 2.84391 0.947489 3.66165C0.976145 3.85551 1.01435 4.10694 1.03226 4.21973C1.07286 4.47116 1.07763 4.72142 1.0442 4.87181C0.983309 5.15496 0.861523 5.39699 0.676455 5.6026C0.601234 5.6872 0.534371 5.74477 0.2311 5.99385C0.139163 6.06787 0.0484209 6.14306 0.0293171 6.16069C-0.0387398 6.21943 -0.0208301 6.22178 0.443629 6.23001C0.89973 6.23706 0.908088 6.23823 1.12062 6.31812C1.42628 6.43444 1.71761 6.70584 1.86924 7.01602C1.90506 7.08769 1.98745 7.27803 2.08297 7.50948C2.10685 7.5647 2.1355 7.63285 2.14744 7.66222C2.16057 7.69159 2.18565 7.75151 2.20475 7.79734C2.22386 7.84198 2.26087 7.9301 2.28714 7.9912C2.38146 8.20738 2.51638 8.52696 2.76234 9.11324C3.08591 9.88515 3.15636 10.052 3.19695 10.1472C3.22322 10.2047 3.27098 10.3187 3.3056 10.3998C3.34023 10.4808 3.39754 10.6148 3.43336 10.6994C3.47037 10.7828 3.53007 10.9261 3.56828 11.0166C3.60649 11.1071 3.68887 11.3021 3.75335 11.4513C3.87752 11.7427 4.25482 12.6333 4.36108 12.8882C4.44108 13.0809 4.67032 13.619 4.68704 13.6543C4.69779 13.6766 4.72405 13.7377 4.74435 13.7894C4.76584 13.8411 4.81121 13.9492 4.84465 14.0302C4.87927 14.1113 4.93897 14.2535 4.97718 14.3475C5.01539 14.4415 5.06673 14.5625 5.09061 14.6177C5.11449 14.6729 5.14195 14.7411 5.15269 14.7704C5.20284 14.9138 5.26373 15.0136 5.26373 14.9525C5.26373 14.9267 5.22194 14.7775 5.16941 14.6142C5.10374 14.4156 5.02016 14.1489 4.98434 14.0302C4.96763 13.975 4.91867 13.8141 4.87569 13.6719C4.83151 13.5297 4.77778 13.3523 4.75629 13.2783C4.73361 13.2043 4.67988 13.0269 4.6357 12.8847C4.54138 12.5769 4.49362 12.4206 4.46138 12.309C4.44944 12.2632 4.39571 12.0869 4.34198 11.9154C4.28944 11.7439 4.21303 11.4901 4.17124 11.3514C4.13065 11.2128 4.07572 11.0295 4.04826 10.9461C4.02199 10.8615 3.98976 10.7558 3.97662 10.7111C3.87275 10.3551 3.73305 9.8922 3.68171 9.73006C3.65902 9.65957 3.46799 9.03687 3.425 8.89588C3.40709 8.83478 3.3665 8.70202 3.33665 8.60215C3.24232 8.29315 3.21606 8.20738 3.11457 7.87371C2.988 7.45309 2.89249 7.13939 2.81846 6.89853C2.73607 6.62948 2.71578 6.49906 2.72413 6.29933C2.73966 5.97505 2.8304 5.71657 3.01785 5.46984C3.11695 5.33825 3.19576 5.26423 3.4047 5.10444C3.61962 4.93878 3.67574 4.89061 3.67574 4.87298C3.67574 4.86358 3.56231 4.86006 3.26143 4.86006C2.91637 4.86006 2.82682 4.85654 2.73249 4.83891C2.434 4.78487 2.17729 4.65798 1.97073 4.46177C1.82626 4.32548 1.85253 4.36542 1.14688 3.20226C1.00122 2.9614 0.88182 2.76167 0.88182 2.75815C0.88182 2.74522 0.819733 2.6571 0.810181 2.6571C0.805405 2.6571 0.797047 2.6712 0.793466 2.68883Z" fill="#FFF"/>
</svg>
