<svg width="570" height="55" viewBox="0 0 570 55" fill="none" xmlns="http://www.w3.org/2000/svg">
<path d="M44.3362 53.9999H0.240234V51.4399C1.64823 51.3972 2.80023 51.2692 3.69623 51.0559C4.59223 50.8426 5.2749 50.4799 5.74424 49.9679C6.21357 49.4559 6.53357 48.7306 6.70424 47.7919C6.8749 46.8532 6.96023 45.6372 6.96023 44.1439V14.5759C6.96023 13.0826 6.8749 11.8879 6.70424 10.9919C6.57623 10.0532 6.2989 9.32788 5.87223 8.81588C5.44557 8.26122 4.8269 7.89855 4.01623 7.72788C3.24823 7.51455 2.22423 7.36522 0.944235 7.27988V4.71988H23.0242V7.27988C21.5736 7.32255 20.4002 7.45055 19.5042 7.66388C18.6509 7.87722 17.9896 8.26122 17.5202 8.81588C17.0509 9.37055 16.7309 10.1386 16.5602 11.1199C16.4322 12.1012 16.3682 13.4026 16.3682 15.0239V41.8399C16.3682 43.6319 16.5389 45.1039 16.8802 46.2559C17.2642 47.3652 17.9042 48.2399 18.8002 48.8799C19.6962 49.4772 20.8909 49.9039 22.3842 50.1599C23.8776 50.3732 25.7336 50.4799 27.9522 50.4799C30.4269 50.4799 32.4962 50.3306 34.1602 50.0319C35.8242 49.7332 37.2109 49.1786 38.3202 48.3679C39.4722 47.5146 40.3896 46.3839 41.0722 44.9759C41.7549 43.5679 42.3309 41.7332 42.8002 39.4719H45.3602L44.3362 53.9999Z" fill="#030D3E"/>
<path d="M62.7607 43.5039C62.7607 45.2105 62.8247 46.5759 62.9527 47.5999C63.0807 48.6239 63.3367 49.4132 63.7207 49.9679C64.1047 50.5226 64.6594 50.9066 65.3847 51.1199C66.1101 51.2906 67.0914 51.3972 68.3287 51.4399V53.9999H48.1687V51.4399C49.3634 51.3972 50.3234 51.2692 51.0487 51.0559C51.8167 50.7999 52.3927 50.4159 52.7767 49.9039C53.2034 49.3492 53.4807 48.6026 53.6087 47.6639C53.7794 46.6826 53.8647 45.4452 53.8647 43.9519V36.0799C53.8647 33.6052 53.8221 31.5786 53.7367 29.9999C53.6514 28.3786 53.5447 27.2692 53.4167 26.6719C53.2034 25.6052 52.7127 24.9012 51.9447 24.5599C51.2194 24.2186 49.8754 24.0479 47.9127 24.0479V21.8719L62.7607 19.4399V43.5039ZM53.3527 5.87188C53.3527 4.46388 53.8221 3.29055 54.7607 2.35188C55.7421 1.37055 56.9154 0.879883 58.2807 0.879883C59.6887 0.879883 60.8621 1.37055 61.8007 2.35188C62.7821 3.29055 63.2727 4.46388 63.2727 5.87188C63.2727 7.23722 62.7821 8.41055 61.8007 9.39188C60.8621 10.3306 59.6887 10.7999 58.2807 10.7999C56.9154 10.7999 55.7421 10.3306 54.7607 9.39188C53.8221 8.41055 53.3527 7.23722 53.3527 5.87188Z" fill="#030D3E"/>
<path d="M83.8377 39.9839C83.8377 41.5626 84.0511 43.0346 84.4777 44.3999C84.9471 45.7226 85.5657 46.8746 86.3337 47.8559C87.1017 48.8372 88.0191 49.6052 89.0857 50.1599C90.1524 50.7146 91.3257 50.9919 92.6057 50.9919C95.1657 50.9919 97.1071 49.8186 98.4297 47.4719C99.7524 45.1252 100.414 41.6692 100.414 37.1039C100.414 32.6666 99.7524 29.2959 98.4297 26.9919C97.1497 24.6452 95.2084 23.4719 92.6057 23.4719C91.0697 23.4719 89.6404 23.8986 88.3177 24.7519C87.0377 25.5626 86.0351 26.7146 85.3097 28.2079C84.3284 30.2559 83.8377 32.8372 83.8377 35.9519V39.9839ZM83.7097 24.4959H83.9657C85.0751 22.8746 86.5044 21.6372 88.2537 20.7839C90.0031 19.8879 91.9871 19.4399 94.2057 19.4399C96.4671 19.4399 98.5577 19.9092 100.478 20.8479C102.44 21.7439 104.126 22.9812 105.534 24.5599C106.984 26.1386 108.115 27.9946 108.926 30.1279C109.736 32.2612 110.142 34.5439 110.142 36.9759C110.142 39.5359 109.694 41.9039 108.798 44.0799C107.944 46.2132 106.75 48.0692 105.214 49.6479C103.72 51.2266 101.95 52.4639 99.9017 53.3599C97.8964 54.2559 95.7631 54.7039 93.5017 54.7039C91.1551 54.7039 88.9364 54.2559 86.8457 53.3599C84.7977 52.4212 83.1551 51.2052 81.9177 49.7119L77.0537 53.9999H74.8777V15.9199C74.8777 11.9092 74.6004 9.15722 74.0457 7.66388C73.9177 7.36522 73.7684 7.10922 73.5977 6.89588C73.4271 6.68255 73.1711 6.51188 72.8297 6.38388C72.5311 6.21322 72.1044 6.08522 71.5497 5.99988C70.9951 5.87188 70.2697 5.74388 69.3737 5.61588V3.43988L83.7097 0.879883V24.4959Z" fill="#030D3E"/>
<path d="M129.075 44.0799C129.075 45.7439 129.139 47.0666 129.267 48.0479C129.437 48.9866 129.757 49.7119 130.227 50.2239C130.696 50.7359 131.379 51.0772 132.275 51.2479C133.171 51.3759 134.365 51.4399 135.859 51.4399V53.9999H114.483V51.4399C115.763 51.3546 116.787 51.2266 117.555 51.0559C118.323 50.8852 118.899 50.5439 119.283 50.0319C119.667 49.5199 119.901 48.7946 119.987 47.8559C120.115 46.8746 120.179 45.5732 120.179 43.9519V36.1439C120.179 33.4985 120.115 31.3866 119.987 29.8079C119.859 28.2292 119.581 27.0132 119.155 26.1599C118.728 25.3066 118.109 24.7519 117.299 24.4959C116.531 24.1972 115.507 24.0479 114.227 24.0479V21.8079L127.027 19.4399L128.051 26.7999H128.307C129.459 24.5386 130.973 22.7466 132.851 21.4239C134.728 20.1012 136.712 19.4399 138.803 19.4399C140.424 19.4399 141.747 19.8452 142.771 20.6559C143.795 21.4666 144.307 22.4906 144.307 23.7279C144.307 25.0932 143.901 26.2452 143.091 27.1839C142.323 28.1226 141.256 28.5919 139.891 28.5919C139.251 28.5919 138.675 28.4639 138.163 28.2079C137.651 27.9519 137.181 27.6746 136.755 27.3759C136.371 27.0346 135.965 26.7359 135.539 26.4799C135.155 26.1812 134.749 26.0319 134.323 26.0319C133.512 26.0319 132.744 26.5652 132.019 27.6319C131.293 28.6986 130.696 30.1279 130.227 31.9199C129.885 33.1999 129.608 34.6506 129.395 36.2719C129.181 37.8506 129.075 39.4292 129.075 41.0079V44.0799Z" fill="#030D3E"/>
<path d="M178.623 48.0479C174.74 52.4426 169.897 54.6399 164.095 54.6399C161.449 54.6399 159.039 54.2346 156.863 53.4239C154.729 52.5706 152.895 51.3972 151.359 49.9039C149.823 48.3679 148.628 46.5546 147.775 44.4639C146.921 42.3732 146.495 40.0479 146.495 37.4879C146.495 34.8426 146.943 32.4319 147.839 30.2559C148.735 28.0372 149.993 26.1386 151.615 24.5599C153.279 22.9386 155.22 21.6799 157.439 20.7839C159.7 19.8879 162.175 19.4399 164.863 19.4399C169.385 19.4399 172.905 20.6559 175.423 23.0879C177.94 25.5199 179.199 28.9332 179.199 33.3279C179.199 34.0106 179.092 34.4372 178.879 34.6079C178.665 34.7359 178.068 34.7999 177.087 34.7999H156.479C156.308 35.1839 156.223 35.8879 156.223 36.9119C156.223 41.0932 157.119 44.3999 158.911 46.8319C160.745 49.2639 163.22 50.4799 166.335 50.4799C168.127 50.4799 169.897 50.0746 171.647 49.2639C173.439 48.4532 175.167 47.3012 176.831 45.8079L178.623 48.0479ZM166.207 31.2159C167.913 31.2159 169.001 31.1306 169.471 30.9599C169.983 30.7466 170.239 30.2772 170.239 29.5519C170.239 27.6746 169.705 26.1386 168.639 24.9439C167.572 23.7492 166.228 23.1519 164.607 23.1519C162.772 23.1519 161.129 23.9199 159.679 25.4559C158.271 26.9492 157.353 28.8692 156.927 31.2159H166.207Z" fill="#030D3E"/>
<path d="M200.612 53.9999V51.4399C202.063 51.3972 203.215 51.2692 204.068 51.0559C204.964 50.8426 205.647 50.4799 206.116 49.9679C206.628 49.4559 206.97 48.7306 207.14 47.7919C207.311 46.8532 207.396 45.6372 207.396 44.1439V14.5759C207.396 13.0826 207.332 11.8879 207.204 10.9919C207.076 10.0532 206.799 9.32788 206.372 8.81588C205.988 8.26122 205.434 7.89855 204.708 7.72788C204.026 7.51455 203.108 7.36522 201.956 7.27988V4.71988H222.5C228.943 4.71988 233.892 5.76522 237.348 7.85588C240.847 9.90388 242.596 12.8479 242.596 16.6879C242.596 21.7652 238.948 25.3492 231.652 27.4399V27.6959C233.999 27.6959 236.111 28.0372 237.988 28.7199C239.908 29.3599 241.53 30.2772 242.852 31.4719C244.175 32.6666 245.199 34.0746 245.924 35.6959C246.65 37.3172 247.012 39.0879 247.012 41.0079C247.012 43.1839 246.479 45.0826 245.412 46.7039C244.388 48.3252 242.895 49.6906 240.932 50.7999C237.135 52.9332 231.908 53.9999 225.252 53.9999H200.612ZM225.7 50.0959C232.57 50.0959 236.004 47.0026 236.004 40.8159C236.004 37.0186 234.767 34.2452 232.292 32.4959C231.012 31.5999 229.348 30.9599 227.3 30.5759C225.295 30.1919 222.82 29.9999 219.876 29.9999H216.804V42.7999C216.804 45.4452 217.487 47.3226 218.852 48.4319C220.218 49.5412 222.5 50.0959 225.7 50.0959ZM220.58 26.1599C222.5 26.1599 224.164 25.9892 225.572 25.6479C226.98 25.2639 228.175 24.7306 229.156 24.0479C231.204 22.6399 232.228 20.4425 232.228 17.4559C232.228 14.3412 231.46 12.1012 229.924 10.7359C228.388 9.32788 225.914 8.62388 222.5 8.62388H217.956C217.188 8.62388 216.804 8.98655 216.804 9.71188V26.1599H220.58Z" fill="#030D3E"/>
<path d="M271.516 35.7599C267.932 37.3812 265.223 38.8959 263.388 40.3039C261.596 41.6692 260.7 43.0986 260.7 44.5919C260.7 45.8292 261.042 46.8106 261.724 47.5359C262.407 48.2612 263.26 48.6239 264.284 48.6239C265.308 48.6239 266.268 48.4532 267.164 48.1119C268.06 47.7279 268.828 47.2372 269.468 46.6399C270.108 46.0426 270.599 45.3386 270.94 44.5279C271.324 43.6746 271.516 42.7786 271.516 41.8399V35.7599ZM271.516 32.3679V29.6799C271.516 27.2052 271.068 25.4132 270.172 24.3039C269.319 23.1519 267.975 22.5759 266.14 22.5759C264.903 22.5759 263.964 22.9172 263.324 23.5999C262.684 24.2399 262.087 25.3279 261.532 26.8639C261.148 27.9306 260.594 28.7626 259.868 29.3599C259.186 29.9572 258.226 30.2559 256.988 30.2559C255.794 30.2559 254.876 29.8932 254.236 29.1679C253.596 28.4426 253.276 27.4186 253.276 26.0959C253.276 24.0479 254.386 22.4266 256.604 21.2319C258.866 20.0372 262.258 19.4399 266.78 19.4399C271.559 19.4399 274.972 20.3146 277.02 22.0639C279.068 23.7706 280.092 26.6506 280.092 30.7039V44.7199C280.092 48.3466 280.818 50.1599 282.268 50.1599C283.079 50.1599 283.826 49.8826 284.508 49.3279L285.468 51.1839C284.871 52.2506 283.932 53.1039 282.652 53.7439C281.415 54.3412 280.007 54.6399 278.428 54.6399C276.466 54.6399 274.972 54.0426 273.948 52.8479C272.924 51.6532 272.412 49.9679 272.412 47.7919H272.092C270.855 50.0106 269.255 51.6959 267.292 52.8479C265.33 53.9999 263.09 54.5759 260.572 54.5759C257.884 54.5759 255.73 53.8292 254.108 52.3359C252.487 50.7999 251.676 48.8159 251.676 46.3839C251.676 44.5066 252.508 42.7572 254.172 41.1359C255.836 39.4719 258.61 37.8506 262.492 36.2719L271.516 32.3679Z" fill="#030D3E"/>
<path d="M291.69 53.9999H289.706V42.3519H292.394C293.12 45.4239 294.165 47.6639 295.53 49.0719C296.896 50.4799 298.666 51.1839 300.842 51.1839C302.421 51.1839 303.637 50.8639 304.49 50.2239C305.386 49.5412 305.834 48.6239 305.834 47.4719C305.834 46.2772 305.301 45.1252 304.234 44.0159C303.168 42.8639 301.44 41.6479 299.05 40.3679C295.808 38.6186 293.482 36.8906 292.074 35.1839C290.666 33.4345 289.962 31.4719 289.962 29.2959C289.962 27.8879 290.218 26.5866 290.73 25.3919C291.285 24.1546 292.01 23.0879 292.906 22.1919C293.845 21.2959 294.954 20.6132 296.234 20.1439C297.514 19.6319 298.901 19.3759 300.394 19.3759C301.717 19.3759 303.018 19.5679 304.298 19.9519C305.621 20.3359 306.773 20.8692 307.754 21.5519L308.906 20.0159H310.57V29.6799H308.074C307.093 27.2479 306.069 25.4986 305.002 24.4319C303.978 23.3652 302.72 22.8319 301.226 22.8319C300.032 22.8319 299.072 23.1519 298.346 23.7919C297.664 24.4319 297.322 25.2852 297.322 26.3519C297.322 27.5466 297.834 28.6772 298.858 29.7439C299.925 30.8106 301.674 31.9839 304.106 33.2639C305.813 34.2026 307.285 35.1199 308.522 36.0159C309.76 36.9119 310.762 37.8292 311.53 38.7679C312.298 39.6639 312.853 40.6239 313.194 41.6479C313.578 42.6292 313.77 43.6959 313.77 44.8479C313.77 46.3412 313.493 47.6852 312.938 48.8799C312.384 50.0746 311.594 51.0986 310.57 51.9519C309.546 52.8052 308.309 53.4666 306.858 53.9359C305.45 54.4052 303.872 54.6399 302.122 54.6399C300.288 54.6399 298.581 54.4052 297.002 53.9359C295.424 53.4239 294.122 52.6986 293.098 51.7599L291.69 53.9999Z" fill="#030D3E"/>
<path d="M338.975 51.4399C340.34 51.4399 341.3 51.3972 341.855 51.3119C342.409 51.1839 342.687 50.9492 342.687 50.6079C342.687 50.3519 342.388 49.7332 341.791 48.7519C341.236 47.7279 340.511 46.5546 339.615 45.2319L334.751 37.9359L331.551 41.0079V43.5039C331.551 45.1679 331.615 46.5119 331.743 47.5359C331.871 48.5599 332.084 49.3706 332.383 49.9679C332.724 50.5226 333.172 50.9066 333.727 51.1199C334.324 51.3332 335.071 51.4399 335.967 51.4399V53.9999H317.087V51.4399C318.281 51.3972 319.241 51.2692 319.967 51.0559C320.692 50.8426 321.268 50.4799 321.695 49.9679C322.121 49.4132 322.399 48.6666 322.527 47.7279C322.697 46.7466 322.783 45.4879 322.783 43.9519V16.8159C322.783 14.2132 322.74 12.1652 322.655 10.6719C322.569 9.17855 322.335 8.06922 321.951 7.34388C321.609 6.57588 321.055 6.10655 320.287 5.93588C319.561 5.76522 318.559 5.67988 317.279 5.67988V3.31188L331.551 0.879883V36.4639L337.695 30.6399C339.913 28.5492 341.492 26.9919 342.431 25.9679C343.369 24.9012 343.839 24.1332 343.839 23.6639C343.839 23.2799 343.433 23.0239 342.623 22.8959C341.855 22.7252 340.404 22.6399 338.271 22.6399V20.0799H355.743V22.6399C354.121 22.6399 352.692 22.9172 351.455 23.4719C350.217 24.0266 348.873 24.9866 347.423 26.3519L341.215 32.1759L352.287 47.8559C353.268 49.2212 354.228 50.1599 355.167 50.6719C356.105 51.1839 357.343 51.4399 358.879 51.4399V53.9999H338.975V51.4399Z" fill="#030D3E"/>
<path d="M391.373 48.0479C387.49 52.4426 382.647 54.6399 376.845 54.6399C374.199 54.6399 371.789 54.2346 369.613 53.4239C367.479 52.5706 365.645 51.3972 364.109 49.9039C362.573 48.3679 361.378 46.5546 360.525 44.4639C359.671 42.3732 359.245 40.0479 359.245 37.4879C359.245 34.8426 359.693 32.4319 360.589 30.2559C361.485 28.0372 362.743 26.1386 364.365 24.5599C366.029 22.9386 367.97 21.6799 370.189 20.7839C372.45 19.8879 374.925 19.4399 377.613 19.4399C382.135 19.4399 385.655 20.6559 388.173 23.0879C390.69 25.5199 391.949 28.9332 391.949 33.3279C391.949 34.0106 391.842 34.4372 391.629 34.6079C391.415 34.7359 390.818 34.7999 389.837 34.7999H369.229C369.058 35.1839 368.973 35.8879 368.973 36.9119C368.973 41.0932 369.869 44.3999 371.661 46.8319C373.495 49.2639 375.97 50.4799 379.085 50.4799C380.877 50.4799 382.647 50.0746 384.397 49.2639C386.189 48.4532 387.917 47.3012 389.581 45.8079L391.373 48.0479ZM378.957 31.2159C380.663 31.2159 381.751 31.1306 382.221 30.9599C382.733 30.7466 382.989 30.2772 382.989 29.5519C382.989 27.6746 382.455 26.1386 381.389 24.9439C380.322 23.7492 378.978 23.1519 377.357 23.1519C375.522 23.1519 373.879 23.9199 372.429 25.4559C371.021 26.9492 370.103 28.8692 369.677 31.2159H378.957Z" fill="#030D3E"/>
<path d="M410.762 44.0799C410.762 45.7439 410.826 47.0666 410.954 48.0479C411.125 48.9866 411.445 49.7119 411.914 50.2239C412.384 50.7359 413.066 51.0772 413.962 51.2479C414.858 51.3759 416.053 51.4399 417.546 51.4399V53.9999H396.17V51.4399C397.45 51.3546 398.474 51.2266 399.242 51.0559C400.01 50.8852 400.586 50.5439 400.97 50.0319C401.354 49.5199 401.589 48.7946 401.674 47.8559C401.802 46.8746 401.866 45.5732 401.866 43.9519V36.1439C401.866 33.4985 401.802 31.3866 401.674 29.8079C401.546 28.2292 401.269 27.0132 400.842 26.1599C400.416 25.3066 399.797 24.7519 398.986 24.4959C398.218 24.1972 397.194 24.0479 395.914 24.0479V21.8079L408.714 19.4399L409.738 26.7999H409.994C411.146 24.5386 412.661 22.7466 414.538 21.4239C416.416 20.1012 418.4 19.4399 420.49 19.4399C422.112 19.4399 423.434 19.8452 424.458 20.6559C425.482 21.4666 425.994 22.4906 425.994 23.7279C425.994 25.0932 425.589 26.2452 424.778 27.1839C424.01 28.1226 422.944 28.5919 421.578 28.5919C420.938 28.5919 420.362 28.4639 419.85 28.2079C419.338 27.9519 418.869 27.6746 418.442 27.3759C418.058 27.0346 417.653 26.7359 417.226 26.4799C416.842 26.1812 416.437 26.0319 416.01 26.0319C415.2 26.0319 414.432 26.5652 413.706 27.6319C412.981 28.6986 412.384 30.1279 411.914 31.9199C411.573 33.1999 411.296 34.6506 411.082 36.2719C410.869 37.8506 410.762 39.4292 410.762 41.0079V44.0799Z" fill="#030D3E"/>
<path d="M432.589 28.3359C432.12 27.0986 431.672 26.1172 431.245 25.3919C430.819 24.6239 430.371 24.0479 429.901 23.6639C429.475 23.2372 428.984 22.9599 428.429 22.8319C427.917 22.7039 427.299 22.6399 426.573 22.6399V20.0799H445.709V22.6399C444.643 22.6399 443.789 22.6826 443.149 22.7679C442.552 22.8532 442.083 22.9812 441.741 23.1519C441.443 23.3226 441.251 23.5572 441.165 23.8559C441.08 24.1119 441.037 24.4106 441.037 24.7519C441.037 25.3066 441.144 25.9466 441.357 26.6719C441.571 27.3972 441.827 28.1226 442.125 28.8479L448.205 45.6159H448.461L455.309 28.9119C455.608 28.1866 455.843 27.5466 456.013 26.9919C456.184 26.3946 456.269 25.8612 456.269 25.3919C456.269 24.4532 455.949 23.7706 455.309 23.3439C454.669 22.9172 453.539 22.6826 451.917 22.6399V20.0799H466.061V22.6399C464.909 22.6399 463.907 22.9386 463.053 23.5359C462.243 24.1332 461.389 25.4559 460.493 27.5039L448.525 54.6399H442.701L432.589 28.3359Z" fill="#030D3E"/>
<path d="M482.511 43.5039C482.511 45.2105 482.575 46.5759 482.703 47.5999C482.831 48.6239 483.087 49.4132 483.471 49.9679C483.855 50.5226 484.409 50.9066 485.135 51.1199C485.86 51.2906 486.841 51.3972 488.079 51.4399V53.9999H467.919V51.4399C469.113 51.3972 470.073 51.2692 470.799 51.0559C471.567 50.7999 472.143 50.4159 472.527 49.9039C472.953 49.3492 473.231 48.6026 473.359 47.6639C473.529 46.6826 473.615 45.4452 473.615 43.9519V36.0799C473.615 33.6052 473.572 31.5786 473.487 29.9999C473.401 28.3786 473.295 27.2692 473.167 26.6719C472.953 25.6052 472.463 24.9012 471.695 24.5599C470.969 24.2186 469.625 24.0479 467.663 24.0479V21.8719L482.511 19.4399V43.5039ZM473.103 5.87188C473.103 4.46388 473.572 3.29055 474.511 2.35188C475.492 1.37055 476.665 0.879883 478.031 0.879883C479.439 0.879883 480.612 1.37055 481.551 2.35188C482.532 3.29055 483.023 4.46388 483.023 5.87188C483.023 7.23722 482.532 8.41055 481.551 9.39188C480.612 10.3306 479.439 10.7999 478.031 10.7999C476.665 10.7999 475.492 10.3306 474.511 9.39188C473.572 8.41055 473.103 7.23722 473.103 5.87188Z" fill="#030D3E"/>
<path d="M504.996 43.5039C504.996 45.2105 505.06 46.5759 505.188 47.5999C505.316 48.6239 505.572 49.4132 505.956 49.9679C506.34 50.5226 506.894 50.9066 507.62 51.1199C508.345 51.2906 509.326 51.3972 510.564 51.4399V53.9999H490.404V51.4399C491.598 51.3972 492.558 51.2692 493.284 51.0559C494.052 50.7999 494.628 50.4159 495.012 49.9039C495.438 49.3492 495.716 48.6026 495.844 47.6639C496.014 46.6826 496.1 45.4452 496.1 43.9519V17.5199C496.1 15.0452 496.057 13.0186 495.972 11.4399C495.886 9.81855 495.78 8.70922 495.652 8.11189C495.438 7.04522 494.948 6.34122 494.18 5.99988C493.454 5.65855 492.11 5.48788 490.148 5.48788V3.31188L504.996 0.879883V43.5039Z" fill="#030D3E"/>
<path d="M527.746 43.5039C527.746 45.2105 527.81 46.5759 527.938 47.5999C528.066 48.6239 528.322 49.4132 528.706 49.9679C529.09 50.5226 529.644 50.9066 530.37 51.1199C531.095 51.2906 532.076 51.3972 533.314 51.4399V53.9999H513.154V51.4399C514.348 51.3972 515.308 51.2692 516.034 51.0559C516.802 50.7999 517.378 50.4159 517.762 49.9039C518.188 49.3492 518.466 48.6026 518.594 47.6639C518.764 46.6826 518.85 45.4452 518.85 43.9519V17.5199C518.85 15.0452 518.807 13.0186 518.722 11.4399C518.636 9.81855 518.53 8.70922 518.402 8.11189C518.188 7.04522 517.698 6.34122 516.93 5.99988C516.204 5.65855 514.86 5.48788 512.898 5.48788V3.31188L527.746 0.879883V43.5039Z" fill="#030D3E"/>
<path d="M569.248 48.0479C565.365 52.4426 560.522 54.6399 554.72 54.6399C552.074 54.6399 549.664 54.2346 547.488 53.4239C545.354 52.5706 543.52 51.3972 541.984 49.9039C540.448 48.3679 539.253 46.5546 538.4 44.4639C537.546 42.3732 537.12 40.0479 537.12 37.4879C537.12 34.8426 537.568 32.4319 538.464 30.2559C539.36 28.0372 540.618 26.1386 542.24 24.5599C543.904 22.9386 545.845 21.6799 548.064 20.7839C550.325 19.8879 552.8 19.4399 555.488 19.4399C560.01 19.4399 563.53 20.6559 566.048 23.0879C568.565 25.5199 569.824 28.9332 569.824 33.3279C569.824 34.0106 569.717 34.4372 569.504 34.6079C569.29 34.7359 568.693 34.7999 567.712 34.7999H547.104C546.933 35.1839 546.848 35.8879 546.848 36.9119C546.848 41.0932 547.744 44.3999 549.536 46.8319C551.37 49.2639 553.845 50.4799 556.96 50.4799C558.752 50.4799 560.522 50.0746 562.272 49.2639C564.064 48.4532 565.792 47.3012 567.456 45.8079L569.248 48.0479ZM556.832 31.2159C558.538 31.2159 559.626 31.1306 560.096 30.9599C560.608 30.7466 560.864 30.2772 560.864 29.5519C560.864 27.6746 560.33 26.1386 559.264 24.9439C558.197 23.7492 556.853 23.1519 555.232 23.1519C553.397 23.1519 551.754 23.9199 550.304 25.4559C548.896 26.9492 547.978 28.8692 547.552 31.2159H556.832Z" fill="#030D3E"/>
</svg>
