<svg width="45" height="40" viewBox="0 0 45 40" fill="none" xmlns="http://www.w3.org/2000/svg">
<path d="M16.4596 0.181559C16.1484 0.389055 16.0394 0.39943 15.4325 0.285307C14.9553 0.191934 14.6596 0.223058 13.98 0.446116C13.067 0.741798 12.2371 1.17754 11.7235 1.63403C11.5523 1.78965 11.376 1.91934 11.3396 1.91934C11.1736 1.91934 10.2659 2.6767 9.25431 3.66749C8.8082 4.10323 8.46064 4.33666 8.11309 4.44041C7.92634 4.49228 7.83297 4.55453 7.79147 4.64272C7.67216 4.8969 7.34016 4.86578 6.69174 4.53897C5.95513 4.17067 5.16665 3.96317 5.00584 4.09804C4.89171 4.1966 4.91246 4.39891 5.05771 4.57528C5.21333 4.76203 5.21852 4.85021 5.08365 5.06809C4.97471 5.25483 4.92803 5.27039 4.83465 5.17702C4.73609 5.07846 4.67384 5.18221 4.55972 5.60757C4.38335 6.27156 4.37816 6.56205 4.53378 7.01336C4.61678 7.26235 4.67903 7.58397 4.69978 7.86928C4.78278 9.01569 4.34704 9.94942 3.34068 10.8105C2.6352 11.4175 2.21502 11.5523 1.56141 11.4019L1.29166 11.3396L1.08417 11.5471C0.741797 11.8739 0 12.8232 0 12.927C0 12.984 0.108935 13.233 0.23862 13.4872C0.368305 13.7414 0.472053 13.9904 0.47724 14.0423C0.47724 14.0942 0.435741 14.2861 0.389055 14.4728C0.326806 14.6855 0.295682 15.0071 0.290494 15.3547C0.285307 15.8942 0.290494 15.9097 0.466866 16.2002C0.778109 16.719 1.78965 17.689 2.0179 17.689C2.27208 17.689 2.78563 18.2493 2.82713 18.5657C2.85307 18.7991 2.94125 18.9184 3.5793 19.5772L4.13954 20.153L4.16029 20.734C4.17585 21.3876 4.22773 21.4862 4.5701 21.5899C4.81909 21.6626 4.89171 21.7456 4.99546 22.0724C5.14071 22.5185 5.1874 22.975 5.1874 23.9035V24.7957L5.00065 25.1692C4.79834 25.5739 4.79834 25.5739 5.05771 25.9318C5.13033 26.0303 5.1874 26.1704 5.1874 26.243C5.1874 26.3157 5.28077 26.5646 5.39489 26.7929C5.50901 27.0211 5.60239 27.2701 5.60239 27.3428C5.60239 27.7111 5.76838 27.8822 6.49462 28.2921C6.73324 28.4269 7.23642 28.8264 7.43872 29.039C7.72403 29.3451 7.9419 29.563 8.12346 29.729C8.27908 29.8638 8.38283 30.0298 8.50733 30.3463C8.66295 30.7353 8.67332 30.7872 8.61626 30.9532C8.5592 31.1088 8.5592 31.1451 8.64739 31.2385C8.88082 31.5082 9.54481 31.7209 10.546 31.8454C11.1114 31.918 12.1696 32.2189 12.5224 32.4108C12.678 32.4938 13.0619 32.8258 13.4457 33.1993C13.9697 33.7181 14.1149 33.8892 14.1668 34.0708C14.3172 34.5792 15.0849 35.0045 16.3144 35.2483C17.1858 35.4195 17.3051 35.4766 17.3726 35.7256C17.4867 36.1406 18.0573 36.4933 18.7317 36.5608C19.0741 36.5919 19.1207 36.6126 19.1778 36.7319C19.3023 36.9913 19.3697 37.0121 20.0441 37.0121H20.6718L20.983 37.204C21.3617 37.4374 22.451 37.8732 22.9646 37.9977C23.1721 38.0444 23.4781 38.1688 23.639 38.2674C24.0851 38.5423 24.2511 38.5994 24.7127 38.6461C24.9462 38.672 25.2367 38.7291 25.3664 38.781C25.496 38.8328 25.7035 38.8691 25.8332 38.8691C26.0978 38.8691 26.5024 38.698 26.6788 38.5112C26.824 38.3556 26.8966 38.3556 27.0575 38.5164C27.1664 38.6253 27.1768 38.6565 27.1197 38.755C27.0575 38.8484 27.073 38.8795 27.2442 39.0248C27.3479 39.1181 27.6955 39.3568 28.0223 39.5643L28.6085 39.9378L28.9716 39.8133C29.4281 39.6576 29.9001 39.5798 30.3929 39.5798C30.7664 39.5798 30.7768 39.585 30.9843 39.7873L31.1918 40L31.5342 39.7925C32.0166 39.502 32.0892 39.4813 32.582 39.5124L33.023 39.5435L33.3809 39.2115L33.7336 38.8795H34.3613C34.7711 38.8795 35.046 38.9055 35.155 38.947C35.3988 39.0507 36.1925 38.9418 36.5711 38.7498C36.9239 38.5735 37.2144 38.5112 37.9406 38.4386C38.3504 38.4023 38.5527 38.3556 38.6668 38.283C39.0455 38.0392 39.113 38.0236 39.528 38.1066C40.1349 38.2207 40.3579 38.2052 40.6225 38.0236C40.747 37.9406 40.8767 37.868 40.9078 37.868C40.9441 37.868 41.0271 37.7902 41.0997 37.6916C41.1724 37.5982 41.3124 37.4841 41.4058 37.4374C41.7845 37.2611 42.0127 37.0328 42.3758 36.4933C42.5781 36.1925 42.7545 35.8916 42.7753 35.8241C42.7908 35.7619 42.7389 35.3936 42.6611 35.0097L42.5159 34.3146V31.8506C42.5107 29.4852 42.5159 29.3607 42.63 28.7174C42.879 27.3428 43.211 26.5076 43.6934 26.0252C43.8542 25.8695 43.9943 25.6828 44.0099 25.6154C44.0254 25.5479 44.0462 25.247 44.0617 24.9462C44.0773 24.6401 44.1032 24.3548 44.124 24.3133C44.1395 24.2614 44.2537 24.2148 44.4197 24.1888L44.6894 24.1473V23.2914V22.4355L44.4975 22.0724C44.3937 21.8701 44.2848 21.6107 44.2537 21.4914C44.181 21.232 43.9217 20.9986 43.5741 20.8741C43.0502 20.6873 42.9516 20.6251 42.7493 20.3605C42.6352 20.2101 42.3966 19.987 42.215 19.8677C41.8882 19.6499 41.8882 19.6499 41.5251 19.681C41.0686 19.7173 40.9182 19.6395 40.6899 19.24C40.249 18.4723 40.1504 18.3271 39.7977 17.9328C39.585 17.6994 39.3671 17.4193 39.3153 17.3103C39.2582 17.1962 38.8536 16.7553 38.4178 16.3247C37.5049 15.4117 37.3544 15.1731 37.2196 14.395C37.1158 13.7881 37.0639 13.6325 36.9083 13.4872C36.8357 13.4198 36.7786 13.3368 36.7786 13.3057C36.7786 13.2175 36.2806 12.7454 35.9486 12.5172C35.7204 12.3564 35.627 12.2423 35.4455 11.9051C35.1187 11.2826 35.072 11.0388 35.0097 9.57074C34.9734 8.74076 34.9267 8.17015 34.88 7.98859C34.7348 7.47504 34.1382 6.48424 33.2979 5.36377C32.6495 4.50785 32.2863 4.1136 32.0062 3.97354C31.8662 3.90092 31.6068 3.7453 31.4304 3.63118C30.9376 3.294 30.7249 3.22137 30.0765 3.15912C29.4177 3.10206 29.2102 3.05019 28.9405 2.86863C28.8367 2.80119 28.4477 2.60926 28.0794 2.44326C27.7059 2.27727 27.3324 2.09052 27.2546 2.02827C27.1716 1.97121 26.9537 1.89859 26.767 1.86746C26.5802 1.84153 26.3157 1.77928 26.1704 1.73259C26.0096 1.68072 25.6413 1.63922 25.2056 1.62366C24.6246 1.59772 24.4741 1.60809 24.3393 1.68072C24.2511 1.7274 24.0903 1.76371 23.9813 1.76371C23.8724 1.76371 23.0839 1.55622 22.228 1.29685L20.677 0.829984L20.2308 0.907795C19.0429 1.11529 18.0366 0.902607 17.2014 0.274932C17.0043 0.124498 16.8175 5.23869e-07 16.7864 5.23869e-07C16.7553 5.23869e-07 16.6049 0.0829988 16.4596 0.181559Z" fill="white"/>
</svg>
